<?xml version="1.0" encoding="utf-8"?>
<!-- Generator: Adobe Illustrator 26.0.1, SVG Export Plug-In . SVG Version: 6.00 Build 0)  -->
<svg version="1.1" id="Layer_1" xmlns="http://www.w3.org/2000/svg" xmlns:xlink="http://www.w3.org/1999/xlink" x="-12px" y="-5px"
	 viewBox="0 0 20 20" style="enable-background:new 0 0 20 20;" height="24" width="24" xml:space="preserve">
<style type="text/css">
	.st0{fill:#FFFFFF;stroke:#000000;stroke-miterlimit:10;}
</style>
<g>
	<path class="st0" d="M5.6,1.1C5.7,1.1,6,0.9,6.8,1C7.6,1.1,7.6,1.3,8,1.2c0.5,0,0.5-0.2,1.3-0.5c0.6-0.2,1.1-0.3,1.6-0.2
		C11.5,0.7,11.5,1,12,1.1c0.5,0.1,0.6-0.2,1.2-0.2c0.1,0,0.9,0,1.5,0.5c0.1,0.1,0.3,0.4,0.8,1C16,2.9,16,3,16.1,3.1
		c0.5,0.3,0.8,0.1,1.2,0.4c0.3,0.2,0.1,0.4,0.5,0.9c0.1,0.2,0.3,0.5,0.8,0.9c0.7,0.8,0.8,0.8,0.9,1c0.1,0.1,0.1,0.3,0.2,1.4
		c0,0.9,0,0.9,0,1.7c0,1.1,0.1,1.2,0,1.5c-0.2,0.6-0.5,0.6-0.7,1.1c-0.2,0.6,0.1,0.7,0,1.5c-0.1,0.4-0.1,0.8-0.4,1.2
		C18.3,15,18.1,15,18,15.3c-0.2,0.4,0.1,0.6-0.1,0.9c-0.2,0.5-1,0.6-1.7,0.7c-0.4,0.1-0.5,0-0.7,0.1c-0.3,0.2-0.3,0.4-0.7,1
		c-0.3,0.4-0.5,0.6-0.7,0.7c-0.3,0.2-0.7,0.1-1.3,0.1c-0.6-0.1-0.6-0.1-0.9-0.1c-0.4,0.1-0.5,0.2-1,0.5c-0.1,0.1-0.6,0.3-1.2,0.4
		c-0.6,0.1-1.2,0.1-1.5,0c-0.4-0.1-1-0.1-1.7-0.6c-0.2-0.1-0.3-0.2-1-0.7C5.3,18,5.2,17.9,5,17.9c-0.4-0.1-0.5,0.1-0.9,0
		c-0.3-0.1-0.5-0.3-0.6-0.6c-0.1-0.3,0-0.4-0.1-0.7c-0.1-0.1-0.1-0.2-0.7-0.6c-0.7-0.4-0.8-0.4-0.9-0.6c-0.1-0.1-0.3-0.4-0.3-0.8
		c0-0.4,0.2-0.4,0.1-0.7c0-0.4-0.4-0.5-0.7-0.9c-0.4-0.5-0.5-1-0.6-1.3c0-0.2,0-0.2,0-1.5c0-0.9,0-1.1,0.1-1.4
		C0.6,8.3,0.8,8.4,1,7.9c0.1-0.3,0.1-0.5,0.1-1.6c0-1,0-1.2,0.1-1.3C1.2,5,1.3,5,2.1,4.3c0.4-0.4,0.5-0.4,0.6-0.6
		c0.2-0.3,0.1-0.5,0.2-0.9c0.1-0.1,0.3-0.6,0.7-0.8c0.4-0.1,0.7,0.2,1,0C4.8,1.9,4.7,1.7,5,1.4C5.2,1.3,5.4,1.2,5.6,1.1z"/>
	<path class="st" d="M5,5.2c0.7-0.5,1.4-0.6,2-0.6c0.5,0,1.2-0.1,2,0.2c0.3,0.1,0.8,0.4,1.2,1c0.1,0.2,0.5,0.8,0.4,1.6
		c-0.1,0.6-0.3,1-0.5,1.3C9.8,9.1,9.6,9.1,8.8,10c-0.5,0.5-0.7,0.7-0.9,0.9c-0.5,0.7-0.4,1.5-0.4,1.8c0,0.4,0,0.9,0.4,1.3
		c0.2,0.3,0.7,0.6,1,0.4c0.3-0.1,0.3-0.5,0.5-1.5c0.1-0.4,0.4-1.2,0.8-2c0.3-0.5,0.7-1,1.3-1.4c0.2-0.1,1.1-0.5,1.7-0.1
		c0.4,0.3,0.5,0.9,0.6,2c0.1,0.5,0.1,1.2,0,2.2c-0.1,0.9-0.2,1.4-0.5,1.8c-0.5,0.6-1.2,0.7-1.5,0.8c-0.2,0-1,0.2-1.7-0.2
		c-0.5-0.3-0.5-0.6-1-0.7c-0.4-0.1-0.5,0-1.3,0.2c-0.7,0.1-1.1,0.2-1.5,0.1c-1-0.1-1.6-0.8-1.8-1C4.2,14.2,4,13.8,3.7,13
		c-0.4-0.9-0.6-1.4-0.7-2.2c0-0.2-0.1-1.1,0.2-2.2C3.4,7.8,3.7,7.2,4,6.7C4.4,5.9,4.6,5.5,5,5.2z"/>
</g>
</svg>
