<?xml version="1.0" encoding="utf-8"?>
<!-- Generator: Adobe Illustrator 26.0.1, SVG Export Plug-In . SVG Version: 6.00 Build 0)  -->
<svg version="1.1" id="Layer_1" xmlns="http://www.w3.org/2000/svg" xmlns:xlink="http://www.w3.org/1999/xlink" x="-12px" y="-5px"
	 viewBox="0 0 20 20" style="enable-background:new 0 0 20 20;" height="24" width="24" xml:space="preserve">
<style type="text/css">
	.st0{fill:#FFFFFF;stroke:#000000;stroke-width:0.5;stroke-miterlimit:10;}
</style>
<g>
	<path class="st0" d="M10.1,4.2C10.3,3.9,10,3.6,10.2,3c0.1-0.4,0.3-0.4,0.4-0.7c0-0.3-0.1-0.5-0.2-0.8C10.1,0.9,9.9,0.8,10,0.6
		s0.6-0.2,1,0c0.6,0.3,0.6,1.1,0.6,1.2c0,0.3,0,0.3-0.3,1.3c-0.2,0.7-0.2,0.9-0.1,1c0.1,0.2,0.4,0.2,0.6,0.3c0.2,0,0.4,0.1,0.6,0
		c0.4-0.2,0.5-0.6,0.5-0.7c0.1-0.4-0.1-0.5-0.1-0.9c0-0.3,0.2-0.7,0.4-0.7s0.4,0.4,0.5,0.8c0,0.3-0.1,0.6-0.2,1
		c-0.2,0.6-0.3,0.8-0.2,1s0.3,0.3,0.5,0.2c0.1,0,0.3,0,0.6-0.5c0.3-0.4,0.2-0.6,0.5-1c0.1-0.1,0.3-0.5,0.8-0.8
		c0.3-0.1,0.7-0.3,0.8-0.2c0.1,0.1,0,0.3-0.1,0.4c-0.2,0.5-0.5,0.5-0.7,0.8s0,0.4-0.2,0.8S15.2,5,15,5.4c0,0.5-0.2,0.8,0,1.1
		c0.1,0.2,0.3,0.3,0.5,0.2c0.2-0.1,0.2-0.3,0.5-0.6c0.1-0.1,0.5-0.6,0.8-0.5c0.2,0,0.3,0.3,0.3,0.4c0,0.2-0.1,0.3-0.6,0.8
		c-0.5,0.4-0.6,0.5-0.6,0.7s0.2,0.4,0.4,0.4c0.1,0,0.2,0.1,0.5,0.1c0.6,0,0.7-0.1,0.8,0c0.2,0.1,0.4,0.4,0.3,0.6
		C17.8,8.9,17.4,9,17.1,9c-0.3-0.1-0.4-0.3-0.6-0.3c-0.2,0.1-0.2,0.7-0.2,0.8c0,0.3,0,0.5,0.2,0.7s0.6,0.1,0.7,0.1
		c0.4-0.1,0.4-0.3,0.9-0.5c0.2-0.1,0.4-0.1,0.6,0s0.2,0.5,0.1,0.7c-0.2,0.5-0.9,0.6-1,0.7c-0.5,0.1-0.7-0.1-1.1,0.1
		c-0.3,0.1-0.5,0.3-0.5,0.4C16,12,16,12.1,15.7,12.8c-0.2,0.6-0.3,0.6-0.3,0.8c0.1,0.3,0.3,0.3,0.7,0.7c0.1,0.2,0.5,0.5,0.7,1.1
		c0.1,0.3,0.3,0.8,0,1.3c-0.1,0.3-0.4,0.5-0.7,0.5c-0.2-0.1-0.3-0.3-0.4-0.8c-0.2-0.7-0.1-0.8-0.2-1c-0.2-0.3-0.6-0.4-0.9-0.5
		c-0.4-0.1-0.8-0.2-1,0c-0.3,0.2-0.2,0.7-0.2,0.8c0.1,0.5,0.3,0.8,0.4,0.8c0.3,0.3,0.5,0.2,0.6,0.5c0.1,0.2,0.1,0.6-0.1,0.8
		c-0.3,0.3-0.8,0-1-0.1c-0.4-0.3-0.5-0.7-0.5-0.8c-0.1-0.5,0.1-0.7-0.1-1c-0.1-0.3-0.5-0.5-0.9-0.5c-0.3,0.1-0.6,0.3-0.6,0.6
		c-0.1,0.2,0.1,0.3,0.1,0.6c0,0.3-0.2,0.4-0.4,0.8c0,0.1-0.2,0.6,0,1.1c0.1,0.3,0.3,0.3,0.3,0.5c0,0.3-0.3,0.6-0.6,0.6
		c-0.4,0-0.7-0.6-0.7-1.1c0-0.3,0.1-0.3,0.2-1.2c0.2-0.8,0.1-0.9,0.1-1.1c0-0.1-0.2-0.6-0.7-0.8c-0.4-0.1-0.8,0.1-1,0.2
		c-0.2,0.1-0.3,0.2-0.6,0.6C7.2,17,7,16.9,6.8,17.3c-0.1,0.1-0.3,0.5-0.3,1c0,0.4,0.1,0.5-0.1,0.8c-0.1,0.3-0.5,0.5-0.8,0.4
		c-0.5-0.1-0.7-0.9-0.7-1c-0.1-0.8,0.3-1.5,0.5-1.7c0.4-0.6,0.9-1,1.1-1.1c0.6-0.4,0.8-0.5,0.9-0.7c0-0.3-0.3-0.3-0.8-1.1
		c-0.3-0.4-0.3-0.5-0.5-0.7c-0.1,0-0.5-0.4-0.9-0.3C4.8,13,4.8,13.2,4.1,14c-0.7,0.7-1,0.9-1.1,1c-0.3,0.2-0.7,0.4-1.2,0.3
		c-0.3-0.1-0.6-0.3-0.6-0.6s0.5-0.5,0.7-0.7c0.5-0.2,0.6-0.1,0.9-0.3c0.5-0.3,0.3-0.6,0.9-1.1c0.4-0.4,0.7-0.3,1.2-0.7
		c0.4-0.3,0.3-0.5,0.3-0.5c-0.1-0.2-0.5-0.3-0.6-0.3c-0.5-0.1-0.7,0.2-1.1,0.1C3.2,11.1,3,11,2.9,10.8c-0.2-0.2-0.5-0.5-0.4-0.7
		c0-0.5,0.2-0.6,0.5-0.6s0.4,0.3,0.9,0.4C4,9.9,4.5,10,4.8,9.8s0.3-0.6,0.3-0.9c0-0.1-0.1-0.4-0.4-0.6c-0.2-0.1-0.3,0-0.9,0
		S3,8.3,3,8.2C2.8,8.1,2.6,7.9,2.6,7.7c0.1-0.2,0.3-0.1,1-0.3c0.5-0.1,0.5-0.2,0.8-0.2c0.4,0,0.5,0.2,0.8,0.1
		c0.2-0.1,0.5-0.2,0.5-0.5S5.4,6.3,5.2,6.2C4.9,5.9,4.7,6,4.4,5.8C4,5.5,3.7,5.2,3.6,5C3.5,4.8,3.3,4.4,3.3,3.9
		c0-0.4,0.1-1.1,0.4-1.2s0.6,0.2,0.7,0.5c0.2,0.4,0,0.6,0.2,1c0.2,0.4,0.5,0.3,1.1,0.7c0.6,0.5,0.5,0.8,0.9,0.9C7.1,5.9,7.7,5.5,8,5
		c0.2-0.3,0.3-0.9,0.1-1.3C8,3.3,7.8,3.3,7.5,2.9c0-0.1-0.4-0.7-0.2-0.9c0.1-0.1,0.6,0,0.9,0.2C8.6,2.6,8.7,3,8.9,3.4
		C9.1,3.9,9,4.1,9.2,4.2C9.4,4.4,9.9,4.4,10.1,4.2z"/>
	<circle class="st" cx="10.4" cy="10.4" r="2.6"/>
</g>
</svg>
