<?xml version="1.0" encoding="utf-8"?>
<!-- Generator: Adobe Illustrator 26.0.1, SVG Export Plug-In . SVG Version: 6.00 Build 0)  -->
<svg version="1.1" id="Layer_1" xmlns="http://www.w3.org/2000/svg" xmlns:xlink="http://www.w3.org/1999/xlink" x="-12px" y="-5px"
	 viewBox="0 0 20 20" style="enable-background:new 0 0 20 20;" height="24" width="24" xml:space="preserve">
<style type="text/css">
	.st0{fill:#FFFFFF;stroke:#000000;stroke-miterlimit:10;}
</style>
<g>
	<path class="st0" d="M5.5,1.8c0.2-0.3,0.8-1.1,1.6-1.3c0.5-0.1,1.1,0.1,2.3,0.7c0.7,0.3,0.8,0.4,1.1,0.4c0.8,0.1,1-0.5,1.9-0.7
		c0.8-0.2,1.5,0.1,2.2,0.4c0.9,0.4,1.4,0.8,2,1.4c0.8,0.7,1.1,1,1.3,1.5c0.4,0.9-0.1,1.3,0.2,2.3C18.4,7.2,18.7,7.1,19,8
		c0.2,0.4,0.5,1.2,0.3,2s-0.7,0.8-0.8,1.6c-0.1,0.8,0.4,0.9,0.4,1.9c0,1-0.5,1.7-0.9,2.2c-0.3,0.5-0.7,1-1.4,1.3
		c-0.7,0.3-0.9,0.1-1.7,0.4c-0.5,0.2-0.8,0.4-1.4,0.9c-1.1,0.8-1,1-1.4,1.1c-1,0.4-2.1-0.1-2.4-0.2c-0.7-0.3-0.6-0.6-1.1-0.7
		c-0.7-0.2-1,0.1-2,0c-0.4-0.1-0.7-0.1-1.1-0.4c-0.5-0.3-0.6-0.8-0.8-1.4c-0.3-1-0.1-1.3-0.5-1.5c-0.3-0.3-0.6,0-1.4-0.3
		c-0.3-0.1-0.9-0.3-1.2-0.9c-0.3-0.5,0-0.7-0.2-1.5c-0.2-0.7-0.4-0.7-0.6-1.6c-0.2-0.7-0.3-1-0.2-1.4C0.7,8.9,1,8.5,1.6,7.7
		C2,7.1,2,7.2,2.1,7c0.3-0.7-0.2-1,0-1.8C2,5.1,2.2,4,2.9,3.7c0.6-0.2,0.9,0.3,1.4,0c0.2-0.1,0.2-0.2,0.7-1.2
		C5.3,2.1,5.4,1.9,5.5,1.8z"/>
	<path class="st" d="M8.5,4.9c0.8-0.4,1.6-0.4,2.2-0.4c0.7,0,1.3,0,1.8,0.3c1,0.6,1.3,1.7,1.4,1.8c0.3,1-0.3,1.3,0.1,2.1
		c0.3,0.6,0.6,0.5,1.1,1.4c0.2,0.3,0.6,0.9,0.6,1.8c0.1,1.1-0.4,1.8-0.7,2.3c-0.1,0.2-0.7,1.1-1.8,1.8c-0.4,0.2-0.9,0.5-1.6,0.6
		c-0.7,0.1-1.1,0-2-0.2c-0.9-0.2-1.6-0.4-2.2-0.9c-0.4-0.3-0.8-0.7-0.9-1.2c-0.1-0.8,0.4-1.5,0.6-1.6c0.7-0.7,1.7-0.8,2.1-0.9
		c0.8-0.1,1.2,0.1,1.4-0.1c0.3-0.3,0.2-1-0.1-1.3c-0.3-0.3-0.7-0.1-1.5-0.4C8.2,9.8,7.7,9.2,7.6,9C7.3,8.7,7,8.3,6.9,7.6
		C6.8,6.9,7.1,6.3,7.1,6.2C7.5,5.4,8.2,5.1,8.5,4.9z"/>
</g>
</svg>
