<?xml version="1.0" encoding="utf-8"?>
<!-- Generator: Adobe Illustrator 26.0.1, SVG Export Plug-In . SVG Version: 6.00 Build 0)  -->
<svg version="1.1" id="Layer_1" xmlns="http://www.w3.org/2000/svg" xmlns:xlink="http://www.w3.org/1999/xlink" x="-12px" y="-5px"
	 viewBox="0 0 20 20" style="enable-background:new 0 0 20 20;" height="24" width="24" xml:space="preserve">
<style type="text/css">
	.st0{fill:#FFFFFF;stroke:#000000;stroke-miterlimit:10;}
</style>
<path class="st0" d="M2.9,4.2c0.2-0.4,0.5-0.6,0.9-0.9c0.7-0.4,1-0.3,1.7-0.6c1-0.4,0.9-0.8,2.1-1.4C8.2,1,9,0.5,10,0.6
	c1.3,0.1,2.2,1.1,2.3,1.1c0.4,0.5,0.5,0.7,0.9,1c0.7,0.4,1,0,1.7,0.3c0.7,0.3,0.5,0.9,1.4,2c0.5,0.6,0.7,0.5,1.4,1.3
	c0.8,0.8,1.4,1.4,1.7,2.2c0.1,0.1,0.6,1.9-0.2,3.3c-0.5,0.8-0.9,0.7-1.3,1.6c-0.4,0.9,0.1,1.3-0.3,2c-0.4,0.7-1,0.5-1.5,1.3
	c-0.4,0.7-0.1,1-0.6,1.5c-0.4,0.5-1.1,0.8-1.7,0.9c-0.5,0-0.6-0.1-1.2-0.1c-0.6,0.1-0.6,0.2-1,0.2c-0.6,0-0.7-0.2-1.4-0.4
	c-0.5-0.1-0.8-0.1-1.3,0c-1.2,0.1-1.3,0.5-2.1,0.4c-1,0-1.7-0.7-1.8-0.8c-0.6-0.6-0.4-0.9-1.2-1.8c-0.5-0.6-1.1-1-1.3-1.1
	c-0.7-0.5-0.8-0.4-1-0.7c-0.4-0.7,0.4-1.3,0.2-2.5c-0.1-0.9-0.6-0.8-1-2C0.5,9.9,0.2,9.1,0.5,8.2C0.6,8,0.9,7,1.8,6.5
	c0.4-0.2,0.6-0.1,0.8-0.3C3,5.7,2.5,5,2.9,4.2z"/>
<ellipse class="st" cx="11.2" cy="12" rx="3.9" ry="3.7"/>
</svg>
