<?xml version="1.0" encoding="utf-8"?>
<!-- Generator: Adobe Illustrator 26.0.1, SVG Export Plug-In . SVG Version: 6.00 Build 0)  -->
<svg version="1.1" id="Layer_1" xmlns="http://www.w3.org/2000/svg" xmlns:xlink="http://www.w3.org/1999/xlink" x="-12px" y="-5px"
	 viewBox="0 0 20 20" style="enable-background:new 0 0 20 20;" height="24" width="24" xml:space="preserve">
<style type="text/css">
	.st0{fill:#FFFFFF;stroke:#000000;stroke-miterlimit:10;}
	.st1{fill:none;stroke:#000000;stroke-width:0.5;stroke-miterlimit:10;}
	.st2{fill:#FFFFFF;stroke:#000000;stroke-width:0.5;stroke-miterlimit:10;}
</style>
<path class="st0" d="M1.2,4c0.2-0.4,0.7-0.2,1.6-0.5c0.9-0.3,0.9-0.6,1.8-1.1C5.4,2,6,2,7.2,1.8c0.9-0.1,1.7-0.2,2.7,0
	c0.9,0.1,2.2,0.5,2.3,0.5c0.7,0.2,1,0.4,1.5,0.3c0.6-0.1,0.9-0.3,1.1-0.1c0.3,0.2,0.1,0.6,0.5,0.9c0.3,0.3,0.6,0,1.3,0.2
	c0.2,0,0.8,0.2,1.1,0.7c0.3,0.5,0.3,1,0.3,1.8c0,0.7-0.1,0.9,0,1.2c0.1,0.3,0.4,0.5,0.6,0.7c0.6,0.5,0.9,0.4,0.9,0.7
	c0.1,0.3-0.5,0.5-0.7,1.2c-0.2,0.6-0.1,1.2,0,1.5c0.1,0.5,0.3,0.5,0.4,1.1c0.1,0.4,0.2,1.1,0,1.7c-0.3,0.7-1,1-1.4,1.1
	c-0.8,0.3-1,0.1-1.5,0.5C16,16.2,16,16.2,15.5,17c-0.4,0.6-0.6,0.9-0.8,1c-0.4,0.2-0.9,0.2-1.8,0c-0.5-0.1-0.7-0.1-1.4-0.2
	c-0.6-0.1-0.9-0.1-1,0C10,17.8,9.9,18,9.4,18.1c-0.3,0.1-0.7,0.2-1.3,0.2c-0.1,0-0.7-0.1-1.4-0.4c-0.1-0.1-0.6-0.3-1.1-0.9
	c-0.4-0.4-0.4-0.7-0.8-1c-0.3-0.2-0.5-0.4-0.8-0.4c-0.3,0.1-0.4,0.4-0.8,0.5c-0.2,0-0.5,0-0.7-0.2c-0.2-0.3,0.2-0.5,0.2-1.1
	c0-0.5-0.2-0.8-0.5-1.4c-0.4-0.6-0.5-0.6-0.8-1.1c-0.3-0.5-0.4-0.9-0.6-1.8C0.7,9.8,0.6,9.1,0.6,8.2c0-0.7,0-1.1,0.2-1.5
	c0.3-0.7,0.7-0.8,0.7-1.3C1.6,4.6,1,4.4,1.2,4z"/>
<path class="st" d="M4.6,6c0.1-0.1,0.4-0.5,1-0.5c0.5-0.1,0.6,0.2,1.1,0.2c0.4-0.1,0.4-0.3,1-0.6c0.5-0.2,1-0.2,1.5-0.2
	c0.3,0,0.3,0.1,1.1,0.2c1.1,0.2,1.2,0.1,1.5,0.3c0.2,0.1,0.8,0.3,1.1,1c0,0.1,0.3,0.7,0,1.1c-0.3,0.3-0.8,0.1-0.9,0.3
	c0,0.1,0.5,0.2,0.9,0.7c0.3,0.4,0.4,0.8,0.5,1.2c0.1,0.5,0.2,0.8,0,1.2c-0.2,0.4-0.6,0.7-0.7,0.7c-0.5,0.3-1,0.3-1.3,0.3
	c-0.5,0-0.5-0.1-0.7,0c-0.4,0.1-0.5,0.3-1,0.7c-0.2,0.2-0.5,0.3-1.2,0.5c-0.6,0.2-0.9,0.3-1.1,0.3c-0.5-0.1-0.9-0.4-1.1-0.6
	c-0.2-0.2-0.3-0.4-0.6-0.8c-0.4-0.6-0.4-0.7-0.5-0.8c-0.3-0.2-0.4-0.1-1.2-0.2c-0.5-0.1-0.8-0.2-1-0.3c-0.3-0.2-0.5-0.7-0.5-1.1
	c0,0,0.1-0.7,0.5-1C3.6,8.1,3.8,8.3,4,8.1c0.2-0.2,0-0.5,0.1-1C4.1,6.9,4.2,6.4,4.6,6z"/>
<path class="st1" d="M7.5,4.3C7.8,4.2,8.5,4,9.3,4c0.9,0,1.6,0.3,2,0.5"/>
<path class="st1" d="M2.2,8.2c0.2-0.5,0.1-1.1,0.7-1.9C3.6,5.3,4,5,5.4,4.3"/>
<path class="st1" d="M3.3,4.9c0.6-0.7,0.9-1,2-1.4"/>
<path class="st1" d="M2.9,12C2,11.5,1.6,9.8,1.7,8.6"/>
<path class="st1" d="M9,3.3c0.7-0.1,1-0.1,2,0.2"/>
<path class="st1" d="M13.6,5.5c0.2,0.4,0.8,1,0.9,1.8c0.1,0.9,0.3,1.5,0.2,1.9"/>
<path class="st1" d="M15,6.4c0.3,0.7,0.4,1,0.4,1.9"/>
<path class="st1" d="M15.2,5.1c0.7,0.4,0.9,0.7,1.4,1.7"/>
<path class="st1" d="M7.8,14.2c-2.3,0.9-3.1-2.6-4-1.8"/>
<path class="st1" d="M6.6,14.9c-0.7-0.2-1-0.3-1.8-0.9"/>
<path class="st1" d="M14.2,10.6c0,0.3,0,1.5-0.7,1.9c-0.8,0.4-1.8,0.7-2.2,0.7"/>
<path class="st1" d="M14.9,10.6c-0.1,0.7,0.1,1.3-0.5,2.1"/>
<path class="st1" d="M16,9c-0.1,0.4,0.3,1.9-0.1,2.6c-0.4,0.8-0.6,1.8-0.9,2"/>
<path class="st1" d="M16.6,11.9c-0.1,0.8,0.1,1-0.5,1.9"/>
<path class="st1" d="M17.5,10.3c0.1,0.4,0.5,1.2,0.3,2c-0.2,0.9-0.1,1.5-0.4,1.9"/>
<path class="st1" d="M12.6,13.4c-0.4,0.3-1.1,1.4-1.6,1.2c-1-0.3-1.6,0.3-2.1,0.3"/>
<path class="st1" d="M14,13.4c-0.6,0.4-0.9,0.9-1.9,1.1"/>
<path class="st1" d="M13.8,14.4c-0.4,0.5-0.8,1.1-1.9,0.8"/>
<path class="st1" d="M9.7,16.2c-0.4,0-1.2,0.4-2,0.1C6.9,16,6.2,16,5.9,15.8"/>
<path class="st1" d="M8.9,17.4c-0.7,0-1.3,0.3-2.1-0.2"/>
<path class="st1" d="M15,15.2c-0.1,0.3-0.7,1.4-1.5,1.4c-0.9,0-1.9-0.1-2.3-0.3"/>
<path class="st1" d="M15.8,16.2c-0.6,0.4-0.3-0.7-1.9,1.1"/>
<line class="st1" x1="5.5" y1="14.6" x2="5.8" y2="14"/>
<line class="st1" x1="14.5" y1="7.3" x2="15.2" y2="7.2"/>
<path class="st2" d="M12.3,0.6c0-0.1,0.2,0,1.5,0.2C14.7,1,14.9,1,14.9,1.1c0,0.2-0.5,0.4-1,0.4C13,1.5,12.2,0.7,12.3,0.6z"/>
<path class="st2" d="M18.9,0.5c-0.5,0-1.1,0.6-1.2,1.2c-0.2,1,0.8,2,1.2,1.9c0.3,0,0.5-0.7,0.3-1.2C19,2,18.7,1.9,18.9,1.6
	C19,1.3,19.5,1.3,19.5,1C19.5,0.8,19.2,0.5,18.9,0.5z"/>
<path class="st2" d="M16,18.7c-0.1-0.2,0.5-0.2,1.1-0.8c0.8-0.8,0.9-1.7,1.1-1.5c0.2,0.2,0.5,1.3,0.1,2C17.9,19.5,16.1,18.9,16,18.7
	z"/>
<path class="st2" d="M2.6,17.2c-0.5,0.1-0.4,0.7-0.1,1.1c0.1,0.1,0.6,0.8,1.8,0.9c0.2,0,0.8,0.1,1.1,0c0.5-0.3-0.7-1-0.9-1.2
	C4.2,17.8,3.2,17.1,2.6,17.2z"/>
<path class="st2" d="M3.8,1.1c0.1-0.4-0.7-0.9-1.5-0.7C1.5,0.7,0.6,1.9,0.6,2.3C0.6,3,3.6,1.9,3.8,1.1z"/>
</svg>
