<?xml version="1.0" encoding="utf-8"?>
<!-- Generator: Adobe Illustrator 26.0.1, SVG Export Plug-In . SVG Version: 6.00 Build 0)  -->
<svg version="1.1" id="Layer_1" xmlns="http://www.w3.org/2000/svg" xmlns:xlink="http://www.w3.org/1999/xlink" x="-12px" y="-5px"
	 viewBox="0 0 20 20" style="enable-background:new 0 0 20 20;" height="24" width="24" xml:space="preserve">
<style type="text/css">
	.st0{fill:#FFFFFF;stroke:#000000;stroke-miterlimit:10;}
</style>
<g>
	<path class="st0" d="M3.1,4.4C3.9,3.6,3.7,3,4.3,2.6C5,2.1,5.5,2.8,6.7,2.3c0.8-0.3,0.8-0.6,1.7-0.9c0.3-0.1,0.9-0.3,1.7-0.2
		c0.7,0.1,1.6,0.4,2.2,0.6C12.5,1.9,12.6,2,12.8,2c0.5,0.1,0.7-0.2,1.2-0.3c0.1,0,0.7-0.1,1.1,0.4c0.1,0.1,0.1,0.2,0.5,1
		C16,3.7,16,3.8,16.1,3.8c0.3,0.2,0.4,0.1,1.1,0.3c0.6,0.2,0.9,0.4,1,0.5c0.3,0.2,0.4,0.3,0.5,0.5c0.4,0.6-0.4,1.2-0.1,2.2
		c0,0.1,0.1,0.3,0.3,0.8C19,8.6,19.1,8.6,19.2,9c0.1,0.4,0.2,0.7,0.3,1c0,0.3,0,0.6-0.1,0.9c-0.2,0.3-0.3,0.3-0.8,0.8
		c-0.3,0.3-0.4,0.5-0.4,0.6c-0.1,0.2,0,0.3,0,0.7c0,0.4,0,0.7-0.1,1c-0.1,0.3-0.3,0.5-0.6,0.7c-0.1,0.1-0.3,0.2-0.8,0.5
		c-0.4,0.3-0.5,0.3-0.6,0.4c-0.2,0.1-0.3,0-0.4,0.1c-0.1,0.1,0,0.3,0,0.6c0,0.3-0.2,0.5-0.4,0.8c-0.1,0.1-0.4,0.4-0.9,0.5
		c-0.4,0.1-0.4,0-1.2,0c-0.6,0.1-0.7,0.2-1.1,0.1c-0.3-0.1-0.4-0.1-0.6-0.1c-0.2,0.1-0.1,0.1-0.4,0.4c-0.2,0.2-0.4,0.3-0.5,0.4
		c-0.2,0.1-0.2,0.2-0.3,0.2c-0.2,0.1-0.4,0.1-1-0.1c-0.6-0.2-1-0.3-1.1-0.3c-0.4-0.2-0.5-0.4-0.8-0.4c-0.1,0-0.1,0-0.6,0.1
		c-0.5,0.1-0.5,0.1-0.6,0.1c-0.3,0-0.5,0.1-0.7-0.1c-0.2-0.1-0.3-0.4-0.3-0.5c-0.1-0.3,0.1-0.4,0.1-0.6c0-0.1-0.1-0.3-0.2-0.4
		c-0.2-0.1-0.3,0-0.7,0c-0.4,0-0.7-0.1-1-0.1c-0.4-0.1-0.6-0.1-0.8-0.3c-0.1-0.1-0.3-0.3-0.4-0.6c-0.1-0.3,0-0.5,0.1-1.1
		C2.3,14,2.3,14,2.3,13.8c0-0.1-0.1-0.2-0.6-0.7c-0.4-0.3-0.4-0.3-0.6-0.5c-0.3-0.3-0.4-0.4-0.4-0.6c-0.1-0.3,0-0.7,0.2-0.9
		C1,10.8,1.3,11,1.6,10.7C2,10.3,1.9,9.6,1.8,9.2C1.7,8.7,1.6,8.7,1.4,8C1.3,7.6,1.2,7.1,1.3,6.6c0.1-0.4,0.3-0.8,0.4-0.9
		c0.2-0.3,0.4-0.6,0.8-0.9C2.8,4.6,2.9,4.5,3.1,4.4z"/>
	<path class="st" d="M11.1,5.7c0.3-0.4,0.7-0.6,1.2-0.8c0.2-0.1,0.6-0.2,1.1-0.2c0.4,0,0.9-0.1,1.4,0.2C15.1,5,15,5,15.6,5.6
		c0.7,0.7,0.8,0.6,1.1,1c0.2,0.2,0.5,0.6,0.7,1.2c0.1,0.2,0.2,0.8,0.1,1.5c-0.1,0.6-0.4,0.9-0.8,1.5c-0.4,0.5-0.7,0.9-1.2,1.4
		c-0.3,0.3-0.8,0.8-1.4,1.3c-0.3,0.3-0.6,0.5-1.2,0.9c-0.9,0.6-1.1,0.7-1.3,0.8c-0.5,0.2-0.9,0.3-1.2,0.4c-0.6,0.1-1,0.1-1.5,0.1
		c-0.4,0-0.9,0-1.5-0.1c-0.6-0.1-1-0.2-1.5-0.5c-0.2-0.1-0.4-0.3-0.7-0.6c-0.4-0.5-0.4-1.1-0.4-1.5c0-0.3,0-0.9,0.3-1.5
		c0.1-0.3,0.4-0.7,0.8-0.9c0.6-0.3,0.9,0.1,1.9,0c0.7,0,0.5-0.2,1.9-0.4c1-0.2,1.3-0.2,1.4-0.4c0.2-0.3-0.3-0.6-0.4-1.4
		c0-0.1,0-0.2,0.1-1.3C11,5.9,11,5.8,11.1,5.7z"/>
</g>
</svg>
