<?xml version="1.0" encoding="utf-8"?>
<!-- Generator: Adobe Illustrator 26.0.1, SVG Export Plug-In . SVG Version: 6.00 Build 0)  -->
<svg version="1.1" id="Layer_1" xmlns="http://www.w3.org/2000/svg" xmlns:xlink="http://www.w3.org/1999/xlink" x="-12px" y="-5px"
	 viewBox="0 0 20 20" style="enable-background:new 0 0 20 20;" height="24" width="24" xml:space="preserve">
<style type="text/css">
	.st0{fill:#FFFFFF;stroke:#000000;stroke-miterlimit:10;}
</style>
<g>
	<path class="st0" d="M9.6,0.6c1.4,0,2.5,0.5,3.2,0.9c0.2,0.1,1,0.5,1.9,1.2c0.9,0.6,1.5,1.3,1.8,1.8c0.8,0.9,1.2,1.7,1.4,2.3
		c0.5,1,0.9,1.8,1.1,3c0.2,1.5-0.1,2.8-0.3,3.3c-0.4,1.5-1.2,2.4-1.6,2.9c-0.4,0.6-1,1.3-2.1,2c-0.9,0.6-1.7,0.9-2.3,1
		c-1.4,0.5-2.5,0.5-2.8,0.5c-1.6,0-2.8-0.4-3-0.5c-0.3-0.1-1.3-0.5-2.3-1.4C3.9,17,3.4,16.4,3.1,16s-0.9-1.2-1.4-2.2
		c-0.1-0.4-0.5-1.2-0.7-2.4C0.9,10,1,9,1.1,8.4c0.1-0.8,0.2-1.7,0.8-2.9s1.3-1.9,1.6-2.2c0.7-0.7,1.2-1,1.8-1.4s1.2-0.7,2.1-1
		C7.7,0.8,8.5,0.6,9.6,0.6z"/>
	<path class="st" d="M7,3.9c0.3-0.1,0.9-0.4,1.6-0.1c0.3,0,1.1,0.4,1.4,1.1C10,5,10.3,5.6,9.9,6C9.7,6.4,9.3,6.5,9,6.5
		C8.5,6.6,8.4,6.4,7.8,6.4c-0.3,0-0.6,0-1,0.2C6.5,6.7,6.1,7,6,7.4c0,0.1-0.3,0.7,0,1.2C6.1,9,6.5,9.1,6.8,9.2
		c0.8,0.4,1,0.1,1.6,0.4c0.6,0.4,1,0.9,1,1.2c0.1,0.1,0.4,0.8,0.1,1.6c-0.1,0.5-0.4,0.5-0.5,0.9c-0.1,0.2-0.3,0.8,0.1,1.3
		c0.3,0.4,0.8,0.5,1.3,0.4c0.3,0,0.4-0.1,1.1-0.9c0.6-0.7,0.8-0.8,1-0.9s0.8-0.4,1.3-0.2c0.6,0.1,1.1,0.6,1.3,1.2
		c0.3,0.7-0.3,1.4-0.5,1.6c-0.4,0.5-0.9,0.7-1.3,0.8c-0.3,0.1-0.8,0.2-1.4,0.2c-0.5,0-0.8-0.2-1-0.4c-0.4-0.2-0.5-0.4-0.9-0.6
		c-0.5-0.2-0.9-0.4-1.3-0.5c-0.6-0.1-1.1-0.2-1.6-0.2c-0.9-0.1-1,0-1.4-0.1C5,14.7,4.5,14.1,4.4,14c-0.4-0.5-0.5-0.9-0.5-1.3
		c0-0.2-0.1-0.8,0.3-1.4c0.3-0.5,0.5-0.4,0.8-0.8c0.4-0.7,0.1-1.6,0-2c0-0.6,0-0.6-0.1-1.1C4.6,6.7,4.9,6.1,5,5.9
		c0.3-0.5,0.6-0.8,0.9-1.1C6.3,4.4,6.5,4.2,7,3.9z"/>
</g>
</svg>
