<?xml version="1.0" encoding="utf-8"?>
<!-- Generator: Adobe Illustrator 25.3.1, SVG Export Plug-In . SVG Version: 6.00 Build 0)  -->
<svg version="1.1" id="Layer_1" xmlns="http://www.w3.org/2000/svg" xmlns:xlink="http://www.w3.org/1999/xlink" x="0px" y="0px"
	 viewBox="0 0 54.99 17" style="enable-background:new 0 0 54.99 17;" xml:space="preserve">
<style type="text/css">
	.st0{fill:none;stroke:#000000;stroke-miterlimit:10;}
	.st1{fill:none;stroke:#000000;stroke-width:0.3;stroke-miterlimit:10;}
	.st2{fill:none;stroke:#000000;stroke-width:0.1;stroke-miterlimit:10;}
	.st3{stroke:#000000;stroke-width:0.1;stroke-miterlimit:10;}
</style>
<g>
	<g>
		<path class="st0" d="M27.15,1.93"/>
	</g>
</g>
<path class="st1" d="M13.07,14.74"/>
<g>
	<g>
		<path d="M27.5,0.54c-3.02,0-5.46,2.44-5.46,5.46c0,3.01,2.44,5.46,5.46,5.46S32.96,9.01,32.96,6S30.51,0.54,27.5,0.54z
			 M26.43,9.71c-1.35,0-2.44-1.09-2.44-2.43c0-1.35,1.09-2.44,2.44-2.44c1.34,0,2.43,1.09,2.43,2.44
			C28.86,8.62,27.77,9.71,26.43,9.71z"/>
	</g>
	<g>
		<path class="st2" d="M27.5,0.54c-3.02,0-5.46,2.44-5.46,5.46c0,3.01,2.44,5.46,5.46,5.46S32.96,9.01,32.96,6S30.51,0.54,27.5,0.54
			z M26.43,9.71c-1.35,0-2.44-1.09-2.44-2.43c0-1.35,1.09-2.44,2.44-2.44c1.34,0,2.43,1.09,2.43,2.44
			C28.86,8.62,27.77,9.71,26.43,9.71z"/>
	</g>
</g>
<polygon class="st3" points="15.36,9.96 18.12,9.9 17.58,8.93 20.67,6.98 20.26,6.27 17.19,8.21 16.65,7.24 "/>
<g>
	<g>
		<g>
			<path d="M8.82,3.28c-2.41,0-4.36,1.95-4.36,4.36S6.41,12,8.82,12s4.36-1.95,4.36-4.36S11.23,3.28,8.82,3.28z M7.97,10.6
				c-1.08,0-1.95-0.87-1.95-1.94c0-1.08,0.87-1.95,1.95-1.95c1.07,0,1.94,0.87,1.94,1.95C9.91,9.73,9.04,10.6,7.97,10.6z"/>
		</g>
		<g>
			<path class="st2" d="M8.82,3.28c-2.41,0-4.36,1.95-4.36,4.36S6.41,12,8.82,12s4.36-1.95,4.36-4.36S11.23,3.28,8.82,3.28z
				 M7.97,10.6c-1.08,0-1.95-0.87-1.95-1.94c0-1.08,0.87-1.95,1.95-1.95c1.07,0,1.94,0.87,1.94,1.95C9.91,9.73,9.04,10.6,7.97,10.6z
				"/>
		</g>
	</g>
	<g>
		<polygon class="st3" points="11.22,4.62 11.89,5.32 13.65,3.47 12.98,2.78 		"/>
		<polygon class="st3" points="13.01,3.72 13.89,3.27 12.67,0.64 11.79,1.1 		"/>
		<polygon class="st3" points="12.98,2.86 13.04,3.81 15.82,3.65 15.76,2.69 		"/>
	</g>
	<g>
		<polygon class="st3" points="0.82,5.43 1.17,6.33 3.5,5.31 3.15,4.41 		"/>
		<polygon class="st3" points="2.81,5.3 3.8,5.23 3.7,2.33 2.72,2.41 		"/>
		<polygon class="st3" points="3.13,4.49 2.81,5.39 5.43,6.32 5.75,5.42 		"/>
	</g>
	<g>
		<polygon class="st3" points="8.59,15.52 9.26,16.22 11.01,14.37 10.34,13.68 		"/>
		<polygon class="st3" points="10.37,14.62 11.25,14.17 10.03,11.54 9.15,12 		"/>
		<polygon class="st3" points="10.35,13.76 10.4,14.71 13.18,14.55 13.12,13.59 		"/>
	</g>
</g>
<path class="st1" d="M50.66,14.34"/>
<g>
	<g>
		<path d="M47.09,4.12c-2.41,0-4.36,1.95-4.36,4.36s1.95,4.36,4.36,4.36s4.36-1.95,4.36-4.36S49.5,4.12,47.09,4.12z M46.24,11.44
			c-1.08,0-1.95-0.87-1.95-1.94c0-1.08,0.87-1.95,1.95-1.95c1.07,0,1.94,0.87,1.94,1.95C48.18,10.57,47.31,11.44,46.24,11.44z"/>
	</g>
	<g>
		<path class="st2" d="M47.09,4.12c-2.41,0-4.36,1.95-4.36,4.36s1.95,4.36,4.36,4.36s4.36-1.95,4.36-4.36S49.5,4.12,47.09,4.12z
			 M46.24,11.44c-1.08,0-1.95-0.87-1.95-1.94c0-1.08,0.87-1.95,1.95-1.95c1.07,0,1.94,0.87,1.94,1.95
			C48.18,10.57,47.31,11.44,46.24,11.44z"/>
	</g>
</g>
<g>
	<polygon class="st3" points="46.9,4.41 47.86,4.57 48.15,2.04 47.2,1.88 	"/>
	<polygon class="st3" points="47.79,2.62 48.23,1.74 45.68,0.36 45.25,1.26 	"/>
	<polygon class="st3" points="47.25,1.95 47.87,2.68 50,0.88 49.37,0.15 	"/>
</g>
<g>
	<polygon class="st3" points="43.12,16.28 44.08,16.39 44.26,13.85 43.3,13.74 	"/>
	<polygon class="st3" points="43.93,14.46 44.32,13.55 41.71,12.29 41.32,13.2 	"/>
	<polygon class="st3" points="43.36,13.8 44.01,14.51 46.05,12.61 45.39,11.91 	"/>
</g>
<polygon class="st3" points="39.85,9.99 38.74,7.47 38.04,8.34 35.06,6.24 34.56,6.89 37.53,8.97 36.84,9.85 "/>
<circle class="st3" cx="41.32" cy="15.42" r="0.71"/>
<circle class="st3" cx="47.42" cy="14.44" r="0.61"/>
<circle class="st3" cx="50.36" cy="15.31" r="0.97"/>
<circle class="st3" cx="52.35" cy="13.06" r="0.74"/>
</svg>
