<?xml version="1.0" encoding="utf-8"?>
<!-- Generator: Adobe Illustrator 27.2.0, SVG Export Plug-In . SVG Version: 6.00 Build 0)  -->
<svg version="1.1" id="Layer_1" xmlns="http://www.w3.org/2000/svg" xmlns:xlink="http://www.w3.org/1999/xlink" x="0px" y="0px"
	 viewBox="0 0 56 17" style="enable-background:new 0 0 56 17;" xml:space="preserve">
<style type="text/css">
	.st0{fill:#010101;}
	.st1{fill:none;stroke:#000000;stroke-miterlimit:10;}
</style>
<path class="st0" d="M16.8,17c-0.1-1.3,0.1-4,2-5c0.8-0.4,1.6-0.7,2.4-0.9c0.7-0.1,1.3-0.3,1.8-0.7c0.4-0.3,0.8-0.7,1-1.1
	c0.5-0.9,0.5-1.2,0.4-1.3c-0.1-0.2-0.6,0.2-1.2,0c-0.2-0.1-0.5-0.2-0.6-0.4c-0.1-0.3,0.1-0.3,0-0.7c-0.1-0.3-0.1-0.3-0.2-0.6
	c-0.1-0.4,0.2-0.7,0.1-0.8c-0.1-0.2-0.4,0-0.6-0.2c-0.2-0.2,0-0.5,0.1-0.7c0.1-0.3,0.3-0.6,0.4-0.8c0.1-0.2,0.2-0.3,0.3-0.6
	c0.1-0.4,0-0.6,0-0.9c0.1-0.4,0.3-0.9,0.6-1.2c0.4-0.7,1.1-1.1,1.9-1.2c0.3-0.1,0.7-0.1,1,0c0.4,0.1,0.8,0.1,1.2,0.3
	c0.3,0.2,0.7,0.3,0.9,0.6C28.6,1,28.8,1.2,29,1.4c0.3,0.3,0.4,0.7,0.6,1.1c0.1,0.3,0.2,0.7,0.1,1c0,0.3-0.1,0.7-0.2,0.9
	c-0.1,0.4-0.3,0.8-0.6,1.1c-0.5,0.7-0.7,0.6-1.1,1.2c-0.2,0.3-0.2,0.6-0.3,0.9c-0.1,0.3,0,0.6,0,0.8C27.8,8.7,27.9,9,28,9.3
	c0.1,0.2,0.3,0.5,0.5,0.7c0.3,0.3,0.6,0.5,0.9,0.7c0.4,0.2,0.9,0.3,1.4,0.4c0.3,0.1,0.7,0.2,1.2,0.4c0.4,0.2,0.9,0.4,1.3,0.6
	c0.4,0.2,0.7,0.6,1,0.9c0.3,0.4,0.5,0.9,0.6,1.5c0.1,0.4,0.2,0.8,0.2,1.3c0.1,0.7,0.1,1.2,0.1,1.2C34.1,16.9,21.1,17,16.8,17z"/>
<polyline class="st1" points="46.2,2.8 46.2,0.7 54.2,0.7 54.2,17 "/>
<path d="M49.2,2.6h-6c-0.9,0-1.7,0.8-1.7,1.7v8.4c0,0.9,0.8,1.7,1.7,1.7h6c0.9,0,1.7-0.8,1.7-1.7V4.3C50.9,3.4,50.1,2.6,49.2,2.6z
	 M49.4,8v1.4h-2.6V12h-1.4V9.4h-2.6V8h2.6V5.4h1.4V8H49.4z"/>
<path class="st1" d="M32.3,12.9c1.9-0.4,3.5-3.6,3.1-4.8C35.1,6.7,33,5.9,32,6.5c-0.7,0.5-0.9,1.6-0.6,2.4c0.7,1.6,3.7,2.1,5.9,1.6
	c2-0.5,3.5-2.1,4.4-2.9c0.5-0.5,0.8-0.9,1-1.2"/>
<path d="M18,7.3l-5.3-6.2l-0.3-0.3l0,0c-1.3-1.1-3.3-1.1-4.6,0l0,0C6.4,2,6.1,3.9,7,5.4L6.9,5.4l5.6,6.5c0.7,0.8,1.7,1.3,2.7,1.3
	c0.8,0,1.7-0.3,2.3-0.9C19.1,11,19.3,8.8,18,7.3z M13.4,11.2l-2.1-2.4L15,5.7L17,8.2c0.8,1,0.7,2.4-0.3,3.3
	c-0.5,0.4-1.1,0.6-1.8,0.6C14.4,12,13.8,11.7,13.4,11.2z"/>
<path d="M10.1,12.7v-1H8.9c-0.1-0.5-0.2-1-0.5-1.4l0.9-0.7L8.7,8.7L7.9,9.4c-0.6-0.6-1.4-1-2.3-1.1V7.2h-1v1.2
	c-0.2,0-0.5,0.1-0.7,0.1C3.5,8.5,3.2,8.7,2.9,9C2.8,9,2.8,9.1,2.7,9.1L1.9,8.2L1.1,8.9l0.9,1c-0.4,0.5-0.6,1.1-0.7,1.7H0v1h1.2
	c0.1,0.6,0.3,1.2,0.6,1.7l-0.8,0.7l0.6,0.8L2.4,15c0.6,0.6,1.3,0.9,2.2,1v1h1v-1c0.8-0.1,1.4-0.4,2-0.9l0.8,0.8l0.7-0.7l-0.8-0.8
	c0.4-0.5,0.6-1.1,0.7-1.7H10.1z M3.5,9.8c0.2-0.1,0.4-0.2,0.6-0.3c0.7-0.1,1.4,0.4,1.4,1.1c0,0.3-0.1,0.6-0.3,0.8
	c-0.2,0.2-0.6,0.4-0.9,0.4c-0.7,0-1.2-0.5-1.2-1.1C3.1,10.2,3.3,10,3.5,9.8z M5.7,12.9c0-0.4,0.4-0.8,0.8-0.8s0.8,0.4,0.8,0.8
	s-0.4,0.8-0.8,0.8S5.7,13.3,5.7,12.9z"/>
</svg>
