<?xml version="1.0" encoding="utf-8"?>
<!-- Generator: Adobe Illustrator 16.0.0, SVG Export Plug-In . SVG Version: 6.00 Build 0)  -->
<!DOCTYPE svg PUBLIC "-//W3C//DTD SVG 1.1//EN" "http://www.w3.org/Graphics/SVG/1.1/DTD/svg11.dtd">
<svg version="1.1" id="Layer_1" xmlns="http://www.w3.org/2000/svg" xmlns:xlink="http://www.w3.org/1999/xlink" x="0px" y="0px"
	 width="56px" height="17px" viewBox="0 0 56 17" enable-background="new 0 0 56 17" xml:space="preserve">
<line fill="none" stroke="#000000" stroke-width="1.5" stroke-miterlimit="10" x1="-0.116" y1="4.634" x2="42.235" y2="4.634"/>
<line fill="none" stroke="#000000" stroke-width="1.5" stroke-miterlimit="10" x1="6.685" y1="12.3" x2="42.235" y2="12.3"/>
<line fill="none" stroke="#000000" stroke-width="1.5" stroke-miterlimit="10" x1="11.843" y1="4.089" x2="11.843" y2="12.615"/>
<line fill="none" stroke="#000000" stroke-width="1.5" stroke-miterlimit="10" x1="14.843" y1="4.089" x2="14.843" y2="12.615"/>
<line fill="none" stroke="#000000" stroke-width="1.5" stroke-miterlimit="10" x1="17.843" y1="4.03" x2="17.843" y2="12.615"/>
<line fill="none" stroke="#000000" stroke-width="1.5" stroke-miterlimit="10" x1="27.843" y1="4.089" x2="27.843" y2="12.615"/>
<line fill="none" stroke="#000000" stroke-width="1.5" stroke-miterlimit="10" x1="30.843" y1="4.089" x2="30.843" y2="12.615"/>
<line fill="none" stroke="#000000" stroke-width="1.5" stroke-miterlimit="10" x1="33.843" y1="4.03" x2="33.843" y2="12.615"/>
<path fill="none" stroke="#000000" stroke-width="1.5" stroke-miterlimit="10" d="M41.364,6.443"/>
<path fill="none" stroke="#000000" stroke-width="1.5" stroke-miterlimit="10" d="M42.496,4.065"/>
<path fill="none" stroke="#000000" stroke-width="1.5" stroke-miterlimit="10" d="M41.894,5.067"/>
<path fill="none" stroke="#000000" stroke-width="1.5" stroke-miterlimit="10" d="M41.423,4.26c1.268-1.942,3.398-3.258,5.86-3.36
	c4.085-0.169,7.538,3.071,7.71,7.237c0.172,4.164-3.001,7.679-7.087,7.849c-2.806,0.114-5.314-1.378-6.665-3.675"/>
<line fill="none" stroke="#000000" stroke-width="1.5" stroke-miterlimit="10" x1="20.843" y1="4.03" x2="20.843" y2="12.615"/>
<line fill="none" stroke="#000000" stroke-width="1.5" stroke-miterlimit="10" x1="36.843" y1="4.03" x2="36.843" y2="12.615"/>
</svg>
