<?xml version="1.0" encoding="utf-8"?>
<!-- Generator: Adobe Illustrator 16.0.0, SVG Export Plug-In . SVG Version: 6.00 Build 0)  -->
<!DOCTYPE svg PUBLIC "-//W3C//DTD SVG 1.1//EN" "http://www.w3.org/Graphics/SVG/1.1/DTD/svg11.dtd">
<svg version="1.1" id="Layer_1" xmlns="http://www.w3.org/2000/svg" xmlns:xlink="http://www.w3.org/1999/xlink" x="0px" y="0px"
	 width="54.993px" height="17px" viewBox="0 0 54.993 17" enable-background="new 0 0 54.993 17" xml:space="preserve">
<g>
	<g>
		<path fill="none" stroke="#000000" stroke-miterlimit="10" d="M27.15,1.93"/>
	</g>
</g>
<path fill="none" stroke="#000000" stroke-width="0.3" stroke-miterlimit="10" d="M13.07,14.739"/>
<g>
	<g>
		<path d="M5.627,2.777c-3.016,0-5.46,2.444-5.46,5.46c0,3.014,2.444,5.461,5.46,5.461c3.015,0,5.459-2.447,5.459-5.461
			C11.086,5.221,8.642,2.777,5.627,2.777z M4.564,11.947c-1.35,0-2.44-1.09-2.44-2.43c0-1.351,1.09-2.44,2.44-2.44
			c1.34,0,2.43,1.09,2.43,2.44C6.994,10.857,5.904,11.947,4.564,11.947z"/>
	</g>
	<g>
		<path fill="none" stroke="#000000" stroke-width="0.1" stroke-miterlimit="10" d="M5.627,2.777c-3.016,0-5.46,2.444-5.46,5.46
			c0,3.014,2.444,5.461,5.46,5.461c3.015,0,5.459-2.447,5.459-5.461C11.086,5.221,8.642,2.777,5.627,2.777z M4.564,11.947
			c-1.35,0-2.44-1.09-2.44-2.43c0-1.351,1.09-2.44,2.44-2.44c1.34,0,2.43,1.09,2.43,2.44C6.994,10.857,5.904,11.947,4.564,11.947z"
			/>
	</g>
</g>
<path fill="none" stroke="#000000" stroke-width="0.6" stroke-miterlimit="10" d="M27.95,13.843
	c-0.783-1.059,2.023,2.087-1.402,1.863c-1.077-0.067-4.164-1.728-4.263-0.853"/>
<path fill="none" d="M24.634,4.66c0.361,0,0.656-0.244,0.656-0.546c0-0.302-0.295-0.547-0.656-0.547
	c-0.356,0-0.653,0.245-0.653,0.547C23.981,4.416,24.278,4.66,24.634,4.66z"/>
<path d="M23.006,5.165c-0.377,0.177-0.629,0.486-0.629,0.839c0,0.55,0.606,0.996,1.355,0.996c0.181,0,0.352-0.027,0.51-0.074
	c0.051-0.087,0.095-0.181,0.15-0.264C23.757,6.306,23.269,5.781,23.006,5.165z"/>
<path d="M30.709,8.732c0.029-0.349,0.047-0.708,0.047-1.076c0-1.991-0.453-3.734-1.135-4.722c0.194,0.372,0.307,0.781,0.307,1.213
	c0,1.666-1.598,3.018-3.566,3.018c-0.729,0-1.404-0.187-1.969-0.503c-0.055,0.083-0.1,0.177-0.15,0.264
	c-0.064,0.11-0.134,0.215-0.191,0.334c-0.067-0.005-0.127-0.019-0.197-0.019c-0.709,0-1.285,0.274-1.285,0.612
	c0,0.058,0.038,0.111,0.069,0.165c-0.279,0.098-0.474,0.255-0.474,0.442c0,0.302,0.471,0.548,1.053,0.548
	c0.125,0,0.241-0.016,0.352-0.037c-0.026,0.227-0.054,0.453-0.054,0.688c0,0.472,0.071,0.918,0.173,1.347
	c-0.143-0.037-0.299-0.062-0.471-0.062c-0.582,0-1.053,0.244-1.053,0.545c0,0.303,0.471,0.549,1.053,0.549
	c0.296,0,0.562-0.064,0.753-0.166c0.616,1.449,1.802,2.443,3.18,2.443c2.004,0,3.633-2.082,3.633-4.654
	C30.784,9.342,30.758,9.032,30.709,8.732z"/>
<polygon stroke="#000000" stroke-width="0.1" stroke-miterlimit="10" points="14.061,5.284 17.995,7.375 14.038,9.518 "/>
<polygon stroke="#000000" stroke-width="0.1" stroke-miterlimit="10" points="34.061,5.284 37.995,7.375 34.038,9.518 "/>
<path fill="none" d="M23.981,4.114c0,0.184,0.117,0.337,0.282,0.437C24.112,4.415,24.024,4.233,24,4.033
	C23.996,4.061,23.981,4.085,23.981,4.114z"/>
<path d="M29.622,2.934c-0.553-1.061-1.803-1.803-3.261-1.803c-1.973,0-3.569,1.351-3.569,3.016c0,0.358,0.079,0.699,0.214,1.018
	c0.263,0.616,0.751,1.141,1.387,1.497c0.564,0.316,1.24,0.503,1.969,0.503c1.969,0,3.566-1.352,3.566-3.018
	C29.928,3.715,29.817,3.306,29.622,2.934z M24.964,4.811c-0.275,0-0.522-0.1-0.701-0.26c-0.166-0.099-0.282-0.253-0.282-0.437
	c0-0.029,0.015-0.054,0.02-0.081c-0.003-0.03-0.02-0.056-0.02-0.086c0-0.477,0.44-0.863,0.983-0.863s0.983,0.386,0.983,0.863
	C25.947,4.424,25.507,4.811,24.964,4.811z"/>
<path fill="none" d="M24.964,3.084c-0.543,0-0.983,0.386-0.983,0.863c0,0.03,0.016,0.056,0.02,0.086
	c0.024,0.2,0.111,0.382,0.263,0.518c0.179,0.16,0.426,0.26,0.701,0.26c0.543,0,0.983-0.386,0.983-0.863
	C25.947,3.471,25.507,3.084,24.964,3.084z"/>
<polygon fill="none" points="47.286,0.278 46.546,1.93 48.197,1.93 "/>
<path fill="none" d="M48.779,3.97c0.397,0,0.72-0.246,0.72-0.55c0-0.304-0.322-0.55-0.72-0.55c-0.391,0-0.717,0.246-0.717,0.55
	C48.062,3.724,48.387,3.97,48.779,3.97z"/>
<path fill="none" d="M43.896,5.555C43.346,6.4,43.905,8.634,44.497,8.9c0.942,0.427,3.45-0.9,3.058-2.647L43.896,5.555z"/>
<path fill="none" d="M47.702,6.253C47.404,7.401,49.947,9.428,50.891,9c0.59-0.266,0.668-2.875,0.245-3.402L47.702,6.253z"/>
<ellipse fill="none" cx="46.256" cy="3.567" rx="0.982" ry="0.863"/>
<path d="M47.817,0.577c-0.076-0.023-0.492-0.779-0.855-0.221c-0.156,0.206,0,0-0.42,0.58c-1.699,2.353-4.963,7.183-4.963,9.6
	c0,3.269,2.678,5.916,5.977,5.916c3.304,0,5.979-2.647,5.979-5.916C53.534,7.532,48.631,1.644,47.817,0.577z M49.317,3.064
	c0.109,0.096,0.182,0.218,0.182,0.355c0,0.007-0.005,0.014-0.006,0.021c0.008,0.043,0.029,0.082,0.029,0.126
	c0,0.477-0.44,0.863-0.982,0.863c-0.543,0-0.983-0.387-0.983-0.863s0.44-0.863,0.983-0.863C48.864,2.704,49.138,2.851,49.317,3.064z
	 M47.286,0.278l0.911,1.652h-1.65L47.286,0.278z M46.256,2.704c0.542,0,0.982,0.386,0.982,0.863s-0.44,0.863-0.982,0.863
	c-0.543,0-0.983-0.387-0.983-0.863S45.713,2.704,46.256,2.704z M44.497,8.9c-0.592-0.266-1.15-2.5-0.601-3.345l3.658,0.698
	C47.947,8,45.439,9.327,44.497,8.9z M50.891,9c-0.944,0.428-3.487-1.599-3.189-2.747l3.435-0.655
	C51.559,6.125,51.481,8.734,50.891,9z"/>
<path fill="none" stroke="#000000" stroke-width="0.6" stroke-miterlimit="10" d="M54.715,15.125
	c-0.162-1.454-4.691,1.598-5.66,1.658c-3.426,0.224-1.557-2.686-2.34-1.627"/>
</svg>
