<?xml version="1.0" encoding="utf-8"?>
<!-- Generator: Adobe Illustrator 25.0.0, SVG Export Plug-In . SVG Version: 6.00 Build 0)  -->
<svg version="1.1" id="Layer_1" xmlns="http://www.w3.org/2000/svg" xmlns:xlink="http://www.w3.org/1999/xlink" x="0px" y="0px"
	 viewBox="0 0 56 17" style="enable-background:new 0 0 56 17;" xml:space="preserve">
<style type="text/css">
	.st0{fill:none;stroke:#000000;stroke-width:3;stroke-miterlimit:10;}
	.st1{fill:#FFFFFF;stroke:#000000;stroke-width:3;stroke-miterlimit:10;}
	.st2{fill:none;stroke:#000000;stroke-miterlimit:10;}
</style>
<path class="st0" d="M28,15.2c-3.8,0-6.9-3-6.9-6.7c0-3.7,3.1-6.7,6.9-6.7c3.8,0,6.9,3,6.9,6.7"/>
<path class="st1" d="M14.6,4.9"/>
<path class="st0" d="M14.6,4.9c0.7,1,1,2.3,1,3.6c0,3.7-3.1,6.7-6.9,6.7c-3.8,0-6.9-3-6.9-6.7c0-3.7,3.1-6.7,6.9-6.7"/>
<circle class="st2" cx="8.8" cy="8.5" r="5.4"/>
<circle class="st2" cx="28" cy="8.5" r="5.4"/>
<ellipse class="st2" cx="28.1" cy="8.5" rx="8.3" ry="8"/>
<ellipse class="st2" cx="9" cy="8.5" rx="8.3" ry="8"/>
<g>
	<path class="st0" d="M47,1.7c3.8,0,6.9,3,6.9,6.7c0,3.7-3.1,6.7-6.9,6.7c-3.8,0-6.9-3-6.9-6.7"/>
	<circle class="st2" cx="47" cy="8.5" r="5.4"/>
	<ellipse class="st2" cx="47" cy="8.5" rx="8.3" ry="8"/>
</g>
</svg>
