<?xml version="1.0" encoding="utf-8"?>
<!-- Generator: Adobe Illustrator 18.0.0, SVG Export Plug-In . SVG Version: 6.00 Build 0)  -->
<!DOCTYPE svg PUBLIC "-//W3C//DTD SVG 1.1//EN" "http://www.w3.org/Graphics/SVG/1.1/DTD/svg11.dtd">
<svg version="1.1" id="Layer_1" xmlns="http://www.w3.org/2000/svg" xmlns:xlink="http://www.w3.org/1999/xlink" x="0px" y="0px"
	 width="172px" height="134px" viewBox="0 0 172 134" style="enable-background:new 0 0 172 134;" xml:space="preserve">
<style type="text/css">
	.st0{fill:#FFFFFF;}
	.st1{fill:#2B3990;}
	.st2{fill:#215AA6;}
	.st3{fill:#293C93;}
	.st4{fill:#294095;}
	.st5{fill:#294297;}
	.st6{fill:#294598;}
	.st7{fill:#29499A;}
	.st8{fill:#284D9D;}
	.st9{fill:#2551A0;}
	.st10{fill:#2356A3;}
	.st11{fill:#2362AC;}
	.st12{fill:#2667AF;}
	.st13{fill:#216BB3;}
	.st14{fill:#1E6FB6;}
	.st15{fill:#1A72B8;}
	.st16{fill:#1576BB;}
</style>
<rect class="st0" width="172" height="134"/>
<path class="st1" d="M20.5,88.5c0-2.1,0.3-4.1,0.9-5.9c0.6-1.9,1.5-3.5,2.7-4.8c1.2-1.4,2.6-2.4,4.3-3.2c1.7-0.8,3.6-1.2,5.8-1.2
	c1.7,0,3.2,0.2,4.4,0.7c1.2,0.4,2.3,1,3.1,1.7c0.8,0.7,1.5,1.4,2.1,2.2c0.5,0.8,0.9,1.5,1.2,2.2c0.3,0.7,0.5,1.3,0.6,1.8
	c0.1,0.5,0.2,0.8,0.2,0.8H44c-0.2-1.2-0.6-2.3-1.2-3.3c-0.6-1-1.3-1.8-2.2-2.5c-0.9-0.7-1.9-1.2-3-1.5c-1.1-0.4-2.2-0.5-3.4-0.5
	c-1.9,0-3.6,0.4-5,1.1c-1.5,0.7-2.7,1.7-3.8,2.9c-1,1.2-1.8,2.7-2.3,4.3c-0.5,1.6-0.8,3.4-0.8,5.3c0,1.9,0.3,3.6,0.8,5.3
	c0.5,1.6,1.3,3.1,2.3,4.3c1,1.2,2.3,2.2,3.8,2.9c1.5,0.7,3.2,1.1,5,1.1c1.4,0,2.7-0.3,3.9-0.9c1.2-0.6,2.3-1.4,3.2-2.3
	s1.6-2.1,2.2-3.3c0.6-1.3,0.9-2.6,0.9-3.9h1.8c-0.2,1.7-0.6,3.3-1.3,4.8c-0.7,1.5-1.6,2.7-2.6,3.8c-1.1,1.1-2.3,1.9-3.7,2.5
	c-1.4,0.6-2.9,0.9-4.5,0.9c-2.2,0-4.1-0.4-5.8-1.2c-1.7-0.8-3.1-1.9-4.3-3.2c-1.2-1.4-2.1-3-2.7-4.8C20.8,92.6,20.5,90.6,20.5,88.5z
	"/>
<path class="st1" d="M51.6,74V103h-1.5V74H51.6z"/>
<path class="st1" d="M56.9,78.2V74h1.5v4.2H56.9z M56.9,103V82.1h1.5V103H56.9z"/>
<path class="st1" d="M63.3,82.1h1.5v4.5h0.1c0.3-0.8,0.7-1.5,1.2-2.1c0.5-0.6,1.1-1.1,1.7-1.6s1.4-0.8,2.2-1
	c0.8-0.2,1.6-0.3,2.4-0.3c1.2,0,2.2,0.1,3.1,0.4c0.8,0.3,1.5,0.7,2.1,1.2c0.5,0.5,1,1,1.3,1.6c0.3,0.6,0.5,1.2,0.7,1.8
	c0.1,0.6,0.2,1.2,0.2,1.8c0,0.6,0,1.1,0,1.5V103h-1.5V89.8c0-0.5,0-1.2-0.1-1.9c-0.1-0.8-0.3-1.5-0.7-2.2c-0.4-0.7-1-1.3-1.8-1.8
	c-0.8-0.5-1.9-0.8-3.3-0.8c-1.2,0-2.2,0.2-3.1,0.6c-0.9,0.4-1.7,1-2.3,1.8c-0.6,0.8-1.1,1.7-1.5,2.8c-0.3,1.1-0.5,2.2-0.5,3.5V103
	h-1.5V82.1z"/>
<path class="st1" d="M83.4,88.7c0-2.1,0.3-4,0.9-5.9c0.6-1.9,1.5-3.5,2.6-4.9c1.2-1.4,2.6-2.5,4.3-3.3c1.7-0.8,3.6-1.2,5.8-1.2
	c1.5,0,2.9,0.2,4.2,0.6c1.3,0.4,2.5,1.1,3.6,1.9c1.1,0.8,2,1.9,2.7,3c0.7,1.2,1.2,2.5,1.5,4.1h-1.7c-0.7-2.5-1.9-4.5-3.6-6
	c-1.7-1.4-4-2.1-6.6-2.1c-1.9,0-3.6,0.4-5.1,1.1c-1.5,0.8-2.7,1.8-3.7,3c-1,1.3-1.7,2.7-2.3,4.4c-0.5,1.7-0.8,3.4-0.8,5.2
	c0,1.8,0.2,3.6,0.7,5.2c0.5,1.6,1.2,3.1,2.2,4.3c1,1.2,2.2,2.2,3.7,2.9c1.5,0.7,3.2,1.1,5.2,1.1c1.7,0,3.3-0.3,4.6-0.9
	c1.4-0.6,2.5-1.4,3.5-2.4c1-1,1.7-2.3,2.2-3.7c0.5-1.4,0.7-3.1,0.6-4.8H97.4v-1.5h12.1V103H108v-6.2h-0.1c-0.4,1.1-0.9,2-1.6,2.9
	c-0.7,0.9-1.5,1.6-2.5,2.1c-1,0.6-2,1-3.2,1.4c-1.2,0.3-2.4,0.5-3.7,0.5c-2.2,0-4.1-0.4-5.8-1.2c-1.7-0.8-3.1-1.9-4.3-3.2
	c-1.2-1.4-2-2.9-2.6-4.8C83.7,92.7,83.4,90.7,83.4,88.7z"/>
<path class="st1" d="M114.7,92.8V93c0,1.2,0.2,2.4,0.5,3.5c0.3,1.1,0.8,2.1,1.4,2.9c0.6,0.8,1.4,1.5,2.4,2c1,0.5,2.1,0.7,3.3,0.7
	c2.1,0,3.7-0.5,4.9-1.6c1.2-1.1,2-2.6,2.5-4.6h1.5c-0.5,2.4-1.4,4.3-3,5.6c-1.5,1.3-3.5,1.9-6,1.9c-1.5,0-2.9-0.3-4-0.8
	c-1.1-0.6-2.1-1.3-2.9-2.3c-0.8-1-1.3-2.1-1.7-3.4c-0.4-1.3-0.6-2.7-0.6-4.2c0-1.5,0.2-2.9,0.6-4.2c0.4-1.3,1-2.5,1.8-3.5
	c0.8-1,1.8-1.8,2.9-2.4c1.2-0.6,2.5-0.9,4.1-0.9c1.5,0,2.7,0.3,3.9,0.8c1.1,0.5,2.1,1.3,2.8,2.2c0.8,0.9,1.3,2,1.7,3.2
	c0.4,1.2,0.6,2.5,0.6,4c0,0.1,0,0.3,0,0.5c0,0.2,0,0.3,0,0.4H114.7z M129.9,91.4c-0.1-1.1-0.2-2.2-0.6-3.2c-0.3-1-0.8-1.9-1.4-2.7
	c-0.6-0.8-1.4-1.4-2.3-1.8c-0.9-0.5-1.9-0.7-3.1-0.7c-1.2,0-2.3,0.2-3.3,0.7c-0.9,0.5-1.7,1.1-2.4,1.9c-0.6,0.8-1.1,1.7-1.5,2.7
	c-0.4,1-0.6,2.1-0.6,3.2H129.9z"/>
<path class="st1" d="M135,82.1h1.5v4.5h0.1c0.3-0.8,0.7-1.5,1.2-2.1c0.5-0.6,1.1-1.1,1.7-1.6c0.7-0.4,1.4-0.8,2.2-1
	c0.8-0.2,1.6-0.3,2.4-0.3c1.2,0,2.2,0.1,3.1,0.4c0.8,0.3,1.5,0.7,2.1,1.2c0.5,0.5,1,1,1.3,1.6c0.3,0.6,0.5,1.2,0.7,1.8
	c0.1,0.6,0.2,1.2,0.2,1.8c0,0.6,0,1.1,0,1.5V103h-1.5V89.8c0-0.5,0-1.2-0.1-1.9c-0.1-0.8-0.3-1.5-0.7-2.2c-0.4-0.7-1-1.3-1.8-1.8
	c-0.8-0.5-1.9-0.8-3.3-0.8c-1.2,0-2.2,0.2-3.1,0.6c-0.9,0.4-1.7,1-2.3,1.8c-0.6,0.8-1.1,1.7-1.5,2.8c-0.3,1.1-0.5,2.2-0.5,3.5V103
	H135V82.1z"/>
<path class="st1" d="M27.8,110.8c-0.2-0.2-0.3-0.5-0.6-0.6c-0.2-0.2-0.5-0.3-0.7-0.4c-0.3-0.1-0.6-0.1-0.9-0.1c-0.5,0-1,0.1-1.4,0.3
	c-0.4,0.2-0.7,0.5-1,0.8c-0.2,0.3-0.4,0.7-0.6,1.2c-0.1,0.4-0.2,0.9-0.2,1.3c0,0.4,0.1,0.9,0.2,1.3s0.3,0.8,0.6,1.2
	c0.2,0.3,0.6,0.6,1,0.8c0.4,0.2,0.9,0.3,1.4,0.3c0.4,0,0.7-0.1,1-0.2c0.3-0.1,0.6-0.3,0.8-0.6c0.2-0.2,0.4-0.5,0.5-0.8
	c0.1-0.3,0.2-0.7,0.3-1h0.8c-0.1,0.5-0.2,1-0.4,1.4c-0.2,0.4-0.4,0.7-0.7,1c-0.3,0.3-0.6,0.5-1,0.7c-0.4,0.2-0.8,0.2-1.3,0.2
	c-0.6,0-1.2-0.1-1.7-0.3c-0.5-0.2-0.9-0.5-1.2-0.9c-0.3-0.4-0.6-0.8-0.7-1.4c-0.2-0.5-0.2-1.1-0.2-1.6c0-0.6,0.1-1.1,0.2-1.6
	c0.2-0.5,0.4-1,0.7-1.4c0.3-0.4,0.7-0.7,1.2-0.9c0.5-0.2,1.1-0.3,1.7-0.3c0.4,0,0.8,0.1,1.1,0.2c0.4,0.1,0.7,0.3,1,0.5
	c0.3,0.2,0.6,0.5,0.8,0.8c0.2,0.3,0.3,0.7,0.4,1.1h-0.8C28.1,111.3,28,111,27.8,110.8z"/>
<path class="st1" d="M30.8,109.1v8.2h-0.7v-8.2H30.8z"/>
<path class="st1" d="M33,109.1v1.2h-0.7v-1.2H33z M33,111.4v5.9h-0.7v-5.9H33z"/>
<path class="st1" d="M35.1,111.4v1h0c0.1-0.4,0.4-0.6,0.7-0.9c0.4-0.2,0.7-0.3,1.2-0.3c0.4,0,0.8,0.1,1,0.2c0.3,0.1,0.5,0.3,0.7,0.5
	c0.2,0.2,0.3,0.4,0.4,0.7c0.1,0.3,0.1,0.6,0.1,1v3.8h-0.7v-3.7c0-0.3,0-0.5-0.1-0.7c0-0.2-0.1-0.4-0.2-0.6c-0.1-0.2-0.3-0.3-0.5-0.4
	c-0.2-0.1-0.4-0.1-0.7-0.1c-0.3,0-0.6,0.1-0.8,0.2c-0.2,0.1-0.4,0.2-0.6,0.4c-0.2,0.2-0.3,0.4-0.4,0.6c-0.1,0.2-0.1,0.5-0.1,0.8v3.5
	h-0.7v-5.9H35.1z"/>
<path class="st1" d="M41.3,109.1v1.2h-0.7v-1.2H41.3z M41.3,111.4v5.9h-0.7v-5.9H41.3z"/>
<path class="st1" d="M46.3,112.2c-0.3-0.3-0.6-0.4-1.1-0.4c-0.3,0-0.6,0.1-0.9,0.2c-0.3,0.1-0.5,0.3-0.6,0.6
	c-0.2,0.2-0.3,0.5-0.4,0.8c-0.1,0.3-0.1,0.6-0.1,0.9c0,0.3,0,0.6,0.1,0.9c0.1,0.3,0.2,0.6,0.4,0.8c0.2,0.2,0.4,0.4,0.6,0.6
	c0.3,0.1,0.6,0.2,0.9,0.2c0.2,0,0.4,0,0.6-0.1c0.2-0.1,0.4-0.2,0.5-0.4c0.2-0.1,0.3-0.3,0.4-0.5c0.1-0.2,0.2-0.4,0.2-0.7h0.7
	c-0.1,0.7-0.4,1.3-0.8,1.7s-1,0.6-1.7,0.6c-0.5,0-0.9-0.1-1.2-0.2c-0.3-0.2-0.6-0.4-0.9-0.7c-0.2-0.3-0.4-0.6-0.5-1
	c-0.1-0.4-0.2-0.8-0.2-1.2c0-0.4,0.1-0.8,0.2-1.2c0.1-0.4,0.3-0.7,0.5-1c0.2-0.3,0.5-0.5,0.9-0.7c0.3-0.2,0.7-0.3,1.2-0.3
	c0.6,0,1.2,0.2,1.6,0.5c0.4,0.3,0.7,0.8,0.8,1.5h-0.7C46.7,112.8,46.6,112.5,46.3,112.2z"/>
<path class="st1" d="M48.8,112.3c0.1-0.3,0.3-0.5,0.5-0.6c0.2-0.2,0.5-0.3,0.7-0.4c0.3-0.1,0.6-0.1,0.9-0.1c0.3,0,0.5,0,0.8,0.1
	c0.3,0.1,0.5,0.1,0.7,0.3c0.2,0.1,0.4,0.3,0.5,0.6c0.1,0.2,0.2,0.6,0.2,1v3.1c0,0.3,0.1,0.4,0.4,0.4c0.1,0,0.2,0,0.2,0v0.6
	c-0.1,0-0.2,0-0.2,0c-0.1,0-0.1,0-0.2,0c-0.2,0-0.3,0-0.4-0.1c-0.1-0.1-0.2-0.1-0.3-0.2c-0.1-0.1-0.1-0.2-0.1-0.3c0-0.1,0-0.3,0-0.4
	h0c-0.1,0.2-0.3,0.4-0.4,0.5c-0.1,0.1-0.3,0.3-0.4,0.4c-0.2,0.1-0.4,0.2-0.6,0.2c-0.2,0.1-0.5,0.1-0.8,0.1c-0.3,0-0.5,0-0.8-0.1
	c-0.2-0.1-0.5-0.2-0.6-0.3c-0.2-0.1-0.3-0.3-0.4-0.5c-0.1-0.2-0.2-0.5-0.2-0.8c0-0.4,0.1-0.7,0.3-1c0.2-0.2,0.4-0.4,0.7-0.5
	c0.3-0.1,0.6-0.2,1-0.3c0.4,0,0.8-0.1,1.2-0.1c0.2,0,0.3,0,0.4-0.1c0.1,0,0.2-0.1,0.3-0.1c0.1-0.1,0.1-0.1,0.2-0.2s0.1-0.2,0.1-0.4
	c0-0.2,0-0.4-0.1-0.6c-0.1-0.2-0.2-0.3-0.3-0.4c-0.1-0.1-0.3-0.2-0.5-0.2c-0.2,0-0.4-0.1-0.6-0.1c-0.5,0-0.8,0.1-1.1,0.3
	c-0.3,0.2-0.4,0.6-0.5,1.1h-0.7C48.6,112.9,48.6,112.6,48.8,112.3z M52.4,114.1c0,0.1-0.1,0.1-0.3,0.2c-0.1,0-0.2,0.1-0.3,0.1
	c-0.3,0.1-0.6,0.1-0.9,0.1c-0.3,0-0.6,0.1-0.9,0.2c-0.3,0.1-0.5,0.2-0.7,0.4c-0.2,0.2-0.3,0.4-0.3,0.7c0,0.2,0,0.3,0.1,0.5
	c0.1,0.1,0.2,0.3,0.3,0.4c0.1,0.1,0.3,0.2,0.4,0.2c0.2,0.1,0.3,0.1,0.5,0.1c0.3,0,0.5,0,0.8-0.1c0.3-0.1,0.5-0.2,0.7-0.4
	c0.2-0.2,0.3-0.4,0.4-0.6c0.1-0.2,0.2-0.5,0.2-0.8L52.4,114.1L52.4,114.1z"/>
<path class="st1" d="M55.3,109.1v8.2h-0.7v-8.2H55.3z"/>
<path class="st1" d="M66.5,117.3l-0.1-1.5h0c-0.1,0.3-0.3,0.5-0.5,0.8c-0.2,0.2-0.4,0.4-0.7,0.5c-0.2,0.1-0.5,0.2-0.8,0.3
	c-0.3,0.1-0.6,0.1-0.9,0.1c-0.6,0-1.2-0.1-1.7-0.3c-0.5-0.2-0.9-0.5-1.2-0.9c-0.3-0.4-0.6-0.8-0.7-1.4c-0.2-0.5-0.2-1.1-0.2-1.6
	c0-0.6,0.1-1.1,0.2-1.6c0.2-0.5,0.4-1,0.7-1.4c0.3-0.4,0.7-0.7,1.2-0.9c0.5-0.2,1.1-0.3,1.7-0.3c0.4,0,0.8,0.1,1.2,0.2
	c0.4,0.1,0.7,0.3,1,0.5c0.3,0.2,0.6,0.5,0.8,0.8c0.2,0.3,0.3,0.7,0.4,1.2h-0.8c0-0.2-0.1-0.5-0.2-0.7c-0.1-0.2-0.3-0.5-0.5-0.7
	c-0.2-0.2-0.5-0.4-0.8-0.5c-0.3-0.1-0.7-0.2-1.1-0.2c-0.5,0-1,0.1-1.4,0.3c-0.4,0.2-0.7,0.5-1,0.8c-0.2,0.3-0.4,0.7-0.6,1.2
	c-0.1,0.4-0.2,0.9-0.2,1.3c0,0.4,0.1,0.9,0.2,1.3s0.3,0.8,0.6,1.2c0.2,0.3,0.6,0.6,1,0.8c0.4,0.2,0.9,0.3,1.4,0.3
	c0.5,0,0.9-0.1,1.2-0.2c0.4-0.1,0.7-0.4,0.9-0.6c0.2-0.3,0.4-0.6,0.6-1c0.1-0.4,0.2-0.8,0.2-1.2h-2.8v-0.7h3.5v4.2H66.5z"/>
<path class="st1" d="M69,115.4c0.1,0.3,0.2,0.5,0.4,0.8c0.2,0.2,0.4,0.4,0.6,0.6c0.2,0.1,0.5,0.2,0.9,0.2c0.5,0,0.9-0.1,1.2-0.4
	c0.3-0.3,0.5-0.6,0.6-1.1h0.7c-0.2,0.7-0.4,1.2-0.8,1.6c-0.4,0.4-1,0.6-1.7,0.6c-0.5,0-0.9-0.1-1.2-0.2c-0.3-0.2-0.6-0.4-0.8-0.7
	c-0.2-0.3-0.4-0.6-0.5-1c-0.1-0.4-0.2-0.8-0.2-1.2c0-0.4,0.1-0.8,0.2-1.1c0.1-0.4,0.3-0.7,0.5-1c0.2-0.3,0.5-0.5,0.8-0.7
	c0.3-0.2,0.7-0.3,1.2-0.3c0.5,0,0.9,0.1,1.2,0.3c0.3,0.2,0.6,0.4,0.8,0.8c0.2,0.3,0.4,0.7,0.5,1.1c0.1,0.4,0.1,0.8,0.1,1.2h-4.6
	C68.8,114.8,68.9,115.1,69,115.4z M72.5,113.2c-0.1-0.3-0.2-0.5-0.4-0.7c-0.2-0.2-0.4-0.4-0.6-0.5c-0.2-0.1-0.5-0.2-0.8-0.2
	c-0.3,0-0.6,0.1-0.8,0.2s-0.4,0.3-0.6,0.5c-0.2,0.2-0.3,0.4-0.4,0.7c-0.1,0.3-0.2,0.5-0.2,0.8h3.8C72.7,113.7,72.6,113.4,72.5,113.2
	z"/>
<path class="st1" d="M75.1,111.4v1h0c0.1-0.4,0.4-0.6,0.7-0.9c0.4-0.2,0.7-0.3,1.2-0.3c0.4,0,0.8,0.1,1,0.2c0.3,0.1,0.5,0.3,0.7,0.5
	c0.2,0.2,0.3,0.4,0.4,0.7c0.1,0.3,0.1,0.6,0.1,1v3.8h-0.7v-3.7c0-0.3,0-0.5-0.1-0.7s-0.1-0.4-0.2-0.6c-0.1-0.2-0.3-0.3-0.5-0.4
	c-0.2-0.1-0.4-0.1-0.7-0.1c-0.3,0-0.6,0.1-0.8,0.2c-0.2,0.1-0.4,0.2-0.6,0.4c-0.2,0.2-0.3,0.4-0.4,0.6c-0.1,0.2-0.1,0.5-0.1,0.8v3.5
	h-0.7v-5.9H75.1z"/>
<path class="st1" d="M84.3,111.5c0.3,0.2,0.6,0.4,0.9,0.7c0.2,0.3,0.4,0.6,0.5,1c0.1,0.4,0.2,0.8,0.2,1.2c0,0.4-0.1,0.8-0.2,1.2
	c-0.1,0.4-0.3,0.7-0.5,1c-0.2,0.3-0.5,0.5-0.9,0.7c-0.3,0.2-0.7,0.2-1.2,0.2c-0.5,0-0.9-0.1-1.2-0.2c-0.3-0.2-0.6-0.4-0.9-0.7
	c-0.2-0.3-0.4-0.6-0.5-1c-0.1-0.4-0.2-0.8-0.2-1.2c0-0.4,0.1-0.8,0.2-1.2c0.1-0.4,0.3-0.7,0.5-1c0.2-0.3,0.5-0.5,0.9-0.7
	c0.3-0.2,0.7-0.3,1.2-0.3C83.5,111.2,83.9,111.3,84.3,111.5z M82.2,112.1c-0.3,0.1-0.5,0.3-0.6,0.6c-0.2,0.2-0.3,0.5-0.4,0.8
	c-0.1,0.3-0.1,0.6-0.1,0.9c0,0.3,0,0.6,0.1,0.9c0.1,0.3,0.2,0.6,0.4,0.8c0.2,0.2,0.4,0.4,0.6,0.6c0.3,0.1,0.6,0.2,0.9,0.2
	s0.6-0.1,0.9-0.2c0.3-0.1,0.5-0.3,0.6-0.6c0.2-0.2,0.3-0.5,0.4-0.8c0.1-0.3,0.1-0.6,0.1-0.9c0-0.3,0-0.6-0.1-0.9
	c-0.1-0.3-0.2-0.6-0.4-0.8c-0.2-0.2-0.4-0.4-0.6-0.6c-0.3-0.1-0.6-0.2-0.9-0.2S82.4,111.9,82.2,112.1z"/>
<path class="st1" d="M87.6,111.4v1h0c0.2-0.4,0.4-0.7,0.8-0.9c0.3-0.2,0.7-0.3,1.2-0.3c0.4,0,0.7,0.1,1.1,0.3
	c0.3,0.2,0.5,0.5,0.6,0.9c0.2-0.4,0.4-0.7,0.8-0.9c0.3-0.2,0.7-0.3,1.1-0.3c1.3,0,2,0.7,2,2.1v4h-0.7v-4c0-0.5-0.1-0.9-0.3-1.1
	c-0.2-0.3-0.6-0.4-1.1-0.4c-0.3,0-0.6,0.1-0.8,0.2c-0.2,0.1-0.4,0.3-0.5,0.5c-0.1,0.2-0.2,0.4-0.3,0.7c0,0.3-0.1,0.5-0.1,0.8v3.4
	h-0.7v-4c0-0.2,0-0.4-0.1-0.6c0-0.2-0.1-0.3-0.2-0.5c-0.1-0.1-0.2-0.2-0.4-0.3c-0.2-0.1-0.4-0.1-0.6-0.1c-0.3,0-0.6,0.1-0.8,0.2
	c-0.2,0.1-0.4,0.3-0.6,0.5c-0.1,0.2-0.2,0.4-0.3,0.7c-0.1,0.3-0.1,0.6-0.1,0.9v3.3h-0.7v-5.9H87.6z"/>
<path class="st1" d="M97,115.4c0.1,0.3,0.2,0.5,0.4,0.8c0.2,0.2,0.4,0.4,0.6,0.6c0.2,0.1,0.5,0.2,0.9,0.2c0.5,0,0.9-0.1,1.2-0.4
	c0.3-0.3,0.5-0.6,0.6-1.1h0.7c-0.2,0.7-0.4,1.2-0.8,1.6c-0.4,0.4-1,0.6-1.7,0.6c-0.5,0-0.9-0.1-1.2-0.2c-0.3-0.2-0.6-0.4-0.8-0.7
	c-0.2-0.3-0.4-0.6-0.5-1c-0.1-0.4-0.2-0.8-0.2-1.2c0-0.4,0.1-0.8,0.2-1.1c0.1-0.4,0.3-0.7,0.5-1c0.2-0.3,0.5-0.5,0.8-0.7
	c0.3-0.2,0.7-0.3,1.2-0.3c0.5,0,0.9,0.1,1.2,0.3c0.3,0.2,0.6,0.4,0.8,0.8c0.2,0.3,0.4,0.7,0.5,1.1c0.1,0.4,0.1,0.8,0.1,1.2h-4.6
	C96.9,114.8,97,115.1,97,115.4z M100.6,113.2c-0.1-0.3-0.2-0.5-0.4-0.7c-0.2-0.2-0.4-0.4-0.6-0.5c-0.2-0.1-0.5-0.2-0.8-0.2
	c-0.3,0-0.6,0.1-0.8,0.2c-0.2,0.1-0.4,0.3-0.6,0.5c-0.2,0.2-0.3,0.4-0.4,0.7c-0.1,0.3-0.2,0.5-0.2,0.8h3.8
	C100.8,113.7,100.7,113.4,100.6,113.2z"/>
<path class="st1" d="M109.5,109.1c0.3,0,0.7,0,1,0.1c0.3,0.1,0.6,0.2,0.8,0.4c0.2,0.2,0.4,0.4,0.5,0.7c0.1,0.3,0.2,0.6,0.2,1
	c0,0.5-0.1,1-0.4,1.4c-0.3,0.4-0.7,0.6-1.2,0.7v0c0.3,0,0.5,0.1,0.7,0.2c0.2,0.1,0.3,0.2,0.4,0.4s0.2,0.3,0.2,0.6
	c0,0.2,0.1,0.4,0.1,0.7c0,0.1,0,0.3,0,0.5c0,0.2,0,0.4,0,0.6c0,0.2,0.1,0.4,0.1,0.6c0,0.2,0.1,0.3,0.2,0.4h-0.9
	c0-0.1-0.1-0.2-0.1-0.3c0-0.1,0-0.2-0.1-0.3c0-0.1,0-0.2,0-0.3c0-0.1,0-0.2,0-0.3c0-0.3,0-0.6-0.1-0.9c0-0.3-0.1-0.5-0.2-0.8
	c-0.1-0.2-0.3-0.4-0.5-0.5c-0.2-0.1-0.5-0.2-0.9-0.2h-2.9v3.6h-0.8v-8.2H109.5z M109.5,113c0.2,0,0.5,0,0.7-0.1
	c0.2-0.1,0.4-0.2,0.6-0.3c0.2-0.1,0.3-0.3,0.4-0.5c0.1-0.2,0.1-0.4,0.1-0.7c0-0.5-0.1-0.9-0.4-1.2c-0.3-0.3-0.7-0.4-1.3-0.4h-2.9
	v3.2H109.5z"/>
<path class="st1" d="M113.8,115.4c0.1,0.3,0.2,0.5,0.3,0.8c0.2,0.2,0.4,0.4,0.6,0.6c0.2,0.1,0.5,0.2,0.9,0.2c0.5,0,0.9-0.1,1.2-0.4
	c0.3-0.3,0.5-0.6,0.6-1.1h0.7c-0.2,0.7-0.4,1.2-0.8,1.6c-0.4,0.4-1,0.6-1.7,0.6c-0.5,0-0.9-0.1-1.2-0.2c-0.3-0.2-0.6-0.4-0.8-0.7
	c-0.2-0.3-0.4-0.6-0.5-1c-0.1-0.4-0.2-0.8-0.2-1.2c0-0.4,0.1-0.8,0.2-1.1c0.1-0.4,0.3-0.7,0.5-1c0.2-0.3,0.5-0.5,0.8-0.7
	c0.3-0.2,0.7-0.3,1.2-0.3c0.5,0,0.9,0.1,1.2,0.3c0.3,0.2,0.6,0.4,0.8,0.8c0.2,0.3,0.4,0.7,0.5,1.1c0.1,0.4,0.1,0.8,0.1,1.2h-4.5
	C113.7,114.8,113.8,115.1,113.8,115.4z M117.4,113.2c-0.1-0.3-0.2-0.5-0.4-0.7c-0.2-0.2-0.4-0.4-0.6-0.5s-0.5-0.2-0.8-0.2
	c-0.3,0-0.6,0.1-0.8,0.2s-0.4,0.3-0.6,0.5c-0.2,0.2-0.3,0.4-0.4,0.7c-0.1,0.3-0.2,0.5-0.2,0.8h3.8
	C117.5,113.7,117.5,113.4,117.4,113.2z"/>
<path class="st1" d="M122.6,112.6c-0.1-0.2-0.2-0.3-0.3-0.4c-0.1-0.1-0.3-0.2-0.5-0.2c-0.2-0.1-0.4-0.1-0.6-0.1
	c-0.2,0-0.3,0-0.5,0.1c-0.2,0-0.3,0.1-0.5,0.2c-0.1,0.1-0.2,0.2-0.3,0.3c-0.1,0.1-0.1,0.3-0.1,0.5c0,0.2,0,0.3,0.1,0.4
	c0.1,0.1,0.2,0.2,0.3,0.3c0.1,0.1,0.3,0.1,0.4,0.2c0.1,0.1,0.3,0.1,0.4,0.1l1,0.2c0.2,0,0.4,0.1,0.6,0.2c0.2,0.1,0.4,0.2,0.5,0.3
	c0.2,0.1,0.3,0.3,0.4,0.5c0.1,0.2,0.1,0.4,0.1,0.7c0,0.3-0.1,0.6-0.2,0.8c-0.1,0.2-0.3,0.4-0.6,0.6c-0.2,0.1-0.5,0.2-0.8,0.3
	c-0.3,0.1-0.6,0.1-0.8,0.1c-0.7,0-1.3-0.2-1.7-0.5c-0.4-0.3-0.7-0.9-0.7-1.6h0.7c0,0.5,0.2,0.9,0.5,1.1c0.3,0.2,0.7,0.4,1.2,0.4
	c0.2,0,0.4,0,0.5-0.1c0.2,0,0.4-0.1,0.5-0.2c0.2-0.1,0.3-0.2,0.4-0.3c0.1-0.1,0.2-0.3,0.2-0.5c0-0.2,0-0.3-0.1-0.4
	c-0.1-0.1-0.2-0.2-0.3-0.3c-0.1-0.1-0.3-0.1-0.4-0.2c-0.2-0.1-0.3-0.1-0.5-0.1l-0.9-0.2c-0.2-0.1-0.5-0.1-0.7-0.2
	c-0.2-0.1-0.4-0.2-0.5-0.3s-0.3-0.3-0.3-0.4s-0.1-0.4-0.1-0.6c0-0.3,0.1-0.6,0.2-0.8c0.1-0.2,0.3-0.4,0.5-0.5
	c0.2-0.1,0.5-0.2,0.7-0.3c0.3-0.1,0.5-0.1,0.8-0.1c0.3,0,0.6,0,0.8,0.1c0.3,0.1,0.5,0.2,0.7,0.4c0.2,0.2,0.3,0.4,0.5,0.6
	c0.1,0.2,0.2,0.5,0.2,0.8h-0.7C122.7,112.9,122.7,112.7,122.6,112.6z"/>
<path class="st1" d="M128.4,111.5c0.3,0.2,0.6,0.4,0.9,0.7c0.2,0.3,0.4,0.6,0.5,1c0.1,0.4,0.2,0.8,0.2,1.2c0,0.4-0.1,0.8-0.2,1.2
	c-0.1,0.4-0.3,0.7-0.5,1c-0.2,0.3-0.5,0.5-0.9,0.7c-0.3,0.2-0.7,0.2-1.2,0.2c-0.5,0-0.8-0.1-1.2-0.2c-0.3-0.2-0.6-0.4-0.9-0.7
	c-0.2-0.3-0.4-0.6-0.5-1c-0.1-0.4-0.2-0.8-0.2-1.2c0-0.4,0.1-0.8,0.2-1.2c0.1-0.4,0.3-0.7,0.5-1c0.2-0.3,0.5-0.5,0.9-0.7
	c0.3-0.2,0.7-0.3,1.2-0.3C127.7,111.2,128.1,111.3,128.4,111.5z M126.3,112.1c-0.3,0.1-0.5,0.3-0.6,0.6c-0.2,0.2-0.3,0.5-0.4,0.8
	s-0.1,0.6-0.1,0.9c0,0.3,0,0.6,0.1,0.9s0.2,0.6,0.4,0.8c0.2,0.2,0.4,0.4,0.6,0.6c0.3,0.1,0.6,0.2,0.9,0.2s0.6-0.1,0.9-0.2
	c0.3-0.1,0.5-0.3,0.6-0.6c0.2-0.2,0.3-0.5,0.4-0.8c0.1-0.3,0.1-0.6,0.1-0.9c0-0.3,0-0.6-0.1-0.9c-0.1-0.3-0.2-0.6-0.4-0.8
	c-0.2-0.2-0.4-0.4-0.6-0.6c-0.3-0.1-0.6-0.2-0.9-0.2S126.6,111.9,126.3,112.1z"/>
<path class="st1" d="M135.2,117.3v-1.1h0c-0.2,0.4-0.5,0.7-0.8,0.9c-0.4,0.2-0.8,0.3-1.2,0.3c-0.4,0-0.7-0.1-1-0.2
	c-0.3-0.1-0.5-0.3-0.6-0.4c-0.2-0.2-0.3-0.4-0.4-0.7c-0.1-0.3-0.1-0.6-0.1-0.9v-3.8h0.7v3.9c0,0.5,0.1,0.9,0.4,1.2
	c0.2,0.3,0.6,0.4,1.2,0.4c0.3,0,0.6-0.1,0.8-0.2c0.2-0.1,0.4-0.3,0.5-0.5c0.1-0.2,0.3-0.5,0.3-0.8c0.1-0.3,0.1-0.6,0.1-0.9v-3.1h0.7
	v5.9H135.2z"/>
<path class="st1" d="M137.9,111.4v1.4h0c0.2-0.5,0.5-0.9,0.9-1.1c0.4-0.3,0.8-0.4,1.4-0.4v0.7c-0.3,0-0.6,0-0.9,0.1
	s-0.5,0.3-0.7,0.4c-0.2,0.2-0.3,0.4-0.5,0.7c-0.1,0.3-0.2,0.6-0.2,0.9v3.2h-0.7v-5.9H137.9z"/>
<path class="st1" d="M144.2,112.2c-0.3-0.3-0.6-0.4-1.1-0.4c-0.3,0-0.6,0.1-0.9,0.2c-0.3,0.1-0.5,0.3-0.6,0.6
	c-0.2,0.2-0.3,0.5-0.4,0.8c-0.1,0.3-0.1,0.6-0.1,0.9c0,0.3,0,0.6,0.1,0.9c0.1,0.3,0.2,0.6,0.4,0.8c0.2,0.2,0.4,0.4,0.6,0.6
	c0.3,0.1,0.6,0.2,0.9,0.2c0.2,0,0.4,0,0.6-0.1c0.2-0.1,0.4-0.2,0.5-0.4c0.2-0.1,0.3-0.3,0.4-0.5c0.1-0.2,0.2-0.4,0.2-0.7h0.7
	c-0.1,0.7-0.4,1.3-0.8,1.7c-0.4,0.4-1,0.6-1.6,0.6c-0.5,0-0.8-0.1-1.2-0.2s-0.6-0.4-0.9-0.7c-0.2-0.3-0.4-0.6-0.5-1
	c-0.1-0.4-0.2-0.8-0.2-1.2c0-0.4,0.1-0.8,0.2-1.2c0.1-0.4,0.3-0.7,0.5-1c0.2-0.3,0.5-0.5,0.9-0.7s0.7-0.3,1.2-0.3
	c0.6,0,1.2,0.2,1.6,0.5c0.4,0.3,0.7,0.8,0.8,1.5h-0.7C144.7,112.8,144.5,112.5,144.2,112.2z"/>
<path class="st1" d="M147.1,115.4c0.1,0.3,0.2,0.5,0.3,0.8c0.2,0.2,0.4,0.4,0.6,0.6c0.2,0.1,0.5,0.2,0.9,0.2c0.5,0,0.9-0.1,1.2-0.4
	c0.3-0.3,0.5-0.6,0.6-1.1h0.7c-0.2,0.7-0.4,1.2-0.8,1.6c-0.4,0.4-1,0.6-1.7,0.6c-0.5,0-0.9-0.1-1.2-0.2c-0.3-0.2-0.6-0.4-0.8-0.7
	c-0.2-0.3-0.4-0.6-0.5-1c-0.1-0.4-0.2-0.8-0.2-1.2c0-0.4,0.1-0.8,0.2-1.1c0.1-0.4,0.3-0.7,0.5-1c0.2-0.3,0.5-0.5,0.8-0.7
	c0.3-0.2,0.7-0.3,1.2-0.3c0.5,0,0.9,0.1,1.2,0.3c0.3,0.2,0.6,0.4,0.8,0.8c0.2,0.3,0.4,0.7,0.5,1.1c0.1,0.4,0.1,0.8,0.1,1.2H147
	C147,114.8,147,115.1,147.1,115.4z M150.6,113.2c-0.1-0.3-0.2-0.5-0.4-0.7c-0.2-0.2-0.4-0.4-0.6-0.5s-0.5-0.2-0.8-0.2
	c-0.3,0-0.6,0.1-0.8,0.2s-0.4,0.3-0.6,0.5c-0.2,0.2-0.3,0.4-0.4,0.7c-0.1,0.3-0.2,0.5-0.2,0.8h3.8
	C150.8,113.7,150.7,113.4,150.6,113.2z"/>
<path class="st2" d="M55.8,16.5c0.2,0.1,0.3,0,0.5,0.1c0.6,0,1,0.4,1,1c0.1,0.6-0.4,1.2-1,1.2c-0.4,0-0.8,0-1.1-0.1
	c-0.5-0.1-0.8-0.5-0.9-0.9c-0.1-0.5,0.2-0.9,0.6-1.1c0.1,0,0.2,0,0.2-0.1C55.3,16.5,55.6,16.5,55.8,16.5z"/>
<path class="st3" d="M85.8,41.8c0.4,0,0.8,0.3,1.1,0.8c0.2,0.4,0.3,0.8,0.4,1.2c0.2,0.7-0.2,1.4-0.9,1.6c-0.7,0.2-1.4-0.1-1.7-0.7
	c-0.2-0.4-0.3-0.8-0.4-1.2C84.2,42.6,84.8,41.8,85.8,41.8z"/>
<path class="st3" d="M83.8,36.5c0.5,0,0.9,0.3,1.2,0.8c0.2,0.3,0.3,0.7,0.4,1c0.2,0.7-0.1,1.5-0.8,1.7c-0.7,0.3-1.4,0-1.7-0.7
	c-0.1-0.3-0.3-0.6-0.4-1C82.2,37.3,82.9,36.5,83.8,36.5z"/>
<path class="st3" d="M89.2,48.2c0,0.6-0.4,1.1-0.9,1.3c-0.5,0.2-1.1,0-1.5-0.5c-0.2-0.4-0.5-0.7-0.6-1.1c-0.3-0.6,0-1.3,0.6-1.7
	c0.6-0.3,1.3-0.1,1.7,0.4c0.2,0.4,0.4,0.8,0.6,1.1C89.2,47.9,89.2,48.1,89.2,48.2z"/>
<path class="st4" d="M82,35.9c-0.3,0-0.7-0.2-0.9-0.6c-0.2-0.3-0.4-0.6-0.5-0.9c-0.3-0.6-0.1-1.4,0.5-1.7c0.6-0.4,1.4-0.2,1.7,0.4
	c0.2,0.3,0.4,0.6,0.5,0.9C83.8,34.8,83.1,35.9,82,35.9z"/>
<path class="st3" d="M89.8,50.1c0.5,0,0.8,0.1,1,0.4c0.3,0.3,0.5,0.6,0.7,0.9c0.3,0.6,0.2,1.3-0.3,1.7c-0.5,0.4-1.2,0.4-1.7-0.1
	c-0.3-0.3-0.5-0.6-0.7-1C88.3,51.2,88.9,50.1,89.8,50.1z"/>
<path class="st5" d="M80.9,30.7c0,0.6-0.3,1-0.8,1.2c-0.5,0.2-1.1,0.1-1.4-0.4c-0.2-0.3-0.5-0.6-0.7-0.9c-0.4-0.5-0.3-1.3,0.2-1.7
	c0.5-0.4,1.3-0.4,1.7,0.1c0.3,0.3,0.5,0.6,0.7,0.9C80.8,30.2,80.9,30.4,80.9,30.7z"/>
<path class="st4" d="M91.5,54.9c0-0.5,0.2-0.9,0.7-1.1c0.4-0.2,0.9-0.2,1.3,0.1c0.4,0.3,0.7,0.6,1,1c0.4,0.5,0.3,1.2-0.1,1.6
	c-0.4,0.4-1.1,0.5-1.6,0.2c-0.4-0.3-0.7-0.6-1-1C91.6,55.4,91.5,55.1,91.5,54.9z"/>
<path class="st6" d="M76.6,28.5c-0.4,0-0.6-0.1-0.9-0.3c-0.2-0.2-0.5-0.5-0.7-0.7c-0.5-0.5-0.5-1.2,0-1.7c0.5-0.5,1.2-0.5,1.7-0.1
	c0.3,0.2,0.5,0.5,0.8,0.7c0.4,0.4,0.4,0.9,0.2,1.4C77.5,28.2,77.1,28.5,76.6,28.5z"/>
<path class="st5" d="M96.3,56.7c0.2,0,0.4,0.1,0.6,0.2c0.3,0.2,0.6,0.4,0.9,0.7c0.5,0.4,0.6,1.1,0.2,1.7c-0.4,0.5-1.1,0.7-1.6,0.3
	c-0.3-0.2-0.6-0.4-0.9-0.7c-0.4-0.3-0.5-0.9-0.3-1.4C95.3,57,95.7,56.7,96.3,56.7z"/>
<path class="st7" d="M74.3,24.2c0,0.5-0.2,0.8-0.6,1.1c-0.4,0.2-0.8,0.2-1.2,0c-0.3-0.2-0.6-0.4-0.9-0.7c-0.5-0.4-0.5-1.1-0.2-1.6
	c0.4-0.5,1-0.7,1.6-0.3c0.3,0.2,0.7,0.4,1,0.7C74.2,23.5,74.3,23.8,74.3,24.2z"/>
<path class="st5" d="M102,61c0,0.8-0.8,1.4-1.6,1.1c-0.4-0.2-0.8-0.4-1.1-0.6c-0.5-0.4-0.6-1-0.3-1.6c0.3-0.5,1-0.7,1.5-0.5
	c0.3,0.2,0.7,0.4,1,0.6C101.8,60.3,102,60.6,102,61z"/>
<path class="st8" d="M69.3,22.9c-0.2,0-0.3,0-0.5-0.1c-0.3-0.2-0.6-0.3-0.8-0.5c-0.4-0.3-0.7-0.7-0.6-1.2c0.1-0.5,0.4-0.9,0.9-1
	c0.2-0.1,0.5,0,0.7,0.1c0.3,0.2,0.6,0.3,0.9,0.5c0.5,0.3,0.7,0.8,0.5,1.3C70.3,22.5,69.8,22.9,69.3,22.9z"/>
<path class="st6" d="M104.3,61.4c0.5,0.1,1,0.3,1.5,0.7c0.4,0.3,0.5,1,0.2,1.4c-0.3,0.5-0.8,0.7-1.3,0.5c-0.4-0.1-0.7-0.3-1.1-0.4
	c-0.5-0.2-0.7-0.8-0.6-1.3C103.1,61.8,103.6,61.4,104.3,61.4z"/>
<path class="st9" d="M64.3,18.3c0.1,0,0.2,0,0.4,0.1c0.3,0.1,0.6,0.2,0.9,0.3c0.5,0.2,0.8,0.7,0.7,1.2c-0.1,0.6-0.5,1-1,1
	c-0.1,0-0.3,0-0.4,0c-0.4-0.1-0.7-0.2-1.1-0.4c-0.4-0.2-0.7-0.6-0.6-1.1c0-0.5,0.3-0.9,0.7-1C64,18.3,64.2,18.3,64.3,18.3z"/>
<path class="st7" d="M111.6,60.2c0,0,0,0.1,0,0.2c-0.1,0.3-0.2,0.7-0.3,1c-0.2,0.6-0.7,0.9-1.3,0.8c-0.5-0.1-0.9-0.6-0.9-1.2
	c0-0.1,0-0.2,0-0.2c0.1-0.3,0.2-0.7,0.3-1c0.2-0.4,0.6-0.7,1.1-0.7c0.5,0,0.9,0.3,1,0.8C111.6,60,111.6,60.1,111.6,60.2z"/>
<path class="st6" d="M60.5,20.7c0,0.2,0,0.3-0.1,0.5c-0.1,0.3-0.3,0.5-0.4,0.8c-0.3,0.6-1,0.8-1.5,0.5C58,22.2,57.7,21.6,58,21
	c0.1-0.3,0.3-0.6,0.4-0.9c0.2-0.5,0.8-0.7,1.3-0.6C60.2,19.7,60.6,20.1,60.5,20.7z"/>
<path class="st10" d="M58.8,18.2c0-0.7,0.6-1.2,1.3-1.1c0.3,0.1,0.6,0.1,0.9,0.2c0.6,0.1,1,0.7,0.8,1.3c-0.1,0.6-0.7,1-1.3,0.8
	c-0.3-0.1-0.6-0.1-0.9-0.2C59.1,19.1,58.8,18.7,58.8,18.2z"/>
<path class="st7" d="M113.7,66c-0.2,0-0.5,0-0.8-0.1c-0.5-0.1-0.9-0.5-1-1c-0.1-0.5,0.2-1,0.7-1.1c0.1-0.1,0.3-0.1,0.4-0.1
	c0.4,0,0.7,0,1.1,0.1c0.5,0.1,0.9,0.5,0.9,1c0,0.5-0.3,1-0.8,1.1C114.1,66.1,113.9,66,113.7,66z"/>
<path class="st6" d="M99.4,48.9c0.6,0,1.1,0.6,1,1.2c0,0.3-0.1,0.7-0.2,1c-0.1,0.5-0.6,0.9-1.1,0.9c-0.5,0-1-0.4-1.1-0.9
	c0-0.1,0-0.2,0-0.4c0.1-0.3,0.2-0.7,0.3-1C98.5,49.2,98.9,48.9,99.4,48.9z"/>
<path class="st6" d="M70.6,31c0,0.2,0,0.3-0.1,0.5c-0.1,0.2-0.1,0.5-0.2,0.7c-0.2,0.6-0.7,0.9-1.2,0.8c-0.6-0.1-0.9-0.6-0.8-1.2
	c0.1-0.3,0.1-0.7,0.2-1c0.1-0.5,0.6-0.9,1.2-0.8C70.2,30,70.6,30.4,70.6,31z"/>
<path class="st8" d="M118,63.9c0.1,0,0.3,0,0.4,0c0.6,0,1,0.4,1,1c0,0.5-0.4,1-0.9,1.1c-0.3,0-0.7,0.1-1,0.1c-0.6,0-1.1-0.4-1.1-1
	c0-0.7,0.5-1.1,1-1.1C117.7,64,117.9,63.9,118,63.9z"/>
<path class="st8" d="M121.1,64.6c0-0.4,0.3-0.8,0.6-0.9c0.1-0.1,0.2-0.1,0.3-0.2c0.3-0.3,0.8-0.4,1.2-0.1c0.1,0.1,0.2,0.1,0.3,0.2
	c0.4,0.2,0.6,0.6,0.5,1c-0.1,0.4-0.3,0.7-0.8,0.8c-0.4,0.1-0.7,0.2-1.1,0.2C121.6,65.7,121.1,65.2,121.1,64.6z"/>
<path class="st11" d="M51.1,18.7c-0.1,0-0.3,0-0.4,0c-0.6,0-1-0.5-1-1c0-0.5,0.4-1,0.9-1.1c0.3,0,0.7,0,1-0.1c0.5,0,1,0.3,1.1,1
	c0,0.5-0.4,1-0.9,1.1C51.6,18.7,51.3,18.7,51.1,18.7C51.1,18.7,51.1,18.7,51.1,18.7z"/>
<path class="st6" d="M110.5,64.3c0,0.7-0.6,1.2-1.3,1.1c-0.3,0-0.6-0.1-0.9-0.2c-0.3-0.1-0.7-0.7-0.7-1.1c0-0.6,0.4-1.1,1.1-1.1
	c0.4,0.1,0.8,0.1,1.2,0.4C110.3,63.6,110.5,63.9,110.5,64.3z"/>
<path class="st10" d="M57.5,23.8c0.7,0,1.2,0.7,1,1.3c-0.1,0.3-0.3,0.7-0.4,1c-0.2,0.5-0.8,0.7-1.2,0.5c-0.5-0.2-0.7-0.7-0.6-1.2
	c0.1-0.3,0.2-0.7,0.4-1C56.7,24,57.1,23.8,57.5,23.8z"/>
<path class="st6" d="M112.7,55.8c-0.1,0.4-0.1,0.8-0.3,1.3c-0.2,0.5-0.8,0.7-1.2,0.5c-0.5-0.2-0.8-0.7-0.7-1.2
	c0.1-0.3,0.2-0.7,0.3-1c0.2-0.5,0.6-0.7,1.1-0.6C112.4,54.8,112.7,55.2,112.7,55.8z"/>
<path class="st11" d="M47.1,17.1c0.6,0,1,0.4,1.1,0.9c0.1,0.5-0.2,1-0.7,1.1c-0.4,0.1-0.8,0.2-1.1,0.2c-0.5,0.1-0.9-0.3-1-0.8
	c-0.1-0.5,0.1-1,0.6-1.2C46.2,17.2,46.7,17.1,47.1,17.1z"/>
<path class="st8" d="M125.6,63.5c0-0.3,0.2-0.7,0.6-0.8c0.4-0.1,0.7-0.3,1.1-0.3c0.5-0.1,0.9,0.2,1.1,0.6c0.2,0.5,0,1-0.4,1.2
	c-0.4,0.2-0.8,0.3-1.3,0.4C126.1,64.7,125.6,64.2,125.6,63.5z"/>
<path class="st12" d="M40.8,19.4c0-0.3,0.2-0.6,0.6-0.8c0.3-0.1,0.7-0.3,1-0.3c0.5-0.1,1,0.1,1.2,0.6c0.2,0.5-0.1,1-0.6,1.2
	c-0.3,0.1-0.6,0.2-0.9,0.3C41.4,20.6,40.8,20.1,40.8,19.4z"/>
<path class="st9" d="M130.9,62.9c-0.4,0-0.8-0.3-0.9-0.7c-0.1-0.4,0-0.8,0.4-1.1c0.3-0.2,0.7-0.4,1.1-0.5c0.4-0.2,0.9,0,1.1,0.5
	c0.2,0.4,0.1,0.9-0.3,1.2c-0.3,0.2-0.7,0.4-1.1,0.6C131,62.9,130.9,62.9,130.9,62.9z"/>
<path class="st13" d="M38.4,20c0.4,0,0.8,0.3,0.9,0.7c0.1,0.4,0,0.8-0.4,1c-0.3,0.2-0.7,0.4-1,0.5c-0.4,0.2-0.9,0-1.1-0.4
	c-0.2-0.4-0.1-0.9,0.3-1.2c0.3-0.2,0.7-0.4,1-0.5C38.2,20,38.3,20,38.4,20z"/>
<path class="st6" d="M67.7,36.3c0-0.3,0-0.6,0.1-0.9c0.1-0.4,0.4-0.8,0.8-0.8c0.4-0.1,0.8,0.2,1,0.5c0.1,0.1,0.1,0.3,0.1,0.4
	c-0.1,0.4-0.1,0.7-0.2,1.1c-0.1,0.6-0.8,0.8-1.3,0.5C67.7,37,67.6,36.7,67.7,36.3z"/>
<path class="st9" d="M136.5,59.1c0,0.2-0.1,0.5-0.3,0.7c-0.3,0.2-0.5,0.4-0.8,0.6c-0.4,0.3-0.9,0.2-1.2-0.2
	c-0.3-0.4-0.2-0.9,0.2-1.2c0.3-0.2,0.6-0.4,0.9-0.6C135.7,58,136.5,58.4,136.5,59.1z"/>
<path class="st6" d="M101,45.5c0,0.3-0.1,0.7-0.1,1c-0.1,0.5-0.5,0.8-1,0.7c-0.4,0-0.8-0.4-0.8-0.9c0-0.4,0.1-0.8,0.2-1.3
	c0.1-0.4,0.6-0.6,1-0.6C100.7,44.6,101,45,101,45.5z"/>
<path class="st11" d="M54.9,30.1c0,0,0-0.1,0-0.1c0.1-0.3,0.2-0.6,0.2-1c0.2-0.5,0.6-0.8,1.1-0.6c0.5,0.1,0.8,0.6,0.6,1.1
	c-0.1,0.3-0.2,0.6-0.3,1c-0.2,0.4-0.6,0.6-1,0.5C55.2,30.9,54.9,30.5,54.9,30.1z"/>
<path class="st14" d="M34.5,22.4c0.4,0,0.7,0.2,0.8,0.5c0.1,0.3,0.1,0.7-0.2,1c-0.3,0.3-0.6,0.5-0.9,0.7c-0.4,0.2-0.9,0.1-1.1-0.2
	c-0.3-0.4-0.2-0.9,0.1-1.2c0.3-0.3,0.6-0.5,0.9-0.7C34.2,22.4,34.3,22.4,34.5,22.4z"/>
<path class="st5" d="M113.6,51.3c0,0.3-0.1,0.7-0.2,1.1c-0.1,0.5-0.6,0.7-1.1,0.6c-0.4-0.1-0.8-0.6-0.7-1c0.1-0.3,0.1-0.7,0.2-1
	c0.1-0.5,0.5-0.7,1-0.7C113.3,50.4,113.6,50.8,113.6,51.3z"/>
<path class="st10" d="M139.8,55.9c0,0.2-0.1,0.4-0.2,0.6c-0.2,0.3-0.4,0.5-0.7,0.8c-0.3,0.3-0.9,0.3-1.2,0c-0.3-0.3-0.4-0.8-0.1-1.2
	c0.2-0.3,0.5-0.5,0.7-0.8c0.3-0.2,0.6-0.3,0.9-0.1C139.6,55.3,139.8,55.6,139.8,55.9z"/>
<path class="st15" d="M31.9,26.4c0,0.2-0.1,0.4-0.2,0.5c-0.2,0.2-0.4,0.4-0.6,0.7c-0.3,0.4-0.8,0.4-1.2,0.1
	c-0.4-0.3-0.4-0.8-0.1-1.2c0.2-0.2,0.4-0.5,0.6-0.7c0.2-0.3,0.6-0.3,0.9-0.2C31.7,25.7,31.9,26,31.9,26.4z"/>
<path class="st6" d="M123.9,61.4c-0.5,0-1-0.5-0.8-1c0.1-0.3,0.2-0.7,0.3-1c0.2-0.4,0.6-0.6,1-0.5c0.4,0.1,0.7,0.5,0.6,1
	c-0.1,0.3-0.2,0.6-0.3,0.9C124.6,61.2,124.3,61.4,123.9,61.4z"/>
<path class="st10" d="M141.2,53.9c-0.6,0-1-0.6-0.8-1.1c0.2-0.4,0.4-0.8,0.7-1.1c0.2-0.3,0.7-0.3,1-0.1c0.3,0.2,0.5,0.6,0.3,1
	c-0.2,0.4-0.4,0.7-0.6,1.1C141.6,53.8,141.4,53.9,141.2,53.9z"/>
<path class="st15" d="M45.2,24.7c0,0,0,0.1,0,0.2c-0.1,0.3-0.2,0.7-0.3,1c-0.1,0.4-0.5,0.5-0.9,0.5c-0.4-0.1-0.6-0.3-0.7-0.7
	c0-0.1,0-0.2,0-0.3c0.1-0.3,0.2-0.7,0.3-1c0.1-0.3,0.4-0.5,0.8-0.5c0.3,0,0.6,0.2,0.8,0.5C45.1,24.5,45.1,24.6,45.2,24.7z"/>
<path class="st7" d="M71.1,25.3c-0.7-0.3-1.4,0.2-1.6,0.8c-0.1,0.3-0.2,0.6-0.3,0.9c-0.1,0.5,0,0.9,0.3,1.3c0.1,0.1,0.3,0.3,0.5,0.3
	c0.5,0.2,1.2,0,1.5-0.6c0.2-0.4,0.3-0.7,0.4-1.1C72.2,26.2,71.7,25.5,71.1,25.3z"/>
<path class="st7" d="M136.5,55.1c0,0,0,0.1,0,0.1c-0.1,0.3-0.2,0.7-0.3,1c-0.1,0.4-0.5,0.6-0.8,0.6c-0.4,0-0.7-0.3-0.8-0.7
	c0-0.1,0-0.2,0-0.3c0.1-0.3,0.2-0.7,0.3-1c0.1-0.3,0.5-0.6,0.8-0.5c0.4,0,0.7,0.3,0.7,0.7C136.5,55,136.5,55.1,136.5,55.1z"/>
<path class="st16" d="M27.9,31.6c-0.6,0-1-0.6-0.7-1.1c0.2-0.3,0.3-0.7,0.5-1c0.2-0.3,0.7-0.4,1.1-0.2c0.4,0.2,0.5,0.7,0.3,1
	c-0.2,0.3-0.4,0.6-0.6,1C28.4,31.5,28.1,31.6,27.9,31.6z"/>
<path class="st13" d="M45.8,22.1c-0.8,0-1.2-0.6-1-1.2c0.1-0.2,0.1-0.4,0.2-0.5c0.2-0.4,0.7-0.6,1.2-0.4c0.4,0.2,0.6,0.7,0.5,1.1
	c-0.1,0.2-0.2,0.4-0.3,0.6C46.2,22,46,22.1,45.8,22.1z"/>
<path class="st4" d="M98.3,53.2c0,0.4-0.1,0.7-0.2,1c-0.2,0.7-0.3,1.4-0.5,2c0,0.1,0,0.2,0,0.3c0.6,0.2,1.3-0.2,1.5-0.8
	c0.1-0.3,0.2-0.7,0.3-1C99.6,54,99.1,53.3,98.3,53.2z"/>
<path class="st7" d="M98.1,54.2c0.1-0.3,0.2-0.7,0.2-1c-0.5-0.1-1,0.2-1.2,0.7c-0.1,0.3-0.3,0.7-0.4,1.1c-0.2,0.7,0.2,1.4,0.9,1.6
	c0-0.1,0-0.2,0-0.3C97.8,55.6,98,54.9,98.1,54.2z"/>
<path class="st13" d="M55.7,33.8c-0.1,0.3-0.1,0.8-0.2,1.1c-0.1,0.3-0.5,0.5-0.8,0.5C54.3,35.3,54,35,54,34.6c0-0.4,0.1-0.7,0.2-1.1
	c0.1-0.4,0.5-0.6,0.9-0.6C55.4,33,55.7,33.3,55.7,33.8z"/>
<path class="st16" d="M26.4,33.5c0.5,0,0.9,0.5,0.8,1c-0.1,0.3-0.2,0.7-0.3,1c-0.1,0.4-0.6,0.6-0.9,0.4c-0.4-0.1-0.6-0.5-0.5-0.9
	c0.1-0.3,0.2-0.6,0.3-1C25.8,33.6,26.1,33.5,26.4,33.5z"/>
<path class="st13" d="M34.8,26.1c-0.1,0.4-0.3,0.9-0.5,1.3c-0.2,0.3-0.6,0.3-0.9,0.2c-0.3-0.1-0.5-0.5-0.4-0.8
	c0.1-0.4,0.2-0.8,0.4-1.2c0.2-0.3,0.5-0.5,0.9-0.4C34.6,25.4,34.8,25.7,34.8,26.1z"/>
<path class="st6" d="M114.1,46.7c0,0.3-0.1,0.7-0.1,1c-0.1,0.4-0.5,0.7-0.9,0.6c-0.4-0.1-0.7-0.4-0.7-0.9c0-0.3,0.1-0.6,0.1-0.9
	c0.1-0.4,0.4-0.7,0.8-0.6C113.9,45.9,114.2,46.3,114.1,46.7z"/>
<path class="st2" d="M145.2,43.7c0,0.2-0.1,0.6-0.1,0.9c-0.1,0.4-0.4,0.6-0.8,0.6c-0.4,0-0.7-0.4-0.7-0.8c0-0.3,0.1-0.7,0.1-1
	c0.1-0.5,0.4-0.7,0.8-0.6C144.9,42.8,145.2,43.1,145.2,43.7z"/>
<path class="st5" d="M126,55.2c-0.1,0.4-0.1,0.8-0.2,1.1c-0.1,0.4-0.5,0.6-0.9,0.5c-0.4-0.1-0.6-0.4-0.6-0.8c0.1-0.3,0.1-0.7,0.2-1
	c0.1-0.4,0.4-0.6,0.8-0.5C125.7,54.5,126,54.8,126,55.2z"/>
<path class="st8" d="M101.3,41.3c0,0.2,0,0.4,0,0.5c0,0.4-0.4,0.7-0.8,0.7c-0.4,0-0.7-0.4-0.7-0.8c0-0.3,0.1-0.7,0.1-1
	c0.1-0.4,0.4-0.6,0.7-0.6c0.4,0,0.7,0.3,0.7,0.7C101.3,40.9,101.3,41.1,101.3,41.3C101.3,41.3,101.3,41.3,101.3,41.3z"/>
<path class="st16" d="M26.1,38.8c0,0.3-0.1,0.6-0.1,0.9c-0.1,0.4-0.3,0.6-0.6,0.6c-0.3,0-0.7-0.2-0.8-0.5c0-0.1-0.1-0.2,0-0.3
	c0.1-0.2,0.1-0.5,0.1-0.7c0-0.1,0-0.2,0-0.2c0.1-0.4,0.4-0.6,0.8-0.6c0.4,0,0.7,0.3,0.7,0.8C26.1,38.8,26.1,38.8,26.1,38.8z"/>
<path class="st7" d="M68.9,40.3c0,0.3-0.1,0.6-0.1,0.9c-0.1,0.4-0.4,0.6-0.7,0.6c-0.3,0-0.6-0.3-0.7-0.6c0-0.4,0-0.8,0-1.1
	c0-0.4,0.4-0.7,0.8-0.6C68.6,39.5,68.9,39.8,68.9,40.3z"/>
<path class="st15" d="M43.8,29.1c-0.1,0.4-0.1,0.8-0.3,1.2c-0.1,0.3-0.5,0.5-0.8,0.4c-0.3-0.1-0.6-0.3-0.5-0.7
	c0-0.4,0.1-0.8,0.2-1.2c0.1-0.3,0.5-0.5,0.8-0.5C43.6,28.4,43.8,28.8,43.8,29.1z"/>
<path class="st10" d="M142.4,48.9c0-0.1,0-0.2,0.1-0.3c0.1-0.2,0.1-0.3,0.2-0.5c0.1-0.3,0.4-0.5,0.7-0.5c0.3,0,0.6,0.2,0.7,0.5
	c0.1,0.2,0.1,0.3,0,0.5c-0.1,0.2-0.2,0.5-0.3,0.7c-0.1,0.3-0.4,0.5-0.8,0.5c-0.3,0-0.6-0.2-0.7-0.6C142.4,49.1,142.4,49,142.4,48.9z
	"/>
<path class="st2" d="M145.2,39.6c0,0.1,0,0.1,0,0.2c0,0.5-0.3,0.7-0.6,0.7c-0.4,0-0.7-0.2-0.7-0.6c0-0.2,0-0.3,0-0.5
	c0-0.2,0-0.3,0-0.5c0-0.4,0.3-0.7,0.6-0.7c0.4,0,0.7,0.2,0.8,0.6C145.1,39.1,145.2,39.3,145.2,39.6z"/>
<path class="st16" d="M26.1,44.2c0,0.4-0.3,0.7-0.6,0.8c-0.4,0-0.7-0.2-0.7-0.6c0-0.3-0.1-0.6-0.1-0.9c0-0.4,0.2-0.7,0.6-0.8
	c0.4-0.1,0.7,0.2,0.8,0.6C26.1,43.5,26.1,43.9,26.1,44.2z"/>
<path class="st6" d="M137.5,50.7c-0.1,0.3-0.1,0.6-0.2,1c-0.1,0.3-0.4,0.5-0.8,0.5c-0.3-0.1-0.6-0.4-0.6-0.7c0-0.4,0.1-0.8,0.3-1.1
	c0.1-0.3,0.5-0.5,0.8-0.4C137.3,50,137.5,50.3,137.5,50.7z"/>
<path class="st2" d="M142.8,34.5c0-0.4,0.2-0.6,0.5-0.7c0.3-0.1,0.6,0,0.8,0.3c0.2,0.4,0.3,0.7,0.4,1.1c0.1,0.3-0.1,0.6-0.4,0.7
	c-0.3,0.1-0.6,0-0.8-0.3C143,35.3,142.9,34.8,142.8,34.5z"/>
<path class="st15" d="M33.3,30.5c0,0.1,0,0.1,0,0.2c-0.1,0.3-0.1,0.5-0.2,0.8c-0.1,0.4-0.4,0.6-0.8,0.5c-0.3-0.1-0.5-0.4-0.5-0.8
	c0.1-0.3,0.1-0.6,0.2-0.9c0.1-0.3,0.4-0.5,0.7-0.4C33.1,29.8,33.3,30.1,33.3,30.5z"/>
<path class="st16" d="M26.5,49.4c-0.2,0-0.5-0.1-0.6-0.4c-0.1-0.3-0.2-0.6-0.3-1c-0.1-0.3,0.1-0.7,0.4-0.8c0.3-0.1,0.7,0,0.8,0.3
	c0.1,0.3,0.3,0.7,0.3,1C27.3,49,27,49.4,26.5,49.4z"/>
<path class="st5" d="M126.6,50.8c0,0.3-0.1,0.6-0.1,0.9c-0.1,0.4-0.4,0.6-0.7,0.5c-0.4-0.1-0.6-0.4-0.6-0.7c0-0.3,0.1-0.6,0.1-0.9
	c0.1-0.4,0.3-0.6,0.7-0.6C126.4,50,126.6,50.3,126.6,50.8z"/>
<path class="st14" d="M53.7,38.8c0-0.2,0-0.3,0-0.5c0-0.4,0.3-0.7,0.7-0.6c0.4,0,0.6,0.3,0.6,0.7c0,0.3-0.1,0.6-0.1,1
	c-0.1,0.4-0.3,0.6-0.7,0.6c-0.3,0-0.6-0.3-0.6-0.6C53.6,39.1,53.6,38.9,53.7,38.8C53.7,38.8,53.7,38.8,53.7,38.8z"/>
<path class="st11" d="M141.5,29.6c0.2,0,0.4,0.1,0.5,0.3c0.2,0.3,0.4,0.6,0.5,0.9c0.1,0.3,0,0.7-0.3,0.8c-0.3,0.2-0.6,0.1-0.8-0.2
	c-0.2-0.3-0.4-0.6-0.5-0.9C140.8,30,141.1,29.6,141.5,29.6z"/>
<path class="st7" d="M114.4,42.4c0,0.2,0,0.4,0,0.6c0,0.4-0.3,0.6-0.7,0.6c-0.4,0-0.6-0.3-0.6-0.7c0-0.3,0.1-0.6,0.1-0.9
	c0-0.3,0.3-0.6,0.6-0.5c0.3,0,0.6,0.3,0.6,0.6C114.4,42.2,114.4,42.3,114.4,42.4z"/>
<path class="st15" d="M43,33.7c0,0.4-0.1,0.7-0.1,1c-0.1,0.4-0.3,0.6-0.7,0.5c-0.3,0-0.6-0.3-0.5-0.7c0-0.3,0-0.6,0.1-0.8
	c0-0.4,0.3-0.7,0.7-0.6C42.8,33.1,43.1,33.4,43,33.7z"/>
<path class="st16" d="M28.1,51.5c0.2,0,0.4,0.1,0.5,0.3c0.2,0.3,0.3,0.6,0.5,0.9c0.2,0.3,0.1,0.6-0.2,0.8c-0.3,0.2-0.6,0.1-0.8-0.2
	c-0.2-0.3-0.4-0.6-0.5-0.8C27.3,52,27.6,51.5,28.1,51.5z"/>
<path class="st11" d="M140,27.2c0,0.2-0.1,0.4-0.3,0.5c-0.2,0.1-0.4,0.1-0.6-0.1c-0.3-0.3-0.5-0.6-0.8-0.9c-0.2-0.2-0.1-0.5,0.1-0.7
	c0.2-0.2,0.5-0.2,0.7,0c0.3,0.3,0.5,0.6,0.8,0.9C140,27,140,27.1,140,27.2z"/>
<path class="st15" d="M30.8,55.3c0.1,0,0.2,0,0.4,0.2c0.2,0.2,0.4,0.5,0.6,0.7c0.2,0.3,0.2,0.6,0,0.8c-0.2,0.2-0.6,0.2-0.8,0
	c-0.2-0.2-0.4-0.5-0.7-0.7c-0.2-0.2-0.2-0.4-0.1-0.6C30.3,55.4,30.5,55.3,30.8,55.3z"/>
<path class="st6" d="M138.1,46.3c0,0.2,0,0.5-0.1,0.7c0,0.4-0.3,0.6-0.6,0.6c-0.3,0-0.6-0.3-0.5-0.7c0-0.3,0.1-0.6,0.1-0.8
	c0.1-0.4,0.3-0.5,0.6-0.5c0.3,0,0.5,0.3,0.4,0.7C138.1,46.2,138.1,46.2,138.1,46.3C138.1,46.3,138.1,46.3,138.1,46.3z"/>
<path class="st6" d="M126.9,46.4c0,0.2,0,0.4,0,0.6c0,0.3-0.3,0.5-0.6,0.5c-0.3,0-0.5-0.3-0.5-0.6c0-0.3,0-0.7,0.1-1
	c0-0.3,0.3-0.5,0.6-0.5c0.3,0,0.5,0.3,0.5,0.6C126.9,46.2,126.9,46.3,126.9,46.4C126.9,46.4,126.9,46.4,126.9,46.4z"/>
<path class="st9" d="M101.3,36.7c0,0.1,0,0.2,0,0.4c0,0.3-0.2,0.6-0.6,0.6c-0.3,0-0.6-0.2-0.6-0.5c0-0.3,0-0.7,0-1
	c0-0.3,0.3-0.5,0.5-0.5c0.3,0,0.5,0.2,0.5,0.5C101.3,36.3,101.3,36.5,101.3,36.7z"/>
<path class="st9" d="M67.4,45.2c0-0.1,0-0.3,0-0.4c0-0.4,0.2-0.6,0.6-0.6c0.3,0,0.6,0.3,0.6,0.6c0,0.3,0,0.6,0,0.9
	c0,0.3-0.2,0.5-0.6,0.5c-0.3,0-0.5-0.2-0.5-0.5C67.4,45.5,67.4,45.4,67.4,45.2C67.4,45.2,67.4,45.2,67.4,45.2z"/>
<path class="st11" d="M135.4,22.9c0.1,0,0.1,0,0.2,0.1c0.3,0.2,0.6,0.4,0.9,0.7c0.2,0.1,0.2,0.3,0.1,0.5c-0.1,0.2-0.2,0.3-0.4,0.4
	c-0.1,0-0.3,0-0.4-0.1c-0.3-0.2-0.6-0.4-0.8-0.7c-0.2-0.2-0.2-0.4-0.1-0.6C135,23,135.2,22.9,135.4,22.9z"/>
<path class="st15" d="M31.1,35.9c0-0.4,0.1-0.7,0.1-1c0.1-0.3,0.3-0.6,0.6-0.5c0.3,0.1,0.5,0.3,0.5,0.7c0,0.3-0.1,0.5-0.1,0.8
	c-0.1,0.4-0.3,0.6-0.6,0.5C31.3,36.4,31,36.2,31.1,35.9z"/>
<path class="st14" d="M34.1,58.4c0.1,0,0.2,0,0.3,0.1c0.3,0.2,0.6,0.4,0.9,0.7c0.2,0.2,0.2,0.5,0.1,0.7c-0.2,0.2-0.5,0.3-0.7,0.2
	c-0.3-0.2-0.6-0.4-0.8-0.6c-0.3-0.2-0.2-0.6,0-0.8C33.9,58.5,34,58.4,34.1,58.4z"/>
<path class="st14" d="M54.7,43.4c0,0.2,0,0.3,0,0.5c0,0.3-0.2,0.5-0.5,0.5c-0.3,0-0.5-0.2-0.5-0.5c0-0.3,0-0.6,0-0.9
	c0-0.3,0.2-0.5,0.5-0.6c0.3,0,0.6,0.2,0.6,0.5C54.7,43.1,54.7,43.2,54.7,43.4C54.7,43.4,54.7,43.4,54.7,43.4z"/>
<path class="st14" d="M42.6,38.7c0,0.2,0,0.3,0,0.5c0,0.3-0.2,0.5-0.5,0.5c-0.3,0-0.5-0.2-0.5-0.5c0-0.3,0-0.6,0-0.9
	c0-0.3,0.2-0.6,0.5-0.5c0.3,0,0.5,0.2,0.5,0.6C42.6,38.5,42.6,38.6,42.6,38.7C42.6,38.7,42.6,38.7,42.6,38.7z"/>
<path class="st11" d="M131.5,20.5c0,0,0.1,0,0.1,0c0.3,0.2,0.7,0.3,1,0.5c0.2,0.1,0.2,0.3,0.2,0.5c0,0.2-0.2,0.3-0.4,0.4
	c-0.1,0-0.2,0-0.3,0c-0.3-0.1-0.7-0.3-1-0.5c-0.2-0.1-0.2-0.4-0.2-0.6C131.1,20.6,131.3,20.5,131.5,20.5z"/>
<path class="st13" d="M39.3,61.9c0,0.3-0.3,0.6-0.6,0.5c-0.3-0.1-0.6-0.3-1-0.5c-0.2-0.1-0.3-0.4-0.2-0.6c0.1-0.2,0.4-0.4,0.6-0.3
	c0.3,0.1,0.7,0.3,1,0.5C39.2,61.6,39.3,61.7,39.3,61.9z"/>
<path class="st8" d="M113.4,37.9c0-0.2,0-0.3,0-0.5c0-0.3,0.2-0.5,0.5-0.5c0.3,0,0.5,0.2,0.5,0.5c0,0.3,0,0.6,0,0.9
	c0,0.2-0.2,0.4-0.4,0.5c-0.2,0-0.4,0-0.5-0.2c-0.1-0.1-0.1-0.2-0.1-0.3C113.4,38.2,113.4,38,113.4,37.9
	C113.4,37.9,113.4,37.9,113.4,37.9z"/>
<path class="st12" d="M127.4,18.8c0.3,0.1,0.7,0.2,1,0.4c0.2,0.1,0.3,0.3,0.2,0.6c-0.1,0.2-0.3,0.3-0.5,0.3c0,0-0.1,0-0.1,0
	c-0.3-0.1-0.6-0.2-0.9-0.3c-0.2-0.1-0.3-0.3-0.3-0.5C126.9,18.9,127.1,18.8,127.4,18.8z"/>
<path class="st7" d="M127,41.9c0,0.2,0,0.3,0,0.5c0,0.3-0.2,0.5-0.5,0.5c-0.3,0-0.4-0.2-0.4-0.5c0-0.3,0-0.6,0-0.9
	c0-0.3,0.2-0.5,0.5-0.5c0.3,0,0.4,0.2,0.5,0.4C127,41.6,127,41.7,127,41.9C127,41.9,127,41.9,127,41.9z"/>
<path class="st12" d="M43.5,63.5c0,0.3-0.2,0.6-0.5,0.5c-0.3-0.1-0.7-0.2-1-0.3c-0.2-0.1-0.3-0.3-0.2-0.5c0.1-0.2,0.2-0.3,0.4-0.3
	c0.1,0,0.1,0,0.2,0c0.3,0.1,0.5,0.2,0.8,0.3C43.4,63.2,43.5,63.3,43.5,63.5z"/>
<path class="st14" d="M31.8,40.1c0,0.2,0,0.3,0,0.5c0,0.3-0.2,0.4-0.4,0.4c-0.2,0-0.4-0.2-0.4-0.4c0-0.3,0-0.6,0-0.9
	c0-0.3,0.2-0.5,0.4-0.5c0.3,0,0.4,0.2,0.4,0.5C31.8,39.8,31.8,39.9,31.8,40.1C31.8,40.1,31.8,40.1,31.8,40.1z"/>
<path class="st12" d="M122.9,17.7c0.3,0,0.6,0.1,1,0.2c0.2,0.1,0.4,0.3,0.3,0.5c0,0.2-0.2,0.4-0.5,0.3c-0.3,0-0.6-0.1-1-0.2
	c-0.2-0.1-0.3-0.3-0.3-0.5C122.5,17.8,122.6,17.7,122.9,17.7z"/>
<path class="st7" d="M138.3,41.9c0,0.1,0,0.3,0,0.4c0,0.3-0.2,0.5-0.5,0.4c-0.2,0-0.4-0.2-0.4-0.5c0-0.3,0-0.6,0-0.9
	c0-0.3,0.2-0.4,0.4-0.4c0.2,0,0.4,0.2,0.4,0.4C138.3,41.6,138.3,41.7,138.3,41.9C138.3,41.9,138.3,41.9,138.3,41.9z"/>
<path class="st12" d="M47.4,65c-0.3,0-0.6-0.1-0.9-0.2c-0.2-0.1-0.3-0.3-0.3-0.5c0-0.2,0.2-0.4,0.4-0.3c0.3,0,0.7,0.1,1,0.2
	c0.2,0,0.3,0.3,0.3,0.5C47.9,64.9,47.7,65,47.4,65z"/>
<path class="st13" d="M42.7,43.4c0,0.1,0,0.3,0,0.4c0,0.3-0.1,0.4-0.4,0.5c-0.2,0-0.4-0.1-0.4-0.4c0-0.3-0.1-0.6-0.1-0.9
	c0-0.3,0.1-0.5,0.4-0.5c0.2,0,0.4,0.2,0.5,0.4C42.7,43.1,42.7,43.2,42.7,43.4C42.7,43.4,42.7,43.4,42.7,43.4z"/>
<path class="st14" d="M54.9,48.1c0,0.1,0,0.2,0,0.3c0,0.2-0.1,0.4-0.3,0.4c-0.2,0-0.4-0.1-0.4-0.3c-0.1-0.3-0.1-0.6-0.1-1
	c0-0.2,0.2-0.4,0.4-0.4c0.2,0,0.4,0.1,0.4,0.4C54.9,47.7,54.9,47.9,54.9,48.1C54.9,48.1,54.9,48.1,54.9,48.1z"/>
<path class="st12" d="M118.6,17.2c0.2,0,0.4,0,0.6,0c0.2,0,0.4,0.2,0.4,0.4c0,0.2-0.2,0.4-0.4,0.4c-0.3,0-0.6,0-0.9-0.1
	c-0.2,0-0.4-0.2-0.4-0.4c0-0.2,0.2-0.3,0.4-0.3C118.4,17.2,118.5,17.2,118.6,17.2z"/>
<path class="st11" d="M51.6,65.4c-0.2,0-0.3,0-0.5,0c-0.2,0-0.4-0.2-0.4-0.4c0-0.2,0.2-0.4,0.4-0.4c0.3,0,0.6,0,0.9,0
	c0.2,0,0.4,0.2,0.4,0.4c0,0.2-0.2,0.4-0.4,0.4C51.9,65.4,51.8,65.4,51.6,65.4C51.6,65.4,51.6,65.4,51.6,65.4z"/>
<path class="st2" d="M68.4,49.9c0,0.1,0,0.3,0,0.4c0,0.2-0.1,0.4-0.3,0.4c-0.2,0-0.3-0.1-0.4-0.3c0-0.3-0.1-0.6-0.1-0.9
	c0-0.3,0.2-0.4,0.4-0.4c0.2,0,0.4,0.2,0.4,0.4C68.4,49.6,68.4,49.7,68.4,49.9C68.4,49.9,68.4,49.9,68.4,49.9z"/>
<path class="st9" d="M113.4,33.2c0-0.1,0-0.3,0-0.4c0-0.2,0.1-0.4,0.3-0.4c0.2,0,0.4,0.1,0.4,0.3c0,0.3,0.1,0.6,0.1,0.9
	c0,0.2-0.1,0.4-0.4,0.4c-0.2,0-0.4-0.1-0.4-0.4C113.4,33.6,113.4,33.4,113.4,33.2C113.4,33.2,113.4,33.2,113.4,33.2z"/>
<path class="st8" d="M126.9,37.6c0,0,0,0.1,0,0.1c0,0.2-0.2,0.4-0.4,0.4c-0.2,0-0.4-0.1-0.4-0.4c0-0.3,0-0.6,0-0.9
	c0-0.2,0.1-0.4,0.3-0.4c0.2,0,0.4,0.1,0.4,0.4C126.9,37.1,126.9,37.3,126.9,37.6C126.9,37.6,126.9,37.6,126.9,37.6z"/>
<path class="st2" d="M100.2,32c0-0.1,0-0.3,0-0.4c0-0.2,0.1-0.3,0.3-0.3c0.2,0,0.3,0.1,0.4,0.3c0,0.3,0.1,0.7,0.1,1
	c0,0.2-0.1,0.4-0.3,0.4c-0.2,0-0.4-0.1-0.4-0.4C100.2,32.3,100.2,32.2,100.2,32C100.2,32,100.2,32,100.2,32z"/>
<path class="st13" d="M114.1,17.9c-0.1,0-0.3,0-0.4,0c-0.2,0-0.3-0.1-0.3-0.3c0-0.2,0.1-0.3,0.3-0.4c0.4-0.1,0.7-0.1,1.1,0
	c0.2,0,0.3,0.2,0.3,0.3c0,0.2-0.1,0.3-0.3,0.4C114.5,18,114.3,17.9,114.1,17.9z"/>
<path class="st2" d="M56.2,64.6c0.1,0,0.3,0,0.4,0c0.2,0,0.3,0.1,0.4,0.3c0,0.2-0.1,0.3-0.3,0.4c-0.3,0-0.6,0.1-0.9,0.1
	c-0.2,0-0.4-0.1-0.4-0.3c0-0.2,0.1-0.3,0.3-0.4c0,0,0,0,0.1,0C55.9,64.6,56.1,64.6,56.2,64.6C56.2,64.6,56.2,64.6,56.2,64.6z"/>
<path class="st12" d="M31.3,44.3c0-0.2,0.1-0.4,0.3-0.4c0.2,0,0.3,0.1,0.4,0.3c0,0.3,0.1,0.6,0.1,0.9c0,0.2-0.1,0.3-0.3,0.4
	c-0.2,0-0.3-0.1-0.4-0.3C31.4,44.9,31.3,44.5,31.3,44.3z"/>
<path class="st13" d="M109.2,18.3c-0.2,0-0.4-0.1-0.4-0.3c0-0.2,0.1-0.3,0.3-0.3c0.3-0.1,0.6-0.1,0.9-0.1c0.2,0,0.3,0.1,0.3,0.3
	c0,0.2-0.1,0.3-0.3,0.4C109.8,18.3,109.5,18.3,109.2,18.3z"/>
<path class="st12" d="M43.1,48.3c0,0.3-0.1,0.4-0.3,0.4c-0.2,0-0.3-0.1-0.3-0.3c-0.1-0.3-0.1-0.6-0.1-0.9c0-0.2,0.1-0.4,0.3-0.4
	c0.2,0,0.3,0.1,0.4,0.3C43,47.8,43.1,48.1,43.1,48.3z"/>
<path class="st10" d="M60.3,64.8c-0.2,0-0.3-0.1-0.3-0.2c0-0.2,0-0.3,0.2-0.4c0.3-0.1,0.6-0.1,0.9-0.2c0.2,0,0.3,0.1,0.3,0.2
	c0,0.2,0,0.3-0.2,0.4c-0.1,0-0.1,0-0.2,0C60.8,64.6,60.6,64.7,60.3,64.8z"/>
<path class="st9" d="M137.4,37.2c0-0.1,0-0.2,0-0.4c0-0.2,0.1-0.3,0.3-0.3c0.2,0,0.3,0.1,0.3,0.2c0,0.3,0.1,0.6,0.1,0.9
	c0,0.2-0.1,0.3-0.3,0.3c-0.2,0-0.3-0.1-0.3-0.3C137.4,37.6,137.4,37.4,137.4,37.2C137.4,37.2,137.4,37.2,137.4,37.2z"/>
<path class="st10" d="M125.9,32.4c0-0.1,0-0.2,0-0.3c0-0.2,0.1-0.2,0.2-0.3c0.1,0,0.3,0.1,0.3,0.2c0,0.1,0,0.2,0,0.3
	c0,0.2,0,0.4,0.1,0.6c0,0.2-0.1,0.3-0.3,0.3c-0.2,0-0.3-0.1-0.3-0.3C126,32.9,125.9,32.7,125.9,32.4
	C125.9,32.4,125.9,32.4,125.9,32.4z"/>
<path class="st12" d="M55.5,53c0,0.2-0.1,0.3-0.2,0.3c-0.1,0-0.3,0-0.3-0.2c-0.1-0.3-0.1-0.6-0.2-0.9c0-0.2,0.1-0.3,0.2-0.3
	c0.2,0,0.3,0,0.3,0.2C55.4,52.4,55.4,52.7,55.5,53z"/>
<path class="st13" d="M104.7,19.2c-0.1,0-0.2-0.1-0.3-0.2c0-0.1,0-0.2,0.1-0.3c0,0,0.1,0,0.1,0c0.3-0.1,0.5-0.2,0.8-0.2
	c0.2,0,0.3,0,0.4,0.2c0,0.2,0,0.3-0.2,0.3c-0.3,0.1-0.5,0.1-0.8,0.2C104.7,19.2,104.7,19.2,104.7,19.2z"/>
<path class="st9" d="M64.8,63.5c-0.2,0-0.3-0.1-0.3-0.2c0-0.1,0-0.3,0.1-0.3c0.2-0.1,0.4-0.1,0.6-0.2c0.1,0,0.3-0.1,0.4-0.1
	c0.1,0,0.2,0,0.3,0.2c0,0.1,0,0.3-0.1,0.3C65.4,63.3,65.1,63.4,64.8,63.5z"/>
<path class="st11" d="M113,28.3C113,28.2,113,28.2,113,28.3c0-0.2,0.1-0.3,0.2-0.3c0.1,0,0.2,0,0.2,0.2c0.1,0.3,0.1,0.7,0.2,1
	c0,0.1-0.1,0.2-0.2,0.3c-0.1,0-0.3-0.1-0.3-0.3C113.1,28.8,113.1,28.6,113,28.3z"/>
<path class="st14" d="M100.4,20.8c-0.1,0-0.2-0.1-0.2-0.2c0-0.1,0-0.2,0-0.2c0,0,0.1-0.1,0.1-0.1c0.3-0.1,0.5-0.2,0.8-0.4
	c0,0,0.1,0,0.1,0c0.1,0,0.2,0,0.3,0.1c0.1,0.1,0,0.2-0.1,0.3C101,20.5,100.7,20.7,100.4,20.8C100.4,20.8,100.4,20.8,100.4,20.8z"/>
<path class="st8" d="M69.9,61c0,0.1-0.1,0.2-0.1,0.2c-0.3,0.1-0.5,0.3-0.8,0.4c-0.1,0.1-0.3,0-0.3-0.1c-0.1-0.1,0-0.2,0.1-0.3
	c0.3-0.1,0.5-0.3,0.8-0.4C69.8,60.7,69.9,60.8,69.9,61z"/>
<path class="st11" d="M43.8,53c0,0.1,0,0.2-0.2,0.2c-0.1,0-0.2,0-0.2-0.1c-0.1-0.3-0.1-0.6-0.2-0.9c0-0.1,0.1-0.2,0.2-0.3
	c0.1,0,0.2,0.1,0.2,0.2C43.7,52.3,43.8,52.6,43.8,53z"/>
<path class="st12" d="M32.8,49.6c0,0.1,0,0.2-0.1,0.3c-0.1,0-0.2,0-0.2-0.1c-0.1-0.3-0.2-0.6-0.2-0.9c0-0.1,0-0.2,0.2-0.2
	c0.1,0,0.2,0,0.3,0.1C32.7,49,32.7,49.3,32.8,49.6z"/>
<path class="st12" d="M100,27.3c0-0.1,0-0.2,0-0.4c0-0.1,0-0.2,0.2-0.2c0.1,0,0.2,0.1,0.2,0.2c0,0.3,0.1,0.6,0.1,0.8
	c0,0.2-0.1,0.3-0.2,0.3c-0.1,0-0.2-0.1-0.2-0.2C100,27.7,100,27.5,100,27.3C100,27.3,100,27.3,100,27.3z"/>
<path class="st14" d="M97.4,22.4c0,0.1,0,0.1-0.1,0.2c-0.2,0.2-0.5,0.3-0.7,0.5c-0.1,0.1-0.2,0.1-0.3,0c-0.1-0.1-0.1-0.2,0.1-0.3
	c0.2-0.2,0.5-0.4,0.7-0.5C97.2,22.1,97.4,22.2,97.4,22.4z"/>
<path class="st12" d="M68.7,54.7c0,0.1,0,0.1,0,0.2c0,0.1,0,0.2-0.1,0.2c-0.1,0-0.2,0-0.2-0.1c0-0.1-0.1-0.3-0.1-0.4
	c0-0.2-0.1-0.3-0.1-0.5c0-0.1,0.1-0.2,0.2-0.3c0.1,0,0.2,0.1,0.2,0.2C68.6,54.3,68.7,54.5,68.7,54.7C68.7,54.7,68.7,54.7,68.7,54.7z
	"/>
<path class="st12" d="M126,28.4c0,0.2-0.1,0.3-0.2,0.3c-0.1,0-0.2-0.1-0.2-0.2c0-0.3-0.1-0.6-0.1-0.9c0-0.1,0-0.2,0.1-0.2
	c0.1,0,0.2,0,0.2,0.2C125.9,27.9,125.9,28.2,126,28.4z"/>
<path class="st8" d="M72.8,59.2c-0.1,0-0.2,0-0.2-0.1c0-0.1,0-0.1,0-0.2c0,0,0.1-0.1,0.1-0.1c0.2-0.2,0.4-0.3,0.7-0.5
	c0.1-0.1,0.2-0.1,0.3,0c0.1,0.1,0.1,0.2,0,0.3C73.4,58.7,73.1,58.9,72.8,59.2C72.9,59.1,72.8,59.2,72.8,59.2z"/>
<path class="st12" d="M136.8,32.3c0-0.1,0-0.2,0.1-0.2c0.1,0,0.2,0,0.2,0.1c0.1,0.3,0.1,0.6,0.2,0.8c0,0.1,0,0.2-0.1,0.3
	c-0.1,0-0.2,0-0.2-0.2C136.9,32.9,136.8,32.6,136.8,32.3z"/>
<path class="st12" d="M56.3,57.5c0,0.1,0,0.2-0.1,0.2c-0.1,0-0.1,0-0.2-0.1c-0.1-0.3-0.2-0.6-0.2-0.9c0-0.1,0-0.2,0.1-0.2
	c0.1,0,0.2,0,0.2,0.1C56.2,56.9,56.3,57.2,56.3,57.5z"/>
<path class="st14" d="M93.6,25.1c0.1,0,0.2,0.1,0.2,0.2c0,0-0.1,0.1-0.1,0.1c-0.2,0.2-0.3,0.4-0.5,0.5c0,0-0.1,0.1-0.1,0.1
	c-0.1,0-0.1,0-0.2,0c-0.1-0.1-0.1-0.1,0-0.2C93.1,25.6,93.3,25.4,93.6,25.1C93.6,25.2,93.6,25.2,93.6,25.1z"/>
<path class="st8" d="M76.2,56.1c-0.1,0-0.2-0.1-0.1-0.2c0-0.1,0.1-0.1,0.2-0.2c0.2-0.2,0.3-0.3,0.5-0.5c0.1-0.1,0.1-0.1,0.2,0
	c0.1,0.1,0.1,0.2,0,0.2c-0.2,0.2-0.4,0.4-0.6,0.7C76.3,56.1,76.3,56.1,76.2,56.1z"/>
<path class="st12" d="M112.4,23.7c0-0.1,0-0.2,0.1-0.2c0.1,0,0.1,0,0.1,0.1c0.1,0.3,0.1,0.6,0.2,0.8c0,0.1,0,0.2-0.1,0.2
	c-0.1,0-0.1,0-0.2-0.1C112.5,24.3,112.4,24,112.4,23.7z"/>
<path class="st15" d="M90.8,28.8C90.8,28.9,90.8,28.9,90.8,28.8c-0.2,0.3-0.4,0.5-0.5,0.7c0,0.1-0.1,0.1-0.2,0.1
	c-0.1-0.1,0-0.1,0-0.2c0.2-0.2,0.3-0.5,0.5-0.7c0-0.1,0.1-0.1,0.2-0.1C90.8,28.7,90.8,28.8,90.8,28.8z"/>
<path class="st8" d="M79.2,52.5c-0.1,0-0.2-0.1-0.1-0.2c0.2-0.3,0.4-0.5,0.5-0.8c0,0,0.1-0.1,0.1,0c0.1,0,0.1,0.1,0,0.2
	c-0.2,0.2-0.3,0.5-0.5,0.7C79.3,52.5,79.2,52.5,79.2,52.5z"/>
<path class="st11" d="M44.7,57.4c0,0.1,0,0.1-0.1,0.2c-0.1,0-0.1,0-0.1-0.1c-0.1-0.3-0.2-0.6-0.2-0.8c0-0.1,0-0.1,0.1-0.2
	c0.1,0,0.1,0,0.1,0.1C44.6,56.9,44.6,57.2,44.7,57.4z"/>
<path class="st12" d="M125.2,23.8c0,0.1,0,0.2-0.1,0.2c-0.1,0-0.1,0-0.1-0.1c-0.1-0.3-0.1-0.6-0.1-0.9c0-0.1,0-0.1,0.1-0.1
	c0.1,0,0.1,0,0.1,0.1C125.1,23.3,125.1,23.6,125.2,23.8z"/>
<path class="st12" d="M33.6,53.1c0.1,0,0.1,0,0.1,0.1c0.1,0.3,0.2,0.6,0.2,0.8c0,0,0,0.1-0.1,0.1c-0.1,0-0.1,0-0.1-0.1
	c-0.1-0.3-0.2-0.6-0.3-0.9C33.5,53.2,33.5,53.1,33.6,53.1z"/>
<path class="st15" d="M88.3,32.8C88.3,32.8,88.3,32.8,88.3,32.8c-0.2,0.3-0.3,0.5-0.4,0.8c0,0.1-0.1,0.1-0.1,0.1c-0.1,0,0-0.1,0-0.2
	c0.1-0.2,0.2-0.5,0.3-0.7c0,0,0-0.1,0.1-0.1C88.2,32.7,88.3,32.7,88.3,32.8C88.3,32.7,88.3,32.7,88.3,32.8z"/>
<path class="st8" d="M82.2,47.7C82.2,47.7,82.2,47.8,82.2,47.7c-0.1,0.3-0.3,0.6-0.4,0.8c0,0-0.1,0.1-0.1,0c0,0-0.1-0.1,0-0.1
	c0.1-0.3,0.3-0.5,0.4-0.8C82.1,47.7,82.1,47.6,82.2,47.7C82.2,47.7,82.2,47.7,82.2,47.7z"/>
<path class="st15" d="M86,37.8c0-0.2,0.2-0.7,0.3-0.9C86.4,37.1,86.2,37.6,86,37.8z"/>
<path class="st14" d="M136,27.7c0.1,0.3,0.1,0.6,0.2,0.8c0,0,0,0.1,0,0.1c-0.1,0-0.1,0-0.1-0.1C136.1,28.3,136,28,136,27.7
	C136,27.7,136,27.7,136,27.7z"/>
<path class="st12" d="M84.1,43.5c-0.1,0.4-0.2,0.6-0.4,0.9C83.7,44.2,83.9,43.7,84.1,43.5z"/>
<path class="st12" d="M57.2,61.1c0.1,0.3,0.2,0.6,0.3,0.9C57.3,61.7,57.2,61.4,57.2,61.1z"/>
<path class="st14" d="M69.2,59.4c0-0.3-0.2-0.5-0.2-0.8C69.2,58.8,69.2,59.1,69.2,59.4z"/>
<path class="st14" d="M99.5,22.7c0,0.1,0.1,0.3,0.1,0.6C99.5,23.1,99.5,22.9,99.5,22.7z"/>
</svg>
