<?xml version="1.0" encoding="utf-8"?>
<!-- Generator: Adobe Illustrator 18.0.0, SVG Export Plug-In . SVG Version: 6.00 Build 0)  -->
<!DOCTYPE svg PUBLIC "-//W3C//DTD SVG 1.1//EN" "http://www.w3.org/Graphics/SVG/1.1/DTD/svg11.dtd">
<svg version="1.1" id="Layer_1" xmlns="http://www.w3.org/2000/svg" xmlns:xlink="http://www.w3.org/1999/xlink" x="0px" y="0px"
	 width="172px" height="72px" viewBox="0 0 172 72" style="enable-background:new 0 0 172 72;" xml:space="preserve">
<style type="text/css">
	.st0{fill:#FFFFFF;}
	.st1{fill:#2B388F;}
</style>
<rect x="0" class="st0" width="172" height="72"/>
<g>
	<path class="st1" d="M10,27.9c0-2.5,0.4-4.8,1.1-7c0.7-2.2,1.8-4.1,3.1-5.7c1.4-1.6,3-2.9,5-3.8c2-0.9,4.2-1.4,6.7-1.4
		c2,0,3.7,0.3,5.1,0.8c1.4,0.5,2.6,1.2,3.6,2c1,0.8,1.8,1.6,2.4,2.6c0.6,0.9,1.1,1.8,1.4,2.6c0.3,0.8,0.6,1.5,0.7,2.1
		c0.1,0.6,0.2,0.9,0.2,1h-2.1c-0.2-1.4-0.7-2.7-1.4-3.8c-0.7-1.1-1.5-2.1-2.6-2.9c-1-0.8-2.2-1.4-3.4-1.8c-1.3-0.4-2.6-0.6-4-0.6
		c-2.2,0-4.1,0.4-5.9,1.3c-1.7,0.9-3.2,2-4.4,3.5c-1.2,1.4-2.1,3.1-2.7,5.1c-0.6,1.9-0.9,4-0.9,6.2c0,2.2,0.3,4.3,0.9,6.2
		c0.6,1.9,1.5,3.6,2.7,5.1c1.2,1.4,2.6,2.6,4.4,3.5c1.7,0.9,3.7,1.3,5.9,1.3c1.6,0,3.1-0.3,4.6-1c1.4-0.7,2.7-1.6,3.7-2.7
		c1.1-1.1,1.9-2.4,2.6-3.9c0.6-1.5,1-3,1.1-4.6h2.1c-0.2,2-0.7,3.9-1.5,5.6c-0.8,1.7-1.8,3.2-3,4.5c-1.2,1.3-2.7,2.2-4.3,2.9
		c-1.6,0.7-3.4,1.1-5.2,1.1c-2.5,0-4.7-0.5-6.7-1.4c-2-0.9-3.7-2.2-5-3.8c-1.4-1.6-2.4-3.5-3.1-5.7C10.4,32.7,10,30.3,10,27.9z"/>
	<path class="st1" d="M46.1,10.8v34.1h-1.8V10.8H46.1z"/>
	<path class="st1" d="M52.2,15.7v-4.9H54v4.9H52.2z M52.2,44.9V20.4H54v24.5H52.2z"/>
	<path class="st1" d="M59.6,20.4h1.8v5.3h0.1c0.3-0.9,0.8-1.7,1.3-2.5c0.6-0.7,1.2-1.3,2-1.8c0.8-0.5,1.6-0.9,2.5-1.1
		c0.9-0.3,1.8-0.4,2.8-0.4c1.4,0,2.6,0.2,3.6,0.5c1,0.4,1.8,0.8,2.4,1.4c0.6,0.6,1.1,1.2,1.5,1.9c0.4,0.7,0.6,1.4,0.8,2.2
		c0.2,0.7,0.2,1.4,0.3,2.1c0,0.7,0,1.3,0,1.8v15.2h-1.8V29.4c0-0.6,0-1.4-0.1-2.3c-0.1-0.9-0.4-1.8-0.8-2.6
		c-0.5-0.8-1.1-1.6-2.1-2.2c-0.9-0.6-2.2-0.9-3.8-0.9c-1.4,0-2.6,0.3-3.7,0.8c-1.1,0.5-2,1.2-2.7,2.1c-0.7,0.9-1.3,2-1.7,3.2
		c-0.4,1.3-0.6,2.6-0.6,4.1v13.3h-1.8V20.4z"/>
	<path class="st1" d="M83,28c0-2.4,0.4-4.7,1.1-6.9c0.7-2.2,1.7-4.1,3.1-5.8c1.3-1.7,3-3,4.9-3.9c2-1,4.2-1.5,6.7-1.5
		c1.7,0,3.4,0.3,4.9,0.8c1.6,0.5,3,1.3,4.2,2.2c1.2,1,2.3,2.2,3.1,3.6c0.8,1.4,1.4,3,1.7,4.8h-2c-0.8-3-2.2-5.3-4.2-7
		c-2-1.7-4.6-2.5-7.7-2.5c-2.2,0-4.2,0.4-5.9,1.3c-1.7,0.9-3.2,2.1-4.3,3.6c-1.2,1.5-2,3.2-2.6,5.2c-0.6,2-0.9,4-0.9,6.1
		c0,2.2,0.3,4.2,0.9,6.1c0.6,1.9,1.4,3.6,2.6,5c1.1,1.4,2.6,2.6,4.3,3.4c1.7,0.8,3.7,1.3,6,1.3c2,0,3.8-0.3,5.4-1s2.9-1.6,4-2.8
		c1.1-1.2,1.9-2.7,2.5-4.4c0.6-1.7,0.8-3.6,0.7-5.7H99.2v-1.8h14.1v16.7h-1.8v-7.3h-0.1c-0.4,1.2-1,2.4-1.8,3.4
		c-0.8,1-1.8,1.8-2.9,2.5c-1.1,0.7-2.3,1.2-3.7,1.6c-1.4,0.4-2.8,0.6-4.2,0.6c-2.5,0-4.8-0.5-6.7-1.4c-2-0.9-3.6-2.2-4.9-3.8
		c-1.3-1.6-2.4-3.5-3-5.6C83.4,32.8,83,30.5,83,28z"/>
	<path class="st1" d="M119.3,32.9v0.3c0,1.4,0.2,2.8,0.6,4.1c0.4,1.3,0.9,2.5,1.7,3.4c0.7,1,1.7,1.8,2.8,2.3
		c1.1,0.6,2.4,0.9,3.9,0.9c2.4,0,4.3-0.6,5.7-1.9c1.4-1.3,2.4-3.1,2.9-5.4h1.8c-0.5,2.9-1.7,5.1-3.4,6.6c-1.8,1.5-4.1,2.3-7,2.3
		c-1.8,0-3.3-0.3-4.7-1c-1.3-0.7-2.4-1.5-3.3-2.7c-0.9-1.1-1.6-2.5-2-4c-0.4-1.5-0.7-3.2-0.7-5c0-1.7,0.2-3.4,0.7-4.9
		c0.5-1.6,1.1-3,2-4.2c0.9-1.2,2-2.1,3.4-2.9c1.4-0.7,3-1.1,4.8-1.1c1.7,0,3.2,0.3,4.5,1c1.3,0.6,2.4,1.5,3.3,2.6
		c0.9,1.1,1.5,2.4,2,3.8c0.5,1.4,0.7,3,0.7,4.7c0,0.2,0,0.3,0,0.5c0,0.2,0,0.4,0,0.5H119.3z M137,31.3c-0.1-1.3-0.3-2.6-0.7-3.8
		c-0.4-1.2-0.9-2.2-1.7-3.2c-0.7-0.9-1.6-1.6-2.7-2.2c-1-0.5-2.2-0.8-3.6-0.8c-1.4,0-2.7,0.3-3.8,0.8c-1.1,0.6-2,1.3-2.8,2.2
		c-0.8,0.9-1.3,2-1.7,3.2c-0.4,1.2-0.7,2.5-0.8,3.7H137z"/>
	<path class="st1" d="M142.9,20.4h1.8v5.3h0.1c0.3-0.9,0.8-1.7,1.3-2.5c0.6-0.7,1.2-1.3,2-1.8c0.8-0.5,1.6-0.9,2.5-1.1
		c0.9-0.3,1.8-0.4,2.8-0.4c1.4,0,2.6,0.2,3.6,0.5c1,0.4,1.8,0.8,2.4,1.4c0.6,0.6,1.1,1.2,1.5,1.9c0.4,0.7,0.6,1.4,0.8,2.2
		c0.2,0.7,0.2,1.4,0.3,2.1c0,0.7,0,1.3,0,1.8v15.2h-1.8V29.4c0-0.6,0-1.4-0.1-2.3c-0.1-0.9-0.4-1.8-0.8-2.6
		c-0.5-0.8-1.1-1.6-2.1-2.2c-0.9-0.6-2.2-0.9-3.8-0.9c-1.4,0-2.6,0.3-3.7,0.8c-1.1,0.5-2,1.2-2.7,2.1c-0.7,0.9-1.3,2-1.7,3.2
		c-0.4,1.3-0.6,2.6-0.6,4.1v13.3h-1.8V20.4z"/>
</g>
<g>
	<path class="st1" d="M18.5,54.1c-0.2-0.3-0.4-0.5-0.7-0.7c-0.3-0.2-0.6-0.3-0.9-0.5c-0.3-0.1-0.6-0.2-1-0.2c-0.6,0-1.2,0.1-1.6,0.4
		c-0.5,0.2-0.8,0.6-1.1,1c-0.3,0.4-0.5,0.9-0.6,1.4c-0.1,0.5-0.2,1-0.2,1.6c0,0.5,0.1,1,0.2,1.5c0.1,0.5,0.4,1,0.6,1.4
		c0.3,0.4,0.7,0.7,1.1,1c0.5,0.2,1,0.4,1.6,0.4c0.4,0,0.8-0.1,1.2-0.2c0.4-0.2,0.7-0.4,0.9-0.7c0.3-0.3,0.5-0.6,0.6-1
		c0.2-0.4,0.3-0.8,0.3-1.2h0.9c-0.1,0.6-0.2,1.1-0.4,1.6c-0.2,0.5-0.5,0.9-0.8,1.2c-0.3,0.3-0.7,0.6-1.2,0.8C17,61.9,16.5,62,16,62
		c-0.7,0-1.4-0.1-2-0.4c-0.6-0.3-1-0.6-1.4-1.1c-0.4-0.5-0.7-1-0.8-1.6c-0.2-0.6-0.3-1.2-0.3-1.9c0-0.7,0.1-1.3,0.3-1.9
		c0.2-0.6,0.5-1.1,0.8-1.6c0.4-0.5,0.8-0.8,1.4-1.1c0.6-0.3,1.2-0.4,2-0.4c0.5,0,0.9,0.1,1.3,0.2c0.4,0.1,0.8,0.3,1.2,0.6
		c0.4,0.3,0.6,0.6,0.9,1c0.2,0.4,0.4,0.8,0.4,1.3h-0.9C18.8,54.7,18.7,54.4,18.5,54.1z"/>
	<path class="st1" d="M22,52.2v9.7h-0.8v-9.7H22z"/>
	<path class="st1" d="M24.5,52.2v1.4h-0.8v-1.4H24.5z M24.5,54.8v7h-0.8v-7H24.5z"/>
	<path class="st1" d="M26.9,54.8V56h0c0.2-0.4,0.4-0.8,0.9-1c0.4-0.3,0.9-0.4,1.3-0.4c0.5,0,0.9,0.1,1.2,0.2
		c0.3,0.1,0.6,0.3,0.8,0.5c0.2,0.2,0.3,0.5,0.4,0.8c0.1,0.3,0.1,0.7,0.1,1.1v4.5h-0.8v-4.4c0-0.3,0-0.6-0.1-0.8
		c-0.1-0.3-0.1-0.5-0.3-0.7c-0.1-0.2-0.3-0.3-0.5-0.4c-0.2-0.1-0.5-0.2-0.8-0.2c-0.3,0-0.6,0.1-0.9,0.2c-0.3,0.1-0.5,0.3-0.7,0.5
		c-0.2,0.2-0.3,0.5-0.4,0.8c-0.1,0.3-0.2,0.6-0.2,1v4.1h-0.8v-7H26.9z"/>
	<path class="st1" d="M34.1,52.2v1.4h-0.8v-1.4H34.1z M34.1,54.8v7h-0.8v-7H34.1z"/>
	<path class="st1" d="M39.9,55.8c-0.3-0.3-0.7-0.4-1.3-0.4c-0.4,0-0.8,0.1-1.1,0.3c-0.3,0.2-0.6,0.4-0.8,0.7c-0.2,0.3-0.4,0.6-0.5,1
		c-0.1,0.4-0.2,0.7-0.2,1.1c0,0.4,0.1,0.7,0.2,1.1c0.1,0.4,0.3,0.7,0.5,1c0.2,0.3,0.5,0.5,0.8,0.7c0.3,0.2,0.7,0.3,1.1,0.3
		c0.3,0,0.5,0,0.7-0.1c0.2-0.1,0.4-0.2,0.6-0.4c0.2-0.2,0.3-0.4,0.4-0.6c0.1-0.2,0.2-0.5,0.2-0.8h0.8c-0.1,0.8-0.4,1.5-0.9,2
		C40,61.8,39.4,62,38.6,62c-0.5,0-1-0.1-1.4-0.3c-0.4-0.2-0.7-0.5-1-0.8c-0.3-0.3-0.5-0.7-0.6-1.2c-0.1-0.4-0.2-0.9-0.2-1.4
		c0-0.5,0.1-1,0.2-1.4c0.1-0.4,0.4-0.8,0.6-1.2c0.3-0.3,0.6-0.6,1-0.8c0.4-0.2,0.9-0.3,1.4-0.3c0.7,0,1.4,0.2,1.9,0.6
		c0.5,0.4,0.8,1,0.9,1.8h-0.8C40.4,56.5,40.2,56.1,39.9,55.8z"/>
	<path class="st1" d="M42.8,55.9c0.1-0.3,0.3-0.5,0.6-0.7c0.2-0.2,0.5-0.3,0.9-0.4c0.3-0.1,0.7-0.1,1.1-0.1c0.3,0,0.6,0,0.9,0.1
		c0.3,0.1,0.6,0.2,0.8,0.3c0.2,0.2,0.4,0.4,0.6,0.7c0.2,0.3,0.2,0.7,0.2,1.1v3.7c0,0.3,0.2,0.5,0.5,0.5c0.1,0,0.2,0,0.3-0.1v0.7
		c-0.1,0-0.2,0-0.3,0c-0.1,0-0.2,0-0.3,0c-0.2,0-0.4,0-0.5-0.1c-0.1-0.1-0.2-0.1-0.3-0.3c-0.1-0.1-0.1-0.2-0.1-0.4
		c0-0.1,0-0.3,0-0.5h0c-0.2,0.2-0.3,0.4-0.5,0.6c-0.2,0.2-0.3,0.3-0.5,0.4c-0.2,0.1-0.4,0.2-0.7,0.3C45.2,62,44.9,62,44.6,62
		c-0.3,0-0.6,0-0.9-0.1c-0.3-0.1-0.5-0.2-0.7-0.4c-0.2-0.2-0.4-0.4-0.5-0.6c-0.1-0.3-0.2-0.6-0.2-0.9c0-0.5,0.1-0.9,0.3-1.1
		c0.2-0.3,0.5-0.5,0.8-0.6c0.4-0.1,0.7-0.2,1.2-0.3c0.4-0.1,0.9-0.1,1.3-0.2c0.2,0,0.3,0,0.5-0.1c0.1,0,0.2-0.1,0.3-0.1
		c0.1-0.1,0.2-0.2,0.2-0.3c0-0.1,0.1-0.3,0.1-0.5c0-0.3,0-0.5-0.1-0.7c-0.1-0.2-0.2-0.3-0.4-0.4c-0.2-0.1-0.4-0.2-0.6-0.2
		c-0.2,0-0.5-0.1-0.7-0.1c-0.5,0-1,0.1-1.3,0.4c-0.3,0.3-0.5,0.7-0.5,1.2h-0.8C42.6,56.6,42.7,56.2,42.8,55.9z M47,58
		c-0.1,0.1-0.2,0.2-0.3,0.2c-0.2,0-0.3,0.1-0.4,0.1c-0.4,0.1-0.7,0.1-1.1,0.2c-0.4,0-0.7,0.1-1,0.2c-0.3,0.1-0.6,0.2-0.8,0.4
		c-0.2,0.2-0.3,0.4-0.3,0.8c0,0.2,0,0.4,0.1,0.6c0.1,0.2,0.2,0.3,0.3,0.4c0.1,0.1,0.3,0.2,0.5,0.3c0.2,0.1,0.4,0.1,0.6,0.1
		c0.3,0,0.6,0,0.9-0.1c0.3-0.1,0.5-0.2,0.8-0.4c0.2-0.2,0.4-0.4,0.5-0.7c0.1-0.3,0.2-0.6,0.2-0.9L47,58L47,58z"/>
	<path class="st1" d="M50.4,52.2v9.7h-0.8v-9.7H50.4z"/>
	<path class="st1" d="M63.4,61.8l-0.1-1.8h0c-0.2,0.3-0.4,0.6-0.6,0.9c-0.2,0.2-0.5,0.5-0.8,0.6c-0.3,0.2-0.6,0.3-0.9,0.3
		c-0.3,0.1-0.7,0.1-1,0.1c-0.7,0-1.4-0.1-2-0.4c-0.6-0.3-1-0.6-1.4-1.1c-0.4-0.5-0.7-1-0.8-1.6c-0.2-0.6-0.3-1.2-0.3-1.9
		c0-0.7,0.1-1.3,0.3-1.9c0.2-0.6,0.5-1.1,0.8-1.6c0.4-0.5,0.8-0.8,1.4-1.1c0.6-0.3,1.2-0.4,2-0.4c0.5,0,1,0.1,1.4,0.2
		c0.4,0.1,0.8,0.3,1.2,0.6c0.3,0.3,0.6,0.6,0.9,1c0.2,0.4,0.4,0.9,0.5,1.4H63c0-0.3-0.1-0.6-0.3-0.8c-0.2-0.3-0.4-0.5-0.6-0.8
		c-0.3-0.2-0.6-0.4-0.9-0.6c-0.4-0.1-0.8-0.2-1.2-0.2c-0.6,0-1.2,0.1-1.6,0.4c-0.5,0.2-0.8,0.6-1.1,1c-0.3,0.4-0.5,0.9-0.6,1.4
		c-0.1,0.5-0.2,1-0.2,1.6c0,0.5,0.1,1,0.2,1.5c0.1,0.5,0.4,1,0.6,1.4c0.3,0.4,0.7,0.7,1.1,1c0.5,0.2,1,0.4,1.6,0.4
		c0.5,0,1-0.1,1.4-0.3c0.4-0.2,0.8-0.4,1-0.7c0.3-0.3,0.5-0.7,0.6-1.1c0.1-0.4,0.2-0.9,0.2-1.4H60v-0.8h4v4.9H63.4z"/>
	<path class="st1" d="M66.2,59.5c0.1,0.3,0.2,0.6,0.4,0.9c0.2,0.3,0.4,0.5,0.7,0.6c0.3,0.2,0.6,0.3,1,0.3c0.6,0,1.1-0.2,1.4-0.5
		c0.3-0.3,0.6-0.8,0.7-1.3h0.8c-0.2,0.8-0.5,1.4-1,1.8c-0.5,0.4-1.1,0.6-2,0.6c-0.5,0-1-0.1-1.4-0.3c-0.4-0.2-0.7-0.5-1-0.8
		c-0.2-0.3-0.4-0.7-0.6-1.2c-0.1-0.4-0.2-0.9-0.2-1.4c0-0.5,0.1-0.9,0.2-1.4c0.1-0.4,0.3-0.8,0.6-1.2c0.2-0.3,0.6-0.6,1-0.8
		c0.4-0.2,0.9-0.3,1.4-0.3c0.6,0,1,0.1,1.4,0.3c0.4,0.2,0.7,0.5,1,0.9c0.2,0.4,0.4,0.8,0.5,1.3c0.1,0.5,0.2,1,0.1,1.4h-5.3
		C66.1,58.9,66.1,59.2,66.2,59.5z M70.4,56.9c-0.1-0.3-0.2-0.6-0.4-0.8c-0.2-0.2-0.4-0.4-0.7-0.6c-0.3-0.1-0.6-0.2-0.9-0.2
		c-0.3,0-0.7,0.1-0.9,0.2c-0.3,0.1-0.5,0.3-0.7,0.6c-0.2,0.2-0.3,0.5-0.4,0.8c-0.1,0.3-0.2,0.6-0.2,0.9h4.5
		C70.5,57.5,70.5,57.2,70.4,56.9z"/>
	<path class="st1" d="M73.3,54.8V56h0c0.2-0.4,0.4-0.8,0.9-1c0.4-0.3,0.9-0.4,1.3-0.4c0.5,0,0.9,0.1,1.2,0.2
		c0.3,0.1,0.6,0.3,0.8,0.5c0.2,0.2,0.3,0.5,0.4,0.8c0.1,0.3,0.1,0.7,0.1,1.1v4.5h-0.8v-4.4c0-0.3,0-0.6-0.1-0.8
		c-0.1-0.3-0.1-0.5-0.3-0.7c-0.1-0.2-0.3-0.3-0.5-0.4c-0.2-0.1-0.5-0.2-0.8-0.2c-0.3,0-0.6,0.1-0.9,0.2c-0.3,0.1-0.5,0.3-0.7,0.5
		c-0.2,0.2-0.3,0.5-0.4,0.8c-0.1,0.3-0.2,0.6-0.2,1v4.1h-0.8v-7H73.3z"/>
	<path class="st1" d="M84,54.9c0.4,0.2,0.7,0.5,1,0.8c0.3,0.3,0.5,0.7,0.6,1.2c0.1,0.4,0.2,0.9,0.2,1.4c0,0.5-0.1,1-0.2,1.4
		c-0.1,0.4-0.4,0.8-0.6,1.2c-0.3,0.3-0.6,0.6-1,0.8c-0.4,0.2-0.9,0.3-1.4,0.3c-0.5,0-1-0.1-1.4-0.3c-0.4-0.2-0.7-0.5-1-0.8
		c-0.3-0.3-0.5-0.7-0.6-1.2c-0.1-0.4-0.2-0.9-0.2-1.4c0-0.5,0.1-1,0.2-1.4c0.1-0.4,0.4-0.8,0.6-1.2c0.3-0.3,0.6-0.6,1-0.8
		c0.4-0.2,0.9-0.3,1.4-0.3C83.1,54.6,83.6,54.7,84,54.9z M81.5,55.6c-0.3,0.2-0.6,0.4-0.8,0.7c-0.2,0.3-0.4,0.6-0.5,1
		c-0.1,0.4-0.2,0.7-0.2,1.1c0,0.4,0.1,0.7,0.2,1.1c0.1,0.4,0.3,0.7,0.5,1c0.2,0.3,0.5,0.5,0.8,0.7c0.3,0.2,0.7,0.3,1.1,0.3
		s0.8-0.1,1.1-0.3c0.3-0.2,0.6-0.4,0.8-0.7c0.2-0.3,0.4-0.6,0.5-1c0.1-0.4,0.2-0.7,0.2-1.1c0-0.4-0.1-0.7-0.2-1.1
		c-0.1-0.4-0.3-0.7-0.5-1c-0.2-0.3-0.5-0.5-0.8-0.7c-0.3-0.2-0.7-0.3-1.1-0.3S81.8,55.4,81.5,55.6z"/>
	<path class="st1" d="M87.9,54.8V56h0c0.2-0.4,0.5-0.8,0.9-1c0.4-0.2,0.8-0.4,1.4-0.4c0.5,0,0.9,0.1,1.2,0.3c0.4,0.2,0.6,0.6,0.7,1
		c0.2-0.5,0.5-0.8,0.9-1c0.4-0.2,0.8-0.3,1.3-0.3c1.5,0,2.3,0.8,2.3,2.4v4.7h-0.8v-4.7c0-0.6-0.1-1-0.4-1.3
		c-0.2-0.3-0.7-0.5-1.3-0.5c-0.4,0-0.7,0.1-0.9,0.2c-0.2,0.1-0.4,0.3-0.6,0.6c-0.1,0.2-0.2,0.5-0.3,0.8c-0.1,0.3-0.1,0.6-0.1,0.9
		v3.9h-0.8v-4.7c0-0.2,0-0.5-0.1-0.7c0-0.2-0.1-0.4-0.2-0.6c-0.1-0.2-0.3-0.3-0.4-0.4c-0.2-0.1-0.4-0.1-0.7-0.1
		c-0.4,0-0.7,0.1-0.9,0.2c-0.3,0.1-0.5,0.3-0.6,0.5s-0.3,0.5-0.4,0.8c-0.1,0.3-0.1,0.7-0.1,1v3.9h-0.8v-7H87.9z"/>
	<path class="st1" d="M98.8,59.5c0.1,0.3,0.2,0.6,0.4,0.9c0.2,0.3,0.4,0.5,0.7,0.6c0.3,0.2,0.6,0.3,1,0.3c0.6,0,1.1-0.2,1.4-0.5
		c0.3-0.3,0.6-0.8,0.7-1.3h0.8c-0.2,0.8-0.5,1.4-1,1.8c-0.5,0.4-1.1,0.6-2,0.6c-0.5,0-1-0.1-1.4-0.3c-0.4-0.2-0.7-0.5-1-0.8
		c-0.2-0.3-0.4-0.7-0.6-1.2c-0.1-0.4-0.2-0.9-0.2-1.4c0-0.5,0.1-0.9,0.2-1.4c0.1-0.4,0.3-0.8,0.6-1.2c0.2-0.3,0.6-0.6,1-0.8
		s0.9-0.3,1.4-0.3c0.6,0,1,0.1,1.4,0.3c0.4,0.2,0.7,0.5,1,0.9c0.2,0.4,0.4,0.8,0.5,1.3c0.1,0.5,0.2,1,0.1,1.4h-5.3
		C98.7,58.9,98.7,59.2,98.8,59.5z M103,56.9c-0.1-0.3-0.2-0.6-0.4-0.8c-0.2-0.2-0.4-0.4-0.7-0.6c-0.3-0.1-0.6-0.2-0.9-0.2
		c-0.3,0-0.7,0.1-0.9,0.2c-0.3,0.1-0.5,0.3-0.7,0.6c-0.2,0.2-0.3,0.5-0.4,0.8c-0.1,0.3-0.2,0.6-0.2,0.9h4.5
		C103.1,57.5,103.1,57.2,103,56.9z"/>
	<path class="st1" d="M113.3,52.2c0.4,0,0.8,0,1.1,0.1c0.3,0.1,0.7,0.2,0.9,0.5c0.3,0.2,0.5,0.5,0.6,0.8c0.2,0.3,0.2,0.7,0.2,1.1
		c0,0.6-0.2,1.1-0.5,1.6c-0.3,0.5-0.8,0.7-1.4,0.9v0c0.3,0,0.6,0.1,0.8,0.2c0.2,0.1,0.4,0.3,0.5,0.5c0.1,0.2,0.2,0.4,0.3,0.7
		c0.1,0.2,0.1,0.5,0.1,0.8c0,0.2,0,0.4,0,0.6c0,0.2,0,0.5,0.1,0.7c0,0.2,0.1,0.5,0.1,0.7c0.1,0.2,0.1,0.4,0.2,0.5h-1
		c-0.1-0.1-0.1-0.2-0.1-0.3c0-0.1-0.1-0.3-0.1-0.4c0-0.1,0-0.3,0-0.4s0-0.3,0-0.4c0-0.3,0-0.7-0.1-1c0-0.3-0.1-0.6-0.3-0.9
		c-0.1-0.3-0.3-0.5-0.6-0.6c-0.2-0.2-0.6-0.2-1-0.2h-3.4v4.3H109v-9.7H113.3z M113.2,56.7c0.3,0,0.5,0,0.8-0.1
		c0.2-0.1,0.5-0.2,0.6-0.4c0.2-0.2,0.3-0.4,0.4-0.6c0.1-0.2,0.2-0.5,0.2-0.8c0-0.6-0.2-1.1-0.5-1.4c-0.3-0.3-0.8-0.5-1.5-0.5h-3.4
		v3.8H113.2z"/>
	<path class="st1" d="M118.3,59.5c0.1,0.3,0.2,0.6,0.4,0.9c0.2,0.3,0.4,0.5,0.7,0.6c0.3,0.2,0.6,0.3,1,0.3c0.6,0,1.1-0.2,1.4-0.5
		c0.3-0.3,0.6-0.8,0.7-1.3h0.8c-0.2,0.8-0.5,1.4-1,1.8c-0.5,0.4-1.1,0.6-2,0.6c-0.5,0-1-0.1-1.4-0.3c-0.4-0.2-0.7-0.5-1-0.8
		c-0.2-0.3-0.4-0.7-0.6-1.2c-0.1-0.4-0.2-0.9-0.2-1.4c0-0.5,0.1-0.9,0.2-1.4c0.1-0.4,0.3-0.8,0.6-1.2c0.2-0.3,0.6-0.6,1-0.8
		c0.4-0.2,0.9-0.3,1.4-0.3c0.5,0,1,0.1,1.4,0.3c0.4,0.2,0.7,0.5,0.9,0.9c0.2,0.4,0.4,0.8,0.5,1.3c0.1,0.5,0.2,1,0.1,1.4h-5.3
		C118.2,58.9,118.2,59.2,118.3,59.5z M122.4,56.9c-0.1-0.3-0.2-0.6-0.4-0.8c-0.2-0.2-0.4-0.4-0.7-0.6c-0.3-0.1-0.6-0.2-0.9-0.2
		c-0.3,0-0.6,0.1-0.9,0.2c-0.3,0.1-0.5,0.3-0.7,0.6c-0.2,0.2-0.3,0.5-0.4,0.8c-0.1,0.3-0.2,0.6-0.2,0.9h4.4
		C122.6,57.5,122.5,57.2,122.4,56.9z"/>
	<path class="st1" d="M128.5,56.2c-0.1-0.2-0.2-0.4-0.4-0.5c-0.2-0.1-0.4-0.2-0.6-0.3c-0.2-0.1-0.4-0.1-0.7-0.1
		c-0.2,0-0.4,0-0.6,0.1c-0.2,0-0.4,0.1-0.5,0.2c-0.2,0.1-0.3,0.2-0.4,0.4c-0.1,0.2-0.1,0.3-0.1,0.6c0,0.2,0,0.3,0.1,0.5
		c0.1,0.1,0.2,0.2,0.4,0.3c0.1,0.1,0.3,0.2,0.5,0.2c0.2,0.1,0.3,0.1,0.5,0.1l1.1,0.3c0.2,0,0.5,0.1,0.7,0.2c0.2,0.1,0.4,0.2,0.6,0.4
		c0.2,0.2,0.3,0.3,0.4,0.6c0.1,0.2,0.2,0.5,0.2,0.8c0,0.4-0.1,0.7-0.3,1c-0.2,0.3-0.4,0.5-0.6,0.6c-0.3,0.2-0.6,0.3-0.9,0.4
		c-0.3,0.1-0.6,0.1-1,0.1c-0.8,0-1.5-0.2-2-0.6c-0.5-0.4-0.8-1-0.9-1.9h0.8c0,0.6,0.2,1,0.6,1.3c0.4,0.3,0.8,0.4,1.4,0.4
		c0.2,0,0.4,0,0.6-0.1c0.2,0,0.4-0.1,0.6-0.2s0.3-0.2,0.5-0.4c0.1-0.2,0.2-0.4,0.2-0.6c0-0.2,0-0.4-0.1-0.5
		c-0.1-0.1-0.2-0.3-0.3-0.4c-0.1-0.1-0.3-0.2-0.5-0.2c-0.2-0.1-0.4-0.1-0.6-0.2l-1.1-0.2c-0.3-0.1-0.5-0.2-0.8-0.3
		c-0.2-0.1-0.4-0.2-0.6-0.4c-0.2-0.1-0.3-0.3-0.4-0.5c-0.1-0.2-0.1-0.5-0.1-0.8c0-0.4,0.1-0.7,0.2-0.9c0.2-0.3,0.4-0.5,0.6-0.6
		c0.2-0.2,0.5-0.3,0.8-0.3c0.3-0.1,0.6-0.1,0.9-0.1c0.3,0,0.7,0,1,0.1c0.3,0.1,0.6,0.2,0.8,0.4c0.2,0.2,0.4,0.4,0.5,0.7
		c0.1,0.3,0.2,0.6,0.2,1h-0.8C128.6,56.6,128.6,56.4,128.5,56.2z"/>
	<path class="st1" d="M135.2,54.9c0.4,0.2,0.7,0.5,1,0.8c0.3,0.3,0.5,0.7,0.6,1.2c0.1,0.4,0.2,0.9,0.2,1.4c0,0.5-0.1,1-0.2,1.4
		c-0.1,0.4-0.3,0.8-0.6,1.2c-0.3,0.3-0.6,0.6-1,0.8c-0.4,0.2-0.9,0.3-1.4,0.3c-0.5,0-1-0.1-1.4-0.3c-0.4-0.2-0.7-0.5-1-0.8
		c-0.3-0.3-0.5-0.7-0.6-1.2c-0.1-0.4-0.2-0.9-0.2-1.4c0-0.5,0.1-1,0.2-1.4c0.1-0.4,0.3-0.8,0.6-1.2c0.3-0.3,0.6-0.6,1-0.8
		c0.4-0.2,0.9-0.3,1.4-0.3C134.3,54.6,134.8,54.7,135.2,54.9z M132.8,55.6c-0.3,0.2-0.6,0.4-0.7,0.7c-0.2,0.3-0.3,0.6-0.5,1
		c-0.1,0.4-0.2,0.7-0.2,1.1c0,0.4,0.1,0.7,0.2,1.1c0.1,0.4,0.3,0.7,0.5,1c0.2,0.3,0.4,0.5,0.7,0.7c0.3,0.2,0.6,0.3,1,0.3
		c0.4,0,0.7-0.1,1-0.3c0.3-0.2,0.6-0.4,0.7-0.7c0.2-0.3,0.3-0.6,0.5-1c0.1-0.4,0.2-0.7,0.2-1.1c0-0.4-0.1-0.7-0.2-1.1
		c-0.1-0.4-0.3-0.7-0.5-1c-0.2-0.3-0.4-0.5-0.7-0.7c-0.3-0.2-0.6-0.3-1-0.3C133.4,55.3,133.1,55.4,132.8,55.6z"/>
	<path class="st1" d="M143.1,61.8v-1.3h0c-0.2,0.5-0.5,0.8-1,1.1c-0.4,0.2-0.9,0.4-1.4,0.4c-0.4,0-0.8-0.1-1.1-0.2
		c-0.3-0.1-0.6-0.3-0.7-0.5c-0.2-0.2-0.3-0.5-0.4-0.8c-0.1-0.3-0.1-0.7-0.1-1.1v-4.5h0.8v4.5c0,0.6,0.2,1.1,0.4,1.4
		c0.3,0.3,0.7,0.5,1.4,0.5c0.4,0,0.7-0.1,0.9-0.2c0.3-0.2,0.5-0.4,0.6-0.6c0.2-0.3,0.3-0.6,0.4-0.9c0.1-0.3,0.1-0.7,0.1-1v-3.7h0.8
		v7H143.1z"/>
	<path class="st1" d="M146.2,54.8v1.6h0c0.2-0.6,0.5-1,1-1.3c0.4-0.3,1-0.4,1.6-0.4v0.9c-0.4,0-0.7,0-1,0.2
		c-0.3,0.1-0.6,0.3-0.8,0.5c-0.2,0.2-0.4,0.5-0.5,0.8c-0.1,0.3-0.2,0.7-0.2,1v3.7h-0.8v-7H146.2z"/>
	<path class="st1" d="M153.5,55.8c-0.3-0.3-0.7-0.4-1.3-0.4c-0.4,0-0.7,0.1-1,0.3c-0.3,0.2-0.6,0.4-0.7,0.7c-0.2,0.3-0.3,0.6-0.5,1
		c-0.1,0.4-0.2,0.7-0.2,1.1c0,0.4,0.1,0.7,0.2,1.1c0.1,0.4,0.3,0.7,0.5,1c0.2,0.3,0.4,0.5,0.7,0.7c0.3,0.2,0.6,0.3,1,0.3
		c0.3,0,0.5,0,0.7-0.1c0.2-0.1,0.4-0.2,0.6-0.4c0.2-0.2,0.3-0.4,0.4-0.6c0.1-0.2,0.2-0.5,0.2-0.8h0.8c-0.1,0.8-0.4,1.5-0.9,2
		S153,62,152.2,62c-0.5,0-1-0.1-1.4-0.3c-0.4-0.2-0.7-0.5-1-0.8c-0.3-0.3-0.5-0.7-0.6-1.2c-0.1-0.4-0.2-0.9-0.2-1.4
		c0-0.5,0.1-1,0.2-1.4c0.1-0.4,0.3-0.8,0.6-1.2c0.3-0.3,0.6-0.6,1-0.8c0.4-0.2,0.9-0.3,1.4-0.3c0.7,0,1.4,0.2,1.9,0.6
		c0.5,0.4,0.8,1,0.9,1.8h-0.8C154.1,56.5,153.9,56.1,153.5,55.8z"/>
	<path class="st1" d="M156.9,59.5c0.1,0.3,0.2,0.6,0.4,0.9c0.2,0.3,0.4,0.5,0.7,0.6c0.3,0.2,0.6,0.3,1,0.3c0.6,0,1.1-0.2,1.4-0.5
		c0.3-0.3,0.6-0.8,0.7-1.3h0.8c-0.2,0.8-0.5,1.4-1,1.8c-0.5,0.4-1.1,0.6-2,0.6c-0.5,0-1-0.1-1.4-0.3c-0.4-0.2-0.7-0.5-1-0.8
		c-0.2-0.3-0.4-0.7-0.6-1.2c-0.1-0.4-0.2-0.9-0.2-1.4c0-0.5,0.1-0.9,0.2-1.4c0.1-0.4,0.3-0.8,0.6-1.2c0.2-0.3,0.6-0.6,1-0.8
		c0.4-0.2,0.9-0.3,1.4-0.3c0.5,0,1,0.1,1.4,0.3c0.4,0.2,0.7,0.5,0.9,0.9c0.2,0.4,0.4,0.8,0.5,1.3c0.1,0.5,0.2,1,0.1,1.4h-5.3
		C156.7,58.9,156.8,59.2,156.9,59.5z M161,56.9c-0.1-0.3-0.2-0.6-0.4-0.8c-0.2-0.2-0.4-0.4-0.7-0.6c-0.3-0.1-0.6-0.2-0.9-0.2
		c-0.3,0-0.6,0.1-0.9,0.2c-0.3,0.1-0.5,0.3-0.7,0.6c-0.2,0.2-0.3,0.5-0.4,0.8c-0.1,0.3-0.2,0.6-0.2,0.9h4.4
		C161.2,57.5,161.1,57.2,161,56.9z"/>
</g>
</svg>
