<svg xmlns="http://www.w3.org/2000/svg" width="508" height="506" viewBox="0 0 508 506"><style>.style0{fill: #787878;}.style1{stop-color: #838383;}.style10{fill: url(#SVGID_3_);}.style11{fill: #FFFF00;}.style12{fill: url(#SVGID_4_);}.style13{fill: url(#SVGID_5_);}.style14{stop-color: #9E9E9E;stop-opacity: 0.5882;}.style15{stop-color: #9E9E9E;stop-opacity: 0;}.style16{fill: url(#SVGID_6_);}.style17{stop-color: #BCBCBC;}.style18{fill: url(#SVGID_7_);}.style19{fill: url(#SVGID_8_);}.style2{stop-color: #838383;stop-opacity: 0;}.style20{fill: url(#SVGID_9_);}.style21{stop-color: #D9D9D9;}.style22{fill: url(#SVGID_10_);}.style23{stroke: #696969;stroke-width: 2;stroke-miterlimit: 10;fill: none;}.style3{fill: url(#SVGID_1_);}.style4{fill: #A3A3A3;}.style5{fill: #838383;}.style6{stop-color: #FFFFFF;stop-opacity: 0.902;}.style7{fill: url(#SVGID_2_);}.style8{stop-color: #E2E2E2;}.style9{stop-color: #FFFFFF;}</style><path class="style0" d="M43.5 94.4v155l91.9-18.3 30-93 50 174 42-126.8 31 85.3 147.8-74.9v-56.9z"/><linearGradient id="SVGID_1_" gradientUnits="userSpaceOnUse" x1="2156.1" y1="-2770.4" x2="2157.4" y2="-2870.8" gradientTransform="matrix(.251 0 0 -.251 -303.18 -222.069)"><stop offset="0" class="style1"/><stop offset="1" class="style2"/></linearGradient><path d="M39.4 472.9c0 10.5.5 22.2 13 23.2h368.4c4.7 0 15.9-10.1 15.8-20.5l-397.2-2.7z" class="style3"/><path d="M165.4 166l-30 93-96.1 19.1v193.5c0 3.6 1.4 7.1 4 9.7 2.6 2.6 6 4 9.7 4h368.4c4.7 0 9-2.4 11.6-6.4l-189.9-231.8-30.7 92.9-47-174zM160.3 145.9l-114.7-140.1c-4 2.5-6.4 6.9-6.4 11.6v224.8l96.1-19.1 25-77.2zM236.8 239.4l-61.7-75.4 40.3 140.1z" class="style4"/><path d="M165.4 130.1l50 174 42-126.8 31 85.3 150.9-76.9v-57c0-5.4-2.2-10.7-6-14.5l-108.9-108.7c-3.8-3.8-9.1-6-14.5-6h-252.7c-3.6 0-7.1 1.4-9.7 4-2.6 2.6-4 6-4 9.7v228.2l91.9-18.3 30-93zM254.4 213.2l-42 126.8-47-174-30 93-91.9 18.3v190.1c0 3.6 1.4 7.1 4 9.7 2.6 2.6 6 4 9.7 4h368.4c3.6 0 7.1-1.4 9.7-4 2.6-2.6 4-6 4-9.7v-256.9l-152.9 88-32-85.3z" class="style5"/><linearGradient id="SVGID_2_" gradientUnits="userSpaceOnUse" x1="2803.3" y1="-1273.4" x2="2852.4" y2="-1223.3" gradientTransform="matrix(.241 0 0 -.241 -313.613 -231.653)"><stop offset="0" class="style6"/><stop offset="1" class="style1"/></linearGradient><path d="M324.6 10.5v95.7c0 1.8.7 3.6 2 4.8 1.3 1.3 3 2 4.8 2h95.7l-102.5-102.5z" class="style7"/><linearGradient id="SVGID_3_" gradientUnits="userSpaceOnUse" x1="2532.6" y1="-2912.6" x2="2532.6" y2="-1500.1" gradientTransform="matrix(.241 0 0 -.241 -313.613 -231.653)"><stop offset="0" class="style8"/><stop offset="1" class="style9"/></linearGradient><path class="style10" d="M257.4 177.3l31 85.3 140.6-71.6v-60.9h-263.6l50 174z"/><linearGradient id="SVGID_4_" gradientUnits="userSpaceOnUse" x1="1754.6" y1="-2912.6" x2="1754.6" y2="-1500.1" gradientTransform="matrix(.241 0 0 -.241 -313.613 -231.653)"><stop offset="0" class="style8"/><stop offset="1" class="style9"/></linearGradient><path class="style12" d="M165.4 130.1h-111.7v109.2l81.7-16.2z"/><linearGradient id="SVGID_5_" gradientUnits="userSpaceOnUse" x1="2301.2" y1="-2912.6" x2="2301.2" y2="-1500.1" gradientTransform="matrix(.241 0 0 -.241 -313.613 -231.653)"><stop offset="0" class="style8"/><stop offset="1" class="style9"/></linearGradient><path d="M254.4 213.2l-42 126.8-47-174-30 93-81.6 16.2v181.9c0 3.6 1.4 7.1 4 9.7 2.6 2.6 6 4 9.7 4h347.9c3.6 0 7.1-1.4 9.7-4s4-6 4-9.7v-240.7l-142.6 82.1-32.1-85.3z" class="style13"/><radialGradient id="SVGID_6_" cx="-1084.5" cy="425" r="379.8" gradientTransform="matrix(-.252 -.263 -.143 .137 155.99 -240.502)" gradientUnits="userSpaceOnUse"><stop offset="0" class="style14"/><stop offset="1" class="style15"/></radialGradient><path class="style16" d="M254.4 213.2l-32.2 97 213.6 7.5v-105.2l-149.4 86z"/><radialGradient id="SVGID_7_" cx="-951.4" cy="-1844.8" r="806.3" gradientTransform="matrix(0 -.223 -.459 0 -419.019 265.877)" gradientUnits="userSpaceOnUse"><stop offset="0" class="style17"/><stop offset="1" class="style9"/></radialGradient><path d="M165.4 130.1l50 174 42-126.8 31 85.3 147.5-75.2v-50.4c0-5.4-2.2-10.7-6-14.5-3.8-3.8-9.1-6-14.5-6h-83.9c-5.7 0-10.3-4.6-10.3-10.3v-82.8c0-5.4-2.2-10.7-6-14.5-3.8-3.8-9.1-6-14.5-6h-243.5c-2.7 0-5.3 1.1-7.3 3-1.9 1.9-3 4.5-3 7.3v227.6l88.5-17.6 30-93.1z" class="style18"/><radialGradient id="SVGID_8_" cx="-1084.5" cy="425" r="379.8" gradientTransform="matrix(-.252 -.263 -.143 .137 155.99 -240.502)" gradientUnits="userSpaceOnUse"><stop offset="0" class="style14"/><stop offset="1" class="style15"/></radialGradient><path d="M165.4 130.1l50 174 42-126.8 31 85.3 147.5-75.2v-50.6c0-5.4-2.2-10.7-6-14.5-3.8-3.8-9.1-6-14.5-6h-83.9c-5.7 0-10.3-4.6-10.3-10.3v-82.7c0-5.4-2.2-10.7-6-14.5-3.8-3.8-9.1-6-14.5-6h-190.7l3.1 224.8 22.3-4.4 30-93.1z" class="style19"/><radialGradient id="SVGID_9_" cx="-1084.5" cy="425" r="379.8" gradientTransform="matrix(-.252 -.263 -.143 .137 155.99 -240.502)" gradientUnits="userSpaceOnUse"><stop offset="0" class="style14"/><stop offset="1" class="style15"/></radialGradient><path class="style20" d="M135.4 259l-21.8 4.3.6 43.1 89.9 3.1-38.7-143.5z"/><linearGradient id="SVGID_10_" gradientUnits="userSpaceOnUse" x1="-951.4" y1="-1440.2" x2="102.8" y2="-1440.2" gradientTransform="matrix(0 -.223 -.459 0 -419.019 265.877)"><stop offset="0" class="style21"/><stop offset="1" class="style9"/></linearGradient><path d="M254.4 213.2l-42 126.8-47-174-30 93-88.5 17.6v190.8c0 2.7 1.1 5.3 3 7.3 1.9 1.9 4.5 3 7.3 3h368.4c2.7 0 5.3-1.1 7.3-3 1.9-1.9 3-4.5 3-7.3v-254.9l-149.5 86-32-85.3z" class="style22"/><path class="style23" d="M39.2 278.1l96.2-19.1 30-93 47 174 42-126.8 32 85.3 152.8-88"/></svg>