<svg xmlns="http://www.w3.org/2000/svg" xmlns:xlink="http://www.w3.org/1999/xlink" viewBox="0 0 216.96 127.25"><defs><style>.a{fill:#87898b;}.b{fill:#97999b;}.c{fill:#231f20;}.d{fill:#434345;}.e{fill:url(#a);}.f{fill:url(#b);}.g{fill:url(#c);}.h{fill:url(#d);}.i{fill:url(#e);}.j{fill:#939598;}.k{fill:#fff;}</style><linearGradient id="a" x1="0.23" y1="94.33" x2="200.76" y2="94.33" gradientUnits="userSpaceOnUse"><stop offset="0" stop-color="#91278f"/><stop offset="0.34" stop-color="#91278f"/><stop offset="0.36" stop-color="#009344"/><stop offset="0.5" stop-color="#009344"/><stop offset="0.52" stop-color="#2a3990"/><stop offset="0.69" stop-color="#2a3990"/><stop offset="0.71" stop-color="#ffca40"/><stop offset="1" stop-color="#ffca40"/></linearGradient><linearGradient id="b" x1="0.23" y1="66.76" x2="200.76" y2="66.76" xlink:href="#a"/><linearGradient id="c" x1="21.17" y1="91.52" x2="216.45" y2="91.52" gradientUnits="userSpaceOnUse"><stop offset="0" stop-color="#009244"/><stop offset="0.25" stop-color="#009244"/><stop offset="0.28" stop-color="#90278e"/><stop offset="0.43" stop-color="#90278e"/><stop offset="0.45" stop-color="#ffc940"/><stop offset="0.61" stop-color="#ffc940"/><stop offset="0.63" stop-color="#2a398f"/></linearGradient><linearGradient id="d" x1="21.17" y1="65.02" x2="216.45" y2="65.02" xlink:href="#c"/><linearGradient id="e" x1="21.17" y1="66.93" x2="216.45" y2="66.93" xlink:href="#c"/></defs><title>Artboard 1</title><polygon class="a" points="121.76 78.25 127.98 64.41 131.26 66.16 123.74 83.07 121.76 78.25"/><polygon class="b" points="136.35 112.03 142.79 79.78 139.39 79.25 133.73 109.09 136.35 112.03"/><path class="b" d="M175.36,73.54c-.16,2-1.17,15-1.17,15l-3.58-.33s.52-14.45.58-16.42C171.27,69.38,175.89,66.73,175.36,73.54Z"/><polygon class="c" points="71.79 46.44 77.83 75.94 81.29 75.1 75.96 45.77 71.79 46.44"/><polygon class="b" points="86.92 48.06 92.42 67.58 95.79 65.81 91.08 48.06 86.92 48.06"/><polygon class="c" points="49.85 111.78 46.67 93.72 50 92.84 53.33 113.48 49.85 111.78"/><path class="d" d="M66,118.21c-1-6.92-3.15-27-3.5-32.29l3.5-.37c.63,9.67,1.88,23.63,2.83,32.21Z"/><polygon class="c" points="162.14 54 158.6 82.16 155.07 81.75 158.32 51.63 162.14 54"/><path d="M3.13,76.91C.81,78.63.23,83.25.23,83.25A55.36,55.36,0,0,1,6.11,86a3.39,3.39,0,0,0,.49.93c2,2.88,13.28,17.3,13.28,17.3l2.56-2.14C20.76,99.46,15,92.35,15.32,92s6.87,4.36,10,6.89l7.09,5.69c-1.28,5.27-2.12,8.84-2.21,8.86-.27.07-6.56-9.58-6.56-9.58L21.17,106s7.9,10.68,8,11.33S27.89,122,27.57,123l3.16,2.17c.66-1.7,2.56-9.17,4.85-18.06,1.61,1.27,3.14,2.45,4.74,3.64V100.61l-2.45-2.33c.82-3.1,1.64-6.19,2.45-9.15V74.91c-2,6.38-3.93,13.82-5.6,20.46C20.89,82.86,12.93,79.61,3.13,76.91ZM201.7,86c-3.9,2.72-9.12,6.28-14.61,9.81-.49-2.26-1-4.41-1.36-6.23a80.93,80.93,0,0,0-8.94-23.33V87.29c.67,2.49,1.31,5,1.94,7.42.5,1.92,1,3.7,1.46,5.37l-1.27.76-2.13,1.25v4.45c1.61-.9,3.1-1.79,4.52-2.66,4.55,14.8,8.2,18.77,12.61,22.72l2.55-3.47c-1.21-1.57-2.91-3.48-3-4.25,0-.39,4.67-8.7,7.27-14.92-.7-.32-1.95-.91-3.18-1.39-1.67,2.68-5.37,11.23-6.08,11.73-.36.26-2-7.15-3.58-14.68l2.61-1.75c3.85-2.57,9.37-6.52,14.12-10-1.71,3.68-4.82,10.42-6,13.23l3,1.31c1.25-2.28,5.8-13.23,7.77-18,3-2.18,5-3.69,5-3.69l2.09-5.06C211.82,78.59,204.48,84,201.7,86Z"/><path class="e" d="M86,100.25c-9.67,15-16.79,16.88-23.25,16-8.14-1.1-12.52-6.12-21.89-15.15v10l.1.07c4.71,3.48,16,11.17,26.79,9.33,11.63-2,17.63-12.62,25.88-25.25a231.05,231.05,0,0,1,17.2-23.39c-.73-1.3-1.54-2.63-2.43-4C99.46,78.38,92,90.87,86,100.25Z"/><path class="f" d="M121.73,60.75c9.87-8.37,21.21-12.61,30.25-10,7.79,2.25,13.21,6.51,18,16.46,2.79,5.83,4.93,12.94,6.85,20.08V66.21c-.65-1.08-1.33-2.15-2.06-3.21-4.13-6-13.25-15.1-23.5-16.37-9.37-1.17-19.17-.25-32.42,10.75-1.72,1.43-3.4,3-5,4.62q1.49,1.73,2.83,3.54C118.31,63.81,120,62.2,121.73,60.75Z"/><path class="g" d="M176.79,102.1c-12.35,7.22-19.19,10.07-27.06,11.28s-15.31-2.25-17.06-9c-2.12-8.2-8.06-26-12.19-33a67.25,67.25,0,0,0-3.88-5.84c-1.95,2-3.88,4.09-5.8,6.33,2.37,4.2,4,8.08,5.43,11,3.52,7.25,10.5,27.18,17.37,30.93s14.88,5.83,27.13.63a158.9,158.9,0,0,0,16.06-7.82Z"/><path class="h" d="M103.36,52.5C96,47.38,82.48,40.13,67.61,43.75S44.74,62.29,43,66.88c-.71,1.88-1.44,4-2.17,6.37v14c1-3.49,1.91-6.72,2.77-9.39,4.5-14.12,10.33-22.25,15.58-25.5s18-9.6,33.42,0a51,51,0,0,1,15.77,15.55c1.74-2.05,3.54-4,5.4-5.89A55.57,55.57,0,0,0,103.36,52.5Z"/><path class="i" d="M116.6,65.54q-1.34-1.81-2.83-3.54c-1.86,1.86-3.65,3.84-5.4,5.89.89,1.34,1.69,2.67,2.43,4C112.72,69.62,114.66,67.5,116.6,65.54Z"/><path class="a" d="M83.63,103.31c-.8-3.69-5.29-25.75-5.29-25.75l3.29-.87s4.4,20.89,5.08,25.17C87.33,105.77,84.5,107.37,83.63,103.31Z"/><path class="d" d="M97.71,84.48c-.85-2.52-4.5-14.79-4.5-14.79L96.54,68s2.73,8.77,4,13.58S98.69,87.38,97.71,84.48Z"/><path class="a" d="M46.24,92C45.17,85.9,43.29,72.92,43,70s3.28-3.11,3.56-.59C46.7,71,49.1,88,49.61,91.1Z"/><path class="b" d="M62.36,84c-1.37-12.42-2-27.58-2.13-34.83-.09-3.84,3.88-4.5,4,.33.11,4.25.69,22.12,1.5,34.08Z"/><path class="d" d="M148.69,49.72c-.6,3.8-5.37,28.28-5.37,28.28l-3.56-.66s4.57-25.44,5.12-28.26C145.67,45,149.1,47.08,148.69,49.72Z"/><path class="a" d="M151,114.38c.17-1.71,4.09-30.87,4.09-30.87l3.11.45s-3.46,26.65-4,30.43C153.69,117.38,150.77,116.5,151,114.38Z"/><path class="d" d="M169.73,107.17c0-2.58.83-17.42.83-17.42l3.42.33s-.71,14.5-1,16.87S169.73,109.75,169.73,107.17Z"/><path class="c" d="M128.73,62.56s4.49-9.79,5.22-11.31c2.25-4.72,5-1.25,3.84,1.25-1.52,3.29-5.72,11.91-5.72,11.91Z"/><path class="j" d="M175.29,37.74v85.11H41.82V37.74H175.29m1.5-1.5H40.32v88.11H176.79V36.24Z"/><path d="M40.84.71V36.24h135.4V.71Z"/><path class="k" d="M125.71,12.48a8.81,8.81,0,0,0-4.45-1.2,8.58,8.58,0,0,0-4.38,1.2,8.67,8.67,0,0,0-3.23,3.25,9,9,0,0,0-1.16,4.55,8.76,8.76,0,0,0,8.78,8.83,8.91,8.91,0,0,0,4.49-1.18A8.42,8.42,0,0,0,129,24.71a9,9,0,0,0,1.16-4.53A8.82,8.82,0,0,0,129,15.69,8.63,8.63,0,0,0,125.71,12.48Zm-63.09-.67H52.76v6.53h9.77v2H52.76v8.18h9.77v2H50.68V9.77H62.62Zm20,18.79h-.47L68.38,14.83V30.6H66.23V9.77h.45l13.86,16v-16H82.6Zm8.91-4a9.06,9.06,0,0,0,6.59,2.55,9.27,9.27,0,0,0,7.32-3.43L107.06,27A10.49,10.49,0,0,1,103.18,30,12.18,12.18,0,0,1,98,31.13a10.82,10.82,0,0,1-8.62-3.64,11,11,0,0,1-2.65-7.42,10.32,10.32,0,0,1,3.21-7.7,11.06,11.06,0,0,1,8-3.12,11.79,11.79,0,0,1,5.27,1.15,10.21,10.21,0,0,1,3.85,3.24l-1.64,1.26a9,9,0,0,0-3.26-2.68A9.54,9.54,0,0,0,98,11.3a9.25,9.25,0,0,0-4.62,1.2,8.59,8.59,0,0,0-3.29,3.21,8.9,8.9,0,0,0-1.17,4.54A8.52,8.52,0,0,0,91.51,26.61Zm37.58,1.33a10.55,10.55,0,0,1-7.76,3.19A10.66,10.66,0,0,1,113.51,28a10.43,10.43,0,0,1-3.19-7.67,11.1,11.1,0,0,1,1.45-5.56,10.73,10.73,0,0,1,9.39-5.47,10.81,10.81,0,0,1,7.92,3.16,10.51,10.51,0,0,1,3.19,7.77A10.57,10.57,0,0,1,129.09,27.94Zm23.55-2a8.67,8.67,0,0,1-3.51,3.51,13.22,13.22,0,0,1-6.05,1.13h-6.63V9.77h4.32a22.05,22.05,0,0,1,6.78.75,9.07,9.07,0,0,1,4.74,3.68A11.19,11.19,0,0,1,154,20.45,11,11,0,0,1,152.64,26ZM170,11.81h-9.86v6.53h9.77v2h-9.77v8.18h9.77v2H158V9.77H170Zm-23.62.59a24.59,24.59,0,0,0-6.44-.59h-1.47V28.63h2.41a22.43,22.43,0,0,0,6-.54,6.9,6.9,0,0,0,3.7-2.75,8.47,8.47,0,0,0,1.34-4.86,8.91,8.91,0,0,0-1.46-5.15A7.35,7.35,0,0,0,146.36,12.4Z"/></svg>