<svg xmlns="http://www.w3.org/2000/svg" width="508" height="506" viewBox="0 0 508 506"><linearGradient id="a" gradientUnits="userSpaceOnUse" x1="1106.675" y1="-1563.467" x2="1108.012" y2="-1663.824" gradientTransform="matrix(.251 0 0 -.251 -39.792 80.869)"><stop offset="0" stop-color="#838383"/><stop offset="1" stop-color="#838383" stop-opacity="0"/></linearGradient><path fill="url(#a)" d="M39.414 472.871c.044 10.549.458 22.243 13.001 23.235h368.407c4.688 0 15.928-10.119 15.75-20.457l-397.158-2.778z"/><path fill="#A3A3A3" d="M45.607 5.81c-3.963 2.506-6.365 6.867-6.365 11.556v454.247c0 3.626 1.44 7.104 4.004 9.668 2.564 2.564 6.042 4.005 9.668 4.005h368.406c4.688 0 9.05-2.402 11.556-6.365l-387.269-473.111z"/><path fill="#838383" d="M439.242 128.792c0-5.439-2.161-10.656-6.007-14.502l-108.838-108.838c-3.847-3.846-9.063-6.007-14.502-6.007h-252.733c-3.626 0-7.104 1.44-9.668 4.005-2.564 2.564-4.004 6.042-4.004 9.668v454.248c0 3.626 1.44 7.104 4.004 9.668 2.564 2.563 6.042 4.004 9.668 4.004h368.407c3.626 0 7.104-1.44 9.668-4.004 2.564-2.564 4.005-6.042 4.005-9.668v-338.574z"/><radialGradient id="b" cx="1146.032" cy="-1579.831" r="806.301" gradientTransform="matrix(0 -.223 -.459 0 -297.505 732.68)" gradientUnits="userSpaceOnUse"><stop offset="0" stop-color="#BCBCBC"/><stop offset="1" stop-color="#fff"/></radialGradient><path fill="url(#b)" d="M435.824 136.973c0-5.439-2.161-10.656-6.007-14.502-3.847-3.846-9.063-6.007-14.503-6.007h-83.867c-5.663 0-10.254-4.591-10.254-10.254v-82.838c0-5.439-2.162-10.656-6.008-14.502-3.846-3.847-9.062-6.007-14.502-6.007h-243.521c-2.719 0-5.328 1.081-7.251 3.004s-3.003 4.531-3.003 7.251v454.248c0 2.719 1.081 5.327 3.003 7.25 1.923 1.924 4.532 3.004 7.251 3.004h368.407c2.72 0 5.328-1.08 7.251-3.004 1.923-1.923 3.004-4.531 3.004-7.25v-330.393z"/><linearGradient id="c" gradientUnits="userSpaceOnUse" x1="1199.305" y1="-1638.546" x2="1199.305" y2="-226.085" gradientTransform="matrix(.241 0 0 -.241 -47.873 75.61)"><stop offset="0" stop-color="#E2E2E2"/><stop offset="1" stop-color="#fff"/></linearGradient><path fill="url(#c)" d="M428.987 130.136h-375.243v326.974c0 3.626 1.44 7.104 4.005 9.668 2.564 2.563 6.042 4.005 9.668 4.005h347.897c3.627 0 7.104-1.441 9.668-4.005 2.564-2.564 4.005-6.042 4.005-9.668v-326.974z"/><linearGradient id="d" gradientUnits="userSpaceOnUse" x1="1701.414" y1=".672" x2="1750.535" y2="50.719" gradientTransform="matrix(.241 0 0 -.241 -47.873 75.61)"><stop offset="0" stop-color="#fff" stop-opacity=".902"/><stop offset="1" stop-color="#838383"/></linearGradient><path fill="url(#d)" d="M324.611 10.499v95.71c0 1.813.72 3.552 2.002 4.834s3.021 2.002 4.834 2.002h95.71l-102.546-102.546z"/><radialGradient id="e" cx="590.148" cy="-281.968" r="379.763" gradientTransform="matrix(-.252 -.263 -.143 .137 476.999 296.151)" gradientUnits="userSpaceOnUse"><stop offset="0" stop-color="#9E9E9E" stop-opacity=".588"/><stop offset="1" stop-color="#9E9E9E" stop-opacity="0"/></radialGradient><path fill="url(#e)" d="M415.311 116.382h-83.878c-5.664 0-10.256-4.592-10.256-10.256v-82.847c0-5.44-2.161-10.657-6.007-14.504-3.848-3.847-9.064-6.008-14.505-6.008h-190.696l4.243 303.61 321.611 11.313v-180.796c0-5.44-2.161-10.657-6.008-14.504-3.846-3.847-9.064-6.008-14.504-6.008z"/><linearGradient id="f" gradientUnits="userSpaceOnUse" x1="190.058" y1="15.877" x2="124.675" y2="217.105" gradientTransform="matrix(1 0 0 -1 84 481)"><stop offset=".315" stop-color="#5E0000"/><stop offset=".444" stop-color="#830000" stop-opacity=".999"/><stop offset=".618" stop-color="#AE0000" stop-opacity=".998"/><stop offset=".775" stop-color="#CD0000" stop-opacity=".997"/><stop offset=".908" stop-color="#E00000" stop-opacity=".996"/><stop offset="1" stop-color="#E70000" stop-opacity=".996"/></linearGradient><path fill="url(#f)" d="M428.987 414.783h-375.243v-100.549h375.243v100.549zm-13.498-90.582h-348.256v80.594h348.256v-80.594z"/><linearGradient id="g" gradientUnits="userSpaceOnUse" x1="186.376" y1="26.079" x2="127.94" y2="205.927" gradientTransform="matrix(1 0 0 -1 84 481)"><stop offset=".127" stop-color="#8A0000"/><stop offset=".244" stop-color="#900000" stop-opacity=".999"/><stop offset=".398" stop-color="#A00000" stop-opacity=".999"/><stop offset=".573" stop-color="#BC0000" stop-opacity=".998"/><stop offset=".761" stop-color="#E20000" stop-opacity=".997"/><stop offset=".867" stop-color="#FA0000" stop-opacity=".996"/></linearGradient><path fill="url(#g)" d="M64.204 323.075h353.907v83.844h-353.907z"/><path fill="#FFF9F9" d="M172.532 334.928h20.083c5.97 0 10.548 1.705 13.733 5.115 3.207 3.385 4.81 8.217 4.81 14.501 0 6.312-1.603 11.171-4.81 14.581-3.185 3.384-7.763 5.076-13.733 5.074h-7.983v20.866h-12.099v-60.137m12.098 11.237v16.796h6.696c2.345 0 4.158-.724 5.437-2.174 1.278-1.479 1.917-3.559 1.917-6.243 0-2.687-.638-4.755-1.917-6.204-1.277-1.45-3.091-2.176-5.437-2.176l-6.696.001m47.142.483v36.695h4.335c4.944 0 8.717-1.57 11.313-4.713 2.619-3.143 3.929-7.708 3.929-13.694 0-5.963-1.299-10.499-3.897-13.616-2.596-3.115-6.379-4.672-11.345-4.672h-4.335m-12.1-11.72h12.758c7.124 0 12.426.658 15.902 1.973 3.498 1.291 6.495 3.492 8.988 6.607 2.2 2.712 3.834 5.84 4.903 9.385 1.068 3.545 1.603 7.56 1.603 12.044 0 4.537-.536 8.594-1.603 12.165-1.069 3.543-2.703 6.672-4.904 9.385-2.515 3.115-5.53 5.33-9.05 6.646-3.52 1.289-8.8 1.934-15.84 1.934h-12.758v-60.139m53.426 0h32.652v11.721h-20.553v11.199h19.327v11.723h-19.327v25.495h-12.1v-60.138"/></svg>