<?xml version="1.0" standalone="no"?>
<!DOCTYPE svg PUBLIC "-//W3C//DTD SVG 1.1//EN" "http://www.w3.org/Graphics/SVG/1.1/DTD/svg11.dtd">
<svg xmlns="http://www.w3.org/2000/svg" xmlns:xlink="http://www.w3.org/1999/xlink" version="1.1"
     width="508" height="506" viewBox="-0.758 -0.715 1660 2016">
<defs>
 <linearGradient id="l1">
  <stop style="stop-color:#838383;stop-opacity:1" offset="0" />
  <stop style="stop-color:#838383;stop-opacity:0" offset="1" />
 </linearGradient>
 <linearGradient id="l2">
  <stop style="stop-color:#9e9e9e;stop-opacity:0.58823532" offset="0" />
  <stop style="stop-color:#9e9e9e;stop-opacity:0" offset="1" />
 </linearGradient>
 <linearGradient id="l3">
  <stop style="stop-color:#ffffff;stop-opacity:0.90196079" offset="0" />
  <stop style="stop-color:#838383;stop-opacity:1" offset="1" />
 </linearGradient>
 <linearGradient id="l4">
  <stop style="stop-color:#bcbcbc;stop-opacity:1" offset="0" />
  <stop style="stop-color:#ffffff;stop-opacity:1" offset="1" />
 </linearGradient>
 <linearGradient id="l5">
  <stop style="stop-color:#e2e2e2;stop-opacity:1" offset="0" />
  <stop style="stop-color:#ffffff;stop-opacity:1" offset="1" />
 </linearGradient>
 <linearGradient
     x1="838.08698"
     y1="1954.358"
     x2="838.08698"
     y2="541.89899"
     id="l21"
     xlink:href="#l5"
     gradientUnits="userSpaceOnUse"
     gradientTransform="matrix(0.960879,0,0,0.960879,-23.3746,-0.07848447)" />
 <radialGradient
     cx="1607.4192"
     cy="1804.7415"
     r="806.302"
     fx="1607.4192"
     fy="1804.7415"
     id="r2"
     xlink:href="#l4"
     gradientUnits="userSpaceOnUse"
     gradientTransform="matrix(8.237738e-7,-0.886723,1.8269,1.699215e-6,-1775.925,3330.394)" />
 <linearGradient
     x1="1340.1351"
     y1="315.07806"
     x2="1389.2557"
     y2="265.03156"
     id="l22"
     xlink:href="#l3"
     gradientUnits="userSpaceOnUse"
     gradientTransform="matrix(0.960879,0,0,0.960879,-23.3746,-0.07848447)" />
 <radialGradient
     cx="1188.8058"
     cy="482.36795"
     r="379.76288"
     fx="1188.8058"
     fy="482.36795"
     id="r3"
     xlink:href="#l2"
     gradientUnits="userSpaceOnUse"
     gradientTransform="matrix(-1.003596,-1.046797,0.568186,-0.544737,2207.68,1917.896)" />
 <linearGradient
     x1="767.15399"
     y1="1887.8104"
     x2="768.49084"
     y2="1988.1707"
     id="l23"
     xlink:href="#l1"
     gradientUnits="userSpaceOnUse" />
</defs>
<path
   d="m -22.691066,1886.1419 c 0.177812,42.0304 1.82245,88.6201 51.80132,92.5757 l 1467.802846,0 c 18.6784,0 63.4617,-40.3183 62.7513,-81.507 L -22.691066,1886.1419 z"
   style="fill:url(#l23);fill-opacity:1;fill-rule:evenodd" />
<path
   d="m 1.9839332,25.279576 c -15.7881882,9.98447 -25.3585342,27.36091 -25.3585342,46.04033 l 0,1809.806394 c 0,14.4475 5.739325,28.3037 15.9553812,38.5197 10.216057,10.2168 24.0719178,15.9552 38.5196788,15.9552 l 1467.802841,0 c 18.6784,0 36.0559,-9.5703 46.0404,-25.3585 L 1.9839332,25.279576 z"
   style="fill:#a3a3a3;fill-opacity:1;fill-rule:evenodd" />
<path
   d="m 1570.3013,515.26387 c 0,-21.67169 -8.6085,-42.45533 -23.9326,-57.77958 L 1112.7398,23.854476 C 1097.4147,8.5304215 1076.631,-0.07809747 1054.9603,-0.07809747 l -1006.936854,0 c -14.446803,0 -28.302664,5.73953797 -38.5196818,15.95555747 -10.21605399,10.216036 -15.95538,24.071806 -15.95538,38.519526 l 0,1809.807114 c 0,14.447 5.73932601,28.3028 15.95538,38.5198 10.2160578,10.216 24.0719168,15.9544 38.5196818,15.9544 l 1467.803754,0 c 14.4478,0 28.3036,-5.7394 38.5197,-15.9544 10.216,-10.217 15.9544,-24.0728 15.9544,-38.5198 l 0,-1348.94023 z"
   style="fill:#838383;fill-opacity:1;fill-rule:evenodd" />
<path
   d="m 1556.6828,547.85877 c 0,-21.67169 -8.6086,-42.45534 -23.9326,-57.77959 -15.3241,-15.32386 -36.1079,-23.9324 -57.7795,-23.9324 l -334.1435,0 c -22.5643,0 -40.8565,-18.29233 -40.8565,-40.85667 l 0,-330.037604 c 0,-21.6715 -8.6095,-42.45553 -23.9326,-57.77939 -15.3241,-15.32425 -36.1079,-23.932599 -57.7795,-23.932599 l -970.235154,0 c -10.835823,0 -21.227719,4.303693 -28.889761,11.966589 -7.662042,7.66231 -11.9667758,18.05404 -11.9667758,28.88988 l 0,1809.807114 c 0,10.8349 4.3047338,21.2278 11.9667758,28.8888 7.662042,7.6621 18.053938,11.9667 28.889761,11.9667 l 1467.803754,0 c 10.8348,0 21.2277,-4.3046 28.8888,-11.9667 7.663,-7.662 11.9668,-18.0539 11.9668,-28.8888 l 0,-1316.34533 z"
   style="fill:url(#r2);fill-opacity:1;fill-rule:evenodd" />
<path
   d="m 1529.4447,520.62073 -1495.039779,0 0,1302.72597 c 0,14.4477 5.739326,28.3037 15.95538,38.5195 10.216056,10.2161 24.071915,15.9556 38.519678,15.9556 l 1386.090721,0 c 14.4477,0 28.3036,-5.7403 38.5196,-15.9556 10.2161,-10.215 15.9544,-24.0718 15.9544,-38.5195 l 0,-1302.72597 z"
   style="fill:url(#l21);fill-opacity:1;fill-rule:evenodd" />
<path
   d="m 1113.5892,43.964746 0,381.325364 c 0,7.22396 2.8692,14.15184 7.9782,19.26006 5.108,5.10782 12.036,7.97702 19.2598,7.97702 l 381.3255,0 -408.5635,-408.562444 z"
   style="fill:url(#l22);fill-opacity:1;fill-rule:evenodd" />
<path
   d="m 1474.9553,465.82152 -334.1861,0 c -22.5671,0 -40.8616,-18.29456 -40.8616,-40.86184 l 0,-330.078624 c 0,-21.6744 -8.6107,-42.46081 -23.9357,-57.78693 -15.326,-15.32601 -36.1127,-23.93554 -57.7869,-23.93554 l -759.77149,0 16.90348,1209.639514 1281.36001,45.0759 0,-720.33001 c 0,-21.67441 -8.6098,-42.46082 -23.9358,-57.78681 -15.3249,-15.32518 -36.1115,-23.93566 -57.7859,-23.93566 z"
   style="fill:url(#r3);fill-opacity:1;fill-rule:evenodd" />
<path
   d="m 1632.897,-1575.451 -451.284,-451.285 c -15.949,-15.948 -37.579,-24.907 -60.132,-24.907 l -1047.934,0 c -31.31,0 -56.693,25.382 -56.693,56.693 l 0,1883.49299 c 0,31.311001 25.382,56.692001 56.693,56.692001 l 1527.565,0 c 31.311,0 56.692,-25.382 56.692,-56.692001 l 0,-1403.86199 c 0,-22.554 -8.959,-44.184 -24.907,-60.132 z"
   style="fill:#ffff00;fill-rule:evenodd;display:none" />
</svg>