<svg xmlns="http://www.w3.org/2000/svg" xmlns:xlink="http://www.w3.org/1999/xlink" version="1.1" id="Layer_1" x="0px" y="0px" width="508px" height="506px" viewBox="0 0 508 506" enable-background="new 0 0 508 506" xml:space="preserve"><style>.style0{fill:	#787878;}.style1{stop-color:	#838383;}.style10{fill:	url(#SVGID_3_);}.style11{fill:	#FFFF00;}.style12{fill:	url(#SVGID_4_);}.style13{fill:	url(#SVGID_5_);}.style14{stop-color:	#9E9E9E;stop-opacity:	0.5882;}.style15{stop-color:	#9E9E9E;stop-opacity:	0;}.style16{fill:	url(#SVGID_6_);}.style17{stop-color:	#BCBCBC;}.style18{fill:	url(#SVGID_7_);}.style19{fill:	url(#SVGID_8_);}.style2{stop-color:	#838383;stop-opacity:	0;}.style20{fill:	url(#SVGID_9_);}.style21{stop-color:	#D9D9D9;}.style22{fill:	url(#SVGID_10_);}.style23{stroke:	#696969;stroke-width:	2;stroke-miterlimit:	10;fill:	none;}.style3{fill:	url(#SVGID_1_);}.style4{fill:	#A3A3A3;}.style5{fill:	#838383;}.style6{stop-color:	#FFFFFF;stop-opacity:	0.902;}.style7{fill:	url(#SVGID_2_);}.style8{stop-color:	#E2E2E2;}.style9{stop-color:	#FFFFFF;}</style><polygon points="43.5,94.4 43.5,249.4 135.4,231.1 165.4,138.1 215.4,312.1 257.4,185.3 288.4,270.6 436.2,195.7 436.2,138.8" class="style0"/><linearGradient id="SVGID_1_" gradientUnits="userSpaceOnUse" x1="2156.1" y1="-2770.4" x2="2157.4" y2="-2870.8" gradientTransform="matrix(0.251 0 0 -0.251 -303.1798 -222.0692)"><stop offset="0" class="style1"/><stop offset="1" class="style2"/></linearGradient><path d="M39.4 472.9c0 10.5 0.5 22.2 13 23.2h368.4c4.7 0 15.9-10.1 15.8-20.5L39.4 472.9z" class="style3"/><path d="M165.4 166l-30 93l-96.1 19.1v193.5c0 3.6 1.4 7.1 4 9.7c2.6 2.6 6 4 9.7 4h368.4c4.7 0 9-2.4 11.6-6.4 L243.1 247.1L212.4 340L165.4 166z" class="style4"/><path d="M160.3 145.9L45.6 5.8c-4 2.5-6.4 6.9-6.4 11.6v224.8l96.1-19.1L160.3 145.9z" class="style4"/><polygon points="236.8,239.4 175.1,164 215.4,304.1" class="style4"/><path d="M165.4 130.1l50 174l42-126.8l31 85.3l150.9-76.9v-57h0c0-5.4-2.2-10.7-6-14.5L324.4 5.5 c-3.8-3.8-9.1-6-14.5-6H57.2c-3.6 0-7.1 1.4-9.7 4c-2.6 2.6-4 6-4 9.7v228.2l91.9-18.3L165.4 130.1z" class="style5"/><path d="M254.4 213.2l-42 126.8l-47-174l-30 93l-91.9 18.3v190.1c0 3.6 1.4 7.1 4 9.7c2.6 2.6 6 4 9.7 4h368.4 c3.6 0 7.1-1.4 9.7-4c2.6-2.6 4-6 4-9.7V210.5l-152.9 88L254.4 213.2z" class="style5"/><linearGradient id="SVGID_2_" gradientUnits="userSpaceOnUse" x1="2803.3" y1="-1273.4" x2="2852.4" y2="-1223.3" gradientTransform="matrix(0.2412 0 0 -0.2412 -313.6125 -231.6527)"><stop offset="0" class="style6"/><stop offset="1" class="style1"/></linearGradient><path d="M324.6 10.5v95.7c0 1.8 0.7 3.6 2 4.8c1.3 1.3 3 2 4.8 2h95.7L324.6 10.5L324.6 10.5z" class="style7"/><linearGradient id="SVGID_3_" gradientUnits="userSpaceOnUse" x1="2532.6" y1="-2912.6" x2="2532.6" y2="-1500.1" gradientTransform="matrix(0.2412 0 0 -0.2412 -313.6125 -231.6527)"><stop offset="0" class="style8"/><stop offset="1" class="style9"/></linearGradient><polygon points="257.4,177.3 288.4,262.6 429,191 429,130.1 165.4,130.1 215.4,304.1" class="style10"/><path display="none" d="M455-396L341.7-509.2c-4-4-9.4-6.3-15.1-6.3h-263c-7.9 0-14.2 6.4-14.2 14.2v472.7 c0 7.9 6.4 14.2 14.2 14.2H447c7.9 0 14.2-6.4 14.2-14.2v-352.4C461.2-386.5 459-392 455-396L455-396z" class="style11"/><linearGradient id="SVGID_4_" gradientUnits="userSpaceOnUse" x1="1754.6" y1="-2912.6" x2="1754.6" y2="-1500.1" gradientTransform="matrix(0.2412 0 0 -0.2412 -313.6125 -231.6527)"><stop offset="0" class="style8"/><stop offset="1" class="style9"/></linearGradient><polygon points="165.4,130.1 53.7,130.1 53.7,239.3 135.4,223.1" class="style12"/><linearGradient id="SVGID_5_" gradientUnits="userSpaceOnUse" x1="2301.2" y1="-2912.6" x2="2301.2" y2="-1500.1" gradientTransform="matrix(0.2412 0 0 -0.2412 -313.6125 -231.6527)"><stop offset="0" class="style8"/><stop offset="1" class="style9"/></linearGradient><path d="M254.4 213.2l-42 126.8l-47-174l-30 93l-81.6 16.2v181.9c0 3.6 1.4 7.1 4 9.7c2.6 2.6 6 4 9.7 4 h347.9c3.6 0 7.1-1.4 9.7-4s4-6 4-9.7V216.4l-142.6 82.1L254.4 213.2z" class="style13"/><radialGradient id="SVGID_6_" cx="-1084.5" cy="425" r="379.8" gradientTransform="matrix(-0.2519 -0.2627 -0.1426 0.1367 155.9903 -240.5017)" gradientUnits="userSpaceOnUse"><stop offset="0" class="style14"/><stop offset="1" class="style15"/></radialGradient><polygon points="254.4,213.2 222.2,310.2 435.8,317.7 435.8,212.5 286.4,298.5" class="style16"/><radialGradient id="SVGID_7_" cx="-951.4" cy="-1844.8" r="806.3" gradientTransform="matrix(2.067607e-07 -0.2226 -0.4585 -4.264895e-07 -419.0187 265.8768)" gradientUnits="userSpaceOnUse"><stop offset="0" class="style17"/><stop offset="1" class="style9"/></radialGradient><path d="M165.4 130.1l50 174l42-126.8l31 85.3l147.5-75.2V137c0-5.4-2.2-10.7-6-14.5c-3.8-3.8-9.1-6-14.5-6 h-83.9c-5.7 0-10.3-4.6-10.3-10.3V23.4c0-5.4-2.2-10.7-6-14.5c-3.8-3.8-9.1-6-14.5-6H57.2c-2.7 0-5.3 1.1-7.3 3 c-1.9 1.9-3 4.5-3 7.3v227.6l88.5-17.6L165.4 130.1z" class="style18"/><radialGradient id="SVGID_8_" cx="-1084.5" cy="425" r="379.8" gradientTransform="matrix(-0.2519 -0.2627 -0.1426 0.1367 155.9903 -240.5017)" gradientUnits="userSpaceOnUse"><stop offset="0" class="style14"/><stop offset="1" class="style15"/></radialGradient><path d="M165.4 130.1l50 174l42-126.8l31 85.3l147.5-75.2v-50.6c0-5.4-2.2-10.7-6-14.5c-3.8-3.8-9.1-6-14.5-6 h0h-83.9c-5.7 0-10.3-4.6-10.3-10.3V23.3c0-5.4-2.2-10.7-6-14.5c-3.8-3.8-9.1-6-14.5-6H110l3.1 224.8l22.3-4.4L165.4 130.1z" class="style19"/><radialGradient id="SVGID_9_" cx="-1084.5" cy="425" r="379.8" gradientTransform="matrix(-0.2519 -0.2627 -0.1426 0.1367 155.9903 -240.5017)" gradientUnits="userSpaceOnUse"><stop offset="0" class="style14"/><stop offset="1" class="style15"/></radialGradient><polygon points="135.4,259 113.6,263.3 114.2,306.4 204.1,309.5 165.4,166" class="style20"/><linearGradient id="SVGID_10_" gradientUnits="userSpaceOnUse" x1="-951.4" y1="-1440.2" x2="102.8" y2="-1440.2" gradientTransform="matrix(2.067607e-07 -0.2226 -0.4585 -4.264895e-07 -419.0187 265.8768)"><stop offset="0" class="style21"/><stop offset="1" class="style9"/></linearGradient><path d="M254.4 213.2l-42 126.8l-47-174l-30 93l-88.5 17.6v190.8c0 2.7 1.1 5.3 3 7.3c1.9 1.9 4.5 3 7.3 3 h368.4c2.7 0 5.3-1.1 7.3-3c1.9-1.9 3-4.5 3-7.3V212.5l-149.5 86L254.4 213.2z" class="style22"/><polyline points="39.2,278.1 135.4,259 165.4,166 212.4,340 254.4,213.2 286.4,298.5 439.2,210.5" class="style23"/></svg>