<?xml version="1.0" encoding="utf-8"?>
<!-- Generator: Adobe Illustrator 25.4.1, SVG Export Plug-In . SVG Version: 6.00 Build 0)  -->
<svg version="1.1" id="Layer_1" xmlns="http://www.w3.org/2000/svg" xmlns:xlink="http://www.w3.org/1999/xlink" x="0px" y="0px"
	 viewBox="0 0 1192 381" style="enable-background:new 0 0 1192 381;" xml:space="preserve">
<style type="text/css">
	.st0{fill:#FFFFFF;}
	.st1{fill:none;stroke:#707071;}
	.st2{fill:#707071;}
	.st3{font-family:'Mada-Regular';}
	.st4{font-size:47px;}
	.st5{fill:#BDC6C4;}
	.st6{fill:none;stroke:#707071;stroke-width:3;}
	.st7{fill:#895062;}
	.st8{fill:#32708E;}
	.st9{fill:#587651;}
	.st10{fill:#7E9F77;}
	.st11{font-size:20px;}
	.st12{fill:#0A243C;}
	.st13{font-size:300px;}
	.st14{fill:none;stroke:#707071;stroke-width:2;}
	.st15{fill:none;stroke:#5F67A5;stroke-width:3;}
	.st16{fill:none;stroke:#D5B96D;stroke-width:3;}
	.st17{fill:#A96177;}
	.st18{fill:none;stroke:#895062;stroke-width:3;}
	.st19{fill:none;stroke:#5F67A5;stroke-width:1.5;}
	.st20{fill:#83A076;}
	.st21{fill:none;stroke:#587651;stroke-width:5;}
	.st22{fill:none;stroke:#587651;stroke-width:2;}
	.st23{fill:#F8F298;}
	.st24{fill:#C24242;}
	.st25{fill:none;stroke:#425496;stroke-width:2;}
	.st26{fill:none;stroke:#5D5E5E;}
	.st27{fill:#D5865D;}
	.st28{fill:#AE5733;}
	.st29{fill:none;stroke:#AE5733;stroke-width:1.5;}
	.st30{fill:#BC6F46;}
	.st31{fill:none;stroke:#AE5733;stroke-width:2;}
	.st32{fill:none;stroke:#425496;stroke-width:0.7;}
	.st33{fill:none;stroke:#425496;stroke-miterlimit:3.999;}
	.st34{fill:none;stroke:#425496;}
	.st35{fill:none;stroke:#425496;stroke-miterlimit:3.998;}
	.st36{fill:#BC6F46;stroke:#AE5733;stroke-width:3;}
	.st37{fill:#AE5733;stroke:#AE5733;stroke-width:3;}
	.st38{fill:#BC6F46;stroke:#AE5733;stroke-width:7;}
	.st39{fill:#AE5733;stroke:#AE5733;}
	.st40{fill:none;stroke:#425496;stroke-width:3;}
	.st41{fill:#221C1C;}
	.st42{font-family:'Mada-Bold';}
	.st43{font-size:52px;}
</style>
<g id="Group_45" transform="translate(-414.105 -205.242)">
	<g id="Rectangle_489" transform="translate(1398.796 586.742)">
		<rect x="25.17" y="-51.63" class="st0" width="132.05" height="35"/>
		<rect x="25.67" y="-51.13" class="st1" width="131.05" height="34"/>
	</g>
	<text transform="matrix(1 0 0 1 772.3527 470.879)" class="st2 st3 st4">Encyclopedia of DNA Elements</text>
	<g id="Rectangle_429" transform="translate(473.584 550.742)">
		<rect x="25.17" y="-51.63" class="st5" width="1056.27" height="37"/>
		<rect x="26.67" y="-50.13" class="st6" width="1053.27" height="34"/>
	</g>
	<g id="Rectangle_430" transform="translate(543.796 550.742)">
		<rect x="25.17" y="-51.63" class="st7" width="127" height="37"/>
		<rect x="26.67" y="-50.13" class="st6" width="124" height="34"/>
	</g>
	<g id="Rectangle_431" transform="translate(886.796 550.742)">
		<rect x="25.17" y="-51.63" class="st8" width="127" height="37"/>
		<rect x="26.67" y="-50.13" class="st6" width="124" height="34"/>
	</g>
	<g id="Rectangle_432" transform="translate(1010.796 550.742)">
		<rect x="25.17" y="-51.63" class="st9" width="29" height="37"/>
		<rect x="26.67" y="-50.13" class="st6" width="26" height="34"/>
	</g>
	<g id="Rectangle_433" transform="translate(1036.796 550.742)">
		<rect x="25.17" y="-51.63" class="st10" width="44" height="37"/>
		<rect x="26.67" y="-50.13" class="st6" width="41" height="34"/>
	</g>
	<g id="Rectangle_434" transform="translate(1078.796 550.742)">
		<rect x="25.17" y="-51.63" class="st9" width="44" height="37"/>
		<rect x="26.67" y="-50.13" class="st6" width="41" height="34"/>
	</g>
	<g id="Rectangle_435" transform="translate(1118.796 550.742)">
		<rect x="25.17" y="-51.63" class="st10" width="55" height="37"/>
		<rect x="26.67" y="-50.13" class="st6" width="52" height="34"/>
	</g>
	<g id="Rectangle_436" transform="translate(1170.796 550.742)">
		<rect x="25.17" y="-51.63" class="st9" width="43" height="37"/>
		<rect x="26.67" y="-50.13" class="st6" width="40" height="34"/>
	</g>
	<g id="Rectangle_437" transform="translate(1209.796 550.742)">
		<rect x="25.17" y="-51.63" class="st10" width="82" height="37"/>
		<rect x="26.67" y="-50.13" class="st6" width="79" height="34"/>
	</g>
	<g id="Rectangle_438" transform="translate(1280.796 550.742)">
		<rect x="25.17" y="-51.63" class="st9" width="45" height="37"/>
		<rect x="26.67" y="-50.13" class="st6" width="42" height="34"/>
	</g>
	<g id="Rectangle_439" transform="translate(1322.796 550.742)">
		<rect x="25.17" y="-51.63" class="st10" width="57" height="37"/>
		<rect x="26.67" y="-50.13" class="st6" width="54" height="34"/>
	</g>
	<g id="Group_6" transform="translate(-153.416 7.742)">
		<g id="Rectangle_440" transform="translate(628 579)">
			<rect x="25.17" y="-51.63" class="st0" width="255" height="35"/>
			<rect x="25.67" y="-51.13" class="st1" width="254" height="34"/>
		</g>
		<text transform="matrix(1 0 0 1 663.8148 550.872)" class="st2 st3 st11">Enhancer-Like Elements</text>
	</g>
	<text transform="matrix(1 0 0 1 469.9977 425.614)" class="st12 st3 st13">ENCODE</text>
	<text transform="matrix(1 0 0 1 469.9977 425.614)" class="st14 st3 st13">ENCODE</text>
	<g id="Rectangle_440-2" transform="translate(774.796 587.742)">
		<rect x="25.17" y="-51.63" class="st0" width="255" height="35"/>
		<rect x="25.67" y="-51.13" class="st1" width="254" height="34"/>
	</g>
	<text transform="matrix(1 0 0 1 811.4208 559.614)" class="st2 st3 st11">Promoter-Like Elements</text>
	<g id="Rectangle_488" transform="translate(1113.796 586.742)">
		<rect x="25.17" y="-51.63" class="st0" width="102" height="35"/>
		<rect x="25.67" y="-51.13" class="st1" width="101" height="34"/>
	</g>
	<text transform="matrix(1 0 0 1 1148.4108 559.114)" class="st2 st3 st11">Gene</text>
	<text transform="matrix(1 0 0 1 1430.8278 559.614)" class="st2 st3 st11">Transcripts</text>
	<g id="Group_11" transform="translate(62.178 19.742)">
		<path id="Path_218" class="st15" d="M1432.17,441.37c0,0,5.42-19.69,19.34-18.83s16,39.83,29.84,39.83s11.04-39.77,25.54-39.83
			c14.5-0.06,21.83,28.52,21.83,28.52"/>
		<path id="Path_219" class="st15" d="M1529.85,436.31c0,0-10.09,24.9-24.02,24.04s-11.4-37.63-25.24-37.63
			s-15.64,37.57-30.13,37.63c-14.5,0.06-18.09-18.83-18.09-18.83"/>
		<g id="Group_8" transform="translate(1284 483.474)">
			<path id="Path_218-2" class="st15" d="M25.17-39c0,0,9.76-13.07,26.36-12.61c16.6,0.45,19.08,21.04,35.58,21.04
				s13.16-21.02,30.45-21.04s20.61,9.95,20.61,9.95"/>
			<path id="Path_219-2" class="st15" d="M139.18-42.02c0,0-6.45,9.86-23.04,9.43s-13.58-18.85-30.06-18.85S67.46-32.61,50.19-32.59
				c-9.9,0.22-19.22-4.65-24.71-12.89"/>
		</g>
		<path id="Path_220" class="st16" d="M1364.79,388.61c26.85,22.74,35.1,3.45,50.9,14.31s12.31,29.11,12.31,29.11"/>
		<g id="Ellipse_25" transform="translate(1358 445)">
			<circle class="st17" cx="33.67" cy="-43.13" r="8.5"/>
			<circle class="st18" cx="33.67" cy="-43.13" r="7"/>
		</g>
		<line id="Line_6" class="st19" x1="1320.45" y1="433.87" x2="1320.45" y2="448.87"/>
		<line id="Line_7" class="st19" x1="1327.45" y1="431.87" x2="1327.45" y2="450.87"/>
		<line id="Line_8" class="st19" x1="1339.26" y1="431.87" x2="1339.26" y2="450.87"/>
		<line id="Line_9" class="st19" x1="1345.21" y1="434.87" x2="1345.21" y2="447.87"/>
		<line id="Line_10" class="st19" x1="1359.49" y1="434.87" x2="1359.49" y2="448.87"/>
		<line id="Line_11" class="st19" x1="1366.63" y1="431.87" x2="1366.63" y2="452.87"/>
		<line id="Line_12" class="st19" x1="1373.78" y1="431.87" x2="1373.78" y2="452.87"/>
		<line id="Line_13" class="st19" x1="1379.73" y1="434.87" x2="1379.73" y2="449.87"/>
		<line id="Line_14" class="st19" x1="1391.63" y1="434.87" x2="1391.63" y2="448.37"/>
		<line id="Line_15" class="st19" x1="1398.77" y1="431.87" x2="1398.77" y2="450.87"/>
		<line id="Line_16" class="st19" x1="1408.67" y1="431.84" x2="1408.67" y2="450.87"/>
		<line id="Line_17" class="st19" x1="1413.67" y1="433.87" x2="1413.67" y2="449.87"/>
		<line id="Line_18" class="st19" x1="1441.17" y1="427.96" x2="1441.67" y2="457.96"/>
		<line id="Line_20" class="st19" x1="1446.67" y1="422.9" x2="1446.67" y2="459.87"/>
		<line id="Line_21" class="st19" x1="1452.67" y1="422.52" x2="1452.67" y2="459.87"/>
		<line id="Line_22" class="st19" x1="1458.67" y1="426.87" x2="1458.67" y2="455.87"/>
		<line id="Line_23" class="st19" x1="1471.67" y1="429.87" x2="1471.67" y2="453.87"/>
		<line id="Line_24" class="st19" x1="1477.67" y1="422.87" x2="1477.67" y2="461.05"/>
		<line id="Line_25" class="st19" x1="1482.67" y1="422.69" x2="1482.67" y2="461.87"/>
		<line id="Line_26" class="st19" x1="1488.67" y1="428.87" x2="1488.67" y2="457.05"/>
		<line id="Line_27" class="st19" x1="1499.67" y1="426.87" x2="1499.67" y2="456.87"/>
		<path id="Path_221" class="st19" d="M1506.17,422.08v38.29"/>
		<line id="Line_29" class="st19" x1="1512.17" y1="423.69" x2="1512.17" y2="458.87"/>
		<path id="Path_222" class="st19" d="M1517.67,428.19v27.69"/>
		<line id="Line_30" class="st16" x1="1432.67" y1="426.87" x2="1428.33" y2="427.28"/>
		<line id="Line_31" class="st16" x1="1435.67" y1="421.87" x2="1429.17" y2="422.34"/>
		<line id="Line_32" class="st16" x1="1436.67" y1="415.87" x2="1425.65" y2="416.43"/>
		<line id="Line_33" class="st16" x1="1432.73" y1="410.37" x2="1423.93" y2="410.93"/>
		<line id="Line_35" class="st16" x1="1419.58" y1="406.7" x2="1416.67" y2="409.87"/>
		<line id="Line_36" class="st16" x1="1415.63" y1="401.87" x2="1409.67" y2="408.49"/>
		<line id="Line_38" class="st16" x1="1411.17" y1="399.37" x2="1406.17" y2="404.37"/>
		<line id="Line_39" class="st16" x1="1381.67" y1="393.87" x2="1379.38" y2="397.43"/>
		<line id="Line_41" class="st16" x1="1379.38" y1="388.44" x2="1373.91" y2="394.94"/>
		<line id="Line_42" class="st16" x1="1373.67" y1="386.87" x2="1368.67" y2="393.37"/>
		<line id="Line_58" class="st16" x1="1367.67" y1="386.87" x2="1365.79" y2="390.12"/>
		<g id="Path_271" transform="matrix(0.017, 1, -1, 0.017, 1419.344, 476.261)">
			<path class="st20" d="M-26.34,1.4h-17.68c-0.81,0-1.55-0.46-2.03-1.26c-0.49-0.82-0.76-2.15-0.06-3.42l8.84-16.26
				c0.47-0.87,1.24-1.37,2.09-1.37c0.85,0,1.62,0.5,2.09,1.37l8.84,16.26c0.69,1.28,0.42,2.61-0.06,3.42
				C-24.79,0.95-25.53,1.4-26.34,1.4z"/>
			<path class="st9" d="M-35.19-19.41c-0.29,0-0.56,0.21-0.77,0.59L-44.8-2.56c-0.39,0.73-0.23,1.5,0.03,1.94
				c0.14,0.24,0.39,0.53,0.74,0.53l17.68,0c0.35,0,0.59-0.29,0.74-0.53c0.26-0.44,0.43-1.22,0.03-1.94l-8.84-16.26
				C-34.62-19.2-34.89-19.41-35.19-19.41 M-35.19-22.41c1.31,0,2.63,0.72,3.41,2.15L-22.94-4c1.64,3.02-0.28,6.9-3.41,6.9l-17.68,0
				c-3.13,0-5.05-3.88-3.41-6.9l8.84-16.26C-37.81-21.69-36.5-22.41-35.19-22.41z"/>
		</g>
	</g>
	<g id="Group_44" transform="translate(-3.882 -12.5)">
		<line id="Line_61" class="st6" x1="1041.85" y1="496.61" x2="1041.85" y2="511.61"/>
		<line id="Line_62" class="st6" x1="1039.85" y1="495.61" x2="1095.85" y2="495.61"/>
		<line id="Line_63" class="st6" x1="1086.85" y1="487.61" x2="1097.85" y2="496.61"/>
		<line id="Line_64" class="st6" x1="1086.85" y1="503.11" x2="1097.85" y2="495.11"/>
	</g>
	<path id="Path_217" class="st21" d="M1279.05,555.39c18.72-19.26,33.89,0,33.89,0s12.02,17.98,23.4,17.98s22.11-17.98,22.11-17.98
		s10.88-14.28,19.87-14.28s16.07,14.28,16.07,14.28s9.95,17.98,19.1,17.98s17.5-17.98,17.5-17.98"/>
	<path id="Path_287" class="st22" d="M1526.33,553.47c3.08-3.17,5.58,0,5.58,0s1.98,2.96,3.85,2.96s3.64-2.96,3.64-2.96
		s1.79-2.35,3.27-2.35s2.65,2.35,2.65,2.35s1.64,2.96,3.15,2.96s2.88-2.96,2.88-2.96"/>
	<g id="Rectangle_506" transform="translate(1173.178 596.742)">
		<path class="st9" d="M33.17-51.63h13c4.42,0,8,3.58,8,8l0,0c0,4.42-3.58,8-8,8h-13c-4.42,0-8-3.58-8-8l0,0
			C25.17-48.05,28.76-51.63,33.17-51.63z"/>
		<path class="st1" d="M33.17-51.13h13c4.14,0,7.5,3.36,7.5,7.5l0,0c0,4.14-3.36,7.5-7.5,7.5h-13c-4.14,0-7.5-3.36-7.5-7.5l0,0
			C25.67-47.77,29.03-51.13,33.17-51.13z"/>
	</g>
	<g id="Rectangle_507" transform="translate(991.178 596.742)">
		<path class="st8" d="M33.17-51.63h13c4.42,0,8,3.58,8,8l0,0c0,4.42-3.58,8-8,8h-13c-4.42,0-8-3.58-8-8l0,0
			C25.17-48.05,28.76-51.63,33.17-51.63z"/>
		<path class="st1" d="M33.17-51.13h13c4.14,0,7.5,3.36,7.5,7.5l0,0c0,4.14-3.36,7.5-7.5,7.5h-13c-4.14,0-7.5-3.36-7.5-7.5l0,0
			C25.67-47.77,29.03-51.13,33.17-51.13z"/>
	</g>
	<g id="Path_288" transform="translate(688.178 596.742)">
		<path class="st7" d="M46.17-36.13h-13c-4.14,0-7.5-3.36-7.5-7.5s3.36-7.5,7.5-7.5h13c4.14,0,7.5,3.36,7.5,7.5
			S50.31-36.13,46.17-36.13z"/>
		<path class="st2" d="M33.17-50.63c-3.86,0-7,3.14-7,7s3.14,7,7,7h13c3.86,0,7-3.14,7-7s-3.14-7-7-7H33.17 M33.17-51.63h13
			c4.42,0,8,3.58,8,8s-3.58,8-8,8h-13c-4.42,0-8-3.58-8-8S28.76-51.63,33.17-51.63z"/>
	</g>
	<g id="Rectangle_508" transform="translate(1180.178 596.742)">
		<rect x="25.17" y="-51.63" class="st10" width="8" height="16"/>
		<rect x="25.67" y="-51.13" class="st1" width="7" height="15"/>
	</g>
	<g id="Rectangle_509" transform="translate(1190.178 596.742)">
		<rect x="25.17" y="-51.63" class="st10" width="6" height="16"/>
		<rect x="25.67" y="-51.13" class="st1" width="5" height="15"/>
	</g>
	<g id="Group_43" transform="translate(235.178 -174.258)">
		<g id="Path_302" transform="translate(453.973 683.211)">
			<path class="st23" d="M29.75-45.78c-1.15,0-2.23-0.3-3.04-0.85c-0.76-0.52-1.19-1.19-1.19-1.9s0.42-1.38,1.19-1.9
				c0.81-0.55,1.89-0.85,3.04-0.85c1.15,0,2.23,0.3,3.04,0.85c0.76,0.52,1.19,1.19,1.19,1.9s-0.42,1.38-1.19,1.9
				C31.98-46.08,30.9-45.78,29.75-45.78z"/>
			<path class="st24" d="M29.75-50.93c-2.1,0-3.87,1.1-3.87,2.4s1.77,2.4,3.87,2.4s3.87-1.1,3.87-2.4S31.85-50.93,29.75-50.93
				 M29.75-51.63c2.53,0,4.57,1.39,4.57,3.1c0,1.71-2.05,3.1-4.57,3.1s-4.57-1.39-4.57-3.1C25.17-50.24,27.22-51.63,29.75-51.63z"/>
		</g>
		<g id="Group_12" transform="translate(198.267 291.659)">
			<path id="Path_233" class="st25" d="M173.84,311.14c-2.99,0.27-5.38,2.59-5.74,5.57"/>
			<path id="Path_223" class="st26" d="M308.29,341.76"/>
			<g id="Path_272">
				<path id="Path_293" class="st27" d="M75.74,346.74c-1.28,0-2.33-1.04-2.33-2.33c0-1.28,1.04-2.33,2.33-2.33s2.33,1.04,2.33,2.33
					l0,0C78.07,345.7,77.03,346.74,75.74,346.74z"/>
				<path id="Path_294" class="st28" d="M75.74,343.09c-0.73,0-1.33,0.6-1.33,1.33c0,0.73,0.6,1.33,1.33,1.33s1.33-0.6,1.33-1.33
					C77.07,343.68,76.48,343.09,75.74,343.09 M75.74,341.1c1.83,0,3.32,1.49,3.32,3.32s-1.49,3.32-3.32,3.32
					c-1.83,0-3.32-1.49-3.32-3.32l0,0C72.42,342.58,73.91,341.1,75.74,341.1z"/>
			</g>
			<g id="Ellipse_31">
				<circle id="Ellipse_119" class="st27" cx="81.06" cy="349.73" r="3.32"/>
				<circle id="Ellipse_120" class="st29" cx="81.06" cy="349.73" r="2.33"/>
			</g>
			<g id="Path_273">
				<path id="Path_295" class="st27" d="M86.37,354.72c-1.28,0-2.33-1.04-2.33-2.33c0-1.28,1.04-2.33,2.33-2.33s2.33,1.04,2.33,2.33
					c0,0,0,0,0,0C88.7,353.67,87.66,354.71,86.37,354.72z"/>
				<path id="Path_296" class="st28" d="M86.37,351.06c-0.73,0-1.33,0.59-1.33,1.33c0,0.73,0.59,1.33,1.33,1.33s1.33-0.59,1.33-1.33
					c0,0,0,0,0,0C87.7,351.66,87.11,351.06,86.37,351.06 M86.37,349.07c1.83,0,3.32,1.49,3.32,3.32s-1.49,3.32-3.32,3.32
					c-1.83,0-3.32-1.49-3.32-3.32l0,0C83.05,350.56,84.54,349.07,86.37,349.07L86.37,349.07z"/>
			</g>
			<g id="Ellipse_33">
				<circle id="Ellipse_121" class="st27" cx="90.36" cy="351.06" r="3.32"/>
				<circle id="Ellipse_122" class="st29" cx="90.36" cy="351.06" r="2.33"/>
			</g>
			<g id="Ellipse_34">
				<circle id="Ellipse_123" class="st30" cx="93.02" cy="348.41" r="3.32"/>
				<circle id="Ellipse_124" class="st29" cx="93.02" cy="348.4" r="2.33"/>
			</g>
			<g id="Ellipse_35">
				<circle id="Ellipse_125" class="st30" cx="94.35" cy="344.42" r="3.32"/>
				<circle id="Ellipse_126" class="st29" cx="94.35" cy="344.42" r="2.33"/>
			</g>
			<g id="Ellipse_36">
				<circle id="Ellipse_127" class="st27" cx="94.35" cy="340.43" r="3.32"/>
				<circle id="Ellipse_128" class="st29" cx="94.35" cy="340.43" r="2.33"/>
			</g>
			<g id="Ellipse_37">
				<circle id="Ellipse_129" class="st27" cx="94.35" cy="335.12" r="3.32"/>
				<circle id="Ellipse_130" class="st29" cx="94.35" cy="335.12" r="2.33"/>
			</g>
			<g id="Ellipse_38">
				<circle id="Ellipse_131" class="st27" cx="90.36" cy="333.79" r="3.32"/>
				<circle id="Ellipse_132" class="st29" cx="90.36" cy="333.79" r="2.33"/>
			</g>
			<g id="Ellipse_39">
				<circle id="Ellipse_133" class="st27" cx="89.03" cy="337.77" r="3.32"/>
				<circle id="Ellipse_134" class="st29" cx="89.03" cy="337.77" r="2.33"/>
			</g>
			<g id="Ellipse_40">
				<circle id="Ellipse_135" class="st27" cx="89.03" cy="341.76" r="3.32"/>
				<circle id="Ellipse_136" class="st29" cx="89.03" cy="341.76" r="2.33"/>
			</g>
			<g id="Ellipse_41">
				<circle id="Ellipse_137" class="st27" cx="90.36" cy="345.75" r="3.32"/>
				<circle id="Ellipse_138" class="st29" cx="90.36" cy="345.75" r="2.33"/>
			</g>
			<g id="Ellipse_42">
				<circle id="Ellipse_139" class="st27" cx="94.35" cy="349.73" r="3.32"/>
				<circle id="Ellipse_140" class="st29" cx="94.35" cy="349.73" r="2.33"/>
			</g>
			<g id="Ellipse_43">
				<circle id="Ellipse_141" class="st30" cx="98.33" cy="348.41" r="3.32"/>
				<circle id="Ellipse_142" class="st29" cx="98.33" cy="348.4" r="2.33"/>
			</g>
			<g id="Ellipse_44">
				<circle id="Ellipse_143" class="st30" cx="100.99" cy="344.42" r="3.32"/>
				<circle id="Ellipse_144" class="st29" cx="100.99" cy="344.42" r="2.33"/>
			</g>
			<g id="Ellipse_45">
				<circle id="Ellipse_145" class="st30" cx="102.32" cy="340.43" r="3.32"/>
				<circle id="Ellipse_146" class="st29" cx="102.32" cy="340.43" r="2.33"/>
			</g>
			<g id="Ellipse_46">
				<circle id="Ellipse_147" class="st30" cx="102.32" cy="335.12" r="3.32"/>
				<circle id="Ellipse_148" class="st29" cx="102.32" cy="335.12" r="2.33"/>
			</g>
			<g id="Ellipse_47">
				<circle id="Ellipse_149" class="st27" cx="99.66" cy="333.79" r="3.32"/>
				<circle id="Ellipse_150" class="st29" cx="99.66" cy="333.79" r="2.33"/>
			</g>
			<g id="Ellipse_48">
				<circle id="Ellipse_151" class="st27" cx="98.33" cy="337.77" r="3.32"/>
				<circle id="Ellipse_152" class="st29" cx="98.33" cy="337.77" r="2.33"/>
			</g>
			<g id="Ellipse_49">
				<circle id="Ellipse_153" class="st27" cx="98.33" cy="343.09" r="3.32"/>
				<circle id="Ellipse_154" class="st29" cx="98.33" cy="343.09" r="2.33"/>
			</g>
			<g id="Ellipse_50">
				<circle id="Ellipse_155" class="st27" cx="100.99" cy="347.08" r="3.32"/>
				<circle id="Ellipse_156" class="st29" cx="100.99" cy="347.08" r="2.33"/>
			</g>
			<g id="Ellipse_51">
				<circle id="Ellipse_157" class="st30" cx="104.98" cy="345.75" r="3.32"/>
				<circle id="Ellipse_158" class="st29" cx="104.98" cy="345.75" r="2.33"/>
			</g>
			<g id="Ellipse_52">
				<circle id="Ellipse_159" class="st27" cx="106.31" cy="339.1" r="3.32"/>
				<circle id="Ellipse_160" class="st29" cx="106.3" cy="339.1" r="2.33"/>
			</g>
			<g id="Ellipse_53">
				<circle id="Ellipse_161" class="st27" cx="107.63" cy="335.12" r="3.32"/>
				<circle id="Ellipse_162" class="st29" cx="107.63" cy="335.12" r="2.33"/>
			</g>
			<g id="Ellipse_54">
				<circle id="Ellipse_163" class="st27" cx="106.31" cy="331.13" r="3.32"/>
				<circle id="Ellipse_164" class="st29" cx="106.3" cy="331.13" r="2.33"/>
			</g>
			<g id="Ellipse_55">
				<circle id="Ellipse_165" class="st27" cx="103.65" cy="332.46" r="3.32"/>
				<circle id="Ellipse_166" class="st29" cx="103.65" cy="332.46" r="2.33"/>
			</g>
			<g id="Ellipse_56">
				<circle id="Ellipse_167" class="st27" cx="102.32" cy="337.77" r="3.32"/>
				<circle id="Ellipse_168" class="st29" cx="102.32" cy="337.77" r="2.33"/>
			</g>
			<g id="Ellipse_57">
				<circle id="Ellipse_169" class="st27" cx="103.65" cy="343.09" r="3.32"/>
				<circle id="Ellipse_170" class="st29" cx="103.65" cy="343.09" r="2.33"/>
			</g>
			<g id="Ellipse_58">
				<circle id="Ellipse_171" class="st30" cx="106.31" cy="344.42" r="3.32"/>
				<circle id="Ellipse_172" class="st29" cx="106.3" cy="344.42" r="2.33"/>
			</g>
			<g id="Ellipse_59">
				<circle id="Ellipse_173" class="st27" cx="108.96" cy="347.08" r="3.32"/>
				<circle id="Ellipse_174" class="st29" cx="108.96" cy="347.08" r="2.33"/>
			</g>
			<g id="Ellipse_60">
				<circle id="Ellipse_175" class="st27" cx="112.95" cy="347.08" r="3.32"/>
				<circle id="Ellipse_176" class="st29" cx="112.95" cy="347.08" r="2.33"/>
			</g>
			<g id="Ellipse_61">
				<circle id="Ellipse_177" class="st30" cx="116.94" cy="344.42" r="3.32"/>
				<circle id="Ellipse_178" class="st29" cx="116.94" cy="344.42" r="2.33"/>
			</g>
			<g id="Ellipse_62">
				<circle id="Ellipse_179" class="st27" cx="119.59" cy="340.43" r="3.32"/>
				<circle id="Ellipse_180" class="st29" cx="119.59" cy="340.43" r="2.33"/>
			</g>
			<g id="Ellipse_63">
				<circle id="Ellipse_181" class="st27" cx="120.92" cy="335.12" r="3.32"/>
				<circle id="Ellipse_182" class="st29" cx="120.92" cy="335.12" r="2.33"/>
			</g>
			<g id="Ellipse_64">
				<circle id="Ellipse_183" class="st27" cx="120.92" cy="329.8" r="3.32"/>
				<circle id="Ellipse_184" class="st29" cx="120.92" cy="329.8" r="2.33"/>
			</g>
			<g id="Ellipse_65">
				<circle id="Ellipse_185" class="st27" cx="120.92" cy="325.82" r="3.32"/>
				<circle id="Ellipse_186" class="st29" cx="120.92" cy="325.81" r="2.33"/>
			</g>
			<g id="Ellipse_66">
				<circle id="Ellipse_187" class="st27" cx="118.26" cy="321.83" r="3.32"/>
				<circle id="Ellipse_188" class="st29" cx="118.26" cy="321.83" r="2.33"/>
			</g>
			<g id="Ellipse_67">
				<circle id="Ellipse_189" class="st27" cx="114.28" cy="324.49" r="3.32"/>
				<circle id="Ellipse_190" class="st29" cx="114.28" cy="324.49" r="2.33"/>
			</g>
			<g id="Ellipse_68">
				<circle id="Ellipse_191" class="st27" cx="112.95" cy="328.47" r="3.32"/>
				<circle id="Ellipse_192" class="st29" cx="112.95" cy="328.47" r="2.33"/>
			</g>
			<g id="Ellipse_69">
				<circle id="Ellipse_193" class="st27" cx="112.95" cy="333.79" r="3.32"/>
				<circle id="Ellipse_194" class="st29" cx="112.95" cy="333.79" r="2.33"/>
			</g>
			<g id="Ellipse_70">
				<circle id="Ellipse_195" class="st27" cx="112.95" cy="339.1" r="3.32"/>
				<circle id="Ellipse_196" class="st29" cx="112.95" cy="339.1" r="2.33"/>
			</g>
			<g id="Ellipse_71">
				<circle id="Ellipse_197" class="st27" cx="115.61" cy="344.42" r="3.32"/>
				<circle id="Ellipse_198" class="st29" cx="115.61" cy="344.42" r="2.33"/>
			</g>
			<g id="Ellipse_72">
				<circle id="Ellipse_199" class="st27" cx="119.59" cy="348.41" r="3.32"/>
				<circle id="Ellipse_200" class="st29" cx="119.59" cy="348.4" r="2.33"/>
			</g>
			<g id="Ellipse_73">
				<circle id="Ellipse_201" class="st27" cx="124.91" cy="348.41" r="3.32"/>
				<circle id="Ellipse_202" class="st29" cx="124.91" cy="348.4" r="2.33"/>
			</g>
			<g id="Ellipse_74">
				<circle id="Ellipse_203" class="st27" cx="128.9" cy="347.08" r="3.32"/>
				<circle id="Ellipse_204" class="st29" cx="128.89" cy="347.08" r="2.33"/>
			</g>
			<g id="Ellipse_75">
				<circle id="Ellipse_205" class="st27" cx="132.88" cy="343.09" r="3.32"/>
				<circle id="Ellipse_206" class="st29" cx="132.88" cy="343.09" r="2.33"/>
			</g>
			<g id="Ellipse_76">
				<circle id="Ellipse_207" class="st27" cx="136.87" cy="339.1" r="3.32"/>
				<circle id="Ellipse_208" class="st29" cx="136.87" cy="339.1" r="2.33"/>
			</g>
			<g id="Ellipse_77">
				<circle id="Ellipse_209" class="st27" cx="139.53" cy="335.12" r="3.32"/>
				<circle id="Ellipse_210" class="st29" cx="139.53" cy="335.12" r="2.33"/>
			</g>
			<g id="Ellipse_78">
				<circle id="Ellipse_211" class="st27" cx="140.85" cy="329.8" r="3.32"/>
				<circle id="Ellipse_212" class="st29" cx="140.85" cy="329.8" r="2.33"/>
			</g>
			<g id="Ellipse_79">
				<circle id="Ellipse_213" class="st27" cx="140.85" cy="324.49" r="3.32"/>
				<circle id="Ellipse_214" class="st29" cx="140.85" cy="324.49" r="2.33"/>
			</g>
			<g id="Ellipse_80">
				<circle id="Ellipse_215" class="st27" cx="140.85" cy="319.17" r="3.32"/>
				<circle id="Ellipse_216" class="st29" cx="140.85" cy="319.17" r="2.33"/>
			</g>
			<g id="Ellipse_81">
				<circle id="Ellipse_217" class="st27" cx="140.85" cy="313.86" r="3.32"/>
				<circle id="Ellipse_218" class="st29" cx="140.85" cy="313.86" r="2.33"/>
			</g>
			<g id="Ellipse_82">
				<circle id="Ellipse_219" class="st27" cx="136.87" cy="309.87" r="3.32"/>
				<circle id="Ellipse_220" class="st29" cx="136.87" cy="309.87" r="2.33"/>
			</g>
			<g id="Ellipse_83">
				<circle id="Ellipse_221" class="st27" cx="131.55" cy="311.2" r="3.32"/>
				<circle id="Ellipse_222" class="st29" cx="131.55" cy="311.2" r="2.33"/>
			</g>
			<g id="Ellipse_84">
				<circle id="Ellipse_223" class="st27" cx="128.9" cy="316.51" r="3.32"/>
				<circle id="Ellipse_224" class="st29" cx="128.89" cy="316.51" r="2.33"/>
			</g>
			<g id="Ellipse_85">
				<circle id="Ellipse_225" class="st27" cx="128.9" cy="321.83" r="3.32"/>
				<circle id="Ellipse_226" class="st29" cx="128.89" cy="321.83" r="2.33"/>
			</g>
			<g id="Ellipse_86">
				<circle id="Ellipse_227" class="st27" cx="128.9" cy="327.14" r="3.32"/>
				<circle id="Ellipse_228" class="st29" cx="128.89" cy="327.14" r="2.33"/>
			</g>
			<g id="Ellipse_87">
				<circle id="Ellipse_229" class="st27" cx="128.9" cy="332.46" r="3.32"/>
				<circle id="Ellipse_230" class="st29" cx="128.89" cy="332.46" r="2.33"/>
			</g>
			<g id="Ellipse_88">
				<circle id="Ellipse_231" class="st27" cx="128.9" cy="337.77" r="3.32"/>
				<circle id="Ellipse_232" class="st29" cx="128.89" cy="337.77" r="2.33"/>
			</g>
			<g id="Ellipse_89">
				<circle id="Ellipse_233" class="st27" cx="136.87" cy="347.08" r="3.32"/>
				<circle id="Ellipse_234" class="st29" cx="136.87" cy="347.08" r="2.33"/>
			</g>
			<g id="Ellipse_90">
				<circle id="Ellipse_235" class="st27" cx="140.85" cy="351.06" r="3.32"/>
				<circle id="Ellipse_236" class="st29" cx="140.85" cy="351.06" r="2.33"/>
			</g>
			<g id="Ellipse_91">
				<circle id="Ellipse_237" class="st27" cx="144.84" cy="352.39" r="3.32"/>
				<circle id="Ellipse_238" class="st29" cx="144.84" cy="352.39" r="2.33"/>
			</g>
			<g id="Ellipse_92">
				<circle id="Ellipse_239" class="st27" cx="148.83" cy="349.73" r="3.32"/>
				<circle id="Ellipse_240" class="st29" cx="148.83" cy="349.73" r="2.33"/>
			</g>
			<g id="Ellipse_93">
				<circle id="Ellipse_241" class="st27" cx="152.81" cy="343.09" r="3.32"/>
				<circle id="Ellipse_242" class="st29" cx="152.81" cy="343.09" r="2.33"/>
			</g>
			<g id="Ellipse_94">
				<circle id="Ellipse_243" class="st27" cx="158.13" cy="333.79" r="4.65"/>
				<circle id="Ellipse_244" class="st29" cx="158.13" cy="333.79" r="3.65"/>
			</g>
			<g id="Ellipse_95">
				<circle id="Ellipse_245" class="st27" cx="166.1" cy="321.83" r="5.98"/>
				<circle id="Ellipse_246" class="st29" cx="166.1" cy="321.83" r="4.98"/>
			</g>
			<g id="Ellipse_97">
				<circle id="Ellipse_247" class="st30" cx="211.28" cy="271.33" r="9.97"/>
				<circle id="Ellipse_248" class="st31" cx="211.28" cy="271.33" r="8.64"/>
			</g>
			<g id="Ellipse_98">
				<circle id="Ellipse_249" class="st30" cx="211.28" cy="291.27" r="9.97"/>
				<circle id="Ellipse_250" class="st31" cx="211.28" cy="291.27" r="8.64"/>
			</g>
			<g id="Ellipse_101">
				<circle id="Ellipse_251" class="st30" cx="255.13" cy="308.54" r="11.3"/>
				<circle id="Ellipse_252" class="st31" cx="255.13" cy="308.54" r="9.97"/>
			</g>
			<g id="Ellipse_103">
				<circle id="Ellipse_253" class="st30" cx="255.13" cy="331.13" r="11.3"/>
				<circle id="Ellipse_254" class="st31" cx="255.13" cy="331.13" r="9.97"/>
			</g>
			<g id="Ellipse_105">
				<circle id="Ellipse_255" class="st30" cx="231.21" cy="271.33" r="9.97"/>
				<circle id="Ellipse_256" class="st31" cx="231.21" cy="271.33" r="8.64"/>
			</g>
			<g id="Ellipse_106">
				<circle id="Ellipse_257" class="st30" cx="231.21" cy="291.27" r="9.97"/>
				<circle id="Ellipse_258" class="st31" cx="231.21" cy="291.27" r="8.64"/>
			</g>
			<g id="Ellipse_107">
				<circle id="Ellipse_259" class="st30" cx="277.72" cy="308.54" r="11.3"/>
				<circle id="Ellipse_260" class="st31" cx="277.72" cy="308.54" r="9.97"/>
			</g>
			<g id="Ellipse_108">
				<circle id="Ellipse_261" class="st30" cx="277.72" cy="331.13" r="11.3"/>
				<circle id="Ellipse_262" class="st31" cx="277.72" cy="331.13" r="9.97"/>
			</g>
			<g id="Ellipse_109">
				<circle id="Ellipse_263" class="st30" cx="217.93" cy="272.66" r="9.97"/>
				<circle id="Ellipse_264" class="st31" cx="217.93" cy="272.66" r="8.64"/>
			</g>
			<g id="Ellipse_110">
				<circle id="Ellipse_265" class="st30" cx="217.93" cy="292.59" r="9.97"/>
				<circle id="Ellipse_266" class="st31" cx="217.93" cy="292.59" r="8.64"/>
			</g>
			<g id="Ellipse_111">
				<circle id="Ellipse_267" class="st30" cx="237.86" cy="272.66" r="9.97"/>
				<circle id="Ellipse_268" class="st31" cx="237.86" cy="272.66" r="8.64"/>
			</g>
			<g id="Ellipse_112">
				<circle id="Ellipse_269" class="st30" cx="237.86" cy="292.59" r="9.97"/>
				<circle id="Ellipse_270" class="st31" cx="237.86" cy="292.59" r="8.64"/>
			</g>
			<g id="Ellipse_113">
				<circle id="Ellipse_271" class="st30" cx="261.78" cy="309.87" r="11.3"/>
				<circle id="Ellipse_272" class="st31" cx="261.78" cy="309.87" r="9.97"/>
			</g>
			<g id="Ellipse_114">
				<circle id="Ellipse_273" class="st30" cx="261.78" cy="332.46" r="11.3"/>
				<circle id="Ellipse_274" class="st31" cx="261.78" cy="332.46" r="9.97"/>
			</g>
			<g id="Ellipse_115">
				<circle id="Ellipse_275" class="st30" cx="284.37" cy="309.87" r="11.3"/>
				<circle id="Ellipse_276" class="st31" cx="284.37" cy="309.87" r="9.97"/>
			</g>
			<g id="Ellipse_116">
				<circle id="Ellipse_277" class="st30" cx="284.37" cy="332.46" r="11.3"/>
				<circle id="Ellipse_278" class="st31" cx="284.37" cy="332.46" r="9.97"/>
			</g>
			<path id="Path_224" class="st32" d="M154.87,336.88c2.6-1.88,2.87-7.56,2.87-7.56"/>
			<path id="Path_226" class="st33" d="M170.43,326.14c-2.88-2.67-6.47-4.44-10.34-5.09"/>
			<path id="Path_227" class="st33" d="M171.63,323.47c-2.73-2.81-6.27-4.69-10.13-5.39"/>
			<path id="Path_232" class="st25" d="M160.3,330.18c4.18-0.95,4.61-2.62,4.61-2.62"/>
			<path id="Path_236" class="st25" d="M217.68,264.93c-5.22-4.4-9.72-1.95-9.72-1.95"/>
			<path id="Path_237" class="st25" d="M237.7,264.44c-5.22-4.4-9.72-1.95-9.72-1.95"/>
			<path id="Path_238" class="st25" d="M261.55,300.95c-5.22-4.4-9.72-1.95-9.72-1.95"/>
			<path id="Path_239" class="st25" d="M285.45,300.57c-5.22-4.4-9.72-1.95-9.72-1.95"/>
			<path id="Path_240" class="st25" d="M218.01,302.93c4.01-4.36,4.93-12.17,4.58-21.26c-0.47-6.07-2.33-11.95-5.42-17.19"/>
			<path id="Path_241" class="st25" d="M237.43,302.63c4.03-4.42,4.97-12.3,4.65-21.47c-0.45-6.11-2.29-12.04-5.38-17.33"/>
			<path id="Path_242" class="st25" d="M260.17,343.44c4.24-5.06,5.48-13.87,5.49-24.06c-0.18-6.64-1.82-13.15-4.8-19.09"/>
			<path id="Path_243" class="st25" d="M283.47,343.32c4.24-5.06,5.48-13.87,5.49-24.06c-0.18-6.64-1.82-13.15-4.81-19.09"/>
			<path id="Path_244" class="st25" d="M257.8,298.59c-0.02-2.69-1.29-8.62-4.67-11.77c-3.91-3.64-10.29-4.17-10.29-4.17"/>
			<path id="Path_245" class="st34" d="M289.02,322.71c3.4-0.45,6.13-1.11,8.12,0c2.85,1.55,2.05,6.36,2.05,6.36
				s-1.61,8.28,0.77,9.77s6.07-3.93,9.6-2.45s4.55,8.37,4.55,8.37"/>
			<path id="Path_246" class="st35" d="M314.86,344.33c-3.33,0.32-6.01,0.87-7.92-0.28c-2.72-1.6-1.79-6.24-1.79-6.24
				s1.86-7.99-0.41-9.52s-6.04,3.61-9.44,2.06s-5.6-7.55-5.6-7.55"/>
			<line id="Line_43" class="st32" x1="293.67" y1="321.83" x2="291.01" y2="327.14"/>
			<line id="Line_44" class="st32" x1="297.35" y1="322.63" x2="293.36" y2="328.99"/>
			<line id="Line_45" class="st32" x1="298.98" y1="325.82" x2="295.66" y2="330.85"/>
			<line id="Line_46" class="st32" x1="302.31" y1="328.39" x2="298.98" y2="333.43"/>
			<line id="Line_47" class="st32" x1="304.89" y1="328.61" x2="298.98" y2="336.45"/>
			<line id="Line_48" class="st32" x1="305.63" y1="332.46" x2="299.35" y2="338.97"/>
			<line id="Line_49" class="st32" x1="308.77" y1="336.45" x2="304.3" y2="340.43"/>
			<line id="Line_50" class="st32" x1="311" y1="337.77" x2="305.63" y2="343.09"/>
			<line id="Line_51" class="st32" x1="312.75" y1="339.1" x2="308.77" y2="344.76"/>
			<g id="Group_10">
				<path id="Path_247" class="st26" d="M349.46,345.58"/>
				<path id="Path_248" class="st34" d="M314.6,344.51c3.08-3.4,5.32-6.4,8.22-7.15c4.11-1.09,7.13,4,7.13,4s1.75,8.64,5.34,7.9
					s7.08-11.2,7.08-11.2"/>
				<path id="Path_249" class="st34" d="M343,344.93c0,0-5.3-9.49-8.78-8.93s-3.15,8.56-7.78,10.07s-11.6-2.06-11.6-2.06"/>
				<line id="Line_52" class="st32" x1="318.37" y1="340.41" x2="319.85" y2="346.17"/>
				<line id="Line_53" class="st32" x1="322.12" y1="337.68" x2="322.9" y2="345.75"/>
				<line id="Line_54" class="st32" x1="326.34" y1="338.1" x2="326.89" y2="346.17"/>
				<line id="Line_55" class="st32" x1="331.96" y1="338.3" x2="332.61" y2="348.28"/>
				<line id="Line_56" class="st32" x1="334.5" y1="336.5" x2="335.26" y2="349.61"/>
				<line id="Line_57" class="st32" x1="338.26" y1="338.3" x2="337.79" y2="347.32"/>
			</g>
			<path id="Path_250" class="st32" d="M157.75,337.9c2.6-2.02,2.87-8.1,2.87-8.1"/>
			<g id="Group_13">
				<path id="Path_251" class="st36" d="M68.94,339.29c4.97,1.68,10.46,0.42,14.2-3.25c7.84-8.92-8.62-29.45-12.82-34.7
					c-9.83-12.27-23.17-22.51-25.51-20.89c-2.34,1.62,10.72,12.15,16.02,33.64C64.12,327.43,62.35,336.56,68.94,339.29z"/>
				<path id="Path_252" class="st36" d="M54.93,208.86c4.07-2.66,9.37-2.48,13.26,0.44c8.7,7.36-1.93,31.14-4.65,37.21
					c-6.35,14.2-16.22,27.08-18.62,25.93c-2.4-1.15,7.17-14.26,7.7-36.8C52.95,221.66,49.6,212.89,54.93,208.86z"/>
				<path id="Path_253" class="st36" d="M32.35,343.39c-4.2,2.54-9.53,2.2-13.37-0.85c-8.55-7.64,2.95-31.13,5.89-37.13
					c6.87-14.03,17.25-26.63,19.64-25.4c2.38,1.23-7.7,14.07-8.96,36.62C34.76,330.62,37.86,339.51,32.35,343.39z"/>
				<path id="Path_254" class="st36" d="M22.91,211.64c-4.63-1.9-9.94-0.81-13.45,2.76c-7.58,8.78,7.44,30.32,11.28,35.83
					c8.98,12.87,21.3,23.82,23.55,22.26s-9.82-12.79-14.32-34.88C27.17,223.9,29.06,214.68,22.91,211.64z"/>
				<circle id="Ellipse_117" class="st36" cx="43.82" cy="276.87" r="7.44"/>
				<path id="Path_255" class="st37" d="M28.1,223.86c0,5.51-5.17,5.37-10.1,5.37s-8.93,0.93-8.93-4.58s4-12.78,8.93-12.78
					S28.1,218.36,28.1,223.86z"/>
				<path id="Path_256" class="st37" d="M71.55,220.35c0,5.5-5.17,5.36-10.11,5.36s-8.93,0.93-8.93-4.58s4-12.78,8.93-12.78
					S71.55,214.85,71.55,220.35z"/>
				<path id="Path_257" class="st37" d="M64.15,330.97c-1.46-5.31,4.08-6.7,9.33-8.15c5.25-1.45,9.26-3.52,10.73,1.78
					s-0.85,13.5-6.1,14.95S65.62,336.27,64.15,330.97z"/>
				<path id="Path_258" class="st37" d="M17.59,328.79c2.36-4.65,6.59-2.37,10.68-0.29s7.8,2.97,5.45,7.63
					c-2.35,4.66-8.8,9.13-12.89,7.06S15.23,333.44,17.59,328.79z"/>
				<path id="Path_259" class="st36" d="M14.39,240.67c1.31,0.47,6.83,2.28,11.86-0.56c1.1-0.62,2.09-1.41,2.94-2.35"/>
				<path id="Path_260" class="st36" d="M18.06,247.25c3.52,1.28,7.45,0.8,10.56-1.3c1.04-0.73,1.96-1.6,2.76-2.59"/>
				<path id="Path_261" class="st36" d="M27.5,258.23c2.29,0.73,4.81,0.13,6.52-1.56c0.69-0.61,1.3-1.3,1.83-2.06"/>
				<path id="Path_262" class="st36" d="M52.6,233.86c2.93,3.22,7.26,4.77,11.56,4.14c1.5-0.22,2.96-0.65,4.34-1.27"/>
				<path id="Path_263" class="st36" d="M51.91,239.76c2.27,2.57,5.6,3.96,9.02,3.77c1.12-0.1,2.21-0.36,3.25-0.78"/>
				<path id="Path_264" class="st36" d="M49.75,255.14c1.35,1.59,3.25,2.6,5.31,2.85c0.59,0.03,1.19-0.04,1.76-0.21"/>
				<path id="Path_265" class="st38" d="M22.06,312.46"/>
				<path id="Path_266" class="st38" d="M35.1,312.55"/>
				<path id="Path_267" class="st39" d="M23.07,308.93c0.54-2.02,13.27-1.75,12.77,3.16c-0.33,3.15-0.75,12.9-1.51,10.27
					c-1.42-4.93-10.56-5.33-13.41-3.99C18.25,319.63,22.11,312.48,23.07,308.93z"/>
				<path id="Path_268" class="st39" d="M60.04,311.01c-0.67-1.99,10.9-9.77,13.26-5.43c1.52,2.79,6.73,11.04,4.54,9.36
					c-4.1-3.14-12.53,2.26-14.31,5.15C61.87,322.8,61.23,314.52,60.04,311.01z"/>
				<path id="Path_269" class="st39" d="M53.51,297.73c0.15-0.58,8.97-7.17,9.17-6.15c0.12,0.65,0.82,2.92,0.01,2.87
					c-1.51-0.1-4.69,2.54-6.48,4.11C54.52,300.04,53.25,298.75,53.51,297.73z"/>
				<path id="Path_270" class="st39" d="M29.27,295.4c0.5-0.32,11.44,0.96,10.89,1.83c-0.36,0.56-1.42,2.69-1.97,2.09
					c-1.03-1.11-5.15-1.38-7.53-1.46C28.42,297.77,28.38,295.96,29.27,295.4z"/>
			</g>
			<g id="Ellipse_96">
				<circle id="Ellipse_279" class="st27" cx="178.06" cy="305.88" r="7.31"/>
				<circle id="Ellipse_280" class="st31" cx="178.06" cy="305.88" r="5.98"/>
			</g>
			<path id="Path_230" class="st34" d="M184.45,302.91c-5.9,2.61-7.87,9.34-7.87,9.34"/>
			<path id="Path_231" class="st34" d="M178.92,299.39c-5.9,2.61-6.74,9.54-6.74,9.54"/>
			<path id="Path_235" class="st40" d="M201.74,270.67c-2.95,1.06-7.64,9.83-4.02,14.09s-16.63,15.58-16.63,15.58"/>
		</g>
		<g id="Path_277" transform="translate(387.847 612.382)">
			<path class="st24" d="M30.13-45.26c-1.26,0-2.43-0.33-3.31-0.92c-0.84-0.57-1.3-1.31-1.3-2.08c0-0.78,0.46-1.52,1.3-2.08
				c0.88-0.6,2.05-0.92,3.31-0.92s2.43,0.33,3.31,0.92c0.84,0.57,1.3,1.31,1.3,2.08c0,0.78-0.46,1.52-1.3,2.08
				C32.56-45.59,31.39-45.26,30.13-45.26z"/>
			<path class="st23" d="M30.13-50.93c-2.31,0-4.26,1.22-4.26,2.66c0,1.44,1.95,2.66,4.26,2.66s4.26-1.22,4.26-2.66
				C34.39-49.71,32.44-50.93,30.13-50.93 M30.13-51.63c2.74,0,4.96,1.5,4.96,3.36c0,1.85-2.22,3.36-4.96,3.36s-4.96-1.5-4.96-3.36
				C25.17-50.12,27.39-51.63,30.13-51.63z"/>
		</g>
		<g id="Path_297" transform="translate(410.176 612.382)">
			<path class="st24" d="M30.13-45.26c-1.26,0-2.43-0.33-3.31-0.92c-0.84-0.57-1.3-1.31-1.3-2.08c0-0.78,0.46-1.52,1.3-2.08
				c0.88-0.6,2.05-0.92,3.31-0.92s2.43,0.33,3.31,0.92c0.84,0.57,1.3,1.31,1.3,2.08c0,0.78-0.46,1.52-1.3,2.08
				C32.56-45.59,31.39-45.26,30.13-45.26z"/>
			<path class="st23" d="M30.13-50.93c-2.31,0-4.26,1.22-4.26,2.66c0,1.44,1.95,2.66,4.26,2.66s4.26-1.22,4.26-2.66
				C34.39-49.71,32.44-50.93,30.13-50.93 M30.13-51.63c2.74,0,4.96,1.5,4.96,3.36c0,1.85-2.22,3.36-4.96,3.36s-4.96-1.5-4.96-3.36
				C25.17-50.12,27.39-51.63,30.13-51.63z"/>
		</g>
		<g id="Path_298" transform="translate(389.847 632.799)">
			<path class="st24" d="M30.13-45.26c-1.26,0-2.43-0.33-3.31-0.92c-0.84-0.57-1.3-1.31-1.3-2.08c0-0.78,0.46-1.52,1.3-2.08
				c0.88-0.6,2.05-0.92,3.31-0.92s2.43,0.33,3.31,0.92c0.84,0.57,1.3,1.31,1.3,2.08c0,0.78-0.46,1.52-1.3,2.08
				C32.56-45.59,31.39-45.26,30.13-45.26z"/>
			<path class="st23" d="M30.13-50.93c-2.31,0-4.26,1.22-4.26,2.66c0,1.44,1.95,2.66,4.26,2.66s4.26-1.22,4.26-2.66
				C34.39-49.71,32.44-50.93,30.13-50.93 M30.13-51.63c2.74,0,4.96,1.5,4.96,3.36c0,1.85-2.22,3.36-4.96,3.36s-4.96-1.5-4.96-3.36
				C25.17-50.12,27.39-51.63,30.13-51.63z"/>
		</g>
		<g id="Path_299" transform="translate(410.03 632.799)">
			<path class="st24" d="M30.13-45.26c-1.26,0-2.43-0.33-3.31-0.92c-0.84-0.57-1.3-1.31-1.3-2.08c0-0.78,0.46-1.52,1.3-2.08
				c0.88-0.6,2.05-0.92,3.31-0.92s2.43,0.33,3.31,0.92c0.84,0.57,1.3,1.31,1.3,2.08c0,0.78-0.46,1.52-1.3,2.08
				C32.56-45.59,31.39-45.26,30.13-45.26z"/>
			<path class="st23" d="M30.13-50.93c-2.31,0-4.26,1.22-4.26,2.66c0,1.44,1.95,2.66,4.26,2.66s4.26-1.22,4.26-2.66
				C34.39-49.71,32.44-50.93,30.13-50.93 M30.13-51.63c2.74,0,4.96,1.5,4.96,3.36c0,1.85-2.22,3.36-4.96,3.36s-4.96-1.5-4.96-3.36
				C25.17-50.12,27.39-51.63,30.13-51.63z"/>
		</g>
		<g id="Path_283" transform="translate(426.973 634.017)">
			<path class="st23" d="M29.75-45.78c-1.15,0-2.23-0.3-3.04-0.85c-0.76-0.52-1.19-1.19-1.19-1.9s0.42-1.38,1.19-1.9
				c0.81-0.55,1.89-0.85,3.04-0.85c1.15,0,2.23,0.3,3.04,0.85c0.76,0.52,1.19,1.19,1.19,1.9s-0.42,1.38-1.19,1.9
				C31.98-46.08,30.9-45.78,29.75-45.78z"/>
			<path class="st24" d="M29.75-50.93c-2.1,0-3.87,1.1-3.87,2.4s1.77,2.4,3.87,2.4s3.87-1.1,3.87-2.4S31.85-50.93,29.75-50.93
				 M29.75-51.63c2.53,0,4.57,1.39,4.57,3.1c0,1.71-2.05,3.1-4.57,3.1s-4.57-1.39-4.57-3.1C25.17-50.24,27.22-51.63,29.75-51.63z"/>
		</g>
		<g id="Path_300" transform="translate(453.973 640.67)">
			<path class="st23" d="M29.75-45.78c-1.15,0-2.23-0.3-3.04-0.85c-0.76-0.52-1.19-1.19-1.19-1.9s0.42-1.38,1.19-1.9
				c0.81-0.55,1.89-0.85,3.04-0.85c1.15,0,2.23,0.3,3.04,0.85c0.76,0.52,1.19,1.19,1.19,1.9s-0.42,1.38-1.19,1.9
				C31.98-46.08,30.9-45.78,29.75-45.78z"/>
			<path class="st24" d="M29.75-50.93c-2.1,0-3.87,1.1-3.87,2.4s1.77,2.4,3.87,2.4s3.87-1.1,3.87-2.4S31.85-50.93,29.75-50.93
				 M29.75-51.63c2.53,0,4.57,1.39,4.57,3.1c0,1.71-2.05,3.1-4.57,3.1s-4.57-1.39-4.57-3.1C25.17-50.24,27.22-51.63,29.75-51.63z"/>
		</g>
		<g id="Path_301" transform="translate(431.548 677.017)">
			<path class="st23" d="M29.75-45.78c-1.15,0-2.23-0.3-3.04-0.85c-0.76-0.52-1.19-1.19-1.19-1.9s0.42-1.38,1.19-1.9
				c0.81-0.55,1.89-0.85,3.04-0.85c1.15,0,2.23,0.3,3.04,0.85c0.76,0.52,1.19,1.19,1.19,1.9s-0.42,1.38-1.19,1.9
				C31.98-46.08,30.9-45.78,29.75-45.78z"/>
			<path class="st24" d="M29.75-50.93c-2.1,0-3.87,1.1-3.87,2.4s1.77,2.4,3.87,2.4s3.87-1.1,3.87-2.4S31.85-50.93,29.75-50.93
				 M29.75-51.63c2.53,0,4.57,1.39,4.57,3.1c0,1.71-2.05,3.1-4.57,3.1s-4.57-1.39-4.57-3.1C25.17-50.24,27.22-51.63,29.75-51.63z"/>
		</g>
	</g>
	<text transform="matrix(6.123234e-17 1 -1 6.123234e-17 1525.0229 222.917)" class="st41 st42 st43">PROJECT</text>
	<text transform="matrix(6.123234e-17 1 -1 6.123234e-17 1525.0229 222.917)" class="st1 st42 st43">PROJECT</text>
</g>
</svg>
