<svg xmlns="http://www.w3.org/2000/svg" viewBox="0 0 183.66 87.12"><defs><style>.a{opacity:0.2;}.b{fill:#fff;}</style></defs><title>Artboard 2</title><path class="a" d="M49.22,43.62c-6.32,0-6.8-4.77-6.8-6.25a6.21,6.21,0,0,1,4.47-6.26c4.15-1.52,5-1.7,7.89-2.59v-.75a6.69,6.69,0,0,0-.28-2.58,4.19,4.19,0,0,0-4.26-2.67,5.1,5.1,0,0,0-4.7,2.89l-1.17-.69c.74-2.63,3.39-5.25,8-5.25,3.25,0,5.37.92,6.66,2.91,1,1.57,1.07,3.76,1.07,6,0,2-.06,4.23-.1,6,0,1.24-.06,2.31-.06,3,0,1.63.26,2.91,1.63,2.91.56,0,.68-.15,1.16-.54l.75.86c-1.23,1.61-2.58,2.93-4.85,2.93A3.38,3.38,0,0,1,55,41.22,7.86,7.86,0,0,1,49.22,43.62Zm5.57-12.23a25.69,25.69,0,0,0-5.1,1.94,3.84,3.84,0,0,0-2,3.65c0,1.26.45,3.37,3.47,3.37a6.31,6.31,0,0,0,3.67-1.08Zm-52.12,11c0-2.34,0-4.32-.17-6.72H3.88A5,5,0,0,0,5,38.95c1,1.11,3.27,1.79,5.39,1.79,4.43,0,6.49-1.68,6.49-5.28,0-3.09-1.91-4.37-4.55-6.15L11.88,29,9.1,27.16c-3.87-2.56-5.85-4.62-5.85-8.72,0-2,.77-8.55,10.51-8.55a48.33,48.33,0,0,1,7.64.63c0,.31-.05,1.81-.05,3.07,0,1.46,0,1.95.06,3.74H20.23A4.5,4.5,0,0,0,19.07,14c-.94-.94-3-1.37-5.21-1.37-5.17,0-5.78,2.65-5.78,4.64,0,2.75,1.4,3.67,4.46,5.7l3.54,2.33c3,2,5.83,3.89,5.83,8.88,0,8.44-7.86,9.34-11.24,9.34A24.26,24.26,0,0,1,2.68,42.36ZM65.53,21a20.77,20.77,0,0,0,4.7-.33,8.93,8.93,0,0,0,3.1-1l.46.28v1.85a11.44,11.44,0,0,1,6.75-2.24c4.19,0,6.93,2,7.71,5.52a24.23,24.23,0,0,1,.3,4.16V36c0,3.84.15,4.91.87,5.6a3.69,3.69,0,0,0,2.26.67v1.09c-1.49-.07-4.15-.22-5.76-.22-2.13,0-4.53.1-5.82.25V42.35a4,4,0,0,0,2.35-.85c.67-.67.79-2,.89-4.91,0-.86.05-2.69.05-4a47.29,47.29,0,0,0-.2-5.32c-.34-3-1.93-4.41-4.93-4.41a9,9,0,0,0-4.36,1V36c0,3.84.15,4.91.89,5.6A3.71,3.71,0,0,0,77,42.3v1.09c-1.93-.1-4.24-.22-5.72-.22a47,47,0,0,0-5.86.25V42.31a3.47,3.47,0,0,0,2.53-1c.71-.8.75-2.79.75-6.74V27.93c0-2.88-.06-4.1-.46-4.72s-1.12-.87-2.72-.85ZM94.44,42.29a3.43,3.43,0,0,0,2.53-1c.72-.81.76-2.77.76-6.73V23h-3V21.73a12.86,12.86,0,0,0,3-1.57A40.68,40.68,0,0,1,98.09,14c.9-4.79,4-7.24,9.32-7.24a9.36,9.36,0,0,1,5.87,1.93l.07.49L111,12.37h-.57c-.79-1.93-2-3-4.05-3a3.5,3.5,0,0,0-2.35.84c-1,1-1.17,2.5-1.17,5.47v4.5h5.19V23H102.9V35.95c0,3.06.11,4.56.51,5.16.65,1,2.69,1.09,3.7,1.05v1.23c-1.71-.1-4.36-.22-6.35-.22a60.9,60.9,0,0,0-6.32.25Zm26.77,1.53c-7.1,0-11.35-4.43-11.35-11.83,0-5.77,3.1-12.47,11.84-12.47,7.1,0,11.33,4.41,11.33,11.83C133,37.09,129.94,43.82,121.21,43.82Zm.29-21.61a4.93,4.93,0,0,0-3.3,1.06c-1.86,1.57-2.81,4.41-2.81,8.47,0,1.57.29,9.39,6,9.39a4.88,4.88,0,0,0,3.28-1.05c1.88-1.57,2.82-4.43,2.82-8.49C127.51,30,127.22,22.21,121.5,22.21Zm13.87-1.27a22.55,22.55,0,0,0,5.09-.42,11.4,11.4,0,0,0,2.76-.78l.42.21v2A7.7,7.7,0,0,1,149,19.82a5.6,5.6,0,0,1,4.05,1.44V22l-2,3.59h-1a4.17,4.17,0,0,0-3.87-2.1,4.41,4.41,0,0,0-2.55.74V35.95c0,3.06.1,4.51.5,5.11.65,1,2.58,1.08,3.69,1v1.29c-1.6-.09-4.35-.22-6.33-.22a60.49,60.49,0,0,0-6.32.25V42.24a3.32,3.32,0,0,0,2.53-1c.72-.81.76-2.72.76-6.68V27.93c0-2.88,0-4.12-.46-4.72s-1.22-.83-2.72-.85ZM168.11,8.1a34.39,34.39,0,0,0,5.47-.65,14.5,14.5,0,0,0,2.53-.61l.41.23c-.2,1.92-.2,6.25-.2,9.31v19c0,2.83,0,4.58.45,5.15s1.22.89,2.68.89v1.24a32.29,32.29,0,0,0-5,.48,10,10,0,0,0-2.58.63l-.64-.22v-2a11,11,0,0,1-6.49,2.19c-6.39,0-10.51-4.43-10.51-11.29a15.65,15.65,0,0,1,1.24-6.27c2-4.22,6-6.64,11.12-6.64a22.91,22.91,0,0,1,4.54.45V15.06c0-2.9,0-4.44-.46-5.06s-.8-.71-2.55-.84Zm-.81,32.33a6.81,6.81,0,0,0,3.82-.94V23.91a6.48,6.48,0,0,0-4.64-1.56c-4.53,0-6.73,3.1-6.73,9.48C159.76,34.51,160.56,40.43,167.3,40.43Zm-127.21.66a7.69,7.69,0,0,1-6.3,2.65c-3.59,0-5.6-1.28-6.48-4.16a20.11,20.11,0,0,1-.36-4.74c0-3.72,0-6.71.08-10.16V23.07H24v-.91a11,11,0,0,0,2.91-1.61A17.13,17.13,0,0,0,31.21,15h1v5.22h7.9v2.89h-7.9V35.28c0,3.65.66,5.73,4.11,5.73a6.81,6.81,0,0,0,3.34-.87Z"/><path class="a" d="M150.95,62.93a2.12,2.12,0,0,0-1.21.38.89.89,0,0,0-.32.72,4.49,4.49,0,0,0,.39,1.46L152,71.27c.33.87.56,1.58.72,2.09l2.66-7.92a4.15,4.15,0,0,0,.37-1.47.93.93,0,0,0-.26-.58,2,2,0,0,0-1.24-.43v-.85c.32,0,1,0,1.34.07s.94.07,1.45.07c1,0,2.36-.09,3-.15V63c-.4.05-1.33-.07-2.05,2.18l-5.69,15.2c-.83,2.19-1.86,4.92-5.85,4.92a4.84,4.84,0,0,1-3.56-1.19v-.41l1.4-1.71h.4a2.24,2.24,0,0,0,2.26,1.31c1.81,0,2.6-1.55,3.84-4.83l.34-.9-4.84-12.38c0-.09-.1-.26-.18-.46s-.4-.92-.4-.92a1.44,1.44,0,0,0-1.45-.81v-.88c.92.07,2.49.15,3.31.15.54,0,1.35,0,2.06-.08l1.37-.06Zm-52.88-.26a14.4,14.4,0,0,0,3.24-.27,7.27,7.27,0,0,0,1.76-.5l.27.13v1.29a4.93,4.93,0,0,1,3.43-1.38,3.57,3.57,0,0,1,2.58.91v.47l-1.25,2.29h-.61A2.66,2.66,0,0,0,105,64.28a2.82,2.82,0,0,0-1.62.47v7.49c0,2,.06,2.88.32,3.26.41.63,1.64.69,2.35.67V77c-1-.05-2.78-.14-4-.14A38.39,38.39,0,0,0,98,77v-.75a2.11,2.11,0,0,0,1.61-.63c.46-.52.48-1.74.48-4.26V67.12c0-1.84,0-2.63-.29-3s-.78-.53-1.74-.54ZM31.39,77.21c-4.23,0-6.65-1.31-7.63-4.12a15,15,0,0,1-.49-4.64v-8c0-2.42-.11-2.79-.56-3.18a2.58,2.58,0,0,0-1.43-.45V56c1,.11,2.65.15,3.69.15A35.4,35.4,0,0,0,28.75,56v.85a1.91,1.91,0,0,0-1.6.59c-.47.52-.49,1.43-.49,4v7.05c0,4.16.36,6.88,5.14,6.88s5.11-2.8,5.11-7.07v-7.8c0-2.42-.12-2.79-.56-3.18a2.6,2.6,0,0,0-1.44-.45V56c.94,0,2.13.14,3.28.14s2.21,0,3.53-.15v.85a1.91,1.91,0,0,0-1.6.59c-.47.52-.49,1.43-.49,4v6a17.72,17.72,0,0,1-.6,5.71C38,75.9,35.58,77.21,31.39,77.21Zm28.52-.91a2.4,2.4,0,0,0,1.73-.62c.46-.52.49-1.73.49-4.29V67.15c0-1.83,0-2.74-.29-3.14s-.64-.48-1.7-.56V62.6a13.57,13.57,0,0,0,3.41-.29,6,6,0,0,0,1.64-.52l.33.33c-.09,1-.13,3.11-.13,5.88v4.34c0,2,.06,2.86.33,3.25a2.31,2.31,0,0,0,1.82.71V77c-.9-.05-2.42-.14-3.75-.14-1.48,0-3.06.06-3.87.15ZM63.6,59.23a1.79,1.79,0,0,1-1.94-1.85,1.85,1.85,0,0,1,2-1.91,1.8,1.8,0,0,1,1.95,1.85A1.86,1.86,0,0,1,63.6,59.23Zm59.54,17.06a2.4,2.4,0,0,0,1.72-.62c.46-.52.49-1.73.49-4.29V67.15c0-1.83,0-2.74-.3-3.14s-.64-.48-1.7-.56V62.6a13.56,13.56,0,0,0,3.41-.29,6,6,0,0,0,1.64-.52l.33.33c-.09,1-.13,3.11-.13,5.88v4.34c0,2,.06,2.86.33,3.25a2.3,2.3,0,0,0,1.82.71V77c-.89-.05-2.42-.14-3.74-.14-1.48,0-3.06.06-3.87.15Zm3.68-17.06a1.79,1.79,0,0,1-1.94-1.85,1.85,1.85,0,0,1,2-1.91,1.8,1.8,0,0,1,1.94,1.85A1.85,1.85,0,0,1,126.83,59.23ZM111,76.46a38.68,38.68,0,0,0-.19-3.92h1a3,3,0,0,0,.64,1.95,3,3,0,0,0,2.62,1h.18c1.64,0,2.48-.69,2.48-2.05,0-1.12-.71-1.56-1.89-2.31l-2.12-1.31A4.29,4.29,0,0,1,111.32,66a3.75,3.75,0,0,1,2.13-3.66,7.32,7.32,0,0,1,3-.53,22.2,22.2,0,0,1,3.92.37,16.36,16.36,0,0,0-.09,1.79c0,.31,0,1.72.05,2h-1a2.7,2.7,0,0,0-.55-1.71,3.1,3.1,0,0,0-2.35-.85c-1.5,0-2.27.64-2.27,1.9,0,1,.8,1.53,1.51,2l.07,0,2,1.18c1.34.78,3,1.75,3,4.14,0,3.91-3.56,4.5-5.69,4.5A11.27,11.27,0,0,1,111,76.46Zm31.4-1a4.9,4.9,0,0,1-4,1.7c-2.3,0-3.57-.81-4.13-2.65a12.71,12.71,0,0,1-.23-3c0-2.38,0-4.28,0-6.48V64h-2v-.58a7.13,7.13,0,0,0,1.86-1,11.08,11.08,0,0,0,2.76-3.57h.65v3.33h5V64h-5v7.79c0,2.33.42,3.66,2.62,3.66a4.31,4.31,0,0,0,2.14-.56ZM74.78,62.12c-.3,0-1,0-1.37.06-.76,0-1.62.08-2.17.08-1.09,0-2.7-.1-3.2-.15V63a1.45,1.45,0,0,1,1.46.87c.18.37.33.74.38.87s.17.43.21.52l4.78,12L76.34,77,81.6,65.19l.18-.37a10.12,10.12,0,0,1,.47-.94A1.7,1.7,0,0,1,83.79,63l0-.9c-.6,0-1.91.15-2.88.15-.51,0-1,0-1.52-.07l-1.36-.07V63a2,2,0,0,1,1.25.41.87.87,0,0,1,.26.57,3.82,3.82,0,0,1-.4,1.49l-2.87,7.1c-.14-.43-.33-1-.61-1.75l-2-5.33a4.13,4.13,0,0,1-.37-1.49.74.74,0,0,1,.19-.54,1.77,1.77,0,0,1,1.28-.46ZM69.5,63.86,42.09,62.73a13.12,13.12,0,0,0,3-.21,5.67,5.67,0,0,0,2-.65l.3.17v1.18a7.3,7.3,0,0,1,4.31-1.43c2.67,0,4.42,1.25,4.91,3.52a15.47,15.47,0,0,1,.2,2.66v4.33c0,2.45.1,3.13.55,3.57a2.37,2.37,0,0,0,1.44.43V77c-1,0-2.65-.14-3.68-.14-1.36,0-2.89.06-3.72.15v-.68a2.59,2.59,0,0,0,1.5-.55c.43-.43.5-1.29.57-3.13,0-.55,0-1.71,0-2.57a30.2,30.2,0,0,0-.13-3.39,2.8,2.8,0,0,0-3.15-2.82,5.76,5.76,0,0,0-2.78.63v7.8c0,2.45.1,3.13.56,3.57a2.39,2.39,0,0,0,1.43.43V77c-1.23-.07-2.7-.14-3.65-.14A30.07,30.07,0,0,0,42,77v-.7a2.22,2.22,0,0,0,1.61-.63c.45-.51.48-1.78.48-4.3V67.13c0-1.84,0-2.61-.29-3s-.72-.55-1.73-.54ZM90.76,77.18c-4.47,0-6.92-2.58-6.92-7.28,0-.83.2-8.06,7-8.06a5.3,5.3,0,0,1,4.63,2.23,7.26,7.26,0,0,1,1,4v.79H87.13a11.62,11.62,0,0,0,.15,1.88c.5,2.87,2.1,4.26,4.9,4.26a6.61,6.61,0,0,0,3.53-.87l.44.74A6.82,6.82,0,0,1,90.76,77.18Zm-3.6-9.93H93c0-1.76-.35-3.77-2.92-3.77C87.69,63.48,87.21,65.72,87.16,67.25Z"/><path class="b" d="M50.22,42.62c-6.32,0-6.8-4.77-6.8-6.25a6.21,6.21,0,0,1,4.47-6.26c4.15-1.52,5-1.7,7.89-2.59v-.75a6.69,6.69,0,0,0-.28-2.58,4.19,4.19,0,0,0-4.26-2.67,5.1,5.1,0,0,0-4.7,2.89l-1.17-.69c.74-2.63,3.39-5.25,8-5.25,3.25,0,5.37.92,6.66,2.91,1,1.57,1.07,3.76,1.07,6,0,2-.06,4.23-.1,6,0,1.24-.06,2.31-.06,3,0,1.63.26,2.91,1.63,2.91.56,0,.68-.15,1.16-.54l.75.86c-1.23,1.61-2.58,2.93-4.85,2.93A3.38,3.38,0,0,1,56,40.22,7.86,7.86,0,0,1,50.22,42.62Zm5.57-12.23a25.69,25.69,0,0,0-5.1,1.94,3.84,3.84,0,0,0-2,3.65c0,1.26.45,3.37,3.47,3.37a6.31,6.31,0,0,0,3.67-1.08Zm-52.12,11c0-2.34,0-4.32-.17-6.72H4.88A5,5,0,0,0,6,37.95c1,1.11,3.27,1.79,5.39,1.79,4.43,0,6.49-1.68,6.49-5.28,0-3.09-1.91-4.37-4.55-6.15L12.88,28,10.1,26.16c-3.87-2.56-5.85-4.62-5.85-8.72,0-2,.77-8.55,10.51-8.55a48.33,48.33,0,0,1,7.64.63c0,.31-.05,1.81-.05,3.07,0,1.46,0,1.95.06,3.74H21.23A4.5,4.5,0,0,0,20.07,13c-.94-.94-3-1.37-5.21-1.37-5.17,0-5.78,2.65-5.78,4.64,0,2.75,1.4,3.67,4.46,5.7l3.54,2.33c3,2,5.83,3.89,5.83,8.88,0,8.44-7.86,9.34-11.24,9.34A24.26,24.26,0,0,1,3.68,41.36ZM66.53,20a20.77,20.77,0,0,0,4.7-.33,8.93,8.93,0,0,0,3.1-1l.46.28v1.85a11.44,11.44,0,0,1,6.75-2.24c4.19,0,6.93,2,7.71,5.52a24.23,24.23,0,0,1,.3,4.16V35c0,3.84.15,4.91.87,5.6a3.69,3.69,0,0,0,2.26.67v1.09c-1.49-.07-4.15-.22-5.76-.22-2.13,0-4.53.1-5.82.25V41.35a4,4,0,0,0,2.35-.85c.67-.67.79-2,.89-4.91,0-.86.05-2.69.05-4a47.29,47.29,0,0,0-.2-5.32c-.34-3-1.93-4.41-4.93-4.41a9,9,0,0,0-4.36,1V35c0,3.84.15,4.91.89,5.6A3.71,3.71,0,0,0,78,41.3v1.09c-1.93-.1-4.24-.22-5.72-.22a47,47,0,0,0-5.86.25V41.31a3.47,3.47,0,0,0,2.53-1c.71-.8.75-2.79.75-6.74V26.93c0-2.88-.06-4.1-.46-4.72s-1.12-.87-2.72-.85ZM95.44,41.29a3.43,3.43,0,0,0,2.53-1c.72-.81.76-2.77.76-6.73V22h-3V20.73a12.86,12.86,0,0,0,3-1.57A40.68,40.68,0,0,1,99.09,13c.9-4.79,4-7.24,9.32-7.24a9.36,9.36,0,0,1,5.87,1.93l.07.49L112,11.37h-.57c-.79-1.93-2-3-4.05-3a3.5,3.5,0,0,0-2.35.84c-1,1-1.17,2.5-1.17,5.47v4.5h5.19V22H103.9V34.95c0,3.06.11,4.56.51,5.16.65,1,2.69,1.09,3.7,1.05v1.23c-1.71-.1-4.36-.22-6.35-.22a60.9,60.9,0,0,0-6.32.25Zm26.77,1.53c-7.1,0-11.35-4.43-11.35-11.83,0-5.77,3.1-12.47,11.84-12.47,7.1,0,11.33,4.41,11.33,11.83C134,36.09,130.94,42.82,122.21,42.82Zm.29-21.61a4.93,4.93,0,0,0-3.3,1.06c-1.86,1.57-2.81,4.41-2.81,8.47,0,1.57.29,9.39,6,9.39a4.88,4.88,0,0,0,3.28-1.05c1.88-1.57,2.82-4.43,2.82-8.49C128.51,29,128.22,21.21,122.5,21.21Zm13.87-1.27a22.55,22.55,0,0,0,5.09-.42,11.4,11.4,0,0,0,2.76-.78l.42.21v2A7.7,7.7,0,0,1,150,18.82a5.6,5.6,0,0,1,4.05,1.44V21l-2,3.59h-1a4.17,4.17,0,0,0-3.87-2.1,4.41,4.41,0,0,0-2.55.74V34.95c0,3.06.1,4.51.5,5.11.65,1,2.58,1.08,3.69,1v1.29c-1.6-.09-4.35-.22-6.33-.22a60.49,60.49,0,0,0-6.32.25V41.24a3.32,3.32,0,0,0,2.53-1c.72-.81.76-2.72.76-6.68V26.93c0-2.88,0-4.12-.46-4.72s-1.22-.83-2.72-.85ZM169.11,7.1a34.39,34.39,0,0,0,5.47-.65,14.5,14.5,0,0,0,2.53-.61l.41.23c-.2,1.92-.2,6.25-.2,9.31v19c0,2.83,0,4.58.45,5.15s1.22.89,2.68.89v1.24a32.29,32.29,0,0,0-5,.48,10,10,0,0,0-2.58.63l-.64-.22v-2a11,11,0,0,1-6.49,2.19c-6.39,0-10.51-4.43-10.51-11.29a15.65,15.65,0,0,1,1.24-6.27c2-4.22,6-6.64,11.12-6.64a22.91,22.91,0,0,1,4.54.45V14.06c0-2.9,0-4.44-.46-5.06s-.8-.71-2.55-.84Zm-.81,32.33a6.81,6.81,0,0,0,3.82-.94V22.91a6.48,6.48,0,0,0-4.64-1.56c-4.53,0-6.73,3.1-6.73,9.48C160.76,33.51,161.56,39.43,168.3,39.43Zm-127.21.66a7.69,7.69,0,0,1-6.3,2.65c-3.59,0-5.6-1.28-6.48-4.16a20.11,20.11,0,0,1-.36-4.74c0-3.72,0-6.71.08-10.16V22.07H25v-.91a11,11,0,0,0,2.91-1.61A17.13,17.13,0,0,0,32.21,14h1v5.22h7.9v2.89h-7.9V34.28c0,3.65.66,5.73,4.11,5.73a6.81,6.81,0,0,0,3.34-.87Z"/><path class="b" d="M151.95,61.93a2.12,2.12,0,0,0-1.21.38.89.89,0,0,0-.32.72,4.49,4.49,0,0,0,.39,1.46L153,70.27c.33.87.56,1.58.72,2.09l2.66-7.92a4.15,4.15,0,0,0,.37-1.47.93.93,0,0,0-.26-.58,2,2,0,0,0-1.24-.43v-.85c.32,0,1,0,1.34.07s.94.07,1.45.07c1,0,2.36-.09,3-.15V62c-.4.05-1.33-.07-2.05,2.18l-5.69,15.2c-.83,2.19-1.86,4.92-5.85,4.92a4.84,4.84,0,0,1-3.56-1.19v-.41l1.4-1.71h.4a2.24,2.24,0,0,0,2.26,1.31c1.81,0,2.6-1.55,3.84-4.83l.34-.9-4.84-12.38c0-.09-.1-.26-.18-.46s-.4-.92-.4-.92a1.44,1.44,0,0,0-1.45-.81v-.88c.92.07,2.49.15,3.31.15.54,0,1.35,0,2.06-.08l1.37-.06Zm-52.88-.26a14.4,14.4,0,0,0,3.24-.27,7.27,7.27,0,0,0,1.76-.5l.27.13v1.29a4.93,4.93,0,0,1,3.43-1.38,3.57,3.57,0,0,1,2.58.91v.47l-1.25,2.29h-.61A2.66,2.66,0,0,0,106,63.28a2.82,2.82,0,0,0-1.62.47v7.49c0,2,.06,2.88.32,3.26.41.63,1.64.69,2.35.67V76c-1-.05-2.78-.14-4-.14A38.39,38.39,0,0,0,99,76v-.75a2.11,2.11,0,0,0,1.61-.63c.46-.52.48-1.74.48-4.26V66.12c0-1.84,0-2.63-.29-3s-.78-.53-1.74-.54ZM32.39,76.21c-4.23,0-6.65-1.31-7.63-4.12a15,15,0,0,1-.49-4.64v-8c0-2.42-.11-2.79-.56-3.18a2.58,2.58,0,0,0-1.43-.45V55c1,.11,2.65.15,3.69.15A35.4,35.4,0,0,0,29.75,55v.85a1.91,1.91,0,0,0-1.6.59c-.47.52-.49,1.43-.49,4v7.05c0,4.16.36,6.88,5.14,6.88s5.11-2.8,5.11-7.07v-7.8c0-2.42-.12-2.79-.56-3.18a2.6,2.6,0,0,0-1.44-.45V55c.94,0,2.13.14,3.28.14s2.21,0,3.53-.15v.85a1.91,1.91,0,0,0-1.6.59c-.47.52-.49,1.43-.49,4v6a17.72,17.72,0,0,1-.6,5.71C39,74.9,36.58,76.21,32.39,76.21Zm28.52-.91a2.4,2.4,0,0,0,1.73-.62c.46-.52.49-1.73.49-4.29V66.15c0-1.83,0-2.74-.29-3.14s-.64-.48-1.7-.56V61.6a13.57,13.57,0,0,0,3.41-.29,6,6,0,0,0,1.64-.52l.33.33c-.09,1-.13,3.11-.13,5.88v4.34c0,2,.06,2.86.33,3.25a2.31,2.31,0,0,0,1.82.71V76c-.9-.05-2.42-.14-3.75-.14-1.48,0-3.06.06-3.87.15ZM64.6,58.23a1.79,1.79,0,0,1-1.94-1.85,1.85,1.85,0,0,1,2-1.91,1.8,1.8,0,0,1,1.95,1.85A1.86,1.86,0,0,1,64.6,58.23Zm59.54,17.06a2.4,2.4,0,0,0,1.72-.62c.46-.52.49-1.73.49-4.29V66.15c0-1.83,0-2.74-.3-3.14s-.64-.48-1.7-.56V61.6a13.56,13.56,0,0,0,3.41-.29,6,6,0,0,0,1.64-.52l.33.33c-.09,1-.13,3.11-.13,5.88v4.34c0,2,.06,2.86.33,3.25a2.3,2.3,0,0,0,1.82.71V76c-.89-.05-2.42-.14-3.74-.14-1.48,0-3.06.06-3.87.15Zm3.68-17.06a1.79,1.79,0,0,1-1.94-1.85,1.85,1.85,0,0,1,2-1.91,1.8,1.8,0,0,1,1.94,1.85A1.85,1.85,0,0,1,127.83,58.23ZM112,75.46a38.68,38.68,0,0,0-.19-3.92h1a3,3,0,0,0,.64,1.95,3,3,0,0,0,2.62,1h.18c1.64,0,2.48-.69,2.48-2.05,0-1.12-.71-1.56-1.89-2.31l-2.12-1.31A4.29,4.29,0,0,1,112.32,65a3.75,3.75,0,0,1,2.13-3.66,7.32,7.32,0,0,1,3-.53,22.2,22.2,0,0,1,3.92.37,16.36,16.36,0,0,0-.09,1.79c0,.31,0,1.72.05,2h-1a2.7,2.7,0,0,0-.55-1.71,3.1,3.1,0,0,0-2.35-.85c-1.5,0-2.27.64-2.27,1.9,0,1,.8,1.53,1.51,2l.07,0,2,1.18c1.34.78,3,1.75,3,4.14,0,3.91-3.56,4.5-5.69,4.5A11.27,11.27,0,0,1,112,75.46Zm31.4-1a4.9,4.9,0,0,1-4,1.7c-2.3,0-3.57-.81-4.13-2.65a12.71,12.71,0,0,1-.23-3c0-2.38,0-4.28,0-6.48V63h-2v-.58a7.13,7.13,0,0,0,1.86-1,11.08,11.08,0,0,0,2.76-3.57h.65v3.33h5V63h-5v7.79c0,2.33.42,3.66,2.62,3.66a4.31,4.31,0,0,0,2.14-.56ZM75.78,61.12c-.3,0-1,0-1.37.06-.76,0-1.62.08-2.17.08-1.09,0-2.7-.1-3.2-.15V62a1.45,1.45,0,0,1,1.46.87c.18.37.33.74.38.87s.17.43.21.52l4.78,12L77.34,76,82.6,64.19l.18-.37a10.12,10.12,0,0,1,.47-.94A1.7,1.7,0,0,1,84.79,62l0-.9c-.6,0-1.91.15-2.88.15-.51,0-1,0-1.52-.07l-1.36-.07V62a2,2,0,0,1,1.25.41.87.87,0,0,1,.26.57,3.82,3.82,0,0,1-.4,1.49l-2.87,7.1c-.14-.43-.33-1-.61-1.75l-2-5.33a4.13,4.13,0,0,1-.37-1.49.74.74,0,0,1,.19-.54,1.77,1.77,0,0,1,1.28-.46ZM70.5,62.86,43.09,61.73a13.12,13.12,0,0,0,3-.21,5.67,5.67,0,0,0,2-.65l.3.17v1.18a7.3,7.3,0,0,1,4.31-1.43c2.67,0,4.42,1.25,4.91,3.52a15.47,15.47,0,0,1,.2,2.66v4.33c0,2.45.1,3.13.55,3.57a2.37,2.37,0,0,0,1.44.43V76c-1,0-2.65-.14-3.68-.14-1.36,0-2.89.06-3.72.15v-.68a2.59,2.59,0,0,0,1.5-.55c.43-.43.5-1.29.57-3.13,0-.55,0-1.71,0-2.57a30.2,30.2,0,0,0-.13-3.39,2.8,2.8,0,0,0-3.15-2.82,5.76,5.76,0,0,0-2.78.63v7.8c0,2.45.1,3.13.56,3.57a2.39,2.39,0,0,0,1.43.43V76c-1.23-.07-2.7-.14-3.65-.14A30.07,30.07,0,0,0,43,76v-.7a2.22,2.22,0,0,0,1.61-.63c.45-.51.48-1.78.48-4.3V66.13c0-1.84,0-2.61-.29-3s-.72-.55-1.73-.54ZM91.76,76.18c-4.47,0-6.92-2.58-6.92-7.28,0-.83.2-8.06,7-8.06a5.3,5.3,0,0,1,4.63,2.23,7.26,7.26,0,0,1,1,4v.79H88.13a11.62,11.62,0,0,0,.15,1.88c.5,2.87,2.1,4.26,4.9,4.26a6.61,6.61,0,0,0,3.53-.87l.44.74A6.82,6.82,0,0,1,91.76,76.18Zm-3.6-9.93H94c0-1.76-.35-3.77-2.92-3.77C88.69,62.48,88.21,64.72,88.16,66.25Z"/></svg>