<?xml version="1.0" encoding="utf-8"?>
<!-- Generator: Adobe Illustrator 25.2.3, SVG Export Plug-In . SVG Version: 6.00 Build 0)  -->
<svg version="1.1" id="Layer_1" xmlns="http://www.w3.org/2000/svg" xmlns:xlink="http://www.w3.org/1999/xlink" x="0px" y="0px"
	 viewBox="0 0 363.92 62" style="enable-background:new 0 0 363.92 62;" xml:space="preserve">
<style type="text/css">
	.st0{fill:#002D5F;}
	.st1{fill:#FFFFFF;}
</style>
<rect class="st0" width="363.92" height="62"/>
<g>
	<path class="st1" d="M20.42,27.38l4.57-13.52h6.68l-8.13,20.53v13.73h-6.28V34.65L9.14,13.86h6.73L20.42,27.38z"/>
	<path class="st1" d="M45.78,48.12l-1.24-3.56h-0.14c-0.92,1.53-1.88,2.59-2.86,3.16s-2.23,0.87-3.73,0.87
		c-1.92,0-3.43-0.72-4.54-2.16s-1.65-3.44-1.65-6c0-2.75,0.75-4.79,2.26-6.13s3.76-2.07,6.76-2.21l3.47-0.14v-1.88
		c0-2.44-1.05-3.66-3.16-3.66c-1.56,0-3.36,0.61-5.39,1.83l-2.16-4.31c2.59-1.64,5.41-2.46,8.46-2.46c2.77,0,4.87,0.79,6.32,2.38
		s2.17,3.83,2.17,6.74v17.53H45.78z M40.36,43.72c1.14,0,2.05-0.51,2.73-1.54s1.02-2.39,1.02-4.09v-2.2l-1.92,0.09
		c-1.42,0.08-2.46,0.48-3.13,1.22s-1,1.83-1,3.28C38.07,42.64,38.83,43.72,40.36,43.72z"/>
	<path class="st1" d="M61.62,48.12h-6.23V11.66h6.23V48.12z"/>
	<path class="st1" d="M76.48,48.59c-3.27,0-5.84-1.16-7.72-3.48s-2.82-5.61-2.82-9.86c0-4.31,0.85-7.68,2.55-10.1
		s4.08-3.63,7.12-3.63c2.84,0,5.09,1.04,6.73,3.11s2.46,4.97,2.46,8.71v3.33H72.26c0.05,2.33,0.52,4.06,1.43,5.19s2.16,1.7,3.75,1.7
		c2.03,0,4.11-0.63,6.23-1.9v5.13C81.68,47.99,79.28,48.59,76.48,48.59z M75.57,26.33c-0.89,0-1.62,0.47-2.2,1.42
		s-0.91,2.41-1.01,4.39h6.33c-0.03-1.91-0.32-3.35-0.87-4.34S76.52,26.33,75.57,26.33z"/>
	<path class="st1" d="M102.31,48.12V13.86h6v34.27H102.31z"/>
	<path class="st1" d="M141.1,48.12V32.56c0-3.83-0.95-5.74-2.84-5.74c-1.38,0-2.36,0.68-2.95,2.05s-0.89,3.56-0.89,6.57v12.68h-6.28
		V32.56c0-3.83-0.96-5.74-2.88-5.74c-1.34,0-2.32,0.68-2.93,2.04s-0.91,3.6-0.91,6.73v12.54h-6.23V22.02h4.95l0.75,3.35h0.4
		c0.62-1.33,1.48-2.3,2.57-2.92s2.25-0.93,3.48-0.93c3.19,0,5.31,1.51,6.38,4.52h0.23c1.33-3.02,3.46-4.52,6.4-4.52
		c2.31,0,4.07,0.81,5.26,2.44s1.79,4,1.79,7.12v17.04H141.1z"/>
	<path class="st1" d="M178.34,48.12V32.56c0-3.83-0.95-5.74-2.84-5.74c-1.38,0-2.36,0.68-2.95,2.05s-0.89,3.56-0.89,6.57v12.68
		h-6.28V32.56c0-3.83-0.96-5.74-2.88-5.74c-1.34,0-2.32,0.68-2.93,2.04s-0.91,3.6-0.91,6.73v12.54h-6.23V22.02h4.95l0.75,3.35h0.4
		c0.62-1.33,1.48-2.3,2.57-2.92s2.25-0.93,3.48-0.93c3.19,0,5.31,1.51,6.38,4.52h0.23c1.33-3.02,3.46-4.52,6.4-4.52
		c2.31,0,4.07,0.81,5.26,2.44s1.79,4,1.79,7.12v17.04H178.34z"/>
	<path class="st1" d="M203.77,48.12L203,44.77h-0.33c-0.58,1.19-1.4,2.12-2.47,2.8s-2.29,1.02-3.67,1.02c-2.34,0-4.12-0.8-5.32-2.39
		s-1.8-3.98-1.8-7.15V22.02h6.3v15.54c0,1.91,0.23,3.34,0.68,4.31s1.19,1.45,2.2,1.45c1.34,0,2.32-0.67,2.94-2.02
		s0.93-3.6,0.93-6.77V22.02h6.3v26.11H203.77z"/>
	<path class="st1" d="M227,48.12V32.56c0-1.89-0.23-3.32-0.68-4.29s-1.19-1.45-2.2-1.45c-1.34,0-2.33,0.67-2.95,2
		s-0.94,3.59-0.94,6.76v12.54h-6.23V22.02h4.95l0.75,3.35h0.4c0.56-1.2,1.37-2.14,2.41-2.82s2.27-1.02,3.68-1.02
		c2.38,0,4.15,0.81,5.33,2.44s1.77,4,1.77,7.12v17.04H227z"/>
	<path class="st1" d="M247.95,48.59c-3.27,0-5.84-1.16-7.72-3.48s-2.82-5.61-2.82-9.86c0-4.31,0.85-7.68,2.55-10.1
		s4.08-3.63,7.12-3.63c2.84,0,5.09,1.04,6.73,3.11s2.46,4.97,2.46,8.71v3.33h-12.54c0.05,2.33,0.52,4.06,1.43,5.19
		s2.16,1.7,3.75,1.7c2.03,0,4.11-0.63,6.23-1.9v5.13C253.14,47.99,250.75,48.59,247.95,48.59z M247.04,26.33
		c-0.89,0-1.62,0.47-2.2,1.42s-0.91,2.41-1.01,4.39h6.33c-0.03-1.91-0.32-3.35-0.87-4.34S247.99,26.33,247.04,26.33z"/>
	<path class="st1" d="M284,18.95c-1.83,0-3.27,1.07-4.32,3.21s-1.58,5.12-1.58,8.93c0,7.94,2.07,11.91,6.21,11.91
		c1.81,0,3.71-0.58,5.7-1.73v5.67c-1.67,1.11-3.81,1.66-6.42,1.66c-3.86,0-6.82-1.54-8.89-4.61s-3.11-7.39-3.11-12.95
		s1.07-9.9,3.2-13.01s5.1-4.66,8.89-4.66c1.25,0,2.45,0.17,3.6,0.52s2.38,0.95,3.69,1.8l-2.11,5.18c-0.7-0.48-1.45-0.93-2.25-1.32
		S284.93,18.95,284,18.95z"/>
	<path class="st1" d="M304.11,48.59c-3.27,0-5.84-1.16-7.72-3.48s-2.82-5.61-2.82-9.86c0-4.31,0.85-7.68,2.55-10.1
		s4.08-3.63,7.12-3.63c2.84,0,5.09,1.04,6.73,3.11s2.46,4.97,2.46,8.71v3.33h-12.54c0.05,2.33,0.52,4.06,1.43,5.19
		s2.16,1.7,3.75,1.7c2.03,0,4.11-0.63,6.23-1.9v5.13C309.3,47.99,306.9,48.59,304.11,48.59z M303.19,26.33
		c-0.89,0-1.62,0.47-2.2,1.42s-0.91,2.41-1.01,4.39h6.33c-0.03-1.91-0.32-3.35-0.87-4.34S304.14,26.33,303.19,26.33z"/>
	<path class="st1" d="M322.79,48.12h-6.23V11.66h6.23V48.12z"/>
	<path class="st1" d="M334.25,48.12h-6.23V11.66h6.23V48.12z"/>
	<path class="st1" d="M353.49,40.48c0,2.55-0.75,4.54-2.24,5.96s-3.69,2.14-6.6,2.14c-2.58,0-4.71-0.51-6.4-1.52v-5.41
		c0.86,0.59,1.86,1.09,3.01,1.48s2.16,0.59,3.04,0.59c0.97,0,1.71-0.24,2.21-0.71s0.76-1.11,0.76-1.89c0-0.8-0.27-1.49-0.8-2.09
		s-1.51-1.32-2.93-2.18c-1.89-1.12-3.25-2.32-4.07-3.6s-1.23-2.78-1.23-4.51c0-2.22,0.76-3.98,2.29-5.27s3.61-1.95,6.27-1.95
		c2.31,0,4.49,0.61,6.54,1.83l-2.04,4.48c-1.67-0.91-3.14-1.36-4.41-1.36c-0.8,0-1.39,0.21-1.79,0.63s-0.6,0.94-0.6,1.55
		c0,0.7,0.25,1.33,0.74,1.88s1.41,1.23,2.75,2.04c1.62,0.98,2.77,1.82,3.42,2.51s1.16,1.47,1.52,2.34S353.49,39.31,353.49,40.48z"/>
</g>
</svg>
