<?xml version="1.0" encoding="utf-8"?>
<!-- Generator: Adobe Illustrator 25.4.1, SVG Export Plug-In . SVG Version: 6.00 Build 0)  -->
<svg version="1.1" id="Layer_1" xmlns="http://www.w3.org/2000/svg" xmlns:xlink="http://www.w3.org/1999/xlink" x="0px" y="0px"
	 viewBox="0 0 308.9 62" style="enable-background:new 0 0 308.9 62;" xml:space="preserve">
<style type="text/css">
	.st0{fill:#00274C;}
	.st1{fill:#FFCB05;}
</style>
<rect x="0" class="st0" width="308.9" height="62"/>
<g>
	<path class="st1" d="M36.4,28.9c0,5.7-1.2,10-3.5,13s-5.6,4.5-9.9,4.5h-8.4V12h9.2c4,0,7.1,1.5,9.3,4.4S36.4,23.5,36.4,28.9z
		 M29.8,29c0-7.7-2.1-11.5-6.3-11.5H21v23.2H23c2.3,0,4-1,5.2-2.9S29.8,32.9,29.8,29z"/>
	<path class="st1" d="M50.6,46.8c-3.3,0-5.8-1.2-7.7-3.5s-2.8-5.6-2.8-9.9c0-4.3,0.9-7.7,2.6-10.1s4.1-3.6,7.1-3.6
		c2.8,0,5.1,1,6.7,3.1s2.5,5,2.5,8.7v3.3H46.4c0,2.3,0.5,4.1,1.4,5.2s2.2,1.7,3.8,1.7c2,0,4.1-0.6,6.2-1.9V45
		C55.8,46.2,53.4,46.8,50.6,46.8z M49.7,24.5c-0.9,0-1.6,0.5-2.2,1.4s-0.9,2.4-1,4.4h6.3c0-1.9-0.3-3.4-0.9-4.3S50.7,24.5,49.7,24.5
		z"/>
	<path class="st1" d="M72.7,46.8c-3.3,0-5.8-1.2-7.7-3.5s-2.8-5.6-2.8-9.9c0-4.3,0.9-7.7,2.6-10.1s4.1-3.6,7.1-3.6
		c2.8,0,5.1,1,6.7,3.1s2.5,5,2.5,8.7v3.3H68.5c0,2.3,0.5,4.1,1.4,5.2s2.2,1.7,3.8,1.7c2,0,4.1-0.6,6.2-1.9V45
		C77.9,46.2,75.5,46.8,72.7,46.8z M71.8,24.5c-0.9,0-1.6,0.5-2.2,1.4s-0.9,2.4-1,4.4h6.3c0-1.9-0.3-3.4-0.9-4.3S72.7,24.5,71.8,24.5
		z"/>
	<path class="st1" d="M96.8,46.8c-1.1,0-2.1-0.3-3-0.8s-1.7-1.4-2.4-2.7h-0.3c0.2,2.1,0.4,3.4,0.4,3.8v10.7h-6.3V20.2H90l1.1,3.4
		h0.3c1.3-2.6,3.2-3.9,5.6-3.9c2.4,0,4.2,1.2,5.6,3.5s2,5.7,2,10c0,4.2-0.7,7.6-2.1,10S99.2,46.8,96.8,46.8z M94.9,25
		c-1.2,0-2.1,0.6-2.6,1.7s-0.8,3-0.9,5.6v0.8c0,2.9,0.3,5,0.8,6.3s1.5,2,2.7,2c2.2,0,3.3-2.8,3.3-8.3c0-2.7-0.3-4.8-0.8-6.1
		S96,25,94.9,25z"/>
	<path class="st1" d="M115.2,46.3H109V9.8h6.2V46.3z"/>
	<path class="st1" d="M117.8,20.2h6.5l3.6,14.7c0.4,1.3,0.6,3.1,0.9,5.5h0.1c0-0.4,0.1-1,0.2-2s0.2-1.7,0.3-2.3s1.2-5.9,3.2-16h6.6
		l-7.5,28c-0.9,3.4-2.1,5.9-3.6,7.4s-3.5,2.2-6,2.2c-1.2,0-2.3-0.1-3.3-0.4v-5.2c0.6,0.2,1.4,0.3,2.2,0.3c2.1,0,3.5-1.4,4.1-4.1
		l0.4-1.6L117.8,20.2z"/>
	<path class="st1" d="M172.7,22.6c0,3.6-0.9,6.4-2.8,8.4c-1.8,1.9-4.5,2.9-8,2.9h-1.6v12.4h-6.4V12h8.7
		C169.4,12,172.7,15.6,172.7,22.6z M160.4,28.4h1.2c1.6,0,2.7-0.4,3.5-1.3s1.1-2.3,1.1-4.2c0-1.8-0.4-3.1-1.1-4s-1.8-1.3-3.3-1.3
		h-1.5V28.4z"/>
	<path class="st1" d="M187.8,19.7c0.8,0,1.5,0.1,2.2,0.4l-0.7,6c-0.4-0.2-1-0.2-1.7-0.2c-1.5,0-2.7,0.6-3.5,1.8s-1.2,2.9-1.2,5.2
		v13.4h-6.2V20.2h5.1l0.7,4.1h0.2c0.7-1.6,1.4-2.8,2.2-3.5S186.7,19.7,187.8,19.7z"/>
	<path class="st1" d="M212.2,33.2c0,4.3-0.9,7.6-2.7,10s-4.3,3.6-7.5,3.6c-2,0-3.8-0.5-5.3-1.6s-2.7-2.7-3.5-4.7s-1.2-4.5-1.2-7.2
		c0-4.2,0.9-7.5,2.7-9.9s4.3-3.6,7.5-3.6c3.1,0,5.5,1.2,7.3,3.6S212.2,29.1,212.2,33.2z M198.3,33.2c0,2.7,0.3,4.8,0.9,6.2
		s1.5,2.1,2.9,2.1c2.5,0,3.8-2.8,3.8-8.2c0-2.7-0.3-4.8-0.9-6.1s-1.6-2-2.8-2c-1.3,0-2.3,0.7-2.9,2S198.3,30.5,198.3,33.2z"/>
	<path class="st1" d="M228.2,25.1h-4.3v21.2h-6.2V25.1h-3V22l3-1.9v-2c0-2.9,0.6-5.1,1.8-6.5s3.1-2.1,5.8-2.1c1.7,0,3.3,0.4,4.7,1.1
		l-1.6,4.8c-0.8-0.4-1.6-0.6-2.4-0.6c-0.7,0-1.2,0.3-1.6,0.8s-0.5,1.4-0.5,2.6v1.9h4.3V25.1z M230.7,13.4c0-1,0.3-1.8,0.9-2.4
		s1.4-0.9,2.5-0.9c1,0,1.8,0.3,2.4,0.9s0.9,1.4,0.9,2.4c0,1.1-0.3,1.9-0.9,2.5s-1.4,0.9-2.4,0.9c-1,0-1.9-0.3-2.5-0.9
		S230.7,14.4,230.7,13.4z M237.2,46.3H231V20.2h6.2V46.3z"/>
	<path class="st1" d="M248.8,46.3h-6.2V9.8h6.2V46.3z"/>
	<path class="st1" d="M263.6,46.8c-3.3,0-5.8-1.2-7.7-3.5s-2.8-5.6-2.8-9.9c0-4.3,0.9-7.7,2.6-10.1s4.1-3.6,7.1-3.6
		c2.8,0,5.1,1,6.7,3.1s2.5,5,2.5,8.7v3.3h-12.5c0,2.3,0.5,4.1,1.4,5.2s2.2,1.7,3.8,1.7c2,0,4.1-0.6,6.2-1.9V45
		C268.8,46.2,266.4,46.8,263.6,46.8z M262.7,24.5c-0.9,0-1.6,0.5-2.2,1.4s-0.9,2.4-1,4.4h6.3c0-1.9-0.3-3.4-0.9-4.3
		S263.7,24.5,262.7,24.5z"/>
	<path class="st1" d="M282.9,46.8c-2.4,0-4.3-1.2-5.7-3.6s-2.1-5.7-2.1-9.9c0-4.3,0.7-7.6,2-10s3.2-3.6,5.6-3.6
		c1.2,0,2.2,0.3,3.1,0.9s1.7,1.6,2.4,3h0.4c-0.2-2.4-0.3-4-0.3-5V9.8h6.2v36.5H290l-1.1-3.4h-0.2C287.4,45.5,285.5,46.8,282.9,46.8z
		 M285,41.5c1.2,0,2-0.5,2.5-1.6s0.8-3,0.9-5.8v-0.8c0-3-0.3-5.2-0.8-6.4s-1.4-1.9-2.7-1.9c-1.2,0-2,0.7-2.5,2.1s-0.8,3.5-0.8,6.2
		c0,2.7,0.3,4.7,0.8,6.1S283.8,41.5,285,41.5z"/>
</g>
</svg>
