<?xml version="1.0" encoding="utf-8"?>
<!-- Generator: Adobe Illustrator 25.2.3, SVG Export Plug-In . SVG Version: 6.00 Build 0)  -->
<svg version="1.1" id="Layer_1" xmlns="http://www.w3.org/2000/svg" xmlns:xlink="http://www.w3.org/1999/xlink" x="0px" y="0px"
	 viewBox="0 0 971.75 199.99" style="enable-background:new 0 0 971.75 199.99;" xml:space="preserve">
<style type="text/css">
	.st0{fill:#333333;}
	.st1{fill:#666666;}
	.st2{fill:#009244;}
	.st3{fill:#2A398F;}
	.st4{fill:#FFC940;}
	.st5{fill:#90278E;}
	.st6{fill:#FFFFFF;stroke:#000000;stroke-width:5;stroke-miterlimit:10;}
</style>
<g>
	<path class="st0" d="M31.23,166.67H14.36v19.95h19.07v12.49H0v-73.87h32.11v12.49H14.36v16.99h16.88V166.67z"/>
	<path class="st0" d="M62.99,199.11v-73.87h13.15l11.4,28.93c2.19,5.7,5.81,15.23,7.89,21.59h0.22c-0.44-7.78-1.42-20.6-1.42-34.19
		v-16.33h12.6v73.87H93.68l-11.29-28.06c-2.41-6.25-5.81-15.56-7.45-22.25h-0.22c0.33,7.45,0.88,18.85,0.88,33.65v16.66H62.99z"/>
	<path class="st0" d="M174.62,198.02c-2.08,0.99-6.14,1.75-11.18,1.75c-18.85,0-27.84-15.56-27.84-36.5
		c0-27.84,15.45-38.69,29.81-38.69c5.04,0,8.55,0.99,9.97,1.97l-2.41,12.06c-1.64-0.77-3.51-1.42-6.68-1.42
		c-8.11,0-15.45,7.01-15.45,25.32c0,17.64,6.69,24.55,15.45,24.55c2.41,0,5.15-0.55,6.9-1.1L174.62,198.02z"/>
	<path class="st0" d="M214.62,199.11v-28.28l-16.22-45.59h15.34l5.04,17.64c1.31,4.71,2.74,10.19,3.84,15.67h0.22
		c0.88-5.37,2.08-10.74,3.4-16l4.38-17.32h14.9l-16.55,45.04v28.82H214.62z"/>
	<path class="st0" d="M303.83,198.02c-2.08,0.99-6.14,1.75-11.18,1.75c-18.85,0-27.84-15.56-27.84-36.5
		c0-27.84,15.45-38.69,29.81-38.69c5.04,0,8.55,0.99,9.97,1.97l-2.41,12.06c-1.64-0.77-3.51-1.42-6.68-1.42
		c-8.11,0-15.45,7.01-15.45,25.32c0,17.64,6.68,24.55,15.45,24.55c2.41,0,5.15-0.55,6.91-1.1L303.83,198.02z"/>
	<path class="st0" d="M331.51,125.25h14.36v61.7h18.96v12.17h-33.32V125.25z"/>
	<path class="st0" d="M435.85,160.87c0,27.84-9.86,39.13-23.89,39.13c-16.77,0-23.34-17.75-23.34-38.03c0-20.17,8-37.59,24.33-37.59
		C430.81,124.37,435.85,143.99,435.85,160.87z M403.52,162.18c0,16.77,3.18,25.32,8.99,25.32c6.03,0,8.33-10.96,8.33-25.97
		c0-12.93-1.97-24.66-8.44-24.66C406.7,136.86,403.52,146.29,403.52,162.18z"/>
	<path class="st0" d="M465,126.34c4.06-0.88,9.54-1.42,15.02-1.42c8.55,0,15.23,1.21,20.05,5.7c4.38,3.84,6.36,9.97,6.36,16.22
		c0,8-2.41,13.59-6.25,17.75c-4.6,4.82-12.06,7.01-17.97,7.01c-0.99,0-1.97,0-2.85,0v27.51H465V126.34z M479.36,159.88
		c0.66,0.22,1.43,0.22,2.3,0.22c7.23,0,10.52-5.15,10.52-12.06c0-6.47-2.63-11.51-9.31-11.51c-1.31,0-2.63,0.22-3.51,0.55V159.88z"
		/>
	<path class="st0" d="M565.34,166.67h-16.88v19.95h19.07v12.49h-33.43v-73.87h32.11v12.49h-17.75v16.99h16.88V166.67z"/>
	<path class="st0" d="M596.92,126.34c3.62-0.88,8.88-1.42,14.58-1.42c9.31,0,15.78,2.19,20.49,6.58c6.36,5.7,9.65,15.45,9.65,29.81
		c0,14.9-3.84,25.54-10.3,31.23c-4.93,4.82-12.28,7.12-22.58,7.12c-4.49,0-8.99-0.44-11.84-0.77V126.34z M611.28,187.72
		c0.66,0.22,1.75,0.22,2.52,0.22c6.91,0,12.93-6.8,12.93-27.18c0-15.12-3.95-24.33-12.6-24.33c-0.99,0-1.97,0-2.85,0.33V187.72z"/>
	<path class="st0" d="M685.09,125.25v73.87h-14.36v-73.87H685.09z"/>
	<path class="st0" d="M729.24,182.24l-3.29,16.88h-13.92l16-73.87h17.21l14.36,73.87h-13.92l-3.18-16.88H729.24z M741.19,171.06
		l-2.41-15.45c-0.77-4.49-1.75-11.84-2.41-16.77h-0.33c-0.77,4.93-1.86,12.6-2.63,16.88l-2.74,15.34H741.19z"/>
</g>
<g>
	<g>
		<path class="st1" d="M243.7,70.62c0-10.69,2.48-20.32,7.43-28.88c4.96-8.56,11.94-15.38,20.95-20.45
			c9.01-5.08,18.81-7.62,29.38-7.62c9.67,0,18.55,1.94,26.62,5.81c8.08,3.87,15,9.56,20.77,17.08l10.45-8.02
			c-6.36-8.83-14.54-15.7-24.51-20.59c-9.97-4.9-21.14-7.35-33.52-7.35c-20.48,0-37.53,6.63-51.14,19.87
			c-13.61,13.25-20.41,29.57-20.41,48.98c0,13.11,2.86,24.85,8.54,35.23h16.38C247.35,95.09,243.7,83.74,243.7,70.62z"/>
	</g>
	<g>
		<polygon class="st1" points="102.31,3.94 99.42,3.94 99.42,104.68 113.12,104.68 113.12,36.12 172.89,104.68 189.78,104.68 		"/>
	</g>
	<g>
		<path class="st1" d="M634.8,104.68h15.76c4.92-9.57,7.39-20.5,7.39-32.8c0-15.38-3.62-28.63-10.86-39.74
			c-7.24-11.12-17.29-18.92-30.14-23.43c-8.96-3.19-23.34-4.78-43.17-4.78H546.3v100.75h12.7V16.91h9.37
			c19.04,0,32.72,1.26,41.01,3.78c11.05,3.36,19.67,9.57,25.86,18.64s9.28,19.99,9.28,32.77c0,12.18-2.85,22.49-8.56,30.93
			C635.59,103.6,635.2,104.15,634.8,104.68z"/>
	</g>
	<g>
		<polygon class="st1" points="683.73,104.68 696.98,104.68 696.98,71.43 759.15,71.43 759.15,58.46 696.98,58.46 696.98,16.91 
			759.7,16.91 759.7,3.94 683.73,3.94 		"/>
	</g>
	<g>
		<path class="st1" d="M494.94,104.68h15.97c5.86-10.23,8.81-21.73,8.81-34.51c0-19.59-6.76-36.08-20.29-49.47
			C485.9,7.3,469.1,0.6,449.02,0.6c-12.39,0-23.9,3.08-34.54,9.24c-10.64,6.16-19.04,14.68-25.2,25.55
			c-6.16,10.87-9.24,22.68-9.24,35.42c0,12.51,2.92,23.79,8.72,33.88h16.1c-7.4-9.65-11.12-20.95-11.12-33.93
			c0-10.64,2.47-20.29,7.4-28.95c4.93-8.66,11.8-15.54,20.58-20.65c8.79-5.11,18.09-7.67,27.89-7.67c9.99,0,19.43,2.55,28.34,7.67
			c8.91,5.11,15.81,11.92,20.71,20.43c4.9,8.51,7.36,18.02,7.36,28.55c0,10.58-2.45,20.2-7.36,28.86
			C497.53,100.99,496.28,102.88,494.94,104.68z"/>
	</g>
	<g>
		<polygon class="st1" points="75.9,71.43 75.9,58.46 13.72,58.46 13.72,16.91 76.44,16.91 76.44,3.94 0.47,3.94 0.47,104.68 
			13.72,104.68 13.72,71.43 		"/>
	</g>
	<g>
		<rect x="190.53" y="3.94" class="st1" width="13.07" height="100.75"/>
	</g>
</g>
<g>
	<path class="st2" d="M897.39,119.44c-1.94,28.47-8.21,55.53-18.2,80.55h80.06c12.8-42.82,17.12-89.02,11.64-136.52l-74.17,8.57
		C898.25,87.38,898.5,103.18,897.39,119.44z"/>
	<path class="st3" d="M896.71,72.04l74.17-8.57c-2.56-22.16-6.91-43.33-13-63.47h-79.54C888.05,22.63,894.17,46.69,896.71,72.04z"/>
	<path class="st4" d="M817.46,113.99c-2.5,31.78-13.42,61.18-30.53,86h92.26c9.99-25.02,16.25-52.08,18.2-80.55L817.46,113.99z"/>
	<path class="st5" d="M896.71,72.04c-2.54-25.35-8.67-49.41-18.36-72.04h-91.42c19.6,28.42,31.08,62.86,31.08,100
		c0,4.71-0.19,9.38-0.55,14l79.93,5.45C898.5,103.18,898.25,87.38,896.71,72.04z"/>
</g>
<path class="st6" d="M900.22,73.15c7.08,0,13.22,1.36,18.42,4.07c5.2,2.71,9.53,6.41,13,11.07c3.46,4.67,6.06,10.21,7.8,16.61
	c1.73,6.41,2.6,13.3,2.6,20.68c0,9.19-1.28,17.37-3.84,24.52c-2.56,7.16-6.18,13.19-10.85,18.08c-4.67,4.9-10.17,8.63-16.5,11.19
	c-6.33,2.56-13.26,3.84-20.79,3.84c-7.68,0-14.77-1.24-21.24-3.73c-6.48-2.49-12.06-6.18-16.72-11.07
	c-4.67-4.89-8.33-10.88-10.96-17.97c-2.64-7.08-3.96-15.14-3.96-24.18c0-9.79,1.28-18.61,3.84-26.44c2.56-7.83,5.8-15.37,9.72-22.6
	l30.51-57.4h41.36L891.64,74.5l0.23,0.23c0.75-0.45,2-0.83,3.73-1.13C897.32,73.3,898.87,73.15,900.22,73.15z M907.23,125.13
	c0-7.83-1.55-14.2-4.63-19.1c-3.09-4.89-7.34-7.34-12.77-7.34c-5.12,0-9.38,2.49-12.77,7.46c-3.39,4.97-5.08,11.3-5.08,18.98
	s1.66,14.01,4.97,18.98c3.31,4.97,7.53,7.46,12.66,7.46c5.27,0,9.53-2.49,12.77-7.46C905.61,139.14,907.23,132.81,907.23,125.13z"/>
</svg>
