<?xml version="1.0" encoding="utf-8"?>
<!-- Generator: Adobe Illustrator 25.3.1, SVG Export Plug-In . SVG Version: 6.00 Build 0)  -->
<svg version="1.1" id="Layer_1" xmlns="http://www.w3.org/2000/svg" xmlns:xlink="http://www.w3.org/1999/xlink" x="0px" y="0px"
	 viewBox="0 0 220.24 32" style="enable-background:new 0 0 220.24 32;" xml:space="preserve">
<style type="text/css">
	.st0{fill:#1F6F42;}
	.st1{fill:#A88181;}
	.st2{fill:#010101;}
	.st3{font-family:'CalistoMT';}
	.st4{font-size:43.3589px;}
</style>
<path class="st0" d="M72.12,2.11c0.26,0.09,0.5,0.29,0.79,0.24c0.29-0.15,0.51-0.56,0.94-0.44c0.48,0.24,0.35,0.82,0.48,1.24
	c0.17,1.75,0.4,3.58,0.57,5.3c-0.04,0.15-0.07,0.31-0.24,0.38c-0.2,0.04-0.4,0.05-0.53-0.07c-0.4-0.47-0.5-1.07-0.9-1.57
	c-0.51-0.84-1.27-1.6-2.02-2.27c-1.64-1.36-3.58-2.22-5.75-2.35c-0.55,0-1.23-0.02-1.78,0.09c-0.92,0.15-1.78,0.33-2.54,0.82
	c-0.99,0.56-1.8,1.57-2.1,2.66c-0.4,1.06-0.22,2.37,0.22,3.35c0.72,0.95,1.51,1.95,2.61,2.4c0.97,0.47,1.99,0.8,3.01,1.15
	c0.74,0.24,1.47,0.42,2.19,0.67c2.32,0.73,4.65,1.47,6.53,3.31c0.94,0.95,1.58,2.09,1.89,3.35c0.11,0.33,0.17,0.69,0.2,1.04
	c0.11,0.42,0.06,0.98,0.11,1.46c-0.02,0.15-0.02,0.38,0,0.53c-0.07,0.05-0.02,0.24-0.06,0.33c-0.28,2.49-2,4.91-4.37,6.04
	c-0.2,0.09-0.4,0.22-0.62,0.31c-0.28,0.05-0.51,0.2-0.79,0.27c-0.44,0.22-0.94,0.27-1.38,0.44c-0.4,0.11-0.81,0.16-1.19,0.25
	c-2.04,0.31-4.34,0.45-6.4,0c-1.47-0.38-2.94-0.73-4.21-1.62c-0.44-0.35-0.31-0.91-0.48-1.38c-0.29-1.6-0.64-3.2-0.92-4.8
	c-0.06-0.22,0-0.44,0.2-0.56c0.22-0.04,0.5-0.11,0.72,0.04c0.29,0.38,0.31,0.91,0.59,1.29c0.26,0.58,0.64,1.15,1.07,1.64
	c0.02,0.11,0.15,0.18,0.2,0.25c1.27,1.49,2.98,2.6,4.72,3.2c0.4,0.09,0.77,0.24,1.19,0.31c0.77,0.16,1.69,0.25,2.55,0.16
	c0.39,0.05,0.74-0.09,1.12-0.09c1.62-0.24,2.94-1.15,4.03-2.35c0.94-1.13,1.45-2.53,1.25-4.02c-0.11-0.62-0.31-1.18-0.66-1.69
	c-0.72-1.38-2.04-2.33-3.44-2.82c-0.29-0.15-0.62-0.25-0.94-0.38c-1.69-0.56-3.44-1.06-5.13-1.66c-0.81-0.31-1.64-0.67-2.39-1.07
	c-1.62-0.8-3.11-2.35-3.69-4.02c-0.53-1.55-0.64-3.38-0.28-5c0.2-0.75,0.5-1.51,0.99-2.15c0.11-0.24,0.33-0.45,0.5-0.67
	c1.36-1.47,3.2-2.18,5.07-2.6c1.38-0.27,2.96-0.27,4.37-0.18C69.07,1.07,70.67,1.45,72.12,2.11"/>
<path class="st0" d="M106.86,1.01c0.04,0.15,0.04,0.26-0.02,0.41c-0.62,0.58-1.42,0.84-1.97,1.5c-0.51,0.54-0.81,1.28-0.81,2.05
	c-0.02,0.45,0,1.03-0.02,1.48v0.45l0.02,3.98l0.02,10.96c-0.06,0.02,0,0.06,0,0.09l0.02,4.58c0.02,0.51,0.17,1.01,0.42,1.44
	c0.07,0.04,0.07,0.11,0.11,0.19c0.75,0.99,1.86,1.33,2.83,1.9c0.22,0.15,0.5,0.34,0.5,0.66c0,0.21-0.17,0.36-0.31,0.49l-0.17,0.04
	c-1.71-0.04-3.38-0.17-5.11-0.15l-0.02,0.04c-1.23-0.02-2.44,0.17-3.68,0.11c-0.15-0.02-0.28-0.09-0.39-0.24
	c-0.07-0.21-0.04-0.47,0.04-0.64c0.74-0.77,1.76-1.16,2.37-2.03c0.46-0.6,0.51-1.48,0.51-2.2l0.04-0.04l-0.04-0.06
	c0.02-3,0-5.93-0.04-8.91c-0.06-0.34-0.17-0.86-0.59-0.99l-0.31-0.04h-3.86l-6.27,0.02l-4.39,0.02c-0.31,0-0.57,0.09-0.75,0.39
	c-0.11,0.19-0.17,0.41-0.24,0.6c-0.02,0.41,0,0.9-0.02,1.28l0.02,8.52c0.06,1.91,2.11,2.51,3.42,3.23c0.31,0.21,0.62,0.53,0.55,0.92
	c-0.28,0.39-0.83,0.21-1.27,0.23c-2.22-0.04-4.65-0.17-6.95-0.08c-0.64,0.04-1.27,0.15-1.87,0.08c-0.29-0.19-0.26-0.54-0.24-0.84
	c0.39-0.64,1.12-0.77,1.65-1.16c1.49-0.98,1.67-2.72,1.64-4.41L81.68,11.3l-0.02-4.92c0-0.94,0.06-2.01-0.51-2.8
	c-0.29-0.47-0.75-0.83-1.19-1.11c-0.55-0.34-1.19-0.56-1.75-0.92c-0.17-0.11-0.26-0.3-0.26-0.51c0.06-0.09,0.09-0.24,0.22-0.3
	c0.59-0.19,1.19-0.02,1.82-0.06c1.31,0.09,2.63,0.09,3.86,0.15l0.02-0.02c1.12-0.02,2.24-0.21,3.35-0.11
	c0.2,0.02,0.42,0.06,0.5,0.24c0.06,0.17,0.04,0.34-0.09,0.47c-0.7,0.53-1.58,0.81-2.21,1.67c-0.39,0.53-0.62,1.14-0.64,1.78v4.62
	l0.02,3.83c0.07,0.45,0.28,0.99,0.75,1.11l0.33,0.04l6.12-0.02l6.36-0.02c0.75-0.02,1.56,0.06,2.3-0.06
	c0.57-0.51,0.46-1.31,0.51-2.01V7.94c-0.18-1.67,0.44-3.66-0.85-4.92c-0.57-0.56-1.27-0.94-1.95-1.35
	c-0.24-0.17-0.44-0.43-0.39-0.75c0.04-0.17,0.17-0.23,0.29-0.28c0.33-0.08,0.64-0.02,0.99-0.04l0.04,0.04
	c1.36,0,2.85,0.19,4.21,0.09c0.28,0.08,0.53-0.09,0.83-0.02c0.75-0.06,1.64-0.26,2.3,0.09C106.75,0.86,106.81,0.9,106.86,1.01"/>
<path class="st0" d="M53.19,0.96c0.15,0.9-0.9,1.32-1.31,1.93c-0.7,0.72-1.12,1.62-1.12,2.55l-0.02,0.09
	c0.02,2.35,0.02,4.83,0.04,7.07v6.06c0.07,0.88,0.02,1.8-0.07,2.7c-0.07,0.75-0.26,1.49-0.44,2.2c-0.24,0.73-0.4,1.51-0.81,2.17
	c-0.06,0.24-0.22,0.44-0.31,0.66c-0.81,1.4-2.13,2.74-3.6,3.42c-1.99,1.03-4.32,1.23-6.73,1.14l-0.07-0.04
	c-0.7-0.02-1.38-0.07-2.04-0.18c-1.29-0.2-2.52-0.55-3.68-1.07c-0.35-0.18-0.74-0.4-1.07-0.59c-0.99-0.66-1.82-1.58-2.41-2.55
	c0.04-0.07-0.07-0.06-0.07-0.11c-0.39-0.7-0.64-1.43-0.85-2.19c-0.11-0.2-0.09-0.44-0.18-0.64c-0.18-0.84-0.29-1.69-0.33-2.59
	c0.02-0.02,0.06-0.04,0.04-0.07c-0.15-0.06-0.07-0.22-0.11-0.33c0.02-0.83-0.07-1.67-0.04-2.55l-0.02-8.73
	c-0.02-1.62-0.04-3.23-0.04-4.83c-0.09-0.17-0.09-0.28-0.15-0.42c-0.06-0.02-0.02-0.09-0.04-0.11c-0.75-1.14-2.13-1.29-3.09-2.15
	c-0.17-0.22-0.33-0.53-0.17-0.79c0.33-0.24,0.77-0.31,1.21-0.24c0.31-0.04,0.59,0.04,0.92,0.02c0.11,0.04,0.28,0,0.44,0.04
	c1.75,0.2,3.53-0.06,5.33-0.07c0.53,0,1.23-0.18,1.64,0.28c0.09,0.48-0.29,0.84-0.68,1.08c-0.85,0.55-2.04,1.19-2.1,2.31
	c-0.04,2.61,0.02,5.07,0.02,7.55v3.43l0.02,3.4c0.02,0.44,0.02,0.97,0.09,1.43c0.15,1.29,0.46,2.63,0.97,3.82
	c0.44,1.03,1.14,2.02,1.95,2.88c0.77,0.66,1.58,1.27,2.52,1.63c0.88,0.35,1.8,0.55,2.79,0.64c2.83,0.17,5.64-0.48,7.39-2.79
	c0.88-1.19,1.36-2.53,1.62-3.97c0.02-0.04,0.02-0.15,0.04-0.22c0.15-0.7,0.18-1.43,0.2-2.17l0.04-0.06
	c-0.02-0.26-0.04-0.59,0.02-0.88l-0.02-3.71l-0.02-5.75c-0.06-1.54,0.06-2.99-0.07-4.59c-0.15-0.99-1.01-1.76-1.87-2.22
	c-0.68-0.46-1.62-0.64-2-1.43c-0.06-0.2-0.04-0.42,0.09-0.55c0.2-0.24,0.57-0.15,0.85-0.15c0.55-0.04,1.03,0.09,1.58,0.04
	c1.42,0.07,2.9,0.18,4.25-0.02C52.25,0.73,52.86,0.51,53.19,0.96"/>
<path class="st0" d="M10.27,1.68C9.19,1.6,7.92,1.49,6.87,1.75c-0.61,0.24-0.7,0.89-0.68,1.51l0.02,4.93c0.02,1.9,0,3.91,0.02,5.88
	c0.06,0.17,0.22,0.24,0.35,0.32c1.18,0.33,2.55,0.17,3.75,0.19c0.7-0.04,1.38-0.02,2-0.2c0.07-0.04,0.18,0.04,0.24-0.07
	c0.64-0.09,1.18-0.41,1.71-0.73c0.2-0.15,0.4-0.3,0.59-0.43c1.45-1.34,1.82-3.2,1.73-5.1c-0.06-1.71-0.68-3.39-1.99-4.58
	c-0.24-0.11-0.39-0.43-0.64-0.48c-0.5-0.41-1.1-0.6-1.65-0.86C11.65,1.94,10.99,1.79,10.27,1.68 M18.4,2.83
	c1.65,1.53,2.1,3.7,1.99,5.91c-0.24,2.21-1.43,4.2-3.27,5.6c-0.62,0.45-1.29,0.84-1.97,1.17c0.33,0.58,0.75,1.13,1.08,1.71
	c1.95,2.98,3.97,5.91,5.88,8.91c0.22,0.3,0.46,0.58,0.64,0.86c0.44,0.47,0.88,0.97,1.32,1.43c0.66,0.52,1.31,1.08,2.1,1.3
	c0.07,0.02,0.18,0,0.26,0.07c0.31,0.15,0.92,0.06,0.92,0.56c-0.04,0.28-0.39,0.28-0.57,0.39c-1.07,0.19-2.28,0.19-3.36,0.15
	c-1.38-0.09-2.59-0.73-3.4-1.9c-1.23-1.58-2.06-3.27-3.22-4.89c-0.24-0.43-0.5-0.8-0.75-1.21c-0.83-1.28-1.64-2.59-2.48-3.83
	c-0.64-0.82-0.96-2.23-2.19-2.33c-1.25-0.17-2.59-0.07-3.86-0.07c-0.29,0-0.59,0.2-0.74,0.48c-0.04,0.24-0.04,0.48-0.02,0.74v2.4
	l0.02,6.14c0.04,0.41,0.09,0.74,0.18,1.13c0.31,0.84,1.07,1.58,1.91,1.84c0.68,0.24,1.4,0.41,2.04,0.71
	c0.17,0.11,0.28,0.3,0.29,0.52c0,0.15-0.04,0.3-0.18,0.33c-0.88,0.04-1.71-0.07-2.54-0.07c-0.74-0.06-1.56-0.02-2.32-0.02
	l-0.06-0.04c-0.29,0.04-0.55-0.04-0.83,0.06c-0.86-0.11-1.78,0.02-2.61,0.04C2,30.95,1.32,30.99,0.7,30.95
	c-0.17-0.02-0.28-0.15-0.33-0.28c-0.04-0.22,0-0.45,0.17-0.58c0.15-0.2,0.35-0.22,0.51-0.35c0.29-0.11,0.55-0.3,0.83-0.43
	c1.29-0.8,1.62-2.18,1.56-3.63l-0.02-4.78L3.4,15.24v-0.39L3.38,8.71C3.36,7.26,3.4,5.71,3.31,4.26C3.18,3.37,2.64,2.4,1.67,2.18
	C1.12,2.03,0.51,1.99,0,1.77C-0.22,1.64-0.3,1.4-0.28,1.18c0.09-0.3,0.42-0.45,0.72-0.48C0.95,0.65,1.5,0.82,2.06,0.86
	c1.27,0.02,2.68,0,3.97-0.04c0.35-0.06,0.7-0.04,1.07-0.06c1.29-0.02,2.54-0.11,3.79-0.11C13.64,0.6,16.32,1.03,18.4,2.83"/>
<g>
	<path class="st1" d="M201.43,23.74c-0.5-0.06-2.34-0.1-2.39,0c-0.07,0.16,0.28,0.44,0.83,0.81c1.15,0.78,3.15,2.02,3.86,3.73
		c0.65,1.58,0.09,1.96,0.97,2.61c0.56,0.4,1.95,0.75,2.33,0.34c0.56-0.59-0.32-2.58-1.5-4.5"/>
	<path class="st1" d="M202.8,0.94c0.56,0.25,1.31-0.41,5.31,0.87c0.6,0.19,3.94,1.49,8.15,5.34c4.16,3.79,1.59,6.88,1.62,7.78
		c0.06,1.78,2.28,5.1,0.75,6.77c-3.98,1.08-1.58,5.57-4.64,6.59c-1.43,0.47-5.47,0.32-8.9-1.02c-2.87-1.12-5.31-3.43-5.73-3.43
		c-2.02,0.04-3.01,0.44-4.26-0.06c-1.86-0.75-3.54-2.64-3.92-3.6c-0.59-1.5-2.36-2.08-3.77-2.89c-1.7-0.96-3.07-2.09-3.43-3.1
		c-0.99-2.73,0.32-5.84,1.84-5.69c0.81,0.09,2.9-6,5.35-5.42c1.89,0.44,3.57-1.52,6.71-2.74c2.31-0.01,3.68-0.13,3.91,0.43
		C201.93,1.19,199.59-0.54,202.8,0.94z"/>
	<path class="st2" d="M191.94,3.41c0.47-1.46,2.3-0.91,3.4-1.89c1.75-1.36,4.79-1.49,6.84-0.78c0.72,0.27,1.8-0.18,2.45,0.22
		c-0.94-0.4-2.08,0.94-3.11,0.9c-1.11-0.06-2.45-0.72-3.54-0.5c-1.15,0.24-1.52,0.6-2.51,1.25C194.56,3.16,192.37,2.4,191.94,3.41z"
		/>
	<path class="st2" d="M215.92,6.74c-0.46-0.84-3.21-2-3.86-2.71c-2.26-1.83-4.73-2.51-7.41-3.07c-0.94,0.01-2.55-0.46-3.35,0.04
		c0.32-0.35,1.31-0.62,1.95-0.72c3.57-0.65,7.64,0.94,9.79,3.88C213.47,4.8,215.58,6.04,215.92,6.74z"/>
	<path class="st2" d="M211.88,23.34c-1.8-0.43-3.54,0.49-3.99,0.74c-0.8,0.46-4.08,1.39-3.96,1.67c0.12,0.25,2.3,1.93,3.11,2.15
		c1.02,0.28,2.06,0.65,2.99,0.9c0.59,0.16,2.21-0.03,3.32-0.43c0.84-0.31,2.43-0.38,2.7-0.94c0.03-0.06,0.97-3.45,0.74-4.04
		c-0.44-1.06-2.83,0.04-3.26-0.04C212.79,23.21,212.87,23.58,211.88,23.34z"/>
	<path class="st2" d="M189.6,18.17c-0.57-0.09-1.13-0.31-1.7-0.46c-0.84-0.24-1.67-0.59-2.31-1.18c-1.46-1.3-2.56-3.67-2-5.62
		c0.24-0.8,0.83-1.41,1.4-1.98c1.02-1.06,2.83-2.67,4.2-3.08c-0.38,0.55-2.67,2.71-3.36,3.55c-0.65,0.78-0.74,1.33-0.94,2.36
		c-0.29,1.86,0.41,3.12,1.77,4.33c0.62,0.57,0.99,0.74,1.77,1.03c0.49,0.15,0.94,1.06,1.46,1.02
		C189.79,18.18,189.68,18.17,189.6,18.17z"/>
	<path class="st2" d="M185.82,9.4c-0.35-1.62,1.21-2.42,2.09-3.68c1.27-1.84,3.52-3.71,5.9-2.92c0.59,0.22,1.77-0.5,2.31-0.19
		c-0.74-0.29-1.95,1.87-2.76,1.81c-1.98-0.1-3.07-0.03-4.2,1.43C188.18,7.11,183.49,8.73,185.82,9.4z"/>
	<path class="st2" d="M214.33,23.66c-0.52-0.04-1.02-0.16-1.5-0.31c-2.2,0.97-1.87-0.91-2.79-1.4c0.19,0.09,0.4,0.19,0.59,0.28
		c0.81,0.37,1.65,0.78,2.52,0.96c0.81,0.16,1.41-1.15,2.24-1.27c0.83-0.09,1.83,0.29,2.39-0.35c1.65-1.98-0.24-3.54-0.66-5.93
		c0.16-0.9,0.93-2.68,0.66-3.51c-0.19-0.57-0.04-1.28-0.41-1.77c-0.25-0.29,0.37-2.03-0.01-2.11c0.25,0,0.41,1.36,0.6,1.58
		c1.22,1.25,0.85,2.62,1.21,4.27c0.24,1.24,0.4,2.48,0.37,3.73c-0.04,1.71-0.37,3.68-1.64,4.92
		C216.91,23.61,215.55,23.74,214.33,23.66z"/>
	<path class="st2" d="M196.63,24.31c-1.44-0.04-2.79-0.74-3.8-1.74c-1.4-1.39-4.38-3.52-2.95-5.45c0.56-0.66,2.18-1.75,2.9-2.21
		c-0.6,0.46-1.28,0.85-1.81,1.41c-1.5,1.8,1.31,4.05,2.67,5.31c0.91,0.84,1.67,2.08,2.9,2.14c0.96,0.04,2.08-0.8,3.02-0.99
		c0.77-0.19,1.41,0.5,2.15,0.22c0.1-0.04,0.19-0.13,0.28-0.19c-0.06,0.07-0.13,0.15-0.21,0.21c-0.62,0.41-1.34,0.63-2.02,0.9
		C198.76,24.27,197.69,24.36,196.63,24.31z"/>
	<path class="st2" d="M189.96,17.83c-0.03-0.65,0.47-1.16,0.85-1.64c1.05-1.24,2.56-1.93,4.02-2.56c1.81-0.55,3.54-1.61,4.86-0.01
		c0.46,0.6,0.16,0.37,0.47,1.05c-0.43-0.71-0.37-0.12-0.97-0.69c-1.5-1.31-2.65-0.06-4.27,0.65c-1.41,0.63-3.01,0.75-4.1,1.87
		C190.46,16.87,190.01,17.27,189.96,17.83z"/>
	<path class="st2" d="M194.47,13.08c-1.33-1.06-0.84-3.04-0.24-4.38c0.44-0.97,1.03-1.9,1.89-2.56c1.28-1,3.02-1.21,4.6-1.02
		c1.09,0.13,2.11,0.6,3.05,1.15c0.34,0.19,0.68,0.38,1.02,0.56c-0.38-0.13-1.12-0.22-1.61-0.47c-1.11,0.04-1.9-0.41-2.74-0.78
		c-1.15-0.07-1.84,0.94-2.87,1.43c-1.12,0.55-1.98,1.19-2.52,2.28C194.4,10.63,193.32,11.83,194.47,13.08z"/>
	<path class="st2" d="M208.27,13.33c-0.6-0.38-1.46-0.4-2.08-0.74c-0.65-0.34-1.09,0.12-1.81,0c-1.65-0.25-3.01-0.47-4.48,0.24
		c-0.25,0.13-1.34-0.01-1.41,0.21l0,0l0,0l0,0l0,0l0,0l0,0c0,0,0,0-0.01,0c0.03-0.12,0.16-0.18,0.25-0.25
		c0.27-0.16,0.55-0.31,0.83-0.46c0.94-0.5,1.93-0.94,3.01-1.06C204.97,10.99,206.41,11.98,208.27,13.33z"/>
	<path class="st2" d="M205.66,18.15c-0.91-0.09-1.74-0.53-2.58-0.88l0,0c1.4,0.38,2.28,0.24,3.77-0.09c2.2-0.5,3.83-1.3,5.34-2.98
		c0.62-0.69,1.59-1.81,2-2.64c0.34-0.63,0.24-0.41,0.56-1.05c-0.18,0.38,0.13,0.49-0.04,0.85c-0.72,1.55-1.43,2.95-2.74,4.1
		C210.42,16.88,207.81,18.37,205.66,18.15z"/>
	<path class="st2" d="M201.68,24.33c-0.5-0.06-2.34-0.1-2.39,0c-0.07,0.16,0.28,0.44,0.83,0.81c1.15,0.78,3.15,2.02,3.86,3.73
		c0.65,1.58,0.09,1.96,0.97,2.61c0.56,0.4,1.95,0.75,2.33,0.34c0.56-0.59-0.32-2.58-1.5-4.5"/>
	<path class="st2" d="M210.35,22.13c-0.6-0.38-1.46,0.04-2.09-0.29c-0.65-0.34-0.66-0.75-1.65-1.15c-1.65-0.25-3.18,0.22-4.64,0.94
		c-0.25,0.13-1.34-0.01-1.41,0.21l0,0l0,0l0,0l0,0l0,0l0,0c0,0,0,0-0.01,0c0.03-0.12,0.16-0.18,0.25-0.25
		c0.27-0.16,0.55-0.31,0.83-0.46c0.94-0.5,1.93-0.94,3.01-1.06C207.06,19.8,208.49,20.78,210.35,22.13z"/>
	<path class="st2" d="M209.71,23.37c0.21,0.03,0.4,0.07,0.59,0.12c-0.01,0.07,0.99,0.1,0.97,0.19c-0.38-0.03-1.77-0.07-2.27-0.04
		c-1.25,0.07-1.43,1.19-2.33,1.68c-0.37,0.21-2.03,0.46-2.3,0.71c-0.07,0.07,0.18-0.75,0.1-0.71c-0.06,0.03-0.13-0.04-0.07-0.1l0,0
		c0.44-0.47,0.88-0.9,1.67-1.22C206.97,23.59,208.49,23.21,209.71,23.37z"/>
	<path class="st2" d="M204.08,7.64c0.01-1.7-0.63-2,0.78-2.34c1.03-0.25,2.14-0.35,3.18-0.1c1.58,0.4,2.82,1.64,3.64,2.99
		c0.56,0.94,0.83,2.03,0.97,3.11c0.06,0.38-1.55,1.39-1.47,1.77c-0.13-0.38,1.15-1.64,1.05-2.17c-0.71-0.84-0.84-1.74-1.08-2.64
		c-0.65-0.94-1.87-0.87-2.9-1.39c-1.12-0.56,0.06-0.99-1.13-0.74C205.66,6.46,204.36,5.98,204.08,7.64z"/>
	<path class="st2" d="M218.06,11.06c0.09-0.03-0.22-2.61-1.15-4.14c-1.36-2.23-3.92-3.23-4.11-2.99c-0.13,0.18,0.8,1.16,1.56,1.78
		c0.77,0.62,1.02,0.6,1.56,1.02C217.5,7.98,217.97,11.09,218.06,11.06z"/>
	<path class="st2" d="M187.27,9.77c0.12-0.37,1.56,0.28,2.7-0.71c0.74-0.63,0.84-1.13,1.64-1.87c0.97-0.91,2.17-0.6,3.71-0.25
		c0.16,0.04-2.12-0.35-3.1,0.55c-0.81,0.75-0.59,1.16-1.4,1.92c-0.94,0.88-1.55,0.99-1.98,1.08
		C187.63,10.69,187.16,10.09,187.27,9.77z"/>
	<path class="st2" d="M203.94,15.31c-0.19-0.09-0.81,1.37-2.21,1.96c-0.99,0.41-1.37-0.13-2.99,0.15c-1.33,0.22-1.3,0.63-2.43,0.8
		c-1.95,0.29-3.4-0.66-3.49-0.46c-0.07,0.16,0.81,0.88,1.92,1.12c1.03,0.21,1.96-0.09,2.49-0.27c0.88-0.28,0.83-0.47,1.47-0.59
		c0.97-0.19,1.22,0.21,2.26,0.09c0.31-0.03,1.15-0.13,1.84-0.74C203.7,16.56,204.11,15.38,203.94,15.31z"/>
</g>
<text transform="matrix(0.8019 0 0 1 122.0615 31.0938)" class="st0 st3 st4">A</text>
<text transform="matrix(0.8019 0 0 1 149.9238 31.0938)" class="st0 st3 st4">D</text>
</svg>
