<?xml version="1.0" encoding="utf-8"?>
<!-- Generator: Adobe Illustrator 25.2.3, SVG Export Plug-In . SVG Version: 6.00 Build 0)  -->
<svg version="1.1" id="Layer_1" xmlns="http://www.w3.org/2000/svg" xmlns:xlink="http://www.w3.org/1999/xlink" x="0px" y="0px"
	 viewBox="0 0 141.41 62" style="enable-background:new 0 0 141.41 62;" xml:space="preserve">
<style type="text/css">
	.st0{fill:#00744B;}
	.st1{enable-background:new    ;}
	.st2{fill:#FFFFFF;}
</style>
<rect class="st0" width="141.41" height="62"/>
<g class="st1">
	<path class="st2" d="M12.91,35.02V50h-2.3V15.73h4.69c3.34,0,5.79,0.79,7.34,2.37s2.32,3.94,2.32,7.08c0,2.38-0.42,4.33-1.27,5.86
		s-2.26,2.68-4.24,3.45L26.24,50h-2.58l-6.4-14.98H12.91z M12.91,32.91h3.21c2.08,0,3.68-0.64,4.8-1.92s1.69-3.19,1.69-5.72
		c0-2.58-0.57-4.44-1.72-5.58s-2.96-1.71-5.43-1.71h-2.55V32.91z"/>
	<path class="st2" d="M32.78,24.57v16.59c0,2.52,0.3,4.35,0.9,5.51s1.53,1.73,2.78,1.73c1.92,0,3.33-0.78,4.23-2.33
		s1.35-4.07,1.35-7.54V24.57h2.2V50h-1.88l-0.28-3.56H41.9c-0.55,1.3-1.3,2.29-2.27,2.99s-2.02,1.04-3.16,1.04
		c-2.05,0-3.54-0.73-4.49-2.18s-1.42-3.83-1.42-7.12V24.57H32.78z"/>
	<path class="st2" d="M61.02,43.62c0,2.14-0.56,3.82-1.69,5.03s-2.75,1.82-4.88,1.82c-1.16,0-2.17-0.15-3.05-0.45
		s-1.55-0.62-2.04-0.98v-2.6c0.58,0.58,1.34,1.04,2.3,1.39s1.93,0.53,2.93,0.53c1.31,0,2.34-0.43,3.09-1.29s1.12-2.01,1.12-3.45
		c0-1.12-0.27-2.07-0.81-2.85s-1.57-1.65-3.08-2.64c-1.73-1.09-2.92-1.97-3.55-2.62s-1.12-1.39-1.48-2.2s-0.53-1.78-0.53-2.91
		c0-1.83,0.62-3.34,1.85-4.54s2.8-1.79,4.71-1.79c2.05,0,3.76,0.48,5.13,1.45l-1.15,1.95c-1.28-0.86-2.64-1.29-4.08-1.29
		c-1.31,0-2.36,0.39-3.14,1.16s-1.17,1.79-1.17,3.06c0,1.12,0.27,2.07,0.8,2.82s1.66,1.68,3.38,2.75c1.69,1.11,2.84,2,3.47,2.66
		s1.09,1.4,1.39,2.2S61.02,42.58,61.02,43.62z"/>
	<path class="st2" d="M77.64,50V32.47c0-2.3-0.3-3.93-0.9-4.89s-1.58-1.44-2.94-1.44c-1.8,0-3.15,0.8-4.06,2.39
		s-1.36,4.11-1.36,7.55V50h-2.23V13.53h2.23v11.84c0,1.08-0.03,1.98-0.09,2.7h0.19c0.5-1.27,1.25-2.25,2.26-2.94
		s2.06-1.04,3.15-1.04c2.16,0,3.69,0.7,4.59,2.11s1.36,3.5,1.36,6.28V50H77.64z"/>
	<path class="st2" d="M108.88,50l-3.02-12.42h-8.32L94.56,50h-2.39l8.25-34.27h2.37L111.23,50H108.88z M105.32,35.26l-3.02-12.77
		c-0.31-1.44-0.55-2.8-0.73-4.08c-0.14,1.36-0.36,2.72-0.66,4.08l-2.93,12.77H105.32z"/>
	<path class="st2" d="M131.97,32.54c0,11.64-3.63,17.46-10.9,17.46h-6.09V15.73h6.23c3.53,0,6.21,1.43,8.03,4.28
		S131.97,27.04,131.97,32.54z M129.55,32.68c0-4.83-0.71-8.51-2.13-11.04s-3.52-3.8-6.3-3.8h-3.84v30.05h3.66
		c2.97,0,5.15-1.3,6.54-3.89S129.55,37.63,129.55,32.68z"/>
</g>
</svg>
