<?xml version="1.0" encoding="utf-8"?>
<!-- Generator: Adobe Illustrator 24.2.3, SVG Export Plug-In . SVG Version: 6.00 Build 0)  -->
<svg version="1.1" id="Layer_1" xmlns="http://www.w3.org/2000/svg" xmlns:xlink="http://www.w3.org/1999/xlink" x="0px" y="0px"
	 viewBox="0 0 971.8 200" style="enable-background:new 0 0 971.8 200;" xml:space="preserve">
<style type="text/css">
	.st0{fill:#333333;}
	.st1{fill:#666666;}
	.st2{fill:#009244;}
	.st3{fill:#2A398F;}
	.st4{fill:#FFC940;}
	.st5{fill:#90278E;}
	.st6{fill:#FFFFFF;}
	.st7{font-family:'AvenirNextCondensed-Bold';}
	.st8{font-size:226px;}
	.st9{enable-background:new    ;}
	.st10{fill:none;stroke:#000000;stroke-width:4;stroke-miterlimit:10;}
</style>
<g>
	<path class="st0" d="M31.2,166.7H14.4v19.9h19.1v12.5H0v-73.9h32.1v12.5H14.4v17h16.9L31.2,166.7L31.2,166.7z"/>
	<path class="st0" d="M63,199.1v-73.9h13.2l11.4,28.9c2.2,5.7,5.8,15.2,7.9,21.6h0.2c-0.4-7.8-1.4-20.6-1.4-34.2v-16.3h12.6v73.9
		H93.7L82.4,171c-2.4-6.2-5.8-15.6-7.5-22.2h-0.2c0.3,7.5,0.9,18.9,0.9,33.6v16.7L63,199.1L63,199.1z"/>
	<path class="st0" d="M174.6,198c-2.1,1-6.1,1.8-11.2,1.8c-18.9,0-27.8-15.6-27.8-36.5c0-27.8,15.5-38.7,29.8-38.7c5,0,8.5,1,10,2
		l-2.4,12.1c-1.6-0.8-3.5-1.4-6.7-1.4c-8.1,0-15.5,7-15.5,25.3c0,17.6,6.7,24.5,15.5,24.5c2.4,0,5.2-0.5,6.9-1.1L174.6,198z"/>
	<path class="st0" d="M214.6,199.1v-28.3l-16.2-45.6h15.3l5,17.6c1.3,4.7,2.7,10.2,3.8,15.7h0.2c0.9-5.4,2.1-10.7,3.4-16l4.4-17.3
		h14.9l-16.5,45V199h-14.3L214.6,199.1L214.6,199.1z"/>
	<path class="st0" d="M303.8,198c-2.1,1-6.1,1.8-11.2,1.8c-18.9,0-27.8-15.6-27.8-36.5c0-27.8,15.5-38.7,29.8-38.7c5,0,8.5,1,10,2
		l-2.4,12.1c-1.6-0.8-3.5-1.4-6.7-1.4c-8.1,0-15.5,7-15.5,25.3c0,17.6,6.7,24.5,15.5,24.5c2.4,0,5.2-0.5,6.9-1.1L303.8,198z"/>
	<path class="st0" d="M331.5,125.2h14.4v61.7h19v12.2h-33.3v-73.9C331.6,125.2,331.5,125.2,331.5,125.2z"/>
	<path class="st0" d="M435.9,160.9c0,27.8-9.9,39.1-23.9,39.1c-16.8,0-23.3-17.8-23.3-38s8-37.6,24.3-37.6
		C430.8,124.4,435.9,144,435.9,160.9z M403.5,162.2c0,16.8,3.2,25.3,9,25.3c6,0,8.3-11,8.3-26c0-12.9-2-24.7-8.4-24.7
		C406.7,136.9,403.5,146.3,403.5,162.2z"/>
	<path class="st0" d="M465,126.3c4.1-0.9,9.5-1.4,15-1.4c8.5,0,15.2,1.2,20.1,5.7c4.4,3.8,6.4,10,6.4,16.2c0,8-2.4,13.6-6.2,17.8
		c-4.6,4.8-12.1,7-18,7c-1,0-2,0-2.8,0v27.5H465V126.3z M479.4,159.9c0.7,0.2,1.4,0.2,2.3,0.2c7.2,0,10.5-5.2,10.5-12.1
		c0-6.5-2.6-11.5-9.3-11.5c-1.3,0-2.6,0.2-3.5,0.5V159.9z"/>
	<path class="st0" d="M565.3,166.7h-16.9v19.9h19.1v12.5h-33.4v-73.9h32.1v12.5h-17.8v17h16.9L565.3,166.7L565.3,166.7z"/>
	<path class="st0" d="M596.9,126.3c3.6-0.9,8.9-1.4,14.6-1.4c9.3,0,15.8,2.2,20.5,6.6c6.4,5.7,9.6,15.5,9.6,29.8
		c0,14.9-3.8,25.5-10.3,31.2c-4.9,4.8-12.3,7.1-22.6,7.1c-4.5,0-9-0.4-11.8-0.8V126.3z M611.3,187.7c0.7,0.2,1.8,0.2,2.5,0.2
		c6.9,0,12.9-6.8,12.9-27.2c0-15.1-3.9-24.3-12.6-24.3c-1,0-2,0-2.8,0.3L611.3,187.7L611.3,187.7z"/>
	<path class="st0" d="M685.1,125.2v73.9h-14.4v-73.9C670.7,125.2,685.1,125.2,685.1,125.2z"/>
	<path class="st0" d="M729.2,182.2l-3.3,16.9H712l16-73.9h17.2l14.4,73.9h-13.9l-3.2-16.9H729.2z M741.2,171.1l-2.4-15.5
		c-0.8-4.5-1.8-11.8-2.4-16.8H736c-0.8,4.9-1.9,12.6-2.6,16.9l-2.7,15.3h10.5V171.1z"/>
</g>
<g>
	<polygon class="st1" points="75.9,71.4 75.9,58.5 13.7,58.5 13.7,16.9 76.4,16.9 76.4,3.9 0.5,3.9 0.5,104.7 13.7,104.7 13.7,71.4 
			"/>
	<polygon class="st1" points="99.4,3.9 99.4,104.7 113.1,104.7 113.1,36.1 172.9,104.7 189.8,104.7 102.3,3.9 	"/>
	<rect x="190.5" y="3.9" class="st1" width="13.1" height="100.7"/>
	<path class="st1" d="M499.4,20.7C485.9,7.3,469.1,0.6,449,0.6c-12.4,0-23.9,3.1-34.5,9.2c-10.6,6.2-19,14.7-25.2,25.5
		c-6.2,10.9-9.2,22.7-9.2,35.4c0,12.5,2.9,23.8,8.7,33.9h16.1c-7.4-9.6-11.1-21-11.1-33.9c0-10.6,2.5-20.3,7.4-28.9
		c4.9-8.7,11.8-15.5,20.6-20.7c8.8-5.1,18.1-7.7,27.9-7.7c10,0,19.4,2.6,28.3,7.7s15.8,11.9,20.7,20.4c4.9,8.5,7.4,18,7.4,28.5
		c0,10.6-2.5,20.2-7.4,28.9c-1.1,2-2.4,3.9-3.7,5.7h16c5.9-10.2,8.8-21.7,8.8-34.5C519.7,50.6,513,34.1,499.4,20.7z"/>
	<path class="st1" d="M251.1,41.7c5-8.6,11.9-15.4,21-20.5c9-5.1,18.8-7.6,29.4-7.6c9.7,0,18.5,1.9,26.6,5.8s15,9.6,20.8,17.1
		l10.5-8c-6.4-8.8-14.5-15.7-24.5-20.6s-21.1-7.3-33.5-7.3c-20.5,0-37.5,6.6-51.1,19.9s-20.4,29.6-20.4,49c0,13.1,2.9,24.9,8.5,35.2
		h16.4c-7.3-9.6-11-20.9-11-34.1C243.7,59.9,246.2,50.3,251.1,41.7z"/>
	<polygon class="st1" points="759.2,71.4 759.2,58.5 697,58.5 697,16.9 759.7,16.9 759.7,3.9 683.7,3.9 683.7,104.7 697,104.7 
		697,71.4 	"/>
	<path class="st1" d="M647.1,32.1C639.9,21,629.8,13.2,617,8.7c-9-3.2-23.3-4.8-43.2-4.8h-27.5v100.7H559V16.9h9.4
		c19,0,32.7,1.3,41,3.8c11.1,3.4,19.7,9.6,25.9,18.6s9.3,20,9.3,32.8c0,12.2-2.9,22.5-8.6,30.9c-0.4,0.6-0.8,1.1-1.2,1.6h15.8
		c4.9-9.6,7.4-20.5,7.4-32.8C658,56.5,654.3,43.3,647.1,32.1z"/>
</g>
<g>
	<path class="st2" d="M970.9,63.5L896.7,72c1.5,15.3,1.8,31.1,0.7,47.4c-1.9,28.5-8.2,55.5-18.2,80.5h80.1
		C972,157.2,976.4,111,970.9,63.5z"/>
	<path class="st3" d="M970.9,63.5c-2.6-22.2-6.9-43.3-13-63.5h-79.5c9.7,22.6,15.8,46.7,18.4,72L970.9,63.5z"/>
	<path class="st4" d="M817.5,114c-2.5,31.8-13.4,61.2-30.5,86h92.3c10-25,16.3-52.1,18.2-80.5L817.5,114z"/>
	<path class="st5" d="M896.7,72L896.7,72c-2.5-25.3-8.7-49.4-18.3-72H787c16.3,23.6,26.9,51.3,30.1,81.2H817c0.7,6.2,1,12.4,1,18.7
		c0,4.7-0.2,9.4-0.5,14l79.9,5.4C898.5,103.2,898.3,87.4,896.7,72z"/>
</g>
<text transform="matrix(1 0 0 1 830.1642 179.8192)" class="st6 st7 st8">5</text>
<g class="st9">
	<text transform="matrix(1 0 0 1 830.1642 179.8192)" class="st10 st7 st8">5</text>
</g>
</svg>
