<?xml version="1.0" encoding="utf-8"?>
<!-- Generator: Adobe Illustrator 27.2.0, SVG Export Plug-In . SVG Version: 6.00 Build 0)  -->
<svg version="1.1" xmlns="http://www.w3.org/2000/svg" xmlns:xlink="http://www.w3.org/1999/xlink" x="0px" y="0px"
	 viewBox="0 0 971.75 199.99" style="enable-background:new 0 0 971.75 199.99;" xml:space="preserve">
<style type="text/css">
	.st0{fill:#333333;}
	.st1{clip-path:url(#SVGID_00000008847764681488893190000015339877415127476376_);}
	.st2{fill:#666666;}
	.st3{clip-path:url(#SVGID_00000086683481518323587010000009051619468935704714_);}
	.st4{fill:#404040;stroke:#000000;stroke-width:0.5;stroke-miterlimit:10;}
	.st5{fill:#808080;stroke:#000000;stroke-width:0.5;stroke-miterlimit:10;}
	.st6{fill:#009244;}
	.st7{fill:#2A398F;}
	.st8{fill:#404040;}
	.st9{fill:#808080;}
	.st10{fill:#FFC940;}
	.st11{fill:#90278E;}
	.st12{fill:#FFFFFF;stroke:#000000;stroke-width:5;stroke-miterlimit:10;}
	.st13{font-family:'AvenirNextCondensed-Bold';}
	.st14{font-size:226px;}
</style>
<g id="Layer_2">
</g>
<g id="Layer_1">
	<g>
		<path class="st0" d="M31.23,166.67H14.36v19.95h19.07v12.49H0v-73.87h32.11v12.49H14.36v16.99h16.88V166.67z"/>
		<path class="st0" d="M62.99,199.11v-73.87h13.15l11.4,28.93c2.19,5.7,5.81,15.23,7.89,21.59h0.22c-0.44-7.78-1.42-20.6-1.42-34.19
			v-16.33h12.6v73.87H93.68l-11.29-28.06c-2.41-6.25-5.81-15.56-7.45-22.25h-0.22c0.33,7.45,0.88,18.85,0.88,33.65v16.66H62.99z"/>
		<path class="st0" d="M174.62,198.02c-2.08,0.99-6.14,1.75-11.18,1.75c-18.85,0-27.84-15.56-27.84-36.5
			c0-27.84,15.45-38.69,29.81-38.69c5.04,0,8.55,0.99,9.97,1.97l-2.41,12.06c-1.64-0.77-3.51-1.42-6.68-1.42
			c-8.11,0-15.45,7.01-15.45,25.32c0,17.64,6.69,24.55,15.45,24.55c2.41,0,5.15-0.55,6.9-1.1L174.62,198.02z"/>
		<path class="st0" d="M214.62,199.11v-28.28l-16.22-45.59h15.34l5.04,17.64c1.31,4.71,2.74,10.19,3.84,15.67h0.22
			c0.88-5.37,2.08-10.74,3.4-16l4.38-17.32h14.9l-16.55,45.04v28.82H214.62z"/>
		<path class="st0" d="M303.83,198.02c-2.08,0.99-6.14,1.75-11.18,1.75c-18.85,0-27.84-15.56-27.84-36.5
			c0-27.84,15.45-38.69,29.81-38.69c5.04,0,8.55,0.99,9.97,1.97l-2.41,12.06c-1.64-0.77-3.51-1.42-6.68-1.42
			c-8.11,0-15.45,7.01-15.45,25.32c0,17.64,6.68,24.55,15.45,24.55c2.41,0,5.15-0.55,6.91-1.1L303.83,198.02z"/>
		<path class="st0" d="M331.51,125.25h14.36v61.7h18.96v12.17h-33.32V125.25z"/>
		<path class="st0" d="M435.85,160.87c0,27.84-9.86,39.13-23.89,39.13c-16.77,0-23.34-17.75-23.34-38.03
			c0-20.17,8-37.59,24.33-37.59C430.81,124.37,435.85,143.99,435.85,160.87z M403.52,162.18c0,16.77,3.18,25.32,8.99,25.32
			c6.03,0,8.33-10.96,8.33-25.97c0-12.93-1.97-24.66-8.44-24.66C406.7,136.86,403.52,146.29,403.52,162.18z"/>
		<path class="st0" d="M465,126.34c4.06-0.88,9.54-1.42,15.02-1.42c8.55,0,15.23,1.21,20.05,5.7c4.38,3.84,6.36,9.97,6.36,16.22
			c0,8-2.41,13.59-6.25,17.75c-4.6,4.82-12.06,7.01-17.97,7.01c-0.99,0-1.97,0-2.85,0v27.51H465V126.34z M479.36,159.88
			c0.66,0.22,1.43,0.22,2.3,0.22c7.23,0,10.52-5.15,10.52-12.06c0-6.47-2.63-11.51-9.31-11.51c-1.31,0-2.63,0.22-3.51,0.55V159.88z"
			/>
		<path class="st0" d="M565.34,166.67h-16.88v19.95h19.07v12.49h-33.43v-73.87h32.11v12.49h-17.75v16.99h16.88V166.67z"/>
		<path class="st0" d="M596.92,126.34c3.62-0.88,8.88-1.42,14.58-1.42c9.31,0,15.78,2.19,20.49,6.58c6.36,5.7,9.65,15.45,9.65,29.81
			c0,14.9-3.84,25.54-10.3,31.23c-4.93,4.82-12.28,7.12-22.58,7.12c-4.49,0-8.99-0.44-11.84-0.77V126.34z M611.28,187.72
			c0.66,0.22,1.75,0.22,2.52,0.22c6.91,0,12.93-6.8,12.93-27.18c0-15.12-3.95-24.33-12.6-24.33c-0.99,0-1.97,0-2.85,0.33V187.72z"/>
		<path class="st0" d="M685.09,125.25v73.87h-14.36v-73.87H685.09z"/>
		<path class="st0" d="M729.24,182.24l-3.29,16.88h-13.92l16-73.87h17.21l14.36,73.87h-13.92l-3.18-16.88H729.24z M741.19,171.06
			l-2.41-15.45c-0.77-4.49-1.75-11.84-2.41-16.77h-0.33c-0.77,4.93-1.86,12.6-2.63,16.88l-2.74,15.34H741.19z"/>
	</g>
	<g>
		<defs>
			<rect id="SVGID_1_" x="-5.23" y="-6.64" width="781.65" height="111.32"/>
		</defs>
		<clipPath id="SVGID_00000108995519723808313950000002905854925771552640_">
			<use xlink:href="#SVGID_1_"  style="overflow:visible;"/>
		</clipPath>
		<g style="clip-path:url(#SVGID_00000108995519723808313950000002905854925771552640_);">
			<path class="st2" d="M477.95,21.15c-8.91-5.11-18.35-7.67-28.34-7.67c-9.81,0-19.1,2.55-27.89,7.67
				c-8.78,5.11-15.64,11.99-20.58,20.65c-4.93,8.66-7.4,18.31-7.4,28.95c0,15.75,5.46,29.06,16.38,39.91
				c10.92,10.85,24.08,16.28,39.49,16.28c10.29,0,19.81-2.5,28.57-7.49c8.75-4.99,15.58-11.81,20.48-20.47s7.36-18.28,7.36-28.86
				c0-10.52-2.45-20.04-7.36-28.55S486.85,26.27,477.95,21.15z M76.44,16.91H13.72v41.54H75.9v12.98H13.72v52.09H75.9v12.98H0.47
				V3.94h75.97V16.91z M203.6,136.5h-2.97l-87.5-100.38V136.5h-13.7V3.94h2.88l88.22,101.61V3.94h13.07V136.5z M260.32,111.08
				c11.09,10.81,25.07,16.22,41.95,16.22c18.56,0,34.1-7.27,46.59-21.81l10.45,7.93c-6.61,8.41-14.85,14.92-24.74,19.51
				c-9.88,4.6-20.92,6.9-33.11,6.9c-23.19,0-41.48-7.72-54.88-23.16c-11.23-13.04-16.85-28.78-16.85-47.22
				c0-19.41,6.8-35.73,20.41-48.98C263.75,7.23,280.79,0.6,301.28,0.6c12.38,0,23.55,2.45,33.52,7.35
				c9.97,4.89,18.15,11.76,24.51,20.59l-10.45,8.02c-5.77-7.51-12.69-13.2-20.77-17.08c-8.08-3.88-16.95-5.81-26.62-5.81
				c-10.58,0-20.37,2.54-29.38,7.62c-9.01,5.07-15.99,11.9-20.95,20.45c-4.95,8.56-7.43,18.19-7.43,28.88
				C243.7,86.78,249.24,100.27,260.32,111.08z M499.47,119.56c-13.49,13.52-29.95,20.28-49.37,20.28
				c-19.66,0-36.25-6.73-49.78-20.19c-13.53-13.46-20.29-29.74-20.29-48.84c0-12.74,3.08-24.54,9.24-35.42
				c6.17-10.87,14.56-19.39,25.2-25.55c10.65-6.16,22.16-9.24,34.54-9.24c20.07,0,36.88,6.7,50.4,20.1
				c13.53,13.4,20.29,29.89,20.29,49.47C519.72,89.58,512.97,106.04,499.47,119.56z M649.35,106.94
				c-5.74,10.09-13.19,17.54-22.35,22.35c-9.16,4.81-22,7.21-38.52,7.21H546.3V3.94h27.48c19.83,0,34.21,1.59,43.17,4.78
				c12.85,4.51,22.9,12.31,30.14,23.43c7.24,11.12,10.86,24.36,10.86,39.74C657.96,85.16,655.08,96.85,649.35,106.94z M759.7,16.91
				h-62.72v41.54h62.17v12.98h-62.17v52.09h62.17v12.98h-75.42V3.94h75.97V16.91z M609.39,20.69c-8.29-2.52-21.96-3.78-41.01-3.78
				h-9.37v107.06h15.32c18.32,0,31.03-1.14,38.12-3.42c9.97-3.24,17.82-9.08,23.52-17.51c5.71-8.43,8.56-18.74,8.56-30.93
				c0-12.78-3.09-23.71-9.28-32.77S620.44,24.06,609.39,20.69z"/>
		</g>
	</g>
	<g>
		<defs>
			<path id="SVGID_00000147906082202563504570000006123572988630013097_" d="M786.93,0c19.6,28.42,31.08,62.86,31.08,100
				c0,37.13-11.48,71.58-31.08,100h248.4V0H786.93z"/>
		</defs>
		<clipPath id="SVGID_00000085969352119368430020000004366219405227416999_">
			<use xlink:href="#SVGID_00000147906082202563504570000006123572988630013097_"  style="overflow:visible;"/>
		</clipPath>
		<g style="clip-path:url(#SVGID_00000085969352119368430020000004366219405227416999_);">
			<g>
				<g>
					<g>
						<path class="st4" d="M638.86,101.82l-332.03,38.35C285.66-43.2,417.14-209.02,600.51-230.2c78.48-9.07,150.8,7.51,217.5,49.86
							L638.86,101.82z"/>
					</g>
				</g>
				<g>
					<g>
						<path class="st5" d="M638.86,101.82l112.06,314.89c-173.91,61.89-365.06-28.92-426.95-202.83
							c-8.79-24.7-14.13-47.67-17.14-73.71L638.86,101.82z"/>
					</g>
				</g>
				<g>
					<g>
						<path class="st6" d="M638.86,101.82l332.03-38.35c18.15,157.15-70.93,300.2-219.97,353.24L638.86,101.82z"/>
					</g>
				</g>
				<g>
					<g>
						<path class="st7" d="M638.86,101.82l179.15-282.17c88.98,56.49,140.78,139.11,152.88,243.82L638.86,101.82z"/>
					</g>
				</g>
			</g>
			<g>
				<g>
					<g>
						<g>
							<path class="st8" d="M639.03,101.83L380.67,84.22c9.73-142.69,133.28-250.48,275.97-240.75
								c61.07,4.16,113.83,26.99,158.67,68.66L639.03,101.83z"/>
							<path d="M639.13,102.09l-0.12-0.01L380.4,84.45l0.02-0.25c2.38-34.91,11.53-68.31,27.18-99.28
								c15.12-29.91,35.66-56.29,61.03-78.42c25.37-22.13,54.3-38.89,85.98-49.82c32.8-11.31,67.14-15.84,102.05-13.46
								c30.42,2.07,59.19,8.9,85.5,20.29c26.31,11.39,50.98,27.68,73.32,48.44l0.18,0.17l-0.17,0.18L639.13,102.09z M380.93,83.99
								l257.99,17.59L814.95-87.86c-22.25-20.64-46.8-36.85-72.99-48.18c-26.26-11.36-54.97-18.18-85.34-20.25
								c-34.85-2.37-69.11,2.15-101.85,13.44c-31.62,10.9-60.49,27.63-85.81,49.72c-25.32,22.09-45.81,48.42-60.91,78.27
								C392.46,15.98,383.33,49.23,380.93,83.99z"/>
						</g>
					</g>
				</g>
				<g>
					<g>
						<g>
							<path class="st9" d="M639.03,101.83l40.96,255.7c-141.22,22.62-274.04-73.52-296.66-214.74
								c-3.21-20.05-4.04-38.31-2.66-58.57L639.03,101.83z"/>
							<path d="M638.64,361.1c-20.68,0-41.23-2.49-61.46-7.47c-32.54-8.01-62.87-22.08-90.14-41.82
								c-27.27-19.74-50.11-44.16-67.88-72.57c-18.4-29.42-30.54-61.85-36.07-96.4c-3.23-20.17-4.05-38.25-2.66-58.63l0.02-0.25
								l0.25,0.02l258.56,17.63l0.03,0.2l41,255.95l-0.25,0.04C666.22,359.99,652.4,361.1,638.64,361.1z M380.9,84.49
								c-1.36,20.23-0.54,38.22,2.67,58.26c5.52,34.49,17.64,66.86,36,96.22c17.74,28.36,40.53,52.73,67.75,72.43
								c27.22,19.7,57.49,33.75,89.97,41.74c33.55,8.26,68,9.66,102.4,4.19l-40.89-255.26L380.9,84.49z"/>
						</g>
					</g>
				</g>
				<g>
					<g>
						<g>
							<path class="st10" d="M639.03,101.83l258.36,17.61c-8.34,122.28-96.38,218.7-217.4,238.09L639.03,101.83z"/>
						</g>
					</g>
				</g>
				<g>
					<g>
						<g>
							<path class="st11" d="M639.03,101.83L815.3-87.87c59.82,55.59,87.64,125.84,82.08,207.31L639.03,101.83z"/>
						</g>
					</g>
				</g>
			</g>
		</g>
	</g>
	<text transform="matrix(1 0 0 1 830.1642 179.8192)" class="st12 st13 st14">1</text>
</g>
</svg>
