<?xml version="1.0" encoding="utf-8"?>
<!-- Generator: Adobe Illustrator 24.2.3, SVG Export Plug-In . SVG Version: 6.00 Build 0)  -->
<svg version="1.1" id="Layer_1" xmlns="http://www.w3.org/2000/svg" xmlns:xlink="http://www.w3.org/1999/xlink" x="0px" y="0px"
	 viewBox="0 0 270.5 80" style="enable-background:new 0 0 270.5 80;" xml:space="preserve">
<style type="text/css">
	.st0{fill:#2E4057;}
	.st1{fill:#F6D8A7;}
</style>
<g>
	<path class="st0" d="M44.6,79.7c0.3,0,0.5-0.1,0.8-0.1c0.5-0.1,1.1-0.2,1.6-0.3c0.2,0,0.4-0.1,0.7-0.1C66,75.6,79.9,59.4,79.9,40
		c0-22.1-17.9-40-40-40c-22.1,0-40,17.9-40,40c0,19.4,13.9,35.6,32.3,39.2c0.2,0,0.4,0.1,0.7,0.1c0.5,0.1,1.1,0.2,1.6,0.3
		c0.3,0,0.5,0.1,0.8,0.1c0.5,0.1,1.1,0.1,1.6,0.2c0.2,0,0.5,0,0.7,0.1c0.8,0,1.6,0.1,2.3,0.1s1.6,0,2.3-0.1c0.2,0,0.5,0,0.7-0.1
		C43.5,79.8,44.1,79.8,44.6,79.7z M6.4,40c0-18.5,15.1-33.6,33.6-33.6c18.5,0,33.6,15.1,33.6,33.6c0,13.7-8.2,25.4-19.9,30.7
		c3.7-8.4,6.6-16.5,6.6-20.8c0-3.9-1.1-7.5-3-10.5c3.3-2.5,6.1-4.9,7.1-6.6c2.7-4.7,1.1-10.8-3.6-13.5c-4.7-2.7-10.8-1.1-13.5,3.6
		c-0.8,1.4-1.4,4.2-1.9,7.4c-1.7-0.5-3.5-0.7-5.3-0.7c-1.8,0-3.6,0.3-5.3,0.7c-0.5-3.2-1.1-6-1.9-7.4c-2.7-4.7-8.8-6.3-13.5-3.6
		c-4.7,2.7-6.3,8.8-3.6,13.5c1,1.7,3.8,4.1,7.1,6.6c-1.9,3.1-3,6.7-3,10.5c0,4.3,3,12.4,6.6,20.8C14.6,65.4,6.4,53.7,6.4,40z"/>
</g>
<g>
	<path class="st1" d="M64.5,0c13.4,8.3,22.4,23.1,22.4,40c0,16.9-8.9,31.7-22.4,40h206V0H64.5z"/>
</g>
<g>
	<path d="M94.6,44.7l0.6-37.4h7.1l5.3,25.9l5.5-25.9h6.8l0.7,37.4h-5.1l-0.6-26l-5.3,26h-4.1l-5.4-26.1l-0.5,26.1H94.6z"/>
	<path d="M136.5,45.2c-2.6,0-4.8-0.5-6.3-1.5c-1.6-1-2.7-2.4-3.4-4.3c-0.7-1.8-1-4-1-6.6v-14c0-2.5,0.3-4.7,1-6.5
		c0.7-1.8,1.8-3.2,3.4-4.1c1.6-1,3.7-1.4,6.3-1.4c2.7,0,4.8,0.5,6.4,1.4c1.6,1,2.7,2.3,3.4,4.1s1,4,1,6.5v14c0,2.5-0.3,4.7-1,6.5
		c-0.7,1.8-1.8,3.2-3.4,4.3C141.3,44.7,139.2,45.2,136.5,45.2z M136.5,40.2c1.1,0,2-0.2,2.5-0.7c0.5-0.5,0.9-1.2,1.1-2
		c0.2-0.9,0.3-1.8,0.3-2.8V17.3c0-1-0.1-2-0.3-2.8c-0.2-0.8-0.5-1.5-1.1-2c-0.5-0.5-1.4-0.7-2.5-0.7c-1.1,0-1.9,0.2-2.4,0.7
		c-0.6,0.5-0.9,1.1-1.1,2s-0.3,1.8-0.3,2.8v17.2c0,1,0.1,2,0.3,2.8c0.2,0.9,0.5,1.5,1.1,2C134.5,39.9,135.3,40.2,136.5,40.2z"/>
	<path d="M162.6,45.2c-2.8,0-4.9-0.5-6.5-1.5c-1.5-1-2.6-2.5-3.2-4.3c-0.6-1.9-0.9-4.1-0.9-6.7V7.3h6.7v26.1c0,1.2,0.1,2.3,0.2,3.3
		c0.2,1,0.5,1.9,1.1,2.5c0.6,0.6,1.4,0.9,2.6,0.9c1.2,0,2.1-0.3,2.6-0.9c0.5-0.6,0.9-1.5,1.1-2.5c0.2-1,0.3-2.1,0.3-3.3V7.3h6.6
		v25.3c0,2.6-0.3,4.9-0.9,6.7c-0.6,1.9-1.6,3.3-3.2,4.3C167.5,44.7,165.4,45.2,162.6,45.2z"/>
	<path d="M187.9,45.2c-2.2,0-4.1-0.4-5.6-1.3c-1.5-0.9-2.6-2.2-3.4-3.9c-0.8-1.7-1.2-3.8-1.3-6.2l5.9-1.2c0.1,1.4,0.2,2.7,0.5,3.8
		c0.3,1.1,0.7,2,1.3,2.6c0.6,0.6,1.4,0.9,2.4,0.9c1.1,0,1.9-0.3,2.4-1c0.5-0.7,0.7-1.5,0.7-2.5c0-1.6-0.4-3-1.1-4
		c-0.7-1-1.7-2.1-3-3.1l-4.7-4.2c-1.3-1.1-2.4-2.4-3.2-3.8c-0.8-1.4-1.2-3.1-1.2-5.2c0-3,0.9-5.2,2.6-6.8c1.7-1.6,4.1-2.4,7.1-2.4
		c1.8,0,3.2,0.3,4.4,0.8c1.2,0.5,2.1,1.3,2.8,2.2c0.7,1,1.2,2,1.5,3.3c0.3,1.2,0.6,2.5,0.6,3.9l-5.8,1c-0.1-1.2-0.2-2.2-0.4-3.1
		c-0.2-0.9-0.6-1.6-1.1-2.2c-0.5-0.5-1.3-0.8-2.2-0.8c-1,0-1.8,0.3-2.3,1c-0.5,0.7-0.8,1.5-0.8,2.5c0,1.3,0.3,2.3,0.8,3.1
		c0.5,0.8,1.3,1.7,2.3,2.5l4.7,4.1c1.5,1.3,2.9,2.8,3.9,4.6c1.1,1.7,1.6,3.8,1.6,6.3c0,1.8-0.4,3.4-1.2,4.8
		c-0.8,1.4-1.9,2.5-3.3,3.3C191.4,44.8,189.8,45.2,187.9,45.2z"/>
	<path d="M200.9,44.7V7.3h15.7v4.8h-8.9v10.8h7v4.8h-7V40h9v4.7H200.9z"/>
</g>
<g>
	<path d="M94.7,72.8V48h5.9c2,0,3.6,0.3,4.7,0.8c1.1,0.6,1.9,1.4,2.4,2.5c0.5,1.1,0.7,2.6,0.7,4.4v9.1c0,1.8-0.2,3.3-0.7,4.5
		c-0.5,1.2-1.3,2.1-2.4,2.7c-1.1,0.6-2.6,0.9-4.6,0.9H94.7z M99.3,69.6h1.4c1,0,1.8-0.2,2.2-0.6s0.7-0.9,0.8-1.6
		c0.1-0.7,0.2-1.6,0.2-2.6v-9.5c0-1-0.1-1.8-0.2-2.4c-0.1-0.6-0.4-1.1-0.9-1.3c-0.4-0.3-1.2-0.4-2.2-0.4h-1.3V69.6z"/>
	<path d="M111.8,72.8V48h10.4v3.2h-5.9v7.1h4.6v3.2h-4.6v8.2h5.9v3.1H111.8z"/>
	<path d="M128.7,72.8l-5-24.8h4l3.3,17.6l3.1-17.6h4.1l-5,24.8H128.7z"/>
	<path d="M140.8,72.8V48h10.4v3.2h-5.9v7.1h4.6v3.2h-4.6v8.2h5.9v3.1H140.8z"/>
	<path d="M153.9,72.8V48h4.5v21.7h6v3.1H153.9z"/>
	<path d="M173.2,73.1c-1.8,0-3.2-0.3-4.2-1c-1-0.7-1.8-1.6-2.2-2.8c-0.4-1.2-0.7-2.7-0.7-4.4v-9.3c0-1.7,0.2-3.1,0.7-4.3
		c0.4-1.2,1.2-2.1,2.2-2.7c1-0.6,2.4-1,4.2-1c1.8,0,3.2,0.3,4.2,1c1,0.6,1.8,1.5,2.2,2.7c0.5,1.2,0.7,2.6,0.7,4.3V65
		c0,1.7-0.2,3.1-0.7,4.3c-0.5,1.2-1.2,2.2-2.2,2.8C176.4,72.8,175,73.1,173.2,73.1z M173.2,69.8c0.8,0,1.3-0.2,1.7-0.5
		c0.4-0.3,0.6-0.8,0.7-1.3c0.1-0.6,0.2-1.2,0.2-1.9V54.6c0-0.7-0.1-1.3-0.2-1.9c-0.1-0.6-0.4-1-0.7-1.3c-0.4-0.3-0.9-0.5-1.7-0.5
		c-0.7,0-1.3,0.2-1.6,0.5c-0.4,0.3-0.6,0.8-0.7,1.3c-0.1,0.6-0.2,1.2-0.2,1.9v11.4c0,0.7,0.1,1.3,0.2,1.9c0.1,0.6,0.4,1,0.7,1.3
		C171.9,69.6,172.5,69.8,173.2,69.8z"/>
	<path d="M183.7,72.8V48h7.3c1.5,0,2.7,0.3,3.6,0.8c0.9,0.6,1.6,1.4,2.1,2.4c0.4,1.1,0.7,2.3,0.7,3.8c0,1.6-0.3,2.9-0.8,3.9
		c-0.6,1-1.3,1.7-2.3,2.2c-1,0.4-2.2,0.7-3.5,0.7h-2.5v11H183.7z M188.3,58.6h1.7c0.8,0,1.5-0.1,1.9-0.4c0.5-0.2,0.8-0.6,1-1.1
		c0.2-0.5,0.3-1.2,0.3-2.1c0-0.9-0.1-1.6-0.2-2.2c-0.1-0.6-0.4-1-0.9-1.2c-0.4-0.3-1.1-0.4-2.1-0.4h-1.7V58.6z"/>
	<path d="M199.8,72.8l0.4-24.8h4.7l3.5,17.2l3.7-17.2h4.5l0.5,24.8h-3.4l-0.4-17.3l-3.5,17.3h-2.7l-3.6-17.3l-0.3,17.3H199.8z"/>
	<path d="M220.7,72.8V48h10.4v3.2h-5.9v7.1h4.6v3.2h-4.6v8.2h5.9v3.1H220.7z"/>
	<path d="M233.8,72.8V48h3.2l6,14.2V48h3.7v24.8h-3L237.6,58v14.8H233.8z"/>
	<path d="M253,72.8V51.3h-4V48h12.4v3.3h-3.9v21.5H253z"/>
</g>
</svg>
