<?xml version="1.0" encoding="utf-8"?>
<!-- Generator: Adobe Illustrator 25.2.3, SVG Export Plug-In . SVG Version: 6.00 Build 0)  -->
<svg version="1.1" id="Layer_1" xmlns="http://www.w3.org/2000/svg" xmlns:xlink="http://www.w3.org/1999/xlink" x="0px" y="0px"
	 viewBox="0 0 1419.84 325" style="enable-background:new 0 0 1419.84 325;" xml:space="preserve">
<style type="text/css">
	.st0{fill:#3C5D38;}
	.st1{fill:#909090;}
	.st2{fill:#C13B42;}
</style>
<path class="st0" d="M201.26,205.17c6.69,1.21,12.9,3.57,18.39,7.66c1.61,1.2,2.87,0.86,4.75-0.26
	c18.3-10.99,36.83-11.03,55.18-0.18c2.26,1.34,3.55,1.34,5.6,0.1c18.7-11.26,37.56-10.83,56.27-0.19c2.47,1.4,3.76,1.32,5.99-0.03
	c16.91-10.27,34.37-10.19,52.08-2.26c1.07,0.48,2.15,1.57,3.11,0.78c4.89-4.04,9.08-8.78,12.94-13.79c0.86-1.11-0.66-1.17-1.13-1.6
	c-8.19-7.54-8.51-11.3-1.62-20.07c0.41-0.52,0.78-1.09,1.24-1.56c3.26-3.31,4.62-5.59,0.06-9.98c-9.85-9.5-11.33-26.01-4.75-37.81
	c6.37-11.42,20.46-17.68,33.92-15.2c9.54,1.76,19.06,3.82,28.86,1.51c1.57-0.37,4.11,0.21,3.74,2.66c-0.33,2.21,0.89,6.38-3.1,5.95
	c-8.8-0.94-8.31,1.33-5.09,8.52c8.05,17.93-0.39,41.84-27.25,42.54c-4.1,0.11-8.22,0.43-12.39-0.54c-3.93-0.91-4.44,2.36-3.81,5.06
	c1.58,6.81,7.37,7.87,13.03,8.44c6.26,0.63,12.58,0.61,18.86,1.1c13.55,1.05,19.93,7.32,22.43,21.8
	c16.69-5.11,32.87-5.03,47.82,5.22c2.1,1.44,2.88,0.14,4.23-0.63c19.15-10.9,38.33-10.99,57.29,0.31c2.29,1.37,3.51,0.75,5.19-0.25
	c18.74-11.15,37.46-11.04,56.11,0.18c2.4,1.45,3.98,1.34,6.52-0.36c16.19-10.8,39.99-10.46,55.6,0.59c1.95,1.38,2.95,1.05,4.69-0.2
	c15.44-11.14,42.42-10.94,57.5,0.47c1.83,1.38,2.65,1.82,4.89,0.38c18.5-11.92,37.28-12.54,56.13-0.65c1.7,1.08,2.89,0.83,4.77-0.3
	c18.3-10.98,36.83-11.02,55.18-0.17c2.27,1.34,3.54,1.32,5.6,0.09c18.7-11.24,37.55-10.8,56.28-0.2c2.16,1.22,3.44,1.61,5.6,0.3
	c18.66-11.36,37.51-10.89,56.26-0.3c2.47,1.4,3.73,1.71,6.39,0.11c17.67-10.63,35.56-11.01,53.28,0.05
	c2.05,1.28,3.27,1.29,5.58-0.03c18.86-10.86,37.84-11.17,56.7,0.21c1.55,0.94,2.73,1.73,4.76,0.15c7.82-6.08,17.21-7.54,26.75-8.43
	c2.34-0.22,2.75,1.28,2.24,2.71c-0.94,2.62,2.96,6.99-2.57,7.89c-6.29,1.02-12.65,1.55-18.23,5.17c-1.84,1.2-2.01,1.73-0.43,3.43
	c5.27,5.71,12.26,6.84,19.34,7.32c5.35,0.36,2.35,4.04,2.89,6.19c0.55,2.17,0.36,3.91-3.05,4.03c-10.43,0.34-19.52-2.67-26.94-9.97
	c-2.2-2.17-3.22-1.69-4.88,0.28c-11.32,13.4-44.63,13.49-56.88,0.03c-2.08-2.29-3.09-2.1-5.24,0c-13.93,13.54-39.44,13.7-53.49,0.39
	c-2.12-2.01-3.44-2.45-5.67-0.16c-8.5,8.68-19.28,9.71-30.75,9.49c-10.81-0.2-20.13-3.02-27.49-11.18c-1.62-1.8-2.34,0.15-3.01,0.9
	c-12.52,14.01-46.95,14.37-58.28-0.22c-1.5-1.94-2.36-1.1-3.81,0.15c-17.01,14.64-39.78,14.67-56.77-0.07
	c-2.04-1.77-2.92-1.28-4.18,0.33c-10.56,13.54-44.99,14.02-56.2,0.58c-1.97-2.36-2.84-0.56-4.2,0.49
	c-17.45,13.4-41.94,12.78-58.78-1.58c-1.48-1.26-2.01-1.2-3.44,0.03c-16.76,14.38-38.86,14.95-56.22,1.55
	c-2.21-1.7-3.8-2.61-6.47,0.06c-8.28,8.28-18.88,9.18-30,8.97c-10.76-0.2-20.13-2.88-27.46-11.09c-1.85-2.07-2.52,0.18-3.43,0.96
	c-15.43,13.05-32.45,13.05-50.12,5.82c-6.22-2.54-13.98-3.02-20.04,0.1c-15.08,7.76-34.65,5.79-47.4-5.2
	c-2.47-2.13-3.13-0.67-4.53,0.65c-15.34,14.54-42.36,18.88-58.47,7.96c-5.79-3.93-9.34-3.44-15.45-1.7
	c-16.41,4.66-32.85,5.32-46.23-8.35c-1.75-1.78-2.49-0.55-3.43,0.52c-12.49,14.1-46.96,14.39-58.24-0.15
	c-1.47-1.89-2.32-1.19-3.82,0.09c-17.12,14.67-39.82,14.72-56.77-0.01c-1.99-1.73-2.77-1.3-4.19,0.26
	c-5.73,6.31-13.19,9.03-21.41,10.1c1-3.76,2.01-7.52,3.01-11.28c0.58-0.24,1.15-0.56,1.76-0.72c4.24-1.07,9.39-3.36,9.65-6.96
	c0.25-3.42-5.55-4.26-9.13-5.46c-0.44-0.15-0.86-0.39-1.28-0.58C201.87,212.46,201.57,208.81,201.26,205.17z M437.68,198
	c-11.57,0-17.81,3.91-22.61,13.59c-2.89,5.82-2.55,11.44,0.99,16.86c4.94,7.55,15.87,10.55,27.08,7.46
	c9.77-2.69,17.71-12.06,18-21.25c0.29-9.03-3.28-14.26-11.03-15.58C445.76,198.32,441.36,197.38,437.68,198z M455.11,142.13
	c-0.61-4.99-1.43-11.12-5.4-16.33c-3.78-4.96-8.86-7.49-14.89-6.51c-6.9,1.12-11.11,5.57-12.78,12.57
	c-1.27,5.33-0.75,10.53,0.11,15.75c1.97,11.91,11,18.19,21.65,15.17C450.73,160.82,455.04,153.4,455.11,142.13z M745.69,230.84
	c7.34,0.07,14.55-0.91,20.52-6.35c1.74-1.59,1.94-2.2-0.39-3.77c-10.72-7.23-31.56-7.71-41.99-0.76c-2.85,1.9-1.32,3.11,0.24,4.47
	C730.22,229.77,737.56,230.98,745.69,230.84z M621.23,214.82c-6.7,0.6-13.44,1.13-19.65,4.72c-3.09,1.78-2.81,2.84-0.53,4.94
	c7.58,6.98,16.84,6.69,26.08,6.03c5.41-0.39,10.53-1.95,14.75-5.78c2.1-1.91,2.85-2.96-0.31-4.8
	C635.25,216.27,628.39,215.44,621.23,214.82z M989.97,214.87c-5.85,0.4-11.84,1.25-17.69,3.8c-6.16,2.69-4.08,4.71-0.27,7.38
	c7.72,5.39,16.43,5.17,25.15,4.34c4.86-0.46,9.38-2.02,13.37-5.28c3.49-2.85,2.12-4.39-0.8-5.81
	C1003.63,216.32,997.08,215.16,989.97,214.87z M1112.55,214.89c-7.41,0.16-13.93,1.12-20.07,4.2c-3.69,1.85-4.36,3.09-0.65,5.99
	c6.32,4.96,13.4,5.54,20.98,5.52c7.27-0.02,13.85-1.29,19.38-6.29c2.06-1.86,2.48-2.88-0.53-4.59
	C1125.45,216.18,1118.77,215.3,1112.55,214.89z M375.96,230.8c5.97,0.58,11.89-0.98,17.39-3.93c4.09-2.19,4.38-6.24,0.59-7.86
	c-12.98-5.53-25.94-5.83-38.75,0.84c-2.77,1.44-2.23,2.63-0.37,4.34C360.76,229.61,367.84,231.06,375.96,230.8z M536.44,221.55
	c11.51,12.95,34.22,12.92,45.39-0.06C568.61,212.63,549.32,212.66,536.44,221.55z M335.88,221.53c-10.12-8.89-33.12-7.79-42.2-2.01
	c-2.91,1.85-2.68,2.61-0.64,4.98C300.22,232.87,328.78,234.03,335.88,221.53z M929.28,214.86c-7.55,0.28-14.23,1.24-20.49,4.57
	c-3.27,1.74-2.99,2.77-0.64,5.27c7.81,8.29,33.59,8.45,41.38-1.33c1.79-2.25,0.47-2.46-0.83-3.33
	C942.62,215.95,935.65,215.38,929.28,214.86z M681.77,230.79c8.28,0,15.54-1.01,21.46-6.45c2-1.84,2.64-2.95-0.53-4.56
	c-13.23-6.74-26.27-6.38-39.43,0.12c-2.68,1.32-2.57,2.38-0.62,4.29C668.2,229.64,675.17,230.62,681.77,230.79z M497.96,214.93
	c-6.68,0.4-13.15,1.31-19.22,4.67c-3.17,1.76-2.98,2.91-0.6,4.87c9.22,7.57,25.58,8.81,35.9,2.47c2.19-1.34,3.85-3.54,5.75-5.35
	c-2-1.55-4.03-2.94-6.52-3.77C508.28,216.17,503.29,214.74,497.96,214.93z M252.7,214.84c-7.37,0.43-14.1,1.19-20.12,5.02
	c-1.42,0.91-3.57,1.3-1.57,3.38c10.18,10.6,33.21,10.04,41.94-0.28c1.56-1.84,0.2-1.94-0.77-2.64
	C266.19,216,259.19,215.53,252.7,214.84z M806.78,214.8c-6.1,0.98-12.33,1.77-18.41,4.77c-7.12,3.51-2.07,5.59,0.42,7.15
	c5.43,3.42,11.62,3.87,18.05,3.92c7.35,0.05,13.72-1.54,19.34-6.27c2.61-2.2,2.07-3.3-0.76-4.88
	C819.66,216.29,813.45,215.44,806.78,214.8z M888.81,221.46c-3.18-2.26-6.51-4.03-10.41-4.96c-10.7-2.56-20.96-2.19-30.77,3.27
	c-1.63,0.91-3.84,1.37-1.51,3.7C856.7,234.09,881.35,233.42,888.81,221.46z M1050.48,230.93c8.96-0.19,15.78-2.64,19.85-6.72
	c1.47-1.48,2.46-2.53,0.09-4.2c-9.41-6.62-28.58-6.47-38.26,0.12c-2.44,1.66-2.24,2.38-0.38,4.24
	C1037.2,229.77,1044.18,230.24,1050.48,230.93z"/>
<path class="st1" d="M760.56,16.03c-51.08-1.99-102.18-0.7-153.27-0.89c-58.03-0.22-116.07-0.72-174.08,0.25
	c-26.27,0.44-52.57-0.5-78.79,0.91c-17.96,0.97-35.89,0.24-53.82,0.8c-19.71,0.61-39.5,0.44-59.11,2.21
	c-25.39,2.28-50.45,6.9-72.94,20.07c-15.02,8.79-22.68,23.02-27.26,39.07c-3.97,13.91-6.71,28.1-7.09,42.63
	c-0.13,4.9-3.71,2.39-5.83,2.91c-2.96,0.72-2.33-1.16-2.25-3.05c0.82-20.71,4.58-40.82,13.49-59.62
	c10.86-22.91,30.75-34.34,54.05-41.21c27.31-8.05,55.25-9.72,83.58-10.28c38.2-0.75,76.41-1.19,114.61-2.03
	c17.44-0.38,34.88-0.35,52.31-0.66c81.9-1.46,163.82-1.34,245.72-0.77c21.26,0.15,42.55,0.11,63.8,0.82
	c18.83,0.63,37.69,1.43,56.46,3.04c23.37,2.01,46.87,3.86,69.2,11.89c18.05,6.49,33.72,15.7,39,36.23c0.73,2.86-0.46,7.91,3.31,8.24
	c2.73,0.23,3.09-4.79,4.78-7.3c1.19-1.77,2.17-3.69,3.41-5.42c1.32-1.85,3.18-2.52,5.19-1.18c1.85,1.23,2.45,2.71,1.17,5.06
	c-5.89,10.84-11.55,21.8-17.32,32.71c-1.22,2.3-2.32,2.61-3.91,0.07c-6.53-10.44-13.21-20.78-19.82-31.17
	c-1.29-2.03-1.61-4.02,0.77-5.58c2.31-1.52,4.17-0.64,5.55,1.34c1.69,2.41,3.2,4.96,4.75,7.47c1.02,1.64,1.82,4.44,4.05,3.48
	c1.76-0.76,0.94-3.57,0.52-5.36c-3.21-13.86-12.52-22.16-25.11-27.63c-19.58-8.52-40.37-10.9-61.33-13.11
	C803.13,17.7,781.86,16.74,760.56,16.03z"/>
<path class="st1" d="M1053.2,258.94c7.66,0,15.33,0.14,22.99-0.07c3.14-0.09,3.97,1,3.92,4c-0.05,2.79-0.45,4.31-3.78,4.13
	c-4.98-0.26-9.99-0.04-14.99-0.08c-1.75-0.01-3.03,0.02-3.55,2.33c-3.06,13.67-13.78,19.25-25.69,22.43
	c-19.39,5.18-39.33,7.33-59.28,9.29c-21.44,2.11-42.84,4.67-64.27,6.85c-9.19,0.94-18.42,1.66-27.64,2.04
	c-20.04,0.83-40.11,1.06-60.13,2.16c-15.55,0.85-31.09,1.38-46.64,2.01c-26.82,1.1-53.61,2.6-80.47,2.96
	c-17.55,0.24-35.09,1.51-52.64,1.85c-28.1,0.55-56.2,1.09-84.3,0.95c-23.22-0.12-46.43-1.05-69.64-1.95
	c-18.67-0.72-37.33-1.78-55.97-2.98c-23.38-1.5-46.76-3.12-70.12-5.03c-21.33-1.74-42.67-3.61-63.94-6
	c-30.64-3.45-61.38-6.41-91.45-13.74c-1.74-0.42-5.27-0.35-4.45-2.03c1.12-2.3,2.89-5.87,6.81-5.21
	c10.34,1.76,20.62,3.91,30.99,5.41c14.63,2.12,29.3,3.92,43.99,5.62c15.36,1.78,30.74,3.37,46.12,4.89
	c8.7,0.86,17.42,1.46,26.14,2.13c21.54,1.67,43.08,3.39,64.62,4.94c11.7,0.84,23.42,1.75,35.15,1.98
	c20.39,0.39,40.76,1.58,61.13,2.31c41.61,1.5,83.21,0.67,124.8,0.54c21.53-0.07,43.08-1.42,64.64-1.88
	c25.66-0.55,51.32-1.65,76.96-2.99c15.88-0.83,31.76-1.45,47.64-2.02c24.95-0.9,49.9-2.14,74.79-4.02
	c23.3-1.76,46.57-4.13,69.76-6.99c20.64-2.55,41.53-3.97,61.43-10.82c4.86-1.67,9.67-3.71,12.08-8.68c1.79-3.69,1.99-6.77-3.82-6.41
	c-4.65,0.29-9.33-0.08-13.99,0.11c-2.98,0.12-4.53-0.36-4.48-3.96c0.05-3.33,1.08-4.24,4.3-4.15
	C1037.87,259.09,1045.54,258.94,1053.2,258.94z"/>
<path class="st1" d="M1120.91,126.68c9.36,2.7,17.52,6.61,22.32,14.96c9.29,16.18,2.03,37.36-16.18,46.82
	c-9.91,5.15-20.35,7.43-31.83,5.82c-8-1.12-16.29-0.29-24.44-0.21c-2.54,0.03-4.54-0.36-3.67-3.47c1.66-5.9,0.87-11.9,0.89-17.84
	c0.11-31.12,0.16-62.24-0.12-93.36c-0.06-7.11-2.68-13.1,9.64-11.97c13.7,1.26,27.72-2.32,41.7,0.46
	c12.1,2.4,21.22,9.95,23.48,21.77c2.29,11.99-1.59,22.23-11.12,30.01C1128.55,122.13,1125.04,124,1120.91,126.68z M1086.06,148.8
	c0,9.78-0.02,19.55,0.01,29.33c0.01,3.6,1.9,6.01,5.36,6.7c3.21,0.64,6.52,1.02,9.79,1.04c16.62,0.09,27.07-10.57,26.71-27.07
	c-0.33-15.03-11.52-25.72-26.93-25.72C1085.06,133.07,1085.06,133.07,1086.06,148.8z M1095.76,123.97c3.01,0.39,6.74-0.3,10.49-1.02
	c10.33-1.98,17.43-10.83,17.71-22.08c0.32-13.14-5.95-22.02-16.78-24.89c-6.36-1.68-12.46,0-18.68,0.03
	c-3.05,0.02-3.5,1.27-3.48,3.87c0.1,11.46-0.02,22.93,0.06,34.39C1085.16,125.49,1083.57,123.8,1095.76,123.97z"/>
<path class="st0" d="M236.13,159.98c-0.06,10.47-0.31,20.95,1.45,31.32c0.38,2.23-0.47,2.66-2.25,2.7c-0.17,0-0.33,0-0.5,0
	c-5-0.01-10.9,1.65-14.77-0.44c-4.99-2.71-0.61-8.84-0.66-13.39c-0.41-33.79-0.22-67.6-0.22-101.4c0-0.83,0.01-1.67-0.03-2.5
	c-0.45-9.23-0.45-9.1,8.79-9.27c10.79-0.19,21.59-1.17,32.35-0.83c12.9,0.4,24.47,4.65,31.7,16.25
	c11.35,18.22,1.68,41.71-20.15,49.53c-9.7,3.48-9.62,3.42-3.69,11.98c9.74,14.06,19.95,27.77,31.01,40.83
	c0.32,0.38,0.75,0.72,0.93,1.16c1.17,2.83,7.01,3.04,5.33,6.58c-1.67,3.52-6.3,0.82-9.55,1.48c-11.14,2.29-17.74-2.58-23.32-12.27
	c-8.35-14.48-18.67-27.79-28.98-41c-1.67-2.14-3.53-4.75-6.42-3.56c-2.23,0.92-0.91,3.84-0.96,5.83
	C236.03,148.65,236.13,154.32,236.13,159.98z M236.13,101.65c0,7.65,0.09,15.31-0.05,22.96c-0.04,2.49,0.52,3.42,3.26,3.47
	c7,0.12,13.92-0.57,20.63-2.32c11.61-3.03,18.47-12.62,18.14-24.65c-0.38-13.96-6.71-22.01-19.37-25.19
	c-6.96-1.75-13.78-0.45-20.67,0.11c-2.87,0.24-1.89,2.26-1.9,3.65C236.09,87.01,236.13,94.33,236.13,101.65z"/>
<path class="st1" d="M201.18,229.82c-1,3.76-2.01,7.52-3.01,11.28c-5.09,5.52-7.93,12.64-13.42,17.97
	c-18.59,18.02-40.6,25.26-66.2,21.96c-24.83-3.19-44.08-14.81-56.46-37c-0.69-1.24-1.97-2.15-2.98-3.21
	c-0.99-3.92-1.99-7.83-2.98-11.75c-0.01-4.09,0.79-8.25-0.99-12.2c-0.59-3.68,2.56-7.35,0.02-11.04c3.39-1.67,3.4-5.28,4.62-8.17
	c9.58-22.62,27.13-35.84,50.49-41.17c28.05-6.4,53.05,0.32,74.09,20.2c6.9,6.52,11.43,14.77,14.61,23.71
	c0.6,1.69,0.82,3.51,2.3,4.77c0.31,3.64,0.62,7.29,0.92,10.93C201.85,220.67,201.52,225.24,201.18,229.82z M128.7,166.94
	c-13.46,0.12-21.76,2.28-33.95,8.93c-23.55,12.85-32.83,39.77-21.27,62.53c10.93,21.54,36,31.87,58.41,30.66
	c19.35-1.05,35.05-8.21,47.63-22.95c11.04-12.93,12.78-36.58,3.45-50.8C170.1,175.71,151.45,167.43,128.7,166.94z"/>
<path class="st0" d="M753.05,123.69c6.57-7.45,13.51-11.86,22.49-13.27c10.49-1.64,21.64,2.64,26.28,11.65
	c1.87,3.64,2.82,3.28,5.12,0.67c8.01-9.12,17.69-13.58,30.27-12.1c14.87,1.75,21.14,12.36,21.64,26.75
	c0.49,14.14,0.17,28.3,0.19,42.46c0,3.48-0.06,6.82,2.1,9.99c1.49,2.18,0.71,3.92-2.46,4.21c-14.63,1.34-14.44,1.39-14.68-13.15
	c-0.24-13.95,1.27-27.95-0.81-41.83c-1.66-11.03-7.59-16.74-16.71-17.02c-8.72-0.27-17.12,6.98-19.49,16.65
	c-1.66,6.75-1,13.58-0.9,20.37c0.16,10.46-0.81,20.97,0.88,31.38c0.39,2.41-0.11,3.48-2.98,3.63c-14.49,0.76-14.52,0.64-13.81-13.76
	c0.69-13.92,1.98-27.86-0.02-41.78c-1.36-9.52-7.13-15.56-15.71-16.49c-7.5-0.81-16.32,4.96-19.33,12.82
	c-1.61,4.2-2.35,8.59-2.19,13.13c0.52,14.29,0.52,28.63,0.47,42.88c-0.02,6.84-8.81,1.53-13.4,3.01c-2.16,0.7-3.38,0.19-3.26-3.36
	c0.7-22.24,3.56-44.67-0.13-66.69c-1.54-9.19-0.22-11.5,8.44-13.18c6.74-1.31,9.72-1.49,8.05,6.37
	C752.73,118.76,753.05,120.65,753.05,123.69z"/>
<path class="st1" d="M991.49,68.99c11.32-1.05,25.3-0.15,37.7,7.76c19.21,12.25,27.71,34.43,24.23,57.35
	c-2.04,13.44-5.11,26.19-13.46,36.92c-10.69,13.73-25.07,20.89-42.48,23.3c-9.79,1.36-19.37-1.56-29.01,0.4
	c-1.94,0.39-3.41-1.24-3.2-3.42c3.2-33.49,1.31-67.06,1.5-100.59c0.03-5.86-0.06-11.97-1.14-17.76c-0.72-3.87,0.84-3.94,3.45-3.95
	C975.58,68.98,982.08,68.99,991.49,68.99z M982.1,127.4c0,14.66-0.07,29.31,0.03,43.97c0.05,8.23,3,12.02,9.35,12.55
	c15.18,1.28,34.13-10.96,39.5-25.25c4.63-12.32,5.96-24.96,5.08-38.04c-0.57-8.4-2.68-16.23-7.27-23.16
	c-10.05-15.17-25.27-18.8-42.27-18.45c-3.42,0.07-4.54,0.83-4.49,4.41C982.22,98.08,982.1,112.74,982.1,127.4z"/>
<path class="st0" d="M545.81,182.68c-7.3,8.28-15.6,12.23-26.36,12.51c-19.12,0.5-25.47-12.37-26.09-25.79
	c-0.58-12.79-0.19-25.63-0.21-38.45c-0.01-4.5-0.4-8.87-2.44-13.03c-1.13-2.3-1.27-4.59,2.35-4.97c1.45-0.15,2.86-0.62,4.28-0.99
	c12.97-3.39,12.44-3.44,11.41,10.12c-1.15,15.22-1.69,30.55,0.35,45.75c1.28,9.55,7.17,15.03,16.1,16.11
	c6.17,0.75,14.85-4.91,18.04-11.89c1.87-4.1,3.09-8.38,2.91-12.95c-0.47-11.95,2.18-24.3-1.25-35.75
	c-2.78-9.28,0.71-10.92,8.21-12.51c9.1-1.93,8.99-2.42,8.6,6.77c-0.85,20.1-1.14,40.2,0.34,60.28c0.17,2.25-0.27,4.75,3.16,5.21
	c2.77,0.37,1.45,2.87,1.86,4.46c0.52,2.04-1.01,2.54-2.4,3.02c-4.01,1.39-8.02,2.81-12.09,4.03c-2.92,0.87-5.64,1.21-5.68-3.33
	C546.87,188.67,546.26,186.08,545.81,182.68z"/>
<path class="st0" d="M672.05,195c-24.84,1.37-41.52-17.5-41.16-40.43c0.42-26.41,15.82-44.31,41.36-44.22
	c25.92,0.09,41.88,17.38,41.83,41.54C714.02,177.69,695.78,196.56,672.05,195z M670.61,119c-10.46,0.01-17.38,4.7-20.42,15.06
	c-4.11,13.98-2.85,27.79,3.86,40.77c4.45,8.61,11.8,13.32,21.75,12.05c9.33-1.19,15.35-6.89,18.41-15.73
	c4.54-13.11,3.35-26.04-2.29-38.38C687.91,124,680.97,118.54,670.61,119z"/>
<path class="st0" d="M354.14,152.02c-6.5,0-13,0.15-19.48-0.07c-3.05-0.1-3.9,0.68-3.71,3.85c0.83,14.2,13.89,27.11,29.1,29.28
	c6.69,0.96,13.05,0.74,19.52-0.92c2.17-0.56,4.49-0.92,5.51,2.39c1.02,3.33-0.94,4.1-3.23,4.8c-18.34,5.63-36.46,6.76-53.18-4.55
	c-14.16-9.58-19.04-32.85-11.37-51.08c9.2-21.85,33.27-31.7,52.92-21.66c10.83,5.54,18.8,20.33,17.63,32.3
	c-0.38,3.86-2.94,4.26-5.85,4.67C372.74,152.34,363.43,151.98,354.14,152.02z M348.34,143.99c4.33,0,8.76,0.56,12.96-0.18
	c3.29-0.58,8.2,1.06,9.71-2.44c3.33-7.71-7.07-21.58-15.71-22.39c-15.43-1.44-22.03,11.15-23.98,22.31c-0.44,2.5,1.23,2.7,3.04,2.7
	C339.02,143.99,343.68,143.99,348.34,143.99z"/>
<path class="st0" d="M920.79,152.03c-6.5-0.01-12.99,0.12-19.48-0.07c-2.84-0.08-3.6,0.65-3.46,3.6
	c0.67,14.41,13.88,27.43,29.37,29.54c6.69,0.91,13.05,0.65,19.51-0.98c2.27-0.58,4.45-0.59,5.32,2.7c0.84,3.13-0.98,3.78-3.07,4.44
	c-18.32,5.81-36.44,6.86-53.21-4.3c-14.4-9.59-19.02-32.81-11.49-51.46c9.02-22.34,34.19-30.71,52.6-21.47
	c11.03,5.54,18.82,19.74,17.9,32.1c-0.28,3.81-2.67,4.48-5.64,4.9C939.73,152.38,930.25,151.94,920.79,152.03z M915.12,143.99
	c4.5,0,9.13,0.69,13.44-0.21c3.88-0.81,11.62,1.98,9.46-7.18c-1.52-6.44-4.16-12.23-10.24-15.67c-10.99-6.22-24.46,1.14-28.55,15.38
	c-1.58,5.5-1.11,8.78,5.91,7.76C908.4,143.6,911.79,143.99,915.12,143.99z"/>
<path class="st0" d="M608.11,120.62c0,21.61-0.77,43.27,0.38,64.82c0.46,8.61-2.16,8.88-8.96,8.79c-6.25-0.08-7.95-0.62-7.74-8.04
	c1.15-39.54,1.22-79.11,0.31-118.67c-0.06-2.45-0.12-5.27-1.3-7.26c-3.25-5.5-0.66-7.11,4.3-8.24c13.13-2.98,12.99-3.07,12.91,10.24
	c-0.11,19.45-0.03,38.91-0.03,58.36C608.02,120.62,608.07,120.62,608.11,120.62z"/>
<path class="st0" d="M55.16,205.84c2.54,3.68-0.61,7.36-0.02,11.04c-3.38,1-8.34,2.42-8.45,5.14c-0.14,3.48,4.72,5.13,7.99,6.86
	c0.4,0.21,0.96,0.14,1.45,0.2c0.99,3.92,1.99,7.83,2.98,11.75c-7.02-1.3-13.55-3.61-18.7-8.88c-1.99-2.03-3.61-2.29-6.02,0.14
	c-7.33,7.42-16.69,9.47-26.8,8.86c-4.53-0.27-1.91-3.74-2.27-5.68c-0.31-1.7-1.29-4.21,2.57-4.43c6.35-0.37,12.78-1.06,18.11-5.22
	c2.77-2.16,4.05-3.74-0.33-6.1c-5.55-2.99-11.44-3.79-17.42-4.51c-6.11-0.73-2.09-5.12-2.76-7.7c-0.72-2.78,1.25-2.48,3.62-2.54
	c9.78-0.21,18.33,2.96,26.25,8.31c1.51,1.02,2.69,1.32,4.38-0.05C44.24,209.37,49.65,207.45,55.16,205.84z"/>
<g>
	<path class="st2" d="M1311.51,216.79v24.26h-116.35v-20.87l44.22-44.48c13.04-13.3,21.74-22.83,26.09-28.56
		c4.35-5.74,7.48-11.04,9.39-15.91c1.91-4.87,2.87-10.09,2.87-15.65c0-7.83-2.33-13.96-6.98-18.39c-4.65-4.43-10.74-6.65-18.26-6.65
		c-7.52,0-14.35,1.24-20.48,3.72c-6.13,2.48-13.15,6.85-21.07,13.11l-14.87-18.26c9.39-7.91,18.59-13.59,27.59-17.02
		c9-3.43,18.67-5.15,29.02-5.15c16,0,28.8,4.17,38.41,12.52c9.61,8.35,14.41,19.57,14.41,33.65c0,7.65-1.37,14.93-4.11,21.85
		s-6.98,14.09-12.72,21.52c-5.74,7.43-15.35,17.5-28.83,30.2l-29.87,28.96v1.17H1311.51z"/>
	<path class="st2" d="M1355.47,239.61c-3.04,3.22-7.35,4.83-12.91,4.83c-5.57,0-9.85-1.59-12.85-4.76c-3-3.17-4.5-7.61-4.5-13.3
		c0-5.69,1.48-10.06,4.43-13.11c2.96-3.04,7.26-4.57,12.91-4.57c5.65,0,9.98,1.57,12.98,4.7c3,3.13,4.5,7.48,4.5,13.04
		C1360.04,232,1358.52,236.4,1355.47,239.61z"/>
	<path class="st2" d="M1413.9,69.39v171.65h-27.65V130.18c0-12.78,0.35-23.26,1.04-31.43c-1.83,2-4.78,4.72-8.87,8.15
		c-4.09,3.44-12.13,10.02-24.13,19.76l-13.83-17.61l50.48-39.65H1413.9z"/>
</g>
</svg>
