<?xml version="1.0" encoding="utf-8"?>
<!-- Generator: Adobe Illustrator 24.2.3, SVG Export Plug-In . SVG Version: 6.00 Build 0)  -->
<svg version="1.1" id="Layer_1" xmlns="http://www.w3.org/2000/svg" xmlns:xlink="http://www.w3.org/1999/xlink" x="0px" y="0px"
	 viewBox="0 0 973.6 200" style="enable-background:new 0 0 973.6 200;" xml:space="preserve">
<style type="text/css">
	.st0{fill:#009244;}
	.st1{fill:#2A398F;}
	.st2{fill:#FFC940;}
	.st3{fill:#90278E;}
	.st4{fill:#FFFFFF;stroke:#000000;stroke-width:5;stroke-miterlimit:10;}
</style>
<g>
	<path class="st0" d="M970.7,63.5L896.5,72c1.5,15.3,1.8,31.1,0.7,47.4C895.2,147.9,889,175,879,200h80.1
		C971.9,157.2,976.2,111,970.7,63.5z"/>
	<path class="st1" d="M970.7,63.5c-2.6-22.2-6.9-43.3-13-63.5h-79.5c9.7,22.6,15.8,46.7,18.4,72L970.7,63.5z"/>
	<path class="st2" d="M817.3,114c-2.5,31.8-13.4,61.2-30.5,86H879c10-25,16.3-52.1,18.2-80.5L817.3,114z"/>
	<path class="st3" d="M896.5,72c-2.5-25.3-8.7-49.4-18.4-72h-91.4c16.3,23.6,26.9,51.3,30.1,81.2c0.7,6.2,1,12.4,1,18.7
		c0,4.7-0.2,9.4-0.5,14l79.9,5.4C898.3,103.2,898.1,87.4,896.5,72z"/>
</g>
<g>
	<path d="M0.4,7.7h16.5c5.5,0,8.1,0.4,10.3,1.4c5.1,2.3,8.4,7.2,8.4,14c0,6.1-3.2,11.8-8.6,14v0.1c0,0,0.7,0.7,1.7,2.5l10.5,19.1
		H28.8L18.7,39.7H9.7v19.1H0.4V7.7z M18.1,31.7c5,0,8.1-3,8.1-8.1c0-4.9-2.1-7.9-9.4-7.9H9.7v16H18.1z"/>
	<path d="M45.7,7.7h30.6v8H54.9v13.4h17.2v8H54.9v13.8h22.5v8H45.7V7.7z"/>
	<path d="M107.2,6.8c12.5,0,19,6.5,19,6.5l-4.6,6.9c0,0-5.5-4.9-13.6-4.9c-11.4,0-17.6,7.9-17.6,17.6c0,11.1,7.6,18.3,17.1,18.3
		c7.7,0,12.8-5.3,12.8-5.3v-6h-7.8v-8h16.2v26.9h-7.9v-2.4c0-1.1,0.1-2.2,0.1-2.2h-0.1c0,0-5.3,5.5-14.8,5.5
		c-13.5,0-25.1-10.4-25.1-26.5C80.8,18.4,92,6.8,107.2,6.8z"/>
	<path d="M138.3,7.7h9.3v51.1h-9.3V7.7z"/>
	<path d="M159.9,45.7c0,0,5.5,5.4,12.7,5.4c3.9,0,7.4-2,7.4-6.2c0-9.1-24.1-7.6-24.1-23.3c0-8.5,7.3-14.8,17.1-14.8
		c10.1,0,15.3,5.5,15.3,5.5l-4,7.6c0,0-4.9-4.5-11.3-4.5c-4.3,0-7.7,2.5-7.7,6.1c0,9.1,24,6.8,24,23.2c0,8.1-6.2,15-16.8,15
		c-11.4,0-17.6-7-17.6-7L159.9,45.7z"/>
	<path d="M208.8,15.7H192v-8h42.8v8h-16.8v43.1h-9.3V15.7z"/>
	<path d="M239.9,7.7h16.5c5.5,0,8.1,0.4,10.3,1.4c5.1,2.3,8.4,7.2,8.4,14c0,6.1-3.2,11.8-8.6,14v0.1c0,0,0.7,0.7,1.7,2.5l10.5,19.1
		h-10.4l-10.2-19.1h-8.9v19.1h-9.3V7.7z M257.5,31.7c5,0,8.1-3,8.1-8.1c0-4.9-2.1-7.9-9.4-7.9h-7.1v16H257.5z"/>
	<path d="M293.6,37.4l-17-29.7h10.5l8,15c1.7,3.2,3,6.9,3.1,6.8h0.1c0,0,1.4-3.7,3.1-6.8l7.9-15h10.5l-17,29.7v21.4h-9.3V37.4z"/>
</g>
<g>
	<path d="M27.1,81c15,0,26.4,11.4,26.4,26.1c0,15-11.4,26.8-26.4,26.8S0.6,122.1,0.6,107.1C0.6,92.5,12,81,27.1,81z M27.1,125.4
		c9.4,0,16.8-7.8,16.8-18.3c0-10.1-7.5-17.6-16.8-17.6S10.2,97,10.2,107.1C10.2,117.6,17.7,125.4,27.1,125.4z"/>
	<path d="M61.3,81.9h29.4v8H70.6v14.5h16.9v8H70.6V133h-9.3V81.9z"/>
</g>
<g>
	<path d="M190.1,68.7c13.8,0,25.7,3.1,35.6,9.6c0-0.3,3.4,26,3.4,26l-7.8,0.3c-5.5-18.2-15.9-27-33-27c-26.8,0-44.2,23.1-44.2,52.8
		c0,30.7,19.2,54.1,43.7,54.1c20.5,0,27.8-7.8,36.1-27.8l7.5,0.3c0,0-1.6,9.9-3.1,25c-7,5.2-21.8,11.7-41.3,11.7
		c-36.7,0-64.7-25.5-64.7-60.1C122.2,96.5,150.6,68.7,190.1,68.7z"/>
	<path d="M317.2,68.7c13.8,0,25.7,3.1,35.6,9.6c0-0.3,3.4,26,3.4,26l-7.8,0.3c-5.5-18.2-15.9-27-33-27c-26.8,0-44.2,23.1-44.2,52.8
		c0,30.7,19.2,54.1,43.7,54.1c20.5,0,27.8-7.8,36.1-27.8l7.5,0.3c0,0-1.6,9.9-3.1,25c-7,5.2-21.8,11.7-41.3,11.7
		c-36.7,0-64.7-25.5-64.7-60.1C249.4,96.5,277.7,68.7,317.2,68.7z"/>
	<path d="M468.3,106.4c15.3,8.6,25.5,22.4,29.1,39c6.5,29.4,15.3,36.4,28.9,36.1c8.1,0,8.8-0.3,11.7-0.5v9.1
		c-3.9,0.8-10.4,1.8-19.5,1.8c-29.1,0-44.5-17.7-47.3-48.4c-2.3-21.8-10.9-34.6-30.9-34.6c-1.6,0-11.7,0-16.1,0.3
		c0,29.9,0.5,63.7,1.6,70.7l24.7,1.3v9.4c-6.2-0.3-23.1-0.8-38.2-0.8c-14.8,0-31.2,0.5-37.4,0.8v-9.4l23.9-1.3
		c1-8.1,1.3-49.7,1.3-81.6c0-30.9-0.3-62.9-1.3-71.2l-23.9-1.3v-9.4c6.2,0.3,22.6,1,37.4,1c15.1,0,38.7-1,38.7-1
		c23.4-0.8,54.3,13.3,54.3,44.2C505.2,84.6,488.1,98.4,468.3,106.4z M424.1,99.7h14.6c2.6,0,5.2,0,7.5-0.3l-0.8-0.5
		c0.5,0.3,1,0.3,1.6,0.3c21.3-2.9,33.3-17.7,33.3-37.2c0-22.4-15.9-36.1-41.6-36.1l-13,1.3c-1,8.3-1.6,40.3-1.6,71.2V99.7z"/>
	<path d="M546,181.3L570,180c1-8.1,1.3-49.7,1.3-81.6c0-30.9-0.3-62.9-1.3-71.2L546,25.8v-9.4c6.2,0.3,22.9,1,37.7,1
		c15.1,0,72-1,85.8-1l1.8,31.7H662c0,0-0.8-11.2-4.7-15.1c-4.2-4.4-17.4-7.3-35.1-7.3c-10.7,0-22.6,1.8-26.8,2.6v69.7h17.9
		c22.4,0,25.5-3.1,26.5-18.5l0.5-6.5l10.9,0.3c0,0-0.8,17.7-0.8,29.1c0,11.2,1.3,28.3,1.3,28.3l-10.9,0.3l-2.1-13
		c-0.8-6.5-3.1-9.6-25-9.6l-18.5,0.3v61.6c0,4.9,4.2,10.1,25.5,10.9h13.8c22.4,0,29.9-2.1,32.8-20.3l1-6.5h9.4v36.1h-53
		c-15.9,0-33.5-0.8-41.1-0.8c-14.8,0-31.5,0.5-37.7,0.8V181.3z"/>
	<path d="M698.4,156.3l8.8-0.5l3.1,14.8c3.9,10.4,16.1,13.5,26,13.5c16.1,0,24.4-9.6,24.4-20.8c0-13.5-14-19.5-25.5-25
		c-13.3-6.8-30.4-15.9-30.4-35.6c0-18.7,15.1-34.1,36.4-34.1c14.6,0,25.2,3.4,31.5,7l1.8,24.4l-9.4-0.3
		c-2.9-15.6-10.7-22.4-24.2-22.4c-10.9,0-18.5,7.8-18.5,17.9c0,12.7,13.5,19,25.7,25c13.8,7.5,31.7,16.4,31.7,36.7
		c0,19.8-17.7,36.4-44.2,36.4c-17.4,0-30.2-5.7-37.4-11.2V156.3z"/>
</g>
<path class="st4" d="M948.6,183.7H838.5v-25.9c19-19.8,41.2-45.2,55.8-66.2c5.9-8.6,11.9-19.3,11.9-28.9c0-10.1-7.7-16.8-18-16.8
	c-11.6,0-18.8,9.1-18.8,23.2l-34.8-5.7c2.2-28.4,26.7-46.7,54.1-46.7c27.2,0,53.1,16.3,53.1,45.4c0,16.3-7.2,32.1-16.8,45.7
	c-11.9,16.5-26.2,32.1-39.5,46.4h63.2V183.7z"/>
</svg>
