<?xml version="1.0" encoding="utf-8"?>
<!-- Generator: Adobe Illustrator 24.2.3, SVG Export Plug-In . SVG Version: 6.00 Build 0)  -->
<svg version="1.1" id="Layer_1" xmlns="http://www.w3.org/2000/svg" xmlns:xlink="http://www.w3.org/1999/xlink" x="0px" y="0px"
	 viewBox="0 0 325 80" style="enable-background:new 0 0 325 80;" xml:space="preserve">
<style type="text/css">
	.st0{fill:#0A253D;}
	.st1{fill:#9A2515;}
</style>
<path class="st0" d="M0,59.9V1.5h30.4v4.9H5.6v19.6h19.9v5H5.6v23.8h27.3v4.9H0z"/>
<path class="st0" d="M45.7,14.3L45.8,60h-5.6V0l44.8,47.7V1.5h5.6L90.5,62L45.7,14.3z"/>
<path class="st0" d="M151,53.7c-5.3,4.8-12,7.3-19.7,7.3c-17.8,0-31-13.7-31-30.3c0-16.7,12.9-30.4,30.8-30.4
	c8.7,0,15.5,3.6,19.8,7.6l-3.1,4c-3.5-3.6-8.9-6.5-17.3-6.5c-13.8,0-24.3,10.5-24.3,25.7c0,14.1,11.4,24.9,25.2,24.9
	c7.5,0,13.4-2.6,17-6L151,53.7z"/>
<path class="st0" d="M183.4,61c-17.4,0-31.1-13.5-31.1-30.3c0-16.8,13.8-30.4,31.1-30.4c17.2,0,30.8,12.9,30.8,30.6
	C214.2,47.7,200.2,61,183.4,61z M183.4,5.5c-14.1,0-25.3,10.7-25.3,25c0,13.5,11,25.6,24.7,25.6c14.4,0,25.5-10.9,25.5-25.1
	C208.4,16.1,197.1,5.5,183.4,5.5z"/>
<path class="st1" d="M263.8,79.5l-30.6-30.6H229v30.6h-7.3V2.3h15.1c12.4,0,28.1,4.6,28.1,22.3c0,13.4-8.5,22.3-22.4,24l32.2,30.9
	H263.8z M235,42.5c15.4,0,22.2-7.6,22.2-17.7c0-10.6-7.8-15.8-19.5-15.8H229v33.5H235z"/>
<path class="st1" d="M281.8,79.4v-77h40.1v6.5h-32.7v25.9h26.3v6.6h-26.3v31.4h36v6.5H281.8z"/>
<path class="st1" d="M7.8,79.5L2,73.7H1.2v5.8h-1.4V64.8h2.9C5,64.8,8,65.7,8,69.1c0,2.5-1.6,4.2-4.3,4.5l6.1,5.9H7.8z M2.3,72.4
	c2.9,0,4.2-1.4,4.2-3.4c0-2-1.5-3-3.7-3H1.2v6.4H2.3z"/>
<path class="st1" d="M19.6,68l0,11.4h-1.4v-15l11.2,11.9V64.8h1.4l0,15.1L19.6,68z"/>
<path class="st1" d="M51.4,79.5l-1.7-3.9h-7.1l-1.7,3.9h-1.5l6.8-15.1l6.8,15.1H51.4z M46.5,68.3c-0.1-0.2-0.3-0.7-0.3-0.9
	c-0.1,0.2-0.2,0.6-0.3,0.9l-2.7,6h6L46.5,68.3z"/>
<path class="st1" d="M72.7,79.4V64.9h7.6v1.2h-6.2V71h5v1.3h-5v5.9h6.8v1.2H72.7z"/>
<path class="st1" d="M89.9,79.4V64.8h1.4v13.4h6.2v1.2H89.9z"/>
<path class="st1" d="M106.2,79.4V64.9h7.6v1.2h-6.2V71h5v1.3h-5v5.9h6.8v1.2H106.2z"/>
<path class="st1" d="M137.8,79.5l-0.9-10.1c0-0.1,0-0.5,0-0.6c0,0.1-0.2,0.4-0.2,0.5L131.1,80l-5.5-10.8c-0.1-0.2-0.2-0.4-0.2-0.5
	c0,0.2,0,0.4,0,0.6l-0.9,10.1H123l1.6-15l6.2,11.9c0.1,0.1,0.3,0.5,0.3,0.7c0-0.2,0.2-0.6,0.3-0.7l6.2-11.9l1.6,15H137.8z"/>
<path class="st1" d="M148.9,79.4V64.9h7.6v1.2h-6.2V71h5v1.3h-5v5.9h6.8v1.2H148.9z"/>
<path class="st1" d="M167.4,68l0,11.4h-1.4v-15l11.2,11.9V64.8h1.4l0,15.1L167.4,68z"/>
<path class="st1" d="M191.7,79.5V66.1h-4.3v-1.2h9.9v1.2h-4.3v13.4H191.7z"/>
<path class="st1" d="M205.5,76.8c0.6,0.7,1.8,1.7,3.7,1.7c1.7,0,3-1,3-2.7c0-4.2-6.8-3.2-6.8-7.5c0-2.4,2-3.7,4.2-3.7
	c1.9,0,3.1,1,3.6,1.5l-0.8,1c-0.6-0.6-1.5-1.2-2.8-1.2c-1.4,0-2.7,0.8-2.7,2.3c0,3.5,6.8,2.5,6.8,7.7c0,2-1.7,4-4.6,4
	c-2,0-3.8-1.1-4.4-1.9L205.5,76.8z"/>
</svg>
