<?xml version="1.0" encoding="utf-8"?>
<!-- Generator: Adobe Illustrator 25.2.3, SVG Export Plug-In . SVG Version: 6.00 Build 0)  -->
<svg version="1.1" id="Layer_1" xmlns="http://www.w3.org/2000/svg" xmlns:xlink="http://www.w3.org/1999/xlink" x="0px" y="0px"
	 viewBox="0 0 300 62" style="enable-background:new 0 0 300 62;" xml:space="preserve">
<style type="text/css">
	.st0{fill:#002D5F;}
	.st1{enable-background:new    ;}
	.st2{fill:#FFFFFF;}
</style>
<rect class="st0" width="300" height="62"/>
<g class="st1">
	<path class="st2" d="M16.58,33.43l5.58-17.7h2.44l-6.91,20.88V50h-2.3V36.62L8.52,15.73h2.44L16.58,33.43z"/>
	<path class="st2" d="M37.84,50l-0.28-3.56h-0.09c-1.22,2.69-3.06,4.03-5.53,4.03c-1.66,0-2.99-0.66-4-1.98s-1.51-3.09-1.51-5.31
		c0-2.42,0.73-4.34,2.18-5.75s3.49-2.18,6.12-2.31l2.74-0.14v-2.11c0-2.38-0.3-4.11-0.89-5.19s-1.58-1.63-2.95-1.63
		c-1.45,0-2.94,0.48-4.45,1.43l-0.96-1.76c1.77-1.09,3.62-1.64,5.55-1.64c2.09,0,3.6,0.66,4.52,1.98s1.38,3.53,1.38,6.62V50H37.84z
		 M32.43,48.57c1.59,0,2.83-0.79,3.71-2.36s1.32-3.79,1.32-6.67V36.9l-2.65,0.14c-2.05,0.11-3.57,0.68-4.56,1.7
		s-1.49,2.52-1.49,4.49c0,1.84,0.33,3.2,0.98,4.05S31.3,48.57,32.43,48.57z"/>
	<path class="st2" d="M48.6,50h-2.23V13.53h2.23V50z"/>
	<path class="st2" d="M62.61,50.47c-2.69,0-4.75-1.14-6.2-3.43s-2.17-5.48-2.17-9.57c0-4.34,0.64-7.66,1.93-9.95
		s3.14-3.43,5.57-3.43c2.11,0,3.77,1,4.99,3.01s1.83,4.71,1.83,8.12v2.06H56.52c0.03,3.7,0.55,6.48,1.57,8.32s2.55,2.77,4.62,2.77
		c1.59,0,3.27-0.52,5.04-1.57v2.16C66.12,49.96,64.41,50.47,62.61,50.47z M61.61,26.09c-3.06,0-4.74,3.05-5.04,9.16h9.77
		c0-2.8-0.43-5.02-1.28-6.68S63.06,26.09,61.61,26.09z"/>
	<path class="st2" d="M83.59,50V15.73h2.3V50H83.59z"/>
	<path class="st2" d="M114.64,50V32.68c0-4.27-1.25-6.4-3.75-6.4c-1.72,0-2.96,0.75-3.71,2.24s-1.14,3.69-1.14,6.6V50h-2.2V32.68
		c0-2.16-0.3-3.76-0.91-4.82s-1.55-1.58-2.84-1.58c-1.69,0-2.91,0.77-3.68,2.3s-1.15,4.02-1.15,7.45V50h-2.23V24.57h1.88l0.19,3.54
		h0.21c1.02-2.69,2.74-4.03,5.18-4.03c1.41,0,2.52,0.38,3.33,1.12s1.4,1.84,1.76,3.28c0.61-1.56,1.36-2.69,2.25-3.38
		s2.05-1.03,3.47-1.03c1.92,0,3.33,0.74,4.22,2.21s1.34,3.84,1.34,7.09V50H114.64z"/>
	<path class="st2" d="M145.18,50V32.68c0-4.27-1.25-6.4-3.75-6.4c-1.72,0-2.96,0.75-3.71,2.24s-1.14,3.69-1.14,6.6V50h-2.2V32.68
		c0-2.16-0.3-3.76-0.91-4.82s-1.55-1.58-2.84-1.58c-1.69,0-2.91,0.77-3.68,2.3s-1.15,4.02-1.15,7.45V50h-2.23V24.57h1.88l0.19,3.54
		h0.21c1.02-2.69,2.74-4.03,5.18-4.03c1.41,0,2.52,0.38,3.33,1.12s1.4,1.84,1.76,3.28c0.61-1.56,1.36-2.69,2.25-3.38
		s2.05-1.03,3.47-1.03c1.92,0,3.33,0.74,4.22,2.21s1.34,3.84,1.34,7.09V50H145.18z"/>
	<path class="st2" d="M156.25,24.57v16.59c0,2.52,0.3,4.35,0.9,5.51s1.53,1.73,2.78,1.73c1.92,0,3.33-0.78,4.23-2.33
		s1.35-4.07,1.35-7.54V24.57h2.2V50h-1.88l-0.28-3.56h-0.19c-0.55,1.3-1.3,2.29-2.27,2.99s-2.02,1.04-3.16,1.04
		c-2.05,0-3.54-0.73-4.49-2.18s-1.42-3.83-1.42-7.12V24.57H156.25z"/>
	<path class="st2" d="M185.99,50V32.47c0-4.22-1.25-6.33-3.75-6.33c-1.91,0-3.3,0.79-4.18,2.37s-1.32,4.09-1.32,7.52V50h-2.23V24.57
		h1.88l0.19,3.54h0.21c0.53-1.28,1.3-2.27,2.3-2.98s2.07-1.05,3.21-1.05c1.97,0,3.45,0.66,4.43,1.98s1.48,3.44,1.48,6.36V50H185.99z
		"/>
	<path class="st2" d="M202.11,50.47c-2.69,0-4.75-1.14-6.2-3.43s-2.17-5.48-2.17-9.57c0-4.34,0.64-7.66,1.93-9.95
		s3.14-3.43,5.57-3.43c2.11,0,3.77,1,4.99,3.01s1.83,4.71,1.83,8.12v2.06h-12.05c0.03,3.7,0.55,6.48,1.57,8.32s2.55,2.77,4.62,2.77
		c1.59,0,3.27-0.52,5.04-1.57v2.16C205.62,49.96,203.91,50.47,202.11,50.47z M201.11,26.09c-3.06,0-4.74,3.05-5.04,9.16h9.77
		c0-2.8-0.43-5.02-1.28-6.68S202.56,26.09,201.11,26.09z"/>
	<path class="st2" d="M232.77,17.4c-2.58,0-4.63,1.36-6.15,4.09s-2.29,6.5-2.29,11.33c0,3.14,0.35,5.88,1.05,8.2
		s1.71,4.12,3.02,5.37s2.84,1.88,4.57,1.88c1.78,0,3.31-0.32,4.59-0.96v2.11c-1.22,0.7-2.82,1.05-4.8,1.05
		c-2.17,0-4.07-0.7-5.71-2.11s-2.89-3.44-3.79-6.11s-1.34-5.82-1.34-9.48c0-5.47,0.97-9.77,2.92-12.89s4.6-4.69,7.96-4.69
		c2.09,0,3.92,0.48,5.48,1.45l-1.05,2.02C235.93,17.82,234.44,17.4,232.77,17.4z"/>
	<path class="st2" d="M250.11,50.47c-2.69,0-4.75-1.14-6.2-3.43s-2.17-5.48-2.17-9.57c0-4.34,0.64-7.66,1.93-9.95
		s3.14-3.43,5.57-3.43c2.11,0,3.77,1,4.99,3.01s1.83,4.71,1.83,8.12v2.06h-12.05c0.03,3.7,0.55,6.48,1.57,8.32s2.55,2.77,4.62,2.77
		c1.59,0,3.27-0.52,5.04-1.57v2.16C253.62,49.96,251.91,50.47,250.11,50.47z M249.11,26.09c-3.06,0-4.74,3.05-5.04,9.16h9.77
		c0-2.8-0.43-5.02-1.28-6.68S250.56,26.09,249.11,26.09z"/>
	<path class="st2" d="M263.94,50h-2.23V13.53h2.23V50z"/>
	<path class="st2" d="M272.96,50h-2.23V13.53h2.23V50z"/>
	<path class="st2" d="M289.75,43.62c0,2.14-0.56,3.82-1.69,5.03s-2.75,1.82-4.88,1.82c-1.16,0-2.17-0.15-3.05-0.45
		s-1.55-0.62-2.04-0.98v-2.6c0.58,0.58,1.34,1.04,2.3,1.39s1.93,0.53,2.93,0.53c1.31,0,2.34-0.43,3.09-1.29s1.12-2.01,1.12-3.45
		c0-1.12-0.27-2.07-0.81-2.85s-1.57-1.65-3.08-2.64c-1.73-1.09-2.92-1.97-3.55-2.62s-1.12-1.39-1.48-2.2s-0.53-1.78-0.53-2.91
		c0-1.83,0.62-3.34,1.85-4.54s2.8-1.79,4.71-1.79c2.05,0,3.76,0.48,5.13,1.45l-1.15,1.95c-1.28-0.86-2.64-1.29-4.08-1.29
		c-1.31,0-2.36,0.39-3.14,1.16s-1.17,1.79-1.17,3.06c0,1.12,0.27,2.07,0.8,2.82s1.66,1.68,3.38,2.75c1.69,1.11,2.84,2,3.47,2.66
		s1.09,1.4,1.39,2.2S289.75,42.58,289.75,43.62z"/>
</g>
</svg>
