<?xml version="1.0" encoding="utf-8"?>
<!-- Generator: Adobe Illustrator 25.2.3, SVG Export Plug-In . SVG Version: 6.00 Build 0)  -->
<svg version="1.1" id="Layer_1" xmlns="http://www.w3.org/2000/svg" xmlns:xlink="http://www.w3.org/1999/xlink" x="0px" y="0px"
	 viewBox="0 0 167.69 62" style="enable-background:new 0 0 167.69 62;" xml:space="preserve">
<style type="text/css">
	.st0{fill:#00744B;}
	.st1{fill:#FFFFFF;}
</style>
<rect class="st0" width="167.69" height="62"/>
<g>
	<path class="st1" d="M15.79,34.79v13.34H9.42V13.86h8.34c3.53,0,6.14,0.84,7.82,2.51s2.52,4.23,2.52,7.66
		c0,4.33-1.46,7.35-4.38,9.07l6.59,15.02h-6.82l-5.41-13.34H15.79z M15.79,29.3h1.64c1.5,0,2.58-0.43,3.23-1.28s0.98-2.12,0.98-3.81
		c0-1.75-0.35-3-1.04-3.74s-1.77-1.11-3.22-1.11h-1.59V29.3z"/>
	<path class="st1" d="M47.15,48.12l-0.77-3.35h-0.33c-0.58,1.19-1.4,2.12-2.47,2.8s-2.29,1.02-3.67,1.02c-2.34,0-4.12-0.8-5.32-2.39
		s-1.8-3.98-1.8-7.15V22.02h6.3v15.54c0,1.91,0.23,3.34,0.68,4.31s1.19,1.45,2.2,1.45c1.34,0,2.32-0.67,2.94-2.02
		s0.93-3.6,0.93-6.77V22.02h6.3v26.11H47.15z"/>
	<path class="st1" d="M71.39,40.48c0,2.55-0.75,4.54-2.24,5.96s-3.69,2.14-6.6,2.14c-2.58,0-4.71-0.51-6.4-1.52v-5.41
		c0.86,0.59,1.86,1.09,3.01,1.48s2.16,0.59,3.04,0.59c0.97,0,1.71-0.24,2.21-0.71s0.76-1.11,0.76-1.89c0-0.8-0.27-1.49-0.8-2.09
		s-1.51-1.32-2.93-2.18c-1.89-1.12-3.25-2.32-4.07-3.6s-1.23-2.78-1.23-4.51c0-2.22,0.76-3.98,2.29-5.27s3.61-1.95,6.27-1.95
		c2.31,0,4.49,0.61,6.54,1.83l-2.04,4.48c-1.67-0.91-3.14-1.36-4.41-1.36c-0.8,0-1.39,0.21-1.79,0.63s-0.6,0.94-0.6,1.55
		c0,0.7,0.25,1.33,0.74,1.88s1.41,1.23,2.75,2.04c1.62,0.98,2.77,1.82,3.42,2.51s1.16,1.47,1.52,2.34S71.39,39.31,71.39,40.48z"/>
	<path class="st1" d="M88.33,48.12V32.56c0-3.83-0.96-5.74-2.88-5.74c-1.44,0-2.45,0.75-3.02,2.26s-0.87,3.68-0.87,6.5v12.54h-6.23
		V11.66h6.23v8.11c0,1.05-0.09,2.91-0.28,5.6h0.33c1.25-2.56,3.17-3.84,5.77-3.84c2.39,0,4.2,0.81,5.41,2.43s1.83,4,1.83,7.14v17.04
		H88.33z"/>
	<path class="st1" d="M128.11,48.12l-1.97-8.65h-8.93l-1.97,8.65h-6.38l8.48-34.41H126l8.51,34.41H128.11z M124.94,33.83l-1.83-7.97
		c-0.11-0.48-0.36-1.7-0.74-3.64s-0.61-3.25-0.69-3.9c-0.2,1.34-0.46,2.82-0.77,4.44s-1.12,5.31-2.44,11.07H124.94z"/>
	<path class="st1" d="M159.33,30.66c0,5.66-1.15,9.98-3.46,12.97s-5.62,4.49-9.95,4.49h-8.39V13.86h9.16c3.98,0,7.09,1.47,9.3,4.42
		S159.33,25.35,159.33,30.66z M152.79,30.85c0-7.66-2.11-11.48-6.33-11.48h-2.55v23.18h2.06c2.33,0,4.05-0.97,5.16-2.92
		S152.79,34.76,152.79,30.85z"/>
</g>
</svg>
