<?xml version="1.0" encoding="utf-8"?>
<!-- Generator: Adobe Illustrator 27.2.0, SVG Export Plug-In . SVG Version: 6.00 Build 0)  -->
<svg version="1.1" id="Layer_1" xmlns="http://www.w3.org/2000/svg" xmlns:xlink="http://www.w3.org/1999/xlink" x="0px" y="0px"
	 viewBox="0 0 971.75 199.99" style="enable-background:new 0 0 971.75 199.99;" xml:space="preserve">
<style type="text/css">
	.st0{fill:#333333;}
	.st1{fill:#666666;}
	.st2{fill:#009244;}
	.st3{fill:#2A398F;}
	.st4{fill:#FFC940;}
	.st5{fill:#90278E;}
	.st6{fill:#FFFFFF;stroke:#000000;stroke-width:5;stroke-miterlimit:10;}
	.st7{fill:#FFFFFF;}
</style>
<g>
	<path class="st0" d="M31.23,166.67H14.36v19.95h19.07v12.49H0v-73.87h32.11v12.49H14.36v16.99h16.88V166.67z"/>
	<path class="st0" d="M62.99,199.11v-73.87h13.15l11.4,28.93c2.19,5.7,5.81,15.23,7.89,21.59h0.22c-0.44-7.78-1.42-20.6-1.42-34.19
		v-16.33h12.6v73.87H93.68l-11.29-28.06c-2.41-6.25-5.81-15.56-7.45-22.25h-0.22c0.33,7.45,0.88,18.85,0.88,33.65v16.66H62.99z"/>
	<path class="st0" d="M174.62,198.02c-2.08,0.99-6.14,1.75-11.18,1.75c-18.85,0-27.84-15.56-27.84-36.5
		c0-27.84,15.45-38.69,29.81-38.69c5.04,0,8.55,0.99,9.97,1.97l-2.41,12.06c-1.64-0.77-3.51-1.42-6.68-1.42
		c-8.11,0-15.45,7.01-15.45,25.32c0,17.64,6.69,24.55,15.45,24.55c2.41,0,5.15-0.55,6.9-1.1L174.62,198.02z"/>
	<path class="st0" d="M214.62,199.11v-28.28l-16.22-45.59h15.34l5.04,17.64c1.31,4.71,2.74,10.19,3.84,15.67h0.22
		c0.88-5.37,2.08-10.74,3.4-16l4.38-17.32h14.9l-16.55,45.04v28.82H214.62z"/>
	<path class="st0" d="M303.83,198.02c-2.08,0.99-6.14,1.75-11.18,1.75c-18.85,0-27.84-15.56-27.84-36.5
		c0-27.84,15.45-38.69,29.81-38.69c5.04,0,8.55,0.99,9.97,1.97l-2.41,12.06c-1.64-0.77-3.51-1.42-6.68-1.42
		c-8.11,0-15.45,7.01-15.45,25.32c0,17.64,6.68,24.55,15.45,24.55c2.41,0,5.15-0.55,6.91-1.1L303.83,198.02z"/>
	<path class="st0" d="M331.51,125.25h14.36v61.7h18.96v12.17h-33.32V125.25z"/>
	<path class="st0" d="M435.85,160.87c0,27.84-9.86,39.13-23.89,39.13c-16.77,0-23.34-17.75-23.34-38.03c0-20.17,8-37.59,24.33-37.59
		C430.81,124.37,435.85,143.99,435.85,160.87z M403.52,162.18c0,16.77,3.18,25.32,8.99,25.32c6.03,0,8.33-10.96,8.33-25.97
		c0-12.93-1.97-24.66-8.44-24.66C406.7,136.86,403.52,146.29,403.52,162.18z"/>
	<path class="st0" d="M465,126.34c4.06-0.88,9.54-1.42,15.02-1.42c8.55,0,15.23,1.21,20.05,5.7c4.38,3.84,6.36,9.97,6.36,16.22
		c0,8-2.41,13.59-6.25,17.75c-4.6,4.82-12.06,7.01-17.97,7.01c-0.99,0-1.97,0-2.85,0v27.51H465V126.34z M479.36,159.88
		c0.66,0.22,1.43,0.22,2.3,0.22c7.23,0,10.52-5.15,10.52-12.06c0-6.47-2.63-11.51-9.31-11.51c-1.31,0-2.63,0.22-3.51,0.55V159.88z"
		/>
	<path class="st0" d="M565.34,166.67h-16.88v19.95h19.07v12.49h-33.43v-73.87h32.11v12.49h-17.75v16.99h16.88V166.67z"/>
	<path class="st0" d="M596.92,126.34c3.62-0.88,8.88-1.42,14.58-1.42c9.31,0,15.78,2.19,20.49,6.58c6.36,5.7,9.65,15.45,9.65,29.81
		c0,14.9-3.84,25.54-10.3,31.23c-4.93,4.82-12.28,7.12-22.58,7.12c-4.49,0-8.99-0.44-11.84-0.77V126.34z M611.28,187.72
		c0.66,0.22,1.75,0.22,2.52,0.22c6.91,0,12.93-6.8,12.93-27.18c0-15.12-3.95-24.33-12.6-24.33c-0.99,0-1.97,0-2.85,0.33V187.72z"/>
	<path class="st0" d="M685.09,125.25v73.87h-14.36v-73.87H685.09z"/>
	<path class="st0" d="M729.24,182.24l-3.29,16.88h-13.92l16-73.87h17.21l14.36,73.87h-13.92l-3.18-16.88H729.24z M741.19,171.06
		l-2.41-15.45c-0.77-4.49-1.75-11.84-2.41-16.77h-0.33c-0.77,4.93-1.86,12.6-2.63,16.88l-2.74,15.34H741.19z"/>
</g>
<g>
	<g>
		<polygon class="st1" points="99.42,3.94 99.42,104.68 113.12,104.68 113.12,36.12 172.89,104.68 189.78,104.68 102.31,3.94 		"/>
	</g>
	<g>
		<path class="st1" d="M647.1,32.14c-7.24-11.12-17.29-18.92-30.14-23.43c-8.96-3.19-23.34-4.78-43.17-4.78H546.3v100.75h12.7V16.91
			h9.37c19.04,0,32.72,1.26,41.01,3.78c11.05,3.36,19.67,9.57,25.86,18.64s9.28,19.99,9.28,32.77c0,12.18-2.85,22.49-8.56,30.93
			c-0.38,0.56-0.77,1.11-1.17,1.65h15.76c4.92-9.57,7.39-20.5,7.39-32.8C657.96,56.51,654.34,43.26,647.1,32.14z"/>
	</g>
	<g>
		<polygon class="st1" points="75.9,71.43 75.9,58.46 13.72,58.46 13.72,16.91 76.44,16.91 76.44,3.94 0.47,3.94 0.47,104.68 
			13.72,104.68 13.72,71.43 		"/>
	</g>
	<g>
		<rect x="190.53" y="3.94" class="st1" width="13.07" height="100.75"/>
	</g>
	<g>
		<path class="st1" d="M499.43,20.7C485.9,7.3,469.1,0.6,449.02,0.6c-12.39,0-23.9,3.08-34.54,9.24
			c-10.64,6.16-19.04,14.68-25.2,25.55c-6.16,10.87-9.24,22.68-9.24,35.42c0,12.51,2.92,23.79,8.72,33.88h16.1
			c-7.4-9.65-11.12-20.95-11.12-33.93c0-10.64,2.47-20.29,7.4-28.95c4.93-8.66,11.8-15.54,20.58-20.65
			c8.79-5.11,18.09-7.67,27.89-7.67c9.99,0,19.43,2.55,28.34,7.67c8.91,5.11,15.81,11.92,20.71,20.43
			c4.9,8.51,7.36,18.02,7.36,28.55c0,10.58-2.45,20.2-7.36,28.86c-1.13,2-2.38,3.89-3.72,5.7h15.97
			c5.86-10.23,8.81-21.73,8.81-34.51C519.72,50.59,512.96,34.09,499.43,20.7z"/>
	</g>
	<g>
		<polygon class="st1" points="759.15,71.43 759.15,58.46 696.98,58.46 696.98,16.91 759.7,16.91 759.7,3.94 683.73,3.94 
			683.73,104.68 696.98,104.68 696.98,71.43 		"/>
	</g>
	<g>
		<path class="st1" d="M251.13,41.74c4.96-8.56,11.94-15.38,20.95-20.45c9.01-5.08,18.81-7.62,29.38-7.62
			c9.67,0,18.55,1.94,26.62,5.81c8.08,3.87,15,9.56,20.77,17.08l10.45-8.02c-6.36-8.83-14.54-15.7-24.51-20.59
			c-9.97-4.9-21.14-7.35-33.52-7.35c-20.48,0-37.53,6.63-51.14,19.87c-13.61,13.25-20.41,29.57-20.41,48.98
			c0,13.11,2.86,24.85,8.54,35.23h16.38c-7.3-9.59-10.95-20.95-10.95-34.06C243.7,59.93,246.18,50.3,251.13,41.74z"/>
	</g>
</g>
<g>
	<path class="st2" d="M970.89,63.47l-74.17,8.57c1.54,15.34,1.78,31.14,0.67,47.4c-1.94,28.47-8.21,55.53-18.2,80.55h80.06
		C972.05,157.17,976.37,110.97,970.89,63.47z"/>
	<path class="st3" d="M970.89,63.47c-2.56-22.16-6.91-43.33-13-63.47h-79.54c9.69,22.63,15.82,46.69,18.36,72.04L970.89,63.47z"/>
	<path class="st4" d="M817.46,113.99c-2.5,31.78-13.42,61.18-30.53,86h92.26c9.99-25.02,16.25-52.08,18.2-80.55L817.46,113.99z"/>
	<path class="st5" d="M896.71,72.04l-79.7,9.21c0.65,6.16,0.99,12.41,0.99,18.75c0,4.71-0.19,9.38-0.55,14l79.93,5.45
		C898.5,103.18,898.25,87.38,896.71,72.04z"/>
	<path class="st5" d="M878.35,0h-91.42c16.25,23.57,26.92,51.29,30.09,81.25l79.7-9.21C894.17,46.69,888.05,22.63,878.35,0z"/>
</g>
<g>
	<path class="st6" d="M961.65,122.89c0,6.8-1.1,12.79-3.31,17.96c-2.21,5.17-5.2,9.54-8.98,13.14c-3.78,3.59-8.22,6.3-13.32,8.13
		c-5.1,1.82-10.62,2.74-16.54,2.74c-10.96,0-20.35-2.81-28.16-8.41c-7.81-5.6-12.98-14.14-15.5-25.61l26.65-6.8
		c1.01,4.41,2.77,8,5.29,10.77c2.52,2.77,5.98,4.16,10.39,4.16c2.39,0,4.47-0.5,6.24-1.51c1.76-1.01,3.24-2.33,4.44-3.97
		c1.2-1.64,2.08-3.5,2.65-5.58c0.57-2.08,0.85-4.19,0.85-6.33c0-5.79-1.67-10.08-5.01-12.85c-3.34-2.77-7.78-4.16-13.32-4.16h-6.8
		v-22.3h7.56c5.04,0,8.91-1.48,11.62-4.44c2.71-2.96,4.06-7.09,4.06-12.38c0-3.4-0.98-6.61-2.93-9.64
		c-1.96-3.02-5.07-4.54-9.36-4.54c-3.66,0-6.49,1.2-8.5,3.59c-2.02,2.4-3.53,5.42-4.54,9.07l-25.89-6.43
		c1.51-5.79,3.69-10.71,6.52-14.74c2.83-4.03,6.05-7.34,9.64-9.92c3.59-2.58,7.53-4.47,11.81-5.67c4.28-1.2,8.63-1.8,13.04-1.8
		c4.91,0,9.67,0.76,14.27,2.27c4.6,1.51,8.72,3.78,12.38,6.8c3.65,3.02,6.58,6.8,8.79,11.34c2.2,4.54,3.31,9.83,3.31,15.88
		c0,7.81-1.67,14.4-5.01,19.75c-3.34,5.36-7.78,8.92-13.32,10.68v0.57c6.43,1.77,11.53,5.42,15.31,10.96
		C959.76,109.16,961.65,115.59,961.65,122.89z"/>
</g>
<g>
	<path class="st6" d="M863.25,95.11c0,7.56-0.6,15.44-1.79,23.62c-1.2,8.19-3.4,15.72-6.62,22.59c-3.21,6.87-7.69,12.51-13.42,16.92
		c-5.74,4.41-13.14,6.61-22.21,6.61c-9.07,0-16.47-2.21-22.21-6.61c-5.74-4.41-10.21-10.05-13.42-16.92
		c-3.21-6.87-5.39-14.39-6.52-22.59c-1.13-8.19-1.7-16.07-1.7-23.62c0-7.56,0.57-15.43,1.7-23.62c1.13-8.19,3.31-15.72,6.52-22.59
		c3.21-6.87,7.68-12.5,13.42-16.92c5.73-4.41,13.14-6.61,22.21-6.61c9.07,0,16.47,2.21,22.21,6.61
		c5.73,4.41,10.21,10.05,13.42,16.92c3.21,6.87,5.42,14.4,6.62,22.59C862.65,79.68,863.25,87.55,863.25,95.11z M833.01,95.11
		c0-4.41-0.16-9.13-0.47-14.18c-0.32-5.04-0.98-9.7-1.98-13.99c-1.01-4.28-2.4-7.84-4.16-10.68c-1.77-2.83-4.16-4.25-7.18-4.25
		c-3.02,0-5.42,1.42-7.18,4.25c-1.77,2.83-3.15,6.4-4.16,10.68c-1.01,4.28-1.67,8.95-1.98,13.99c-0.32,5.04-0.47,9.77-0.47,14.18
		c0,4.54,0.16,9.33,0.47,14.36c0.31,5.04,0.97,9.67,1.98,13.89c1.01,4.22,2.39,7.75,4.16,10.58c1.76,2.83,4.16,4.25,7.18,4.25
		c3.02,0,5.42-1.42,7.18-4.25c1.76-2.83,3.15-6.36,4.16-10.58c1.01-4.22,1.67-8.85,1.98-13.89
		C832.85,104.44,833.01,99.65,833.01,95.11z"/>
</g>
<circle class="st7" cx="882.25" cy="95.11" r="12.46"/>
</svg>
