<?xml version="1.0" encoding="utf-8"?>
<!-- Generator: Adobe Illustrator 24.2.3, SVG Export Plug-In . SVG Version: 6.00 Build 0)  -->
<svg version="1.1" id="Layer_1" xmlns="http://www.w3.org/2000/svg" xmlns:xlink="http://www.w3.org/1999/xlink" x="0px" y="0px"
	 viewBox="0 0 691.3 80" style="enable-background:new 0 0 691.3 80;" xml:space="preserve">
<style type="text/css">
	.st0{fill:#231F20;}
</style>
<g>
	<path class="st0" d="M17.8,56.2C17.8,45.6,0.2,40,0.2,24.8v-9.9C0.2,1.5,7.6,0,12.1,0C16.6,0,24,1.5,24,15.2v13.1h-6.3V13.4
		c0-5.7-2.8-7.7-5.7-7.7c-2.8,0-5.7,2-5.7,7.7v10.5C6.4,37.7,24,40.6,24,55v7.8C24,74,21.5,80,12.1,80C2.7,80,0.2,73.8,0.2,62.8v-10
		h6.3v13.7c0,5.7,2.8,7.7,5.7,7.7c2.8,0,5.7-2,5.7-7.7V56.2z"/>
	<path class="st0" d="M30.2,32.5c0-9.7,4.2-11.9,9.7-11.9c5.5,0,9.7,2.2,9.7,11.9v35.1c0,9.6-4.2,11.9-9.7,11.9
		c-5.5,0-9.7-2.3-9.7-11.9V32.5z M43.5,31.8c0-3.9-1.3-5.7-3.6-5.7s-3.6,1.7-3.6,5.7v36.5c0,3.9,1.3,5.7,3.6,5.7s3.6-1.7,3.6-5.7
		V31.8z"/>
	<path class="st0" d="M70.6,78.7L69.7,74c-1,2.2-2.7,5.5-7.1,5.5c-5,0-6.7-4.3-6.7-15.2V21.4H62v45.1c0,5.2,0.8,7.6,3.2,7.6
		c2.2,0,4-1.9,4-8.7V21.4h6.1v57.3H70.6z"/>
	<path class="st0" d="M96.4,79c-1.3,0.3-2.6,0.5-4.2,0.5c-7.2,0-8.5-4.2-8.5-15.2V27h-4.5v-5.6h4.5V7.3h6.1v14.1h6.6V27h-6.6v40.2
		c0,5.1,0.6,6.9,4.3,6.9c0.5,0,1.4,0,2.3-0.1V79z"/>
	<path class="st0" d="M113.4,78.7V33.6c0-5.2-0.8-7.6-3.2-7.6c-2.2,0-4,1.9-4,8.7v43.9h-6.1V1.3h6.1v24.7c1-2.2,2.6-5.5,6.8-5.5
		c4.9,0,6.6,4.4,6.6,15.2v42.9H113.4z"/>
	<path class="st0" d="M139.2,59.8h6.1v7.8c0,9.6-4.2,11.9-9.7,11.9c-5.5,0-9.7-2.3-9.7-11.9V32.5c0-9.7,4.2-11.9,9.7-11.9
		c5.5,0,9.7,2.2,9.7,11.9v19.8h-13.3v16c0,3.9,1.3,5.7,3.6,5.7s3.6-1.7,3.6-5.7V59.8z M139.2,31.8c0-3.9-1.3-5.7-3.6-5.7
		s-3.6,1.7-3.6,5.7v15.1h7.3V31.8z"/>
	<path class="st0" d="M165.3,78.7l-0.9-4.6c-1,2.2-2.7,5.5-7.1,5.5c-5.1,0-6.7-4.3-6.7-15.2v-1.1c0-11.2,1.6-15.5,6.9-15.5
		c3,0,4.8,1.4,6.5,4.7V33.8c0-5.7-0.8-7.7-3.6-7.7c-2.8,0-3.6,2-3.6,7.7v5.9h-6.1v-5.4c0-9.5,2-13.7,9.8-13.7
		c6.9,0,9.6,3.3,9.6,13.7v44.3H165.3z M164,61.1c0-4.7-1-7.5-3.8-7.5c-2.6,0-3.4,2.2-3.4,7.7v5.2c0,5.2,0.8,7.6,3.2,7.6
		c2.2,0,4-1.9,4-8.7V61.1z"/>
	<path class="st0" d="M181.6,66.6c0,5.4,0.6,7.4,3.7,7.4c3.2,0,4.5-2.1,4.5-7.2c0-16.8-14.3-12-14.3-32.7c0-11.3,4.2-13.4,10.2-13.4
		c6.9,0,10.2,2.8,10.2,13.1v6.8h-6.1v-6.7c0-5.9-0.8-7.7-4-7.7c-3,0-4.2,1.5-4.2,7.1c0,18.8,14.3,12,14.3,32.8
		c0,10.5-3.6,13.4-10.5,13.4c-7.6,0-9.9-3.6-9.9-14.1v-5.6h6.1V66.6z"/>
	<path class="st0" d="M215.8,79c-1.3,0.3-2.6,0.5-4.2,0.5c-7.2,0-8.5-4.2-8.5-15.2V27h-4.5v-5.6h4.5V7.3h6.1v14.1h6.6V27h-6.6v40.2
		c0,5.1,0.6,6.9,4.3,6.9c0.5,0,1.4,0,2.3-0.1V79z"/>
	<path class="st0" d="M249,56.2c0-10.6-17.6-16.2-17.6-31.3v-9.9c0-13.4,7.4-14.9,11.9-14.9c4.5,0,11.9,1.5,11.9,15.2v13.1H249V13.4
		c0-5.7-2.8-7.7-5.7-7.7c-2.8,0-5.7,2-5.7,7.7v10.5c0,13.7,17.6,16.7,17.6,31.1v7.8c0,11.2-2.5,17.2-11.9,17.2s-11.9-6.2-11.9-17.2
		v-10h6.3v13.7c0,5.7,2.8,7.7,5.7,7.7c2.8,0,5.7-2,5.7-7.7V56.2z"/>
	<path class="st0" d="M275.9,79c-1.3,0.3-2.6,0.5-4.2,0.5c-7.2,0-8.5-4.2-8.5-15.2V27h-4.5v-5.6h4.5V7.3h6.1v14.1h6.6V27h-6.6v40.2
		c0,5.1,0.6,6.9,4.3,6.9c0.5,0,1.4,0,2.3-0.1V79z"/>
	<path class="st0" d="M292.7,59.8h6.1v7.8c0,9.6-4.2,11.9-9.7,11.9c-5.5,0-9.7-2.3-9.7-11.9V32.5c0-9.7,4.2-11.9,9.7-11.9
		c5.5,0,9.7,2.2,9.7,11.9v19.8h-13.3v16c0,3.9,1.3,5.7,3.6,5.7c2.3,0,3.6-1.7,3.6-5.7V59.8z M292.7,31.8c0-3.9-1.3-5.7-3.6-5.7
		c-2.3,0-3.6,1.7-3.6,5.7v15.1h7.3V31.8z"/>
	<path class="st0" d="M331.6,78.7V33.6c0-5.2-0.8-7.6-3.2-7.6c-2.2,0-4,1.8-4,8.2v44.4h-6.1V33.6c0-5.2-0.8-7.6-3.2-7.6
		c-2.2,0-4,1.9-4,8.7v43.9h-6.1V21.4h4.7l0.9,4.6c1-2.2,2.7-5.5,7.1-5.5c3.3,0,5.2,1.9,6.1,6.3c1.2-3,2.9-6.3,7.3-6.3
		c5,0,6.7,4.3,6.7,15.2v42.9H331.6z"/>
	<path class="st0" d="M374.4,52.8h6.3v11c0,13-5,16.2-11.9,16.2c-6.9,0-11.9-3.1-11.9-16.2V16.2c0-13,5-16.2,11.9-16.2
		c6.9,0,11.9,3.1,11.9,16.2v12h-6.3V13.4c0-5.4-2.5-7.7-5.7-7.7c-3.1,0-5.7,2.3-5.7,7.7v53.1c0,5.4,2.5,7.7,5.7,7.7
		c3.1,0,5.7-2.3,5.7-7.7V52.8z"/>
	<path class="st0" d="M399.8,59.8h6.1v7.8c0,9.6-4.2,11.9-9.7,11.9s-9.7-2.3-9.7-11.9V32.5c0-9.7,4.2-11.9,9.7-11.9
		s9.7,2.2,9.7,11.9v19.8h-13.3v16c0,3.9,1.3,5.7,3.6,5.7s3.6-1.7,3.6-5.7V59.8z M399.8,31.8c0-3.9-1.3-5.7-3.6-5.7s-3.6,1.7-3.6,5.7
		v15.1h7.3V31.8z"/>
	<path class="st0" d="M412.1,78.7V1.3h6.1v77.4H412.1z"/>
	<path class="st0" d="M425,78.7V1.3h6.1v77.4H425z"/>
	<path class="st0" d="M468,52.8h6.3v11c0,13-5,16.2-11.9,16.2c-6.9,0-11.9-3.1-11.9-16.2V16.2c0-13,5-16.2,11.9-16.2
		c6.9,0,11.9,3.1,11.9,16.2v12H468V13.4c0-5.4-2.5-7.7-5.7-7.7c-3.1,0-5.7,2.3-5.7,7.7v53.1c0,5.4,2.5,7.7,5.7,7.7
		c3.1,0,5.7-2.3,5.7-7.7V52.8z"/>
	<path class="st0" d="M480.1,32.5c0-9.7,4.2-11.9,9.7-11.9s9.7,2.2,9.7,11.9v35.1c0,9.6-4.2,11.9-9.7,11.9s-9.7-2.3-9.7-11.9V32.5z
		 M493.5,31.8c0-3.9-1.3-5.7-3.6-5.7c-2.3,0-3.6,1.7-3.6,5.7v36.5c0,3.9,1.3,5.7,3.6,5.7c2.3,0,3.6-1.7,3.6-5.7V31.8z"/>
	<path class="st0" d="M519.4,78.7V33.6c0-5.2-0.8-7.6-3.2-7.6c-2.2,0-4,1.9-4,8.7v43.9h-6.1V21.4h4.7l0.9,4.6c1-2.2,2.7-5.5,7.1-5.5
		c5.1,0,6.7,4.3,6.7,15.2v42.9H519.4z"/>
	<path class="st0" d="M537,66.6c0,5.4,0.6,7.4,3.7,7.4c3.2,0,4.5-2.1,4.5-7.2c0-16.8-14.3-12-14.3-32.7c0-11.3,4.2-13.4,10.2-13.4
		c6.9,0,10.2,2.8,10.2,13.1v6.8h-6.1v-6.7c0-5.9-0.8-7.7-4-7.7c-3,0-4.2,1.5-4.2,7.1c0,18.8,14.3,12,14.3,32.8
		c0,10.5-3.6,13.4-10.5,13.4c-7.6,0-9.9-3.6-9.9-14.1v-5.6h6.1V66.6z"/>
	<path class="st0" d="M556.7,32.5c0-9.7,4.2-11.9,9.7-11.9s9.7,2.2,9.7,11.9v35.1c0,9.6-4.2,11.9-9.7,11.9s-9.7-2.3-9.7-11.9V32.5z
		 M570,31.8c0-3.9-1.3-5.7-3.6-5.7c-2.3,0-3.6,1.7-3.6,5.7v36.5c0,3.9,1.3,5.7,3.6,5.7c2.3,0,3.6-1.7,3.6-5.7V31.8z"/>
	<path class="st0" d="M582.7,78.7V21.4h4.7l0.9,4.6c0.8-2,2.9-5.4,6.8-5.4c2.1,0,3.6,1.2,3.6,1.2l-2.5,6.6c-1.7-0.9-3-1.2-3.9-1.2
		c-2.6,0-3.5,2.3-3.5,8.7v42.7H582.7z"/>
	<path class="st0" d="M616.1,79c-1.3,0.3-2.6,0.5-4.2,0.5c-7.2,0-8.5-4.2-8.5-15.2V27h-4.5v-5.6h4.5V7.3h6.1v14.1h6.6V27h-6.6v40.2
		c0,5.1,0.6,6.9,4.3,6.9c0.5,0,1.4,0,2.3-0.1V79z"/>
	<path class="st0" d="M618.2,9.5c0-2.5,2-4.5,4.5-4.5s4.5,2,4.5,4.5c0,2.5-2,4.5-4.5,4.5S618.2,12,618.2,9.5z M619.7,78.7V21.4h6.1
		v57.3H619.7z"/>
	<path class="st0" d="M647,78.7l-0.9-4.6c-1,2.2-2.7,5.5-7.1,5.5c-5,0-6.7-4.3-6.7-15.2V21.4h6.1v45.1c0,5.2,0.8,7.6,3.2,7.6
		c2.2,0,4-1.9,4-8.7V21.4h6.1v57.3H647z"/>
	<path class="st0" d="M685.3,78.7V33.6c0-5.2-0.8-7.6-3.2-7.6c-2.2,0-4,1.8-4,8.2v44.4h-6.1V33.6c0-5.2-0.8-7.6-3.2-7.6
		c-2.2,0-4,1.9-4,8.7v43.9h-6.1V21.4h4.7l0.9,4.6c1-2.2,2.7-5.5,7.1-5.5c3.3,0,5.2,1.9,6.1,6.3c1.2-3,2.9-6.3,7.3-6.3
		c5,0,6.7,4.3,6.7,15.2v42.9H685.3z"/>
</g>
</svg>
