<?xml version="1.0" encoding="utf-8"?>
<!-- Generator: Adobe Illustrator 25.0.0, SVG Export Plug-In . SVG Version: 6.00 Build 0)  -->
<svg version="1.1" id="Layer_1" xmlns="http://www.w3.org/2000/svg" xmlns:xlink="http://www.w3.org/1999/xlink" x="0px" y="0px"
	 viewBox="0 0 33 33" style="enable-background:new 0 0 33 33;" xml:space="preserve">
<path d="M30.56,26.54c0.77-1.01,2.13-8.37,2.15-8.61c0.25-2.54-2-2.07-3.32-2.04c-1.27,0.03-2.55,0.86-3.57,1.53
	c-0.81,0.53-1.32,0.99-1.96,0.85c-0.47-0.11-1-0.54-1.02-1.02c-0.04-0.86,1.6-1.05,3.23-2.64c0.53-0.52,1.78-1.73,2.04-3.57
	c0.28-2.01-0.78-3.59-1.11-4.08c-1.09-1.63-2.58-2.29-3.91-2.89c-2.54-1.14-4.79-1.13-5.53-1.11c-3.03,0.1-5.18,1.29-5.87,1.7
	c-0.88,0.53-2.35,1.43-3.49,3.23c-0.19,0.3-1.07,1.72-1.36,3.83c-0.12,0.86-0.31,3.05,0.68,5.36c0.51,1.2,1.24,2.19,2.38,3.74
	c1.3,1.77,1.74,2.04,1.7,2.72c-0.08,1.49-2.34,3.13-4.25,2.89c-1.73-0.22-1.97-1.82-3.74-1.96c-1.38-0.1-3.08,0.73-3.32,1.96
	c-0.25,1.32,1.3,2.5,1.62,2.72c1.03,0.74,2.26,0.98,4.51,0.85c4.19-0.25,7.33-0.43,9.1-2.89c0.11-0.15,1.66-2.37,1.02-4.68
	c-0.3-1.09-1.02-1.86-2.47-3.4c-1.75-1.87-2.27-1.87-2.64-2.81c-0.62-1.61,0.15-3.59,1.11-4.76c2.43-2.97,7.76-2.78,8.42-1.36
	c0.47,1.01,0.03,2.7-2.89,5.87c-1.15,1.24-0.97,3.12-0.26,4.42c1.1,2,4.58,2.76,6.64,1.7c0.7-0.36,0.87-0.75,3.06-2.21
	c1.13-0.75,2.03-1.39,2.45-1.17c0.65,0.34,0.78,1.52,0.61,2.36C30.42,21.95,30.06,27.2,30.56,26.54z"/>
</svg>
