<?xml version="1.0" encoding="utf-8"?>
<!-- Generator: Adobe Illustrator 25.0.0, SVG Export Plug-In . SVG Version: 6.00 Build 0)  -->
<svg version="1.1" id="Layer_1" xmlns="http://www.w3.org/2000/svg" xmlns:xlink="http://www.w3.org/1999/xlink" x="0px" y="0px"
	 viewBox="0 0 33 33" style="enable-background:new 0 0 33 33;" xml:space="preserve">
<path d="M32.43,24.58c-0.74-0.53-1.32-0.49-2.89-0.98c-0.18-0.06-0.38-0.12-0.64-0.21c-0.92-0.33-1.15-0.53-2.26-1.05
	c-1.14-0.53-1.35-0.54-1.59-0.89c-0.23-0.34-0.08-0.41-0.37-1.17c-0.35-0.89-0.74-1.25-0.56-1.59c0.04-0.08,0.07-0.07,0.42-0.33
	c0.44-0.33,0.57-0.47,0.7-0.56c0.57-0.39,1.06,0.43,2.99,0.61c0.57,0.05,1,0.45,1.54,0.28c0.2-0.06,0.53-0.22,0.51-0.37
	c-0.03-0.39-2.2-0.61-3.03-0.65c-0.07,0-0.34-0.02-0.69-0.09c-0.51-0.1-0.91-0.18-1.13-0.43c-0.29-0.33-0.06-0.71-0.05-1.63
	c0.01-0.3,0.01-1.22-0.37-2.15c-0.27-0.66-0.65-1.09-1.12-1.63c-0.26-0.29-0.62-0.71-1.17-1.12c-1.01-0.76-2.02-1.04-2.01-1.07
	c0.01-0.03,0.61,0.28,1.82,0.47c0,0,0.02,0,0.05,0.01c1.09,0.16,1.98,0.11,2.84,0.13c1.27,0.03,1.08,0.17,2.01,0.14
	c0.75-0.03,0.7-0.12,1.82-0.19c0.65-0.04,1.02-0.03,1.59-0.19c0.57-0.16,0.92-0.25,0.98-0.47c0.13-0.51-1.45-1.63-3.22-2.05
	c-1.04-0.25-1.13-0.01-4.06,0.05c-1.8,0.04-1.91-0.05-4.2,0c-2.21,0.05-1.87,0.12-2.66,0.09c-0.79-0.03-1.12-0.1-1.63,0.09
	c-0.33,0.12-0.59,0.31-0.79,0.19c-0.24-0.14-0.08-0.49-0.33-0.75c-0.21-0.23-0.45-0.08-1.4-0.14c-0.8-0.05-1.03-0.19-1.4,0
	c-0.22,0.11-0.27,0.23-0.47,0.23c-0.31,0.01-0.41-0.27-0.79-0.47c-0.2-0.1-0.51-0.12-1.12-0.14C9.12,6.54,8.81,6.52,8.49,6.61
	C8.27,6.67,8.01,6.8,7.51,7.07C6.98,7.36,6.62,7.59,6.48,7.68C6.06,7.95,5.85,8.09,5.6,8.33C5.31,8.6,5.16,8.75,5.04,8.99
	c-0.35,0.71-0.01,1.5-0.14,1.54c-0.08,0.02-0.25-0.24-0.33-0.42c-0.04-0.09-0.05-0.15-0.12-0.3C4.37,9.67,4.34,9.59,4.29,9.55
	C4.16,9.42,3.94,9.47,3.73,9.5c-1.01,0.18-0.9,0.08-1.17,0.19c-0.15,0.06-0.5,0.2-0.84,0.51c-0.43,0.4-0.64,0.08-1.03,0.42
	c-0.1,0.09-0.18,0.17-0.28,0.25c0.01,0.01,0.01,0.03-0.01,0.08C-0.17,12.1-0.01,12.57,0.14,13c0.1,0.29,0.14,0.29,0.47,0.98
	c0.27,0.59,0.22,0.54,0.37,0.84c0.38,0.74,0.58,0.75,0.7,1.21c0.12,0.44-0.03,0.55,0.14,0.84c0.24,0.42,0.74,0.54,0.84,0.56
	c0.1,0.02,0.62,0.15,1.03-0.14c0.37-0.26,0.38-0.67,0.51-0.65c0.03,0,0.06,0.05,0.09,0.1c0.01-0.23,0.14-0.44,0.45-0.44c0,0,0,0,0,0
	c0.11-0.28,0.19-0.46,0.21-0.45c0.1,0.05,0.11,0.32,0.53-0.54c0.06,0.01,0.11,0.11,0.16,0.28c0.06-0.03,0.13-0.04,0.22-0.04
	c0.01,0,0.02,0.01,0.03,0.01c0.01-0.02,0.03-0.04,0.04-0.05c2.04-0.84,2.55,1.3,2.56,2.11c-0.43-0.34-1.73-0.68-1.67-0.74
	c0.4-0.42-0.44-0.11-0.98,0.16c0.1,1.37,0.09,3.12,0.05,3.62c-0.03,0.36-0.15,0.38-0.7,1.4c-0.82,1.5-0.75,1.78-1.26,2.15
	c-0.34,0.25-0.71,0.37-0.7,0.61c0.01,0.18,0.22,0.36,0.42,0.37c0.31,0.02,0.53-0.37,0.89-0.93c0.97-1.54,0.72-0.95,1.26-1.91
	c0.62-1.11,0.93-1.67,0.98-1.96c0.32-1.89-0.38-1.96-0.37-2.14c0.05-1.32,1.04-0.12,2.04,0.46c0.22,0.13,0.05,0.61,1.18,1.02
	c0.65,0.24,0.35-0.75,0.51-0.89c0.2-0.16-0.33-0.69-0.42-1.21c-0.09-0.55-0.22-0.74-0.28-1.31c-0.04-0.38-0.07-0.64,0.05-0.7
	c0.15-0.08,0.46,0.29,1.31,1.21c0.98,1.07,1.15,1.21,1.4,1.21c0.02,0,0.03-0.01,0.04-0.01c0.06,0.18,0.11,0.25,0.28,0.69
	c0.19,0.51,0.17,0.53,0.33,0.93c0.17,0.42,0.25,0.62,0.37,0.75c0.39,0.38,1.1,0.47,1.26,0.23c0.1-0.15,0.08-0.57-0.14-0.61
	c-0.81-0.14-0.71-0.84-0.89-0.98c-0.27-0.22-0.58-0.58-0.82-1.21c0.23-0.22,0.43-0.56,0.92-0.69c0.66-0.18,1.49,0.13,1.77,0.65
	c0.13,0.25,0.05,0.37,0.09,1.12c0,0,0.04,0.67,0.19,1.4c0.14,0.7,0.35,1.19,0.65,1.91c0.07,0.17,0.17,0.39,0.79,1.63
	c0.91,1.8,1.1,2.12,1.54,2.33c0.35,0.17,0.91,0.29,0.93,0.23c0.01-0.02-0.06-0.07-0.1-0.1c-0.16-0.11-0.35-0.34-0.74-0.79
	c-0.2-0.24-0.39-0.46-0.6-0.77c-0.09-0.13-0.15-0.24-0.18-0.28c0,0-0.19-0.33-0.35-0.67c-0.2-0.45-0.27-0.9-0.37-1.31
	c-0.34-1.3-0.84-1.38-0.93-2.43c-0.03-0.31,0.01-0.41-0.05-0.84c-0.08-0.63-0.31-0.94-0.14-1.17c0.05-0.07,0.17-0.11,0.41-0.18
	c0.41-0.13,0.62-0.1,0.85-0.19c0.13-0.05,0.23-0.1,0.28-0.14c0.12,0.06,0.3,0.13,0.44,0.33c0.11,0.15,0.09,0.23,0.19,0.56
	c0.09,0.32,0.12,0.29,0.33,0.84c0.19,0.51,0.17,0.53,0.33,0.93c0.17,0.42,0.25,0.62,0.37,0.75c0.39,0.38,1.1,0.47,1.26,0.23
	c0.1-0.15,0.08-0.57-0.14-0.61c-0.81-0.14-0.71-0.84-0.89-0.98c-0.36-0.29-0.79-0.82-1.03-1.91l-0.19-0.42
	c-0.13,0.01-0.22,0.02-0.31,0.03c0.05-0.03,0.08-0.06,0.14-0.08c1.02-0.36,1.74,1.1,3.31,1.07c0.73-0.01,0.89-0.33,1.35-0.14
	c0.52,0.21,0.74,0.78,1.17,1.91c0.48,1.27,0.38,1.53,0.75,1.96c0.41,0.48,0.74,0.38,1.96,0.84c2.06,0.78,2.71,1.66,3.73,1.63
	c0.17,0,0.57-0.04,1.03,0.14c0.26,0.1,0.32,0.19,0.65,0.33c0.34,0.14,0.87,0.3,0.93,0.19C33.05,25.08,32.71,24.77,32.43,24.58z"/>
</svg>
