<svg id="Layer_1" data-name="Layer 1" xmlns="http://www.w3.org/2000/svg" viewBox="0 0 32.99 30.88"><path d="M0,31.94c-.13-2.28.16-7.27,3.56-9A30.92,30.92,0,0,1,8,21.33,7.11,7.11,0,0,0,11.19,20,5.12,5.12,0,0,0,13,18c.86-1.72.94-2.16.84-2.31-.24-.31-1,.32-2.22,0-.28-.09-.94-.29-1.13-.81s.12-.59,0-1.29c-.06-.53-.22-.5-.28-1-.1-.82.28-1.19.05-1.48s-.74,0-1-.34,0-.92.09-1.19a8.32,8.32,0,0,1,.9-1.33,4.51,4.51,0,0,0,.56-1c.23-.7,0-1,0-1.72a4.25,4.25,0,0,1,1-2.24,4.64,4.64,0,0,1,3.45-2.13,6.17,6.17,0,0,1,1.83,0,8.22,8.22,0,0,1,2.13.51,7.43,7.43,0,0,1,1.74,1,5.31,5.31,0,0,1,1.18,1.05,5.23,5.23,0,0,1,1,1.95,5.66,5.66,0,0,1,.24,1.82,6,6,0,0,1-.33,1.71,7.29,7.29,0,0,1-1,2c-.85,1.18-1.32,1.07-1.89,2.14a5,5,0,0,0-.52,1.63,5.05,5.05,0,0,0,.05,1.52A5.43,5.43,0,0,0,20.39,18a6.48,6.48,0,0,0,.89,1.24,6.62,6.62,0,0,0,1.61,1.28,11.31,11.31,0,0,0,2.45.81c.65.21,1.29.41,2.07.72a10.39,10.39,0,0,1,2.36,1.14,6.65,6.65,0,0,1,1.75,1.67,7.64,7.64,0,0,1,1.08,2.67,12.33,12.33,0,0,1,.33,2.29c.09,1.16.06,2.17.06,2.17C31.15,31.78,7.71,31.94,0,31.94Z" transform="translate(0 -1.06)"/></svg>