<svg id="Layer_1" data-name="Layer 1" xmlns="http://www.w3.org/2000/svg" viewBox="0 0 32.79 18.4"><path d="M3.56,11.29c.09-.27-.08-.37-.24-1a2.63,2.63,0,0,1-.1-1.43,2.12,2.12,0,0,1,.64-1c.3-.29.65-.62,1-.55s.6.49.79.84c.33.64.19.93.44,1.09S6.83,9,7.79,8.83a10.07,10.07,0,0,1,1.82.05,4.16,4.16,0,0,0,1.38,0,4.88,4.88,0,0,0,1-.39s.62-.28,1.38-.59a8.25,8.25,0,0,1,2.26-.55,9.61,9.61,0,0,1,3.14.25,7.91,7.91,0,0,1,2.86.89c.15.09.67.54,1.72,1.42a14,14,0,0,1,1.77,1.63,9.84,9.84,0,0,1,1.08,1.77c.37.71.78,1.61.83,1.72a6.59,6.59,0,0,0,.64,1.28,4.43,4.43,0,0,0,1.08,1,11.4,11.4,0,0,1,1.87,1.18,8.7,8.7,0,0,1,1.23,1.18c.19.2.54.15,1,2.5A1.89,1.89,0,0,1,32.39,24c-.48.66-3.38.49-4.59.44-1,0-6.77-.1-7.18.25a9.6,9.6,0,0,1-2.71,1c-.19,0,1.56-.83,1.82-1.38s3.83-1.05,4.48-1c1.37.15,2.6.05,3.54.15a7.74,7.74,0,0,0,3-.84,1.92,1.92,0,0,0,0-1.52c-.09-.2-.15-.49-1.08-1.29A3.21,3.21,0,0,0,27.06,19c-.58,0-.73.12-1.54.2a1.79,1.79,0,0,0-1.11.34c-.35.24-.19.56-.54.93s-.64.27-1.33.55-.65.51-1.38.83A2.72,2.72,0,0,1,19,22c-.29-.15-.77-.49-.74-.84s1.05-.85,1.74-.93a4.21,4.21,0,0,0,.9-.35c0-.06-1.9.13-2.34.1-1.56-.11-1.53,0-2.56-.15-.66-.06-1.06-.12-2.06-.19a4.86,4.86,0,0,0-1.38,0c-.24.05-.29.33-1.28.89a15,15,0,0,1-1.82.73,4.46,4.46,0,0,1-1.91.64c-.55,0-1.48-.09-1.58-.49s.42-.82.94-1A5.79,5.79,0,0,1,8.23,20c.95-.07,1.55-.34,1.48-.54S9,19.6,8,19.4a2.05,2.05,0,0,1-1.28-.83A3.53,3.53,0,0,0,6,17.83a2.37,2.37,0,0,0-1.62,0,7.34,7.34,0,0,1-1.18.34,3.92,3.92,0,0,1-.84,0A2.87,2.87,0,0,1,1.25,18a2.53,2.53,0,0,1-.83-.64c-.2-.21-.29-.32-.31-.44s.21-.54.7-1.09c.3-.33.37-.36.44-.54s.06-.42.15-.78a2.94,2.94,0,0,1,.34-.74c.27-.46.38-.47.69-1s.21-.44.4-.69C3.2,11.58,3.47,11.6,3.56,11.29Z" transform="translate(-0.11 -7.3)"/></svg>