<svg xmlns="http://www.w3.org/2000/svg" xmlns:xlink="http://www.w3.org/1999/xlink" width="508" height="506" viewBox="-0.758 -0.715 1660 2016"><defs><linearGradient id="e"><stop offset="0" stop-color="#838383"/><stop offset="1" stop-color="#838383" stop-opacity="0"/></linearGradient><linearGradient id="d"><stop offset="0" stop-color="#9e9e9e" stop-opacity=".588"/><stop offset="1" stop-color="#9e9e9e" stop-opacity="0"/></linearGradient><linearGradient id="c"><stop offset="0" stop-color="#fff" stop-opacity=".902"/><stop offset="1" stop-color="#838383"/></linearGradient><linearGradient id="b"><stop offset="0" stop-color="#bcbcbc"/><stop offset="1" stop-color="#fff"/></linearGradient><linearGradient id="a"><stop offset="0" stop-color="#e2e2e2"/><stop offset="1" stop-color="#fff"/></linearGradient><linearGradient x1="838.087" y1="1954.358" x2="838.087" y2="541.899" id="h" xlink:href="#a" gradientUnits="userSpaceOnUse" gradientTransform="matrix(.961 0 0 .961 -23.375 -.078)"/><radialGradient cx="1607.419" cy="1804.742" r="806.302" fx="1607.419" fy="1804.742" id="g" xlink:href="#b" gradientUnits="userSpaceOnUse" gradientTransform="matrix(0 -.887 1.827 0 -1775.925 3330.394)"/><linearGradient x1="1340.135" y1="315.078" x2="1389.256" y2="265.032" id="i" xlink:href="#c" gradientUnits="userSpaceOnUse" gradientTransform="matrix(.961 0 0 .961 -23.375 -.078)"/><radialGradient cx="1188.806" cy="482.368" r="379.763" fx="1188.806" fy="482.368" id="j" xlink:href="#d" gradientUnits="userSpaceOnUse" gradientTransform="matrix(-1.004 -1.047 .568 -.545 2207.68 1917.896)"/><linearGradient x1="767.154" y1="1887.81" x2="768.491" y2="1988.171" id="f" xlink:href="#e" gradientUnits="userSpaceOnUse"/></defs><path d="M-22.691 1886.142c.178 42.03 1.822 88.62 51.801 92.576h1467.803c18.678 0 63.462-40.318 62.751-81.507l-1582.355-11.069z" fill="url(#f)" fill-rule="evenodd"/><path d="M1.984 25.28c-15.788 9.984-25.359 27.361-25.359 46.04v1809.806c0 14.447 5.739 28.304 15.955 38.52 10.216 10.217 24.072 15.955 38.52 15.955h1467.803c18.678 0 36.056-9.57 46.04-25.358l-1542.96-1884.963z" fill="#a3a3a3" fill-rule="evenodd"/><path d="M1570.301 515.264c0-21.672-8.608-42.455-23.933-57.78l-433.629-433.63c-15.325-15.324-36.109-23.933-57.78-23.933h-1006.937c-14.447 0-28.303 5.74-38.52 15.956-10.216 10.216-15.955 24.072-15.955 38.52v1809.807c0 14.447 5.739 28.303 15.955 38.52 10.216 10.216 24.072 15.954 38.52 15.954h1467.804c14.448 0 28.304-5.739 38.52-15.954 10.216-10.217 15.954-24.073 15.954-38.52v-1348.94z" fill="#838383" fill-rule="evenodd"/><path d="M1556.683 547.859c0-21.672-8.609-42.455-23.933-57.78-15.324-15.324-36.108-23.932-57.779-23.932h-334.144c-22.564 0-40.856-18.292-40.856-40.857v-330.038c0-21.672-8.61-42.456-23.933-57.779-15.324-15.324-36.108-23.933-57.779-23.933h-970.235c-10.836 0-21.228 4.304-28.89 11.967-7.662 7.662-11.967 18.054-11.967 28.89v1809.807c0 10.835 4.305 21.228 11.967 28.889 7.662 7.662 18.054 11.967 28.89 11.967h1467.804c10.835 0 21.228-4.305 28.889-11.967 7.663-7.662 11.967-18.054 11.967-28.889v-1316.345z" fill="url(#g)" fill-rule="evenodd"/><path d="M1529.445 520.621h-1495.04v1302.726c0 14.448 5.739 28.304 15.955 38.52 10.216 10.216 24.072 15.956 38.52 15.956h1386.091c14.448 0 28.304-5.74 38.52-15.956 10.216-10.215 15.954-24.072 15.954-38.52v-1302.726z" fill="url(#h)" fill-rule="evenodd"/><path d="M1113.589 43.965v381.325c0 7.224 2.869 14.152 7.978 19.26 5.108 5.108 12.036 7.977 19.26 7.977h381.325l-408.563-408.562z" fill="url(#i)" fill-rule="evenodd"/><path d="M1474.955 465.822h-334.186c-22.567 0-40.862-18.295-40.862-40.862v-330.079c0-21.674-8.611-42.461-23.936-57.787-15.326-15.326-36.113-23.936-57.787-23.936h-759.771l16.903 1209.64 1281.36 45.076v-720.33c0-21.674-8.61-42.461-23.936-57.787-15.325-15.325-36.111-23.936-57.786-23.936z" fill="url(#j)" fill-rule="evenodd"/></svg>