<svg xmlns="http://www.w3.org/2000/svg" viewBox="0 0 1324.23 622.44"><defs><style>.cls-1{fill:#e4ecf3;}.cls-2{fill:#bbd0e2;}.cls-3{fill:#86abcb;}.cls-20,.cls-39,.cls-4,.cls-5{fill:#fff;}.cls-10,.cls-32,.cls-5{stroke:#e4ecf3;}.cls-10,.cls-12,.cls-15,.cls-16,.cls-19,.cls-20,.cls-21,.cls-22,.cls-23,.cls-24,.cls-29,.cls-30,.cls-31,.cls-32,.cls-33,.cls-34,.cls-35,.cls-39,.cls-41,.cls-42,.cls-5,.cls-8{stroke-miterlimit:10;}.cls-19,.cls-20,.cls-21,.cls-22,.cls-23,.cls-24,.cls-29,.cls-30,.cls-31,.cls-32,.cls-33,.cls-34,.cls-5,.cls-8{stroke-width:2.37px;}.cls-35,.cls-6{fill:#b7cce0;}.cls-7{fill:#ecf2f7;}.cls-8{fill:#a8c2d9;}.cls-19,.cls-8{stroke:#ccdce9;}.cls-9{fill:#ccdce9;}.cls-10,.cls-16,.cls-19,.cls-22,.cls-29,.cls-31,.cls-32,.cls-34,.cls-42{fill:none;}.cls-10{stroke-width:6px;}.cls-11{fill:#3b77aa;}.cls-12,.cls-24{fill:#d1dfeb;}.cls-12{stroke:#aac4da;stroke-width:1.18px;}.cls-13{fill:#0e5796;}.cls-14,.cls-15{fill:#719cc1;}.cls-15,.cls-16{stroke:#5689b6;}.cls-16{stroke-width:0.79px;}.cls-17{fill:#5689b6;}.cls-18{fill:#477fb0;}.cls-20{stroke:#bbd0e2;}.cls-21{fill:#fdfdfe;}.cls-21,.cls-22,.cls-23,.cls-24{stroke:#7da4c7;}.cls-23{fill:#e2ebf2;}.cls-25{fill:#729cc2;}.cls-26{fill:#8baecc;}.cls-27{fill:#8eb0ce;}.cls-28{fill:#afc7dc;}.cls-29{stroke:#dde7f0;}.cls-30{fill:#bed2e3;}.cls-30,.cls-31{stroke:#95b5d1;}.cls-33{fill:#7aa2c5;}.cls-33,.cls-34{stroke:#477fb0;}.cls-35{stroke:#ecf2f7;stroke-width:0.86px;}.cls-36{fill:#f5f8fb;}.cls-37{fill:#5d8eb9;}.cls-38{fill:#6090ba;}.cls-39{stroke:#a6c1d8;stroke-width:1.66px;}.cls-40{fill:#2869a2;}.cls-41{fill:#c3d5e5;stroke-width:2px;}.cls-41,.cls-42{stroke:#d1dfeb;}.cls-42{stroke-linecap:round;stroke-width:1.05px;}</style></defs><g id="Layer_2" data-name="Layer 2"><g id="Layer_1-2" data-name="Layer 1"><path class="cls-1" d="M977.42,376.49c86,37.8,185.45,38,273.72,64a37.35,37.35,0,0,1,26.79,35.35c1,113.2-233.76,67.85-311.9,61.78-102.81-13-256.57-6.35-313,76.74,152.44-142.21,353.69-10,532.76-34.42,43.39-9.76,107.64-37.86,130.32-81.59,13.31-25.66,6.77-57.29-14.79-76.54-80.49-71.88-230.13-27.32-309.62-106L974,295.59l-22.37,54.83,2.59,23.9Z"/><path class="cls-2" d="M646.12,622.44l5.93-8.73c25.6-37.69,72.66-62.89,139.88-74.89,69.51-12.42,139-6.81,174.25-2.36,10.83.84,24.62,2.44,40.59,4.28,76,8.77,203.17,23.45,250.83-19.39,12.86-11.56,19.3-26.86,19.14-45.48a36.3,36.3,0,0,0-25.94-34.22c-36.09-10.63-74.81-17.07-112.26-23.3-54.35-9-110.55-18.38-161.42-40.7l-24-2.24-2.72-25.16,23.2-56.88,19,21.65c40.48,40.08,100.4,48.07,158.35,55.8,54.93,7.33,111.74,14.91,151.17,50.12,22.33,19.94,28.52,52,15.05,78-10.26,19.79-30.27,38.47-57.87,54a280.62,280.62,0,0,1-73.24,28.17l-.1,0c-65.53,9-134.82-3.17-201.82-14.89-117.48-20.54-145.87-18.71-173.32-16.93-30,1.93-56.59,7.65-81.33,17.46-27.74,11-52.48,26.86-75.64,48.47Zm237.27-88.81c-28.23,0-59.64,1.91-91,7.52-60.7,10.84-104.75,32.47-131.17,64.36a237.18,237.18,0,0,1,67.44-40.94c25-9.91,51.81-15.68,82-17.63,56.11-3.62,116,6.85,173.88,17,66.81,11.68,135.89,23.77,201,14.88a278.27,278.27,0,0,0,72.55-27.92c27.19-15.33,46.88-33.67,56.93-53.05,13-25,7-55.89-14.53-75.11-38.89-34.72-95.32-42.25-149.91-49.54-58.33-7.78-118.65-15.83-159.75-56.52l-16.52-18.84-21.53,52.78,2.45,22.64,22.45,2.09.18.08c50.64,22.26,106.76,31.59,161,40.62,37.53,6.24,76.33,12.69,112.55,23.36a38.69,38.69,0,0,1,27.64,36.47c.17,19.33-6.54,35.23-19.93,47.26-21.38,19.23-59.14,28.95-115.42,29.72-47.26.64-99.28-5.35-137.26-9.74-16-1.84-29.72-3.43-40.56-4.27A669.22,669.22,0,0,0,883.39,533.63Z"/><path class="cls-1" d="M267.82,349.75s5.75,15.68,0,23.27-16,19.1-26.95,21.71-20.66,3.93-25.63,2.36-22.76,7.06-31.39,14.12-10,12.82-10,12.82l6.87-1-5,8.11s15.49,2.36,20-1S208.55,428,211.5,423s19.43-5.75,21.79-5.75-11.16,8.89-11.16,8.89,8.8-1,13.51-1,17.27,2.09,24.33-.53,31.41-11,37-13.34,30.89-11.44,30.58-14.12"/><path class="cls-2" d="M186.09,433.09a75.75,75.75,0,0,1-10.55-.83l-1.78-.27,4.63-7.45-6.06.92.4-1.7c.06-.25,1.52-6.23,10.37-13.46,8.17-6.69,26.73-16.17,32.49-14.34,4.23,1.33,12.87.51,25-2.38,10.22-2.43,19.93-12.91,26.27-21.27,5.3-7-.11-22-.17-22.16l2.23-.81c.24.66,5.91,16.39-.17,24.4-6.58,8.67-16.71,19.55-27.61,22.15-12.73,3-21.57,3.81-26.27,2.33-4.12-1.31-21.38,6.63-30.28,13.91-5.39,4.4-7.83,8.28-8.86,10.42l7.37-1.12-5.42,8.73c5,.61,14.36,1.18,17.36-1.06,2.15-1.6,4.91-2.23,7.58-2.84,3.3-.75,6.41-1.46,7.85-3.88,3.6-6.06,22.62-6.34,22.81-6.34a1.38,1.38,0,0,1,1.4,1c.23.78.5,1.65-7.93,7.43,2.85-.27,6.4-.55,8.88-.55,1.25,0,3,.14,5,.3,5.53.44,13.88,1.11,18.9-.75,2.59-1,7.38-2.65,12.93-4.6,9.14-3.23,20.52-7.24,24.05-8.72,1.14-.48,3-1.22,5.46-2.15,6.36-2.47,23.25-9,24.45-11.08a.57.57,0,0,0-.05.33l2.36-.27c.24,2.15-3.3,4.46-25.91,13.23-2.39.92-4.28,1.66-5.4,2.12-3.59,1.51-14.53,5.37-24.18,8.77-5.53,1.95-10.32,3.64-12.89,4.59-5.5,2-13.83,1.38-19.9.89-2-.15-3.68-.29-4.84-.29-4.58,0-13.28,1-13.37,1l-5,.59,4.19-2.76c3.44-2.26,7.25-4.94,9.37-6.64-5.82.34-16.34,1.75-18.33,5.1s-5.72,4.15-9.37,5c-2.43.56-4.94,1.13-6.68,2.43C194.29,432.62,190.14,433.09,186.09,433.09Z"/><polygon class="cls-2" points="153.52 361.88 151.03 361.98 150.69 362.09 153.52 361.88"/><path class="cls-2" d="M977.93,329.16h19l-13.43-6h6.81l-12.56-10.79L986,315l-12.21-9.16L992,316.22l-10.72-16.43c-8.07-16-19.37-41.4-28.93-59l-.38-.7,10.09,6.48L939,210.9l4.19.6L924.4,185.9l10.29,4.29-35.41-39,7.85,2.18L860.05,108.3h6.8L832.32,87.37l7.84-2.09-21.4-11,5.53.76h10.18L796.22,49.93h7.32L756.33,30.34l5.61-3.66-32.43-8.89,3.93-2.62-42.68-3.66,5-4.71L649.36,4.32,656,0l-48.2,4.32L610.48,0,566.55,4.32V0L515.8,16.22V9.94L463.48,34V28.25L438.37,46.56v-6.8l-9.24,9.79-2.1.22,2.33-2.47L407.05,50l2.15-2.28L388.55,49.4l2.15-2.27-17.87,2.93L375,47.79,359.72,51l3.19-3.39-12.18,3.77,3.8-4-20.91-.45-1.56.35-13.36,3,.76-2.34-22.35,7.69.3-2.6-26,10.81.16-7.05-7.78,5.14v-.69l-3.85,3.22-6.26,4.13,2.9-8.71-6.07,6.27-.44-.87-8,6.31,1.41-5.41-9.31,11.63-1.38,1.08V75.07L216.55,93.91v-3.4l-14.39,17.26v-3.14L188.29,120v-3.12l-11,14.39v-3.12l-8.9,12.8v-4.65l-6.27,11.1v-5.54l-15.53,14-.89,1.33-7.65,11.36-1-2.22L126,187.3l-1.57-2.1L113,210.9l-.71-5.24-9.32,22.53-2.5-1.6-2.13,9.85c-14.3,25.65-27.82,52.08-41.47,78,0,0-.1,1.24-2.25,5.66a11.25,11.25,0,0,0-.65,5.78c.44,4.7.53,11.06,4.38,13.8,20,14.32,44.62,25.41,72,23.31-.35.34-.67.69-1,1l13,.34-2-2L151,362l23.85-7.73-5.59-.65,20.57-2.49-2.09-1.86,24.73,1.86-1-2.7,14.2.7-5.14-2.42,27.19,4.42-4.17-2.7s20.72,7.57,21.87,15.66c.18,1.29.83,1.51,1.79,1l-.3,4L252.3,390.29l11.85-7-4.53,10.81,9.42-7.67-2.44,7.67,11.85-6.28-3.51,10.82L288.22,391l-4.53,14.65,15.69-10.46v10.46l5.23-6.28,2.09,8.72L329,396.31a11.33,11.33,0,0,1,2,3.83c1.36.07,2.7.22,4,.42-2.71,8.36-5.5,12.05-5.5,12.05l5-2.1-9.1,11.86h4.07l-6.93,10.12,7-2.44-4.13,6.27,7.35-3.83-7.35,18.83,12.21-10.81,1.1,5.23,7.05-3.49-1.42,6.28L350.3,444l-1.74,7.32,8-3.49-3.66,8,12-5.58-2.78,5.58,7.81-5.58-2.79,8,7.89-6.63v5.23l10.43-8v4.88l10.36-8.15c.31.43.64.85.94,1.28l4.8-2.27-.59,1.47,6.12-4c4.14-1.9,8.37-3.8,12.65-5.69l-.77,1.36,6.84-4,6.72-2.9-2.05,4.49,6.63-4.88v4.88a258.31,258.31,0,0,0,21.58-15.4q9.47-3.87,18.9-7.62l6.95,3-1-3,9.94,2.09-1.19-2.61,9.91,1.57-2.54-1.69,1.06.11,15.08,4.71-3.66-3.13,12.9,1.56-2.33-1.32c23.21,1.4,44.32,1.14,66.21,1.51l3.1.51-.35-.46,4.17.09,9.07,3.86,26.34,3.31-4.8-3.14,9.85,3.67-.87-3.84,26.12,3.84-6.41-2.44L672,423.25l-1.89-1.2q10.92,1.8,21.9,3.15l1.29.31-.34-.19c11.76,1.44,23.55,2.58,35.35,3.59,1.27.11,2.55.2,3.82.29l3.63,1.37-.56-1.18c3.13.18,6.26.31,9.4.37l4.68,1.33-3.23-1.3A258.57,258.57,0,0,0,851.8,408.88c9.55-.5,18.22-1.28,26.36-2.37l.37.17v-.21c1.7-.23,3.37-.48,5-.73l1.26.94.14-1.16c4.93-.79,9.68-1.71,14.34-2.76L910.1,404l-6.7-2.17c1.4-.35,2.8-.7,4.19-1.07l17.5,2.82L922.83,400l9.41,2.47-4.71-4.18L944.1,400l-5.4-5,10.11-2.61-4.88-3.14L955.44,388l-5-2.66,1.5-.65h13.65l-6.4-3.2,1.2-.54L991,382.22l-9-5-16.8-6.64,10.29,1.22-9.59-7,9.59,1.23-7.67-8.38L986,361.16,974.1,350.7,986,354.54l-11.17-10.12L992.06,350l-16.74-10.64,20.92,2.1Z"/><path class="cls-2" d="M78.7,299.49S36.83,283.13,0,298.21c0,0,42.29-14.46,78.1,3.12"/><path class="cls-2" d="M78.05,301.88S32.42,296.51.11,308.66c0,0,37.85-12.32,77.84-5.66"/><path class="cls-2" d="M76.38,303.16S49.19,304,34,319.94c0,0,18.31-16.81,42.63-15.7"/><path class="cls-2" d="M74.34,306.26s-21.66,9.08-27.4,26c0,0,7.87-18.52,28-25.2"/><path class="cls-1" d="M871.43,395.52c-1.41,6.31-2.95,25.72-7.11,30.67s-10.39,7.59-16.37,10.05l-43.82,18.08c-12.4,5.12-25.14,10.46-34.68,19.89-3.75,3.72-7,8-11.07,11.33s-9.53,5.59-14.66,4.32a3,3,0,0,1-1.84-1,3.31,3.31,0,0,1-.1-2.66c1.49-5.82,3.91-12.59,7.5-17.4-15.36-2.65-31.52,2.41-44.14,11.57-4.31,3.13-8.39,6.95-13.56,8.25-3.23.81-7.83-.62-7.56-3.94.23-2.75,3.81-4.39,3.8-7.15q-5,1.25-10.09,2a3.13,3.13,0,0,1-2.54-.35c-1.1-.95-.39-2.74.37-4l5.86-9.45-12.75,3.53a6.22,6.22,0,0,1-2.59.33c-2.46-.38-3.51-3.71-2.39-5.93s3.6-3.41,6-4,4.94-.84,7.2-1.88c2.73-1.26,4.79-3.57,7.17-5.39,8.87-6.78,21.07-6.11,32.2-6.88a107.84,107.84,0,0,0,51.11-17.1"/><path class="cls-2" d="M746.66,491.4a13.41,13.41,0,0,1-3.23-.39,4.12,4.12,0,0,1-2.53-1.52,4.41,4.41,0,0,1-.27-3.62c1.2-4.7,3.29-11.13,6.6-16.22-13.68-1.79-28.66,2.39-41.4,11.64-.87.63-1.74,1.3-2.61,2-3.45,2.64-7,5.37-11.35,6.46a8.77,8.77,0,0,1-7.42-1.44,4.36,4.36,0,0,1-1.61-3.74A7.61,7.61,0,0,1,685,480.4a14.44,14.44,0,0,0,1-1.26c-2.68.61-5.4,1.13-8.11,1.56a4.22,4.22,0,0,1-3.49-.62c-1.35-1.17-1.3-3.18.14-5.5l4.26-6.87L669,470.43a7.19,7.19,0,0,1-3.08.36,4.33,4.33,0,0,1-3.2-2.42,5.91,5.91,0,0,1-.07-5.22c1.1-2.18,3.44-3.78,6.77-4.64.82-.21,1.65-.37,2.45-.53a15,15,0,0,0,9.21-4.63c.73-.64,1.49-1.3,2.29-1.91,7.71-5.89,17.7-6.36,27.35-6.81,1.84-.09,3.68-.18,5.49-.3a106.21,106.21,0,0,0,50.54-16.92l1.3,2a108.68,108.68,0,0,1-51.68,17.29c-1.82.13-3.68.21-5.54.3-9.29.44-18.89.89-26,6.34-.74.56-1.47,1.19-2.18,1.81a17.21,17.21,0,0,1-10.3,5.16c-.78.15-1.56.31-2.32.51-1.85.47-4.26,1.45-5.25,3.41a3.54,3.54,0,0,0,.07,3.06,2,2,0,0,0,1.45,1.17,5.41,5.41,0,0,0,2.09-.3L684,463.81l-7.46,12c-.71,1.14-1,2.15-.6,2.45s1.2.14,1.58.08c3.34-.52,6.7-1.2,10-2L689,476v1.51c0,1.85-1.14,3.22-2.16,4.44a5.73,5.73,0,0,0-1.64,2.8,2,2,0,0,0,.78,1.74,6.49,6.49,0,0,0,5.31,1c3.87-1,7.08-3.44,10.49-6.05.88-.68,1.77-1.36,2.66-2,13.83-10,30.25-14.33,45-11.78l1.91.33-1.16,1.55c-3.72,5-6,12-7.31,17a2.57,2.57,0,0,0-.06,1.7c.22.33.91.5,1.14.56,4.16,1,9.13-.47,13.64-4.1a62.68,62.68,0,0,0,6.87-6.86c1.31-1.46,2.68-3,4.11-4.39,9.84-9.74,23.23-15.27,35-20.14l43.83-18.08c5.55-2.29,11.84-4.88,15.91-9.72,2.81-3.34,4.49-14.88,5.61-22.52.46-3.15.86-5.88,1.26-7.65l2.31.52c-.38,1.68-.77,4.37-1.23,7.48-1.29,8.84-2.9,19.84-6.14,23.69-4.45,5.28-11,8-16.82,10.39l-43.82,18.08c-11.62,4.79-24.79,10.22-34.3,19.63-1.38,1.37-2.72,2.86-4,4.3a63.93,63.93,0,0,1-7.14,7.11C755.12,489.68,750.73,491.4,746.66,491.4Z"/><path class="cls-1" d="M328.72,423.4a33.15,33.15,0,0,1-2.38,5.71l3.92-5.71Z"/><path class="cls-2" d="M327.32,429.78l-2-1.22a30.26,30.26,0,0,0,2.29-5.51l.26-.84h4.66Z"/><path class="cls-1" d="M375.74,457.92v-5.23l-7.88,6.63,2.79-8-7.81,5.58,2.78-5.58-12,5.58,3.67-8-8,3.48L351,445l-5.85,4.53,1.42-6.27-7.05,3.48-1.1-5.23-12.21,10.81,7.35-18.83-7.35,3.84,4.12-6.28-6.85,2.39c-6.76,8.26-18.23,11.45-35,10.69,0,0-12.87-2.32-19.15,6.16s-13.6,14.08-15.17,14.55-3.67,11.2-3.67,11.2h9.42s8.63-2.95,11-5-7.59,9.46-9.68,10.5c0,0,6.54,1.57,11.25,2.36s19.09-1.57,23-7.85,16.48-14.39,21.19-16-12.45,5.85-15.12,18.49S306,495.68,306,495.68l6.34-5.48c2.19-7.29,10.65-6.56,17.93-8.8,19.93-6.13,37.41-18.09,55.87-27.87V449.9Z"/><path class="cls-2" d="M306.15,497.14l-.74-.45c-.32-.2-7.87-5-5.06-18.34A24.11,24.11,0,0,1,306.78,467c-4.23,3-8.42,6.59-10.34,9.67-4.23,6.77-19.26,9.21-24.22,8.39-4.69-.78-11.26-2.36-11.33-2.37l-3.15-.76,2.9-1.45c.8-.4,3.45-3.14,5.76-5.69-2.8,1.21-5.64,2.19-6.15,2.37l-.19.07H249l.27-1.42c2.23-11.42,3.87-11.92,4.48-12.1,1.09-.33,8.18-5.49,14.57-14.12s19-6.85,20.23-6.64c16.84.75,27.64-2.51,34-10.26l.21-.25,10.48-3.66-3.55,5.39,6.11-3.19-6.72,17.21,10.07-8.91,1.2,5.72,7.91-3.91L347,446.6l5.9-4.58-2,8.29,8.68-3.77L356,454.46l12.19-5.66L366,453.15l7-5-2.6,7.47,6.53-5.49v5.37l10.43-8v6.74l-.63.34c-5.07,2.68-10.16,5.58-15.08,8.39-13,7.42-26.43,15.08-41,19.56a56.15,56.15,0,0,1-5.85,1.36c-5.3,1-9.87,1.92-11.3,6.65l-.1.33Zm11.28-38.42a1.11,1.11,0,0,1,1.07.67c.49,1-.24,1.49-1.58,2.39-3.4,2.3-12.42,8.4-14.25,17.06-2,9.43,1.73,13.89,3.32,15.31l5.36-4.63c1.94-5.81,7.57-6.9,13-8a52.87,52.87,0,0,0,5.6-1.29c14.32-4.4,27.64-12,40.52-19.36l4.08-2.32v-3.35L365.33,463l3-8.57-8.66,6.18,3.4-6.81-11.86,5.5,3.71-8.13-7.36,3.21,1.51-6.36-5.8,4.49,1.59-7.07-6.19,3.06-1-4.73L323.3,456.48l8-20.46-8.6,4.49,4.71-7.17-3.24,1.13c-6.89,8.21-18.27,11.66-35.78,10.86l-.16,0c-.12,0-12.23-2.08-18,5.71-5.89,8-13.29,14-15.62,14.92-.68.79-1.86,5-2.71,8.94h7.76c2.48-.86,8.67-3.2,10.41-4.72a1.47,1.47,0,0,1,1.6-.44l.69.31,0,.77c0,1.15-5.49,7.13-8.68,10.13,2.32.53,6,1.32,8.9,1.81,4.54.75,18.31-1.68,21.82-7.31,4.12-6.58,17-14.83,21.82-16.45A4,4,0,0,1,317.43,458.72Zm-63,7.28ZM385,452.31l-2.21,1.7,2.21-1.19Z"/><path class="cls-1" d="M390.8,451.15c.66-.33,1.31-.67,2-1"/><path class="cls-2" d="M391.33,452.21l-1.07-2.12.64-.32,1.36-.68,1,2.13-1.32.66Z"/><path class="cls-1" d="M330.26,413.63l.3-.13c0-.12,0-.24,0-.36Z"/><path class="cls-2" d="M326.72,416.38l2.59-3.46s.12-.16.3-.44l2.6-3.93-.54,5.77Z"/><path class="cls-1" d="M326.19,423.4h2.53a45.44,45.44,0,0,0,1.14-4.79Z"/><path class="cls-2" d="M329.59,424.58h-5.8L332,413.94l-.93,4.89a43.66,43.66,0,0,1-1.17,4.91Z"/><path class="cls-1" d="M323.33,433.51l.13-.05a25.64,25.64,0,0,0,2.88-4.35Z"/><path class="cls-2" d="M320.32,435.81l5-7.37,2,1.23a26.5,26.5,0,0,1-3,4.54l-.21.26Z"/><path class="cls-1" d="M386.18,454.79l4.62-3.64q-2.32,1.17-4.62,2.38Z"/><path class="cls-2" d="M385,457.22v-4.4l.63-.34q2.31-1.22,4.64-2.39l10.46-5.24Z"/><path class="cls-1" d="M240.81,92.75c.4-14.28-1.56-38-1.15-52.32.13-4.83.26-9.72-.84-14.43A28.9,28.9,0,0,0,212.9,4.35C196,3.5,182.28,17.49,172.27,31.15A85.2,85.2,0,0,0,163.06,46c-5.66,12.48-5.91,26.82-3.78,40.36S165.77,113,169,126.3c1.59,6.5,2.81,13.79-.61,19.53"/><path class="cls-2" d="M169.44,146.44l-2-1.21c3.14-5.28,2.09-12.08.48-18.65-1.08-4.4-2.3-8.86-3.48-13.17a252.62,252.62,0,0,1-6.29-26.85c-2.52-16-1.21-29.82,3.87-41a87,87,0,0,1,9.33-15.08c14-19.07,27.61-28,41.65-27.28,12.55.64,24.16,10.34,27,22.56,1.14,4.89,1,9.89.86,14.73-.2,7.1.19,16.75.58,26.08s.78,19.06.57,26.25l-2.37-.07c.21-7.1-.19-16.75-.57-26.08s-.78-19.06-.58-26.25c.13-4.69.27-9.53-.8-14.12A27.73,27.73,0,0,0,212.84,5.54c-13.18-.68-26.15,7.94-39.62,26.31a85.42,85.42,0,0,0-9.08,14.66c-4.89,10.78-6.13,24.13-3.69,39.68a249.52,249.52,0,0,0,6.24,26.6c1.18,4.32,2.41,8.8,3.49,13.23C171.91,133.08,173,140.43,169.44,146.44Z"/><path class="cls-1" d="M765.59,455.65c-7.11,3.21-11.88,6.68-16.31,13.11"/><path class="cls-2" d="M750.26,469.43l-2-1.34c4.26-6.19,9-10,16.8-13.52l1,2.16C758.59,460.11,754.3,463.56,750.26,469.43Z"/><path class="cls-1" d="M744.47,454.41a109.56,109.56,0,0,1-17.25,4.29c-3,.41-6,.57-8.93,1.08-11.85,2-22.09,9.44-30.74,17.79"/><path class="cls-2" d="M688.37,478.42l-1.64-1.7c10.79-10.41,21-16.34,31.36-18.11,1.77-.3,3.57-.49,5.31-.67,1.22-.12,2.45-.25,3.66-.41a110.24,110.24,0,0,0,17.06-4.25l.69,2.26a111.89,111.89,0,0,1-17.43,4.34c-1.24.16-2.49.29-3.74.42-1.7.17-3.46.35-5.15.65C708.66,462.64,698.81,468.35,688.37,478.42Z"/><path class="cls-1" d="M723.54,451.13l-15.37,5a18.84,18.84,0,0,1-4.17,1c-1.33.11-2.67-.06-4,0-5,.2-9.31,3.45-13.25,6.55l-6,4.74c-.5.38-1,1-.8,1.54"/><path class="cls-2" d="M678.85,470.49c-.24-.57-.41-1.7,1.15-2.93l6-4.74c3.53-2.78,8.35-6.58,13.94-6.81.63,0,1.25,0,1.84,0,.74,0,1.43,0,2.11,0a18.24,18.24,0,0,0,3.9-1l15.37-5,.74,2.25-15.37,5a19.88,19.88,0,0,1-4.44,1.08,21.07,21.07,0,0,1-2.38,0c-.56,0-1.12,0-1.67,0-4.46.18-8.33,3-12.57,6.3l-6,4.74a1.39,1.39,0,0,0-.42.43.47.47,0,0,0,0-.28Z"/><path class="cls-3" d="M126.24,330.78s59.51-3.43,94.27,33c0,0-41.61-38-94.65-30.25"/><path class="cls-3" d="M125.59,334.26s57.42,12.92,88.55,43.41c0,0-37.62-33.15-89.09-41.88"/><path class="cls-3" d="M126.81,336.7s31.79,13.13,40.38,41.13c0,0-11.73-30.55-41.29-39.78"/><path class="cls-3" d="M127.38,341.75s20.32,21.7,17.07,46.79c0,0,1.69-28.23-18.26-46.06"/><path class="cls-4" d="M912.94,546s-1.33-1.4-1-2.07,1.27-1.52.27-1.65-47.62-2.94-47.62-2.94c-1.14,1.32-1.41,1.64-.56,2.77l.77.24s.21,1.44,1.28.62,44.46,4.88,44.93,4.25A5.85,5.85,0,0,1,912.94,546Z"/><path class="cls-1" d="M910.49,547.59c-1.51,0-5.86-.44-19.13-1.94-10.73-1.2-24.08-2.71-25.09-2.38a1.09,1.09,0,0,1-1.09.23,1.32,1.32,0,0,1-.68-.9l-.68-.21-.08-.09c-1-1.38-.55-1.93.58-3.24l.13-.15.18,0c1.91.11,46.66,2.8,47.65,2.94a.83.83,0,0,1,.72.44c.19.41-.12.86-.41,1.29a5.11,5.11,0,0,0-.3.46c-.12.25.39,1.07.93,1.64l.38.4-.51.21a5.28,5.28,0,0,0-1.76,1.09C911.25,547.51,911.12,547.59,910.49,547.59ZM867,542.49c2.54,0,9.57.74,24.44,2.41,8.95,1,18.19,2,19.37,2a5.33,5.33,0,0,1,1.51-1c-.45-.55-1-1.45-.7-2.1.09-.17.22-.36.34-.55a2.91,2.91,0,0,0,.33-.54l-.11,0c-.77-.1-31.23-2-47.41-2.92-1,1.12-1,1.28-.49,2.06l.88.27,0,.23c0,.19.14.5.27.55s.23,0,.4-.17A2.51,2.51,0,0,1,867,542.49Z"/><path class="cls-4" d="M958.72,550.68s-1.71-1.79-1.26-2.65,1.62-1.94.35-2.12-45.87-3.76-45.87-3.76c-1.47,1.69-1.81,2.09-.73,3.54l1,.31s.26,1.85,1.63.8,41.82,6.25,42.42,5.44A7.7,7.7,0,0,1,958.72,550.68Z"/><path class="cls-1" d="M955.78,552.78c-1.47,0-5.56-.56-17.93-2.47-9.54-1.47-22.62-3.49-23.77-3.09a1.39,1.39,0,0,1-1.42.3,1.67,1.67,0,0,1-.86-1.14l-.88-.27-.09-.13c-1.32-1.76-.72-2.46.74-4.15l.16-.19.25,0c1.82.14,44.62,3.59,45.89,3.76a1.07,1.07,0,0,1,.92.57c.24.53-.15,1.1-.53,1.65-.13.2-.27.41-.37.6s.49,1.37,1.18,2.1l.49.51-.66.27a6.92,6.92,0,0,0-2.25,1.4C956.55,552.68,956.4,552.78,955.78,552.78Zm-41-6.55c2.53,0,9.21.95,23.27,3.12,7.84,1.21,16.68,2.54,18,2.47a6.85,6.85,0,0,1,1.94-1.31c-.57-.71-1.32-1.87-.89-2.7a6,6,0,0,1,.43-.7,4.91,4.91,0,0,0,.42-.69l-.14,0c-1.2-.16-42-3.45-45.6-3.74-1.23,1.43-1.35,1.64-.63,2.63l1.14.35,0,.3c0,.24.18.63.34.7s.3,0,.52-.21A2.29,2.29,0,0,1,914.73,546.23Z"/><path class="cls-4" d="M1004.47,555.56s-1.7-1.78-1.26-2.65,1.62-1.94.35-2.11-45.63-5-45.63-5c-1.46,1.7-2,3.31-1,4.76l1,.3s.94,2.68,2.31,1.63,41.14,5.42,41.75,4.62A7.49,7.49,0,0,1,1004.47,555.56Z"/><path class="cls-1" d="M1001.43,557.67c-1.53,0-5.66-.5-17.58-2.12-9.37-1.28-22.2-3-23.34-2.62a1.36,1.36,0,0,1-1.26.25c-.88-.26-1.44-1.39-1.65-1.9l-.93-.29-.09-.12c-1.13-1.53-.81-3.28,1-5.36l.16-.2.26,0c1.81.2,44.37,4.8,45.64,5a1.07,1.07,0,0,1,.92.56c.23.53-.16,1.1-.53,1.65a6,6,0,0,0-.38.61c-.16.31.49,1.36,1.18,2.09l.49.51-.65.27a6.6,6.6,0,0,0-2.25,1.41C1002.29,557.57,1002.14,557.67,1001.43,557.67Zm-40.1-5.74c2.62,0,9.18.82,22.65,2.66,7.75,1,16.51,2.24,17.75,2.12a6.59,6.59,0,0,1,1.95-1.32c-.58-.71-1.33-1.87-.9-2.7a7.19,7.19,0,0,1,.44-.7,4.3,4.3,0,0,0,.41-.69l-.13,0c-1.21-.17-41.73-4.56-45.36-4.95-1.65,2-1.34,3.14-.87,3.83l1.07.33.08.23c.16.44.63,1.39,1.11,1.53a.47.47,0,0,0,.45-.12A2.68,2.68,0,0,1,961.33,551.93Z"/><path class="cls-4" d="M1038.46,560.79s-1.7-1.78-1.26-2.65,1.63-1.94.35-2.11l-36.15-5c-1.46,1.7-2,3.31-1,4.76l1,.3s.94,2.68,2.31,1.63,31.67,5.42,32.27,4.62A7.49,7.49,0,0,1,1038.46,560.79Z"/><path class="cls-1" d="M1035.54,562.9c-1.29,0-4.56-.53-13.45-2.11-7.21-1.28-17.07-3-18.1-2.64a1.37,1.37,0,0,1-1.27.26c-.88-.26-1.44-1.39-1.65-1.9l-.93-.29-.09-.12c-1.14-1.53-.81-3.28,1-5.36l.17-.2.26,0,36.15,5a1.07,1.07,0,0,1,.92.56c.23.53-.16,1.1-.53,1.66a5,5,0,0,0-.38.6c-.16.31.49,1.36,1.18,2.09l.49.51-.65.27a6.7,6.7,0,0,0-2.25,1.41C1036.28,562.8,1036.09,562.9,1035.54,562.9Zm-30.94-5.75c2.13,0,7.23.84,17.65,2.69,5.82,1,12.4,2.18,13.47,2.1a6.59,6.59,0,0,1,2-1.32c-.58-.71-1.33-1.87-.9-2.7a7.19,7.19,0,0,1,.44-.7,4.3,4.3,0,0,0,.41-.69l-.13,0-35.89-4.94c-1.64,2-1.33,3.13-.87,3.82l1.08.33.08.23c.15.44.63,1.39,1.11,1.53a.48.48,0,0,0,.45-.12A2,2,0,0,1,1004.6,557.15Z"/><path class="cls-4" d="M1071.15,566.18s-2-2.12-1.5-3.14,1.93-2.3.42-2.51-33.53-5.45-33.53-5.45c-1.73,2-2.42,3.91-1.14,5.63l1.18.36s1.11,3.17,2.73,1.93,28.21,6,28.93,5A8.78,8.78,0,0,1,1071.15,566.18Z"/><path class="cls-1" d="M1067.79,568.69c-1.23,0-4.17-.59-11.92-2.3-6-1.34-15.17-3.37-16.24-2.91a1.66,1.66,0,0,1-1.53.32c-1-.32-1.71-1.66-2-2.26l-1.09-.33-.11-.15c-1.35-1.81-1-3.88,1.17-6.35l.21-.25.31,0c.33.06,32,5.25,33.51,5.46a1.26,1.26,0,0,1,1.09.66c.28.63-.18,1.31-.62,2a6.48,6.48,0,0,0-.45.72c-.19.37.58,1.61,1.4,2.48l.58.6-.78.32a8,8,0,0,0-2.66,1.66C1068.55,568.57,1068.35,568.69,1067.79,568.69Zm-27.58-6.4c2.07,0,6.68.93,15.9,3,5,1.11,10.69,2.36,11.78,2.28a7.82,7.82,0,0,1,2.31-1.57c-.68-.85-1.56-2.22-1.06-3.2.14-.26.33-.55.52-.83a5.7,5.7,0,0,0,.49-.82l-.16,0c-1.44-.19-29.67-4.82-33.22-5.4-1.94,2.36-1.57,3.7-1,4.52l1.27.39.1.27c.18.52.74,1.65,1.31,1.82a.6.6,0,0,0,.54-.15A2.09,2.09,0,0,1,1040.21,562.29Z"/><path class="cls-4" d="M1113.82,570.41s-2.51-2.63-1.86-3.9,2.39-2.86.52-3.11-40.46-3.83-40.46-3.83c-2.15,2.49-3,4.86-1.43,7l1.47.45s1.37,3.93,3.39,2.39,33.88,4.49,34.76,3.3S1113.82,570.41,1113.82,570.41Z"/><path class="cls-1" d="M1109.2,573.57c-1.75,0-5.49-.46-14-1.66-7.21-1-18.1-2.54-19.34-1.92a2.07,2.07,0,0,1-1.91.4c-1.29-.39-2.12-2-2.43-2.8l-1.36-.42L1070,567c-1.66-2.24-1.19-4.82,1.46-7.88l.24-.28.36,0c1.58.15,38.63,3.58,40.49,3.83a1.61,1.61,0,0,1,1.36.83c.35.78-.23,1.62-.78,2.44a6.9,6.9,0,0,0-.55.88c-.24.46.72,2,1.74,3.08l.71.75-1,.4a10,10,0,0,0-3.31,2.06C1110.58,573.4,1110.25,573.57,1109.2,573.57Zm-31.85-5.12c3,0,8.83.76,18.05,2,5.85.83,13.08,1.84,14.36,1.63a9.8,9.8,0,0,1,2.89-2c-.85-1-1.94-2.74-1.32-4a9.25,9.25,0,0,1,.64-1,6.37,6.37,0,0,0,.61-1l-.2,0c-1.74-.23-36.09-3.42-40.06-3.79-2.43,3-2,4.62-1.29,5.64l1.58.48.12.34c.23.65.92,2,1.63,2.25.14.05.34.06.66-.18A4.32,4.32,0,0,1,1077.35,568.45Z"/><path class="cls-4" d="M1150.21,569.68s-2.84-2.28-2.36-3.61,2-3.16.1-3.16-35.92.93-35.92.93c-1.8,2.75-2.34,5.21-.48,7.11l1.51.25s1.88,3.72,3.68,1.93,29.47.6,30.19-.7S1150.21,569.68,1150.21,569.68Z"/><path class="cls-1" d="M1115.7,574.33a1.58,1.58,0,0,1-.32,0c-1.33-.21-2.37-1.75-2.78-2.45l-1.4-.23-.16-.17c-2-2-1.82-4.61.4-8l.2-.31h.37c1.39,0,33.92-.93,35.93-.93h0a1.58,1.58,0,0,1,1.45.64c.45.72,0,1.63-.45,2.51-.16.33-.33.67-.43.95-.17.49,1,1.9,2.13,2.82l.81.66-.9.52a10,10,0,0,0-3,2.48c-.47.84-2.23.92-13.51.58-6.27-.19-15.75-.47-16.81.29A2.15,2.15,0,0,1,1115.7,574.33Zm-3.8-4,1.63.27.16.32c.31.61,1.19,1.9,1.92,2a.71.71,0,0,0,.63-.27c1.07-1.07,6.53-1,17.85-.69,5,.15,11.19.33,12.31,0a9.83,9.83,0,0,1,2.61-2.35c-1-.92-2.29-2.46-1.83-3.75a10,10,0,0,1,.5-1.11,6.52,6.52,0,0,0,.47-1.09h-.21c-1.87,0-31.79.82-35.51.92C1110.42,567.78,1111.09,569.37,1111.9,570.29Z"/><path class="cls-4" d="M1193.26,568.72s-3.52-2.82-2.93-4.49,2.47-3.92.12-3.92-44.63,1.16-44.63,1.16c-2.24,3.42-2.91,6.47-.61,8.84l1.88.31s2.34,4.62,4.58,2.39,36.62.74,37.52-.87S1193.26,568.72,1193.26,568.72Z"/><path class="cls-1" d="M1150.37,574.5a2.38,2.38,0,0,1-.39,0c-1.66-.27-3-2.18-3.46-3.05l-1.74-.29-.2-.2c-2.42-2.49-2.26-5.74.5-9.95l.25-.39h.46c1.73-.05,42.18-1.15,44.65-1.15h0a2,2,0,0,1,1.81.79c.55.9,0,2-.56,3.13-.2.41-.41.82-.54,1.18-.22.61,1.22,2.35,2.65,3.5l1,.82-1.12.64c-.83.47-3.11,2-3.74,3.08s-2.78,1.15-16.79.73c-7.79-.24-19.57-.59-20.9.36A2.64,2.64,0,0,1,1150.37,574.5Zm-4.71-5,2,.34.2.4c.39.75,1.47,2.36,2.38,2.5.18,0,.43,0,.78-.34,1.34-1.33,8.11-1.27,22.18-.85,6.22.19,13.92.42,15.31,0a12,12,0,0,1,3.24-2.92c-1.21-1.15-2.84-3.06-2.28-4.66a13.07,13.07,0,0,1,.63-1.38,8.7,8.7,0,0,0,.58-1.35c-.06,0-.14,0-.26,0-2.3,0-39.5,1-44.13,1.15C1143.81,566.36,1144.64,568.34,1145.66,569.48Z"/><path class="cls-4" d="M1235.94,556.45s-4.1-1.88-3.94-3.64,1.44-4.41-.84-3.84-43,12-43,12c-1.33,3.86-1.23,7,1.58,8.72l1.9-.16s3.4,3.91,5,1.2,35.69-8.23,36.17-10S1235.94,556.45,1235.94,556.45Z"/><path class="cls-1" d="M1195.15,572.61c-1.6,0-3.19-1.43-3.87-2.12l-1.75.14-.25-.15c-3-1.82-3.59-5-2-9.76l.15-.44.44-.13c1.67-.46,40.76-11.47,43-12a2,2,0,0,1,1.94.33c.76.74.49,2,.23,3.17a12.1,12.1,0,0,0-.24,1.27c-.06.65,1.76,2,3.43,2.75l1.18.54-.94.9c-.68.66-2.53,2.65-2.87,3.91s-2.41,1.78-16.1,4.8c-7.61,1.68-19.12,4.22-20.18,5.46a2.57,2.57,0,0,1-2,1.35Zm-3.14-4,.3.34c.55.64,2,1.91,2.91,1.85.18,0,.42-.09.68-.52,1-1.62,7.56-3.23,21.3-6.26,6.08-1.34,13.59-3,14.84-3.75a11.81,11.81,0,0,1,2.43-3.62c-1.46-.81-3.51-2.27-3.35-4a13.19,13.19,0,0,1,.27-1.48,9.7,9.7,0,0,0,.24-1.45,1.41,1.41,0,0,0-.25,0c-2.11.53-38.06,10.64-42.52,11.9-1.45,4.51-.15,6.22,1.11,7.09Z"/><path class="cls-4" d="M1121.48,384.46s4.92,6.13,3.66,8.71-4.65,5.64-1,6.56,37.58,6.54,37.58,6.54c4.18-4.89,5.85-9.78,2.73-14.66l-2.87-1.26s-2.71-8.69-6.65-5.8-24.7-6.64-26.42-4.27S1121.48,384.46,1121.48,384.46Z"/><path class="cls-1" d="M1162.2,407.55l-.66-.11c-1.39-.23-34-5.64-37.68-6.56a3.18,3.18,0,0,1-2.38-1.77c-.58-1.5.48-3.11,1.51-4.67a17.92,17.92,0,0,0,1.09-1.79c.55-1.14-1.37-4.77-3.52-7.45l-1-1.31,1.59-.55c1.38-.47,5.24-2.08,6.46-3.76s4.62-.77,12.17,1.45c5.12,1.5,12.85,3.77,14.51,2.56a3.62,3.62,0,0,1,3.39-.64c2.69.89,4.37,5,4.92,6.53l2.71,1.19.2.3c3.14,4.92,2.21,10.17-2.83,16.07Zm-38.51-9.3s.13.17.75.33c3.29.82,32,5.62,36.81,6.41,3.86-4.72,4.63-8.69,2.4-12.45l-3-1.32-.16-.51c-.49-1.58-2-5-3.57-5.51a1.29,1.29,0,0,0-1.25.3c-2.43,1.78-8.14.28-16.58-2.2-3.61-1.06-8.52-2.52-9.68-2.2-1.37,1.77-4.22,3.16-6,3.9,1.55,2.18,4,6.25,2.84,8.69a18.55,18.55,0,0,1-1.25,2.06c-.45.68-1.39,2.11-1.27,2.5Z"/><path class="cls-4" d="M1229.41,406.81s4.23,6.62,2.7,9.05-5.23,5.11-1.68,6.42,36.66,10.53,36.66,10.53c4.68-4.42,6.86-9.1,4.28-14.29l-2.71-1.55s-1.77-8.93-6-6.49-23.84-9.24-25.81-7.07S1229.41,406.81,1229.41,406.81Z"/><path class="cls-1" d="M1267.41,434.13l-.64-.18c-1.36-.37-33.21-9.25-36.75-10.56a3.13,3.13,0,0,1-2.18-2c-.42-1.55.81-3,2-4.47a15.88,15.88,0,0,0,1.28-1.67c.67-1.07-.85-4.89-2.7-7.78l-.91-1.42,1.65-.37c1.42-.33,5.43-1.51,6.83-3.05s4.67-.27,11.94,2.74c4.92,2,12.37,5.14,14.15,4.11a3.6,3.6,0,0,1,3.44-.27c2.58,1.16,3.81,5.43,4.19,7l2.57,1.47.16.33c2.6,5.22,1.11,10.35-4.53,15.67Zm-37.29-13.37a1.61,1.61,0,0,0,.72.41c3.18,1.17,31.25,9,35.91,10.32,4.34-4.28,5.53-8.15,3.71-12.12l-2.86-1.64-.11-.53c-.32-1.62-1.47-5.18-3-5.86a1.29,1.29,0,0,0-1.27.17c-2.61,1.5-8.13-.59-16.25-4-3.48-1.44-8.21-3.4-9.39-3.22-1.55,1.61-4.54,2.69-6.39,3.24,1.31,2.32,3.33,6.64,1.88,8.93a18.59,18.59,0,0,1-1.45,1.92c-.52.63-1.61,1.95-1.54,2.35Z"/><path class="cls-4" d="M1187.2,397.44s7.62,5.88,6.25,8.4-4.9,5.43-1.28,6.51,37.25,8.22,37.25,8.22c4.39-4.7,6.27-9.51,3.38-14.53l-2.81-1.38s-2.32-8.8-6.38-6.1-24.38-7.73-26.21-5.45a53.48,53.48,0,0,1-5.84-1.6c-1-.53-4-2.62-5.75.69A3.91,3.91,0,0,0,1187.2,397.44Z"/><path class="cls-1" d="M1229.82,421.87l-.65-.14c-1.38-.29-33.72-7.16-37.34-8.25a3.12,3.12,0,0,1-2.3-1.87c-.52-1.52.62-3.08,1.71-4.59a17.2,17.2,0,0,0,1.17-1.75c.4-.73-2.13-3.95-5.89-6.86a5,5,0,0,1-1.76-6.76,4.35,4.35,0,0,1,2.56-2.3c1.78-.54,3.52.41,4.45.92l.32.18a43,43,0,0,0,5.07,1.39c1.65-.76,5,.33,11.41,2.53,5,1.73,12.66,4.35,14.38,3.21a3.6,3.6,0,0,1,3.41-.49c2.65,1,4.15,5.18,4.63,6.74l2.66,1.31.18.31c2.91,5.05,1.75,10.26-3.55,15.93Zm-38-11s.12.18.74.37c3.25,1,31.75,7,36.49,8,4.06-4.54,5-8.48,3-12.33l-3-1.45-.14-.53c-.43-1.59-1.8-5.08-3.33-5.65a1.24,1.24,0,0,0-1.26.24c-2.5,1.67-8.14-.08-16.46-2.94-3.55-1.22-8.38-2.88-9.57-2.63l-.36.45-.73-.16a48.52,48.52,0,0,1-6.11-1.7l-.4-.22a4,4,0,0,0-2.63-.73,2.07,2.07,0,0,0-1.15,1.14,2.67,2.67,0,0,0,1,3.67l.1.07c2.53,1.95,8.24,6.83,6.56,9.91a19.27,19.27,0,0,1-1.33,2c-.48.67-1.49,2-1.39,2.44Z"/><path class="cls-4" d="M1279.39,528.39s-4.9-.69-5.28-2.59.13-5.08-2.08-3.76-41.42,26.13-41.42,26.13c-.19,4.48.89,7.74,4.39,8.67l2-.76s4.8,3,5.65-.31,34.93-19.85,34.88-21.87S1279.39,528.39,1279.39,528.39Z"/><path class="cls-1" d="M1240.6,558.31a8.56,8.56,0,0,1-3.74-1.15l-1.8.7-.31-.08c-3.67-1-5.34-4.14-5.11-9.65l0-.51.43-.27c1.6-1,39.24-24.84,41.44-26.15a2.19,2.19,0,0,1,2.15-.26c1,.54,1.13,1.92,1.23,3.26a11.1,11.1,0,0,0,.15,1.41c.14.7,2.47,1.54,4.47,1.82l1.41.2-.7,1.24c-.52.9-1.84,3.57-1.79,5s-2,2.64-15.42,10.1c-7.48,4.16-18.78,10.43-19.5,12.07a2.82,2.82,0,0,1-1.7,2.05A3.23,3.23,0,0,1,1240.6,558.31Zm-3.55-3.31.42.26c.78.5,2.71,1.4,3.64,1,.19-.08.42-.23.56-.76.51-2,6.92-5.76,20.42-13.25,6-3.32,13.34-7.42,14.42-8.6a12.78,12.78,0,0,1,1.42-4.57c-1.8-.4-4.41-1.29-4.77-3.12a12.42,12.42,0,0,1-.19-1.65,9.19,9.19,0,0,0-.2-1.6l-.25.13c-2,1.22-36.65,23.12-41,25.85-.1,5.19,1.8,6.58,3.4,7.1Z"/><path class="cls-4" d="M1306,491.43s-5.91,1.27-7.14-.75-2-5.88-4-3.45S1269,521.46,1269,521.46c1.66,5.21,4.27,8.49,8.67,8.09l1.91-1.69s6.78,1.48,6.36-2.73,21.11-24.29,20.2-26.58S1306,491.43,1306,491.43Z"/><path class="cls-1" d="M1276.94,530.77c-4.17,0-7.14-2.94-9.06-9l-.19-.58.37-.49c1-1.3,24-31.83,26-34.25a2.63,2.63,0,0,1,2.35-1.2c1.41.18,2.1,1.72,2.78,3.22a16,16,0,0,0,.77,1.55c.45.75,3.48.73,5.88.21l1.7-.36-.29,1.71c-.2,1.26-.6,4.87,0,6.49s-1.23,3.87-8.79,12.3c-4.29,4.79-11.48,12.81-11.34,14.61a3.45,3.45,0,0,1-1.09,3.1c-1.68,1.5-4.75,1.22-6.08,1l-1.77,1.57-.39,0A8.19,8.19,0,0,1,1276.94,530.77Zm-6.61-9.1c2.06,6,4.81,6.82,6.87,6.73l2.06-1.82.58.13c1.11.23,3.7.46,4.61-.35a1.17,1.17,0,0,0,.32-1.11c-.27-2.61,4.33-8,11.93-16.42,3.48-3.89,7.8-8.7,8.27-10.07a15.46,15.46,0,0,1-.31-5.89c-2.22.29-5.59.37-6.78-1.58a18,18,0,0,1-.9-1.81,10.4,10.4,0,0,0-.91-1.74,2.84,2.84,0,0,0-.23.24C1294,490.21,1273.38,517.63,1270.33,521.67Z"/><path class="cls-4" d="M1298.64,445s-3.25,5.09-5.55,4.55-5.58-2.71-5.24.41S1294,492.4,1294,492.4c4.88,2.48,9,2.92,11.86-.49l.14-2.55s5.8-3.79,2.51-6.44-2.48-32.09-4.75-33.05S1298.64,445,1298.64,445Z"/><path class="cls-1" d="M1300.76,495.56a16.48,16.48,0,0,1-7.26-2.1l-.55-.28-.09-.6c-.24-1.61-5.85-39.41-6.19-42.53a2.63,2.63,0,0,1,.8-2.52c1.12-.87,2.7-.28,4.24.29a14.3,14.3,0,0,0,1.65.54c.83.21,3-2,4.28-4l.93-1.46,1,1.4c.75,1,3.05,3.84,4.66,4.52s1.89,3.59,2.59,14.89c.39,6.43,1.06,17.17,2.44,18.33a3.48,3.48,0,0,1,1.45,3c-.11,2.24-2.47,4.24-3.55,5l-.13,2.36-.25.3A7.45,7.45,0,0,1,1300.76,495.56Zm-5.65-3.94c5.73,2.74,8.24,1.34,9.62-.18l.15-2.74.5-.33c.95-.62,2.93-2.31,3-3.53,0-.24,0-.57-.56-1-2-1.64-2.62-8.66-3.33-20-.32-5.21-.72-11.66-1.36-13a15.55,15.55,0,0,1-4.42-3.91c-1.35,1.79-3.66,4.23-5.87,3.72a18.08,18.08,0,0,1-1.93-.63,10.7,10.7,0,0,0-1.88-.58,2.38,2.38,0,0,0,0,.34C1289.34,452.65,1294.37,486.6,1295.11,491.62Z"/><path class="cls-4" d="M1271.51,419.68s1.12,6.76-.94,8.18-5.93,2.3-3.54,4.56,25.76,21,25.76,21c5.26-1.94,8.61-4.94,8.32-10l-1.64-2.18s1.64-7.76-2.58-7.25-15.94-15.57-18.25-14.5S1271.51,419.68,1271.51,419.68Z"/><path class="cls-1" d="M1292.57,454.76l-.53-.42c-1-.76-23.43-18.79-25.83-21.06a2.87,2.87,0,0,1-1.1-2.49c.21-1.46,1.73-2.25,3.21-3a12.89,12.89,0,0,0,1.58-.89c.84-.58.91-4.16.44-7l-.28-1.66,1.66.3c1.24.22,4.81.65,6.43-.09s3.95,1.36,8.79,6.32c3,3.1,8.15,8.28,9.81,8.09a3.3,3.3,0,0,1,3,1c1.68,1.84,1.25,5.65,1,7.12l1.55,2,0,.36c.29,5.15-2.69,8.8-9.11,11.16Zm-25.11-23.63a3.74,3.74,0,0,0,.38.43c2.13,2,21.67,17.71,25.16,20.51,4.79-1.9,7-4.53,6.94-8.21l-1.74-2.31.11-.53c.37-1.76.51-4.65-.33-5.57a1,1,0,0,0-.94-.26c-2.67.32-6.41-3.27-11.79-8.79-2.23-2.28-5.26-5.38-6.3-5.74a13.79,13.79,0,0,1-6.06.41c.25,2.47.31,6.41-1.64,7.76a15.68,15.68,0,0,1-1.84,1.05A6.76,6.76,0,0,0,1267.46,431.13Z"/><path class="cls-4" d="M1095,378.19s4.23,6.62,2.7,9.05-5.23,5.11-1.68,6.41,25,5.16,25,5.16c4.69-4.42,6.86-9.1,4.29-14.29l-2.72-1.55s-1.76-8.94-6-6.49-12.14-3.86-14.11-1.7S1095,378.19,1095,378.19Z"/><path class="cls-1" d="M1121.3,400.08l-.59-.11c-.87-.15-21.56-3.88-25.15-5.2a3.15,3.15,0,0,1-2.18-2c-.42-1.55.81-3,2-4.47a18.27,18.27,0,0,0,1.28-1.67c.67-1.08-.85-4.89-2.7-7.78l-.91-1.42,1.64-.38c1.43-.32,5.44-1.5,6.84-3s3.93-.67,6.82.39c2.71,1,5.77,2.12,7.57,1.07a3.63,3.63,0,0,1,3.44-.27c2.58,1.17,3.81,5.44,4.19,7l2.57,1.47.16.32c2.59,5.23,1.11,10.35-4.53,15.68Zm-25.64-7.95a1.5,1.5,0,0,0,.72.41c2.65,1,16.62,3.63,24.16,5,4.38-4.3,5.58-8.19,3.76-12.18l-2.86-1.63-.11-.53c-.32-1.62-1.47-5.18-3-5.86a1.28,1.28,0,0,0-1.27.16c-2.77,1.6-6.38.28-9.57-.9-1.27-.46-3.9-1.43-4.26-1-1.52,1.67-4.6,2.79-6.5,3.35,1.3,2.33,3.32,6.65,1.88,8.94a19.62,19.62,0,0,1-1.45,1.91c-.52.64-1.61,2-1.54,2.35Z"/><path class="cls-4" d="M1063.84,370.23s4.8,7.52,3.07,10.27-5.93,5.8-1.91,7.28,28.32,5.86,28.32,5.86c5.32-5,7.79-10.33,4.87-16.22l-3.08-1.76s-2-10.14-6.8-7.37-13.79-4.38-16-1.92S1063.84,370.23,1063.84,370.23Z"/><path class="cls-1" d="M1093.7,394.91l-.59-.11c-1-.18-24.45-4.4-28.52-5.9a3.43,3.43,0,0,1-2.38-2.18c-.45-1.68.92-3.34,2.24-4.94a19.08,19.08,0,0,0,1.46-1.91c.91-1.44-1.29-6.22-3.07-9l-.9-1.42,1.64-.37c1.63-.37,6.22-1.73,7.84-3.51s4.34-.69,7.57.49,6.61,2.43,8.72,1.21a3.94,3.94,0,0,1,3.76-.3c2.9,1.31,4.28,6.2,4.68,7.92l2.94,1.68.16.32c2.91,5.86,1.23,11.62-5.11,17.61Zm-28-23.93c1.46,2.57,3.87,7.56,2.24,10.15a20.49,20.49,0,0,1-1.64,2.16c-.71.87-1.9,2.31-1.77,2.81,0,.09.25.33.91.57,3.53,1.31,23.79,5,27.53,5.69,5.09-5,6.48-9.47,4.34-14.1l-3.23-1.84-.11-.53c-.44-2.21-1.76-6-3.45-6.77a1.63,1.63,0,0,0-1.59.2c-3.07,1.78-7.14.28-10.73-1-1.79-.67-4.51-1.67-5-1.13C1071.42,369.09,1067.79,370.37,1065.67,371Z"/><path class="cls-4" d="M1031.79,360.72s5.15,8.68,3.51,11.73-5.78,6.32-1.66,8.16,28.89,7.72,28.89,7.72c5.18-5.46,7.47-11.38,4.29-18.15l-3.19-2.11s-2.43-11.54-7.17-8.59-14.11-5.49-16.27-2.81S1031.79,360.72,1031.79,360.72Z"/><path class="cls-1" d="M1062.92,389.64l-.66-.16c-1-.24-24.92-5.93-29.1-7.79a3.83,3.83,0,0,1-2.37-2.4c-.48-1.79.81-3.57,2.06-5.3a19.63,19.63,0,0,0,1.4-2.1c.91-1.68-1.54-7.3-3.48-10.57l-.84-1.41,1.61-.35c1.62-.35,6.17-1.69,7.72-3.63s4.46-.66,7.8.82c3,1.33,6.75,3,8.78,1.72a3.74,3.74,0,0,1,3.56-.37c3.19,1.37,4.84,7.37,5.28,9.24l3.07,2,.14.3c3.12,6.62,1.64,13-4.5,19.47Zm-29.34-28.16c1.54,2.85,4.29,8.68,2.76,11.53a22.6,22.6,0,0,1-1.57,2.37c-.84,1.16-1.88,2.6-1.7,3.29.1.38.71.7,1.06.86,3.6,1.6,24,6.53,28,7.49,5-5.48,6.19-10.6,3.75-16l-3.31-2.19-.1-.48c-.57-2.68-2.15-7.24-4-8a1.38,1.38,0,0,0-1.37.2c-3.1,1.93-7.29.07-11-1.57-1.59-.7-4.56-2-5-1.49C1039.39,359.56,1035.71,360.87,1033.58,361.48Z"/><path class="cls-4" d="M1004.05,352.51s5.15,8.68,3.51,11.73-5.78,6.33-1.66,8.16c2.9,1.29,16,4.58,23.52,6.42a5.48,5.48,0,0,0,6.64-4.07l2.14-9.05a5.48,5.48,0,0,0-2.31-5.84h0s-2.43-11.54-7.17-8.59-14.11-5.49-16.27-2.8S1004.05,352.51,1004.05,352.51Z"/><path class="cls-1" d="M1030.73,380.17a6.81,6.81,0,0,1-1.6-.2c-9.25-2.26-20.88-5.23-23.71-6.49a3.85,3.85,0,0,1-2.38-2.4c-.47-1.78.82-3.57,2.07-5.29a20.77,20.77,0,0,0,1.4-2.11c.91-1.68-1.54-7.29-3.48-10.56l-.84-1.42,1.61-.35c1.62-.35,6.17-1.69,7.72-3.62s4.46-.67,7.8.81c3,1.33,6.75,3,8.78,1.73a3.71,3.71,0,0,1,3.56-.37c3.2,1.37,4.85,7.43,5.29,9.27a6.7,6.7,0,0,1,2.4,6.8l-2.14,9.06a6.67,6.67,0,0,1-6.48,5.14Zm-24.89-26.89c1.54,2.84,4.29,8.68,2.76,11.52a23.82,23.82,0,0,1-1.57,2.38c-.84,1.15-1.88,2.59-1.7,3.29.1.38.71.69,1.06.85,2.05.91,10.55,3.23,23.31,6.35a4.24,4.24,0,0,0,3.26-.5,4.31,4.31,0,0,0,2-2.69l2.14-9.05a4.33,4.33,0,0,0-1.81-4.58l-.41-.27-.1-.47c-.57-2.69-2.15-7.24-4-8a1.33,1.33,0,0,0-1.37.2c-3.1,1.93-7.29.07-11-1.57-1.59-.71-4.56-2-5-1.5C1011.65,351.35,1008,352.67,1005.84,353.28Z"/><path class="cls-5" d="M987.94,344.28A3.52,3.52,0,0,0,986,349c1.28,2.76,2.58,6.38,1.63,8.13-1.64,3.05-5.77,6.33-1.65,8.16,2.92,1.3,12.21,4.26,17.4,5.89a3.53,3.53,0,0,0,4.48-2.56l2.85-12.08a3.51,3.51,0,0,0-1.48-3.74h0a3.5,3.5,0,0,1-1.44-2c-.79-2.88-3.1-9.71-6.87-7.36-4.74,2.95-6.23-4.78-8.39-2.09A11.43,11.43,0,0,1,987.94,344.28Z"/><path class="cls-6" d="M1190.64,409.65s-3.26,4.34-6.4,0-.87-13.4,1-14.62,5.5,1.27,5.5,1.27S1198.1,404.75,1190.64,409.65Z"/><path class="cls-1" d="M1187.29,412.77h0a5,5,0,0,1-4-2.42c-2.43-3.35-1.8-8.37-1.42-10.37.44-2.3,1.4-5.07,2.79-6,2.51-1.6,6.37,1,6.8,1.3l.22.2c.17.19,4.08,4.77,3.43,9.5a7.85,7.85,0,0,1-3.65,5.51A5.84,5.84,0,0,1,1187.29,412.77Zm-.72-16.9a1.18,1.18,0,0,0-.65.16c-.35.22-1.23,1.74-1.73,4.4-.68,3.53-.3,6.72,1,8.53a2.81,2.81,0,0,0,2.08,1.44h0a3.71,3.71,0,0,0,2.41-1.46l.12-.16.17-.11a5.59,5.59,0,0,0,2.76-3.95c.47-3.32-2.24-6.87-2.78-7.53A7.51,7.51,0,0,0,1186.57,395.87Z"/><ellipse class="cls-4" cx="1187.33" cy="402.32" rx="1" ry="1.92"/><path class="cls-6" d="M939.93,291.29c-2-18.87-5.21-40.9-14.84-57.38-17.57-30.07-37.34-49.79-69.59-62.23s-69.63-4.12-102.61-1.15c-29.54,2.66-68.84,3-95.29-7.54-15.1-6-30.31-12.42-45-18.92A142,142,0,0,1,589.5,131c11.68-10.74-15.56-28.73-25.57-21.94-14.07,9.54,9.16,39.27,21.69,25.1,7.52,8.7,15.27,17.16,25.37,22.78,15.91,8.87,34.15,12.36,51.92,19.11,8.81,3.34,15,4,24,5.55,8.64,1.5,12,5.49,20.33,7.42,18.11,4.22,33.33-4.3,49-6.83,31.63-5.11,67.12-6.7,98,2.49,17.48,5.2,32.42,11.2,41.42,27.65,7,12.81,13.42,27.93,20.21,41.68C930.81,284.18,901,350.14,901,382.38l19.72-6.16C927.43,369.8,941.08,302.24,939.93,291.29Z"/><path class="cls-7" d="M900.61,382.92v-.54c0-12.12,4.19-29,8.63-46.82,7.29-29.36,15.57-62.63,6.3-81.38-2.58-5.22-5.14-10.73-7.62-16.06-4-8.69-8.24-17.67-12.58-25.61-9.17-16.77-24.71-22.55-41.18-27.45-26.43-7.87-59.34-8.7-97.83-2.49a131,131,0,0,0-14.53,3.53c-10.83,3.06-22,6.23-34.61,3.3a43.78,43.78,0,0,1-9.56-3.63A37.51,37.51,0,0,0,686.88,182l-4.48-.75c-6.88-1.14-12.32-2-19.63-4.82C656.42,174,649.93,172,643.66,170c-11.63-3.62-22.62-7-32.87-12.75-10-5.59-17.66-13.84-25.17-22.53a10.55,10.55,0,0,1-11.22,3.06c-7-2-13.86-10.24-15.07-17.91-.75-4.79.8-8.76,4.37-11.18,6.55-4.44,20,1.27,26,8.88,3.87,4.89,4,9.73.38,13.35a143.05,143.05,0,0,0,22.63,12.75c15.14,6.7,30.28,13.07,45,18.92,28.68,11.41,71.89,9.6,95.1,7.51,6.34-.57,12.71-1.32,19.46-2.12,28.16-3.32,57.28-6.76,83.34,3.29,30.16,11.64,51,30.3,69.79,62.41,9.52,16.29,12.87,38.23,14.89,57.54h0c1.07,10.18-12.27,78.51-19.33,85.25l-.15.1ZM803.93,177.66c18.74,0,35.61,2.21,50.46,6.63,16.63,5,32.33,10.8,41.65,27.84,4.36,8,8.55,17,12.6,25.65,2.48,5.33,5,10.83,7.62,16.05,9.39,19,1.08,52.43-6.25,81.92-4.36,17.53-8.48,34.11-8.6,46.08l19.11-6c2.87-2.91,7.6-18.39,12.36-40.49,4.4-20.39,7.19-38.91,6.65-44h0c-2-19.22-5.34-41.06-14.79-57.22-18.9-32.36-39-50.34-69.38-62.06-25.87-10-54.89-6.56-83-3.24-6.75.79-13.13,1.54-19.48,2.12-23.27,2.09-66.63,3.9-95.47-7.57-14.72-5.85-29.87-12.22-45-18.93a143.08,143.08,0,0,1-23.17-13.11l-.4-.29.36-.33c5-4.57,2.07-9.86-.11-12.61-5.76-7.28-18.9-12.81-25-8.71-4.23,2.87-4.52,7.24-4,10.39,1.17,7.41,7.8,15.31,14.5,17.27a9.82,9.82,0,0,0,10.7-3.16l.31-.34.3.34c7.56,8.77,15.19,17.1,25.25,22.71s21.13,9.07,32.71,12.68c6.29,1.95,12.79,4,19.16,6.4,7.24,2.74,12.64,3.64,19.48,4.77l4.49.75a38.59,38.59,0,0,1,11,3.86,42.7,42.7,0,0,0,9.39,3.57c12.38,2.89,23.48-.25,34.21-3.29a130.39,130.39,0,0,1,14.63-3.55A301.44,301.44,0,0,1,803.93,177.66Z"/><path class="cls-8" d="M851.23,204.9s8.55,3.45,32.88,24.12,28.25,53.89,27.47,76.37,8.63,51.95,8.63,51.95l14.48,34.07s-24.11,8.29-30.49,9.79-15.9-46.36-15.9-46.36c-8.37-12.29-5.5-31.65-8-40.28s-14.2-15.7-20.48-17.81-30.12-8.6-30.12-8.6"/><path class="cls-9" d="M850.1,239.62s14.93,10.43,21.33,15,12.16,13.12,13.73,28.47,3.4,63.65,7.85,70.11L908.44,400l12.41-4-12.41-35.7A98,98,0,0,1,899.81,315c1.57-25.11-1.46-60.41-24.59-75.33L852.08,224.7"/><path class="cls-8" d="M793.63,147.14s-33-32.16-60.72-22.74c0,0-22.23,3.86-13.34,19s33.49,10.07,36.1,10,10.77.51,13,3"/><path class="cls-8" d="M653.13,223.5c0-2.45,5.23-12.66,10.11-15.8s5.85-7.59,6.89-11,6.25-6.52,6.25-6.52,11.42,5.92,8.82,16.65-13.5,32.78-13.5,32.78Z"/><path class="cls-8" d="M823.16,171.08s17-2.53,21.19,10.11,24.07,66.52-25.11,124.6-111.7,41.86-120.85,36.1-14.91-17.63-11.25-31.31l2.87-4.79a63.84,63.84,0,0,1-13.86-11.26s5.23-28.93,0-37.47-5.75-22.31,0-30.47,13.08-15.17,7.06-24.22-6.27-10.1-6.27-14.29,2-17.79,1.39-25.37-2.7-10.73-2.7-10.73,14.12-3.35,17.79-4.55,22.31-6.17,30.9,1.67,13.3,10.09,20.37,10.8l7.06.71s14.43-.59,15.59-2.78,11.09-9.62,22.86-11.27,22-.86,25.11,5.42S820.81,158.78,823.16,171.08Z"/><path class="cls-8" d="M644.33,223s8.28-2.46,16.39,5.12S672,238.57,672,240.92s4.12,16.14,4.12,16.14,1.7,35.26-4.12,45.92-15.5,20.86-24.13,21.65c0,0-14.13,1.57-22.76,7.06s-6.8,12.24-13.86,16.72-17.85,7.87-19.26,8.13-12.66,1.57-15.53,2.62-19,5.36-25.14,4.72c0,0,25.66-13.09,29.58-21.46s5.7-19.1,11.09-24.07,5.13-11,6.7-16.09,2.09-22.89,9.68-31.26,18.83-9.41,22-6.8c0,0-3.4-10.72-1-16.48s7.49-17.53,11.25-21.13Z"/><path class="cls-8" d="M685.87,303.07s-10.74-4-15.47,2.72-10.75,15.16-16.63,17-20.26,3.41-28.63,8.9S611,347.94,613.86,352.11s10,13.36,23.31,11.77,13.61-3.89,20.67-3.52,13.08,3,25.64,1.94,30.75-5,40-14.26a42.54,42.54,0,0,1-26.81-7.36c-12.89-9-10-27.88-9.75-29S690.16,304.06,685.87,303.07Z"/><path class="cls-8" d="M593.73,356.07s11.36,9.93,28.19,4.29c0,0-9.34-5.18-8.82-11.95C613.1,348.41,598.07,355.23,593.73,356.07Z"/><path class="cls-8" d="M630.37,264.2s5,5.06,7.59,15.35,3.14,20.23-8.89,35.4"/><path class="cls-10" d="M951.35,380.74c-38.79,17.19-63.84,26.09-107.28,28.35C806.35,425,766,431.22,721.68,420.26c-19.18-4.74-39.36-3.66-58.84-6.89-69.46-11.53-112.18-2-179.26-11.53-28.91,11.24-59.16,23.43-85.17,35.63C321,483.22,301,463.22,339,419.22c4.51-5.23,2-26.18-4.71-26.5C333.18,389,322,392,318.64,394,254,433.22,246,409.22,276,367.22c6.29-8.8-15.86-32.19-31.21-35.26-34-6.8-65.37,19.25-99.62,24.49-29.33,4.49-55.66-6.73-76.81-21.56-3.75-2.63-3.84-8.71-4.27-13.21a10.53,10.53,0,0,1,.63-5.53c2.1-4.24,2.2-5.42,2.2-5.42,14.27-26.65,28.38-53.82,43.47-80,8.48-14.73,17-29.52,27.68-42.78,14.51-18,32.68-32.83,50.3-47.88l26.73-22.72c13.42-11.33,26.7-23.23,42.21-31.71a117.53,117.53,0,0,1,84.55-10.53c13.8,3.54,27.16,9.65,41.42,10,20.53.49,39.09-10.91,57.18-20.45,47.73-25.17,135.38-46,189.52-48.41,68.76-.37,129.55,32.28,182.07,76.08,19.69,16.42,37,35.33,54.32,54.18l27.55,30c12.38,13.5,24.84,27.1,34.42,42.64,4.23,6.85,7.87,14,11.77,21.06,7.41,13.39,15.9,31.55,23,46.1a93.33,93.33,0,0,1,9.3,50.33C970.92,351.53,965.49,368,951.35,380.74Z"/><path class="cls-2" d="M728.38,419.41s12.56,8.37,24.76,7S728.38,419.41,728.38,419.41Z"/><path class="cls-11" d="M690,95.9q-14.38-3.37-29-5.52c-3.88-.56-7.84-1.06-11.69-.38-9.7,1.72-17,11.43-16.92,21.28s6.94,19,16,22.89c9.7,4.12,20.72,2.6,31.25,2.06,9.54-.5,19.36-.16,28.31-3.48s17-11.59,16.38-21.13v-.08A8.69,8.69,0,0,0,718,104C708.85,101.14,701.52,98,690,95.9Z"/><ellipse class="cls-12" cx="649.84" cy="221.51" rx="2.47" ry="3.54"/><ellipse class="cls-12" cx="646.48" cy="218.4" rx="3.54" ry="2.47" transform="translate(282.16 795.39) rotate(-76.4)"/><ellipse class="cls-12" cx="652.08" cy="217.56" rx="2.47" ry="3.54" transform="translate(25.56 500.42) rotate(-42.75)"/><ellipse class="cls-12" cx="649.84" cy="215.25" rx="2.47" ry="3.54"/><ellipse class="cls-12" cx="653.74" cy="213.28" rx="2.47" ry="3.54" transform="translate(-30.44 144.26) rotate(-12.31)"/><ellipse class="cls-12" cx="656.02" cy="211.72" rx="2.47" ry="3.54" transform="translate(-30.05 144.71) rotate(-12.31)"/><ellipse class="cls-12" cx="649.2" cy="209.88" rx="3.45" ry="4.95" transform="translate(-15.06 54.08) rotate(-4.72)"/><ellipse class="cls-12" cx="643.91" cy="209.88" rx="4.95" ry="3.45" transform="translate(350.54 820.3) rotate(-82.38)"/><ellipse class="cls-12" cx="653.74" cy="208.67" rx="3.45" ry="4.95" transform="translate(-15.65 359.8) rotate(-30.43)"/><ellipse class="cls-12" cx="658.8" cy="207.1" rx="3.45" ry="4.95" transform="translate(-14.16 362.15) rotate(-30.43)"/><ellipse class="cls-12" cx="639.49" cy="210.17" rx="4.95" ry="3.45" transform="translate(373.8 828.66) rotate(-84.95)"/><ellipse class="cls-12" cx="649.16" cy="204.88" rx="4.17" ry="5.98" transform="translate(-14.65 54.06) rotate(-4.72)"/><ellipse class="cls-12" cx="642.78" cy="204.88" rx="5.98" ry="4.17" transform="translate(354.52 814.84) rotate(-82.38)"/><ellipse class="cls-12" cx="654.65" cy="203.41" rx="4.17" ry="5.98" transform="translate(-12.86 359.54) rotate(-30.43)"/><ellipse class="cls-12" cx="660.76" cy="201.52" rx="4.17" ry="5.98" transform="translate(-11.06 362.37) rotate(-30.43)"/><ellipse class="cls-12" cx="637.44" cy="205.23" rx="5.98" ry="4.17" transform="translate(376.85 822.11) rotate(-84.95)"/><ellipse class="cls-12" cx="647.25" cy="196.9" rx="4.77" ry="6.84" transform="translate(-14 53.88) rotate(-4.72)"/><ellipse class="cls-12" cx="639.95" cy="196.9" rx="6.84" ry="4.77" transform="translate(359.97 805.11) rotate(-82.38)"/><ellipse class="cls-12" cx="653.54" cy="195.23" rx="4.77" ry="6.84" transform="translate(-8.87 357.85) rotate(-30.43)"/><ellipse class="cls-12" cx="660.53" cy="195.44" rx="4.77" ry="6.84" transform="translate(-28.25 204.35) rotate(-17.22)"/><ellipse class="cls-12" cx="667.43" cy="195.44" rx="6.84" ry="4.77" transform="translate(453.15 857.05) rotate(-88.38)"/><ellipse class="cls-12" cx="633.84" cy="197.31" rx="6.84" ry="4.77" transform="translate(381.45 811.29) rotate(-84.95)"/><ellipse class="cls-12" cx="645.37" cy="213.28" rx="3.54" ry="2.47" transform="translate(255.18 769.82) rotate(-73.25)"/><ellipse class="cls-12" cx="643.13" cy="214.9" rx="3.54" ry="2.47" transform="translate(252.02 768.83) rotate(-73.25)"/><ellipse class="cls-12" cx="646.78" cy="187.5" rx="5.43" ry="7.79" transform="translate(-13.22 53.8) rotate(-4.72)"/><ellipse class="cls-12" cx="638.47" cy="187.5" rx="7.79" ry="5.43" transform="translate(368 795.49) rotate(-82.38)"/><ellipse class="cls-12" cx="653.94" cy="185.6" rx="5.43" ry="7.79" transform="translate(-3.93 356.72) rotate(-30.43)"/><ellipse class="cls-12" cx="661.9" cy="185.83" rx="5.43" ry="7.79" transform="translate(-25.34 204.32) rotate(-17.22)"/><ellipse class="cls-12" cx="669.76" cy="185.83" rx="7.79" ry="5.43" transform="translate(465.01 850.05) rotate(-88.38)"/><ellipse class="cls-12" cx="631.51" cy="187.96" rx="7.79" ry="5.43" transform="translate(388.64 800.45) rotate(-84.95)"/><ellipse class="cls-12" cx="651.51" cy="139.87" rx="4.77" ry="6.84" transform="translate(-13.34 95.04) rotate(-8.26)"/><ellipse class="cls-12" cx="658.8" cy="139.42" rx="6.84" ry="4.77" transform="translate(472.94 786.65) rotate(-85.93)"/><ellipse class="cls-12" cx="665.46" cy="139.54" rx="4.77" ry="6.84" transform="translate(-13.13 182.22) rotate(-15.44)"/><ellipse class="cls-12" cx="645.34" cy="141.93" rx="4.77" ry="6.84" transform="translate(30.83 384.8) rotate(-33.97)"/><ellipse class="cls-12" cx="638.35" cy="142.16" rx="4.77" ry="6.84" transform="translate(-8.93 235.58) rotate(-20.77)"/><ellipse class="cls-12" cx="631.46" cy="142.58" rx="4.77" ry="6.84" transform="translate(-4.42 21.22) rotate(-1.92)"/><ellipse class="cls-12" cx="651.08" cy="132.07" rx="3.73" ry="5.48" transform="translate(-11.84 88.71) rotate(-7.72)"/><ellipse class="cls-12" cx="656.79" cy="131.71" rx="5.48" ry="3.73" transform="translate(481.77 778.3) rotate(-86.19)"/><ellipse class="cls-12" cx="662" cy="131.8" rx="3.74" ry="5.47" transform="translate(-11.93 169.6) rotate(-14.47)"/><ellipse class="cls-12" cx="646.26" cy="133.72" rx="3.76" ry="5.44" transform="translate(27.99 364.54) rotate(-32.16)"/><ellipse class="cls-12" cx="640.79" cy="133.9" rx="3.74" ry="5.46" transform="translate(-7.93 221.63) rotate(-19.5)"/><ellipse class="cls-12" cx="635.41" cy="134.24" rx="3.73" ry="5.48" transform="translate(-3.89 19.95) rotate(-1.79)"/><ellipse class="cls-12" cx="649.24" cy="124.91" rx="2.75" ry="4.57" transform="translate(-9.17 64.78) rotate(-5.67)"/><ellipse class="cls-12" cx="653.43" cy="124.6" rx="4.58" ry="2.74" transform="translate(497.14 771.19) rotate(-87.21)"/><ellipse class="cls-12" cx="657.26" cy="124.69" rx="2.76" ry="4.55" transform="translate(-11.72 123.7) rotate(-10.66)"/><ellipse class="cls-12" cx="645.7" cy="126.29" rx="2.84" ry="4.42" transform="translate(4.78 274.93) rotate(-24.12)"/><ellipse class="cls-12" cx="641.69" cy="126.44" rx="2.78" ry="4.52" transform="translate(-11.27 163.73) rotate(-14.42)"/><ellipse class="cls-12" cx="637.73" cy="126.72" rx="2.74" ry="4.58" transform="translate(-2.74 14.67) rotate(-1.32)"/><ellipse class="cls-12" cx="648.62" cy="121.15" rx="2.84" ry="4.42" transform="translate(7.13 275.68) rotate(-24.12)"/><ellipse class="cls-12" cx="652.56" cy="120.03" rx="2.84" ry="4.42" transform="translate(7.93 277.19) rotate(-24.12)"/><ellipse class="cls-12" cx="644.6" cy="121.3" rx="2.78" ry="4.52" transform="translate(-9.9 164.29) rotate(-14.42)"/><ellipse class="cls-12" cx="640.65" cy="121.59" rx="2.74" ry="4.58" transform="translate(-2.62 14.74) rotate(-1.32)"/><ellipse class="cls-12" cx="648.46" cy="116.86" rx="2.36" ry="3.68" transform="translate(8.87 275.24) rotate(-24.12)"/><ellipse class="cls-12" cx="645.12" cy="116.99" rx="2.31" ry="3.76" transform="translate(-8.81 164.28) rotate(-14.42)"/><ellipse class="cls-12" cx="641.83" cy="117.23" rx="2.28" ry="3.81" transform="matrix(1, -0.02, 0.02, 1, -2.52, 14.76)"/><ellipse class="cls-12" cx="652.56" cy="149.23" rx="5.43" ry="7.79" transform="matrix(0.99, -0.14, 0.14, 0.99, -14.67, 95.29)"/><ellipse class="cls-12" cx="660.86" cy="148.71" rx="7.79" ry="5.43" transform="translate(465.59 797.34) rotate(-85.93)"/><ellipse class="cls-12" cx="645.53" cy="151.57" rx="5.43" ry="7.79" transform="translate(25.48 386.55) rotate(-33.97)"/><ellipse class="cls-12" cx="637.57" cy="151.83" rx="5.43" ry="7.79" transform="translate(-12.41 235.93) rotate(-20.77)"/><ellipse class="cls-12" cx="629.73" cy="152.31" rx="5.43" ry="7.79" transform="translate(-4.75 21.17) rotate(-1.92)"/><ellipse class="cls-12" cx="626.08" cy="151.4" rx="5.43" ry="7.79" transform="translate(-4.72 21.05) rotate(-1.92)"/><ellipse class="cls-12" cx="665.41" cy="145.46" rx="5.43" ry="7.79" transform="translate(4.32 309.44) rotate(-26.26)"/><ellipse class="cls-12" cx="670.9" cy="145.62" rx="5.43" ry="7.79" transform="translate(4.82 311.89) rotate(-26.26)"/><ellipse class="cls-12" cx="646.01" cy="179.24" rx="5.43" ry="7.79" transform="matrix(1, -0.08, 0.08, 1, -12.55, 53.71)"/><ellipse class="cls-12" cx="637.69" cy="179.24" rx="7.79" ry="5.43" transform="translate(375.52 787.55) rotate(-82.38)"/><ellipse class="cls-12" cx="653.16" cy="177.33" rx="5.43" ry="7.79" transform="translate(0.15 355.19) rotate(-30.43)"/><ellipse class="cls-12" cx="661.12" cy="177.56" rx="5.43" ry="7.79" transform="translate(-22.93 203.72) rotate(-17.22)"/><ellipse class="cls-12" cx="668.98" cy="177.56" rx="7.79" ry="5.43" transform="translate(472.52 841.24) rotate(-88.38)"/><ellipse class="cls-12" cx="673.71" cy="177.56" rx="7.79" ry="5.43" transform="translate(477.12 845.97) rotate(-88.38)"/><ellipse class="cls-12" cx="630.73" cy="179.69" rx="7.79" ry="5.43" transform="translate(396.17 792.14) rotate(-84.95)"/><ellipse class="cls-12" cx="641.36" cy="166.49" rx="5.43" ry="7.79" transform="translate(-11.52 53.29) rotate(-4.72)"/><ellipse class="cls-12" cx="633.04" cy="166.49" rx="7.79" ry="5.43" transform="translate(384.13 771.88) rotate(-82.38)"/><ellipse class="cls-12" cx="648.52" cy="166.95" rx="5.43" ry="7.79" transform="translate(4.76 351.41) rotate(-30.43)"/><ellipse class="cls-12" cx="656.48" cy="164.82" rx="5.43" ry="7.79" transform="translate(-19.36 201.77) rotate(-17.22)"/><ellipse class="cls-12" cx="664.33" cy="164.82" rx="7.79" ry="5.43" transform="translate(480.75 824.21) rotate(-88.38)"/><ellipse class="cls-12" cx="626.08" cy="166.94" rx="7.79" ry="5.43" transform="translate(404.63 775.89) rotate(-84.95)"/><ellipse class="cls-12" cx="629.07" cy="171.08" rx="7.79" ry="5.43" transform="translate(403.23 782.62) rotate(-84.95)"/><ellipse class="cls-12" cx="640.58" cy="158.22" rx="5.43" ry="7.79" transform="translate(-10.84 53.2) rotate(-4.72)"/><ellipse class="cls-12" cx="632.27" cy="158.22" rx="7.79" ry="5.43" transform="translate(391.65 763.94) rotate(-82.38)"/><ellipse class="cls-12" cx="647.74" cy="156.31" rx="5.43" ry="7.79" transform="translate(10.04 349.55) rotate(-30.43)"/><ellipse class="cls-12" cx="655.7" cy="156.55" rx="5.43" ry="7.79" transform="translate(-16.95 201.17) rotate(-17.22)"/><ellipse class="cls-12" cx="663.55" cy="156.55" rx="7.79" ry="5.43" transform="translate(488.26 815.4) rotate(-88.38)"/><ellipse class="cls-12" cx="668.28" cy="156.55" rx="7.79" ry="5.43" transform="translate(492.85 820.12) rotate(-88.38)"/><ellipse class="cls-12" cx="672.19" cy="164.82" rx="7.79" ry="5.43" transform="translate(488.39 832.06) rotate(-88.38)"/><ellipse class="cls-12" cx="677.96" cy="165.27" rx="7.79" ry="5.43" transform="translate(406.72 808.21) rotate(-80.83)"/><ellipse class="cls-12" cx="676.14" cy="156.55" rx="7.79" ry="5.43" transform="translate(500.49 827.98) rotate(-88.38)"/><ellipse class="cls-12" cx="625.31" cy="158.68" rx="7.79" ry="5.43" transform="translate(412.16 767.57) rotate(-84.95)"/><path class="cls-13" d="M561,120.3c1.28-6.11,6-11.06,11.55-14s11.82-4,18-4.7c10.17-1.19,20.8-1.42,30.3,2.4,14,5.62,23.17,19,30.28,32.28,3.63,6.79,7,13.88,8.07,21.51s-.35,15.92-5.4,21.73-14.14,8.32-20.85,4.54"/><path class="cls-11" d="M467.71,275.14s-259.92,13.79-277.85,13c-20.86-.92-21.27,2.21-38-5.76S122.9,275,121.5,296.19s-19.88,58.68-25.81,61-22.23-6.88-25.11-11.08-3.49-9.75,4.53-15.33S68.59,293.67,98.48,268s46.48-1.27,53,3.42,29.3,7.37,39.06,7.06S467.71,265,467.71,265,473.46,268.31,467.71,275.14Z"/><path class="cls-9" d="M644,219.42c-.15.29-13.61-55.38-31.75-77a64.28,64.28,0,0,0-34.09-21c-8.4-2-17.59-2.18-25.3,1.68s-13.41,12.51-11.9,21c0,0,6.25,179,16.45,193.87S588,348.72,588,348.72s74.25-13.4,55.83-129"/><path class="cls-14" d="M306,389.17c-29,8.05-36.33,15.26-36.33,15.26L262.55,399s20-15.66,22.75-24.7"/><path class="cls-14" d="M353.52,316.43c.85.28-25.17-11.93-73.64,66.86,0,0-23,38.58,69.1-19.12C384,342.22,381.33,303.87,353.52,316.43Z"/><path class="cls-15" d="M270.83,392.82s63.67,7.9,102.67-57.1"/><path class="cls-16" d="M369.88,316.73s-18.36,37.4-96.46,75.78"/><path class="cls-16" d="M365.19,314.41s-80.5,59.73-92.77,78.1"/><path class="cls-16" d="M374.31,322.47c-.45.92-15.83,45.37-103.69,70.88"/><path class="cls-17" d="M500.15,222.46s24.28-63.15,39.45-61.06,22,8.89,27.47,17.52,21.19,64.88,23.28,78.48,2.36,45.73,0,54.39-24.06,64.55-65.53,49.55"/><path class="cls-18" d="M493.56,229.41S473.16,263.74,466.1,275s-27,42.69-28.52,49.71-14.91,29,14.65,35.69,51.8,6.91,58.86,5.07,36.88-8.21,39.76-29.87-7.58-52.52-11.25-64.3-6.15-50.66-19.35-52.83C501.15,215.28,493.56,229.41,493.56,229.41Z"/><path class="cls-8" d="M373.66,231.07c-2.93,3.78-5.92,7.65-7.55,12.16s-1.73,9.84.92,13.83c4.65,7,14.67,6.84,22.66,9.38,10.56,3.35,18.38,12.1,27.71,18.08a58.39,58.39,0,0,0,32.78,9.16c18.51-.47,41.73-4.26,54.82-17.35,28.93-28.93,35-98.34,39.89-121.21.48-2.29,1-4.72.16-6.93-1.14-3.16-4.68-4.93-8-5s-6.6,1.14-9.72,2.38a1040.12,1040.12,0,0,0-102.77,47.25c-6.1,3.22-12.18,6.5-18.25,9.78-8.35,4.51-16.91,9.18-23.07,16.4C379,223.9,375.35,228.9,373.66,231.07Z"/><path class="cls-19" d="M783.14,147.43S771.11,137.1,764,137s-28.25,1.4-34.53-5.65"/><path class="cls-19" d="M632.34,348.41s8.84-9.13,14.43-8.61,32.18,2.24,44-5.29"/><path class="cls-19" d="M596.28,355.23s8.2-9.68,9.5-17.78,2.82-15.44,8.08-19.36,15.82-27.83,8.06-34.58"/><path class="cls-19" d="M619.55,336.43s6.38-13.1,6.9-14.54"/><path class="cls-19" d="M647.38,310.58s1.3-4.26,5.75-12.11,11.54-31.62,2.89-45.24c0,0,2.52-8.65-2.28-15.71"/><line class="cls-19" x1="647.38" y1="252.36" x2="656.02" y2="253.23"/><path class="cls-19" d="M680.33,197.93c5.5,1.14,14.66,13.49,29.57,4.44s11.51-12.18,11.51-12.18"/><path class="cls-19" d="M735.78,157.53s19.37,15.9,8.64,38.66-15.81,34.79-22.68,40S700.8,249.42,701,272.9"/><path class="cls-19" d="M765.39,158.93s-5,7.44-14.43,28.1c0,0-12,20.8-13.44,23.87"/><path class="cls-19" d="M792.29,174.48s-6.53,11.77-14.12,20.4-10.73,22-13.86,31.38-11,33.35-19.62,39.83-8.37,10-15.18,17S713.82,310,690,305.79"/><path class="cls-19" d="M735.79,305.79s8.83-15.43,15.66-19.75,30.12-14.17,38.75-23,17-34.46,17.27-38.37"/><path class="cls-19" d="M823.16,171.08s5.23,14.65-6.8,29.56-24.07,21.55-26.42,26"/><path class="cls-20" d="M852.12,157.64c-16-17.54-36.4-29.8-56.35-42.72C753,87.22,707,57.22,633.63,57.45c-47.47.14-87,33.68-114.48,54.88s-82.06,46.22-124,70.32c-13.45,7.72-22.95,12.75-29.56,16A41.76,41.76,0,0,1,337.57,202c-2.95-.69-5.2-1.56-6.34-3-2.61-3.21,6.43-18.22-11-23,0,0-47.37-2.53-55.59,10.83,0,0-13.7,17.15,1.09,26.23,0,0,13,9.95,31.64,1.84s23.55-15.64,30.24-9.11c0,0,12.39,4.64,23.13,3.37,12-1.43,10.5-.46,26.42-9.68s121.05-60.69,144.91-81C556.35,89.28,602.68,65.77,637.11,64,693.33,61.18,760,95.22,804.63,126.55c12.83,9,26.63,16.53,37.73,27.59,8.58,8.55,18.13,17.54,19.9,17.05C863.65,170.8,858.55,164.67,852.12,157.64Z"/><path class="cls-21" d="M273.84,188.85S288.55,192,296,188.6s18.08-13.81,26.54-10.06-1.18-45.88-27.38-44.1a13.78,13.78,0,0,0-10.27.33s-8.16-6.76-17.05-1.18c0,0-13.27-7.72-22.07,5.21"/><path class="cls-22" d="M273.84,188.85S288.55,192,296,188.6s18.08-13.81,26.54-10.06-1.18-45.88-27.38-44.1a13.78,13.78,0,0,0-10.27.33s-8.16-6.76-17.05-1.18c0,0-13.27-7.72-22.07,5.21"/><path class="cls-22" d="M301.25,135s-2.74,14.65,4.95,18.13a11.85,11.85,0,0,0,13-1.66"/><path class="cls-22" d="M300.79,139.71s-2.66,2.28-8,2.17-8-7.11-8-7.11"/><path class="cls-22" d="M275.25,147.37s7.86,1.29,12-8.57"/><path class="cls-22" d="M321.61,160.37s-5.71,4.54-3.72,16.45"/><path class="cls-22" d="M311.84,154.65s4.51,8.08,10.81,4.19"/><path class="cls-22" d="M313.87,157.83s-7.84,6-2.46,20.76"/><path class="cls-22" d="M308.44,181.12s-6.76,1.12-6.39-5.49S308.68,154,308.68,154"/><path class="cls-22" d="M300.15,141.83S289.09,160,290,169s2,7.21,4.59,7.73,7.45-1.1,7.45-1.1"/><path class="cls-22" d="M290.18,141s-13.4,17.39-13.89,25.09,1.27,14.24,8.58,13.14,5.64-6.42,5.64-6.42"/><path class="cls-23" d="M145.59,204s-18.75,13-18.08,18.88,13.41,6.57,22,3.77,24.42-13.38,24.42-13.38"/><path class="cls-23" d="M147.43,211.5s-18.76,13-18.09,18.89,13.41,6.57,21.95,3.77,24.42-13.38,24.42-13.38"/><path class="cls-24" d="M184.5,169.56c-4,2.53-20.17,14.26-28.54,20.48S141,202.45,144,207.3s11.52,11.74,31.52,8,54.8,10,64.58,7.31,20.06-24.3,21.95-31.82,10.19-58.81-9.39-55.21-44.43,8.64-54,21.75S190.51,165.73,184.5,169.56Z"/><path class="cls-24" d="M190.4,171.41c-4.23,2.69-21.43,15.15-30.32,21.76s-15.92,13.18-12.65,18.33S159.66,224,180.9,220s57.8,8.91,68.08,5.72c17.53-5.44,21.83-23.77,23.84-31.75s10.83-62.47-10-58.65-47.19,9.17-57.36,23.11S196.78,167.34,190.4,171.41Z"/><path class="cls-25" d="M739.7,113.2l2.91-6.77c.94.42,1.62.77,2.39,1.19s1.47.82,2.18,1.25c1.43.88,2.83,1.8,4.16,2.8a50.68,50.68,0,0,1,7.47,6.74,40.25,40.25,0,0,1,9.61,17.92,42.11,42.11,0,0,1-.47,20.25,71.9,71.9,0,0,1-7.67,18L758,178.56a49.27,49.27,0,0,0-3.91,5.77,29.35,29.35,0,0,0-2.6,6.43,60.71,60.71,0,0,0-1.84,14.51,62.29,62.29,0,0,1-1.74-15.5,34.77,34.77,0,0,1,1.32-8.09,61.18,61.18,0,0,1,2.84-7.55l1.77-3.11c.75-1.34,1.48-2.66,2.17-4s1.27-2.67,1.91-4,1.1-2.72,1.62-4.08l.66-2.08.33-1,.25-1a34.77,34.77,0,0,0,.44-16.76,32.89,32.89,0,0,0-7.9-14.65,43.41,43.41,0,0,0-6.4-5.77c-1.16-.87-2.37-1.66-3.6-2.42-.61-.37-1.24-.73-1.87-1.07S740.18,113.42,739.7,113.2Z"/><path class="cls-26" d="M751.33,106.88l3.31-6.59c6.88,3.54,13.47,7.28,20,11.2s13,8,19.3,12.32c12.61,8.63,24.81,18,35.77,28.94a118.61,118.61,0,0,1,15,18c4.32,6.58,7.95,14,9.23,22.24a35.55,35.55,0,0,1-.22,12.55,36.65,36.65,0,0,1-4.59,11.66l-.81,1.34-.89,1.26-.9,1.26-.86,1.13L844,224.41l-.81,1.1-.51.73c-.41.56-.77,1.11-1.13,1.66s-.7,1.11-1,1.66a27.28,27.28,0,0,0-3.57,5.62,29.28,29.28,0,0,0-2.11,6.62,82.71,82.71,0,0,0-1.41,14.62,84,84,0,0,1-2.22-15.37,35.12,35.12,0,0,1,.69-8.17,33.62,33.62,0,0,1,2.82-7.92c.4-.65.82-1.26,1.23-1.89.2-.32.41-.61.62-.91l.41-.58.85-1.18,1.71-2.29c.58-.75,1.16-1.51,1.62-2.18a24.17,24.17,0,0,0,1.42-2.1,21.41,21.41,0,0,0,1.24-2.18,28.3,28.3,0,0,0,2.56-19.28c-1.38-6.63-4.64-13-8.67-18.86a113.82,113.82,0,0,0-14.06-16.45c-10.39-10.23-22.15-19.22-34.33-27.52-6.1-4.15-12.35-8.1-18.69-11.89S757.8,110.2,751.33,106.88Z"/><path class="cls-26" d="M729.71,96.1l2.56-6.92c4.4,1.7,8.44,3.58,12.53,5.64s8,4.29,11.9,6.74c7.69,4.92,15.07,10.65,21.08,18a46.22,46.22,0,0,1,7.38,12.37,34,34,0,0,1,2.32,14.6,37.47,37.47,0,0,1-3.86,14.13c-.5,1.1-1,2.07-1.58,3.1l-1.58,2.84-2.09,3.68a49.27,49.27,0,0,0-3.91,5.77,29.47,29.47,0,0,0-2.6,6.42A60.79,60.79,0,0,0,770,197a62.35,62.35,0,0,1-1.74-15.5,34.33,34.33,0,0,1,1.32-8.1,61.79,61.79,0,0,1,2.84-7.55l2.24-3.93c.51-.93,1-1.86,1.5-2.8.24-.46.51-.94.72-1.4l.59-1.36a28.59,28.59,0,0,0,2.74-11.27A27.23,27.23,0,0,0,778,133.8a40.6,40.6,0,0,0-6.37-10.16c-5.28-6.27-12-11.52-19.19-16.06-3.59-2.26-7.32-4.35-11.13-6.27-1.9-1-3.84-1.88-5.78-2.77S731.59,96.81,729.71,96.1Z"/><path class="cls-25" d="M763.62,139.89l3.55,1c-2.43,8.44-5.29,16.62-8.47,24.73S752,181.64,748,189.4a184,184,0,0,1-13.37,22.51c-1.18,1.84-2.57,3.54-3.89,5.29l-2,2.61c-.67.86-1.44,1.66-2.15,2.5l-2.17,2.48c-.73.82-1.47,1.66-2.09,2.42l-1,1.18a8.45,8.45,0,0,0-.93,1.21l-1.66,2.57c-4,7.2-5.33,15.72-5.15,24.13a112.14,112.14,0,0,0,3.69,25.2,206.14,206.14,0,0,0,8,24.42c.8,2,1.6,4,2.44,5.95.42,1,.84,2,1.28,3l1,2.28.87,1.92c1.43,4.71,3,9.4,4.71,14.05-2.9-4.21-5.62-8.54-8.24-13l-1.51-3.36c-1.73-3.93-3.39-7.9-4.91-11.91s-3-8.06-4.27-12.17c-.68-2-1.24-4.12-1.86-6.19s-1.14-4.15-1.61-6.26a109.94,109.94,0,0,1-3.31-25.75,63.1,63.1,0,0,1,1.45-13.09,39.81,39.81,0,0,1,5-12.34l.92-1.42.46-.7.54-.65,2.17-2.59,4.14-4.73c.35-.4.7-.78,1-1.19l1-1.25,1.92-2.5,1.92-2.51,1.77-2.61,1.78-2.62c.6-.86,1.18-1.74,1.72-2.65l3.3-5.4c2.06-3.69,4.16-7.35,6-11.15A279.36,279.36,0,0,0,763.62,139.89Z"/><path class="cls-25" d="M824.48,173.19l2.76-2.44a189.08,189.08,0,0,1,16.4,22.93,210.11,210.11,0,0,1,13.17,24.86l2.77,6.47,2.51,6.59c.79,2.21,1.5,4.45,2.25,6.67.4,1.11.7,2.25,1,3.39l.94,3.43a116.15,116.15,0,0,1,3.37,28.07,158.26,158.26,0,0,1-2.51,28.09,209,209,0,0,1-6.9,27.27,252.8,252.8,0,0,1-10.15,26.2q-1.44,3.19-3,6.36c-.5,1.06-1,2.1-1.55,3.15l-1.22,2.42-1,1.91c-2.9,4.05-5.87,8.05-9,11.85,2.21-4.58,4.17-9.27,6-14l1.72-3.37c2-4.06,4-8.19,5.8-12.36a244,244,0,0,0,9.59-25.55,193.67,193.67,0,0,0,6.38-26.48A151.62,151.62,0,0,0,866,271.62a111.12,111.12,0,0,0-3.58-26.76,173.86,173.86,0,0,0-9.29-25.54,207.5,207.5,0,0,0-12.83-24A186.41,186.41,0,0,0,824.48,173.19Z"/><path class="cls-26" d="M834.57,163.83l2.66-2.54a179.23,179.23,0,0,1,17.27,22.48,196.83,196.83,0,0,1,13.86,24.66A162.46,162.46,0,0,1,878.17,235c.34,1.14.57,2.31.82,3.47l.73,3.49c.43,2.34.75,4.69,1.1,7s.51,4.72.65,7.09l.16,3.55.08,1.78v1.78c.14,19-3.57,37.75-9.35,55.66a252.22,252.22,0,0,1-10.18,26.34q-1.45,3.22-3,6.4c-.5,1.06-1,2.11-1.56,3.17l-1.23,2.42-1,1.91c-2.9,4.06-5.87,8.05-9,11.86,2.21-4.58,4.17-9.27,6-14l1.72-3.38c2.06-4.09,4-8.24,5.83-12.43a245.75,245.75,0,0,0,9.63-25.69A193.75,193.75,0,0,0,876,288.9,151.38,151.38,0,0,0,878,261.7a112.63,112.63,0,0,0-3.75-26.87,161.57,161.57,0,0,0-9.61-25.54,192,192,0,0,0-13.48-23.82A176.17,176.17,0,0,0,834.57,163.83Z"/><path class="cls-27" d="M626.62,108.28s-2.74-3-1.57-6.34.79-7.83,3.14-7.65,1.83-4.47,5.89-3,3.66-2.43,6.8,1.12c0,0,2.75-.93,3.92,2.42s1.83,6.16.66,7.84,2,3.17-.79,5.59-1.57,5-2.74,6.16,1.43,2.8-2.1,2.24-7.32,3-8.11-3c0,0-3,1.5-3.27-1.12A7.94,7.94,0,0,0,626.62,108.28Z"/><path class="cls-28" d="M815.47,348.22s-2.74-2.09-1.56-4.45.78-5.49,3.13-5.36,1.84-3.14,5.89-2.09,3.66-1.7,6.8.78c0,0,2.75-.65,3.93,1.7s1.83,4.32.65,5.5,2,2.22-.79,3.92-1.57,3.53-2.74,4.32,1.44,2-2.1,1.57-7.32,2.09-8.1-2.1c0,0-3,1.05-3.27-.78A5.15,5.15,0,0,0,815.47,348.22Z"/><path class="cls-28" d="M658.33,336s2.73-2.12,4.7-.38,5.11,2.17,4.39,4.41,2.56,2.57.51,6.23.71,4-2.5,6.37c0,0-.07,2.82-2.64,3.36s-4.64.66-5.48-.77-2.65,1.32-3.59-1.77-3-2.42-3.47-3.76-2.27.89-1-2.42-.14-7.62,4.1-7.3c0,0-.24-3.18,1.6-3A5.11,5.11,0,0,0,658.33,336Z"/><path class="cls-8" d="M397.61,275c-12.68,6.62-127.9,12-127.9,12s4.1,3.5,0,10.18c0,0,67.91.74,135.49-16.84"/><path class="cls-8" d="M269.71,287s5.75,3.35,0,10.18c0,0-62.48,3.79-83.77.58-7.65,3.18-13.91,8-13.37,14.18,1,12.06-14.1,35.74-27.35,46.9s-45.3,2.64-46.74,0,33.46-35.83,43.93-51.61,61-20,65.5-20.06S250,285.22,250,285.22L269.71,287"/><path class="cls-29" d="M280.75,286s4.94,6.66,0,10.84"/><path class="cls-29" d="M288.9,285.29s4.94,7,0,11.55"/><path class="cls-29" d="M297,285.71s4.94,6.53,0,10.81"/><path class="cls-29" d="M305.19,284.7s4.94,6.48,0,10.83"/><path class="cls-29" d="M313.33,284.89s4.94,6.19,0,10.46"/><path class="cls-29" d="M321.48,285s4.94,5.57,0,9.51"/><path class="cls-29" d="M329.63,283.38s4.93,6,0,10.32"/><path class="cls-29" d="M337.77,283.51s4.94,5.14,0,9"/><path class="cls-29" d="M345.92,282.37s4.93,5.71,0,10.12"/><path class="cls-29" d="M354.06,281.49s4.94,5.35,0,9.63"/><path class="cls-29" d="M362.21,280.79s4.94,4.49,0,8.19"/><path class="cls-29" d="M370.35,279.55s4.94,4.26,0,7.92"/><path class="cls-29" d="M378.5,278.54s4.94,4,0,7.66"/><path class="cls-29" d="M385.61,277.32s4.94,3.83,0,7.4"/><path class="cls-29" d="M391.82,276s4.94,3.61,0,7.12"/><path class="cls-19" d="M397.61,275c-12.68,6.62-127.9,12-127.9,12s4.1,3.5,0,10.18c0,0,67.91.74,135.49-16.84"/><path class="cls-30" d="M338.79,285.86c-1,4-2.09,4,0,5s-2.06.35-1.21,8.55-3.67,9.42-3,13.6-1.57,13.78,3.83,16.39-.34,6,9.94,8.58,6.46,3.63,9.94,4.15-.17,1.92,7.15,3.14,4.36,2.27,8.9,2.27,4.88.7,6.45-3.49,4.53-2.26,2.09-7.85.53-6.62-2.44-7.15c0,0-4.88-3.31-6.28-2.61s-.17-1.92-.87-4.36,2.62-7.85.53-12-.7-10.29-2.8-13.43-1.22-4.63-3.48-8.33-4.71-7.19-4.71-7.19Z"/><path class="cls-31" d="M346.12,289.84c2.79-3.32,0-5.43,0-5.43"/><path class="cls-31" d="M340.36,299.25s-.13,8,7,4.71"/><path class="cls-31" d="M350.83,307.62s1.43,6.53-3.47,6.14"/><path class="cls-31" d="M346.64,328.55s4.88,3.31,6.8-5.75"/><path class="cls-31" d="M359.19,331.17s9.42,2,7.85-6.83"/><path class="cls-31" d="M359.19,312.51c-.69.87-2.09,11.51,2.1,10.29"/><path class="cls-31" d="M351,302.92s1.88,7.15,7.38,4.7"/><path class="cls-31" d="M353.44,295.59a3.12,3.12,0,0,0,4.19-2.9"/><path class="cls-31" d="M338.79,316.34s1.4,5.16,7,1.36"/><path class="cls-31" d="M365.82,312.51s6.73-.19,6.86-7"/><path class="cls-31" d="M366.52,338s7.85,5.72,8.89-1.6"/><path class="cls-31" d="M361.29,336.4s3.54,4.88,8-1"/><path class="cls-31" d="M345.07,333.09s1.4,6,5,4.91,3.4-6.63,3.4-6.63"/><path class="cls-31" d="M375.94,331.37s1.74,6.42,7,4.85"/><path class="cls-31" d="M361.29,298s9,.9,8-3.81"/><path class="cls-31" d="M357.63,288s4.45,2.61,5.57-1.07"/><path class="cls-32" d="M275.37,254.13c5.34,2.89,12.15,1.72,17.35-1.42s9.14-8,13-12.66l42.12-51.9c8.28-10.2,16.94-21.36,17.59-34.49.43-8.7-2.79-17.16-6.54-25-2.84-5.95-6.15-11.92-11.33-16-4.68-3.69-10.52-5.56-16.32-6.91-19.55-4.57-40.75-4-58.95,4.51s-32.92,25.42-36,45.25c-1.09,7-.79,14.08-.48,21.12l1,22.09"/><path class="cls-32" d="M270.37,188.43a49,49,0,0,0,19.91-3.59c3.11,2,3.08,6.72,1.49,10.07s-4.32,6.08-5.76,9.5c-3.22,7.67.75,16.22,3,24.24a6.49,6.49,0,0,1,.24,3.64c-1.7,5.38-11.43.32-15.18,4.52C272.74,236.17,272.08,234.47,270.37,188.43Z"/><path class="cls-32" d="M257.33,196.38c-6.54-20.28-2.6-44.39,12.47-59.45s41.42-18.45,58.21-5.34"/><path class="cls-25" d="M384.66,274.09l-6.32,3.79c-.55-.95-.94-1.71-1.37-2.57s-.81-1.67-1.2-2.51q-1.12-2.54-2.07-5.14a72.07,72.07,0,0,1-3-10.67,62.44,62.44,0,0,1-1.2-11.11,52.15,52.15,0,0,1,1.07-11.26,45.39,45.39,0,0,1,3.62-10.79,47.14,47.14,0,0,1,6.08-9.59,62.21,62.21,0,0,1,17-14.34l2.37-1.39c.8-.46,1.57-.84,2.36-1.27l4.7-2.49c3.15-1.61,6.3-3.21,9.46-4.77q9.49-4.66,19-9.15c12.7-6,25.39-12,37.91-18.17S498,150,510,142.87c1.49-.89,3-1.76,4.48-2.67l4.4-2.77c1.46-.94,2.95-1.83,4.38-2.8l4.3-2.92c2.9-1.9,5.65-4,8.43-6s5.59-4.26,8.48-6.32a205.8,205.8,0,0,1,36.87-21.71,177.87,177.87,0,0,1,20.13-7.56,163.34,163.34,0,0,1,21-4.91l5.32-.82,5.36-.59c.89-.08,1.78-.21,2.67-.27l2.69-.16c1.79-.09,3.58-.26,5.37-.29,3.59,0,7.18-.17,10.76,0,1.79.08,3.59.08,5.37.22l5.36.43c1.79.1,3.56.35,5.34.58l5.32.67,5.29.92c1.76.31,3.53.59,5.27,1,3.48.79,7,1.46,10.42,2.46l5.17,1.39c1.72.47,3.41,1,5.12,1.57a263.87,263.87,0,0,1,39.45,16.2l4.75,2.4c1.59.8,3.12,1.7,4.68,2.54,3.09,1.75,6.25,3.36,9.27,5.24l4.57,2.75,2.28,1.37,1.15.68.29.18.31.21.57.37c3,2,5.87,4,8.75,6.1a267.08,267.08,0,0,1,32.67,27.43,117.5,117.5,0,0,1,14,16.62,56.3,56.3,0,0,1,5.45,9.79,32.75,32.75,0,0,1,2.78,11.47v1.56a13.87,13.87,0,0,1,0,1.48c-.09.91-.16,1.82-.26,2.73-.2,1.81-.45,3.62-.74,5.41-.59,3.58-1.35,7.12-2.24,10.61s-1.9,6.92-3,10.31l-1.66,5.06-.86,2.57-1.38,4c-2.22,4.42-4.43,8.78-6.28,13.26a49.42,49.42,0,0,0-2.33,6.89,22.28,22.28,0,0,0-.69,7.36,24.09,24.09,0,0,1-1.11-7.79,56.81,56.81,0,0,1,.69-7.84c.79-5.16,2-10.19,3.08-15.17l.68-2,2.38-7.13a153.16,153.16,0,0,0,5.13-19.59,90.55,90.55,0,0,0,1.28-9.88,21.27,21.27,0,0,0-1.48-8.66,43.31,43.31,0,0,0-4.29-8.55,78.17,78.17,0,0,0-5.82-8,147.05,147.05,0,0,0-14-14.66,287.79,287.79,0,0,0-32.06-25.44c-1.41-.95-2.83-2-4.21-2.78l-4.4-2.64c-2.92-1.75-5.83-3.54-8.85-5.15l-4.5-2.48L749,117.93l-2.28-1.17c-3.06-1.52-6.08-3.12-9.17-4.58a242.79,242.79,0,0,0-38.16-14.57,192.25,192.25,0,0,0-40-7,163.37,163.37,0,0,0-20.28.06c-3.38.13-6.73.6-10.09.94l-5,.76c-1.67.23-3.33.56-5,.9-3.32.61-6.59,1.45-9.88,2.26s-6.51,1.81-9.7,2.94a160.14,160.14,0,0,0-18.81,7.61,204.18,204.18,0,0,0-34.68,21.32c-2.67,2-5.54,4.15-8.36,6.24s-5.75,4-8.64,6c-5.82,3.91-11.78,7.57-17.8,11.09-12.07,7-24.43,13.44-36.88,19.59s-25,12-37.51,17.93q-9.36,4.42-18.63,9c-3.06,1.56-6.16,3.06-9.17,4.67l-4.54,2.41c-1.52.8-2.87,1.66-4.31,2.48s-2.73,1.83-4.1,2.73-2.58,2-3.83,3l-1.78,1.64-.9.82-.82.88L387,217.64l-1.5,1.87-.75.94-.66,1c-.44.66-.9,1.31-1.32,2a42.09,42.09,0,0,0-2.2,4.21,37.83,37.83,0,0,0-2.89,9,49.24,49.24,0,0,0,.31,19.19,63.76,63.76,0,0,0,2.68,9.44q.84,2.33,1.85,4.56c.34.74.68,1.48,1,2.21S384.33,273.53,384.66,274.09Z"/><path class="cls-26" d="M376.32,274.67l-6.66,3.17c-.64-1.39-1.12-2.61-1.62-3.91s-.94-2.58-1.37-3.88q-1.28-3.9-2.18-7.91a84,84,0,0,1-2.17-16.3,66.24,66.24,0,0,1,1.56-16.57,53.69,53.69,0,0,1,16.88-28.6,74.09,74.09,0,0,1,13.61-9.47c9.33-5.07,18.85-9.67,28.37-14.16,19.05-8.95,38.09-17.62,56.33-27.67,9.11-5,18-10.43,26.56-16.27l3.2-2.21,1.6-1.1,1.55-1.16,6.24-4.63q6.31-4.87,12.9-9.39a269,269,0,0,1,27.41-16.4,232.49,232.49,0,0,1,29.35-12.7,203.1,203.1,0,0,1,62.81-11.73,199.24,199.24,0,0,1,32,2l4,.59c1.32.2,2.64.39,4,.68l7.86,1.59c5.18,1.3,10.4,2.5,15.47,4.17,5.15,1.46,10.12,3.4,15.15,5.2,2.47,1,4.92,2,7.39,3.06,1.22.52,2.46,1,3.68,1.55l1.92.91,3.9,1.86c4.26,2.65,8.26,5.7,12.31,8.59,2,1.41,4,3,5.9,4.56l5.81,4.63a270,270,0,0,0-28-11.57l-1.87-.88-.93-.45-1-.47c-1.14-.57-2.33-1-3.5-1.53l-7-2.94c-2.36-1-4.78-1.76-7.17-2.64l-3.59-1.3-3.64-1.12c-2.44-.73-4.85-1.55-7.31-2.19a190.46,190.46,0,0,0-60.3-6.69,197.68,197.68,0,0,0-59.41,12.59,230.26,230.26,0,0,0-27.8,12.66c-4.5,2.39-8.9,5-13.25,7.64s-8.61,5.49-12.77,8.45c-2.1,1.45-4.14,3-6.2,4.49s-4.06,3.09-6.19,4.66-4.19,3.18-6.35,4.66L507.17,141c-8.74,5.79-17.75,11.13-26.91,16.13-18.34,10-37.33,18.52-56,27.36-9.31,4.43-18.62,8.93-27.52,13.85-8.57,4.79-16,11.42-20.76,19.79s-6.68,18.14-6.29,27.94a76.05,76.05,0,0,0,2,14.66c.56,2.41,1.22,4.81,2,7.16.39,1.18.8,2.35,1.24,3.5S375.87,273.7,376.32,274.67Z"/><path class="cls-33" d="M373.44,276.93s10-13.57,25.34-10.1,18.14,19.87,18.49,23.36,10.11,11.85,8.37,31.73-3.49,26.19-11.51,30.19-28.32-3.39-34.95-12.34c-3.87-5.22-11.44-17.89-10-28S361.55,285.93,373.44,276.93Z"/><path class="cls-18" d="M408.44,310a11.71,11.71,0,0,1,.17-7.15l-.13-.06c.16-.6.32-1.19.48-1.71l.09-.26,0-.11,0-.05v0h0c.54.23-.74-.3-.59-.24h0l.26.09c.49.21.27.11.33.12v0a1.33,1.33,0,0,1,.14-.17,9.1,9.1,0,0,1,.76-.81c2.37-2.26,5.11-4.41,7.77-6.5L416,290.75c-2.75,2.15-5.43,4.25-8,6.73a13.06,13.06,0,0,0-1,1.06,4.54,4.54,0,0,0-.57.85c-.13.3-.2.53-.28.76-.25.81-.44,1.53-.63,2.26l-1.91,1.24-1.19.78-2.42,2a13.18,13.18,0,0,0-3.54,5.41c-.25,1-.69,2.11-.08,3.22-.35-1.13.29-2,.72-2.83a10.8,10.8,0,0,1,1.8-2.22,13.94,13.94,0,0,1,4.44-2.74l-.17.22a6,6,0,0,0-.49.88,10.15,10.15,0,0,0-.37,3.49c0,1,.21,2.24.3,3a6.27,6.27,0,0,1-.85,2.57,4.67,4.67,0,0,1-1.89,2.08,4.78,4.78,0,0,0,2.44-1.58,7.72,7.72,0,0,0,1.71-2.65c.28-1.25.27-2,.48-3a8.64,8.64,0,0,1,.78-2.47c0-.06,0-.1.07-.16.09.4.15.81.27,1.22a30.48,30.48,0,0,1,1.73,7.76q.06.67.09,1.35a12.93,12.93,0,0,1-.06,5.55,18.19,18.19,0,0,0-1.07,6.18,17.31,17.31,0,0,1,2.31-5.36,13.89,13.89,0,0,0,1.77-6.08c0-.64-.06-1.28-.12-1.91A33.07,33.07,0,0,0,408.44,310Z"/><path class="cls-34" d="M367.68,296.72s8.32,2.71,13.14,2.53c5.08-.18,9.42.53,15.7,3.4s21.61-10.08,20.42-14.65"/><path class="cls-35" d="M914.5,334.45c-2.13-20.29-5.61-44-16-61.69-18.88-32.32-40.14-53.53-74.81-66.91s-74.86-4.43-110.32-1.23c-31.76,2.86-74,3.21-102.45-8.11-16.23-6.45-32.58-13.35-48.38-20.34-1.26-.55-2.82-1.28-4.57-2.14-1.24-15.32-21.81-33.06-36.45-23.48-11.2,7.33-6.94,21.29.39,28.18,9.11,8.54,19.62,5.9,31.41,8.32l.88-1.32a64.86,64.86,0,0,0,6.61,4.27c17.1,9.53,36.71,13.29,55.82,20.54,9.47,3.6,16.15,4.27,25.85,6,9.29,1.62,12.94,5.9,21.86,8,19.46,4.54,35.83-4.63,52.66-7.35,34-5.49,72.17-7.19,105.36,2.68,18.8,5.6,34.86,12,44.54,29.73,7.53,13.77,14.42,30,21.72,44.81,16,32.44,2,70.36,2,105l21.2-6.63C919.06,385.86,915.73,346.22,914.5,334.45Z"/><path class="cls-36" d="M835.22,240.44s-38.48-1.14-35.76,14.93,28,0,37.18,2.17,16.28,10.49,27.19,31.21,14.59,32.43,11.75,36.82-19.88,46.32,7.19,78.69c0,0,5.21-.37,2-5.54s-16-31.17-13.47-44.78,10.58-29,8.09-39.6S858.14,244.94,835.22,240.44Z"/><path class="cls-36" d="M872.68,302.55s20.93,11,22,14.16,2.33,5.36-21.76-8.82"/><path class="cls-37" d="M894,312.49s-18.44,23.32-2.08,53.46,35,22.89,38.08,17.69S932.19,323.69,894,312.49Z"/><path class="cls-36" d="M894,308.52s-1.55,7.72,4.45,11,23.68,10.59,24.11,33.58,5.51,36.85,8.09,34.78,6.62-7.87,5.76-21.5-4.76-35.11-18.77-44.76S899.94,305.65,894,308.52Z"/><path class="cls-38" d="M855.52,239.83s-8.15-6.18-10.45-.2,13,19.9,14.22,18.5S867.15,255.11,855.52,239.83Z"/><path class="cls-39" d="M170.76,234.27a8.6,8.6,0,0,0-.84-.47,2.51,2.51,0,0,0-1.73-.12c-4,1.07-9.52,2-12.74,5.51a12,12,0,0,0-2.53,4.69c-.71,2.44-1.76,5.07-1.15,7.54.31,1.26-.2,1.5-.15,2.81a6.56,6.56,0,0,1-.35,2.33,1.2,1.2,0,0,0,1.95,1.25l0,0a8.75,8.75,0,0,1,2-1.46c2.11-1,4.64-.24,7-.51a11.68,11.68,0,0,0,4.66-1.77c3.67-2.2,6.86-5.58,7.76-9.76a10,10,0,0,0,0-4,6.36,6.36,0,0,0,.12-3,3.63,3.63,0,0,1,.83-3.12.92.92,0,0,0-1.13-1.36C173.27,233.31,172,233.83,170.76,234.27Z"/><path class="cls-39" d="M151.23,252.1s3,3.58,6.53,3.68"/><path class="cls-39" d="M170.76,234.27a5.79,5.79,0,0,1,3.86,6"/><ellipse class="cls-40" cx="162.36" cy="245.41" rx="7.54" ry="5.93" transform="translate(-110.7 135.75) rotate(-34.63)"/><circle class="cls-4" cx="165" cy="239.22" r="2"/><path class="cls-41" d="M526,320.22c-11-8-24-18-38-13-6,2-10,12-16,15-12,4-22,12-26,22-3.15,5.66-3.13,12.52-3.67,19.56,6.23,9.57,10.64,19.18,10.81,27.36a12.18,12.18,0,0,0,12.34,11.95l48.38-.68a15.13,15.13,0,0,0,14.79-13.11,608.93,608.93,0,0,0,4.9-61.63C530.64,325.49,528.81,321.62,526,320.22Z"/><circle class="cls-28" cx="496" cy="384.22" r="5"/><path class="cls-42" d="M463.05,330.94c3.94-1,4.5-6.11,9.25-4.31"/><path class="cls-42" d="M468.16,337.35c3.07,4.25,5.2,8.25,11.1,6.79"/><path class="cls-42" d="M455.21,352.46c1.43,0,4.28-.53,5.49.38,1.68,1.25.3,2.46,1,4,.93,2.16,5.79,3.42,8,2.38"/><path class="cls-42" d="M457.06,371.58c2.61.38,3.48,1.9,6.32,1.54,2.56-.32,3.28-1.62,5.4-2.77"/><path class="cls-42" d="M458,383.61c3.43,0,6.28-1.17,9.32.68,2.58,1.57,3.1,3.11,6.4,3"/><path class="cls-42" d="M478,374.67c4,2.39,3.87,2.3,8.33,1.23"/><path class="cls-42" d="M501.16,362.64c2.67-.65,4.37-1.85,7.4-1.23"/><path class="cls-42" d="M478.11,329.2c3.19,1.4,5.71.46,8.63,2.77"/><path class="cls-42" d="M488.21,320.7c.75,1.82,3,2.51,4.62,3.39"/><path class="cls-42" d="M503,337c1.89.75,1.41,2.17,2.45,3.14.82.78,2.37,1,3.41,1.49"/><path class="cls-42" d="M505.18,325.17c5.91,1.65,4.09-2.79,8-4.93"/><path class="cls-42" d="M514,329.06c3.38,0,5.75.54,8,3.09"/><path class="cls-42" d="M486.86,397.9c1.53,0,4.22.55,5.45-.35s-.46-3,2.26-3.35"/><path class="cls-42" d="M522.88,383.48c.73-1.74,3-1.49,4-.62"/><path class="cls-42" d="M513.19,373.34c.22-3.76,5.12,0,6.48.31"/><path class="cls-42" d="M504.24,395.63c3.71-2.09,6.53,1.36,9.87.62"/><path class="cls-42" d="M504.23,373.44c-.17-2.72,3.64-3.52,4.94-5.55"/><path class="cls-42" d="M506.71,384.23a11.1,11.1,0,0,1,5.86,0"/><path class="cls-42" d="M479.88,395.94c1.22-2.38,4.14-5.58,4-8.32"/><path class="cls-42" d="M467.24,396.25c2.48-.37,3.76,4,6.17,4.94"/><path class="cls-42" d="M479.88,359.25c3.56.85,3.77,3.91,5.55,5.86"/><path class="cls-42" d="M455.83,335.5c-.44,4.06,2.19,4.06,4,6.48"/><path class="cls-42" d="M513.19,353.7c1.76,3.2,4.8.5,4.93,5.55"/><path class="cls-42" d="M499.31,322.24a6.48,6.48,0,0,1,.62,5.55"/><path class="cls-42" d="M495.61,342.6a9.73,9.73,0,0,0,3.08,4.62"/><path class="cls-42" d="M523.06,343c-.27,2,.3,4,.61,5.86"/><polygon class="cls-2" points="745.3 421.33 754.71 431.44 753.14 426.38 768.84 428.83 767.1 425.16 774.94 425.16 774.07 422.72 780 424.99 780.7 421.33 792.29 424.99 787.67 418.54 802.15 422.9 800.23 418.54 805.64 420.28 805.64 415.05 810 417.84 810 415.05 819.06 417.49 814.88 414.18 833.71 415.05 827.43 410.51 839.99 411.91 834.58 407.38 846.27 409.47 842.61 403.71 853.42 409.47 844.87 400.02 858.83 406.15 859.87 402.67 871.21 406.5 866.15 401.23 793.43 386.27 735.79 395.87 745.3 421.33"/></g></g></svg>
