<svg xmlns="http://www.w3.org/2000/svg" viewBox="0 0 228.69 228.69"><defs><style>.cls-1{fill:#598db7;}.cls-2,.cls-3,.cls-4{fill:#f4f7fa;stroke:#598db7;stroke-miterlimit:10;}.cls-2{stroke-width:0.69px;}.cls-3{stroke-width:0.64px;}.cls-4{stroke-width:0.66px;}</style></defs><title>adipose tissue</title><g id="Layer_2" data-name="Layer 2"><g id="Layer_1-2" data-name="Layer 1"><path class="cls-1" d="M168.78,205.17c3.53-3.43,8.13-5.48,12.21-8.23,7.53-5.06,13.18-12.38,19.07-19.28,1.47-1.71,3.17-3.52,5.42-3.79a6.15,6.15,0,0,1,4.88,2c.72-1.11,1.4-2.24,2.08-3.37-.22-.1-.43-.19-.65-.27-2-.77-4.22-1.08-6-2.27a10.18,10.18,0,0,1-3.62-4.9,21.37,21.37,0,0,1-1,2.56,43.07,43.07,0,0,1-5.92,8.94c-7.18,9.1-14.52,18.35-24.12,24.84-4.33,2.91-9.3,5.28-14.51,5.12a20,20,0,0,1-5.09-.88,8.42,8.42,0,0,1,4,3.12,9.86,9.86,0,0,1,1.16,3.62,58.05,58.05,0,0,1,.71,7.57c.94-.38,1.87-.78,2.79-1.19.32-.66.64-1.33,1-2C163.31,212.61,165.46,208.39,168.78,205.17Z"/><path class="cls-1" d="M26.08,183.43a46.13,46.13,0,0,0,8.91,6l17.27,9.75a9.36,9.36,0,0,1,3,2.31,3.38,3.38,0,0,1,.3.47,14.69,14.69,0,0,1,1.86-6.24,6.24,6.24,0,0,1,1.62-2c1.28-.95,3-1.05,4.52-1.41,4.61-1.05,8.34-4.59,10.68-8.7,1.89-3.34,3.4-7.49,7-8.8a7.25,7.25,0,0,1,1.45-.33,6.64,6.64,0,0,1-1.26-1.11,11.65,11.65,0,0,1-1.83-3.62l-4.93-13.5a42.08,42.08,0,0,1-2.55-8.95,35,35,0,0,1,.24-9,94,94,0,0,1,4.55-19,135.09,135.09,0,0,0-6.45,16.85,7.06,7.06,0,0,1-1.45,3c-1.56,1.61-4.18,1.35-6.36.84-6.36-1.5-12.58-4.19-19.11-4-2.9.09-6,.72-8.62-.44a13.8,13.8,0,0,1-4.72-4.19,23.57,23.57,0,0,1-3.7-5.46,23.89,23.89,0,0,1-1.28-4.63c-1-5-2.06-10.06-1.84-15.16.2-4.51,1.36-8.93,1.8-13.42.58-5.83-.15-12,1.88-17.65,1.59-4.42,8.55-6.66,12.46-8.93a36,36,0,0,1,5.83-2.91,34.9,34.9,0,0,1,9.77-1.45c2.45-.14,5-.25,7.26.67s4.21,3,5.91,5L80.89,81.88C83,84.33,85.23,87,85.6,90.2a15.94,15.94,0,0,1-.55,5.22l-1.44,6.69c-.35,1.64-.72,3.27-1.18,4.88.6-1.22,1.19-2.45,1.77-3.7C85.48,100.5,86,95.94,88.59,94c3.58-2.6,10.47-.38,14.21.75,5.16,1.56,10.53,4.1,16,2.86,5-1.14,8.83-5.25,13.36-7.75,4.79-2.63,10.35-3.43,15.76-4.18l.26,0c-6.42.27-12.71.79-18,4.18-3.68,2.34-6.7,6-10.92,7C110.79,99.06,102.47,90,94,92.08a15.13,15.13,0,0,1-2.73.6,5.88,5.88,0,0,1-4.74-2.74,26.33,26.33,0,0,1-2.44-5.14,34.89,34.89,0,0,0-8.32-12c-1.93-1.81-4.09-3.43-5.61-5.6-2.37-3.42-1.44-6.62-.58-10.31,1-4.3.68-8.82,1.94-13.07,1.65-5.58,5.92-10,8.49-15.2,2.32-4.7,3.36-10.22,7.06-13.94,3.85-3.86,9.64-4.84,14.56-7.19A51.49,51.49,0,0,0,111.89.38c-1.79,0-3.56.12-5.32.24a28.61,28.61,0,0,1-5,3.76c-3.67,2-8.09,2.29-11.64,4.47A7.65,7.65,0,0,1,87.65,10a5.61,5.61,0,0,1-2.08-.05,35.07,35.07,0,0,1-10.06-2.8c-.89.32-1.77.65-2.65,1,2.94,2.14,5.84,4.33,8.53,6.72a4.28,4.28,0,0,1,1.51,2.05,4.34,4.34,0,0,1-.55,2.68A139,139,0,0,1,71.79,38.81a46.65,46.65,0,0,0-5.16,9,20,20,0,0,0-1.17,9c.1,1.1.17,2.46-.78,3a2.7,2.7,0,0,1-1.05.25l-17,1.78c-3.92.41-7.9.84-11.55,2.32a14.67,14.67,0,0,0-7.92,7c-1.05,5.54-3.83,11-5,16.64a57.31,57.31,0,0,1-1.62,7.51c-1.76,4.89-6,8.54-10.73,10.72a42.65,42.65,0,0,1-9.29,2.9c-.06,1.32-.1,2.64-.11,4a51.69,51.69,0,0,0,13.22-4.69c1.55-.81,3.55-1.66,4.9-.55a4.2,4.2,0,0,1,.94,1.26l4.31,7.58a3.17,3.17,0,0,1,.6,2.53c-.41,1.17-1.91,1.42-3.13,1.62A15.32,15.32,0,0,0,10.61,128c-1.2,2.11-2.59,4.94-5,4.61,0-2.16-2.34-3.41-4-4.78-.18-.15-.35-.32-.52-.47.31,2.71.72,5.4,1.21,8l1.35.34c2.64.72,5.21,2.7,5.5,5.42a8.44,8.44,0,0,1-.41,3.11,23.31,23.31,0,0,1-2.55,6.14c.48,1.44,1,2.86,1.52,4.26a27.57,27.57,0,0,1,3.8-5,11.6,11.6,0,0,0,2.38-2.94c1.49-3.14-.68-7.87,3.37-8.87s8.67-1,12.77-1.33a41.7,41.7,0,0,1,12.91.49,50.17,50.17,0,0,1,9.21,3.51l6.78,3.12A32.54,32.54,0,0,1,63,145.75c6.36,4,9.63,11.73,12.15,19.08a7.28,7.28,0,0,1,.52,2.2c.08,2.7-2.47,4.51-4.59,6-7.72,5.41-13.41,13.39-20,20.27a4.13,4.13,0,0,1-1.84,1.3,3.18,3.18,0,0,1-1.89-.26c-2.7-1-4.76-3.34-6.81-5.47a90.76,90.76,0,0,0-20.06-15.64c-1.84-1.06-3.73-2.06-5.58-3.12.29.53.58,1,.89,1.56C19.64,175.06,22.27,179.89,26.08,183.43ZM25,134.06a3.36,3.36,0,0,1-1.41.77,12.53,12.53,0,0,1-6.91-.29,7.9,7.9,0,0,1-3.89-1.92,3.11,3.11,0,0,1-.42-4,4.58,4.58,0,0,1,1.89-1.12c3.16-1.24,6.35-2.82,9.42-.34a5.9,5.9,0,0,1,2.17,4.37A3.32,3.32,0,0,1,25,134.06Z"/><path class="cls-1" d="M60.73,215l.2.11-.39-.47Z"/><path class="cls-1" d="M180.73,56.08c-1.45,2.43-3.38,4.55-4.94,6.93-3.35,5.12-4.81,11.21-6.67,17A5.43,5.43,0,0,1,168,82.33a4.93,4.93,0,0,1-2,1.1,34.83,34.83,0,0,1-7.67,1.65,21.89,21.89,0,0,1,2.54.37c6.39,1.42,11.48,6.1,16.23,10.59,8.46,8,17.16,16.34,21.56,27.11a56.05,56.05,0,0,1,3.36,13.1c2.31-7,4.6-13.36,11.58-17.47,4.49-2.65,9.9-3.88,14.76-5.81,0-.83,0-1.67-.06-2.5l-.22,0c-9.22,1-19.26,1.36-26.33,7.42a95.31,95.31,0,0,0-14-18.58c-3-3.1-6.19-6-9-9.24-2.09-2.39-5.16-5.7-6.43-8.62-1.39-3.2.41-8.58,1.49-11.66a54.75,54.75,0,0,1,5.68-11.22c4.09-6.42,8.91-12.42,12.08-19.35a11.39,11.39,0,0,1,1.95-3.32,8.92,8.92,0,0,1,2.14-1.49c-.49-.5-1-1-1.48-1.48a14.79,14.79,0,0,1-1.53-.31,25.1,25.1,0,0,1-9.65-5.1,17.89,17.89,0,0,1-3.55-3.82,15.92,15.92,0,0,1-1.92-4.29c-.75-.5-1.51-1-2.28-1.48,3.36,5.67,6.44,11.59,7.91,18C184.68,42.71,184.27,50.13,180.73,56.08Z"/><path class="cls-1" d="M105.59,184.71c3.69,2,7.9,2.77,12.06,3.6l-15.88-6.12A37,37,0,0,0,105.59,184.71Z"/><path class="cls-2" d="M87.05,14.7c-3.7,3.72-4.74,9.24-7.06,13.94-2.57,5.23-6.84,9.62-8.49,15.2-1.26,4.25-.94,8.77-1.94,13.07-.86,3.69-1.79,6.89.58,10.31,1.52,2.17,3.68,3.79,5.61,5.6a34.89,34.89,0,0,1,8.32,12,26.33,26.33,0,0,0,2.44,5.14,5.88,5.88,0,0,0,4.74,2.74,15.13,15.13,0,0,0,2.73-.6c8.49-2.06,16.81,7,25.28,4.81,4.22-1.08,7.24-4.7,10.92-7,5.33-3.39,11.62-3.91,18-4.18a45,45,0,0,1,10.08-.59A34.83,34.83,0,0,0,166,83.43a4.93,4.93,0,0,0,2-1.1,5.43,5.43,0,0,0,1.16-2.28c1.86-5.83,3.32-11.92,6.67-17,1.56-2.38,3.49-4.5,4.94-6.93,3.54-5.95,4-13.37,2.41-20.11-1.47-6.42-4.55-12.34-7.91-18A113.43,113.43,0,0,0,114.35.35c-.83,0-1.64,0-2.46,0a51.49,51.49,0,0,1-10.28,7.13C96.69,9.86,90.9,10.84,87.05,14.7Z"/><path class="cls-2" d="M27.14,71.11a14.67,14.67,0,0,1,7.92-7c3.65-1.48,7.63-1.91,11.55-2.32l17-1.78a2.7,2.7,0,0,0,1.05-.25c.95-.54.88-1.9.78-3a20,20,0,0,1,1.17-9,46.65,46.65,0,0,1,5.16-9A139,139,0,0,0,82.35,19.59a4.34,4.34,0,0,0,.55-2.68,4.28,4.28,0,0,0-1.51-2.05c-2.69-2.39-5.59-4.58-8.53-6.72A114.31,114.31,0,0,0,19.63,50.89c3.38,3.93,6.64,7.86,7.62,12.86A19.38,19.38,0,0,1,27.14,71.11Z"/><path class="cls-2" d="M87.65,10a7.65,7.65,0,0,0,2.24-1.14c3.55-2.18,8-2.49,11.64-4.47a28.61,28.61,0,0,0,5-3.76A113.46,113.46,0,0,0,75.51,7.14a35.07,35.07,0,0,0,10.06,2.8A5.61,5.61,0,0,0,87.65,10Z"/><path class="cls-2" d="M20.5,95.26a57.31,57.31,0,0,0,1.62-7.51c1.19-5.62,4-11.1,5-16.64a19.38,19.38,0,0,0,.11-7.36c-1-5-4.24-8.93-7.62-12.86a113.38,113.38,0,0,0-19.15,58A42.65,42.65,0,0,0,9.77,106C14.48,103.8,18.74,100.15,20.5,95.26Z"/><path class="cls-2" d="M82.43,107c.46-1.61.83-3.24,1.18-4.88l1.44-6.69a15.94,15.94,0,0,0,.55-5.22C85.23,87,83,84.33,80.89,81.88L68.33,67.42c-1.7-2-3.5-4-5.91-5s-4.81-.81-7.26-.67a34.9,34.9,0,0,0-9.77,1.45,36,36,0,0,0-5.83,2.91c-3.91,2.27-10.87,4.51-12.46,8.93-2,5.61-1.3,11.82-1.88,17.65-.44,4.49-1.6,8.91-1.8,13.42-.22,5.1.81,10.16,1.84,15.16a23.89,23.89,0,0,0,1.28,4.63,23.57,23.57,0,0,0,3.7,5.46A13.8,13.8,0,0,0,35,135.57c2.66,1.16,5.72.53,8.62.44,6.53-.19,12.75,2.5,19.11,4,2.18.51,4.8.77,6.36-.84a7.06,7.06,0,0,0,1.45-3A135.09,135.09,0,0,1,77,119.32h0A118.29,118.29,0,0,1,82.43,107Z"/><path class="cls-2" d="M201.07,139c.31-.93.62-1.86.92-2.78a56.05,56.05,0,0,0-3.36-13.1c-4.4-10.77-13.1-19.11-21.56-27.11-4.75-4.49-9.84-9.17-16.23-10.59a21.89,21.89,0,0,0-2.54-.37,45,45,0,0,0-10.08.59l-.26,0c-5.41.75-11,1.55-15.76,4.18-4.53,2.5-8.31,6.61-13.36,7.75-5.51,1.24-10.88-1.3-16-2.86-3.74-1.13-10.63-3.35-14.21-.75-2.64,1.91-3.11,6.47-4.39,9.26-.58,1.25-1.17,2.48-1.77,3.7A118.29,118.29,0,0,0,77,119.31h0a94,94,0,0,0-4.55,19,35,35,0,0,0-.24,9,42.08,42.08,0,0,0,2.55,8.95l4.93,13.5a11.65,11.65,0,0,0,1.83,3.62,6.64,6.64,0,0,0,1.26,1.11c2.38-.29,4.88.6,7.18,1.5a52.89,52.89,0,0,1,9,4.19c1,.63,2,1.32,2.91,2l15.88,6.12c1.26.25,2.52.51,3.76.82A47.82,47.82,0,0,1,141,199.25a32.2,32.2,0,0,0,5.24,4.1c1.64.91,3.55,1.48,5.28,2.25a20,20,0,0,0,5.09.88c5.21.16,10.18-2.21,14.51-5.12,9.6-6.49,16.94-15.74,24.12-24.84a43.07,43.07,0,0,0,5.92-8.94,21.37,21.37,0,0,0,1-2.56,23.78,23.78,0,0,1-.9-2.66C199,154.41,198.45,146.84,201.07,139Z"/><path class="cls-2" d="M183,27.55a25.1,25.1,0,0,0,9.65,5.1,14.79,14.79,0,0,0,1.53.31,114.54,114.54,0,0,0-16.65-13.52,15.92,15.92,0,0,0,1.92,4.29A17.89,17.89,0,0,0,183,27.55Z"/><path class="cls-2" d="M202,136.25c-.3.92-.61,1.85-.92,2.78-2.62,7.81-2.06,15.38.19,23.33a23.78,23.78,0,0,0,.9,2.66,10.18,10.18,0,0,0,3.62,4.9c1.79,1.19,4,1.5,6,2.27.22.08.43.17.65.27a113.51,113.51,0,0,0,15.91-58.11c0-.46,0-.92,0-1.38-4.86,1.93-10.27,3.16-14.76,5.81C206.59,122.89,204.3,129.25,202,136.25Z"/><path class="cls-2" d="M155.58,208.72a8.42,8.42,0,0,0-4-3.12c-1.73-.77-3.64-1.34-5.28-2.25a32.2,32.2,0,0,1-5.24-4.1,47.82,47.82,0,0,0-19.62-10.12c-1.24-.31-2.5-.57-3.76-.82-4.16-.83-8.37-1.56-12.06-3.6a37,37,0,0,1-3.82-2.52c-1-.7-1.91-1.39-2.91-2a52.89,52.89,0,0,0-9-4.19c-2.3-.9-4.8-1.79-7.18-1.5a7.25,7.25,0,0,0-1.45.33c-3.61,1.31-5.12,5.46-7,8.8-2.34,4.11-6.07,7.65-10.68,8.7-1.55.36-3.24.46-4.52,1.41a6.24,6.24,0,0,0-1.62,2,14.69,14.69,0,0,0-1.86,6.24,12.22,12.22,0,0,1,1.11,2.86,65,65,0,0,0,3.84,9.81l.39.47a114.21,114.21,0,0,0,96.52,4.83,58.05,58.05,0,0,0-.71-7.57A9.86,9.86,0,0,0,155.58,208.72Z"/><path class="cls-2" d="M210.36,175.83a6.15,6.15,0,0,0-4.88-2c-2.25.27-3.95,2.08-5.42,3.79-5.89,6.9-11.54,14.22-19.07,19.28-4.08,2.75-8.68,4.8-12.21,8.23-3.32,3.22-5.47,7.44-7.56,11.57-.34.65-.66,1.32-1,2A114.44,114.44,0,0,0,210.36,175.83Z"/><path class="cls-3" d="M40.55,188.87c2.05,2.13,4.11,4.43,6.81,5.47a3.18,3.18,0,0,0,1.89.26,4.13,4.13,0,0,0,1.84-1.3c6.58-6.88,12.27-14.86,20-20.27,2.12-1.49,4.67-3.3,4.59-6a7.28,7.28,0,0,0-.52-2.2c-2.52-7.35-5.79-15.07-12.15-19.08a32.54,32.54,0,0,0-4.07-2.09l-6.78-3.12A50.17,50.17,0,0,0,42.94,137,41.7,41.7,0,0,0,30,136.54c-4.1.32-8.77.33-12.77,1.33s-1.88,5.73-3.37,8.87a11.6,11.6,0,0,1-2.38,2.94,27.57,27.57,0,0,0-3.8,5,112,112,0,0,0,7.2,15.4c1.85,1.06,3.74,2.06,5.58,3.12A90.76,90.76,0,0,1,40.55,188.87Z"/><path class="cls-2" d="M56.7,204.8a12.22,12.22,0,0,0-1.11-2.86,3.38,3.38,0,0,0-.3-.47,9.36,9.36,0,0,0-3-2.31L35,189.41a46.13,46.13,0,0,1-8.91-6c-3.81-3.54-6.44-8.37-10.28-11.76A114.42,114.42,0,0,0,60.73,215l-.19-.36A65,65,0,0,1,56.7,204.8Z"/><path class="cls-2" d="M5.62,132.64c2.4.33,3.79-2.5,5-4.61a15.32,15.32,0,0,1,10.6-7.43c1.22-.2,2.72-.45,3.13-1.62a3.17,3.17,0,0,0-.6-2.53l-4.31-7.58a4.2,4.2,0,0,0-.94-1.26c-1.35-1.11-3.35-.26-4.9.55A51.69,51.69,0,0,1,.37,112.85c0,.5,0,1,0,1.5a117,117,0,0,0,.74,13c.17.15.34.32.52.47C3.28,129.23,5.61,130.48,5.62,132.64Z"/><path class="cls-2" d="M9.15,141.2c-.29-2.72-2.86-4.7-5.5-5.42l-1.35-.34a112.41,112.41,0,0,0,3.89,15,23.31,23.31,0,0,0,2.55-6.14A8.44,8.44,0,0,0,9.15,141.2Z"/><path class="cls-2" d="M23.64,127.17c-3.07-2.48-6.26-.9-9.42.34a4.58,4.58,0,0,0-1.89,1.12,3.11,3.11,0,0,0,.42,4,7.9,7.9,0,0,0,3.89,1.92,12.53,12.53,0,0,0,6.91.29,2.94,2.94,0,0,0,2.26-3.29A5.9,5.9,0,0,0,23.64,127.17Z"/><path class="cls-4" d="M191.55,39.25c-3.17,6.93-8,12.93-12.08,19.35a54.75,54.75,0,0,0-5.68,11.22c-1.08,3.08-2.88,8.46-1.49,11.66,1.27,2.92,4.34,6.23,6.43,8.62,2.84,3.24,6,6.14,9,9.24a95.31,95.31,0,0,1,14,18.58c7.07-6.06,17.11-6.47,26.33-7.42l.22,0a113.55,113.55,0,0,0-32.63-76,8.92,8.92,0,0,0-2.14,1.49A11.39,11.39,0,0,0,191.55,39.25Z"/></g></g></svg>