<svg xmlns="http://www.w3.org/2000/svg" xmlns:xlink="http://www.w3.org/1999/xlink" viewBox="0 0 228 228"><defs><style>.cls-1,.cls-5{fill:none;}.cls-2{fill:#fcf3eb;}.cls-3{fill:#f3302e;}.cls-4{fill:#da2126;}.cls-5{stroke:#da2126;stroke-miterlimit:10;}.cls-6{clip-path:url(#clip-path);}.cls-7{clip-path:url(#clip-path-2);}.cls-8{clip-path:url(#clip-path-3);}.cls-9{clip-path:url(#clip-path-4);}</style><clipPath id="clip-path"><path class="cls-1" d="M153,129s-34,9-29,23,38,4,46,0,27-17,12-27S153,129,153,129Z"/></clipPath><clipPath id="clip-path-2"><path class="cls-1" d="M53,145s-21,21,17,41,59-4,49-14-34-16-39-21S57,139,53,145Z"/></clipPath><clipPath id="clip-path-3"><path class="cls-1" d="M86,34S72,31,69,44,89,58,98,63s18,17,32,6S115,34,86,34Z"/></clipPath><clipPath id="clip-path-4"><path class="cls-1" d="M88.54,84.61a11.75,11.75,0,0,0-11.62-14C69.17,70.59,58.23,75.22,47,95c-21,37-8,39-4,41s22-4,30-26C79.09,93.25,86.92,92.73,88.54,84.61Z"/></clipPath></defs><title>blood</title><g id="Layer_2" data-name="Layer 2"><g id="Layer_1-2" data-name="Layer 1"><circle class="cls-2" cx="114" cy="114" r="113.55"/><path d="M114,.9A113.11,113.11,0,0,1,194,194,113.11,113.11,0,0,1,34,34,112.39,112.39,0,0,1,114,.9m0-.9A114,114,0,1,0,228,114,114,114,0,0,0,114,0Z"/><path class="cls-3" d="M174.83,49.63a17.19,17.19,0,0,0-24.54-2.19C144.19,52.71,137.94,61.69,139,76c2,27,17,34,24,34s22-11,22-36C185,66.07,180.4,56.5,174.83,49.63Z"/><ellipse class="cls-4" cx="160.5" cy="76.5" rx="11" ry="17"/><path class="cls-5" d="M174.69,49.45a17.07,17.07,0,0,0-24.23-2.16C144.31,52.54,137.93,61.55,139,76c2,27,17,34,24,34s22.5-11.5,22-36C184.84,66,180.35,56.33,174.69,49.45Z"/><g class="cls-6"><path class="cls-3" d="M153,129s-34,9-29,23,38,4,46,0,27-17,12-27S153,129,153,129Z"/><path class="cls-4" d="M168.5,122.5c2.11.73,14,14-11,23s-23-6-23.87-8.62C133.63,136.88,145.5,114.5,168.5,122.5Z"/></g><path class="cls-5" d="M153,129s-34,9-29,23,38,4,46,0,27-17,12-27S153,129,153,129Z"/><path class="cls-3" d="M112,100s-25,11-20,28,37,3,37,3,23-12,12-29C134,91,112,100,112,100Z"/><g class="cls-7"><path class="cls-3" d="M53,145s-21,21,17,41,59-4,49-14-34-16-39-21S57,139,53,145Z"/><path class="cls-4" d="M104.86,162.89c13.3,22.48-27.36,13.61-37.36.61s6.23-16.64,6.23-16.64S96.21,148.28,104.86,162.89Z"/></g><ellipse class="cls-4" cx="116.5" cy="114.5" rx="17" ry="11" transform="matrix(0.94, -0.35, 0.35, 0.94, -32.47, 47.49)"/><g class="cls-8"><path class="cls-3" d="M86,34S72,31,69,44,89,58,98,63s18,17,32,6S115,34,86,34Z"/><path class="cls-4" d="M80.31,57S76.5,40.5,101.5,51.5s9.65,20.12,7.82,19.06C109.32,70.56,85.11,69.47,80.31,57Z"/></g><g class="cls-9"><path class="cls-3" d="M88,74S68,58,47,95s-8,39-4,41,22-4,30-26S92,94,88,74Z"/><path class="cls-4" d="M55.5,130.5s-11-14,13-37,15,11,15,12S69.5,135.5,55.5,130.5Z"/></g><path class="cls-5" d="M112,100s-25,11-20,28,37,3,37,3,23-12,12-29C134,91,112,100,112,100Z"/><path class="cls-5" d="M53,145s-21,21,17,41,59-4,49-14-34-16-39-21S57,139,53,145Z"/><path class="cls-5" d="M86,34S72,31,69,44,89,58,98,63s18,17,32,6S115,34,86,34Z"/><path class="cls-5" d="M88.49,84.88A11.88,11.88,0,0,0,76.65,70.56C68.91,70.7,58.1,75.45,47,95c-21,37-8,39-4,41s22-4,30-26C79,93.44,86.74,92.74,88.49,84.88Z"/></g></g></svg>