<svg xmlns="http://www.w3.org/2000/svg" viewBox="0 0 228 228"><defs><style>.cls-1{fill:#1f659e;}.cls-2{fill:#2c6ea4;}.cls-3{fill:#6998be;}.cls-4{fill:#578cb6;}.cls-5{fill:#558ab5;}.cls-6{fill:#266aa1;}.cls-7{fill:#4c84b1;}.cls-8{fill:#8db0ce;}</style></defs><title>blood vessel</title><g id="Layer_2" data-name="Layer 2"><g id="Layer_1-2" data-name="Layer 1"><path class="cls-1" d="M224,144A114.07,114.07,0,0,0,72.25,7.89c14.8,9.26,31.17,20.43,48.35,33.73A595.86,595.86,0,0,1,224,144Z"/><path class="cls-1" d="M34,99.74A350.48,350.48,0,0,0,6.87,74.93,114.08,114.08,0,0,0,114,228c1.12,0,2.24,0,3.35-.05C101.7,189.63,75.85,142.16,34,99.74Z"/><path class="cls-2" d="M112.76,54.93a80.64,80.64,0,0,0-19,.94c5.19,2.86,8.12,7.17,5,9.65l-.37.26A3.1,3.1,0,0,1,97.07,68c-5,3.94-8.24-.36-11.46-2.15C83.26,64.55,78.28,64,76.14,62,55.71,73.49,52.46,94.59,52.46,94.59A514.83,514.83,0,0,1,133.11,226.4,114.19,114.19,0,0,0,218.32,160C165.24,88.9,112.76,54.93,112.76,54.93Zm12,32.31c3.12,2.09,2.13,4.53.19,6.5a7.34,7.34,0,0,1-2.13,2.93c.43,0,.7.1.7.1,14.45,0,28.9,11.93,22,17.45a4.48,4.48,0,0,1-1.7,2.51c-7,5.5-11.48-.5-16-3s-16-3-14.48-9.48a6.44,6.44,0,0,1,2-3.53.06.06,0,0,1,0,0c-4.62,1.39-11.69,2.51-13-1.28-.55-1.54.22-2.91,1.54-4.07.32-1.5,1.8-2.79,3.56-3.83a31.91,31.91,0,0,1,6.94-2.82,10.58,10.58,0,0,1,4.81-2.57A7.15,7.15,0,0,1,124.8,87.24Zm25.25,54c-1.94,4-6.67,6.49-6.67,6.49s-16,7-18.48-1.5c-1-3.25.29-6.07,2.19-8.3,2.48-5.09,9.46-8.16,9.46-8.16s11-4.5,14.48,1C153.79,135,152.26,138.65,150.05,141.21Zm-48.57-65a20.29,20.29,0,0,1-1.18-5.66c0-.32,0-.64,0-1v-.3c0-.2,0-.4,0-.6s0-.22,0-.33,0-.35,0-.52,0-.24.05-.36,0-.31.07-.45,0-.24.07-.35l.09-.43c0-.11.07-.22.1-.33s.07-.27.11-.4l.12-.32c0-.13.08-.25.13-.37s.09-.2.13-.31l.15-.34.15-.29c0-.11.11-.22.16-.32l.17-.28c.05-.1.11-.2.17-.3l.18-.26.18-.28.19-.24.19-.26.19-.23.16-.19A11.76,11.76,0,0,1,106,57.79a6.16,6.16,0,0,1,8.79.79c2,2.46,3.65,5.89,3.65,8.73a15.31,15.31,0,0,1-3.26,10.11,12.14,12.14,0,0,1-2,2.91,6.62,6.62,0,0,1-4.26,2.36,7.42,7.42,0,0,1-5.22-2.75,6.43,6.43,0,0,1-2,5.26c-1.27,3.1-4.94,5-4.94,5s-11.47,5-13.26-1.08c-.74-2.51.34-4.65,1.88-6.3C87,79,92.28,76.63,92.28,76.63S98.29,74.17,101.48,76.17ZM65.89,92c-1.43-.72-6.09-1.43,1.44-14.69.32-.58.65-1.1,1-1.6h0c.25-.39.5-.76.75-1.12h0l.05-.07c.11-.16.23-.31.34-.46l.25-.43.24-.38.49-.73c.09-.14.19-.27.29-.41s.28-.41.43-.6l.3-.39.41-.51.32-.36.39-.44.31-.32q.19-.21.39-.39l.31-.28.38-.34.3-.25.38-.28.29-.22.37-.24.29-.18.36-.2.28-.15.36-.16.26-.12.37-.13.24-.09.38-.1.2-.06.45-.09.12,0,.54-.07h.14l.38,0h.08a4.22,4.22,0,0,1,4.12,5s0,.07,0,.11-.07.31-.12.45l0,.07a3,3,0,0,1-.14.36.36.36,0,0,1,0,.09c-.06.13-.12.25-.19.37l0,.07a3.28,3.28,0,0,1-.2.31L83,73l-.27.34-.06.07-.09.1c-.16.2-.34.39-.52.59a.06.06,0,0,0,0,0,.17.17,0,0,0,0,0c0,.09-.07.17-.1.25s0,.09,0,.13a.36.36,0,0,1,0,.09h0l-.12.22a1.09,1.09,0,0,1-.08.15l0,0-.15.22-.07.11a.35.35,0,0,0,0,.08h0c-.06.07-.11.14-.17.2a.64.64,0,0,1-.1.13l0,0L80.9,76l-.15.18-.24.26c-.08.09-.17.18-.25.28L80,77a2.2,2.2,0,0,0-.2.23l-.2.22-.21.26a19.45,19.45,0,0,0-1.11,2.5,17.23,17.23,0,0,1-2.8,5C72.33,91,67.16,92.64,65.89,92Zm28,16c-1,3.68-7.87,7.44-18.31,2C62,102.76,69.48,95.24,69.48,95.24a1,1,0,0,1,.17-.19,8.22,8.22,0,0,1,1.48-2.29c1.05-1.58,4.8-.65,7.43.67a9,9,0,0,1,2.25,1.48C82,96.08,86,97.4,89.72,99.17a18.89,18.89,0,0,1,5.06,3.27C96.27,103.92,95.84,106.26,93.88,108Zm6.55,42.22c-2-1-8.49-2,2-20.48.45-.8.9-1.53,1.35-2.23h0l0,0c.35-.54.69-1,1-1.52v0l0-.07.08-.11c0-.06.07-.13.11-.18l.34-.53c.22-.35.45-.7.67-1l.4-.57c.2-.28.41-.57.61-.83l.42-.55.57-.71c.15-.17.29-.34.44-.5l.55-.62.44-.45.53-.53.44-.4.52-.47.43-.34.52-.4.41-.3.51-.34.41-.25.5-.28.39-.2c.17-.09.34-.16.5-.23l.37-.17.5-.18.34-.12a5.26,5.26,0,0,1,.53-.15l.29-.08c.21,0,.41-.09.62-.12l.16,0,.76-.09h.2a4.53,4.53,0,0,1,.52,0h.11a5.86,5.86,0,0,1,5.74,6.92.8.8,0,0,1,0,.15,5.8,5.8,0,0,1-.16.63l0,.1c-.06.17-.13.34-.2.5l-.06.12a4.25,4.25,0,0,1-.27.52l-.06.1c-.09.14-.19.29-.29.42l-.07.11c-.11.15-.24.31-.37.47l-.08.1-.13.14a3.22,3.22,0,0,1-.24.28v0a1.34,1.34,0,0,0-.07.18l-.06.12h0c0,.11-.11.21-.17.32s-.06.13-.1.2l0,.06-.2.31-.11.15a.86.86,0,0,1-.07.1,3.25,3.25,0,0,1-.23.29l-.14.18,0,0c-.08.11-.18.21-.27.32l-.21.24-.33.36c-.11.12-.22.25-.34.37l-.34.38-.28.31-.29.33-.29.36c-.1.12-.19.22-.28.34a1.13,1.13,0,0,0-.1.13,25.79,25.79,0,0,0-1.81,4,24.3,24.3,0,0,1-3.54,6.52C109.1,148.93,102.16,151.06,100.43,150.2ZM139.26,173c-1.91,4.94-11.29,9.59-25.34,2.2-17.62-9.27-9.86-19-8.65-20.31a10.89,10.89,0,0,1,1.81-2.65c1.46-2.2,6.68-.9,10.35.93a12.61,12.61,0,0,1,3.13,2.07c1.63,1.63,7.29,3.47,12.42,5.94A26.37,26.37,0,0,1,140,165.7C142,167.64,141.58,170.62,139.26,173Zm24.6-14.78c-4,2-20.48,7-23,0-.69-1.94.11-3.68,1.63-5.19.64-1.88,2.57-3.51,4.83-4.84a44.6,44.6,0,0,1,9.67-3.94,14.68,14.68,0,0,1,6.69-3.57,10,10,0,0,1,7.8,1.57c4.09,2.73,3.11,5.9.74,8.55C170.87,154,166.33,157,163.86,158.19Zm4.07-53.61c2.78,3.43,5.08,8.21,5.08,12.17,0,6.19-1.85,10.66-4.13,13.6a17.09,17.09,0,0,1-2.58,3.57c-2.1,2.23-4.4,3.29-5.93,3.29-3.5,0-11-3.5-12-17q0-.67-.06-1.32c0-.14,0-.27,0-.4,0-.29,0-.57,0-.85s0-.32,0-.48l.06-.71c0-.17.05-.33.08-.49s0-.44.09-.65.07-.32.11-.48l.12-.59c0-.16.09-.31.14-.46s.1-.38.16-.56l.15-.45c.07-.17.12-.35.19-.51l.18-.43.21-.48.21-.4c.07-.15.15-.31.23-.46l.22-.38c.08-.14.16-.28.25-.42l.23-.35.27-.4.25-.33c.09-.13.18-.25.28-.37l.09-.12a16.47,16.47,0,0,1,3.77-4.65A8.58,8.58,0,0,1,167.93,104.58Z"/><path class="cls-2" d="M100.3,68.33c0-.18,0-.35,0-.52C100.33,68,100.32,68.15,100.3,68.33Z"/><path class="cls-2" d="M100.54,66.65l.09-.43Z"/><path class="cls-2" d="M100.4,67.45c0-.15,0-.31.07-.45C100.44,67.14,100.42,67.3,100.4,67.45Z"/><path class="cls-2" d="M113.16,80.33a6.71,6.71,0,0,1-4.26,2.36A6.62,6.62,0,0,0,113.16,80.33Z"/><path class="cls-2" d="M100.26,69.26c0-.2,0-.4,0-.6C100.27,68.86,100.27,69.06,100.26,69.26Z"/><path class="cls-2" d="M101,65.17c0-.13.08-.25.13-.37C101,64.92,101,65,101,65.17Z"/><path class="cls-2" d="M100.3,70.51c0-.32,0-.64,0-1C100.26,69.87,100.28,70.19,100.3,70.51Z"/><path class="cls-2" d="M100.73,65.89c0-.13.07-.27.11-.4C100.8,65.62,100.77,65.76,100.73,65.89Z"/><path class="cls-2" d="M101.22,64.49l.15-.34Z"/><path class="cls-2" d="M102.57,62.18l.19-.26Z"/><path class="cls-2" d="M101.52,63.86c0-.11.11-.22.16-.32C101.63,63.64,101.57,63.75,101.52,63.86Z"/><path class="cls-2" d="M103.11,61.5l-.16.19.16-.19Z"/><path class="cls-2" d="M102.2,62.7l.18-.28Z"/><path class="cls-2" d="M101.85,63.26c.05-.1.11-.2.17-.3C102,63.06,101.9,63.16,101.85,63.26Z"/><path class="cls-2" d="M102.67,77.35a6.26,6.26,0,0,1,1,2.59,7.42,7.42,0,0,0,5.22,2.75,6.71,6.71,0,0,0,4.26-2.36,12.14,12.14,0,0,0,2-2.91c-1.6,1.89-3.43,2.79-4.63,2.79-2.51,0-7.88-2.5-8.6-12.18a12.46,12.46,0,0,1,1.16-6.53l-.16.19-.19.23-.19.26-.19.24-.18.28L102,63c-.06.1-.12.2-.17.3l-.17.28c-.05.1-.11.21-.16.32l-.15.29-.15.34c0,.11-.09.21-.13.31s-.09.24-.13.37l-.12.32c0,.13-.07.27-.11.4s-.07.22-.1.33l-.09.43c0,.11-.05.23-.07.35s0,.3-.07.45,0,.24-.05.36,0,.34,0,.52,0,.22,0,.33,0,.4,0,.6v.3c0,.31,0,.63,0,1a20.29,20.29,0,0,0,1.18,5.66A3.82,3.82,0,0,1,102.67,77.35Z"/><path class="cls-2" d="M121,96.67a10.71,10.71,0,0,1,1.89,0A7.34,7.34,0,0,0,125,93.74,17.91,17.91,0,0,1,121,96.67Z"/><path class="cls-2" d="M117.11,98.18c-4.62,1.4-11.74,2.54-13.1-1.26a2.82,2.82,0,0,1-.11-1.59c-1.32,1.16-2.09,2.53-1.54,4.07,1.35,3.79,8.42,2.67,13,1.28A6.12,6.12,0,0,1,117.11,98.18Z"/><path class="cls-2" d="M69.07,74.57h0l.06-.08Z"/><path class="cls-2" d="M82.07,74.14a.17.17,0,0,1,0,0,.06.06,0,0,1,0,0h0S82.08,74.12,82.07,74.14Z"/><path class="cls-2" d="M81.68,75a1.09,1.09,0,0,0,.08-.15,1.14,1.14,0,0,1-.1.19Z"/><path class="cls-2" d="M68.3,75.71h0v0Z"/><path class="cls-2" d="M81.88,74.61a.36.36,0,0,0,0-.09s0-.08,0-.13l-.09.22Z"/><path class="cls-2" d="M81.39,75.43a.35.35,0,0,1,0-.08l.07-.11-.12.19Z"/><path class="cls-2" d="M81.12,75.76a.64.64,0,0,0,.1-.13l-.13.17Z"/><path class="cls-2" d="M79.82,77.23A2.2,2.2,0,0,1,80,77,2.2,2.2,0,0,0,79.82,77.23Z"/><path class="cls-2" d="M79.41,77.71h0l.21-.26Z"/><path class="cls-2" d="M80.26,76.74c.08-.1.17-.19.25-.28C80.43,76.55,80.34,76.64,80.26,76.74Z"/><path class="cls-2" d="M80.75,76.2,80.9,76Z"/><path class="cls-2" d="M98.37,87.74s-11.47,5-13.26-1.07a5.59,5.59,0,0,1,.23-3.83c-1.54,1.65-2.62,3.79-1.88,6.3,1.79,6.1,13.26,1.08,13.26,1.08s3.67-1.92,4.94-5A13.93,13.93,0,0,1,98.37,87.74Z"/><path class="cls-2" d="M77.22,107.45c-9-4.73-8.76-9.63-7.57-12.4a1,1,0,0,0-.17.19s-7.53,7.52,6.09,14.69c10.44,5.49,17.29,1.73,18.31-2C91.1,110.43,85.21,111.66,77.22,107.45Z"/><path class="cls-2" d="M85.61,65.85c3.22,1.79,6.45,6.09,11.46,2.15a3.1,3.1,0,0,0,1.29-2.22,5.82,5.82,0,0,1-7,.31c-1.44-.84-2.76-2-4.08-2.72-1.51-.84-4.11-1.37-6.34-2.16a15.53,15.53,0,0,1-1.79-.76c-1,.49-2,1-3,1.55C78.28,64,83.26,64.55,85.61,65.85Z"/><path class="cls-2" d="M82.09,74.06a16.3,16.3,0,0,0-2.68,3.65l.21-.26.2-.22A2.2,2.2,0,0,1,80,77l.24-.26c.08-.1.17-.19.25-.28l.24-.26L80.9,76l.19-.22.13-.17c.06-.06.11-.13.17-.2l.12-.19.15-.22a1.14,1.14,0,0,0,.1-.19l.12-.22.09-.22c0-.08.07-.16.1-.25S82.08,74.09,82.09,74.06Z"/><path class="cls-2" d="M75.5,85.22a13.77,13.77,0,0,1-2.63,2.53c-2.33,1.71-4.55,2.17-5.32,1.78-1.44-.71-6.1-1.43,1.43-14.69.16-.28.32-.54.48-.8-.11.15-.23.3-.34.46l-.06.08c-.25.36-.5.73-.75,1.12v0c-.32.5-.65,1-1,1.6-7.53,13.26-2.87,14-1.44,14.69C67.16,92.64,72.33,91,75.5,85.22Z"/><path class="cls-2" d="M148.33,118.51c0-.29,0-.57,0-.85C148.33,117.94,148.33,118.22,148.33,118.51Z"/><path class="cls-2" d="M148.72,114.85l.12-.59Z"/><path class="cls-2" d="M151.53,108.63c.09-.13.18-.25.28-.37C151.71,108.38,151.62,108.5,151.53,108.63Z"/><path class="cls-2" d="M148.38,117.18l.06-.71Z"/><path class="cls-2" d="M148.52,116c0-.22,0-.44.09-.65C148.57,115.54,148.55,115.76,148.52,116Z"/><path class="cls-2" d="M166.3,133.92c-2.11,2.21-4.42,3.29-5.93,3.29C161.9,137.21,164.2,136.15,166.3,133.92Z"/><path class="cls-2" d="M151,109.36l.27-.4Z"/><path class="cls-2" d="M149.29,112.79c.07-.17.12-.35.19-.51C149.41,112.44,149.36,112.62,149.29,112.79Z"/><path class="cls-2" d="M149.66,111.85l.21-.48Z"/><path class="cls-2" d="M150.08,111c.07-.15.15-.31.23-.46C150.23,110.66,150.15,110.82,150.08,111Z"/><path class="cls-2" d="M150.53,110.13c.08-.14.16-.28.25-.42C150.69,109.85,150.61,110,150.53,110.13Z"/><path class="cls-2" d="M149,113.8c.05-.19.1-.38.16-.56C149.08,113.42,149,113.61,149,113.8Z"/><path class="cls-2" d="M148.38,120.23q0-.67-.06-1.32Q148.34,119.56,148.38,120.23Z"/><path class="cls-2" d="M162,134.73c-3.5,0-11-3.5-12-17a17.31,17.31,0,0,1,1.87-9.61l-.09.12c-.1.12-.19.24-.28.37l-.25.33-.27.4-.23.35c-.09.14-.17.28-.25.42l-.22.38c-.08.15-.16.31-.23.46l-.21.4-.21.48-.18.43c-.07.16-.12.34-.19.51l-.15.45c-.06.18-.11.37-.16.56s-.1.3-.14.46l-.12.59c0,.16-.08.32-.11.48s-.06.43-.09.65-.06.32-.08.49l-.06.71c0,.16,0,.32,0,.48s0,.56,0,.85c0,.13,0,.26,0,.4q0,.65.06,1.32c1,13.48,8.49,17,12,17,1.51,0,3.82-1.08,5.93-3.29a17.09,17.09,0,0,0,2.58-3.57C166.56,133.33,163.78,134.73,162,134.73Z"/><path class="cls-2" d="M165.51,155.71c-4,2-20.47,7-23,0a4,4,0,0,1,0-2.71c-1.52,1.51-2.32,3.25-1.63,5.19,2.49,7,19,2,23,0,2.47-1.24,7-4.18,8.39-7.42A24.63,24.63,0,0,1,165.51,155.71Z"/><path class="cls-2" d="M121.65,127.55l.14-.18a2,2,0,0,1-.18.23Z"/><path class="cls-2" d="M122.09,127l.11-.15-.18.25A.86.86,0,0,0,122.09,127Z"/><path class="cls-2" d="M103.79,127.48h0l0-.06Z"/><path class="cls-2" d="M104.86,125.89v0l.06-.09Z"/><path class="cls-2" d="M122.44,126.46c0-.07.07-.14.1-.2l-.14.26Z"/><path class="cls-2" d="M122.71,125.94l.06-.12a1.34,1.34,0,0,1,.07-.18c0,.1-.08.21-.13.3Z"/><path class="cls-2" d="M118.88,130.73h0a1.13,1.13,0,0,1,.1-.13Z"/><path class="cls-2" d="M119.84,129.58l.28-.31Z"/><path class="cls-2" d="M121.13,128.16l.21-.24Z"/><path class="cls-2" d="M119.26,130.27l.29-.36Z"/><path class="cls-2" d="M120.46,128.89c.12-.12.23-.25.34-.37C120.69,128.64,120.58,128.77,120.46,128.89Z"/><path class="cls-2" d="M145,145.22s-16,7-18.48-1.5a7.85,7.85,0,0,1,.53-5.82c-1.9,2.23-3.14,5-2.19,8.3,2.5,8.49,18.48,1.5,18.48,1.5s4.73-2.47,6.67-6.49A19.25,19.25,0,0,1,145,145.22Z"/><path class="cls-2" d="M115.57,172.69c-13.16-6.93-12.15-14.09-10.3-17.83-1.21,1.34-9,11,8.65,20.31,14,7.39,23.43,2.74,25.34-2.2C135.61,176.68,127.18,178.8,115.57,172.69Z"/><path class="cls-2" d="M135.21,115c-2-1.16-3.83-2.76-5.66-3.77-2.1-1.17-5.72-1.9-8.83-3-3.56-1.26-6.45-3-5.65-6.48a8.69,8.69,0,0,1,.32-1,6.44,6.44,0,0,0-2,3.53c-1.5,6.49,10,7,14.48,9.48s9,8.5,16,3a4.48,4.48,0,0,0,1.7-2.51l0,0C141.39,117.51,138.12,116.73,135.21,115Z"/><path class="cls-2" d="M118.88,130.73l.1-.12c.09-.12.18-.22.28-.34l.29-.36.29-.33.28-.31.34-.38c.12-.12.23-.25.34-.37l.33-.36.21-.24c.09-.11.19-.21.27-.32a2,2,0,0,0,.18-.23,3.25,3.25,0,0,0,.23-.29l.18-.25.2-.31.14-.26c.06-.11.12-.21.17-.32s.08-.2.13-.3v0A26.82,26.82,0,0,0,118.88,130.73Z"/><path class="cls-2" d="M113.53,141.25a19.85,19.85,0,0,1-4,4c-3.25,2.39-6.34,3-7.42,2.49-2-1-8.49-2,2-20.48.31-.54.61-1,.91-1.53l-.08.11-.06.09c-.34.48-.68,1-1,1.52l0,.06c-.45.7-.9,1.43-1.35,2.23-10.49,18.48-4,19.48-2,20.48C102.16,151.06,109.1,148.93,113.53,141.25Z"/><path class="cls-3" d="M102,68c.72,9.68,6.09,12.18,8.6,12.18,1.2,0,3-.9,4.63-2.79a15.31,15.31,0,0,0,3.26-10.11c0-2.84-1.65-6.27-3.65-8.73a6.16,6.16,0,0,0-8.79-.79,11.76,11.76,0,0,0-2.89,3.71h0A12.46,12.46,0,0,0,102,68Zm7.71,6.27c-2.18,0-3.94-2.73-3.94-6.09s1.76-6.09,3.94-6.09,3.94,2.72,3.94,6.09S111.83,74.3,109.66,74.3Z"/><path class="cls-4" d="M109.66,62.12c-2.18,0-3.94,2.72-3.94,6.09s1.76,6.09,3.94,6.09,3.94-2.73,3.94-6.09S111.83,62.12,109.66,62.12Z"/><path class="cls-3" d="M120,86.35c.76.26,5,5-3.94,8.24s-8.25-2.15-8.56-3.09c-1.76,1-3.24,2.33-3.56,3.83a2.82,2.82,0,0,0,.11,1.59c1.36,3.8,8.48,2.66,13.1,1.26A6.81,6.81,0,0,1,121,96.67a17.91,17.91,0,0,0,4-2.93c1.94-2,2.93-4.41-.19-6.5a7.15,7.15,0,0,0-5.59-1.13Z"/><path class="cls-4" d="M116,94.59c9-3.23,4.7-8,3.94-8.24l-.75-.24a10.58,10.58,0,0,0-4.81,2.57,31.91,31.91,0,0,0-6.94,2.82C107.77,92.44,107.06,97.82,116,94.59Z"/><path class="cls-3" d="M85.34,82.84a5.59,5.59,0,0,0-.23,3.83c1.79,6.09,13.26,1.07,13.26,1.07a13.93,13.93,0,0,0,3.29-2.54,6.43,6.43,0,0,0,2-5.26,6.26,6.26,0,0,0-1-2.59,3.82,3.82,0,0,0-1.19-1.18c-3.19-2-9.2.46-9.2.46S87,79,85.34,82.84Zm7.18-4.71c3.16-1.17,6.33-.46,7.08,1.59s-1.19,4.64-4.34,5.81-6.33.45-7.09-1.59S89.37,79.3,92.52,78.13Z"/><path class="cls-3" d="M89.72,99.17c4.76,8.06-9.81,4.88-13.39.22s2.19-6,2.23-6c-2.63-1.32-6.38-2.25-7.43-.67a8.22,8.22,0,0,0-1.48,2.29c-1.19,2.77-1.43,7.67,7.57,12.4,8,4.21,13.88,3,16.66.53,2-1.72,2.39-4.06.9-5.54A18.89,18.89,0,0,0,89.72,99.17Z"/><path class="cls-4" d="M76.33,99.39c3.58,4.66,18.15,7.84,13.39-.22C86,97.4,82,96.08,80.81,94.91a9,9,0,0,0-2.25-1.48S72.76,94.75,76.33,99.39Z"/><path class="cls-4" d="M88.17,83.94c.76,2,3.93,2.75,7.09,1.59s5.1-3.77,4.34-5.81S95.68,77,92.52,78.13,87.42,81.9,88.17,83.94Z"/><path class="cls-3" d="M91.34,66.09a5.82,5.82,0,0,0,7-.31l.37-.26c3.15-2.48.22-6.79-5-9.65A59.07,59.07,0,0,0,85,58.07a17.53,17.53,0,0,1,3.47,1.18C97.37,63.15,92.09,66.39,91.34,66.09Z"/><path class="cls-3" d="M80.92,61.21a3.69,3.69,0,0,1,0-1.58c-.62.26-1.22.54-1.81.82A15.53,15.53,0,0,0,80.92,61.21Z"/><path class="cls-4" d="M80.92,61.21c2.23.79,4.83,1.32,6.34,2.16,1.32.73,2.64,1.88,4.08,2.72.75.3,6-2.94-2.83-6.84A17.53,17.53,0,0,0,85,58.07c-1.42.48-2.79,1-4.1,1.56A3.69,3.69,0,0,0,80.92,61.21Z"/><path class="cls-3" d="M69,74.84c-7.53,13.26-2.87,14-1.43,14.69.77.39,3-.07,5.32-1.78a3.63,3.63,0,0,1-.84-.19s-4-5,4.66-13.26c4.46-4.27,5.73-3,5.93-.84l.09-.1.06-.07L83,73l0-.07a3.28,3.28,0,0,0,.2-.31l0-.07c.07-.12.13-.24.19-.37a.36.36,0,0,0,0-.09,3,3,0,0,0,.14-.36l0-.07c.05-.14.08-.29.12-.45s0-.07,0-.11a4.22,4.22,0,0,0-4.12-5h-.08l-.38,0h-.14l-.54.07-.12,0-.45.09-.2.06-.38.1-.24.09-.37.13-.26.12-.36.16-.28.15-.36.2-.29.18-.37.24-.29.22-.38.28-.3.25-.38.34-.31.28q-.19.18-.39.39l-.31.32-.39.44-.32.36-.41.51-.3.39c-.15.19-.29.4-.43.6s-.2.27-.29.41l-.49.73-.24.38-.25.43C69.3,74.3,69.14,74.56,69,74.84Z"/><path class="cls-4" d="M76.69,74.3C68.08,82.54,72,87.56,72,87.56a3.63,3.63,0,0,0,.84.19,13.77,13.77,0,0,0,2.63-2.53,17.23,17.23,0,0,0,2.8-5,19.45,19.45,0,0,1,1.11-2.5h0a16.3,16.3,0,0,1,2.68-3.65h0c.18-.2.36-.39.52-.59C82.42,71.25,81.15,70,76.69,74.3Z"/><path class="cls-3" d="M155.67,103.49a16.47,16.47,0,0,0-3.77,4.65,17.31,17.31,0,0,0-1.87,9.61c1,13.48,8.49,17,12,17,1.76,0,4.54-1.4,6.86-4.38s4.13-7.41,4.13-13.6c0-4-2.3-8.74-5.08-12.17A8.58,8.58,0,0,0,155.67,103.49Zm5.1,23c-3,0-5.5-3.8-5.5-8.49s2.46-8.49,5.5-8.49,5.49,3.8,5.49,8.49S163.8,126.49,160.77,126.49Z"/><ellipse class="cls-4" cx="160.77" cy="118" rx="5.49" ry="8.49"/><path class="cls-3" d="M171.51,142.22a10,10,0,0,0-7.8-1.57c.35.09.7.2,1,.32,1.06.37,7,7-5.49,11.49s-11.49-3-11.92-4.3c-2.26,1.33-4.19,3-4.83,4.84a4,4,0,0,0,0,2.71c2.5,7,19,2,23,0a24.63,24.63,0,0,0,6.74-4.94C174.62,148.12,175.6,145,171.51,142.22Z"/><path class="cls-4" d="M159.27,152.46c12.49-4.49,6.55-11.12,5.49-11.49-.35-.12-.7-.23-1-.32a14.68,14.68,0,0,0-6.69,3.57,44.6,44.6,0,0,0-9.67,3.94C147.78,149.47,146.79,157,159.27,152.46Z"/><path class="cls-3" d="M136.55,129.74s-7,3.07-9.46,8.16a7.85,7.85,0,0,0-.53,5.82c2.49,8.49,18.48,1.5,18.48,1.5a19.25,19.25,0,0,0,5-4c2.21-2.56,3.74-6.2,1-10.47C147.53,125.24,136.55,129.74,136.55,129.74Zm4.15,12.39c-4.4,1.63-8.82.64-9.87-2.21s1.66-6.47,6.06-8.09,8.82-.64,9.87,2.2S145.1,140.51,140.7,142.13Z"/><path class="cls-3" d="M133,161.15c6.64,11.23-13.67,6.79-18.66.3s3-8.28,3.11-8.31c-3.67-1.83-8.89-3.13-10.35-.93a10.89,10.89,0,0,0-1.81,2.65c-1.85,3.74-2.86,10.9,10.3,17.83,11.61,6.11,20,4,23.69.28,2.32-2.35,2.72-5.33.78-7.27A26.37,26.37,0,0,0,133,161.15Z"/><path class="cls-4" d="M114.32,161.45c5,6.49,25.3,10.93,18.66-.3-5.13-2.47-10.79-4.31-12.42-5.94a12.61,12.61,0,0,0-3.13-2.07C117.31,153.17,109.36,155,114.32,161.45Z"/><path class="cls-4" d="M136.89,131.83c-4.4,1.62-7.11,5.25-6.06,8.09s5.47,3.84,9.87,2.21,7.11-5.25,6.06-8.1S141.29,130.2,136.89,131.83Z"/><path class="cls-3" d="M121,96.67a6.81,6.81,0,0,0-3.86,1.51,6.12,6.12,0,0,0-1.71,2.5.06.06,0,0,0,0,0,8.69,8.69,0,0,0-.32,1c-.8,3.46,2.09,5.22,5.65,6.48,0,0-1.9-8.23,10.58-2.74s4.82,10,3.91,9.52h0c2.91,1.7,6.18,2.48,10.33-.78l0,0c6.88-5.52-7.57-17.45-22-17.45,0,0-.27,0-.7-.1A10.71,10.71,0,0,0,121,96.67Z"/><path class="cls-4" d="M135.21,115h0c.91.53,8.58-4-3.91-9.52s-10.59,2.74-10.58,2.74c3.11,1.11,6.73,1.84,8.83,3C131.38,112.27,133.21,113.87,135.21,115Z"/><path class="cls-3" d="M104.08,127.24c-10.49,18.48-4,19.48-2,20.48,1.08.53,4.17-.1,7.42-2.49a4.92,4.92,0,0,1-1.17-.26s-5.5-7,6.49-18.48c6.22-6,8-4.25,8.27-1.17l.13-.14.08-.1c.13-.16.26-.32.37-.47l.07-.11c.1-.13.2-.28.29-.42l.06-.1a4.25,4.25,0,0,0,.27-.52l.06-.12c.07-.16.14-.33.2-.5l0-.1a5.8,5.8,0,0,0,.16-.63.8.8,0,0,0,0-.15A5.86,5.86,0,0,0,119.1,115H119a4.53,4.53,0,0,0-.52,0h-.2l-.76.09-.16,0c-.21,0-.41.07-.62.12l-.29.08a5.26,5.26,0,0,0-.53.15l-.34.12-.5.18-.37.17c-.16.07-.33.14-.5.23l-.39.2-.5.28-.41.25-.51.34-.41.3-.52.4-.43.34-.52.47-.44.4-.53.53-.44.45-.55.62c-.15.16-.29.33-.44.5l-.57.71-.42.55c-.2.26-.41.55-.61.83l-.4.57c-.22.32-.45.67-.67,1l-.34.53s-.07.12-.11.18C104.69,126.2,104.39,126.7,104.08,127.24Z"/><path class="cls-4" d="M114.82,126.49c-12,11.49-6.49,18.48-6.49,18.48a4.92,4.92,0,0,0,1.17.26,19.85,19.85,0,0,0,4-4,24.3,24.3,0,0,0,3.54-6.52,25.79,25.79,0,0,1,1.81-4h0a26.82,26.82,0,0,1,4-5.13,3.22,3.22,0,0,0,.24-.28C122.82,122.24,121,120.53,114.82,126.49Z"/><path class="cls-5" d="M33.61,98.73A353.41,353.41,0,0,0,7.36,74.79,113.74,113.74,0,0,1,72.21,8.35c16,10,31.74,21,46.9,32.64a90.22,90.22,0,0,0-12-.78c-12.68,0-31.51,2.68-49.18,15.44C37,70.79,33.62,88.74,33.61,98.73Z"/><path class="cls-6" d="M72.17,8.81c15.48,9.7,30.76,20.31,45.48,31.58a90.59,90.59,0,0,0-10.5-.6c-12.74,0-31.66,2.7-49.42,15.53C37.3,70.07,33.44,87.5,33.21,97.74,25.15,89.65,16.63,81.9,7.85,74.66A113.33,113.33,0,0,1,72.17,8.81m.08-.92a114.36,114.36,0,0,0-65.38,67A350.48,350.48,0,0,1,34,99.74c-.23-10.54,3-28.5,24.18-43.75,17.27-12.48,35.63-15.37,48.94-15.37a89.65,89.65,0,0,1,13.45,1C103.42,28.32,87.05,17.15,72.25,7.89Z"/><path class="cls-7" d="M118.17,226.68C98,177.54,70.1,134.66,35.26,99.23c-.1-9.55,3-27.27,23.68-42.24,17.31-12.51,35.77-15.13,48.21-15.13a88.5,88.5,0,0,1,12.95.94A594.48,594.48,0,0,1,222.64,144.29,112.73,112.73,0,0,1,218,157.57C165.85,88.23,114,54.23,113.43,53.89l-.27-.17-.32,0c-2-.12-3.93-.18-5.82-.18a77.65,77.65,0,0,0-13.48,1.13,60.82,60.82,0,0,0-8.89,2.24c-1.45.49-2.86,1-4.2,1.6-.63.27-1.25.55-1.85.84-1,.48-2,1-3.07,1.59A49.9,49.9,0,0,0,51.23,94.4l-.08.55.36.43a511.79,511.79,0,0,1,79.85,130A112.33,112.33,0,0,1,118.17,226.68Z"/><path class="cls-8" d="M107.15,43.1A86,86,0,0,1,119.6,44,593.08,593.08,0,0,1,221.27,144.56c-1,3.56-2.21,7.09-3.57,10.53A526,526,0,0,0,147.27,79c-19.66-17.31-32.62-25.75-33.16-26.1l-.55-.35-.65,0c-2-.12-4-.18-5.89-.18a78,78,0,0,0-13.69,1.15,62.14,62.14,0,0,0-9.08,2.29c-1.48.49-2.92,1.05-4.29,1.63-.69.3-1.31.58-1.89.86-1,.5-2.11,1-3.15,1.63A51.19,51.19,0,0,0,50,94.21l-.17,1.11.72.86a511,511,0,0,1,79,128.25c-3.52.49-7.07.82-10.62,1C98.84,176.62,71.1,134,36.5,98.72c0-11.17,4.13-27,23.16-40.73,17-12.31,35.24-14.89,47.49-14.89m0-2.48c-13.31,0-31.67,2.89-48.94,15.37C37.08,71.24,33.8,89.2,34,99.74,75.85,142.16,101.7,189.63,117.35,228a115.09,115.09,0,0,0,15.76-1.55A514.83,514.83,0,0,0,52.46,94.59S55.71,73.49,76.14,62c1-.54,2-1.06,3-1.55.59-.28,1.19-.56,1.81-.82,1.31-.56,2.68-1.08,4.1-1.56a59.07,59.07,0,0,1,8.72-2.2A75.23,75.23,0,0,1,107,54.75c1.85,0,3.76.06,5.74.18,0,0,52.48,34,105.56,105.1A113.85,113.85,0,0,0,224,144,595.86,595.86,0,0,0,120.6,41.62a89.65,89.65,0,0,0-13.45-1Z"/></g></g></svg>