<?xml version="1.0" encoding="utf-8"?>
<!-- Generator: Adobe Illustrator 24.1.1, SVG Export Plug-In . SVG Version: 6.00 Build 0)  -->
<svg version="1.1" id="Layer_1" xmlns="http://www.w3.org/2000/svg" xmlns:xlink="http://www.w3.org/1999/xlink" x="0px" y="0px"
	 viewBox="0 0 239.9 239.9" style="enable-background:new 0 0 239.9 239.9;" xml:space="preserve">
<style type="text/css">
	.st0{fill:#EBF1F6;}
	.st1{clip-path:url(#SVGID_2_);}
	.st2{fill:#A8C3D9;stroke:#6D9BC0;stroke-width:3.6917;stroke-miterlimit:10.013;}
	.st3{fill:#1F659E;}
	.st4{fill:none;stroke:#6D9BC0;stroke-width:7.9573;stroke-miterlimit:10;}
</style>
<g id="Layer_2_1_">
	<g id="Layer_1-2">
		<circle class="st0" cx="120.2" cy="119.8" r="114.1"/>
		<g>
			<defs>
				<circle id="SVGID_1_" cx="122.2" cy="119.2" r="86.9"/>
			</defs>
			<clipPath id="SVGID_2_">
				<use xlink:href="#SVGID_1_"  style="overflow:visible;"/>
			</clipPath>
			<g class="st1">
				
					<ellipse transform="matrix(0.9887 -0.1498 0.1498 0.9887 -16.9982 19.643)" class="st2" cx="121.9" cy="122.7" rx="105.4" ry="105.1"/>
				<ellipse class="st3" cx="120.3" cy="55" rx="15.1" ry="20.8"/>
				<ellipse class="st3" cx="69.3" cy="43.6" rx="23.2" ry="28.3"/>
				<ellipse class="st3" cx="178.9" cy="141.8" rx="23.2" ry="28.3"/>
				
					<ellipse transform="matrix(0.9015 -0.4329 0.4329 0.9015 -59.2538 76.3155)" class="st3" cx="138" cy="168.3" rx="16.3" ry="20.8"/>
				<ellipse transform="matrix(0.9765 -0.2154 0.2154 0.9765 -14.6986 43.056)" class="st3" cx="190.2" cy="89" rx="17" ry="20.8"/>
				
					<ellipse transform="matrix(0.799 -0.6014 0.6014 0.799 -27.3981 95.922)" class="st3" cx="129.8" cy="88.9" rx="11.7" ry="8.4"/>
				
					<ellipse transform="matrix(0.799 -0.6014 0.6014 0.799 -26.616 151.2032)" class="st3" cx="212.8" cy="115.4" rx="11.7" ry="8.4"/>
				
					<ellipse transform="matrix(1 -1.919857e-03 1.919857e-03 1 -0.3953 0.2785)" class="st3" cx="144.9" cy="206" rx="8.4" ry="11.7"/>
				
					<ellipse transform="matrix(0.9785 -0.206 0.206 0.9785 -26.0643 25.8054)" class="st3" cx="110.9" cy="138.1" rx="8.4" ry="11.7"/>
				
					<ellipse transform="matrix(0.9785 -0.206 0.206 0.9785 -17.9505 35.4568)" class="st3" cx="161.3" cy="103.9" rx="6.8" ry="7.3"/>
				
					<ellipse transform="matrix(0.2343 -0.9722 0.9722 0.2343 -45.1336 140.4452)" class="st3" cx="66.6" cy="98.9" rx="8.8" ry="6.3"/>
				
					<ellipse transform="matrix(0.2343 -0.9722 0.9722 0.2343 -21.0224 329.7516)" class="st3" cx="198.8" cy="178.2" rx="8.8" ry="6.3"/>
				
					<ellipse transform="matrix(0.2343 -0.9722 0.9722 0.2343 -100.8729 273.6131)" class="st3" cx="123.3" cy="200.8" rx="8.8" ry="6.3"/>
				
					<ellipse transform="matrix(0.9492 -0.3147 0.3147 0.9492 -38.9658 16.8184)" class="st3" cx="32.6" cy="129.1" rx="8.8" ry="6.3"/>
				
					<ellipse transform="matrix(0.8221 -0.5693 0.5693 0.8221 -94.7191 75.9123)" class="st3" cx="74.1" cy="189.5" rx="8.8" ry="6.3"/>
				
					<ellipse transform="matrix(0.8221 -0.5693 0.5693 0.8221 0.8291 109.8035)" class="st3" cx="176.1" cy="53.6" rx="8.8" ry="6.3"/>
				
					<ellipse transform="matrix(0.9892 -0.1468 0.1468 0.9892 -17.5307 35.6482)" class="st3" cx="232.8" cy="136.6" rx="19.2" ry="13.7"/>
				<ellipse class="st3" cx="95.8" cy="92.7" rx="13.2" ry="20.8"/>
				<ellipse class="st3" cx="39.1" cy="92.7" rx="13.2" ry="20.8"/>
				
					<ellipse transform="matrix(0.9892 -0.1468 0.1468 0.9892 -16.5552 21.4857)" class="st3" cx="137.3" cy="122.9" rx="13.2" ry="20.8"/>
				
					<ellipse transform="matrix(0.9892 -0.1468 0.1468 0.9892 -27.2753 27.2914)" class="st3" cx="171.3" cy="198.5" rx="13.2" ry="20.8"/>
				
					<ellipse transform="matrix(0.9892 -0.1468 0.1468 0.9892 -8.7619 23.0954)" class="st3" cx="152.1" cy="70.9" rx="8" ry="13.1"/>
				
					<ellipse transform="matrix(0.4907 -0.8713 0.8713 0.4907 -97.2252 133.1176)" class="st3" cx="65.3" cy="149.7" rx="32" ry="20.4"/>
				
					<ellipse transform="matrix(0.5686 -0.8226 0.8226 0.5686 34.0449 142.4518)" class="st3" cx="152.8" cy="38.8" rx="13.2" ry="11.1"/>
				
					<ellipse transform="matrix(0.226 -0.9741 0.9741 0.226 -95.0116 239.6527)" class="st3" cx="103.3" cy="179.6" rx="20.8" ry="13.2"/>
			</g>
		</g>
		<circle class="st4" cx="120.2" cy="119.8" r="87.5"/>
	</g>
</g>
</svg>
