<svg xmlns="http://www.w3.org/2000/svg" viewBox="0 0 230 230"><defs><style>.cls-1{fill:#f4f7fa;stroke:#598db7;stroke-miterlimit:10;stroke-width:2px;}.cls-2{fill:#82a9c9;}.cls-3{opacity:0.15;isolation:isolate;}</style></defs><title>connective tissue</title><g id="Layer_2" data-name="Layer 2"><g id="Layer_1-2" data-name="Layer 1"><path class="cls-1" d="M169.22,66.1a54.48,54.48,0,0,0-2.91,15c5.17-4.74,10-10.26,15.38-15.32,8.13-7.62,15.64-14.73,25.29-18.13a114.7,114.7,0,0,0-13.43-15.27A70.6,70.6,0,0,0,169.22,66.1Z"/><path class="cls-1" d="M26.86,187.3a113.64,113.64,0,0,0,9.38,10.12c-2.42-6.49-5.45-12.85-7.63-19.43A69.15,69.15,0,0,0,26.86,187.3Z"/><path class="cls-1" d="M183.31,73c-5.37,5.65-10.51,11.59-16.46,16.62,2,11.41,8.76,21.54,11.43,32.88,2.71,11.55,1,23.45-1.45,35.21a46.81,46.81,0,0,0,6.22-4.16c7-5.64,12.1-14.26,11.87-23.29-.34-12.62-10.57-24.27-7.85-36.6,2.06-9.37,10.9-15.48,19.22-20.23A69.9,69.9,0,0,1,219,68.15a114.08,114.08,0,0,0-7.52-14,39,39,0,0,0-10.7,4.2C194.12,62.15,188.54,67.48,183.31,73Z"/><path class="cls-1" d="M212.63,152.39c-8,7.16-15.83,15.34-26.11,18.48a41.27,41.27,0,0,1-13,1.57c-2.93,13.48-4.83,28-.57,40.74A114.2,114.2,0,0,0,225.53,143,67.94,67.94,0,0,0,212.63,152.39Z"/><path class="cls-1" d="M165.83,172l-2.43-.24c-10.64,5.85-20.06,14.5-24.59,25.71a69.39,69.39,0,0,0-3.9,16.76c-.59,4.41-1,8.85-1.41,13.3a112.91,112.91,0,0,0,33.05-10.8C162.34,203.58,163.3,185.62,165.83,172Z"/><path class="cls-1" d="M112.21,30c-4.47,19.53,11.64,39.33,7.43,58.93-.09.39-.21.78-.31,1.17,8.66,1.63,17.4,3.42,25.28,2.37a33.55,33.55,0,0,0,14-5.33c-.12-.72-.23-1.43-.31-2.15-.87-7.2,1.45-15.25,3.74-22.1a80.14,80.14,0,0,1,25.35-36A113.45,113.45,0,0,0,136.42,3a70.42,70.42,0,0,0-7.7,4.59C120.94,13,114.33,20.77,112.21,30Z"/><path class="cls-1" d="M131,193.68c3.86-9.57,11.28-17.27,20-23a42.89,42.89,0,0,0-13.36,1.45c-5.77,1.7-10.9,5-16,8.25-9.5,6.13-19,12.21-28.88,17.76C81.69,204.41,69.88,210,57.21,210.94c-1.21.09-2.42.11-3.63.12A113.45,113.45,0,0,0,115,229c3.47,0,6.91-.16,10.3-.47q.54-9.08,1.75-18.09A69.39,69.39,0,0,1,131,193.68Z"/><path class="cls-1" d="M30.51,124.16c2.37-1.08,4.67-2.28,6.92-3.58,1.2-2,2.46-3.9,3.78-5.77,3.93-5.53,8.37-10.71,11.63-16.64s5.25-12.91,3.76-19.52c-1.7-7.48-7.47-13.25-11.23-20C40,49.11,39.28,37.29,42.68,26.88A114.07,114.07,0,0,0,1.6,126.72,43.79,43.79,0,0,0,30.51,124.16Z"/><path class="cls-1" d="M194.93,97.43c-2.72,12.33,7.52,24,7.85,36.61.25,9-4.81,17.65-11.87,23.28A58.83,58.83,0,0,1,179,164.38a32.53,32.53,0,0,0,4.42-1c10.29-3.16,18.1-11.32,26.11-18.48,5.31-4.77,11.38-9.33,18-11.66A115,115,0,0,0,229,115a113.72,113.72,0,0,0-7.73-41.34,54.12,54.12,0,0,0-7.11,3.54C205.83,82,197,88.06,194.93,97.43Z"/><path class="cls-1" d="M48.9,48.39a33.19,33.19,0,0,0,6.29,9.82C61.27,65.22,66,73.63,66,82.92c0,7.77-3.24,15-8,21.18-1.4,1.8-2.71,3.55-4,5.27,3-2.24,6.07-4.49,9.15-6.66C73.81,95.19,86.46,88.84,99.48,88a57.48,57.48,0,0,1,11.3.63,32.16,32.16,0,0,0,1-3.48c4.19-19.59-11.9-39.4-7.43-58.93,2.12-9.24,8.71-17,16.5-22.4,1.25-.86,2.53-1.66,3.83-2.44C121.49,1.15,118.26,1,115,1A113.39,113.39,0,0,0,51.68,20.2a42.53,42.53,0,0,0-2.44,6C47,33.05,46.23,41.69,48.9,48.39Z"/><path class="cls-1" d="M41.51,145c19.67-14.93,44.54-23.27,60.67-42a52.52,52.52,0,0,0,5-6.89,49,49,0,0,0-25.35,3.84c-14.15,6.22-26.12,17-39.25,25.32a63.91,63.91,0,0,0-9.45,27A77.68,77.68,0,0,1,41.51,145Z"/><path class="cls-1" d="M169.58,121.93c-2.11-9-6.51-18.22-9.23-27.45a37.91,37.91,0,0,1-18.08,6.34,73.82,73.82,0,0,1-20.55-2.19c-1.79-.42-3.54-.81-5.27-1.15a50.65,50.65,0,0,1-6.41,9.26c-16.12,18.69-41,27.05-60.66,42a60.9,60.9,0,0,0-14.22,14.39,39.92,39.92,0,0,0-2.06,3.43,61.31,61.31,0,0,0,4.12,16.64c2.86,7,7,13.58,10.56,20.3a54,54,0,0,0,6.36-.06c12.66-.9,24.47-6.54,35.54-12.76,9.86-5.55,19.37-11.64,28.88-17.76,5.06-3.26,10.19-6.55,15.94-8.25,9.06-2.66,18.67-1.11,28.19-.21l5.25-2.35C170.9,148.42,172.88,135.93,169.58,121.93Z"/><path class="cls-1" d="M32,131.1a49.5,49.5,0,0,1-29.4,2.75,113.51,113.51,0,0,0,17.35,44,53.2,53.2,0,0,1,5.73-15.84A70.62,70.62,0,0,1,32,131.1Z"/><path class="cls-2" d="M170.8,172.34c-1.65-.09-3.31-.22-5-.37-2.53,13.65-3.49,31.61.72,44.73,1.24-.62,2.46-1.28,3.67-1.95C166.32,201.31,168.19,184.84,170.8,172.34Z"/><path class="cls-2" d="M175.84,123.37c-2.44-10.39-8.71-21.16-11.34-31.81-1.34,1-2.72,2-4.15,2.92,2.72,9.23,7.12,18.49,9.23,27.45,3.3,14,1.32,26.49-1.64,40.16,2-.88,3.94-1.78,5.85-2.75C176.57,147.32,178.72,135.65,175.84,123.37Z"/><path class="cls-2" d="M162,62.9c-2.29,6.85-4.61,14.9-3.74,22.1.08.72.19,1.43.31,2.15a52.63,52.63,0,0,0,4.67-3.42,46.83,46.83,0,0,1,2.3-18.25,80.29,80.29,0,0,1,25.08-35.75q-1.6-1.43-3.27-2.79A80.14,80.14,0,0,0,162,62.9Z"/><path class="cls-2" d="M178.28,122.51c-2.67-11.34-9.41-21.47-11.43-32.88-.52.45-1,.89-1.57,1.32l-.78.61c2.63,10.65,8.9,21.42,11.34,31.81,2.88,12.28.73,23.95-2.05,36,1-.52,2-1.06,3-1.62C179.31,146,181,134.06,178.28,122.51Z"/><path class="cls-3" d="M178.28,122.51c-2.67-11.34-9.41-21.47-11.43-32.88-.52.45-1,.89-1.57,1.32l-.78.61c2.63,10.65,8.9,21.42,11.34,31.81,2.88,12.28.73,23.95-2.05,36,1-.52,2-1.06,3-1.62C179.31,146,181,134.06,178.28,122.51Z"/><path class="cls-2" d="M165.58,65.48a46.83,46.83,0,0,0-2.3,18.25c1-.84,2-1.72,3-2.63a54.48,54.48,0,0,1,2.91-15,70.6,70.6,0,0,1,24.33-33.72c-1-.9-1.91-1.78-2.89-2.65A80.29,80.29,0,0,0,165.58,65.48Z"/><path class="cls-3" d="M165.58,65.48a46.83,46.83,0,0,0-2.3,18.25c1-.84,2-1.72,3-2.63a54.48,54.48,0,0,1,2.91-15,70.6,70.6,0,0,1,24.33-33.72c-1-.9-1.91-1.78-2.89-2.65A80.29,80.29,0,0,0,165.58,65.48Z"/><path class="cls-2" d="M173.53,172.44c-.91,0-1.82-.05-2.73-.1-2.61,12.5-4.48,29-.58,42.41.92-.51,1.83-1,2.74-1.57C168.7,200.46,170.6,185.92,173.53,172.44Z"/><path class="cls-3" d="M173.53,172.44c-.91,0-1.82-.05-2.73-.1-2.61,12.5-4.48,29-.58,42.41.92-.51,1.83-1,2.74-1.57C168.7,200.46,170.6,185.92,173.53,172.44Z"/><path class="cls-2" d="M99.71,93.16a51.69,51.69,0,0,1,9,.34,36.18,36.18,0,0,0,2.08-4.84A57.48,57.48,0,0,0,99.48,88c-13,.81-25.67,7.16-36.33,14.68-3.08,2.17-6.11,4.42-9.15,6.66-2.7,3.65-5.22,7.23-8,11,5.88-4,11.54-8.45,17.37-12.57C74.05,100.31,86.7,94,99.71,93.16Z"/><path class="cls-2" d="M166.31,81.1c-1,.91-2,1.79-3,2.63a52.63,52.63,0,0,1-4.67,3.42,33.55,33.55,0,0,1-14,5.33c-7.88,1-16.62-.74-25.28-2.37a32.13,32.13,0,0,1-1.65,4.78c9.27,1.71,18.71,3.84,27.16,2.72C161,95.46,170.07,82,181.93,70.91c8.88-8.33,17-16.06,28-19q-1.44-2.18-3-4.28c-9.65,3.4-17.16,10.51-25.29,18.13C176.31,70.84,171.48,76.36,166.31,81.1Z"/><path class="cls-2" d="M30.74,129.29c.89-.4,1.76-.83,2.63-1.27,1.24-2.54,2.6-5,4.06-7.44-2.25,1.3-4.55,2.5-6.92,3.58A43.79,43.79,0,0,1,1.6,126.72c.18,1.76.4,3.51.66,5.24A43.81,43.81,0,0,0,30.74,129.29Z"/><path class="cls-2" d="M107.23,96.09c.52-.85,1-1.71,1.47-2.59a51.69,51.69,0,0,0-9-.34c-13,.81-25.66,7.15-36.33,14.67C57.55,112,51.89,116.36,46,120.4L44.84,122c-.78,1-1.51,2.13-2.21,3.23,13.13-8.34,25.1-19.1,39.25-25.32A49,49,0,0,1,107.23,96.09Z"/><path class="cls-3" d="M107.23,96.09c.52-.85,1-1.71,1.47-2.59a51.69,51.69,0,0,0-9-.34c-13,.81-25.66,7.15-36.33,14.67C57.55,112,51.89,116.36,46,120.4L44.84,122c-.78,1-1.51,2.13-2.21,3.23,13.13-8.34,25.1-19.1,39.25-25.32A49,49,0,0,1,107.23,96.09Z"/><path class="cls-2" d="M32,131.1c.45-1,.92-2.06,1.41-3.08-.87.44-1.74.87-2.63,1.27A43.81,43.81,0,0,1,2.26,132c.09.64.2,1.26.3,1.89A49.5,49.5,0,0,0,32,131.1Z"/><path class="cls-3" d="M32,131.1c.45-1,.92-2.06,1.41-3.08-.87.44-1.74.87-2.63,1.27A43.81,43.81,0,0,1,2.26,132c.09.64.2,1.26.3,1.89A49.5,49.5,0,0,0,32,131.1Z"/><path class="cls-2" d="M144.84,97.61c-8.45,1.12-17.89-1-27.16-2.72-.37.88-.79,1.74-1.23,2.59,1.73.34,3.48.73,5.27,1.15a73.82,73.82,0,0,0,20.55,2.19,37.91,37.91,0,0,0,18.08-6.34c1.43-.91,2.81-1.89,4.15-2.92l.78-.61c.54-.43,1.05-.87,1.57-1.32,6-5,11.09-11,16.46-16.62s10.81-10.86,17.43-14.62a39,39,0,0,1,10.7-4.2c-.48-.76-1-1.51-1.47-2.26-11,2.92-19.16,10.65-28,19C170.07,82,161,95.46,144.84,97.61Z"/><path class="cls-3" d="M144.84,97.61c-8.45,1.12-17.89-1-27.16-2.72-.37.88-.79,1.74-1.23,2.59,1.73.34,3.48.73,5.27,1.15a73.82,73.82,0,0,0,20.55,2.19,37.91,37.91,0,0,0,18.08-6.34c1.43-.91,2.81-1.89,4.15-2.92l.78-.61c.54-.43,1.05-.87,1.57-1.32,6-5,11.09-11,16.46-16.62s10.81-10.86,17.43-14.62a39,39,0,0,1,10.7-4.2c-.48-.76-1-1.51-1.47-2.26-11,2.92-19.16,10.65-28,19C170.07,82,161,95.46,144.84,97.61Z"/><path class="cls-2" d="M25.64,162.05a53.2,53.2,0,0,0-5.73,15.84q2.06,3.09,4.29,6A63.4,63.4,0,0,1,27,172.14,55.81,55.81,0,0,1,25.64,162.05Z"/><path class="cls-2" d="M28.6,178a69,69,0,0,0-1.75,9.32h0A69.15,69.15,0,0,1,28.61,178Z"/><path class="cls-2" d="M112.2,30c-4.47,19.53,11.64,39.33,7.42,58.93-1.43,6.66-5.14,12.63-9.6,17.8-16.12,18.69-41,27.05-60.66,42a60.9,60.9,0,0,0-14.22,14.39c-.74,1.1-1.41,2.25-2,3.41v0a39.92,39.92,0,0,1,2.06-3.43,60.9,60.9,0,0,1,14.22-14.39c19.66-14.93,44.54-23.29,60.66-42a50.65,50.65,0,0,0,6.41-9.26c.44-.85.86-1.71,1.23-2.59a32.13,32.13,0,0,0,1.65-4.78c.1-.39.22-.78.31-1.17,4.21-19.6-11.9-39.4-7.43-58.93,2.12-9.24,8.73-17,16.51-22.4A70.42,70.42,0,0,1,136.42,3h0a70.56,70.56,0,0,0-7.71,4.59C120.92,13,114.32,20.77,112.2,30Z"/><path class="cls-2" d="M104.35,26.25C99.88,45.78,116,65.59,111.78,85.18a32.16,32.16,0,0,1-1,3.48,36.18,36.18,0,0,1-2.08,4.84c-.46.88-1,1.74-1.47,2.59a52.52,52.52,0,0,1-5,6.89c-16.13,18.71-41,27.05-60.67,42a77.68,77.68,0,0,0-8.33,7.25,63.86,63.86,0,0,0-.43,8.41,62.23,62.23,0,0,1,13.76-13.73c19.66-14.93,44.53-23.27,60.66-42,4.44-5.16,7.75-10,9.17-16.66,4.2-19.58-11.48-40.54-7-60.07,2.12-9.24,8.71-17,16.5-22.4,1.85-1.28,3.65-2.48,5.45-3.62q-3.27-.47-6.6-.75c-1.3.78-2.58,1.58-3.83,2.44C113.06,9.28,106.47,17,104.35,26.25Z"/><path class="cls-2" d="M109.33,28.18c-4.47,19.53,11.21,40.49,7,60.07-1.42,6.66-4.73,11.5-9.17,16.66-16.13,18.71-41,27.05-60.66,42a62.23,62.23,0,0,0-13.76,13.73c0,2,.14,3.94.35,5.9.63-1.16,1.3-2.31,2-3.41a60.9,60.9,0,0,1,14.22-14.39C69,133.79,93.9,125.43,110,106.74c4.46-5.17,8.17-11.14,9.6-17.8,4.22-19.6-11.89-39.4-7.42-58.93,2.12-9.24,8.72-17,16.5-22.4A70.56,70.56,0,0,1,136.41,3c-1.69-.32-3.4-.61-5.13-.86-1.8,1.14-3.6,2.34-5.45,3.62C118,11.21,111.45,18.94,109.33,28.18Z"/><path class="cls-3" d="M109.33,28.18c-4.47,19.53,11.21,40.49,7,60.07-1.42,6.66-4.73,11.5-9.17,16.66-16.13,18.71-41,27.05-60.66,42a62.23,62.23,0,0,0-13.76,13.73c0,2,.14,3.94.35,5.9.63-1.16,1.3-2.31,2-3.41a60.9,60.9,0,0,1,14.22-14.39C69,133.79,93.9,125.43,110,106.74c4.46-5.17,8.17-11.14,9.6-17.8,4.22-19.6-11.89-39.4-7.42-58.93,2.12-9.24,8.72-17,16.5-22.4A70.56,70.56,0,0,1,136.41,3c-1.69-.32-3.4-.61-5.13-.86-1.8,1.14-3.6,2.34-5.45,3.62C118,11.21,111.45,18.94,109.33,28.18Z"/><path class="cls-2" d="M27.06,172.56l-.09-.42a63.4,63.4,0,0,0-2.77,11.79q1.29,1.69,2.65,3.36A69,69,0,0,1,28.6,178C28,176.18,27.49,174.38,27.06,172.56Z"/><path class="cls-3" d="M27.06,172.56l-.09-.42a63.4,63.4,0,0,0-2.77,11.79q1.29,1.69,2.65,3.36A69,69,0,0,1,28.6,178C28,176.18,27.49,174.38,27.06,172.56Z"/><path class="cls-2" d="M134.5,164.65c-5.75,1.7-10.88,5-15.94,8.25-9.51,6.12-19,12.21-28.88,17.76-11.07,6.22-22.88,11.86-35.54,12.76a54,54,0,0,1-6.36.06q1.3,2.46,2.48,5a53.47,53.47,0,0,0,6.2-.07c12.66-.9,24.48-6.54,35.54-12.76,9.86-5.55,19.38-11.63,28.88-17.76,5.06-3.26,10.19-6.55,16-8.25s11.84-1.68,17.93-1.2c.86-.49,1.74-1,2.62-1.42,1.74-.9,3.52-1.73,5.31-2.54C153.17,163.54,143.56,162,134.5,164.65Z"/><path class="cls-2" d="M183.44,163.35a32.53,32.53,0,0,1-4.42,1c-3.8,1.79-7.71,3.41-11.49,5.23,6.21.48,12.35.5,18.24-1.31,10.28-3.15,18.09-11.32,26.1-18.48a63.66,63.66,0,0,1,14.46-10.19q.69-3.18,1.22-6.42c-6.62,2.33-12.69,6.89-18,11.66C201.54,152,193.73,160.19,183.44,163.35Z"/><path class="cls-2" d="M185.77,168.3c-5.89,1.81-12,1.79-18.24,1.31-.77.37-1.53.74-2.29,1.13s-1.23.65-1.84,1l2.43.24c1.66.15,3.32.28,5,.37.91,0,1.82.09,2.73.1a41.27,41.27,0,0,0,13-1.57c10.28-3.14,18.08-11.32,26.11-18.48a67.94,67.94,0,0,1,12.9-9.4c.29-1.11.55-2.23.8-3.36a63.66,63.66,0,0,0-14.46,10.19C203.86,157,196.05,165.15,185.77,168.3Z"/><path class="cls-3" d="M185.77,168.3c-5.89,1.81-12,1.79-18.24,1.31-.77.37-1.53.74-2.29,1.13s-1.23.65-1.84,1l2.43.24c1.66.15,3.32.28,5,.37.91,0,1.82.09,2.73.1a41.27,41.27,0,0,0,13-1.57c10.28-3.14,18.08-11.32,26.11-18.48a67.94,67.94,0,0,1,12.9-9.4c.29-1.11.55-2.23.8-3.36a63.66,63.66,0,0,0-14.46,10.19C203.86,157,196.05,165.15,185.77,168.3Z"/><path class="cls-2" d="M57.21,210.94c12.67-.9,24.48-6.53,35.54-12.76,9.85-5.55,19.38-11.63,28.88-17.76,5.05-3.25,10.18-6.55,16-8.25a42.89,42.89,0,0,1,13.36-1.45q1.88-1.23,3.82-2.32c-6.09-.48-12.13-.5-17.93,1.2s-10.89,5-16,8.25c-9.5,6.13-19,12.21-28.88,17.76-11.06,6.22-22.88,11.86-35.54,12.76a53.47,53.47,0,0,1-6.2.07l.27.58c1,.69,2,1.38,3,2C54.79,211.05,56,211,57.21,210.94Z"/><path class="cls-3" d="M57.21,210.94c12.67-.9,24.48-6.53,35.54-12.76,9.85-5.55,19.38-11.63,28.88-17.76,5.05-3.25,10.18-6.55,16-8.25a42.89,42.89,0,0,1,13.36-1.45q1.88-1.23,3.82-2.32c-6.09-.48-12.13-.5-17.93,1.2s-10.89,5-16,8.25c-9.5,6.13-19,12.21-28.88,17.76-11.06,6.22-22.88,11.86-35.54,12.76a53.47,53.47,0,0,1-6.2.07l.27.58c1,.69,2,1.38,3,2C54.79,211.05,56,211,57.21,210.94Z"/><path class="cls-2" d="M31.12,173.75c-4.69-19.89,1.6-41.71,15.26-58.57A114.15,114.15,0,0,0,58,98.54c3.25-5.94,6.27-11.86,4.78-18.47a47.76,47.76,0,0,0-10.71-21C42.58,48.68,42.39,35,47,23.54q-2.18,1.62-4.27,3.34C39.28,37.29,40,49.11,45.37,58.7c3.76,6.7,9.53,12.47,11.23,20,1.49,6.61-.51,13.58-3.76,19.52s-7.7,11.11-11.63,16.64c-1.32,1.87-2.58,3.8-3.78,5.77C36,123,34.61,125.48,33.37,128c-.49,1-1,2-1.41,3.08a70.62,70.62,0,0,0-6.32,31A55.81,55.81,0,0,0,27,172.14l.09.42c.43,1.82,1,3.62,1.54,5.41v0c2.18,6.58,5.21,12.94,7.63,19.43q4.09,3.9,8.56,7.4C39.69,194.65,33.59,184.2,31.12,173.75Z"/><path class="cls-2" d="M47.78,203.48c-3.58-6.72-7.7-13.26-10.56-20.3a61.31,61.31,0,0,1-4.12-16.64v0c-.21-2-.32-3.93-.35-5.9a65.07,65.07,0,0,1,9.88-35.37c.7-1.1,1.43-2.18,2.21-3.23L46,120.4c2.77-3.8,5.29-7.38,8-11,1.27-1.72,2.58-3.47,4-5.27,4.77-6.14,8-13.41,8-21.18,0-9.29-4.72-17.7-10.8-24.71a33.19,33.19,0,0,1-6.29-9.82c-2.67-6.7-1.86-15.34.34-22.22a42.53,42.53,0,0,1,2.44-6q-2.4,1.61-4.73,3.34C42.39,35,42.58,48.68,52.08,59.11a47.76,47.76,0,0,1,10.71,21C64.28,86.68,61.26,92.6,58,98.54a114.15,114.15,0,0,1-11.63,16.64c-13.66,16.86-20,38.68-15.26,58.57,2.47,10.45,8.57,20.9,13.68,31.07q2.79,2.19,5.73,4.2l-.27-.58Q49.09,205.94,47.78,203.48Z"/><path class="cls-3" d="M47.78,203.48c-3.58-6.72-7.7-13.26-10.56-20.3a61.31,61.31,0,0,1-4.12-16.64v0c-.21-2-.32-3.93-.35-5.9a65.07,65.07,0,0,1,9.88-35.37c.7-1.1,1.43-2.18,2.21-3.23L46,120.4c2.77-3.8,5.29-7.38,8-11,1.27-1.72,2.58-3.47,4-5.27,4.77-6.14,8-13.41,8-21.18,0-9.29-4.72-17.7-10.8-24.71a33.19,33.19,0,0,1-6.29-9.82c-2.67-6.7-1.86-15.34.34-22.22a42.53,42.53,0,0,1,2.44-6q-2.4,1.61-4.73,3.34C42.39,35,42.58,48.68,52.08,59.11a47.76,47.76,0,0,1,10.71,21C64.28,86.68,61.26,92.6,58,98.54a114.15,114.15,0,0,1-11.63,16.64c-13.66,16.86-20,38.68-15.26,58.57,2.47,10.45,8.57,20.9,13.68,31.07q2.79,2.19,5.73,4.2l-.27-.58Q49.09,205.94,47.78,203.48Z"/><path class="cls-2" d="M136.36,196.27c4.79-11.87,15-20.87,26.44-26.71,8.61-4.43,18.11-7.37,25.66-13.41,7.06-5.65,12.1-14.27,11.87-23.29-.34-12.62-10.57-24.27-7.85-36.61,2.07-9.37,10.9-15.48,19.23-20.22a60.61,60.61,0,0,1,8.81-4.24c-.5-1.22-1-2.44-1.56-3.64a69.9,69.9,0,0,0-12.67,5.29C198,78.19,189.13,84.3,187.07,93.67c-2.72,12.33,7.51,24,7.85,36.6.23,9-4.82,17.65-11.87,23.29a46.81,46.81,0,0,1-6.22,4.16c-1,.56-2,1.1-3,1.62-1.91,1-3.87,1.87-5.85,2.75l-5.25,2.35c-1.79.81-3.57,1.64-5.31,2.54-.88.45-1.76.93-2.62,1.42q-1.95,1.09-3.82,2.32c-8.71,5.69-16.13,13.39-20,23a69.39,69.39,0,0,0-3.9,16.76q-1.22,9-1.75,18.09,2.83-.25,5.64-.64.54-7.45,1.52-14.87A69.78,69.78,0,0,1,136.36,196.27Z"/><path class="cls-2" d="M138.81,197.44c4.53-11.21,13.95-19.86,24.59-25.71.61-.34,1.22-.67,1.84-1s1.52-.76,2.29-1.13c3.78-1.82,7.69-3.44,11.49-5.23a58.83,58.83,0,0,0,11.89-7.06C198,151.69,203,143.06,202.78,134c-.33-12.63-10.57-24.28-7.85-36.61C197,88.06,205.83,82,214.16,77.2a54.12,54.12,0,0,1,7.11-3.54l-.75-1.87A60.61,60.61,0,0,0,211.71,76c-8.33,4.74-17.16,10.85-19.23,20.22-2.72,12.34,7.51,24,7.85,36.61.23,9-4.81,17.64-11.87,23.29-7.55,6-17.05,9-25.66,13.41-11.4,5.84-21.65,14.84-26.44,26.71a69.78,69.78,0,0,0-3.9,16.75q-1,7.41-1.52,14.87c.86-.12,1.71-.25,2.56-.39.36-4.45.82-8.89,1.41-13.3A69.39,69.39,0,0,1,138.81,197.44Z"/><path class="cls-3" d="M138.81,197.44c4.53-11.21,13.95-19.86,24.59-25.71.61-.34,1.22-.67,1.84-1s1.52-.76,2.29-1.13c3.78-1.82,7.69-3.44,11.49-5.23a58.83,58.83,0,0,0,11.89-7.06C198,151.69,203,143.06,202.78,134c-.33-12.63-10.57-24.28-7.85-36.61C197,88.06,205.83,82,214.16,77.2a54.12,54.12,0,0,1,7.11-3.54l-.75-1.87A60.61,60.61,0,0,0,211.71,76c-8.33,4.74-17.16,10.85-19.23,20.22-2.72,12.34,7.51,24,7.85,36.61.23,9-4.81,17.64-11.87,23.29-7.55,6-17.05,9-25.66,13.41-11.4,5.84-21.65,14.84-26.44,26.71a69.78,69.78,0,0,0-3.9,16.75q-1,7.41-1.52,14.87c.86-.12,1.71-.25,2.56-.39.36-4.45.82-8.89,1.41-13.3A69.39,69.39,0,0,1,138.81,197.44Z"/></g></g></svg>