<svg xmlns="http://www.w3.org/2000/svg" viewBox="0 0 228 228"><defs><style>.cls-1{fill:#acc6db;}.cls-2{fill:#74a0c3;stroke:#e4edf3;stroke-width:6.36px;}.cls-2,.cls-3,.cls-4{stroke-miterlimit:10;}.cls-3,.cls-5{fill:#e4edf3;}.cls-3,.cls-4{stroke:#acc6db;stroke-width:1.27px;}.cls-4{fill:none;}</style></defs><title>embryo</title><g id="Layer_2" data-name="Layer 2"><g id="Layer_1-2" data-name="Layer 1"><circle class="cls-1" cx="114" cy="114" r="113.55"/><path d="M114,.9A113.11,113.11,0,0,1,194,194,113.11,113.11,0,0,1,34,34,112.39,112.39,0,0,1,114,.9m0-.9A114,114,0,1,0,228,114,114,114,0,0,0,114,0Z"/><path class="cls-2" d="M65.67,129.34s16.54-25.44,14-45.8S98,44,121.64,44.11c22.7.11,35.62,11.45,39.43,36.89s2.55,33.07,3.82,38.16-7.63,66.14-56,64.87S59.31,145.87,65.67,129.34Z"/><path class="cls-3" d="M139.45,91.18S145.17,71.46,126.73,67c-17.36-4.19-31.62,2.56-33.07,20.35-1.16,14.14,4,8.79,5.08,14.26.76,3.88-6.2,5.19-8.9,6.09-3.82,1.27-3.82,8.91,0,8.91s12.72,3.81,11.45,6.36-2.55,11.44-2.55,14c0,0-6.36,0-6.36,1.27s-5.08-14-10.17-8.9-3.82,5.08,0,8.9,5.09,15.26,8.9,16.54,26.71,15.26,47.07-8.91,5.08-44.52,3.81-49.61S139.45,91.18,139.45,91.18Z"/><path class="cls-4" d="M97.71,105.46s3.58,1,6.12,6.07,11.67,4,15.27,1.27c1.43-1.08,11.44-1.27,10.17,5.09s-12.72,8.9-15.26,8.9-10.14-2-12.7-4.84S91,117.69,89.12,116.51s-.71-7.18,0-8S97.71,105.46,97.71,105.46Z"/><path class="cls-5" d="M80.94,98.81s-1.47,15,6.36,21.62c8.26,7,14.72,12.72,14.72,12.72L100,135s-8.89-6.94-14-10.75-7.63-7.63-8.9-24.17"/><path class="cls-4" d="M98.74,137s2,0,9.64-2.55,17.77-5.08,20.89-2.54,3.82,11.45-7.63,16.54-18.77,4.13-29.26,1.27c-7-1.91-8.58-9.43-8.58-9.43"/><circle class="cls-1" cx="103.83" cy="92.99" r="2.54"/></g></g></svg>