<svg xmlns="http://www.w3.org/2000/svg" viewBox="0 0 228 228"><defs><style>.cls-1{fill:#f4f7fa;}.cls-2{fill:#7ba4c6;}.cls-3{fill:#c5d7e6;}.cls-4{fill:#729ec2;}</style></defs><title>epithelium</title><g id="Layer_2" data-name="Layer 2"><g id="Layer_1-2" data-name="Layer 1"><path class="cls-1" d="M168.63,202.53,32.38,132.67v-24l.06-.11C36.27,101.44,45.53,95.19,60,90a146.65,146.65,0,0,1,20.31-5.64c3.9-6.23,12.85-11.14,26.6-14.57a136.08,136.08,0,0,1,19.4-3.3c1.09-2.31,9.19-18.08,27.37-17.66a47,47,0,0,1,21.77,5.5,29.63,29.63,0,0,1,6.94,5.06c4.72.35,34.27,14.6,38.13,16.47l1,.08A114,114,0,1,0,204.6,183.19Z"/><path class="cls-2" d="M169.68,193.83l-136.3-68v6.22L168.62,201.4,206,181.29a115,115,0,0,0,7.38-11.44L169.92,194Z"/><path class="cls-3" d="M139.81,149.55c-2.11,2.85-7.22,10.16-7.39,12.39l36.85,19.87,46.22-26.47C189.19,135.44,142.81,148.67,139.81,149.55Zm38.47,13.74c-1,3.29-6.06,4.7-11.39,3.15S158,161,159,157.66s6.06-4.71,11.39-3.15S179.24,160,178.28,163.29Z"/><path class="cls-3" d="M139,117.89c-5.31-.33-53.19-3.5-59.29-6-2.74,3.92-9,13.37-9.54,16.43l61.32,33.08c.75-3.26,6.45-11,7.51-12.48Zm-15.33,16.72c-1,3.3-6.06,4.71-11.39,3.15s-8.88-5.48-7.92-8.78,6.06-4.7,11.39-3.15S124.63,131.32,123.67,134.61Z"/><path class="cls-3" d="M180.33,143.52c-1.38-5.44,2.73-31.89,3.79-38.51-2.77-.76-18-5.33-25.77-14.77a8.5,8.5,0,0,1-2.51.29c-4.07,0-10.61-1.29-13.27-1.86,1.46,4.67-.12,21.42-1.47,26.65a4.72,4.72,0,0,1-1.1,2.43v30.71C143.57,147.44,161.23,142.76,180.33,143.52Zm-28.77-26.44c.95-3.3,6.06-4.71,11.39-3.15s8.88,5.48,7.92,8.77-6.06,4.71-11.39,3.15S150.6,120.37,151.56,117.08Z"/><path class="cls-3" d="M159,89.49c8,9.8,24.29,14.28,25.68,14.65,8.24-1.29,31.2-24,34.81-27.65-9.89-4.78-34-16.08-37.25-16.12A40,40,0,0,0,159,89.49Zm20.75-12.35c1-3.29,6.06-4.7,11.39-3.15s8.88,5.48,7.92,8.78-6.06,4.7-11.39,3.15S178.82,80.43,179.78,77.14Z"/><polygon class="cls-3" points="131.37 162.51 70.12 129.47 70.12 142.72 69.46 142.72 130.62 173.23 131.37 162.51"/><path class="cls-3" d="M79.83,110.89c3,2.17,54.62,5.8,59.61,6,1.25-1.21,3.08-16,2.69-24.47-.17-3.66-.72-4-.74-4-2.64-1.32-13.4-10.84-15.17-20.91-4.14.39-36.76,3.84-45.15,17.5C79.39,94.19,77.57,109.26,79.83,110.89Zm24.53-19.81c1-3.29,6.06-4.7,11.39-3.15s8.88,5.48,7.92,8.78-6.06,4.7-11.39,3.15S103.4,94.37,104.36,91.08Z"/><path class="cls-3" d="M169.28,183l-.24-.14L132.34,163l-.76,10.68,38.31,19.11,44.43-24.63q1.19-2.19,2.28-4.44l-.64-7.52Z"/><polygon class="cls-3" points="33.38 109.65 33.38 124.72 69.12 142.55 69.12 128.93 33.38 109.65"/><path class="cls-3" d="M217.45,162c1.3-2.82,2.51-5.7,3.59-8.63l-4.13,2.36Z"/><path class="cls-3" d="M193.21,100.92c-3.18,2.19-6,3.73-8.09,4.15-2.24,14-5.17,36.3-3.73,38.5,12.3.62,25.1,3.56,35,11.23l5.12-2.93A113.85,113.85,0,0,0,228,114c0-1.93-.05-3.84-.14-5.75a164.74,164.74,0,0,0-33.15-7.12C193.91,101,193.47,101,193.21,100.92Zm11.89,25.69c1-3.29,6.06-4.7,11.39-3.15s8.88,5.48,7.92,8.78-6.06,4.7-11.39,3.15S204.14,129.9,205.1,126.61Z"/><path class="cls-3" d="M78.9,111.34c-2.7-3.5.3-21.54,1.08-25.91-5.18,1-37.81,8.19-46.4,23.19l35.68,19.25C70.34,123.74,77.48,113.37,78.9,111.34Zm-25.77-7c1-3.3,6.06-4.71,11.39-3.15s8.88,5.48,7.92,8.78-6.06,4.7-11.39,3.15S52.17,107.65,53.13,104.36Z"/><path class="cls-3" d="M141.8,87.48c3.81.85,13.73,2.73,16.25,1.82A41,41,0,0,1,181.3,59.73c-2.1-2-11.13-9.55-27.66-9.91H153c-17.54,0-25.13,15.64-25.84,17.2C128.65,76.64,139.25,86.17,141.8,87.48Zm-3.62-21.11c1-3.29,6.07-4.7,11.4-3.15s8.88,5.49,7.92,8.78-6.06,4.7-11.39,3.15S137.23,69.67,138.18,66.37Z"/><path class="cls-3" d="M194.4,100.09l.42,0a165.32,165.32,0,0,1,33,7q-.16-2.81-.46-5.58c-.33-.07-.65-.15-1-.25-5.33-1.55-8.88-5.48-7.92-8.78.67-2.3,3.38-3.68,6.77-3.77A113.69,113.69,0,0,0,221.85,77l-1.29-.11C218.76,78.68,205.06,92.43,194.4,100.09Z"/><path d="M182.37,59.38a29.63,29.63,0,0,0-6.94-5.06,47,47,0,0,0-21.77-5.5c-18.18-.42-26.28,15.35-27.37,17.66a136.08,136.08,0,0,0-19.4,3.3c-13.75,3.43-22.7,8.34-26.6,14.57A146.65,146.65,0,0,0,60,90c-14.45,5.2-23.71,11.45-27.54,18.59l-.06.11V125h1v.81l136.3,68,.24.12,43.48-24.1c.31-.55.62-1.1.92-1.66l-44.43,24.63-38.31-19.11,0,.33-1-.07.06-.74L69.46,142.72h-.34v-.17L33.38,124.72V109.65l-.73-.4.47-.88.46.25c8.59-15,41.22-22.14,46.4-23.19,0-.31.1-.56.13-.72l1,.18,0,.1c8.39-13.66,41-17.11,45.15-17.5,0-.15-.07-.31-.09-.46l1-.15,0,.13c.71-1.56,8.3-17.2,25.84-17.2h.65c16.53.36,25.56,7.92,27.66,9.91l.64-.31.42.91-.09,0c3.29,0,27.36,11.34,37.25,16.12L220,76l.71.7-.16.17,1.29.11c-.12-.35-.25-.69-.37-1l-1-.08C216.64,74,187.09,59.73,182.37,59.38Z"/><path d="M78.9,111.34l.23-.34.82.58-.24.35c6.1,2.46,54,5.63,59.29,6v-.47h1v.33a4.72,4.72,0,0,0,1.1-2.43c1.35-5.23,2.93-22,1.47-26.65l-1.06-.23.21-1h.08c-2.55-1.31-13.15-10.84-14.65-20.47l0-.13-1,.15c0,.15.07.31.09.46C128,77.56,138.75,87.08,141.39,88.4c0,0,.57.39.74,4,.39,8.43-1.44,23.26-2.69,24.47-5-.23-56.57-3.86-59.61-6-2.26-1.63-.44-16.7,1.24-25.9l0-.1-1-.18c0,.16-.08.41-.13.72C79.2,89.8,76.2,107.84,78.9,111.34Z"/><path d="M158.05,89.3c-2.52.91-12.44-1-16.25-1.82h-.08l-.21,1,1.06.23c2.66.57,9.2,1.86,13.27,1.86a8.5,8.5,0,0,0,2.51-.29l-.24-.28.79-.63c0,.06.09.11.13.16a40,40,0,0,1,23.24-29.12l.09,0-.42-.91-.64.31A41,41,0,0,0,158.05,89.3Z"/><path d="M184.71,104.14c-1.39-.37-17.7-4.85-25.68-14.65,0,0-.09-.1-.13-.16l-.79.63.24.28c7.79,9.44,23,14,25.77,14.77,0-.15,0-.31.07-.44l1,.16-.06.34c2.08-.42,4.91-2,8.09-4.15-.34-.07-.37-.16-.42-.37l-.08-.34.29-.2.28.41.16-.46,1,.13c10.66-7.66,24.36-21.41,26.16-23.23l.16-.17L220,76l-.49.5C215.91,80.1,193,102.85,184.71,104.14Z"/><path d="M194.4,100.09l-1-.13-.16.46L193,100l-.29.2.08.34c.05.21.08.3.42.37s.7.12,1.5.21a164.74,164.74,0,0,1,33.15,7.12c0-.36-.05-.71-.07-1.07a165.32,165.32,0,0,0-33-7Z"/><path d="M139.65,149.6l-.29-1,.64-.18v-31h-1V149c-1.06,1.44-6.76,9.22-7.51,12.48l.93.5c.17-2.23,5.28-9.54,7.39-12.39Z"/><path d="M184.19,104.57c0,.13,0,.29-.07.44-1.06,6.62-5.17,33.07-3.79,38.51l1.06,0c-1.44-2.2,1.49-24.53,3.73-38.5l.06-.34Z"/><path d="M216,156.23l.64,7.52c.29-.59.57-1.2.85-1.8l-.54-6.27Z"/><path d="M140,148.46l-.64.18.29,1,.16,0c3-.88,49.38-14.11,75.68,5.79l.94-.54c-9.94-7.67-22.74-10.61-35-11.23l-1.06,0C161.23,142.76,143.57,147.44,140,148.46Z"/><polygon points="70.12 129.47 69.12 128.93 69.12 142.55 69.12 142.72 69.46 142.72 70.12 142.72 70.12 129.47"/><path d="M80,111.58l-.82-.58-.23.34c-1.42,2-8.56,12.4-9.64,16.53l.91.49c.54-3.06,6.8-12.51,9.54-16.43Z"/><path d="M215.49,155.34l-46.22,26.47-36.85-19.87-.93-.5L70.17,128.36l-.91-.49L33.58,108.62l-.46-.25-.47.88.73.4,35.74,19.28,1,.54,61.25,33,0-.49,1,.08-.06.93L169,182.82l.24.14L216,156.23l.95-.55,4.13-2.36.51-1.45-5.12,2.93Z"/><polygon points="132.34 163.03 132.4 162.09 131.4 162.03 131.37 162.51 130.62 173.23 130.56 173.97 131.56 174.04 131.59 173.71 132.34 163.03"/><path class="cls-4" d="M213,135.39c5.33,1.55,10.43.14,11.39-3.15s-2.58-7.23-7.92-8.78-10.43-.14-11.39,3.15S207.68,133.83,213,135.39Z"/><path class="cls-4" d="M159.48,125.85c5.33,1.56,10.43.15,11.39-3.15s-2.58-7.22-7.92-8.77-10.44-.15-11.39,3.15S154.14,124.3,159.48,125.85Z"/><path class="cls-4" d="M218.43,92.57c-1,3.3,2.59,7.23,7.92,8.78.33.1.65.18,1,.25a115,115,0,0,0-2.13-12.8C221.81,88.89,219.1,90.27,218.43,92.57Z"/><path class="cls-4" d="M187.7,85.92c5.33,1.55,10.43.14,11.39-3.15s-2.58-7.23-7.92-8.78-10.43-.14-11.39,3.15S182.36,84.36,187.7,85.92Z"/><path class="cls-4" d="M146.11,75.15c5.33,1.55,10.43.14,11.39-3.15s-2.58-7.22-7.92-8.78-10.44-.14-11.4,3.15S140.77,73.6,146.11,75.15Z"/><path class="cls-4" d="M112.28,99.86c5.33,1.55,10.43.14,11.39-3.15s-2.58-7.23-7.92-8.78-10.43-.14-11.39,3.15S106.94,98.3,112.28,99.86Z"/><path class="cls-4" d="M72.44,110c1-3.3-2.58-7.23-7.92-8.78s-10.43-.15-11.39,3.15,2.58,7.22,7.92,8.78S71.48,113.28,72.44,110Z"/><path class="cls-4" d="M115.75,125.83c-5.33-1.55-10.43-.14-11.39,3.15s2.58,7.23,7.92,8.78,10.43.15,11.39-3.15S121.09,127.39,115.75,125.83Z"/><path class="cls-4" d="M159,157.66c-1,3.29,2.58,7.22,7.92,8.78s10.43.14,11.39-3.15-2.58-7.23-7.92-8.78S159.93,154.36,159,157.66Z"/><path d="M33.38,132.06v-7h-1v7.64l136.25,69.86,36-19.34c.48-.63,1-1.26,1.42-1.9l-37.4,20.11Z"/><path d="M114,.9A113.11,113.11,0,0,1,194,194,113.11,113.11,0,0,1,34,34,112.39,112.39,0,0,1,114,.9m0-.9A114,114,0,1,0,228,114,114,114,0,0,0,114,0Z"/></g></g></svg>