<svg xmlns="http://www.w3.org/2000/svg" xmlns:xlink="http://www.w3.org/1999/xlink" viewBox="0 0 218.05 221.08"><defs><style>.cls-1{fill:none;}.cls-2{clip-path:url(#clip-path);}.cls-3{fill:#e0e9f1;}.cls-4{fill:#bbd0e2;stroke:#9ab8d3;stroke-miterlimit:10;stroke-width:1.18px;}.cls-5{opacity:0.11;}.cls-6{fill:#f3f7fa;}.cls-7{opacity:0.15;isolation:isolate;}.cls-8{fill:url(#radial-gradient);}.cls-9{fill:url(#radial-gradient-2);}.cls-10{fill:url(#radial-gradient-3);}.cls-11{fill:url(#radial-gradient-4);}.cls-12{fill:url(#radial-gradient-5);}.cls-13{fill:url(#radial-gradient-6);}.cls-14{fill:url(#radial-gradient-7);}.cls-15{fill:url(#radial-gradient-8);}.cls-16{fill:url(#radial-gradient-9);}.cls-17{fill:url(#radial-gradient-10);}.cls-18{fill:url(#radial-gradient-11);}.cls-19{fill:url(#radial-gradient-12);}.cls-20{fill:url(#radial-gradient-13);}.cls-21{fill:url(#radial-gradient-14);}.cls-22{fill:url(#radial-gradient-15);}.cls-23{fill:url(#radial-gradient-16);}.cls-24{fill:url(#radial-gradient-17);}.cls-25{fill:url(#radial-gradient-18);}.cls-26{fill:url(#radial-gradient-19);}.cls-27{fill:url(#radial-gradient-20);}.cls-28{fill:url(#radial-gradient-21);}.cls-29{fill:url(#radial-gradient-22);}.cls-30{fill:url(#radial-gradient-23);}.cls-31{fill:url(#radial-gradient-24);}.cls-32{fill:url(#radial-gradient-25);}.cls-33{fill:url(#radial-gradient-26);}.cls-34{fill:url(#radial-gradient-27);}.cls-35{fill:url(#radial-gradient-28);}.cls-36{fill:url(#radial-gradient-29);}.cls-37{fill:url(#radial-gradient-30);}.cls-38{fill:url(#radial-gradient-31);}</style><clipPath id="clip-path" transform="translate(12.87 13.61)"><circle class="cls-1" cx="95.61" cy="95.61" r="95.61"/></clipPath><radialGradient id="radial-gradient" cx="-363.02" cy="291.33" r="3.88" gradientTransform="matrix(1, 0, 0, -1, 503.31, 425.12)" gradientUnits="userSpaceOnUse"><stop offset="0" stop-color="#5d8eb9"/><stop offset="1" stop-color="#407aac"/></radialGradient><radialGradient id="radial-gradient-2" cx="-341.08" cy="322.37" r="4.03" xlink:href="#radial-gradient"/><radialGradient id="radial-gradient-3" cx="-327.58" cy="356.98" r="3.8" xlink:href="#radial-gradient"/><radialGradient id="radial-gradient-4" cx="-345.2" cy="403.88" r="4.78" xlink:href="#radial-gradient"/><radialGradient id="radial-gradient-5" cx="-380.52" cy="424.58" r="3.66" xlink:href="#radial-gradient"/><radialGradient id="radial-gradient-6" cx="-408.33" cy="389.02" r="2.98" xlink:href="#radial-gradient"/><radialGradient id="radial-gradient-7" cx="-370" cy="384.04" r="4.64" xlink:href="#radial-gradient"/><radialGradient id="radial-gradient-8" cx="-374.69" cy="330.52" r="4.04" xlink:href="#radial-gradient"/><radialGradient id="radial-gradient-9" cx="-400.97" cy="357.28" r="3.57" xlink:href="#radial-gradient"/><radialGradient id="radial-gradient-10" cx="-425.69" cy="349.29" r="4.26" xlink:href="#radial-gradient"/><radialGradient id="radial-gradient-11" cx="-466.63" cy="367.67" r="3.28" xlink:href="#radial-gradient"/><radialGradient id="radial-gradient-12" cx="-457.93" cy="414.57" r="3.31" xlink:href="#radial-gradient"/><radialGradient id="radial-gradient-13" cx="-427.08" cy="390.79" r="3.56" xlink:href="#radial-gradient"/><radialGradient id="radial-gradient-14" cx="-448.98" cy="324.9" r="4.09" xlink:href="#radial-gradient"/><radialGradient id="radial-gradient-15" cx="-426.17" cy="319.05" r="3" xlink:href="#radial-gradient"/><radialGradient id="radial-gradient-16" cx="-411.43" cy="307.95" r="4.44" xlink:href="#radial-gradient"/><radialGradient id="radial-gradient-17" cx="-374.57" cy="252.25" r="3.14" xlink:href="#radial-gradient"/><radialGradient id="radial-gradient-18" cx="-343.31" cy="253.84" r="2.57" xlink:href="#radial-gradient"/><radialGradient id="radial-gradient-19" cx="-408.84" cy="260.25" r="3.44" xlink:href="#radial-gradient"/><radialGradient id="radial-gradient-20" cx="-437.72" cy="266.58" r="2.53" xlink:href="#radial-gradient"/><radialGradient id="radial-gradient-21" cx="-448.08" cy="288.38" r="3.03" xlink:href="#radial-gradient"/><radialGradient id="radial-gradient-22" cx="-443.66" cy="280.48" r="1.98" xlink:href="#radial-gradient"/><radialGradient id="radial-gradient-23" cx="-482.26" cy="267.04" r="2.93" xlink:href="#radial-gradient"/><radialGradient id="radial-gradient-24" cx="-498.1" cy="289.89" r="1.74" xlink:href="#radial-gradient"/><radialGradient id="radial-gradient-25" cx="-479.64" cy="292.69" r="3.31" xlink:href="#radial-gradient"/><radialGradient id="radial-gradient-26" cx="-502.35" cy="322.35" r="2.31" xlink:href="#radial-gradient"/><radialGradient id="radial-gradient-27" cx="-480.15" cy="341.57" r="1.94" xlink:href="#radial-gradient"/><radialGradient id="radial-gradient-28" cx="-468.31" cy="356.22" r="2.36" xlink:href="#radial-gradient"/><radialGradient id="radial-gradient-29" cx="-490.96" cy="383.23" r="2.51" xlink:href="#radial-gradient"/><radialGradient id="radial-gradient-30" cx="-494.49" cy="345.81" r="2.54" xlink:href="#radial-gradient"/><radialGradient id="radial-gradient-31" cx="-501.19" cy="330.64" r="2.35" xlink:href="#radial-gradient"/></defs><g id="Layer_2" data-name="Layer 2"><g id="Layer_1-2" data-name="Layer 1"><g class="cls-2"><g id="Adipose_diagram_art"><circle class="cls-3" cx="108.58" cy="110.21" r="102.55"/><path class="cls-4" d="M157.68,14.53S139,20.24,139.35,38c0,0-3.93,19.71,5.71,22.27l15.37,5.52s11,1.18,16-7.69c0,0,5.91-8.47,6.5-15.17C182.89,42.9,190.58,12,157.68,14.53Z" transform="translate(12.87 13.61)"/><path class="cls-4" d="M121-4.77s-8.87,10.25.59,20.69c0,0,12.41,10.64,23.25,6.11,0,0,8.28-4.53,11-11.23,0,0,7.89-13.6-10.05-21.67C145.85-10.88,131.86-18.57,121-4.77Z" transform="translate(12.87 13.61)"/><path class="cls-4" d="M128.31,20.64s-6.89-3.34-16.94,4.73c0,0-14.39,13-15,22.46,0,0-4.34,13,14.39,18.13,0,0,18.32,4.93,25.62-8.67,0,0,.39,1.18,1.57-5.52,0,0,3.75-24.23-4.73-29.35Z" transform="translate(12.87 13.61)"/><path class="cls-4" d="M95.81,48.34a5.48,5.48,0,0,0-1.17-6,12,12,0,0,0-5.7-3.07c-7.37-2.09-15.49-.92-21.32,4.06-3.45,3-5.07,5.71-6.83,9.91a31.85,31.85,0,0,0-2.13,6.7A20,20,0,0,0,62.5,75.6a18.33,18.33,0,0,0,14.48,7,10.93,10.93,0,0,0,4.75-1c3.53-1.79,4.09-4.73,6.8-7.59,1.87-2,4.27-3.41,6-5.48a12.28,12.28,0,0,0,2.78-9.08c-.22-2-.94-3.94-1.33-5.93a36.69,36.69,0,0,1-.12-9.54" transform="translate(12.87 13.61)"/><path class="cls-4" d="M83.59,17.29c1.24-2.18,2-4.08,3.27-6.24,1.13-1.9,2.83-2.91,4.6-4.21a15.06,15.06,0,0,1,6-2.73c3.57-.76,7.27-2,10.85-1.33,5.54,1,9.69,5.58,11.36,11a7.09,7.09,0,0,1-1.13,6.15,8.88,8.88,0,0,1-2.41,1.93,41.72,41.72,0,0,0-11.39,9.85c-1.5,1.87-2.74,3.94-4.38,5.68a9.43,9.43,0,0,1-6.2,3.25c-2.5.08-4.81-1.3-6.79-2.82-1.72-1.31-3.43-3-3.71-5.11,0,0-3.59-9.14,0-15.37Z" transform="translate(12.87 13.61)"/><path class="cls-4" d="M50.32,19.68c0,4.71,0,7.86,1,11.6A10.13,10.13,0,0,0,56,37.17a12.65,12.65,0,0,0,3.43,1.38,33.78,33.78,0,0,0,18-.1,8.2,8.2,0,0,0,3.86-2c1.47-1.59,1.64-4,1.36-6.13s-1-4.25-.87-6.41C82,20,84.62,16.35,84.35,12.42c-.19-2.83-1-6.29-2.72-8.53a21.33,21.33,0,0,0-5.69-5.48C73.12-3.26,68.62-4.11,65.48-3.2c0,0-14.19.59-15.37,18.71l.21,4.17Z" transform="translate(12.87 13.61)"/><path class="cls-4" d="M27.33,36.78a18.1,18.1,0,0,0,15.6-.65c3-1.56,5.71-4.08,6.62-7.34A18,18,0,0,0,50,23.61c-.09-4.21-.16-8.4-.24-12.61a10,10,0,0,0-.6-3.93c-1.46-3.28-5.83-4-9.39-3.53A30.51,30.51,0,0,0,31.7,6a26.22,26.22,0,0,0-10,7.46A15.26,15.26,0,0,0,27.33,36.78Z" transform="translate(12.87 13.61)"/><path class="cls-4" d="M62,40c-2-1.6-4.43-2.32-6.68-3.46-1.79-.91-3.51-2.11-5.49-2.49-2.92-.56-5.88.78-8.31,2.48a22.86,22.86,0,0,0-9,11.82,17.07,17.07,0,0,0,1.94,14.47c3.92,5.71,12.23,7,18.53,4.12A10.34,10.34,0,0,0,57.57,63c1-1.83.44-2.65.9-4.67C59.78,52.76,68.27,45.1,62,40Z" transform="translate(12.87 13.61)"/><path class="cls-4" d="M34.08,75.54a29.08,29.08,0,0,0-7.19,18.38,17.57,17.57,0,0,0,1.16,7.58,9.42,9.42,0,0,0,5.33,5.3,14.54,14.54,0,0,0,3.77.59q3.87.24,7.74.24a27.12,27.12,0,0,0,8.93-1.11,10.69,10.69,0,0,0,6.59-5.8,15.78,15.78,0,0,0,.82-4.11c.34-3,.67-6,1-8.91.55-5,1.06-10.26-1-14.84-5.13-11.48-21.07-4-27.15,2.68Z" transform="translate(12.87 13.61)"/><path class="cls-4" d="M61.33,92.56c-.37,3.73.32,6.54,1,10.26a41.22,41.22,0,0,0,1.24,6.37,7.41,7.41,0,0,0,4.14,4.74,8.89,8.89,0,0,0,4.47.13,30.07,30.07,0,0,0,8.8-3,6.25,6.25,0,0,0,3.23-3c.75-1.91-.28-4-.92-5.91a16,16,0,0,1-.77-6.34c.15-2,.69-4,.37-6a14.12,14.12,0,0,0-2.6-5.39,3.24,3.24,0,0,0-1.32-1.3,3.31,3.31,0,0,0-1.6-.12,15.22,15.22,0,0,1-6.28-1.25c-2.08-.8-2.79-.67-4.8.68-3.06,2-4.58,6.34-4.93,10Z" transform="translate(12.87 13.61)"/><path class="cls-4" d="M93.53,69.41c-1.29,1.24-2.86,2.16-4.23,3.33-3.68,3.14-5.69,7.88-6.44,12.64s-.37,9.63,0,14.46a16.47,16.47,0,0,0,.9,4.94c1.51,3.78,5.65,6,9.71,6.32s8.08-.86,11.92-2.17,7.78-2.84,10.47-5.85a20.11,20.11,0,0,0,3.5-6.2,48,48,0,0,0,3.25-18.4,12.41,12.41,0,0,0-.66-4.33c-1-2.63-3.4-4.43-5.83-5.85A45.63,45.63,0,0,0,102.85,63c-4.51-1-6.55,3.72-9.32,6.38Z" transform="translate(12.87 13.61)"/><path class="cls-4" d="M122.62,76c-.31,4.27.36,8.61-.23,12.87a30.2,30.2,0,0,0-.7,6c.3,4.29,3.82,7.81,7.81,9.38s8.43,1.55,12.73,1.4c5.07-.18,10.56-.66,14.35-4a22.79,22.79,0,0,0,4.17-5.64,38.09,38.09,0,0,0,4.09-8.42A37.44,37.44,0,0,0,166,79.14c.16-2.9.3-5.89-.63-8.63a6.31,6.31,0,0,0-1.88-3,8.61,8.61,0,0,0-2.65-1.25Q153,63.66,145.28,61a21.19,21.19,0,0,0-4.59-1.17C131.8,59,123.26,67.56,122.62,76Z" transform="translate(12.87 13.61)"/><path class="cls-4" d="M183.09,60.25a20.12,20.12,0,0,0-6.23-.42,11.94,11.94,0,0,0-8.07,5.5,18.07,18.07,0,0,0-2.6,9.59c0,2.73.4,5.48,0,8.19C165.71,87,163.59,91,165,94.72a9.21,9.21,0,0,0,5.55,5,44.8,44.8,0,0,0,7.46,1.69c5.1,1,10.46,2.89,15.35,1.09a14.15,14.15,0,0,0,7.34-6.88,33.77,33.77,0,0,0,3-9.79,34.11,34.11,0,0,0,.69-10.46,14.24,14.24,0,0,0-4.62-9.19c-1.91-1.57-3.82-3.49-6.23-4.11C190.16,61.18,186.53,60.85,183.09,60.25Z" transform="translate(12.87 13.61)"/><path class="cls-4" d="M178.53,56.42a3,3,0,0,0-.12,1.5c.28,1.11,1.61,1.52,2.74,1.72a69.45,69.45,0,0,0,8,1,7.43,7.43,0,0,0,2.82-.22c6.69-2.33,1.7-13.3-3-15.14-6.87-2.63-9.18,6.38-10.4,11.19Z" transform="translate(12.87 13.61)"/><path class="cls-4" d="M98,112.78a15.16,15.16,0,0,0-5-2.09c-2.93-.8-6-1.62-8.94-.7a48.22,48.22,0,0,0-4.53,2.17c-1.68.73-3.53,1.08-5,2.09a11.67,11.67,0,0,0-2.88,3,41.44,41.44,0,0,0-6.91,14.92,69.79,69.79,0,0,0-1.31,8,20.91,20.91,0,0,0-.13,5.53,14.08,14.08,0,0,0,1.89,5,23.8,23.8,0,0,0,11.18,9.42,19.48,19.48,0,0,0,8,1.74,28.5,28.5,0,0,0,8-1.74c4.88-1.57,9.83-3.28,13.91-6.37s7.2-7.9,7-13a7.16,7.16,0,0,0-.89-3.38,9.16,9.16,0,0,0-3.41-2.9c-3-1.76-6.34-3.61-7.42-6.9-1.45-4.42.82-11.61-3.44-14.78Z" transform="translate(12.87 13.61)"/><path class="cls-4" d="M113.94,105c2.23-2.14,4.41-5.47,7.48-5.16a10,10,0,0,1,3.71,1.6,33.17,33.17,0,0,0,18,4.4,8.18,8.18,0,0,1,3.69.32c2.08.91,2.82,3.46,3.08,5.73a64.7,64.7,0,0,1-.17,12.52,26,26,0,0,1-.9,5.77C147,136,141,139.68,135,140.66s-12.18-.27-18.16-1.52a13.1,13.1,0,0,1-4.3-1.41,20.15,20.15,0,0,1-2.55-2.06c-2.59-2.2-5.87-3.76-7.62-6.67a14.74,14.74,0,0,1-1.67-5.85c-.41-3.38-.52-6.93.82-10.06s4.44-5.72,7.85-5.5A10,10,0,0,0,113.94,105Z" transform="translate(12.87 13.61)"/><path class="cls-4" d="M193.93,105.63a7.8,7.8,0,0,0-2.28-1.81,9.48,9.48,0,0,0-3.19-.57c-6-.42-11.81-2.35-17.51-4.33-3.27-1.15-6.9-2.31-10.12-1a14.58,14.58,0,0,0-3.59,2.41c-3.36,2.81-7,6.07-7.37,10.43-.2,2.25.51,4.47.62,6.72a41,41,0,0,1-.53,7.82c-1.15,7.65,4.91,10.66,10.28,13.76s11,5.12,17.18,4.68c5.08-.35,10.33-1.6,14.17-4.94a20.35,20.35,0,0,0,5-7.08c3.77-8.38,4.06-19.27-2.69-26.09Z" transform="translate(12.87 13.61)"/><path class="cls-4" d="M173.61,148.34c-1.87-2.87-5-4.61-8-6.23l-6.78-3.65c-3.26-1.76-6.76-3.57-10.46-3.29-2.94.23-5.61,1.76-8.16,3.27a25.41,25.41,0,0,0-5.09,3.62c-4.33,4.32-5,11.18-3.9,17.19a19.83,19.83,0,0,0,3.17,8.28,17.33,17.33,0,0,0,8.8,6,40.89,40.89,0,0,0,10.68,1.66c4.18.22,8.59.2,12.26-1.83,7.81-4.34,12.63-17.1,7.49-25Z" transform="translate(12.87 13.61)"/><path class="cls-4" d="M125.67,140.2c-3.67-.48-7.86-.82-10.67,1.6-2,1.71-2.77,4.37-4.14,6.57-1.55,2.48-3.86,4.39-5.61,6.75a36.18,36.18,0,0,0-4.08,7.89c-1.31,3.15-2.65,6.56-1.8,9.86.63,2.44,2.35,4.42,4,6.3a15,15,0,0,0,3.12,2.88,14.15,14.15,0,0,0,4.21,1.47,21.92,21.92,0,0,0,6.53.82,20,20,0,0,0,6.77-2.11,23.38,23.38,0,0,0,7.53-4.84c2.06-2.19,3.35-5.31,2.65-8.23a20.26,20.26,0,0,0-1.87-4.21,20.67,20.67,0,0,1-.94-15.41c.67-2,2-3.74,1-5.88-1.24-2.6-4.15-3.13-6.71-3.46Z" transform="translate(12.87 13.61)"/><path class="cls-4" d="M141.81,173.44c-2.32-.21-5.06-.77-6.84.72-2.32,1.93-5.07,4.88-7.25,6.86-.89.8,0,2,0,3.15,0,.89.86,1.88,1.26,2.68a11.4,11.4,0,0,0,9.38,6.19,19.19,19.19,0,0,0,8.7-2.09c2.64-1.17,5-1.5,7.42-3,2-1.22,4.12-2.76,4.72-5,.26-1,.86-4.4.31-5.29-.65-1.05-4.41-1.62-5.56-1.94A69.38,69.38,0,0,0,141.81,173.44Z" transform="translate(12.87 13.61)"/><path class="cls-4" d="M120,184.07c-2.42,0-4.88.59-7.23,0a16.92,16.92,0,0,0-3.18-.83c-2.48-.13-4.47,2-5.72,4.14a24.33,24.33,0,0,0-3.28,10.5,4.85,4.85,0,0,0,.29,2.45,4.61,4.61,0,0,0,1.13,1.39,20.1,20.1,0,0,0,18.63,4.47c4.8-1.34,12.62-6.48,13.11-12.11C134.3,188.29,124.63,184.06,120,184.07Z" transform="translate(12.87 13.61)"/><path class="cls-4" d="M102.94,189.27c1.24-2.39,2-5.24,1.15-7.79-1.08-3.13-4.41-5.18-5.16-8.4-1-4.1,2.66-8.36,1.38-12.38A3.13,3.13,0,0,0,99.16,159c-1.43-.93-3.26.11-4.78.87a15.51,15.51,0,0,1-8.33,1.64c-2.39-.21-4.72-1-7.12-1-6.19-.18-11.76,4.42-14.47,10s-3,12-3,18.18a23.07,23.07,0,0,0,.54,5.7c1.62,6.06,7.93,10,14.2,10.53,11.17.91,21.66-5.9,26.75-15.66Z" transform="translate(12.87 13.61)"/><path class="cls-4" d="M36.05,168.49a16.84,16.84,0,0,1,.65-4.58,15.32,15.32,0,0,1,6.36-8,33.54,33.54,0,0,1,9.56-4c3.6-1,7.44-1.79,11.05-.82s6.87,4.2,6.71,7.93c-.13,3.14-2.47,5.67-4.12,8.33-3.05,4.9-4,11-7.85,15.38-3.25,3.71-11.92,7.49-16.57,4-1.88-1.39-3.08-5.16-3.86-7.24a29.07,29.07,0,0,1-1.93-11.07Z" transform="translate(12.87 13.61)"/><path class="cls-4" d="M60.06,185c.45,3,1.56,8.64-1.31,10.84-2.15,1.64-5.44.14-6.8-1.85a5.36,5.36,0,0,1,0-6.21c.93-1.26,7.61-6,8.09-2.78Z" transform="translate(12.87 13.61)"/><path class="cls-4" d="M16.69,156c-.11,2.24.18,4.72,1.81,6.26s4.18,1.66,6.44,1.48a41.37,41.37,0,0,0,9-1.72,14.41,14.41,0,0,0,6.1-3.27c2.33-2.36,3.11-5.84,3.34-9.15a14.93,14.93,0,0,0-.62-6.17A11.1,11.1,0,0,0,35.81,137c-5.15-1.76-9.64-1.14-13.07,3a27.29,27.29,0,0,0-6,15.92Z" transform="translate(12.87 13.61)"/><path class="cls-4" d="M30.06,164a3.88,3.88,0,0,1,2.08.38,3.64,3.64,0,0,1,1.18,1.37,30.24,30.24,0,0,1,2.81,8.3c.52,2.23.95,4.85-.5,6.61a5.5,5.5,0,0,1-2.79,1.65,10.27,10.27,0,0,1-6-.07A13.39,13.39,0,0,1,20,176.87c-1.6-2.37-4.36-6.85-2.17-9.62C20.14,164.31,26.69,164.09,30.06,164Z" transform="translate(12.87 13.61)"/><path class="cls-4" d="M33,134.78a11.67,11.67,0,0,0,3.18,2.58,31.42,31.42,0,0,0,16.4,4.43c3.34,0,6.94-.77,9.17-3.25a15.11,15.11,0,0,0,2.64-5.08l4-11.07c.71-1.92,1.38-4.17.33-5.93-.68-1.15-2-1.8-3-2.7-2.36-2.15-3.31-6-6.33-7s-5.87,1.17-8.89,1.63c-3.39.51-7-1.15-10.2.15A9.56,9.56,0,0,0,37.13,111c-5.06,5.42-9.54,17.1-4.15,23.82Z" transform="translate(12.87 13.61)"/><path class="cls-4" d="M54.05,141.5c-.91.1-1.84.07-2.75.14a16,16,0,0,0-5.81,1.73,3.64,3.64,0,0,0-1.7,1.33,4.18,4.18,0,0,0-.42,2c-.07,1.63-.09,3.43,1,4.66,1.26,1.42,3.44,1.44,5.32,1.22a41.72,41.72,0,0,0,10-2.5A6.21,6.21,0,0,0,62,148.69c1.21-1.31,1.54-5.32.6-6.89-1.61-2.69-6.24-.55-8.51-.3Z" transform="translate(12.87 13.61)"/><path class="cls-4" d="M31,105.52a13.92,13.92,0,0,0-13.68-.22A14.7,14.7,0,0,0,10,116.88a28.34,28.34,0,0,0,.35,6,25.79,25.79,0,0,0,1.22,5.72A13.6,13.6,0,0,0,21.8,137c2.56.43,5.54-.06,7.08-2.17s1.18-4.67,1.2-7.12a22.73,22.73,0,0,1,3.68-12.52c2.4-3.65,1-7.44-2.72-9.69Z" transform="translate(12.87 13.61)"/><path class="cls-4" d="M20.06,136.76a3.12,3.12,0,0,1,.73.72c.66,1,.25,2.29-.19,3.39-1.44,3.65-2.88,7.29-4.32,10.95a17.59,17.59,0,0,1-2.44,4.69,5.84,5.84,0,0,1-4.55,2.35,7.89,7.89,0,0,1-4.07-1.7C1.45,154.57-2,151.25-3.62,147c-2.14-5.71-.28-12,5.78-13.71A20.49,20.49,0,0,1,20.06,136.76Z" transform="translate(12.87 13.61)"/><path class="cls-4" d="M2.87,99.6a13.27,13.27,0,0,1,5.69,5.7,18.48,18.48,0,0,1,1.16,7c.14,4.24.27,8.47.41,12.72a8.71,8.71,0,0,1-.41,3.67c-1.06,2.49-4.05,3.41-6.7,4a11,11,0,0,1-4.89.3,9.15,9.15,0,0,1-4.63-3.34A25.77,25.77,0,0,1-11.56,108C-11,105.39-10,101.15-8,99.19c2.86-2.86,7.89-1.33,10.9.41Z" transform="translate(12.87 13.61)"/><path class="cls-4" d="M19.58,79.74a15.49,15.49,0,0,0-8,4c-2.39,2.44-3.48,5.85-4.39,9.13-.78,2.81-1.48,5.76-.84,8.6s3,5.48,6,5.44a11.64,11.64,0,0,0,4.27-1.35,30.86,30.86,0,0,1,6.16-2c1.46-.3,3.15-.63,3.88-1.94a5.33,5.33,0,0,0,.21-3.29c-.67-5,1-9,1.43-13.84s-5.12-5.57-8.7-4.8Z" transform="translate(12.87 13.61)"/><path class="cls-4" d="M33.05,77a7.74,7.74,0,0,1-2,1.75,6.45,6.45,0,0,1-2.33.58,26.39,26.39,0,0,1-10.23-.88,7.48,7.48,0,0,1-4.1-2.37c-1.55-2.07-1-5,0-7.41,1.68-4.44,4.77-8.89,9.4-9.86a11,11,0,0,1,8.06,1.72c2,1.28,5.94,4.41,6.58,6.82C39.21,70.72,35.05,74.83,33.05,77Z" transform="translate(12.87 13.61)"/><path class="cls-4" d="M3.19,59a9.24,9.24,0,0,0-5.43,5.73,17.37,17.37,0,0,0-.58,8.08A17.8,17.8,0,0,0,.12,81a9.61,9.61,0,0,0,7.42,4.19c2.94,0,6-2,6.56-4.85S13,74.63,12.8,71.7c-.18-2.33.59-4.63.68-7C13.69,58.79,8.08,57.3,3.19,59Z" transform="translate(12.87 13.61)"/><path class="cls-4" d="M13.06,35.07C8.51,37.27,6.35,42.7,6.2,47.75c-.1,3.58.67,7.33,2.92,10.11s6.23,4.34,9.58,3.08c.88-.33,1.67-.82,2.53-1.17a39.49,39.49,0,0,1,5.43-1.2c1.81-.44,3.66-1.37,4.38-3.08s.17-3.48.42-5.23,1.17-3.19,1.76-4.8.75-3.58-.37-4.87a5.42,5.42,0,0,0-1.31-1c-2.68-1.74-5.63-4.4-8.73-5.3A16,16,0,0,0,18,33.94c-1.61.07-3.42,1.13-4.91,1.13Z" transform="translate(12.87 13.61)"/><path class="cls-4" d="M4.49,97.8c1.48-.87,2.2-2.62,2.64-4.3A23.4,23.4,0,0,0,7.88,88a2.88,2.88,0,0,0-.59-2.19,4.28,4.28,0,0,0-2-.77A9.75,9.75,0,0,1,.61,81.73a27.24,27.24,0,0,0-4-4.26,5.89,5.89,0,0,0-5.46-1.16c-5.46,2.12-3.41,11.9-1,15.55,2.27,3.47,10.4,8.26,14.3,5.94Z" transform="translate(12.87 13.61)"/><path class="cls-4" d="M88.22,7a15.19,15.19,0,0,0,4.93-1.22,30.9,30.9,0,0,0,7.13-3.05c2.17-1.44,3.94-3.74,4-6.32a7.47,7.47,0,0,0-3.15-5.89A14.81,14.81,0,0,0,94.75-12c-4.87-.93-15.7-1.95-16.7,4.94C77.21-1.3,81.88,7.1,88.22,7Z" transform="translate(12.87 13.61)"/><path class="cls-4" d="M107-12.34a7.35,7.35,0,0,0-3.08,4.39,12.69,12.69,0,0,0-.26,2.75A10.2,10.2,0,0,0,104-1.76a7,7,0,0,0,4,4,14,14,0,0,0,5.71.94A5.52,5.52,0,0,0,115.37,3,5.27,5.27,0,0,0,117.73.51a17.26,17.26,0,0,0,2.07-4.17,5.88,5.88,0,0,0-.33-4.53,7.14,7.14,0,0,0-3.12-2.62,18.85,18.85,0,0,0-5.57-1.81c-1.63-.27-2.42-.62-3.8.28Z" transform="translate(12.87 13.61)"/><g class="cls-5"><path d="M70.81,128c-2,4.79-4,9.7-4.14,14.88s2,10.75,6.56,13.22c2.86,1.55,6.27,1.7,9.52,1.65a91.81,91.81,0,0,0,12.61-1.07c3.88-.6,8.08-1.68,10.36-4.87,2.81-3.94,1.48-9.61-1.44-13.47s-7.13-6.49-10.74-9.71c-3.19-2.87-7-10.27-11.27-11.21-6-1.31-9.66,6.25-11.46,10.58Z" transform="translate(12.87 13.61)"/><path d="M112.22,111.94c-4,2.36-8.4,5.3-9.1,9.89-.56,3.66,1.59,7.31,4.51,9.57s6.55,3.42,10.09,4.53c2.53.79,5.18,1.6,7.79,1.17s4.94-2.08,7.12-3.68l6.84-5c2.34-1.73,4.8-3.6,5.81-6.33a15.37,15.37,0,0,0,.6-5.37,8,8,0,0,0-.75-4c-1.19-2-3.83-2.54-6.16-2.86-5.13-.72-10.29-1.91-15.38-2.59C119.08,106.62,116.13,110.21,112.22,111.94Z" transform="translate(12.87 13.61)"/><path d="M156.91,112.9a12.08,12.08,0,0,0-5.29,9.17,14.56,14.56,0,0,0,4.72,11.05,25.15,25.15,0,0,0,10.84,5.73c5.95,1.63,12.48,1.8,18.12-.67s10.19-7.9,10.56-14.05a16.78,16.78,0,0,0-6-13.31c-4.24-3.65-12.89-7.31-18.57-5.36-2,.7-3.41,2.53-5.28,3.56-2.88,1.58-6.27,2-9.06,3.88Z" transform="translate(12.87 13.61)"/><path d="M184.79,67.39c-2.17,1.2-3.26,3.66-4.71,5.68-2.34,3.25-5.82,5.47-8.61,8.34s-4.95,7-3.67,10.79c.87,2.58,3.15,4.43,5.54,5.73a25.3,25.3,0,0,0,19.32,1.93,12.31,12.31,0,0,0,5.2-2.86c1.79-1.82,2.63-4.36,3.28-6.83,1-3.84,1.73-7.88.9-11.76-1.25-6-10.7-14.63-17.25-11Z" transform="translate(12.87 13.61)"/><path d="M180.44,56.84a1.86,1.86,0,0,0,.1.91,1.81,1.81,0,0,0,.55.62,8.94,8.94,0,0,0,4.24,1.23,4.78,4.78,0,0,0,3.32-.44,3.49,3.49,0,0,0,1.17-1.71c.94-2.65.74-8.33-3.11-8.3C183.14,49.16,180.69,53.77,180.44,56.84Z" transform="translate(12.87 13.61)"/><path d="M150.5,32.1a19.46,19.46,0,0,0-8.31,11.34,14.63,14.63,0,0,0,3.3,13.39c2.54,2.66,6.11,4.1,9.68,5a26.9,26.9,0,0,0,7.41.88c4.73-.16,9.55-2.18,12.31-6A24.42,24.42,0,0,0,178.08,49c1-3.7,2.06-7.48,1.93-11.34-.18-5-3.61-13-9.84-11.25-6.7,1.9-13.59,1.63-19.67,5.66Z" transform="translate(12.87 13.61)"/><path d="M126.83-5.95c-1.26,2.49-.41,5.54-1.08,8.25s-2.82,4.91-3.2,7.67c-.54,3.85,2.6,7.36,6.12,9a16.77,16.77,0,0,0,16.18-1,15.32,15.32,0,0,0,6.63-14.63c-.85-5.62-5.25-9.86-10.38-11.88-4.19-1.65-11.88-2.1-14.27,2.59Z" transform="translate(12.87 13.61)"/><path d="M109.38,2.83a5.24,5.24,0,0,0,4.44-1.29c5.33-4.41.91-12.36-5.58-10.84C102.16-7.87,104.18,1.58,109.38,2.83Z" transform="translate(12.87 13.61)"/><path d="M82.83-7.31A3.86,3.86,0,0,0,81-6.13a4.06,4.06,0,0,0-.55,2.19,10,10,0,0,0,.23,3.18,7,7,0,0,0,3.5,4.13,13,13,0,0,0,5.33,1.41,13.06,13.06,0,0,0,7.58-1.36A6.85,6.85,0,0,0,100.71-3,7,7,0,0,0,96-8.38c-4.07-1.49-9.21-.47-13.13,1.07Z" transform="translate(12.87 13.61)"/><path d="M88.5,16.22a16.28,16.28,0,0,0-2.74,11.92,7.94,7.94,0,0,0,1.42,3.63c2.25,2.84,6.68,2.52,10.06,1.2a25.75,25.75,0,0,0,7.14-4.18c1.52-1.24,2.88-2.67,4.5-3.77,2.27-1.54,5.09-2.53,6.53-4.86,1.55-2.48.94-5.92-1-8.15a11.69,11.69,0,0,0-7.75-3.65c-6.64-.65-14.3,2.31-18.21,7.86Z" transform="translate(12.87 13.61)"/><path d="M112.59,31.09c-4,3.86-6.78,8.85-8.9,14-1.36,3.26-2.49,7-1.09,10.26s4.86,5,8.06,6.48,6.33,2.9,9.72,2.71a10.06,10.06,0,0,0,9.07-7.39,18.55,18.55,0,0,0,.29-4.34q-.09-6.79-.16-13.6c-.05-3.62.79-8.65-.68-12.05-2.67-6.22-13.39,1.14-16.31,3.94Z" transform="translate(12.87 13.61)"/><path d="M126.56,76.75a10.71,10.71,0,0,0,.46,8.58c1.59,2.86,4.67,4.64,6.33,7.45.86,1.48,1.29,3.18,2.09,4.69a11.52,11.52,0,0,0,9.67,5.89,13.43,13.43,0,0,0,10.44-4.74,24.33,24.33,0,0,0,3.26-5.26c1-2.14,3-6,3.85-8.23,1.33-3.5,2.37-7.45.94-10.91-1.53-3.68-5.3-5.63-8.7-7.25s-7.37-3.63-11.22-4.3c-6.94-1.21-15.06,8.11-17.12,14.08Z" transform="translate(12.87 13.61)"/><path d="M89.75,79.93a15.24,15.24,0,0,0-1.82,4.93c-.63,2.55-1.24,5.09-1.87,7.65-1,4.3-2,9.33.82,12.78,1.84,2.29,4.91,3.25,7.85,3.5,9.67.8,20.74-6.27,23.92-15.44a31.49,31.49,0,0,0,1.47-7.27c.27-2.65.29-5.52-1.2-7.73a9.25,9.25,0,0,0-3.68-3c-4.19-2.11-9.74-1.45-14.21-.49C97,75.76,92.29,76.09,89.75,79.93Z" transform="translate(12.87 13.61)"/><path d="M65.51,55.44a24.4,24.4,0,0,0-2.73,10.47,12.44,12.44,0,0,0,4.27,9.66,2.63,2.63,0,0,0,1,.53,2.31,2.31,0,0,0,1.43-.26c2.29-1,3.9-3.24,6.21-4.27a13.93,13.93,0,0,1,4.1-.9l8.07-.94a6.4,6.4,0,0,0,3.08-.91A5.88,5.88,0,0,0,92.75,65a44.14,44.14,0,0,0,.73-10.39c-.14-2.87-.67-6-2.76-8-2.27-2.14-5.71-2.36-8.83-2.3s-7.34.13-10,2.23S67,52.33,65.51,55.44Z" transform="translate(12.87 13.61)"/><path d="M38.05,43.85c-1.62,1.69-3.17,3.94-2.57,6.19.46,1.79,2.1,3,3.08,4.56s1.29,3.76,1.75,5.69,1.29,4,3,5c2.4,1.32,5.46,0,7.51-1.8,2.74-2.46,4.51-5.79,6.23-9.05A13.31,13.31,0,0,0,59,49c.08-2.52-1.3-4.85-2.92-6.78-2.21-2.62-6.39-6.1-10.16-4.87C43.19,38.19,39.94,41.86,38.05,43.85Z" transform="translate(12.87 13.61)"/><path d="M28.06,13.46c-3.5,2.42-6.18,6.27-6,10.39a11.38,11.38,0,0,0,1.1,4.27,17.21,17.21,0,0,0,7.21,7.57,9.27,9.27,0,0,0,4.34,1.37c2.14,0,4.11-1.05,6-2.1,2.25-1.28,4.62-2.71,5.63-5a8.45,8.45,0,0,0-.09-6c-.65-2-1.65-3.8-2.31-5.76C43,15.45,42.45,10.69,39,9.63c-3.25-1-8.5,2.11-11,3.83Z" transform="translate(12.87 13.61)"/><path d="M57,9.89C54.82,14.18,54,19,53.24,23.75A12.24,12.24,0,0,0,53.16,29a12.37,12.37,0,0,0,2,3.58c1.29,1.85,2.84,3.86,5.07,4.17a8,8,0,0,0,4.4-1.09C67.39,34.35,70.2,33,73,31.56c2.15-1.12,4.35-2.32,5.78-4.27,1.9-2.63,2.06-6.09,2.06-9.34,0-4.41-.23-9-2.5-12.82C72.45-4.57,60.81,2.19,57,9.89Z" transform="translate(12.87 13.61)"/><path d="M37.4,78.59c-3.06,3.65-5.61,7.87-6.44,12.55s.28,9.87,3.65,13.21a5.53,5.53,0,0,0,3.75,1.86,7.3,7.3,0,0,0,4-1.83l9.32-7c2.14-1.6,4.36-3.26,5.7-5.58,2-3.49,1.79-7.87.94-11.83a14.74,14.74,0,0,0-2.66-6.31c-5.44-6.57-14.3.2-18.27,4.9Z" transform="translate(12.87 13.61)"/><path d="M64.82,94.41a25.1,25.1,0,0,0-.2,10.57,7.67,7.67,0,0,0,1.06,3.11,3.22,3.22,0,0,0,2.77,1.54,3.82,3.82,0,0,0,2.63-1.8,25.72,25.72,0,0,1,1.86-2.73c1.89-2.07,5.27-2.53,6.72-4.93a7.8,7.8,0,0,0,.89-3.12c.37-2.87.91-6.2-.78-8.55C74.18,80.78,66.46,88,64.82,94.41Z" transform="translate(12.87 13.61)"/><path d="M117.13,145.55a19.4,19.4,0,0,0-3.82,4.45c-1.53,2.21-3,4.45-4.45,6.72a36,36,0,0,0-3.48,6.51,16.43,16.43,0,0,0,.1,12.53,12.2,12.2,0,0,0,10,7.18,6,6,0,0,0,2.47-.29c1.7-.64,2.78-2.31,3.66-3.9A65.59,65.59,0,0,0,129,156.84c.42-2.71.65-5.54-.3-8.11A7.48,7.48,0,0,0,117.13,145.55Z" transform="translate(12.87 13.61)"/><path d="M137.52,165.51c.95,2.33,2.29,4.64,4.43,5.86s5.1,1.11,7.6.38,4.84-2,7.32-2.8c2.69-.88,5.49-1.22,8.19-2a13.05,13.05,0,0,0,7.13-4.34c3-4,2.08-10.12-.94-14.11s-7.66-6.3-12.25-8.1c-5.56-2.18-12.34-3.29-17.56.52-3.52,2.57-4.68,8.07-5.39,12.2a23,23,0,0,0,1.47,12.38Z" transform="translate(12.87 13.61)"/><path d="M136.66,176.34c-1.69,1.27-3.47,2.9-3.54,5a6.15,6.15,0,0,0,.64,2.64,9.55,9.55,0,0,0,5.25,5.47c4.13,1.43,17.33-2.24,14.81-8.44C151.51,175.31,141.21,172.9,136.66,176.34Z" transform="translate(12.87 13.61)"/><path d="M125,186.79a19.11,19.11,0,0,1,4,3.27,6.37,6.37,0,0,1,1.67,4.78,7.14,7.14,0,0,1-2.35,4.13,14.56,14.56,0,0,1-9.4,4.09,20.05,20.05,0,0,1-4.57-.36,13.24,13.24,0,0,1-4.53-1.51,8.13,8.13,0,0,1-3.72-7.5,8.58,8.58,0,0,1,4.87-6.87c2.5-1.16,5.39-1,8.13-.79l5.86.76Z" transform="translate(12.87 13.61)"/><path d="M72.68,167.88c-2.18,2.08-3.25,5.05-4.15,7.94a36.93,36.93,0,0,0-2.09,10.72,15.21,15.21,0,0,0,3.35,10.19,14.42,14.42,0,0,0,10.28,4.51,26.34,26.34,0,0,0,11.19-2.38c2.73-1.16,5.48-2.68,7.11-5.16,2.64-4,1.76-9.3.75-14a13.79,13.79,0,0,0-1.19-3.82A14.54,14.54,0,0,0,95,172.43c-3-2.88-6.41-8-10.81-8C80.16,164.47,75.74,165,72.68,167.88Z" transform="translate(12.87 13.61)"/><path d="M43,160.48a13.61,13.61,0,0,0-4,10.39,24.34,24.34,0,0,0,3.36,10.84c1.07,2,2.62,4,4.88,4.28a7,7,0,0,0,4.47-1.57c6.26-4.19,11.34-10.67,11.75-18.33.29-5.47-2.34-10.88-8.64-10.45A20.94,20.94,0,0,0,43,160.48Z" transform="translate(12.87 13.61)"/><path d="M59.77,112.71a11,11,0,0,1-.2,20.1c-2.22,1-4.72,1.36-7,2.19-3.06,1.08-5.88,3.07-9.15,3.21a9.65,9.65,0,0,1-8.76-5.46,12.8,12.8,0,0,1,0-10.36c2.08-5,7.34-7.65,12.34-10.12,3.23-1.59,7.45-1.12,10.57-.54l2.22,1Z" transform="translate(12.87 13.61)"/><path d="M47.58,147.09a2.88,2.88,0,0,0-1,1.09,2.22,2.22,0,0,0,.8,2.55,4.42,4.42,0,0,0,2.73.76c2.05,0,9-2.31,6.63-5.49-1.7-2.32-7.51-.13-9.17,1.09Z" transform="translate(12.87 13.61)"/><path d="M22.18,148.31a5.74,5.74,0,0,0,.27,2.79,7.93,7.93,0,0,0,.9,1.51c1.12,1.6,2.24,3.19,3.38,4.79a8.46,8.46,0,0,0,3.35,3.26c1.77.73,3.8.2,5.56-.54a11.8,11.8,0,0,0,3-1.75,9.42,9.42,0,0,0,2.94-7.82c-.31-4.21-3.71-11.63-8.43-12.48C27.42,137.05,22.7,143.22,22.18,148.31Z" transform="translate(12.87 13.61)"/><path d="M3.62,140.29c-1.6.33-3.31.62-4.5,1.73-1.56,1.46-1.69,4-.86,6a14.77,14.77,0,0,0,4,4.95c1.73,1.56,3.78,3.16,6.1,2.93s4.25-2.45,5.37-4.67a17.71,17.71,0,0,0,2.07-8.35c-.19-8.29-7.41-3.54-12.21-2.57Z" transform="translate(12.87 13.61)"/><path d="M13.06,116.09c-.54,3.18,0,6.43.62,9.61a6.26,6.26,0,0,0,.84,2.53,5.17,5.17,0,0,0,3.83,1.94,15.86,15.86,0,0,0,4.49-.44,7.53,7.53,0,0,0,2.56-.81,6,6,0,0,0,2-2.4A37.9,37.9,0,0,0,31,118c1.25-4.49.35-11.22-6.11-11.15-6.08.06-10.84,3.77-11.78,9.22Z" transform="translate(12.87 13.61)"/><path d="M-11,112.83a26.09,26.09,0,0,0,2.05,10,15.18,15.18,0,0,0,3.57,6,10.3,10.3,0,0,0,7.64,2.55,6,6,0,0,0,4.26-1.89,6.9,6.9,0,0,0,1.11-3.86c.2-2.71.41-5.42.61-8.12.19-2.43.28-5.15-1.5-7-1.46-1.52-3.7-1.93-5.65-2.73-2.22-.91-3.57-3.29-5.68-4-4.54-1.54-6.32,6.41-6.41,9.06Z" transform="translate(12.87 13.61)"/><path d="M12.2,87a12.41,12.41,0,0,0-3,5.56,23.84,23.84,0,0,0-.88,8,7.06,7.06,0,0,0,.83,3.31,3.51,3.51,0,0,0,3,1.7c1.2-.07,2.15-.86,3.23-1.34,2-.89,4.53-.66,6.51-1.67,2.87-1.47,3.58-5,3.47-8a10.18,10.18,0,0,0-.49-3C23,86.43,17.13,82.22,12.2,87Z" transform="translate(12.87 13.61)"/><path d="M14.62,46.58c-.86.75-1.82,1.4-2.61,2.21a8.34,8.34,0,0,0-2.37,5.79,3.46,3.46,0,0,0,1.31,3,4,4,0,0,0,1.56.49,42.73,42.73,0,0,0,8.39.26,11.07,11.07,0,0,0,4.66-.85C28,56.2,29,53.32,29.82,50.7s1.46-5.32.1-7.56a7.92,7.92,0,0,0-4.72-3c-2-.58-4.89-.85-6.51.77S16.5,45,14.62,46.58Z" transform="translate(12.87 13.61)"/><path d="M-2.26,68.59A13.6,13.6,0,0,0-.49,76.37,7.7,7.7,0,0,0,1.5,79a3.39,3.39,0,0,0,3.11.65A4.42,4.42,0,0,0,6,78.72a12.37,12.37,0,0,0,3.8-5.89,8.4,8.4,0,0,0-1-6.83c-3.59-5.24-10.24-3.8-11,2.59Z" transform="translate(12.87 13.61)"/><path d="M-11.47,84c0,3,1.8,5.7,3.55,8.14a4.59,4.59,0,0,0,1.16,1.28A4.49,4.49,0,0,0-4.28,94a23.18,23.18,0,0,0,3.72-.34A4,4,0,0,0,2,92.44a2.92,2.92,0,0,0,.31-2.78A7.66,7.66,0,0,0,.67,87.25a48.52,48.52,0,0,0-3.39-3.49,13.07,13.07,0,0,0-4.17-2.87A3.21,3.21,0,0,0-11.47,84Z" transform="translate(12.87 13.61)"/><path d="M22.76,169.75a5.7,5.7,0,0,0,.7,6.1,11.63,11.63,0,0,0,5.31,3.58,3.08,3.08,0,0,0,2.63.11c.85-.53,1-1.68,1.06-2.67.13-1.94.26-3.89.4-5.83a5.13,5.13,0,0,0-.29-2.67c-1.63-3.22-8.46-1-9.81,1.38Z" transform="translate(12.87 13.61)"/></g><path class="cls-6" d="M71.6,126.42c-2,4.79-4,9.71-4.14,14.89s2,10.74,6.57,13.21c2.86,1.55,6.26,1.71,9.51,1.66a93.71,93.71,0,0,0,12.62-1.08c3.87-.6,8.07-1.67,10.35-4.87,2.82-3.93,1.48-9.61-1.44-13.46s-7.13-6.49-10.73-9.72c-3.2-2.86-7-10.26-11.28-11.21-6-1.31-9.67,6.27-11.46,10.58Z" transform="translate(12.87 13.61)"/><path class="cls-6" d="M113,110.37c-4,2.35-8.4,5.3-9.1,9.88-.55,3.67,1.6,7.32,4.52,9.58s6.55,3.42,10.08,4.53c2.53.79,5.18,1.59,7.79,1.17s4.94-2.08,7.12-3.68l6.84-5c2.34-1.72,4.8-3.59,5.81-6.32a15.37,15.37,0,0,0,.6-5.37,8.07,8.07,0,0,0-.74-4c-1.2-2-3.83-2.54-6.16-2.86-5.13-.72-10.3-1.91-15.38-2.59C119.86,105.05,116.93,108.63,113,110.37Z" transform="translate(12.87 13.61)"/><path class="cls-6" d="M157.7,111.33a12,12,0,0,0-5.28,9.17,14.49,14.49,0,0,0,4.71,11A25.17,25.17,0,0,0,168,137.28c5.95,1.63,12.49,1.79,18.13-.68s10.19-7.89,10.55-14a16.77,16.77,0,0,0-6-13.31c-4.24-3.66-12.88-7.31-18.57-5.36-2,.7-3.41,2.53-5.27,3.56-2.9,1.57-6.28,2-9.07,3.88Z" transform="translate(12.87 13.61)"/><path class="cls-6" d="M184.69,65.37c-2.18,1.2-3.26,3.66-4.72,5.68-2.34,3.25-5.81,5.46-8.6,8.34s-5,7-3.68,10.79c.87,2.58,3.16,4.43,5.54,5.73a25.3,25.3,0,0,0,19.32,1.93,12.25,12.25,0,0,0,5.2-2.86c1.8-1.82,2.64-4.36,3.29-6.83,1-3.85,1.72-7.88.9-11.77-1.26-6-10.7-14.62-17.25-11Z" transform="translate(12.87 13.61)"/><path class="cls-6" d="M181.24,55.26a1.76,1.76,0,0,0,.09.91,1.64,1.64,0,0,0,.56.61A8.65,8.65,0,0,0,186.12,58a4.77,4.77,0,0,0,3.32-.43,3.57,3.57,0,0,0,1.17-1.72c.95-2.65.75-8.32-3.11-8.3C183.92,47.57,181.47,52.2,181.24,55.26Z" transform="translate(12.87 13.61)"/><path class="cls-6" d="M150.1,29.78a19.46,19.46,0,0,0-8.31,11.34,14.65,14.65,0,0,0,3.3,13.39c2.54,2.66,6.11,4.11,9.68,5a27.29,27.29,0,0,0,7.41.89c4.73-.17,9.55-2.19,12.31-6a24.66,24.66,0,0,0,3.19-7.64c1-3.7,2.06-7.48,1.93-11.34-.18-5-3.61-13-9.84-11.25-6.69,1.9-13.58,1.63-19.67,5.66Z" transform="translate(12.87 13.61)"/><path class="cls-6" d="M128.22-6.94c-1.27,2.5-.42,5.55-1.09,8.26S124.32,6.23,123.94,9c-.55,3.85,2.6,7.36,6.11,9a16.79,16.79,0,0,0,16.18-1,15.3,15.3,0,0,0,6.63-14.63C152-3.26,147.62-7.5,142.49-9.52c-4.2-1.66-11.89-2.11-14.27,2.58Z" transform="translate(12.87 13.61)"/><path class="cls-6" d="M110.18,1.26A5.25,5.25,0,0,0,114.61,0c5.33-4.41.91-12.37-5.58-10.84C103-9.44,105,0,110.18,1.26Z" transform="translate(12.87 13.61)"/><path class="cls-6" d="M83-8.6a3.86,3.86,0,0,0-1.79,1.18,4.06,4.06,0,0,0-.55,2.19A10.29,10.29,0,0,0,80.92-2a7,7,0,0,0,3.5,4.13,13.11,13.11,0,0,0,5.33,1.41,13.06,13.06,0,0,0,7.58-1.36,6.84,6.84,0,0,0,3.58-6.45,7,7,0,0,0-4.75-5.35C92.09-11.14,87-10.14,83-8.6Z" transform="translate(12.87 13.61)"/><path class="cls-6" d="M88.25,14.8a16.27,16.27,0,0,0-2.73,11.92,7.72,7.72,0,0,0,1.42,3.63c2.24,2.84,6.67,2.52,10.06,1.21a26.33,26.33,0,0,0,7.14-4.19c1.51-1.24,2.87-2.67,4.49-3.77,2.27-1.54,5.09-2.53,6.54-4.86s.93-5.92-1-8.14a11.64,11.64,0,0,0-7.75-3.66c-6.64-.66-14.3,2.3-18.21,7.86Z" transform="translate(12.87 13.61)"/><path class="cls-6" d="M111.56,29.78c-4,3.86-6.77,8.85-8.9,14-1.36,3.26-2.48,7-1.09,10.26s4.86,5,8.06,6.48,6.33,2.89,9.72,2.7a10,10,0,0,0,9.07-7.38,18.55,18.55,0,0,0,.29-4.34q-.09-6.8-.16-13.6c-.05-3.63.79-8.65-.68-12.06-2.67-6.21-13.39,1.15-16.31,4Z" transform="translate(12.87 13.61)"/><path class="cls-6" d="M125.72,74.59a10.71,10.71,0,0,0,.46,8.58c1.59,2.86,4.67,4.63,6.33,7.45.86,1.47,1.29,3.18,2.09,4.69a11.52,11.52,0,0,0,9.67,5.89,13.43,13.43,0,0,0,10.44-4.74A24.82,24.82,0,0,0,158,91.2c1-2.14,2-4.32,2.83-6.55,1.32-3.5,2.36-7.45.93-10.91-1.52-3.68-5.3-5.63-8.7-7.25s-7.36-3.63-11.22-4.3c-6.93-1.21-14,6.43-16.09,12.4Z" transform="translate(12.87 13.61)"/><path class="cls-6" d="M89.51,77.91a15.3,15.3,0,0,0-1.82,4.93c-.62,2.55-1.24,5.09-1.87,7.65-1,4.3-2,9.32.82,12.78,1.84,2.29,4.92,3.25,7.85,3.5A22.72,22.72,0,0,0,117.15,92a31.49,31.49,0,0,0,1.47-7.27c.27-2.65.29-5.52-1.2-7.73a9.28,9.28,0,0,0-3.69-3c-4.18-2.1-8.48-2.13-12.94-1.16-4.07.89-8.75,1.21-11.28,5Z" transform="translate(12.87 13.61)"/><path class="cls-6" d="M64.92,54.05a24.48,24.48,0,0,0-2.73,10.48,12.4,12.4,0,0,0,4.27,9.65,2.66,2.66,0,0,0,1,.54,2.4,2.4,0,0,0,1.43-.26c2.29-1,3.9-3.24,6.21-4.27a13.55,13.55,0,0,1,4.1-.9l8.07-1a6.4,6.4,0,0,0,3.08-.91,5.88,5.88,0,0,0,1.84-3.8,44.17,44.17,0,0,0,.73-10.39c-.14-2.88-.67-6-2.76-8-2.27-2.14-5.71-2.36-8.83-2.3s-7.35.13-10,2.23-4.88,5.73-6.36,8.84Z" transform="translate(12.87 13.61)"/><path class="cls-6" d="M39,42.86c-1.62,1.69-3.17,3.93-2.58,6.19.46,1.79,2.1,3,3.08,4.55s1.29,3.76,1.75,5.7,1.29,4,3,5c2.4,1.33,5.46,0,7.51-1.79C54.53,60,56.31,56.67,58,53.4A13.07,13.07,0,0,0,59.91,48c.08-2.51-1.3-4.84-2.92-6.77-2.21-2.62-6.38-6.1-10.15-4.87C44.13,37.21,40.88,40.88,39,42.86Z" transform="translate(12.87 13.61)"/><path class="cls-6" d="M27.67,12c-3.33,2.42-5.88,6.28-5.73,10.39a11.9,11.9,0,0,0,1,4.27,16.74,16.74,0,0,0,6.87,7.57A8.57,8.57,0,0,0,34,35.65c2,0,3.91-1.06,5.65-2.11,2.13-1.27,4.4-2.71,5.36-5a8.9,8.9,0,0,0-.08-6c-.62-2-1.58-3.79-2.2-5.76-.86-2.7-1.34-7.47-4.59-8.53C35,7.2,30,10.32,27.67,12Z" transform="translate(12.87 13.61)"/><path class="cls-6" d="M56.42,8.62c-2.15,4.29-2.94,9.13-3.72,13.87a12.09,12.09,0,0,0-.08,5.25,12.14,12.14,0,0,0,2,3.58c1.29,1.84,2.83,3.85,5.07,4.16A8.07,8.07,0,0,0,64,34.39c2.81-1.31,5.61-2.68,8.37-4.1C74.56,29.18,76.76,28,78.19,26c1.9-2.62,2-6.08,2-9.34,0-4.41-.22-9-2.49-12.81C71.91-5.84,60.27.93,56.42,8.62Z" transform="translate(12.87 13.61)"/><path class="cls-6" d="M36.81,76.63c-3.06,3.64-5.61,7.86-6.44,12.54s.28,9.88,3.65,13.22a5.53,5.53,0,0,0,3.75,1.86,7.25,7.25,0,0,0,4-1.84c3.11-2.31,6.21-4.64,9.32-7,2.14-1.61,4.35-3.26,5.7-5.58,2.05-3.5,1.79-7.87.94-11.83a14.74,14.74,0,0,0-2.66-6.31c-5.44-6.59-14.3.19-18.27,4.9Z" transform="translate(12.87 13.61)"/><path class="cls-6" d="M64,93.57a25.1,25.1,0,0,0-.2,10.57,8,8,0,0,0,1.06,3.11,3.23,3.23,0,0,0,2.77,1.54,3.82,3.82,0,0,0,2.63-1.8,25.72,25.72,0,0,1,1.86-2.73c1.89-2.07,5.27-2.53,6.73-4.93a7.91,7.91,0,0,0,.88-3.12c.37-2.87.91-6.2-.78-8.55C73.34,79.94,65.62,87.14,64,93.57Z" transform="translate(12.87 13.61)"/><path class="cls-6" d="M116.54,144.28a19.34,19.34,0,0,0-3.81,4.44c-1.52,2.21-3,4.46-4.43,6.73a36.59,36.59,0,0,0-3.48,6.5,16.52,16.52,0,0,0,.11,12.53,12.15,12.15,0,0,0,9.9,7.19,6.14,6.14,0,0,0,2.48-.3c1.7-.64,2.76-2.3,3.64-3.9a66,66,0,0,0,7.44-21.9c.42-2.71.65-5.55-.3-8.11a7.41,7.41,0,0,0-11.55-3.18Z" transform="translate(12.87 13.61)"/><path class="cls-6" d="M136.23,164.61c1,2.26,2.29,4.49,4.43,5.66,2.29,1.25,5.1,1.08,7.61.37s4.83-1.93,7.31-2.71c2.69-.84,5.49-1.17,8.2-1.91s5.41-2,7.12-4.2c3-3.88,2.09-9.77-.94-13.63s-7.66-6.09-12.25-7.83c-5.55-2.1-12.34-3.17-17.55.51-3.53,2.48-4.69,7.79-5.39,11.78a21.7,21.7,0,0,0,1.46,12Z" transform="translate(12.87 13.61)"/><path class="cls-6" d="M135.68,177c-1.69,1.27-3.47,2.9-3.54,5a6.29,6.29,0,0,0,.64,2.64,9.55,9.55,0,0,0,5.25,5.47c4.12,1.43,17.33-2.24,14.81-8.44C150.51,176,140.23,173.55,135.68,177Z" transform="translate(12.87 13.61)"/><path class="cls-6" d="M123.74,188a19.31,19.31,0,0,1,4,3.27,6.41,6.41,0,0,1,1.68,4.78,7.21,7.21,0,0,1-2.36,4.13,14.53,14.53,0,0,1-9.39,4.09,20.09,20.09,0,0,1-4.58-.36,13,13,0,0,1-4.53-1.52,8.12,8.12,0,0,1-3.72-7.49,8.58,8.58,0,0,1,4.87-6.87c2.51-1.16,5.39-1.05,8.13-.79l5.87.76Z" transform="translate(12.87 13.61)"/><path class="cls-6" d="M71,167.34c-2.17,2.08-3.25,5-4.15,7.93A37.33,37.33,0,0,0,64.71,186a15.18,15.18,0,0,0,3.36,10.19,14.37,14.37,0,0,0,10.27,4.52,26.58,26.58,0,0,0,11.2-2.39c2.73-1.16,5.47-2.67,7.1-5.15,2.65-4,1.76-9.31.76-14a13.71,13.71,0,0,0-1.2-3.82,14.35,14.35,0,0,0-2.93-3.44c-3-2.88-6.41-8-10.8-8C78.45,163.92,74,164.43,71,167.34Z" transform="translate(12.87 13.61)"/><path class="cls-6" d="M42.21,159.66a13.78,13.78,0,0,0-3.89,10.39,25,25,0,0,0,3.29,10.84c1,2,2.57,4,4.79,4.28a6.81,6.81,0,0,0,4.37-1.58c6.15-4.19,11.11-10.67,11.53-18.33.29-5.46-2.29-10.88-8.48-10.45a20.15,20.15,0,0,0-11.61,4.85Z" transform="translate(12.87 13.61)"/><path class="cls-6" d="M58.72,111.88a11.22,11.22,0,0,1-.18,20.1c-2.14,1-4.54,1.36-6.77,2.19-3,1.09-5.68,3.07-8.82,3.21a9.26,9.26,0,0,1-8.44-5.46,13.19,13.19,0,0,1,0-10.35c2-5,7.07-7.65,11.89-10.12,3.11-1.6,7.18-1.13,10.19-.55l2.12,1Z" transform="translate(12.87 13.61)"/><path class="cls-6" d="M47.18,146.11a2.88,2.88,0,0,0-1,1.09,2.22,2.22,0,0,0,.8,2.55,4.42,4.42,0,0,0,2.73.76c2.05,0,9-2.31,6.63-5.49-1.7-2.32-7.5-.13-9.17,1.09Z" transform="translate(12.87 13.61)"/><path class="cls-6" d="M21.34,148.4a5.4,5.4,0,0,0,.26,2.68,6.71,6.71,0,0,0,.87,1.46l3.26,4.61A8.23,8.23,0,0,0,29,160.28c1.7.71,3.66.19,5.35-.52a11.38,11.38,0,0,0,2.91-1.68,9,9,0,0,0,2.84-7.5c-.3-4.05-3.59-11.19-8.15-12-5.53-1-10.11,4.94-10.6,9.82Z" transform="translate(12.87 13.61)"/><path class="cls-6" d="M4.4,138.72c-1.6.33-3.31.61-4.5,1.73-1.56,1.46-1.69,4-.86,6a14.77,14.77,0,0,0,4,4.95c1.73,1.56,3.79,3.16,6.1,2.93,2.47-.23,4.25-2.46,5.37-4.67a17.75,17.75,0,0,0,2.07-8.36c-.18-8.28-7.4-3.54-12.21-2.56Z" transform="translate(12.87 13.61)"/><path class="cls-6" d="M13.83,115.11c-.5,3.18,0,6.43.56,9.61a6.65,6.65,0,0,0,.76,2.53,4.65,4.65,0,0,0,3.5,1.94,13.33,13.33,0,0,0,4.11-.44,6.7,6.7,0,0,0,2.35-.81,6.11,6.11,0,0,0,1.85-2.4,39.15,39.15,0,0,0,3.22-8.5c1.15-4.49.33-11.22-5.59-11.15a10.7,10.7,0,0,0-10.76,9.22Z" transform="translate(12.87 13.61)"/><path class="cls-6" d="M-10.18,111.85a28.33,28.33,0,0,0,1.86,10,15.53,15.53,0,0,0,3.21,6,8.72,8.72,0,0,0,6.89,2.55,5.23,5.23,0,0,0,3.85-1.89,7.32,7.32,0,0,0,1-3.86c.19-2.71.37-5.42.56-8.13.16-2.42.24-5.14-1.35-7C4.51,108,2.5,107.59.74,106.79c-2-.91-3.21-3.29-5.12-4-4.12-1.55-5.72,6.41-5.8,9.06Z" transform="translate(12.87 13.61)"/><path class="cls-6" d="M12,86a12.59,12.59,0,0,0-2.75,5.51,25.64,25.64,0,0,0-.81,7.9,7.53,7.53,0,0,0,.77,3.28A3.14,3.14,0,0,0,12,104.41c1.07-.07,2-.86,2.93-1.33,1.86-.9,4.12-.67,5.91-1.67,2.61-1.47,3.25-4.93,3.14-7.92a10.94,10.94,0,0,0-.43-3c-1.71-5.09-7-9.27-11.52-4.49Z" transform="translate(12.87 13.61)"/><path class="cls-6" d="M16,71.87a4.41,4.41,0,0,0,.87,3.44c.91,1,2.39,1.13,3.73,1.23l2.61.17a9.31,9.31,0,0,0,2.36,0,7.21,7.21,0,0,0,4.11-2.92A11.42,11.42,0,0,0,32,68.49,7.1,7.1,0,0,0,30.58,63C24.94,56.29,16.41,66.06,16,71.87Z" transform="translate(12.87 13.61)"/><path class="cls-6" d="M14.83,45.45c-.83.74-1.77,1.39-2.54,2.21A8.53,8.53,0,0,0,10,53.45a3.48,3.48,0,0,0,1.26,3,3.89,3.89,0,0,0,1.53.5A41.27,41.27,0,0,0,21,57.2a10.47,10.47,0,0,0,4.52-.85c2.42-1.28,3.39-4.17,4.15-6.79s1.42-5.32.1-7.55a7.67,7.67,0,0,0-4.59-3c-2-.58-4.75-.85-6.34.76S16.66,43.83,14.83,45.45Z" transform="translate(12.87 13.61)"/><path class="cls-6" d="M-1.47,67A13.55,13.55,0,0,0,.31,74.8a7.55,7.55,0,0,0,2,2.62,3.34,3.34,0,0,0,3.11.65,4.39,4.39,0,0,0,1.38-.92,12.21,12.21,0,0,0,3.8-5.9,8.38,8.38,0,0,0-1-6.82C6,59.18-.69,60.63-1.47,67Z" transform="translate(12.87 13.61)"/><path class="cls-6" d="M-10.69,82.44c0,3,1.8,5.69,3.55,8.14A4.73,4.73,0,0,0-6,91.86a4.49,4.49,0,0,0,2.48.53,23.18,23.18,0,0,0,3.72-.34,4,4,0,0,0,2.53-1.18,2.92,2.92,0,0,0,.31-2.78,7.55,7.55,0,0,0-1.61-2.41,48.52,48.52,0,0,0-3.39-3.49,13.07,13.07,0,0,0-4.17-2.87,3.21,3.21,0,0,0-4.58,3.12Z" transform="translate(12.87 13.61)"/><path class="cls-6" d="M21.17,169.66a5.73,5.73,0,0,0,.71,6.1,11.71,11.71,0,0,0,5.31,3.58,3.06,3.06,0,0,0,2.62.11,3.24,3.24,0,0,0,1.07-2.68c.13-1.94.26-3.89.4-5.82a5.08,5.08,0,0,0-.3-2.68c-1.63-3.21-8.45-1-9.81,1.39Z" transform="translate(12.87 13.61)"/><path class="cls-7" d="M145.2,130.7c-1.67-.62-3.53.17-5.15,1-1.34.64-2.84,1.52-3,3-.16,1.72,1.87,3,3.56,2.7s3-1.66,4-3a4.07,4.07,0,0,0,.9-1.84,1.51,1.51,0,0,0-.94-1.66Z" transform="translate(12.87 13.61)"/><path class="cls-7" d="M167.71,101.17a5.29,5.29,0,0,1-7.46,4.84,2.75,2.75,0,0,1-1-.68,2.85,2.85,0,0,1,0-3.19,5.79,5.79,0,0,1,7.7-2.09Z" transform="translate(12.87 13.61)"/><path class="cls-7" d="M172.91,70.24a1.85,1.85,0,0,0,.12,1.07,1.78,1.78,0,0,0,1.54.7,6.14,6.14,0,0,0,4.89-2.23c1.54-1.91,2-5.4-1.32-5.19C175.5,64.74,173.22,67.81,172.91,70.24Z" transform="translate(12.87 13.61)"/><path class="cls-7" d="M156.86,18.62c-1.48.44-3.11,1.28-3.38,2.8a3,3,0,0,0,1.75,3,6.35,6.35,0,0,0,3.69.44c2.37-.28,7.14-2.35,5.65-5.63C163.41,16.74,158.85,18,156.86,18.62Z" transform="translate(12.87 13.61)"/><path class="cls-7" d="M121.92-.62a5.33,5.33,0,0,0-.87,4,2.1,2.1,0,0,0,1,1.49,2.15,2.15,0,0,0,2.13-.39A6.74,6.74,0,0,0,126.51.3a4.79,4.79,0,0,0,0-2.68C125.34-5.43,122.81-2,121.92-.62Z" transform="translate(12.87 13.61)"/><path class="cls-7" d="M98.8,34.19a10.07,10.07,0,0,0-4.64.69c-1,.39-2,1.22-1.78,2.22a1.69,1.69,0,0,0,1.31,1.17,5.18,5.18,0,0,0,1.84,0,6.7,6.7,0,0,0,3.17-1,2.27,2.27,0,0,0,.66-3l-.56-.05Z" transform="translate(12.87 13.61)"/><path class="cls-7" d="M131.43,39.1a12.54,12.54,0,0,0,.2,5.31A3.29,3.29,0,0,0,133,46.78a2.24,2.24,0,0,0,2.5-.45A5.09,5.09,0,0,0,136.78,44a15.36,15.36,0,0,0,.68-4.9C137.33,33.83,132.45,34.68,131.43,39.1Z" transform="translate(12.87 13.61)"/><path class="cls-7" d="M126,94.42a4.37,4.37,0,0,0,2,4.32,3.77,3.77,0,0,0,4.6-1.16,4.44,4.44,0,0,0,.08-4.87c-2.42-3.9-6.23-2.57-6.69,1.71Z" transform="translate(12.87 13.61)"/><path class="cls-7" d="M99.35,69.26A2.59,2.59,0,0,0,101,70.51c2.26.73,9.08-1,5.78-4.14C104.63,64.29,97.68,65.32,99.35,69.26Z" transform="translate(12.87 13.61)"/><path class="cls-7" d="M73.84,77a3,3,0,0,0,1.79,2.18,5.93,5.93,0,0,0,2.89.37c3-.25,7.34-4.24,3.41-6.64C79.48,71.37,73.33,73.63,73.84,77Z" transform="translate(12.87 13.61)"/><path class="cls-7" d="M36.69,60.79c.77.76,2.13,1.15,2.88.37a2.7,2.7,0,0,0,.52-1.82c0-1.66-.77-7.05-3.53-5.43-2,1.21-1.2,5.56.13,6.88Z" transform="translate(12.87 13.61)"/><path class="cls-7" d="M46.33,7a1.17,1.17,0,0,1,1.3.27,3.36,3.36,0,0,1,.72,1.21,8.08,8.08,0,0,1,.8,3,3,3,0,0,1-1.38,2.7,2.73,2.73,0,0,1-3.23-.74,4.15,4.15,0,0,1-.8-3.37,3.07,3.07,0,0,1,1.95-2.59L46.33,7Z" transform="translate(12.87 13.61)"/><path class="cls-7" d="M73.81,33.79a2.49,2.49,0,0,0-.68,2.05,2,2,0,0,0,1.7,1.41,5.3,5.3,0,0,0,2.3-.27,6.16,6.16,0,0,0,3.6-2.15c3.19-4.76-5.07-3.3-6.92-1Z" transform="translate(12.87 13.61)"/><path class="cls-7" d="M51.36,101.45a2.53,2.53,0,0,0-.19,1.36c.25,1.15,1.71,1.6,2.89,1.48a6.55,6.55,0,0,0,4.88-3.09,3.79,3.79,0,0,0,.51-3.14C57.89,93.67,52.19,99.33,51.36,101.45Z" transform="translate(12.87 13.61)"/><path class="cls-7" d="M79.68,103.5a1.44,1.44,0,0,1,1.45.69,2.36,2.36,0,0,1,.25,1.65,3.79,3.79,0,0,1-2,2.71,3.84,3.84,0,0,1-3.34,0,1.75,1.75,0,0,1-1-2.26,3.71,3.71,0,0,1,2.14-2.23,3.81,3.81,0,0,1,1.76-.54l.74-.07Z" transform="translate(12.87 13.61)"/><path class="cls-7" d="M88.87,114.14c-.68,1.18,0,2.67.84,3.77a19.47,19.47,0,0,0,1.91,2.24c1.12,1.14,2.81,2.22,4.24,1.5a3,3,0,0,0,1.38-2.86C97.11,116,91.2,110.09,88.87,114.14Z" transform="translate(12.87 13.61)"/><path class="cls-7" d="M128.9,176.32c3,.41,5.84-5.49,1.79-6.53S125.46,175.86,128.9,176.32Z" transform="translate(12.87 13.61)"/><path class="cls-7" d="M158.55,170.4a2,2,0,0,0-.31,2.16,1.65,1.65,0,0,0,.43.48,3.61,3.61,0,0,0,2.55.39c6.59-.94,0-6.22-2.67-3Z" transform="translate(12.87 13.61)"/><path class="cls-7" d="M92.81,164.27c-.59,1-1,2.22-.46,3.19a2.56,2.56,0,0,0,2.33,1c2.5-.09,5.39-3.13,3.84-5.67S93.93,162.41,92.81,164.27Z" transform="translate(12.87 13.61)"/><path class="cls-7" d="M66.31,156c-1.1.15-1.69,1.35-1.9,2.44a3.1,3.1,0,0,0,.22,2.15,2.31,2.31,0,0,0,3.46.19A2.82,2.82,0,0,0,66.7,156Z" transform="translate(12.87 13.61)"/><path class="cls-7" d="M54.32,135.46c-.88.39-1.81,1.14-1.68,2.1S54,139,55,139.13c1.66.17,5.61-.64,4.86-3.17-.67-2.19-4.11-1.13-5.5-.5Z" transform="translate(12.87 13.61)"/><path class="cls-7" d="M60.12,142.69a4,4,0,0,0-1.16,2.7,1.71,1.71,0,0,0,.43,1.29,1.49,1.49,0,0,0,1.43.24,2.24,2.24,0,0,0-.24-4.35l-.46.12Z" transform="translate(12.87 13.61)"/><path class="cls-7" d="M21.18,154.77l1.78.77a3.63,3.63,0,0,1,1.4,3.31c-.07,1.33-.9,2.85-2.22,2.85s-2-1.24-2.25-2.4c-.34-1.67.28-3.73,1.9-4.25" transform="translate(12.87 13.61)"/><path class="cls-7" d="M8.14,134.18a3.3,3.3,0,0,0-3.8,1.39.59.59,0,0,0-.11.49.59.59,0,0,0,.27.29,2.52,2.52,0,0,0,2.44.14,2.57,2.57,0,0,0,1.37-2Z" transform="translate(12.87 13.61)"/><path class="cls-7" d="M26.7,129.91a5.34,5.34,0,0,0-5,1.57,2.61,2.61,0,0,0-.76,1.61c0,1.29,1.38,2.18,2.67,2.26a5,5,0,0,0,4.1-1.78,3,3,0,0,0,.76-1.93,1.69,1.69,0,0,0-1.16-1.59l-.62-.14Z" transform="translate(12.87 13.61)"/><path class="cls-7" d="M.54,100.74c-.86.37-.9,1.73-.6,2.63a3,3,0,0,0,2,1.82c.78.25,1.82.17,2.16-.59a2.17,2.17,0,0,0-.27-1.75A5.21,5.21,0,0,0,2.59,101a1.77,1.77,0,0,0-2.11-.19l.06,0Z" transform="translate(12.87 13.61)"/><path class="cls-7" d="M22.39,84a2.41,2.41,0,0,0,1.18,1c2.48,1,4.06-.7,1.7-2.21C24,82,20.77,81.42,22.39,84Z" transform="translate(12.87 13.61)"/><path class="cls-7" d="M36.36,66.54a1.27,1.27,0,0,1,1.41.55,2.91,2.91,0,0,1,.4,1.56A3.25,3.25,0,0,1,37.54,71a2.1,2.1,0,0,1-2.64.25A2.44,2.44,0,0,1,34,68.71a3,3,0,0,1,1.92-2l.45-.17Z" transform="translate(12.87 13.61)"/><path class="cls-7" d="M11.55,41.23a2.22,2.22,0,0,0-.84,1.62,1.56,1.56,0,0,0,.72,1.27,2,2,0,0,0,1.32.24c1.17-.15,4-2.06,3.15-3.94C15.17,38.73,12.4,40.45,11.55,41.23Z" transform="translate(12.87 13.61)"/><path class="cls-7" d="M11.86,77.53a2.32,2.32,0,0,1,.08,3.32,3.63,3.63,0,0,1-3.49.79,2,2,0,0,1-1-.47,1.63,1.63,0,0,1-.1-2,3.51,3.51,0,0,1,1.69-1.26,19,19,0,0,0,2-.8Z" transform="translate(12.87 13.61)"/><path class="cls-7" d="M4.75,92.82c.62-.18,1.18.55,1.09,1.18a2.61,2.61,0,0,1-1.1,1.51,4.5,4.5,0,0,1-2.16,1.07,1.9,1.9,0,0,1-2-1.06,2,2,0,0,1,1-2.22,5.56,5.56,0,0,1,2.53-.61l.68.13Z" transform="translate(12.87 13.61)"/><path class="cls-8" d="M144.18,130.56c-1.68-.62-3.54.17-5.16.95-1.33.64-2.84,1.52-3,3-.16,1.71,1.87,3,3.56,2.7s3-1.66,4-3a4,4,0,0,0,.9-1.85,1.51,1.51,0,0,0-.93-1.65Z" transform="translate(12.87 13.61)"/><path class="cls-9" d="M166.68,101a5.3,5.3,0,0,1-7.46,4.84,2.71,2.71,0,0,1-1-.68,2.83,2.83,0,0,1,0-3.19A5.78,5.78,0,0,1,166,99.9Z" transform="translate(12.87 13.61)"/><path class="cls-10" d="M171.89,70.08a1.4,1.4,0,0,0,1.65,1.78,6.15,6.15,0,0,0,4.89-2.24c1.54-1.9,2-5.39-1.32-5.19C174.47,64.6,172.18,67.67,171.89,70.08Z" transform="translate(12.87 13.61)"/><path class="cls-11" d="M155.82,18.48c-1.48.44-3.11,1.28-3.38,2.8a3.06,3.06,0,0,0,1.75,3,6.43,6.43,0,0,0,3.69.44c2.37-.28,7.14-2.35,5.65-5.63C162.38,16.6,157.81,17.9,155.82,18.48Z" transform="translate(12.87 13.61)"/><path class="cls-12" d="M120.89-.78a5.37,5.37,0,0,0-.87,4,2.15,2.15,0,0,0,1,1.49,2.15,2.15,0,0,0,2.13-.39A6.83,6.83,0,0,0,125.49.15a4.91,4.91,0,0,0,0-2.69C124.32-5.59,121.77-2.18,120.89-.78Z" transform="translate(12.87 13.61)"/><path class="cls-13" d="M97.78,34.05a10,10,0,0,0-4.65.69c-1,.39-2,1.21-1.77,2.22a1.69,1.69,0,0,0,1.3,1.17,5.17,5.17,0,0,0,1.84,0,6.6,6.6,0,0,0,3.17-1,2.25,2.25,0,0,0,.66-3Z" transform="translate(12.87 13.61)"/><path class="cls-14" d="M130.4,39a12.5,12.5,0,0,0,.2,5.3,3.31,3.31,0,0,0,1.33,2.38,2.25,2.25,0,0,0,2.5-.45,5.14,5.14,0,0,0,1.32-2.34,15.38,15.38,0,0,0,.68-4.91C136.29,33.67,131.42,34.53,130.4,39Z" transform="translate(12.87 13.61)"/><path class="cls-15" d="M125,94.28a4.37,4.37,0,0,0,2,4.32,3.77,3.77,0,0,0,4.6-1.16,4.46,4.46,0,0,0,.08-4.87c-2.41-3.9-6.21-2.58-6.69,1.71Z" transform="translate(12.87 13.61)"/><path class="cls-16" d="M98.32,69.1A2.56,2.56,0,0,0,100,70.35c2.26.74,9.08-.94,5.78-4.13C103.59,64.15,96.65,65.16,98.32,69.1Z" transform="translate(12.87 13.61)"/><path class="cls-17" d="M72.81,76.83A3,3,0,0,0,74.61,79a5.75,5.75,0,0,0,2.88.36c3-.24,7.34-4.23,3.42-6.63C78.44,71.22,72.3,73.48,72.81,76.83Z" transform="translate(12.87 13.61)"/><path class="cls-18" d="M35.66,60.65c.77.76,2.13,1.15,2.88.37a2.63,2.63,0,0,0,.52-1.83c0-1.65-.77-7-3.53-5.42-2,1.19-1.2,5.55.13,6.88Z" transform="translate(12.87 13.61)"/><path class="cls-19" d="M45.3,6.86a1.17,1.17,0,0,1,1.3.27,3.36,3.36,0,0,1,.72,1.21,8.08,8.08,0,0,1,.8,3.05,3,3,0,0,1-1.38,2.69,2.71,2.71,0,0,1-3.23-.73,4.16,4.16,0,0,1-.8-3.37,3.07,3.07,0,0,1,1.95-2.59l.64-.53Z" transform="translate(12.87 13.61)"/><path class="cls-20" d="M72.77,33.64a2.48,2.48,0,0,0-.68,2,2,2,0,0,0,1.7,1.42,5.3,5.3,0,0,0,2.3-.27,6.16,6.16,0,0,0,3.6-2.15c3.19-4.76-5.07-3.3-6.92-1Z" transform="translate(12.87 13.61)"/><path class="cls-21" d="M50.32,101.29a2.56,2.56,0,0,0-.19,1.36c.25,1.16,1.71,1.61,2.89,1.49A6.53,6.53,0,0,0,57.9,101a3.76,3.76,0,0,0,.51-3.13C56.85,93.53,51.16,99.19,50.32,101.29Z" transform="translate(12.87 13.61)"/><path class="cls-22" d="M78.64,103.35a1.45,1.45,0,0,1,1.45.68,2.39,2.39,0,0,1,.25,1.66A3.74,3.74,0,0,1,75,108.44a1.9,1.9,0,0,1-.89-.74,1.94,1.94,0,0,1-.13-1.51A3.75,3.75,0,0,1,76.14,104a3.69,3.69,0,0,1,1.76-.53l.74-.07Z" transform="translate(12.87 13.61)"/><path class="cls-23" d="M87.83,114c-.68,1.18,0,2.67.84,3.77A19.37,19.37,0,0,0,90.58,120c1.12,1.15,2.81,2.23,4.24,1.51a3,3,0,0,0,1.38-2.87C96.08,115.88,90.17,109.93,87.83,114Z" transform="translate(12.87 13.61)"/><path class="cls-24" d="M127.86,176.18c3,.4,5.84-5.49,1.79-6.54S124.43,175.71,127.86,176.18Z" transform="translate(12.87 13.61)"/><path class="cls-25" d="M157.51,170.25a2,2,0,0,0-.31,2.16,1.61,1.61,0,0,0,.43.47,3.56,3.56,0,0,0,2.55.39c6.6-.93-.05-6.2-2.67-3Z" transform="translate(12.87 13.61)"/><path class="cls-26" d="M91.77,164.11c-.59,1-1,2.22-.46,3.19a2.54,2.54,0,0,0,2.33,1c2.5-.09,5.39-3.13,3.84-5.67S92.89,162.27,91.77,164.11Z" transform="translate(12.87 13.61)"/><path class="cls-27" d="M65.27,155.81c-1.1.16-1.69,1.36-1.9,2.45a3.1,3.1,0,0,0,.22,2.15,2.31,2.31,0,0,0,3.46.19,2.82,2.82,0,0,0-1.39-4.77l-.39,0Z" transform="translate(12.87 13.61)"/><path class="cls-28" d="M53.28,135.31c-.88.39-1.81,1.15-1.68,2.11s1.31,1.46,2.32,1.57c1.66.17,5.61-.64,4.86-3.17-.65-2.21-4.09-1.13-5.5-.51Z" transform="translate(12.87 13.61)"/><path class="cls-29" d="M59.08,142.55a4,4,0,0,0-1.16,2.69,1.69,1.69,0,0,0,.43,1.29,1.49,1.49,0,0,0,1.43.25,2.24,2.24,0,0,0-.24-4.35l-.46.12Z" transform="translate(12.87 13.61)"/><path class="cls-30" d="M20.14,154.62l1.78.77a3.62,3.62,0,0,1,1.4,3.31c-.07,1.32-.9,2.85-2.22,2.85s-2-1.24-2.25-2.4c-.34-1.67.28-3.74,1.9-4.26" transform="translate(12.87 13.61)"/><path class="cls-31" d="M7.1,134a3.29,3.29,0,0,0-3.8,1.39.48.48,0,0,0,.16.78,2.52,2.52,0,0,0,2.44.13,2.56,2.56,0,0,0,1.37-2Z" transform="translate(12.87 13.61)"/><path class="cls-32" d="M25.66,129.77a5.32,5.32,0,0,0-5,1.57,2.61,2.61,0,0,0-.76,1.61c0,1.29,1.38,2.18,2.67,2.26a5,5,0,0,0,4.1-1.79,2.94,2.94,0,0,0,.76-1.92,1.69,1.69,0,0,0-1.16-1.59l-.62-.14Z" transform="translate(12.87 13.61)"/><path class="cls-33" d="M-.5,100.58c-.86.38-.9,1.74-.6,2.64a3,3,0,0,0,2,1.82c.78.25,1.82.16,2.16-.59a2.16,2.16,0,0,0-.27-1.75,5,5,0,0,0-1.25-1.88,1.76,1.76,0,0,0-2.11-.19l.06,0Z" transform="translate(12.87 13.61)"/><path class="cls-34" d="M21.36,83.89a2.41,2.41,0,0,0,1.18,1c2.48,1,4.06-.7,1.7-2.21C23,81.83,19.73,81.28,21.36,83.89Z" transform="translate(12.87 13.61)"/><path class="cls-35" d="M35.32,66.38a1.27,1.27,0,0,1,1.41.56,2.88,2.88,0,0,1,.4,1.56,3.21,3.21,0,0,1-.63,2.37,2.09,2.09,0,0,1-2.64.25A2.42,2.42,0,0,1,33,68.56a2.94,2.94,0,0,1,1.92-2l.45-.18Z" transform="translate(12.87 13.61)"/><path class="cls-36" d="M10.52,41.08a2.25,2.25,0,0,0-.84,1.62A1.57,1.57,0,0,0,10.4,44a2,2,0,0,0,1.33.24c1.17-.16,4-2.06,3.14-3.94C14.13,38.59,11.37,40.3,10.52,41.08Z" transform="translate(12.87 13.61)"/><path class="cls-37" d="M10.83,77.39a2.32,2.32,0,0,1,.08,3.32,3.63,3.63,0,0,1-3.49.79,2,2,0,0,1-1-.47,1.63,1.63,0,0,1-.1-2A3.45,3.45,0,0,1,8.05,77.8a20.15,20.15,0,0,0,2-.8Z" transform="translate(12.87 13.61)"/><path class="cls-38" d="M3.71,92.66c.62-.18,1.18.56,1.09,1.18a2.6,2.6,0,0,1-1.1,1.52,4.4,4.4,0,0,1-2.16,1.06,1.88,1.88,0,0,1-2-1,2,2,0,0,1,1-2.22A5.63,5.63,0,0,1,3,92.53l.69.13Z" transform="translate(12.87 13.61)"/></g></g></g></g></svg>
