<svg xmlns="http://www.w3.org/2000/svg" viewBox="0 0 212.62 212.16"><defs><style>.cls-1{fill:#fcf3eb;}.cls-2{fill:#787c7d;}.cls-3{fill:#faabcb;}.cls-3,.cls-5{stroke:#000;stroke-miterlimit:10;stroke-width:0.93px;}.cls-4,.cls-5{fill:#bf4a77;}</style></defs><g id="Layer_2" data-name="Layer 2"><g id="Layer_1-2" data-name="Layer 1"><path class="cls-1" d="M106.08,211.72A105.64,105.64,0,1,1,205.73,70.94l-1.65-.15c-2.1-1-31.17-15.05-35.48-15.32-1.18-1.2-9.88-9.46-26.71-9.83h-.63c-16.51,0-23.85,14.38-24.82,16.45a127.41,127.41,0,0,0-18.06,3.06c-12.8,3.2-21.12,7.76-24.74,13.56A137.9,137.9,0,0,0,54.73,84c-13.44,4.84-22,10.65-25.61,17.29l-.05.09v22.3l126.75,65L190,170.24A106.13,106.13,0,0,1,106.08,211.72Z"/><path class="cls-1" d="M106.08.88a105.24,105.24,0,0,1,99,69.56l-.89-.08c-3.81-1.84-30.46-14.69-35.39-15.31-1.57-1.61-10.16-9.48-26.9-9.85h-.64c-16.24,0-23.75,13.68-25.11,16.46a128.07,128.07,0,0,0-17.87,3.06c-12.8,3.19-21.18,7.76-24.92,13.59a138.66,138.66,0,0,0-18.78,5.23C41,88.41,32.34,94.3,28.73,101l-.1.19V123.9l.48.24L155.42,188.9l.41.22.41-.22,32.12-17.28a106.12,106.12,0,0,1-34,28,104,104,0,0,1-48.24,11.69,105.2,105.2,0,0,1,0-210.4m0-.88a106.08,106.08,0,1,0,85.47,168.91l-35.73,19.21L29.51,123.36V101.44C38,85.69,73.91,79.1,73.91,79.1c8.45-13.93,42.83-16.61,42.83-16.61s6.91-16.41,24.52-16.42h.62c18.08.39,26.53,9.82,26.53,9.82h.07c3.86,0,35.48,15.33,35.48,15.33.83,0,1.63.14,2.42.23A106.13,106.13,0,0,0,106.08,0Z"/><path class="cls-2" d="M120.87,162.11h0L29.51,116.54v6.82l126.31,64.76,35.73-19.21a107.25,107.25,0,0,0,7.79-12.23L157,180.14Z"/><path class="cls-3" d="M72.93,103.75c-3.15-2.25,1-24.65,1-24.65S38,85.69,29.51,101.44l34.18,18.44C63.89,116.58,72.93,103.75,72.93,103.75ZM48.34,97.3c.9-3.07,5.64-4.38,10.61-2.93s8.26,5.1,7.37,8.17-5.64,4.37-10.61,2.93S47.45,100.36,48.34,97.3Z"/><path class="cls-3" d="M72.93,103.75c3.14,2.25,53.83,5.62,55.79,5.7s4.32-26.24,2-27.42-12.57-10.2-13.94-19.54c0,0-34.38,2.68-42.83,16.61C73.91,79.1,69.78,101.5,72.93,103.75ZM96,84.94c.89-3.06,5.64-4.38,10.6-2.93s8.26,5.1,7.37,8.17-5.64,4.38-10.6,2.93S95.12,88,96,84.94Z"/><path class="cls-3" d="M130.68,82s13.17,3,15.72,1.58c0,0,2.1-18.67,22-27.71,0,0-8.45-9.43-26.53-9.82s-25.14,16.41-25.14,16.41C118.11,71.83,128.33,80.85,130.68,82ZM127.49,62c.9-3.06,5.64-4.38,10.61-2.93s8.26,5.1,7.37,8.17-5.64,4.38-10.61,2.93S126.6,65,127.49,62Z"/><path class="cls-3" d="M146.4,83.61c7.86,9.82,24.36,14,24.36,14C179.21,96.4,204,71.23,204,71.23s-32-15.52-35.55-15.33C148.5,64.94,146.4,83.61,146.4,83.61ZM166.2,72c.89-3.06,5.64-4.38,10.6-2.93s8.26,5.1,7.37,8.17-5.64,4.38-10.6,2.93S165.3,75,166.2,72Z"/><path class="cls-3" d="M63.69,119.88l58,31.26V151c0-2.55,7.07-12,7.07-12v-29.5c-2-.08-52.65-3.45-55.79-5.7C72.93,103.75,63.89,116.58,63.69,119.88Zm32.33.33c.89-3.06,5.64-4.37,10.6-2.93s8.26,5.1,7.37,8.17-5.64,4.38-10.6,2.93S95.12,123.28,96,120.21Z"/><path class="cls-3" d="M121.64,151.14l34.78,18.76,43.85-25.1h0c-25.54-20.06-71.55-5.85-71.55-5.85s-7.07,9.49-7.07,12Zm25.19-4.24c.89-3.07,5.64-4.38,10.61-2.94s8.26,5.11,7.37,8.17-5.64,4.38-10.61,2.93S145.94,150,146.83,146.9Z"/><polygon class="cls-3" points="63.69 119.88 63.69 119.88 63.69 133 63.69 119.88 63.69 119.88 29.51 101.44 29.51 116.54 120.94 161.04 121.64 151.14 63.69 119.88"/><path class="cls-3" d="M201,153.48a105.64,105.64,0,0,0,5.11-12l-5.84,3.35Z"/><path class="cls-3" d="M170.76,97.57s-5.53,34.2-3.37,36.6c-2.16-2.4,3.37-36.6,3.37-36.6s-16.5-4.14-24.36-14C143.85,85,130.68,82,130.68,82c2.36,1.18,0,27.51-2,27.42V139s46-14.21,71.55,5.85h0l5.84-3.35a106,106,0,0,0,6-35.37c0-1.77,0-3.54-.13-5.29-17.41-6-33.52-7-33.27-7.15-.25.16,15.86,1.16,33.27,7.15-.1-2-.25-3.91-.45-5.85a15.67,15.67,0,0,1-2.05-.44c-5-1.45-8.26-5.1-7.37-8.17.7-2.4,3.76-3.71,7.44-3.48a108.39,108.39,0,0,0-3.22-11.39c-.79-.09-1.59-.18-2.42-.23C204,71.23,179.21,96.4,170.76,97.57Zm-12.85,16.8c-.89,3.06-5.64,4.38-10.6,2.93s-8.27-5.1-7.38-8.17,5.65-4.38,10.61-2.93S158.8,111.3,157.91,114.37ZM189.76,118c.89-3.06,5.64-4.37,10.6-2.93s8.26,5.11,7.37,8.17-5.64,4.38-10.6,2.93S188.86,121.07,189.76,118Z"/><path class="cls-3" d="M156.42,169.9l-34.78-18.76-.7,9.9,34.88,17,44.79-23.75.39-.78-.73-8.68Z"/><polygon class="cls-3" points="120.87 162.11 120.94 161.04 29.51 116.54 120.87 162.11"/><path class="cls-3" d="M155.82,178l-34.88-17-.07,1.07,36.14,18,42.33-23.46c.43-.8.86-1.61,1.27-2.42Z"/><ellipse class="cls-4" cx="198.74" cy="120.62" rx="5.78" ry="9.36" transform="translate(27.34 277.69) rotate(-73.76)"/><path class="cls-4" d="M150.54,106.2c-5-1.45-9.71-.13-10.61,2.93s2.41,6.72,7.38,8.17,9.71.13,10.6-2.93S155.5,107.65,150.54,106.2Z"/><path class="cls-5" d="M202.16,86.33c-.89,3.07,2.41,6.72,7.37,8.17a15.67,15.67,0,0,0,2.05.44,106.54,106.54,0,0,0-2-12.09C205.92,82.62,202.86,83.93,202.16,86.33Z"/><path class="cls-4" d="M173.57,80.14c5,1.45,9.71.13,10.6-2.93s-2.41-6.72-7.37-8.17-9.71-.13-10.6,2.93S168.6,78.69,173.57,80.14Z"/><path class="cls-4" d="M134.86,70.12c5,1.45,9.71.13,10.61-2.93s-2.41-6.72-7.37-8.17-9.71-.13-10.61,2.93S129.9,68.67,134.86,70.12Z"/><path class="cls-4" d="M103.39,93.11c5,1.45,9.71.13,10.6-2.93s-2.41-6.72-7.37-8.17-9.71-.13-10.6,2.93S98.42,91.66,103.39,93.11Z"/><ellipse class="cls-4" cx="57.33" cy="99.92" rx="5.78" ry="9.36" transform="translate(-54.63 127.01) rotate(-73.76)"/><path class="cls-4" d="M103.39,128.38c5,1.45,9.71.13,10.6-2.93s-2.41-6.72-7.37-8.17-9.71-.13-10.6,2.93S98.42,126.93,103.39,128.38Z"/><ellipse class="cls-4" cx="155.82" cy="149.51" rx="5.78" ry="9.36" transform="matrix(0.28, -0.96, 0.96, 0.28, -31.31, 257.29)"/></g></g></svg>
