<svg xmlns="http://www.w3.org/2000/svg" viewBox="0 0 212.18 212.18"><defs><style>.cls-1{fill:#f7e1d4;}.cls-2{fill:#ccbdb4;}.cls-3{fill:#fff;}.cls-4{fill:#ffa680;}</style></defs><g id="Layer_2" data-name="Layer 2"><g id="Layer_1-2" data-name="Layer 1"><circle class="cls-1" cx="106.09" cy="106.09" r="104.42"/><path class="cls-2" d="M106.09,212.18A106.09,106.09,0,1,1,212.18,106.09,106.21,106.21,0,0,1,106.09,212.18Zm0-208.84A102.75,102.75,0,1,0,208.84,106.09,102.87,102.87,0,0,0,106.09,3.34Z"/><path class="cls-3" d="M43.47,83.39s23.2,17.93,19,25.59-14.92,16.53-3.9,19.82,113.4,25,113.4,25c13.39-14.31,19.12-29,10.3-44.23l-8.55-4.21s-7.07-26.8-19.44-18.57S80.09,63.28,74.54,70.23c0,0-14.61-3.3-17.79-4.89s-12.22-8-17.53,2.12S43.47,83.39,43.47,83.39Z"/><path class="cls-1" d="M173.24,157.78l-2-.42c-4.19-.89-102.66-21.8-113.69-25.1-3.75-1.13-6.1-3-7-5.71-1.57-4.63,1.88-9.38,5.21-14a52.4,52.4,0,0,0,3.56-5.31c1.22-2.24-6.5-12.05-17.92-20.91C37.1,83.62,30.66,76,36,65.78c1.94-3.68,4.56-6,7.79-7,5.44-1.64,10.72,1.26,13.56,2.82l1,.52C60.12,63,68,65,73.79,66.36c5-2.33,15.28,1,34.73,7.69,15.36,5.27,38.56,13.25,43.79,9.77a11,11,0,0,1,10.4-1.48c8.06,3.06,12.62,15.79,14.07,20.52l8.1,4,.55,1c8.87,15.38,5.34,31.25-10.8,48.51ZM57.39,124.24s.36.54,2.24,1.11c9.9,3,96.69,21.46,111.1,24.53,12.38-13.83,15.24-25.83,9-37.54l-9-4.43-.42-1.59c-1.29-4.87-5.46-15.47-10.12-17.24-.81-.3-2-.5-3.84.74-7.63,5.08-24.8-.25-50.13-8.95-10.82-3.72-25.54-8.78-29.13-8l-1.11,1.39-2.2-.5c-2.51-.57-15.2-3.48-18.61-5.19-.35-.17-.76-.39-1.22-.65-2-1.12-5.47-3-8-2.24-1.31.39-2.48,1.56-3.48,3.47-3.5,6.65,1.85,10.49,2.95,11.19l.31.21c7.7,5.95,25.08,20.81,20,30.17a56.54,56.54,0,0,1-4,6.1c-1.47,2-4.53,6.24-4.22,7.43Z"/><path class="cls-4" d="M54,120.6s-10,13.2-19.51,0-2.65-40.82,3.19-44.54S54.35,80,54.35,80,76.64,105.66,54,120.6Z"/><path class="cls-1" d="M43.75,130.07h-.12c-4.53,0-8.6-2.52-12.11-7.36-7.38-10.21-5.47-25.48-4.31-31.57,1.34-7,4.27-15.44,8.48-18.12,7.66-4.87,19.41,3,20.73,4l.37.25.29.34c.51.59,12.43,14.54,10.44,28.94-.93,6.74-4.66,12.37-11.1,16.76C55,125,50.21,130.07,43.75,130.07Zm-2.2-51.44a3.68,3.68,0,0,0-2,.47c-1.08.69-3.73,5.32-5.28,13.39-2,10.77-.91,20.49,3.08,26,2.08,2.88,4.2,4.35,6.31,4.38h.07c3.21,0,6.38-3.2,7.33-4.45l.37-.48.52-.35c5-3.28,7.73-7.21,8.41-12,1.4-10.1-6.84-20.9-8.48-22.92C49,80.71,44.53,78.63,41.55,78.63Z"/><ellipse class="cls-3" cx="43.87" cy="98.26" rx="3.05" ry="5.84"/></g></g></svg>
