<svg xmlns="http://www.w3.org/2000/svg" viewBox="0 0 197.57 197.57"><defs><style>.cls-1{fill:#f7e7eb;}.cls-2{fill:#e8bdbb;}.cls-3{fill:#4b2625;}.cls-4{fill:#311d1d;}.cls-5{fill:#764c4c;}</style></defs><g id="Layer_2" data-name="Layer 2"><g id="Layer_1-2" data-name="Layer 1"><circle class="cls-1" cx="98.78" cy="98.78" r="98.78"/><path class="cls-2" d="M127.38,89s-27.41,23-31,24.73c0,0-3.37,3.51,1.59,2.35,0,0-5.34,8.11-.52,6.84s5.23-4,5.23-4-3.38,12.32.22,9.55,5.44-9.27,5.44-9.27,2.34,7.24,4.19,5.72,3.4-8.24,4.63-9.55,5.78-4.71,9.9-5.37,15.27-3.4,16.13-5.68"/><path class="cls-1" d="M102,129.32a.94.94,0,0,1-.54-.17c-1.18-.79-.51-4.88.16-7.83a9.56,9.56,0,0,1-4.07,2c-1.1.28-1.87.15-2.27-.42-1-1.31.79-4.57,1.79-6.23-1.16.16-1.83,0-2.12-.52-.52-.92.72-2.32,1.11-2.73l.13-.09c3.51-1.71,30.65-24.45,30.92-24.68l.55.66c-1.11.94-27.15,22.76-31,24.76-.59.64-1.05,1.44-.93,1.65,0,0,.23.37,2.16-.08l1.05-.24-.59.9c-1.34,2-3,5.26-2.34,6.1.23.32.94.19,1.35.08,3.65-1,4.61-2.73,4.84-3.4,0-.1.06-.2.08-.29l.84.17a1.34,1.34,0,0,1-.09.34c-1.09,4.08-1.77,8.63-1.06,9.11.08.05.32,0,.69-.3,3.44-2.65,5.26-9,5.28-9l.39-1.36.44,1.34c.65,2,2.07,5.3,3.13,5.61a.38.38,0,0,0,.38-.09c1-.79,1.89-3.29,2.72-5.49a15.12,15.12,0,0,1,1.87-4c1.1-1.17,5.74-4.8,10.15-5.51,5-.81,15.09-3.54,15.78-5.4l.81.3c-1,2.67-13.12,5.41-16.46,6-4,.64-8.45,4-9.65,5.25a16,16,0,0,0-1.7,3.73c-.9,2.42-1.84,4.92-3,5.85a1.23,1.23,0,0,1-1.17.25c-1.36-.4-2.62-3.22-3.28-5-.72,2.06-2.45,6.16-5.19,8.27A2,2,0,0,1,102,129.32Z"/><path class="cls-2" d="M135.41,31.94s-17.79-.47-23.15,12.37S109.62,65,107.13,68.08,95.21,77.69,96.78,82.44s4.39,15.72,8.26,15.77,10.06-2.15,10.64,2.34,4.92,7.24,7.11,6.68,21.47-3.41,21.47-3.41-18.62,2.21-25,10.16-16.12,31.51-14.68,38c0,0-14.26-16.81-7.39-34.25s10.12-25.29-1.13-14S81,144.86,85,155.06s16.7,25.89,27.21,27.63,37.47,6.53,52-17.55,28.24-80.47,21.87-93S170.86,25.43,145.26,30.7C138.43,32.33,135.41,31.94,135.41,31.94Z"/><path class="cls-1" d="M127.72,184.67a90.71,90.71,0,0,1-15.23-1.49l-.34-.06c-10.81-1.8-23.53-17.73-27.54-27.91-4.1-10.4-.06-40.46,11.15-51.72,5.11-5.14,6.74-5.81,7.59-5.25,1.54,1-.4,6.1-5.31,18.56l-.44,1.13C91.92,132.34,101,146.5,104,150.58c0-8.15,8.76-29.19,14.92-36.87,2.87-3.57,8.07-6,13-7.59-4.24.66-8.14,1.29-9,1.52a5.1,5.1,0,0,1-3.89-1,8.78,8.78,0,0,1-3.76-6c-.35-2.75-3-2.66-7-2.21a26,26,0,0,1-3.26.24c-3.66,0-6.25-8.37-8-13.87-.25-.82-.49-1.56-.7-2.2-1.24-3.75,3.75-8.37,7.38-11.73a34.9,34.9,0,0,0,3-3c.94-1.18,1.08-3.24,1.26-6.09a49.94,49.94,0,0,1,3.81-17.59c2.24-5.37,7-9.26,13.85-11.24a34.76,34.76,0,0,1,9.7-1.39h0s3.06.36,9.7-1.23c21.7-4.46,31.43,18.65,37.87,34,1.28,3,2.38,5.66,3.43,7.73,6.34,12.45-6.75,68.32-21.88,93.4C155,181.24,139.86,184.67,127.72,184.67Zm-25-85.74c-.43,0-1.84.61-6.37,5.17-11,11.06-15,40.59-11,50.8,2,5.19,6.29,11.64,11.09,16.85,5.53,6,11.14,9.75,15.79,10.52l.34.06c11.07,1.84,37,6.16,51.21-17.41,14.68-24.34,28-80.58,21.86-92.57-1.07-2.09-2.18-4.73-3.46-7.78-6.33-15-15.89-37.77-36.89-33.45-6.57,1.57-9.65,1.28-10,1.25-.66,0-17.61-.13-22.72,12.11a49.25,49.25,0,0,0-3.74,17.31c-.2,3-.34,5.17-1.45,6.56a32.62,32.62,0,0,1-3.13,3.12c-3.47,3.21-8.22,7.6-7.15,10.83.21.64.44,1.39.7,2.21,1.54,4.95,4.11,13.23,7.16,13.27a28.67,28.67,0,0,0,3.14-.23c3.48-.4,7.42-.85,7.92,2.94a7.87,7.87,0,0,0,3.38,5.4,4.39,4.39,0,0,0,3.2.92c1.74-.45,13.82-2.27,19.09-3,1.38-.24,2.27-.35,2.43-.36l.11.85-1.88.28c-4.86.8-17.83,3.47-22.84,9.72-6.35,7.91-16,31.38-14.6,37.68l.37,1.69-1.12-1.32c-.14-.17-14.34-17.21-7.46-34.68l.45-1.14c3.42-8.67,6.65-16.86,5.64-17.52A.24.24,0,0,0,102.74,98.93Z"/><path class="cls-2" d="M151,97.76s-33.53,12.47-37.51,12.9c0,0-4.36,2.18.7,2.75,0,0-7.74,5.84-2.77,6.27s6.26-2,6.26-2-7.31,10.47-3,9.07,8.23-6.91,8.23-6.91-.22,7.6,2,6.79,6-6.62,7.57-7.44,7-2.5,11.13-1.74,15.52,1.92,17.09.06"/><path class="cls-1" d="M114,127.29a1,1,0,0,1-.89-.4c-.85-1.15,1.16-4.77,2.78-7.33a9.57,9.57,0,0,1-4.52.55c-1.14-.1-1.81-.49-2-1.16-.45-1.55,2.28-4,3.77-5.27-1.13-.24-1.72-.63-1.82-1.2-.18-1,1.46-2,2-2.2l.14,0c3.89-.43,37.08-12.75,37.41-12.88l.3.81c-1.36.5-33.21,12.33-37.53,12.91-.78.4-1.48,1-1.44,1.25,0,0,.1.43,2.06.65l1.07.12-.86.65c-1.93,1.46-4.53,4-4.25,5,.11.38.83.49,1.25.53,3.77.32,5.26-1,5.7-1.58l.18-.26.73.45a1.82,1.82,0,0,1-.2.29c-2.39,3.48-4.56,7.54-4.05,8.23.05.07.31.08.75-.06,4.13-1.34,8-6.69,8-6.74l.82-1.16,0,1.42c-.06,2.1.18,5.69,1.07,6.33a.38.38,0,0,0,.39,0c1.16-.42,2.88-2.46,4.4-4.26a15.56,15.56,0,0,1,3.11-3.16c1.43-.73,7-2.59,11.41-1.78,5,.92,15.41,1.72,16.68.2l.66.55c-1.84,2.19-14.17.71-17.5.09-4-.73-9.29.9-10.86,1.71a16.2,16.2,0,0,0-2.84,3c-1.67,2-3.39,4-4.77,4.51a1.25,1.25,0,0,1-1.19-.15c-1.15-.84-1.39-3.92-1.43-5.78-1.37,1.69-4.37,5-7.66,6A2.64,2.64,0,0,1,114,127.29Z"/><path class="cls-3" d="M24.73,66.52a.47.47,0,0,1-.31-.2c-1-1-2.31-3.21.93-4.92a1.34,1.34,0,0,1,.46-.12q4.39.9,8.75,2a186,186,0,0,1,24,7.36,63.7,63.7,0,0,1,11.53,5.77A22.13,22.13,0,0,1,75.33,81a11,11,0,0,1,1.88,3.62,9.16,9.16,0,0,1,.33,2.22l0,1.49a44.51,44.51,0,0,0,1.64,11.52,22.62,22.62,0,0,0,5.45,9.54,48.27,48.27,0,0,0,9.36,7l2.54,1.6c.75.47,1.49,1,2.24,1.45,0,0,1.68,1.25,3.81,3.17a41.35,41.35,0,0,1,6.27,7,18.92,18.92,0,0,1,2.51,4.39c.33.89.24,1.24-.12,1.19-.74-.1-2.5-1.81-4.7-3.72.17.26-2.35-2.14-5.23-4.17-1.44-1-2.94-2-4.1-2.68s-2-1.14-2-1.14c-.69-.47-1.42-.91-2.12-1.37l-3.21-2a44.4,44.4,0,0,1-10.06-8,27.74,27.74,0,0,1-3.78-5.57,34.22,34.22,0,0,1-2.33-6.2,54.74,54.74,0,0,1-1.57-12.68l0-.77c0-.13,0-.26,0-.4a3.24,3.24,0,0,0-.25-.83,6.41,6.41,0,0,0-1.18-1.81,19.63,19.63,0,0,0-4.1-3.35,61.94,61.94,0,0,0-10.44-5.08,182.44,182.44,0,0,0-22.89-7C30.45,67.76,27.59,67.11,24.73,66.52Z"/><path class="cls-2" d="M104.9,161.94S92.47,147.47,91.15,146.4a12.76,12.76,0,0,0-2.51-1.58s-5,4-7.62,2.38-3.22-5-2.12-5.9-4.47-1.48-2.08-6.54-.45-5.15,1.53-4.72-4.81-4.15,2.52-5.68c0,0,1.83-6.08,4.12-6.5s4.58,1.64,4.58,1.64,1.44-1.89,3.29-.85.92,13.16,9.87,19.11,13.45,4.32,15.1,5.71,7.69,4,5.8,9.16"/><path class="cls-1" d="M104.58,162.22c-4.29-5-12.68-14.66-13.7-15.48a12.33,12.33,0,0,0-2.19-1.41c-1,.77-5.32,3.8-7.89,2.24A6,6,0,0,1,78,143.1a2.53,2.53,0,0,1,.61-2.07l-.49-.37c-1.19-.84-3.38-2.4-1.64-6.09,1.36-2.89.94-4,.81-4.37a.55.55,0,0,1,0-.6c.2-.22.44-.16.72-.09h0l0-.06c-.53-.79-1.4-2.11-.88-3.37.4-1,1.52-1.66,3.42-2.1.41-1.27,2.1-6.14,4.39-6.55a6.37,6.37,0,0,1,4.6,1.46,2.9,2.9,0,0,1,3.55-.62c.75.42,1,1.78,1.52,4,.9,4.15,2.39,11.11,8.38,15.09a27.32,27.32,0,0,0,12.27,4.87,5.86,5.86,0,0,1,2.87.88c.27.23.7.51,1.19.84,2.39,1.58,6.4,4.23,4.73,8.79l-.81-.3c1.44-3.92-2.07-6.24-4.4-7.78a13.68,13.68,0,0,1-1.27-.9,5.33,5.33,0,0,0-2.43-.68c-2.46-.37-6.57-1-12.63-5-6.27-4.18-7.82-11.35-8.74-15.63-.35-1.66-.69-3.23-1.1-3.46a2.18,2.18,0,0,0-2.74.73l-.28.37-.35-.31s-2.16-1.89-4.21-1.53c-1.48.26-3.11,3.94-3.79,6.19l-.07.25-.25,0c-1.71.36-2.76.92-3.06,1.64s.35,1.88.8,2.57.61.91.37,1.27-.65.23-.81.2l-.06,0c.14.77.12,2.13-1,4.5-1.43,3,.19,4.18,1.36,5,.53.37.9.64.92,1.06a.73.73,0,0,1-.3.61,1.7,1.7,0,0,0-.37,1.41,5,5,0,0,0,2.44,3.79c2,1.19,5.81-1.29,7.12-2.34l.2-.16.24.1a12.68,12.68,0,0,1,2.61,1.64c1.34,1.07,13.3,15,13.81,15.59Z"/><circle class="cls-4" cx="135.66" cy="69.18" r="5.32"/><circle class="cls-5" cx="135.66" cy="69.18" r="2.98"/></g></g></svg>
