<svg xmlns="http://www.w3.org/2000/svg" viewBox="0 0 210.18 210.18"><defs><style>.cls-1{fill:#e4ecf3;}.cls-2{fill:#bbd0e2;}.cls-3{fill:#fff;}.cls-4{fill:#b7cce0;}</style></defs><g id="Layer_2" data-name="Layer 2"><g id="Layer_1-2" data-name="Layer 1"><circle class="cls-1" cx="105.09" cy="105.09" r="103.44"/><path class="cls-2" d="M105.09,210.18A105.09,105.09,0,1,1,210.18,105.09,105.2,105.2,0,0,1,105.09,210.18Zm0-206.87A101.78,101.78,0,1,0,206.87,105.09,101.9,101.9,0,0,0,105.09,3.31Z"/><path class="cls-3" d="M43.06,82.61S66,100.36,61.91,108,47.13,124.32,58,127.59s112.34,24.79,112.34,24.79c13.26-14.18,18.93-28.69,10.21-43.82l-8.47-4.16s-7-26.55-19.26-18.4-73.52-23.31-79-16.43c0,0-14.46-3.27-17.62-4.85s-12.1-7.89-17.36,2.11S43.06,82.61,43.06,82.61Z"/><path class="cls-1" d="M171.61,156.3l-2-.42C165.49,155,67.94,134.28,57,131c-3.71-1.11-6.05-3-6.94-5.65-1.55-4.59,1.86-9.3,5.17-13.85a54.18,54.18,0,0,0,3.52-5.26C60,104,52.34,94.32,41,85.54c-4.27-2.71-10.65-10.27-5.33-20.38,1.92-3.65,4.52-6,7.72-6.95C48.8,56.59,54,59.46,56.84,61c.37.2.69.38,1,.52,1.75.87,9.51,2.86,15.28,4.21,5-2.31,15.14,1,34.41,7.61,15.21,5.23,38.2,13.13,43.38,9.68a10.91,10.91,0,0,1,10.29-1.47c8,3,12.51,15.64,13.94,20.33l8,4,.54.94c8.79,15.23,5.29,30.95-10.69,48ZM56.85,123.07s.36.54,2.22,1.09c9.81,2.94,95.77,21.27,110.05,24.3,12.26-13.69,15.09-25.58,8.89-37.18l-8.93-4.39-.42-1.58c-1.27-4.81-5.41-15.32-10-17.07-.81-.3-2-.49-3.8.74-7.56,5-24.57-.25-49.66-8.87-10.72-3.69-25.3-8.7-28.85-7.94l-1.1,1.38-2.18-.5C70.56,72.49,58,69.6,54.61,67.92c-.34-.17-.75-.4-1.21-.65-2-1.11-5.42-3-7.93-2.22-1.3.39-2.46,1.55-3.45,3.44C38.55,75.08,43.85,78.88,45,79.57l.3.21c7.63,5.9,24.84,20.62,19.79,29.88a58.08,58.08,0,0,1-4,6c-1.46,2-4.49,6.18-4.18,7.36Z"/><path class="cls-4" d="M53.44,119.46s-9.85,13.08-19.32,0S31.49,79,37.28,75.35s16.56,3.84,16.56,3.84S75.92,104.66,53.44,119.46Z"/><path class="cls-1" d="M43.34,128.84h-.12c-4.49,0-8.52-2.49-12-7.29C23.91,111.44,25.8,96.31,27,90.28c1.33-6.93,4.23-15.29,8.41-18,7.58-4.82,19.22,3,20.53,3.93l.36.26.29.33c.5.58,12.32,14.4,10.35,28.67-.93,6.67-4.63,12.25-11,16.6C54.45,123.85,49.73,128.84,43.34,128.84ZM41.16,77.89a3.64,3.64,0,0,0-2,.47C38.13,79,35.5,83.63,34,91.62c-2,10.67-.9,20.29,3,25.74,2.07,2.85,4.17,4.31,6.26,4.34h.07c3.18,0,6.31-3.17,7.26-4.4l.36-.48.52-.35c4.94-3.25,7.66-7.14,8.33-11.91,1.39-10-6.78-20.69-8.4-22.7C48.54,80,44.11,77.89,41.16,77.89Z"/><ellipse class="cls-3" cx="43.46" cy="97.33" rx="3.02" ry="5.79"/></g></g></svg>
