<svg xmlns="http://www.w3.org/2000/svg" xmlns:xlink="http://www.w3.org/1999/xlink" viewBox="0 0 223.12 212.4"><defs><style>.cls-1{fill:none;}.cls-2{clip-path:url(#clip-path);}.cls-3{fill:#f7e7eb;}.cls-4{fill:#bb839e;}.cls-5{fill:#d7a4bb;}.cls-6{fill:#f3c6d7;}</style><clipPath id="clip-path"><circle class="cls-1" cx="95.61" cy="95.61" r="95.61"/></clipPath></defs><g id="Layer_2" data-name="Layer 2"><g id="Layer_1-2" data-name="Layer 1"><g class="cls-2"><circle class="cls-3" cx="95.61" cy="95.61" r="95.61"/><path class="cls-4" d="M49.35,58.39C16.9,72.11,34.26,119.46,64.51,100.31,80.46,86.54,75.64,54.43,49.35,58.39Z"/><path class="cls-5" d="M49.71,60.82c-29,12.28-12.16,56.57,13.56,37.5C78.4,87.08,73.22,57.29,49.71,60.82Z"/><path class="cls-6" d="M50.07,63.26C24.49,74.08,38.18,111.42,62,96.32,74.61,85.46,70.8,60.14,50.07,63.26Z"/><path class="cls-4" d="M104.22,51.36c-29.1,11.62-7.13,55.57,19.19,41.5C139.54,77.38,129.59,46.26,104.22,51.36Z"/><path class="cls-5" d="M105.06,54.14c-25.39,10.15-4.33,51.52,16.75,36.22C137.6,78.9,127.2,49.69,105.06,54.14Z"/><path class="cls-6" d="M105.91,56.92c-21.7,8.67-5.33,41.42,14.3,30.94C132.23,76.32,124.81,53.12,105.91,56.92Z"/><path class="cls-4" d="M158.66,31.61C141.3,40,146.89,62.11,158,72.23,183.48,92.15,192.27,22.35,158.66,31.61Z"/><path class="cls-5" d="M159.24,33.93c-15.5,7.5-10.84,27.62-.58,36.27C180.73,88.83,189.26,25.66,159.24,33.93Z"/><path class="cls-6" d="M159.82,36.24c-13.64,6.61-9.25,24-.51,31.94C179.34,83.84,186.25,29,159.82,36.24Z"/><path class="cls-4" d="M133.64,96.14c-8.28,13.66-13.93,41.27,10.46,38.63,9.43,0,19.77-.49,23.58-10.86C173.91,102.61,157.81,83.35,133.64,96.14Z"/><path class="cls-5" d="M135.28,98.15c-7.32,12.08-12.41,35.34,9.25,34.16,8.32-.46,17.79-.33,20.85-9.61C171.52,104.06,156.65,86.84,135.28,98.15Z"/><path class="cls-6" d="M136.92,100.16c-6.36,10.5-10.7,31.7,8,29.68,7.24,0,15.18-.38,18.11-8.35C167.86,105.13,155.49,90.33,136.92,100.16Z"/><path class="cls-4" d="M109.93,137c-21.38,26,34.49,38.18,36.89,14.28C149.88,140,118.4,127.21,109.93,137Z"/><path class="cls-5" d="M111.76,138.31c-19,23.08,28.83,33.61,32.7,12.66C146.34,140.82,119.26,129.65,111.76,138.31Z"/><path class="cls-6" d="M113.58,139.65c-16.54,20.13,26.68,29.53,28.53,11C144.48,142,120.13,132.1,113.58,139.65Z"/><path class="cls-4" d="M14,23.74C-7.42,49.77,48.45,61.93,50.85,38,53.91,26.79,22.43,14,14,23.74Z"/><path class="cls-5" d="M15.79,25.08c-19,23.08,28.83,33.61,32.7,12.67C50.37,27.6,23.29,16.43,15.79,25.08Z"/><path class="cls-6" d="M17.61,26.42C1.07,46.55,44.29,56,46.14,37.47,48.51,28.78,24.16,18.87,17.61,26.42Z"/><path class="cls-4" d="M69.1,110.63c-4.27-.41-5.38,4.48-7.68,7.17-17.11,9.69-7.29,30,6.92,37.4C109.14,172.84,111.22,97.64,69.1,110.63Z"/><path class="cls-5" d="M69.9,113.22c-3.79-.36-4.39,4.37-6.82,6.37-13.44,11.08-6.69,27,6.14,33.15C104.78,169.72,107.23,101.71,69.9,113.22Z"/><path class="cls-6" d="M70.69,115.82c-3.3-.32-4.16,3.47-5.94,5.55-13.23,7.48-5.63,23.15,5.35,28.91C101.64,163.91,103.24,105.78,70.69,115.82Z"/><path class="cls-4" d="M24.14,109.16c-28.77,7.49-24.35,65.73,10.21,46.07C48,145,41.45,113.11,24.14,109.16Z"/><path class="cls-5" d="M24.06,111.85C-1.62,118.54,3.51,172.46,33.18,153,45.88,144.64,39.51,115.37,24.06,111.85Z"/><path class="cls-6" d="M24,114.54c-22.59,5.88-19.12,51.62,8,36.18C42.69,142.68,37.58,117.64,24,114.54Z"/><path class="cls-4" d="M63.4,26.34c-1,27,37.94,37,45.19,8.67C115.79.29,73.14-5.48,63.4,26.34Z"/><path class="cls-5" d="M66.51,26.66c-.84,23.32,33.37,32.18,39.08,7.5C112.5,4.28,74.93-.86,66.51,26.66Z"/><path class="cls-6" d="M69.61,27c-.7,19.68,27.69,27,33,6.33C107.84,8,76.72,3.76,69.61,27Z"/><path class="cls-4" d="M177.12,104.3c-1,27,37.93,37.05,45.19,8.67C229.51,78.25,186.86,72.48,177.12,104.3Z"/><path class="cls-5" d="M180.22,104.62c-.83,23.33,33.38,32.18,39.09,7.5C226.22,82.25,188.65,77.1,180.22,104.62Z"/><path class="cls-6" d="M183.33,105c-.7,19.67,27.69,27,33,6.32C221.56,85.94,190.44,81.73,183.33,105Z"/><path class="cls-4" d="M71.44,186.72c-1,27,37.94,37.05,45.19,8.67C123.83,160.68,81.18,154.9,71.44,186.72Z"/><path class="cls-5" d="M74.55,187.05c-.84,23.32,33.37,32.17,39.08,7.49C120.55,164.67,83,159.53,74.55,187.05Z"/><path class="cls-6" d="M77.65,187.37c-.7,19.68,27.69,27,33,6.32C115.89,168.36,84.77,164.15,77.65,187.37Z"/></g></g></g></svg>
