<svg xmlns="http://www.w3.org/2000/svg" xmlns:xlink="http://www.w3.org/1999/xlink" viewBox="0 0 223.19 212.4"><defs><style>.cls-1{fill:none;}.cls-2{clip-path:url(#clip-path);}.cls-3{fill:#ecf2f7;}.cls-4{fill:#8eb0ce;}.cls-5{fill:#8fb1ce;}.cls-6{fill:#90b1cf;}.cls-7{fill:#91b2cf;}.cls-8{fill:#92b3d0;}.cls-9{fill:#93b3d0;}.cls-10{fill:#94b4d1;}.cls-11{fill:#95b5d1;}.cls-12{fill:#96b6d1;}.cls-13{fill:#97b6d2;}.cls-14{fill:#98b7d2;}.cls-15{fill:#99b8d3;}.cls-16{fill:#9ab8d3;}.cls-17{fill:#9bb9d4;}.cls-18{fill:#9cbad4;}.cls-19{fill:#9dbad4;}.cls-20{fill:#9ebbd5;}.cls-21{fill:#9fbcd5;}.cls-22{fill:#a0bcd6;}.cls-23{fill:#a1bdd6;}.cls-24{fill:#a2bed7;}.cls-25{fill:#a3bfd7;}.cls-26{fill:#a4bfd7;}.cls-27{fill:#a5c0d8;}.cls-28{fill:#a6c1d8;}.cls-29{fill:#a7c1d9;}.cls-30{fill:#a8c2d9;}.cls-31{fill:#a9c3da;}.cls-32{fill:#aac3da;}.cls-33{fill:#abc4da;}.cls-34{fill:#acc5db;}.cls-35{fill:#adc5db;}.cls-36{fill:#aec6dc;}.cls-37{fill:#afc7dc;}.cls-38{fill:#b0c8dd;}.cls-39{fill:#b1c9dd;}.cls-40{fill:#b2cade;}.cls-41{fill:#b3cade;}.cls-42{fill:#b4cbdf;}.cls-43{fill:#b5ccdf;}.cls-44{fill:#b6ccdf;}.cls-45{fill:#b7cde0;}.cls-46{fill:#b8cee0;}.cls-47{fill:#b9cee1;}.cls-48{fill:#bacfe1;}.cls-49{fill:#bbd0e2;}.cls-50{fill:#bcd0e2;}.cls-51{fill:#bdd1e2;}.cls-52{fill:#bed2e3;}.cls-53{fill:#bfd3e3;}.cls-54{fill:#c0d3e4;}.cls-55{fill:#c1d4e4;}.cls-56{fill:#c2d5e5;}.cls-57{fill:#c3d5e5;}.cls-58{fill:#c4d6e5;}.cls-59{fill:#c5d7e6;}.cls-60{fill:#c6d7e6;}.cls-61{fill:#c7d8e7;}.cls-62{fill:#c8d9e7;}.cls-63{fill:#c9d9e8;}.cls-64{fill:#cadae8;}.cls-65{fill:#cbdbe8;}.cls-66{fill:#ccdce9;}.cls-67{fill:#cddce9;}.cls-68{fill:#ceddea;}.cls-69{fill:#cfdeea;}.cls-70{fill:#d0deeb;}.cls-71{fill:#d1dfeb;}</style><clipPath id="clip-path"><circle class="cls-1" cx="95.61" cy="95.61" r="95.61"/></clipPath></defs><g id="Layer_2" data-name="Layer 2"><g id="Layer_1-2" data-name="Layer 1"><g class="cls-2"><circle class="cls-3" cx="95.61" cy="95.61" r="95.61"/><path class="cls-4" d="M49.35,58.39C16.9,72.11,34.26,119.46,64.51,100.31,80.46,86.54,75.64,54.43,49.35,58.39Z"/><path class="cls-5" d="M49.36,58.46C17,72.14,35.81,121.52,64.47,100.25,81.34,87.73,75.57,54.52,49.36,58.46Z"/><path class="cls-6" d="M49.37,58.53c-32.25,13.64-13.51,62.86,15.06,41.66C81.26,87.71,75.5,54.6,49.37,58.53Z"/><path class="cls-7" d="M49.38,58.6c-32.15,13.6-13.47,62.67,15,41.54C81.17,87.69,75.43,54.68,49.38,58.6Z"/><path class="cls-8" d="M49.39,58.67c-32,13.56-13.42,62.47,15,41.41C81.08,87.67,75.35,54.77,49.39,58.67Z"/><path class="cls-9" d="M49.4,58.75C17.45,72.25,36,121,64.32,100,81,87.65,75.28,54.85,49.4,58.75Z"/><path class="cls-10" d="M49.41,58.82C17.57,72.28,36.07,120.89,64.29,100,80.9,87.64,75.21,54.94,49.41,58.82Z"/><path class="cls-11" d="M49.42,58.89c-31.74,13.42-13.29,61.88,14.83,41C80.81,87.62,75.14,55,49.42,58.89Z"/><path class="cls-12" d="M49.43,59C17.79,72.34,36.18,120.64,64.21,99.84,80.72,87.6,75.07,55.1,49.43,59Z"/><path class="cls-13" d="M49.45,59C17.9,72.37,36.23,120.52,64.18,99.78,80.63,87.58,75,55.19,49.45,59Z"/><path class="cls-14" d="M49.46,59.1C18,72.4,36.28,120.39,64.14,99.72,80.54,87.56,74.93,55.27,49.46,59.1Z"/><path class="cls-15" d="M49.47,59.18C18.12,72.43,36.34,120.27,64.1,99.67,80.45,87.54,74.86,55.36,49.47,59.18Z"/><path class="cls-16" d="M49.48,59.25C18.24,72.46,36.39,120.14,64.07,99.61,80.36,87.52,74.79,55.44,49.48,59.25Z"/><path class="cls-17" d="M49.49,59.32C18.35,72.49,36.44,120,64,99.55,80.28,87.5,74.71,55.52,49.49,59.32Z"/><path class="cls-18" d="M49.5,59.39c-31,13.13-13,60.5,14.49,40.1C80.19,87.48,74.64,55.61,49.5,59.39Z"/><path class="cls-19" d="M49.51,59.46c-30.94,13.08-13,60.31,14.45,40C80.1,87.46,74.57,55.69,49.51,59.46Z"/><path class="cls-20" d="M49.52,59.53c-30.84,13-12.92,60.11,14.4,39.84C80,87.44,74.5,55.78,49.52,59.53Z"/><path class="cls-21" d="M49.53,59.61c-30.74,13-12.88,59.91,14.36,39.7C79.92,87.42,74.43,55.86,49.53,59.61Z"/><path class="cls-22" d="M49.54,59.68C18.9,72.63,36.71,119.39,63.85,99.25,79.83,87.4,74.36,55.94,49.54,59.68Z"/><path class="cls-23" d="M49.55,59.75C19,72.66,36.76,119.27,63.81,99.2,79.74,87.38,74.29,56,49.55,59.75Z"/><path class="cls-24" d="M49.56,59.82C19.13,72.69,36.81,119.14,63.78,99.14,79.65,87.36,74.22,56.11,49.56,59.82Z"/><path class="cls-25" d="M49.57,59.89C19.24,72.72,36.87,119,63.74,99.08,79.56,87.34,74.15,56.2,49.57,59.89Z"/><path class="cls-26" d="M49.58,60C19.35,72.75,36.92,118.89,63.7,99,79.47,87.32,74.07,56.28,49.58,60Z"/><path class="cls-27" d="M49.59,60C19.46,72.78,37,118.77,63.67,99,79.38,87.3,74,56.36,49.59,60Z"/><path class="cls-28" d="M49.61,60.11c-30,12.7-12.58,58.53,14,38.79C79.29,87.28,73.93,56.45,49.61,60.11Z"/><path class="cls-29" d="M49.62,60.18c-29.93,12.65-12.54,58.33,14,38.66C79.21,87.26,73.86,56.53,49.62,60.18Z"/><path class="cls-30" d="M49.63,60.25C19.8,72.86,37.13,118.39,63.56,98.78,79.12,87.24,73.79,56.62,49.63,60.25Z"/><path class="cls-31" d="M49.64,60.32C19.91,72.89,37.18,118.26,63.52,98.73,79,87.22,73.72,56.7,49.64,60.32Z"/><path class="cls-32" d="M49.65,60.39C20,72.92,37.24,118.14,63.48,98.67,78.94,87.2,73.65,56.78,49.65,60.39Z"/><path class="cls-33" d="M49.66,60.47C20.13,73,37.29,118,63.45,98.61,78.85,87.18,73.58,56.87,49.66,60.47Z"/><path class="cls-34" d="M49.67,60.54C20.24,73,37.34,117.89,63.41,98.55,78.76,87.16,73.51,57,49.67,60.54Z"/><path class="cls-35" d="M49.68,60.61C20.36,73,37.4,117.76,63.38,98.49,78.67,87.14,73.43,57,49.68,60.61Z"/><path class="cls-36" d="M49.69,60.68C20.47,73,37.45,117.64,63.34,98.43,78.58,87.12,73.36,57.12,49.69,60.68Z"/><path class="cls-37" d="M49.7,60.75C20.58,73.07,37.5,117.51,63.3,98.37,78.49,87.1,73.29,57.2,49.7,60.75Z"/><path class="cls-37" d="M49.71,60.82c-29,12.28-12.16,56.57,13.56,37.5C78.4,87.08,73.22,57.29,49.71,60.82Z"/><path class="cls-38" d="M49.72,60.9C20.8,73.12,37.61,117.26,63.23,98.26,78.31,87.06,73.15,57.37,49.72,60.9Z"/><path class="cls-39" d="M49.73,61C20.91,73.15,37.66,117.14,63.19,98.2,78.23,87.05,73.08,57.46,49.73,61Z"/><path class="cls-40" d="M49.74,61c-28.71,12.14-12,56,13.42,37.1C78.14,87,73,57.54,49.74,61Z"/><path class="cls-41" d="M49.75,61.11c-28.61,12.1-12,55.78,13.37,37C78.05,87,72.94,57.62,49.75,61.11Z"/><path class="cls-42" d="M49.77,61.18C21.25,73.24,37.82,116.76,63.08,98,78,87,72.87,57.71,49.77,61.18Z"/><path class="cls-43" d="M49.78,61.25C21.36,73.27,37.87,116.64,63.05,98,77.87,87,72.79,57.79,49.78,61.25Z"/><path class="cls-44" d="M49.79,61.33C21.47,73.3,37.93,116.51,63,97.9,77.78,87,72.72,57.88,49.79,61.33Z"/><path class="cls-45" d="M49.8,61.4C21.58,73.33,38,116.39,63,97.85,77.69,86.93,72.65,58,49.8,61.4Z"/><path class="cls-46" d="M49.81,61.47C21.69,73.36,38,116.26,62.94,97.79,77.6,86.91,72.58,58,49.81,61.47Z"/><path class="cls-47" d="M49.82,61.54c-28,11.85-11.74,54.6,13.08,36.19C77.51,86.89,72.51,58.13,49.82,61.54Z"/><path class="cls-48" d="M49.83,61.61c-27.91,11.8-11.69,54.4,13,36.06C77.42,86.87,72.44,58.21,49.83,61.61Z"/><path class="cls-49" d="M49.84,61.68C22,73.44,38.19,115.89,62.83,97.61,77.33,86.85,72.37,58.29,49.84,61.68Z"/><path class="cls-50" d="M49.85,61.76c-27.71,11.71-11.61,54,12.94,35.79C77.25,86.83,72.3,58.38,49.85,61.76Z"/><path class="cls-51" d="M49.86,61.83C22.25,73.5,38.3,115.64,62.76,97.49,77.16,86.81,72.23,58.46,49.86,61.83Z"/><path class="cls-52" d="M49.87,61.9C22.36,73.53,38.35,115.51,62.72,97.43,77.07,86.79,72.16,58.55,49.87,61.9Z"/><path class="cls-53" d="M49.88,62c-27.4,11.59-11.48,53.42,12.8,35.41C77,86.77,72.08,58.63,49.88,62Z"/><path class="cls-54" d="M49.89,62c-27.3,11.55-11.43,53.22,12.76,35.28C76.89,86.75,72,58.71,49.89,62Z"/><path class="cls-55" d="M49.9,62.11c-27.2,11.51-11.39,53,12.71,35.15C76.8,86.73,71.94,58.8,49.9,62.11Z"/><path class="cls-56" d="M49.91,62.19C22.81,73.65,38.56,115,62.57,97.2,76.71,86.71,71.87,58.88,49.91,62.19Z"/><path class="cls-57" d="M49.93,62.26c-27,11.42-11.32,52.63,12.61,34.88C76.62,86.69,71.8,59,49.93,62.26Z"/><path class="cls-58" d="M49.94,62.33C23,73.7,38.67,114.76,62.5,97.08,76.53,86.67,71.73,59.05,49.94,62.33Z"/><path class="cls-59" d="M50,62.4C23.15,73.73,38.72,114.64,62.46,97,76.44,86.65,71.66,59.13,50,62.4Z"/><path class="cls-60" d="M50,62.47c-26.7,11.29-11.19,52,12.47,34.49C76.35,86.63,71.59,59.22,50,62.47Z"/><path class="cls-61" d="M50,62.54c-26.6,11.25-11.14,51.85,12.42,34.37C76.27,86.61,71.52,59.3,50,62.54Z"/><path class="cls-62" d="M50,62.62c-26.5,11.2-11.1,51.64,12.37,34.23C76.18,86.59,71.44,59.39,50,62.62Z"/><path class="cls-63" d="M50,62.69c-26.4,11.16-11.06,51.45,12.33,34.1C76.09,86.57,71.37,59.47,50,62.69Z"/><path class="cls-64" d="M50,62.76C23.7,73.88,39,114,62.28,96.73,76,86.55,71.3,59.55,50,62.76Z"/><path class="cls-65" d="M50,62.83C23.82,73.91,39,113.89,62.24,96.67,75.91,86.53,71.23,59.64,50,62.83Z"/><path class="cls-66" d="M50,62.9c-26.09,11-10.93,50.86,12.19,33.71C75.82,86.51,71.16,59.72,50,62.9Z"/><path class="cls-67" d="M50,63C24,74,39.14,113.64,62.17,96.55,75.73,86.49,71.09,59.81,50,63Z"/><path class="cls-68" d="M50,63.05C24.15,74,39.2,113.51,62.14,96.49,75.64,86.47,71,59.89,50,63.05Z"/><path class="cls-69" d="M50.05,63.12C24.26,74,39.25,113.39,62.1,96.44,75.55,86.46,71,60,50.05,63.12Z"/><path class="cls-70" d="M50.06,63.19c-25.69,10.86-10.76,50.07,12,33.19C75.46,86.44,70.88,60.06,50.06,63.19Z"/><path class="cls-71" d="M50.07,63.26C24.49,74.08,38.18,111.42,62,96.32,74.61,85.46,70.8,60.14,50.07,63.26Z"/><path class="cls-4" d="M104.22,51.36c-29.1,11.62-7.13,55.57,19.19,41.5C139.54,77.38,129.59,46.26,104.22,51.36Z"/><path class="cls-5" d="M104.25,51.44c-29,11.58-5,58.82,19.12,41.35C141.39,79.71,129.52,46.36,104.25,51.44Z"/><path class="cls-6" d="M104.27,51.53c-28.88,11.53-4.93,58.59,19,41.19C141.28,79.68,129.45,46.46,104.27,51.53Z"/><path class="cls-7" d="M104.3,51.61c-28.78,11.49-4.91,58.37,19,41C141.16,79.66,129.38,46.56,104.3,51.61Z"/><path class="cls-8" d="M104.32,51.69c-28.66,11.45-4.89,58.15,18.9,40.88C141.05,79.63,129.31,46.66,104.32,51.69Z"/><path class="cls-9" d="M104.35,51.77C75.79,63.18,99.47,109.7,123.18,92.5,140.93,79.61,129.24,46.76,104.35,51.77Z"/><path class="cls-10" d="M104.37,51.85c-28.44,11.36-4.85,57.71,18.76,40.57C140.82,79.59,129.17,46.86,104.37,51.85Z"/><path class="cls-11" d="M104.4,51.94c-28.34,11.31-4.84,57.48,18.68,40.41C140.7,79.56,129.1,47,104.4,51.94Z"/><path class="cls-12" d="M104.42,52C76.19,63.29,99.6,109.28,123,92.28,140.59,79.54,129,47.06,104.42,52Z"/><path class="cls-13" d="M104.45,52.1c-28.12,11.23-4.8,57,18.54,40.1C140.47,79.51,129,47.17,104.45,52.1Z"/><path class="cls-14" d="M104.47,52.18c-28,11.19-4.78,56.82,18.47,39.95C140.36,79.49,128.89,47.27,104.47,52.18Z"/><path class="cls-15" d="M104.5,52.26c-27.91,11.15-4.77,56.6,18.39,39.79C140.24,79.46,128.82,47.37,104.5,52.26Z"/><path class="cls-16" d="M104.52,52.34C76.73,63.44,99.78,108.72,122.85,92,140.13,79.44,128.75,47.47,104.52,52.34Z"/><path class="cls-17" d="M104.55,52.43c-27.69,11-4.73,56.16,18.25,39.48C140,79.42,128.68,47.57,104.55,52.43Z"/><path class="cls-18" d="M104.57,52.51c-27.58,11-4.71,55.94,18.18,39.32C139.9,79.39,128.61,47.67,104.57,52.51Z"/><path class="cls-19" d="M104.59,52.59c-27.46,11-4.68,55.72,18.12,39.17C139.78,79.37,128.54,47.77,104.59,52.59Z"/><path class="cls-20" d="M104.62,52.67c-27.36,10.93-4.67,55.5,18,39C139.67,79.34,128.47,47.87,104.62,52.67Z"/><path class="cls-21" d="M104.64,52.75C77.4,63.63,100,108,122.61,91.61,139.55,79.32,128.39,48,104.64,52.75Z"/><path class="cls-22" d="M104.67,52.83C77.53,63.67,100,107.89,122.56,91.54,139.44,79.29,128.32,48.07,104.67,52.83Z"/><path class="cls-23" d="M104.69,52.92c-27,10.79-4.61,54.83,17.83,38.55C139.32,79.27,128.25,48.17,104.69,52.92Z"/><path class="cls-24" d="M104.72,53c-26.92,10.75-4.6,54.61,17.75,38.39C139.21,79.24,128.18,48.28,104.72,53Z"/><path class="cls-25" d="M104.74,53.08c-26.81,10.71-4.57,54.39,17.68,38.24C139.09,79.22,128.11,48.38,104.74,53.08Z"/><path class="cls-26" d="M104.77,53.16c-26.71,10.67-4.56,54.17,17.61,38.08C139,79.2,128,48.48,104.77,53.16Z"/><path class="cls-27" d="M104.79,53.24c-26.59,10.62-4.54,54,17.54,37.93C138.86,79.17,128,48.58,104.79,53.24Z"/><path class="cls-28" d="M104.82,53.33C78.33,63.9,100.3,107.05,122.28,91.1,138.75,79.15,127.9,48.68,104.82,53.33Z"/><path class="cls-29" d="M104.84,53.41c-26.38,10.53-4.5,53.5,17.39,37.61C138.63,79.12,127.83,48.78,104.84,53.41Z"/><path class="cls-30" d="M104.87,53.49C78.6,64,100.38,106.78,122.19,91,138.52,79.1,127.76,48.88,104.87,53.49Z"/><path class="cls-31" d="M104.89,53.57C78.73,64,100.43,106.64,122.14,90.88,138.41,79.07,127.69,49,104.89,53.57Z"/><path class="cls-32" d="M104.92,53.65c-26,10.41-4.45,52.85,17.17,37.15C138.29,79.05,127.62,49.08,104.92,53.65Z"/><path class="cls-33" d="M104.94,53.73c-25.94,10.36-4.43,52.63,17.11,37C138.18,79,127.55,49.18,104.94,53.73Z"/><path class="cls-34" d="M105,53.82c-25.84,10.31-4.41,52.4,17,36.84C138.06,79,127.48,49.28,105,53.82Z"/><path class="cls-35" d="M105,53.9c-25.72,10.27-4.39,52.18,17,36.68C138,79,127.41,49.38,105,53.9Z"/><path class="cls-36" d="M105,54c-25.62,10.23-4.38,52,16.89,36.53C137.83,79,127.34,49.49,105,54Z"/><path class="cls-37" d="M105,54.06c-25.51,10.19-4.35,51.74,16.82,36.38C137.72,78.93,127.27,49.59,105,54.06Z"/><path class="cls-37" d="M105.06,54.14c-25.39,10.15-4.33,51.52,16.75,36.22C137.6,78.9,127.2,49.69,105.06,54.14Z"/><path class="cls-38" d="M105.09,54.23c-25.29,10.09-4.32,51.29,16.67,36.06C137.49,78.88,127.13,49.79,105.09,54.23Z"/><path class="cls-39" d="M105.11,54.31c-25.17,10-4.29,51.07,16.61,35.9C137.37,78.85,127.06,49.89,105.11,54.31Z"/><path class="cls-40" d="M105.14,54.39c-25.07,10-4.28,50.85,16.53,35.75C137.26,78.83,127,50,105.14,54.39Z"/><path class="cls-41" d="M105.16,54.47c-25,10-4.26,50.63,16.46,35.6C137.14,78.8,126.92,50.09,105.16,54.47Z"/><path class="cls-42" d="M105.19,54.55C80.34,64.48,101,105,121.58,90,137,78.78,126.85,50.19,105.19,54.55Z"/><path class="cls-43" d="M105.21,54.63c-24.74,9.89-4.22,50.2,16.32,35.29C136.91,78.76,126.78,50.29,105.21,54.63Z"/><path class="cls-44" d="M105.24,54.72c-24.64,9.83-4.21,50,16.24,35.13C136.8,78.73,126.71,50.39,105.24,54.72Z"/><path class="cls-45" d="M105.26,54.8c-24.52,9.79-4.18,49.75,16.17,35C136.68,78.71,126.64,50.49,105.26,54.8Z"/><path class="cls-46" d="M105.29,54.88c-24.42,9.75-4.17,49.53,16.1,34.82C136.57,78.68,126.57,50.6,105.29,54.88Z"/><path class="cls-47" d="M105.31,55c-24.31,9.71-4.15,49.31,16,34.67C136.45,78.66,126.5,50.7,105.31,55Z"/><path class="cls-48" d="M105.34,55c-24.2,9.67-4.13,49.09,16,34.51C136.34,78.63,126.43,50.8,105.34,55Z"/><path class="cls-49" d="M105.36,55.12c-24.09,9.62-4.11,48.87,15.89,34.36C136.22,78.61,126.36,50.9,105.36,55.12Z"/><path class="cls-50" d="M105.39,55.21c-24,9.57-4.1,48.64,15.81,34.2C136.11,78.58,126.29,51,105.39,55.21Z"/><path class="cls-51" d="M105.41,55.29c-23.87,9.53-4.07,48.42,15.74,34C136,78.56,126.22,51.1,105.41,55.29Z"/><path class="cls-52" d="M105.44,55.37c-23.77,9.49-4.06,48.2,15.66,33.89C135.88,78.54,126.15,51.2,105.44,55.37Z"/><path class="cls-53" d="M105.46,55.45c-23.65,9.45-4,48,15.6,33.73C135.76,78.51,126.08,51.3,105.46,55.45Z"/><path class="cls-54" d="M105.48,55.53c-23.54,9.41-4,47.76,15.53,33.58C135.65,78.49,126,51.4,105.48,55.53Z"/><path class="cls-55" d="M105.51,55.62C82.07,65,101.51,103.16,121,89,135.53,78.46,125.94,51.5,105.51,55.62Z"/><path class="cls-56" d="M105.53,55.7C82.21,65,101.55,103,120.92,89,135.42,78.44,125.87,51.6,105.53,55.7Z"/><path class="cls-57" d="M105.56,55.78c-23.22,9.27-4,47.1,15.31,33.11C135.3,78.41,125.8,51.71,105.56,55.78Z"/><path class="cls-58" d="M105.58,55.86c-23.11,9.23-3.94,46.88,15.24,33C135.19,78.39,125.73,51.81,105.58,55.86Z"/><path class="cls-59" d="M105.61,55.94c-23,9.19-3.93,46.66,15.16,32.8C135.07,78.36,125.66,51.91,105.61,55.94Z"/><path class="cls-60" d="M105.63,56c-22.89,9.15-3.9,46.44,15.1,32.65C135,78.34,125.59,52,105.63,56Z"/><path class="cls-61" d="M105.66,56.11c-22.78,9.09-3.89,46.21,15,32.49C134.84,78.32,125.52,52.11,105.66,56.11Z"/><path class="cls-62" d="M105.68,56.19c-22.67,9-3.87,46,14.95,32.33C134.73,78.29,125.45,52.21,105.68,56.19Z"/><path class="cls-63" d="M105.71,56.27c-22.57,9-3.85,45.77,14.88,32.18C134.62,78.27,125.37,52.31,105.71,56.27Z"/><path class="cls-64" d="M105.73,56.35c-22.45,9-3.83,45.55,14.81,32C134.5,78.24,125.3,52.41,105.73,56.35Z"/><path class="cls-65" d="M105.76,56.43c-22.35,8.93-3.82,45.33,14.73,31.87C134.39,78.22,125.23,52.51,105.76,56.43Z"/><path class="cls-66" d="M105.78,56.51C83.54,65.4,102,101.62,120.44,88.23,134.27,78.19,125.16,52.61,105.78,56.51Z"/><path class="cls-67" d="M105.81,56.6C83.68,65.43,102,101.49,120.4,88.15,134.16,78.17,125.09,52.71,105.81,56.6Z"/><path class="cls-68" d="M105.83,56.68c-22,8.79-3.76,44.67,14.52,31.4C134,78.14,125,52.82,105.83,56.68Z"/><path class="cls-69" d="M105.86,56.76C84,65.51,102.12,101.21,120.3,88,133.93,78.12,125,52.92,105.86,56.76Z"/><path class="cls-70" d="M105.88,56.84c-21.8,8.71-3.72,44.23,14.38,31.09C133.81,78.1,124.88,53,105.88,56.84Z"/><path class="cls-71" d="M105.91,56.92c-21.7,8.67-5.33,41.42,14.3,30.94C132.23,76.32,124.81,53.12,105.91,56.92Z"/><path class="cls-4" d="M158.66,31.61C141.3,40,146.89,62.11,158,72.23,183.48,92.15,192.27,22.35,158.66,31.61Z"/><path class="cls-5" d="M158.68,31.68c-17.3,8.38-12.1,30.82-.65,40.49C182.66,93,192.18,22.45,158.68,31.68Z"/><path class="cls-6" d="M158.69,31.74c-17.24,8.36-12.06,30.74-.64,40.37C182.6,92.83,192.09,22.54,158.69,31.74Z"/><path class="cls-7" d="M158.71,31.81c-17.19,8.33-12,30.64-.64,40.24C182.55,92.71,192,22.64,158.71,31.81Z"/><path class="cls-8" d="M158.73,31.88c-17.14,8.3-12,30.54-.64,40.11C182.49,92.58,191.92,22.74,158.73,31.88Z"/><path class="cls-9" d="M158.75,32c-17.09,8.27-11.95,30.44-.65,40C182.43,92.46,191.83,22.83,158.75,32Z"/><path class="cls-10" d="M158.76,32c-17,8.25-11.91,30.34-.64,39.85C182.37,92.33,191.74,22.93,158.76,32Z"/><path class="cls-11" d="M158.78,32.09c-17,8.22-11.87,30.24-.64,39.72C182.31,92.21,191.65,23,158.78,32.09Z"/><path class="cls-12" d="M158.8,32.15c-16.92,8.2-11.83,30.15-.64,39.6C182.25,92.08,191.56,23.13,158.8,32.15Z"/><path class="cls-13" d="M158.81,32.22C142,40.39,147,62.27,158.18,71.69,182.2,92,191.47,23.22,158.81,32.22Z"/><path class="cls-14" d="M158.83,32.29c-16.81,8.14-11.75,30-.63,39.34C182.14,91.83,191.39,23.32,158.83,32.29Z"/><path class="cls-15" d="M158.85,32.36c-16.76,8.11-11.72,29.85-.63,39.21C182.08,91.71,191.3,23.42,158.85,32.36Z"/><path class="cls-16" d="M158.87,32.43c-16.7,8.09-11.68,29.76-.63,39.08C182,91.58,191.21,23.52,158.87,32.43Z"/><path class="cls-17" d="M158.88,32.49c-16.64,8.07-11.64,29.67-.62,39C182,91.46,191.12,23.61,158.88,32.49Z"/><path class="cls-18" d="M158.9,32.56c-16.59,8-11.6,29.57-.62,38.83C181.9,91.33,191,23.71,158.9,32.56Z"/><path class="cls-19" d="M158.92,32.63c-16.54,8-11.57,29.47-.62,38.7C181.84,91.21,190.94,23.81,158.92,32.63Z"/><path class="cls-20" d="M158.93,32.7c-16.48,8-11.52,29.37-.61,38.57C181.79,91.08,190.85,23.9,158.93,32.7Z"/><path class="cls-21" d="M159,32.77c-16.43,8-11.49,29.27-.62,38.44C181.73,91,190.77,24,159,32.77Z"/><path class="cls-22" d="M159,32.84c-16.37,7.93-11.45,29.17-.62,38.32C181.67,90.83,190.68,24.1,159,32.84Z"/><path class="cls-23" d="M159,32.9c-16.32,7.91-11.42,29.08-.62,38.2C181.61,90.71,190.59,24.2,159,32.9Z"/><path class="cls-24" d="M159,33c-16.26,7.88-11.37,29-.61,38.07C181.55,90.58,190.5,24.29,159,33Z"/><path class="cls-25" d="M159,33c-16.21,7.85-11.34,28.88-.61,37.94C181.49,90.46,190.41,24.39,159,33Z"/><path class="cls-26" d="M159,33.11c-16.16,7.82-11.3,28.78-.61,37.81C181.43,90.33,190.32,24.49,159,33.11Z"/><path class="cls-27" d="M159.05,33.18c-16.1,7.8-11.26,28.69-.6,37.68C181.38,90.21,190.23,24.59,159.05,33.18Z"/><path class="cls-28" d="M159.07,33.24c-16,7.78-11.22,28.6-.6,37.56C181.32,90.08,190.15,24.68,159.07,33.24Z"/><path class="cls-29" d="M159.09,33.31c-16,7.75-11.18,28.5-.6,37.43C181.26,90,190.06,24.78,159.09,33.31Z"/><path class="cls-30" d="M159.11,33.38c-15.94,7.72-11.15,28.4-.6,37.3C181.2,89.83,190,24.88,159.11,33.38Z"/><path class="cls-31" d="M159.12,33.45c-15.88,7.69-11.1,28.3-.59,37.17C181.14,89.71,189.88,25,159.12,33.45Z"/><path class="cls-32" d="M159.14,33.52c-15.83,7.66-11.07,28.2-.59,37C181.08,89.58,189.79,25.07,159.14,33.52Z"/><path class="cls-33" d="M159.16,33.58c-15.78,7.65-11,28.11-.6,36.92C181,89.46,189.7,25.17,159.16,33.58Z"/><path class="cls-34" d="M159.17,33.65c-15.71,7.62-11,28-.59,36.79C181,89.33,189.61,25.27,159.17,33.65Z"/><path class="cls-35" d="M159.19,33.72c-15.66,7.59-10.95,27.91-.59,36.66C180.91,89.21,189.53,25.36,159.19,33.72Z"/><path class="cls-36" d="M159.21,33.79c-15.61,7.56-10.92,27.81-.59,36.53C180.85,89.08,189.44,25.46,159.21,33.79Z"/><path class="cls-37" d="M159.23,33.86c-15.56,7.53-10.88,27.71-.59,36.4C180.79,89,189.35,25.56,159.23,33.86Z"/><path class="cls-37" d="M159.24,33.93c-15.5,7.5-10.84,27.62-.58,36.27C180.73,88.83,189.26,25.66,159.24,33.93Z"/><path class="cls-38" d="M159.26,34c-15.45,7.49-10.8,27.53-.58,36.15C180.67,88.7,189.17,25.75,159.26,34Z"/><path class="cls-39" d="M159.28,34.06c-15.39,7.46-10.77,27.43-.58,36C180.61,88.58,189.08,25.85,159.28,34.06Z"/><path class="cls-40" d="M159.29,34.13C144,41.56,148.57,61.46,158.72,70,180.56,88.45,189,26,159.29,34.13Z"/><path class="cls-41" d="M159.31,34.2C144,41.6,148.62,61.43,158.74,70,180.5,88.33,188.91,26,159.31,34.2Z"/><path class="cls-42" d="M159.33,34.27c-15.23,7.37-10.65,27.13-.57,35.63C180.44,88.2,188.82,26.14,159.33,34.27Z"/><path class="cls-43" d="M159.34,34.33c-15.17,7.36-10.61,27-.56,35.52C180.38,88.08,188.73,26.24,159.34,34.33Z"/><path class="cls-44" d="M159.36,34.4c-15.12,7.33-10.57,26.94-.57,35.39C180.32,88,188.64,26.34,159.36,34.4Z"/><path class="cls-45" d="M159.38,34.47c-15.06,7.3-10.54,26.84-.57,35.26C180.26,87.83,188.55,26.43,159.38,34.47Z"/><path class="cls-46" d="M159.4,34.54c-15,7.27-10.5,26.74-.57,35.13C180.21,87.7,188.46,26.53,159.4,34.54Z"/><path class="cls-47" d="M159.41,34.61c-14.95,7.24-10.45,26.64-.56,35C180.15,87.58,188.37,26.63,159.41,34.61Z"/><path class="cls-48" d="M159.43,34.68c-14.9,7.21-10.42,26.55-.56,34.87C180.09,87.45,188.29,26.73,159.43,34.68Z"/><path class="cls-49" d="M159.45,34.74c-14.85,7.2-10.38,26.46-.56,34.75C180,87.33,188.2,26.82,159.45,34.74Z"/><path class="cls-50" d="M159.46,34.81c-14.79,7.17-10.34,26.36-.55,34.62C180,87.2,188.11,26.92,159.46,34.81Z"/><path class="cls-51" d="M159.48,34.88c-14.73,7.14-10.3,26.26-.55,34.49C179.91,87.08,188,27,159.48,34.88Z"/><path class="cls-52" d="M159.5,35c-14.68,7.11-10.27,26.16-.55,34.36C179.85,87,187.93,27.11,159.5,35Z"/><path class="cls-53" d="M159.52,35c-14.63,7.08-10.23,26.06-.55,34.23C179.8,86.83,187.84,27.21,159.52,35Z"/><path class="cls-54" d="M159.53,35.08c-14.57,7.06-10.19,26-.54,34.11C179.74,86.7,187.75,27.31,159.53,35.08Z"/><path class="cls-55" d="M159.55,35.15c-14.52,7-10.15,25.87-.54,34C179.68,86.58,187.67,27.41,159.55,35.15Z"/><path class="cls-56" d="M159.57,35.22c-14.47,7-10.12,25.77-.55,33.85C179.62,86.45,187.58,27.5,159.57,35.22Z"/><path class="cls-57" d="M159.58,35.29C145.18,42.27,149.51,61,159,69,179.56,86.33,187.49,27.6,159.58,35.29Z"/><path class="cls-58" d="M159.6,35.36c-14.35,7-10,25.58-.54,33.59C179.5,86.2,187.4,27.7,159.6,35.36Z"/><path class="cls-59" d="M159.62,35.43c-14.3,6.92-10,25.48-.54,33.46C179.44,86.08,187.31,27.8,159.62,35.43Z"/><path class="cls-60" d="M159.64,35.49c-14.25,6.9-10,25.39-.54,33.34C179.39,86,187.22,27.89,159.64,35.49Z"/><path class="cls-61" d="M159.65,35.56c-14.19,6.88-9.92,25.29-.53,33.21C179.33,85.83,187.13,28,159.65,35.56Z"/><path class="cls-62" d="M159.67,35.63c-14.14,6.85-9.89,25.19-.53,33.08C179.27,85.7,187.05,28.09,159.67,35.63Z"/><path class="cls-63" d="M159.69,35.7c-14.08,6.82-9.85,25.09-.53,33C179.21,85.58,187,28.18,159.69,35.7Z"/><path class="cls-64" d="M159.7,35.77c-14,6.79-9.8,25-.52,32.83C179.15,85.45,186.87,28.28,159.7,35.77Z"/><path class="cls-65" d="M159.72,35.83c-14,6.77-9.77,24.9-.52,32.71C179.09,85.33,186.78,28.38,159.72,35.83Z"/><path class="cls-66" d="M159.74,35.9c-13.92,6.74-9.73,24.8-.52,32.58C179,85.2,186.69,28.48,159.74,35.9Z"/><path class="cls-67" d="M159.76,36c-13.87,6.72-9.7,24.7-.52,32.45C179,85.08,186.6,28.57,159.76,36Z"/><path class="cls-68" d="M159.77,36c-13.81,6.69-9.65,24.6-.52,32.32C178.92,85,186.51,28.67,159.77,36Z"/><path class="cls-69" d="M159.79,36.11c-13.75,6.66-9.62,24.51-.52,32.19C178.86,84.83,186.43,28.77,159.79,36.11Z"/><path class="cls-70" d="M159.81,36.18c-13.7,6.63-9.58,24.41-.52,32.06C178.8,84.7,186.34,28.87,159.81,36.18Z"/><path class="cls-71" d="M159.82,36.24c-13.64,6.61-9.25,24-.51,31.94C179.34,83.84,186.25,29,159.82,36.24Z"/><path class="cls-4" d="M133.64,96.14c-8.28,13.66-13.93,41.27,10.46,38.63,9.43,0,19.77-.49,23.58-10.86C173.91,102.61,157.81,83.35,133.64,96.14Z"/><path class="cls-5" d="M133.69,96.2c-8.25,13.61-14,39.84,10.42,38.5,9.39-.52,20.06-.37,23.51-10.83C174.54,102.87,157.78,83.45,133.69,96.2Z"/><path class="cls-6" d="M133.73,96.26c-8.22,13.57-13.93,39.7,10.4,38.37,9.35-.52,20-.37,23.42-10.8C174.45,102.9,157.74,83.55,133.73,96.26Z"/><path class="cls-7" d="M133.78,96.32c-8.19,13.52-13.89,39.57,10.36,38.23,9.32-.51,19.91-.36,23.34-10.75C174.36,102.94,157.71,83.65,133.78,96.32Z"/><path class="cls-8" d="M133.83,96.38c-8.17,13.47-13.84,39.43,10.32,38.1,9.29-.51,19.85-.36,23.26-10.72C174.27,103,157.68,83.76,133.83,96.38Z"/><path class="cls-9" d="M133.88,96.44c-8.14,13.42-13.8,39.29,10.28,38,9.26-.51,19.78-.36,23.18-10.68C174.17,103,157.64,83.86,133.88,96.44Z"/><path class="cls-10" d="M133.93,96.5c-8.11,13.38-13.75,39.15,10.25,37.84,9.22-.51,19.71-.36,23.1-10.65C174.08,103.05,157.61,84,133.93,96.5Z"/><path class="cls-11" d="M134,96.56c-8.08,13.33-13.69,39,10.22,37.7,9.19-.5,19.64-.35,23-10.6C174,103.08,157.57,84.06,134,96.56Z"/><path class="cls-12" d="M134,96.61C126,109.9,120.37,135.5,144.2,134.19c9.16-.5,19.57-.35,22.94-10.57C173.9,103.12,157.54,84.17,134,96.61Z"/><path class="cls-13" d="M134.07,96.67c-8,13.24-13.6,38.75,10.14,37.45,9.13-.5,19.51-.36,22.86-10.53C173.81,103.16,157.5,84.27,134.07,96.67Z"/><path class="cls-14" d="M134.12,96.73c-8,13.2-13.56,38.62,10.11,37.32,9.09-.5,19.43-.36,22.78-10.5C173.72,103.19,157.47,84.37,134.12,96.73Z"/><path class="cls-15" d="M134.17,96.79c-8,13.15-13.51,38.48,10.07,37.18,9.06-.49,19.37-.35,22.7-10.46C173.63,103.23,157.44,84.48,134.17,96.79Z"/><path class="cls-16" d="M134.22,96.85c-7.94,13.1-13.46,38.34,10,37.05,9-.49,19.3-.35,22.62-10.42C173.53,103.27,157.4,84.58,134.22,96.85Z"/><path class="cls-17" d="M134.26,96.91c-7.91,13.06-13.41,38.2,10,36.92,9-.5,19.23-.35,22.54-10.39C173.44,103.3,157.37,84.68,134.26,96.91Z"/><path class="cls-18" d="M134.31,97c-7.88,13-13.36,38.07,10,36.79,9-.5,19.16-.35,22.45-10.35C173.35,103.34,157.33,84.78,134.31,97Z"/><path class="cls-19" d="M134.36,97c-7.85,13-13.32,37.93,9.93,36.65,8.93-.49,19.09-.34,22.38-10.31C173.26,103.37,157.3,84.89,134.36,97Z"/><path class="cls-20" d="M134.41,97.09c-7.83,12.91-13.27,37.79,9.89,36.52,8.9-.49,19-.35,22.3-10.27C173.17,103.41,157.27,85,134.41,97.09Z"/><path class="cls-21" d="M134.46,97.15c-7.8,12.87-13.22,37.66,9.85,36.39,8.88-.49,19-.35,22.22-10.24C173.08,103.45,157.23,85.09,134.46,97.15Z"/><path class="cls-22" d="M134.51,97.21c-7.77,12.82-13.18,37.52,9.82,36.26,8.84-.49,18.88-.35,22.13-10.2C173,103.48,157.2,85.2,134.51,97.21Z"/><path class="cls-23" d="M134.55,97.26c-7.74,12.78-13.12,37.39,9.79,36.13,8.81-.48,18.82-.34,22.06-10.16C172.89,103.52,157.16,85.3,134.55,97.26Z"/><path class="cls-24" d="M134.6,97.32c-7.71,12.73-13.07,37.25,9.75,36,8.78-.48,18.75-.34,22-10.13C172.8,103.56,157.13,85.4,134.6,97.32Z"/><path class="cls-25" d="M134.65,97.38c-7.69,12.69-13,37.12,9.71,35.87,8.75-.48,18.69-.34,21.9-10.09C172.71,103.59,157.09,85.5,134.65,97.38Z"/><path class="cls-26" d="M134.7,97.44c-7.66,12.64-13,37,9.68,35.74,8.71-.48,18.61-.34,21.81-10.06C172.62,103.63,157.06,85.61,134.7,97.44Z"/><path class="cls-27" d="M134.75,97.5c-7.63,12.59-12.94,36.84,9.64,35.6,8.68-.47,18.54-.33,21.73-10C172.53,103.66,157,85.71,134.75,97.5Z"/><path class="cls-28" d="M134.8,97.56c-7.61,12.54-12.89,36.71,9.6,35.47,8.65-.47,18.48-.34,21.66-10C172.44,103.7,157,85.81,134.8,97.56Z"/><path class="cls-29" d="M134.84,97.62c-7.57,12.5-12.83,36.57,9.57,35.34,8.62-.47,18.41-.34,21.58-9.94C172.34,103.74,157,85.91,134.84,97.62Z"/><path class="cls-30" d="M134.89,97.68c-7.54,12.45-12.79,36.43,9.54,35.21,8.58-.48,18.34-.34,21.49-9.91C172.25,103.77,156.92,86,134.89,97.68Z"/><path class="cls-31" d="M134.94,97.74c-7.52,12.4-12.74,36.29,9.5,35.07,8.55-.47,18.27-.33,21.41-9.86C172.16,103.81,156.89,86.12,134.94,97.74Z"/><path class="cls-32" d="M135,97.8c-7.49,12.35-12.7,36.16,9.46,34.94,8.52-.47,18.2-.33,21.33-9.83C172.07,103.85,156.86,86.22,135,97.8Z"/><path class="cls-33" d="M135,97.86c-7.46,12.31-12.65,36,9.42,34.81,8.49-.47,18.14-.33,21.26-9.79C172,103.88,156.82,86.33,135,97.86Z"/><path class="cls-34" d="M135.08,97.92c-7.43,12.26-12.59,35.88,9.4,34.68,8.45-.47,18.06-.33,21.17-9.76C171.89,103.92,156.79,86.43,135.08,97.92Z"/><path class="cls-35" d="M135.13,98c-7.4,12.22-12.55,35.76,9.36,34.55,8.42-.46,18-.32,21.09-9.72C171.8,104,156.75,86.53,135.13,98Z"/><path class="cls-36" d="M135.18,98c-7.37,12.17-12.5,35.62,9.32,34.42,8.39-.46,17.93-.33,21-9.68C171.7,104,156.72,86.63,135.18,98Z"/><path class="cls-37" d="M135.23,98.09c-7.35,12.13-12.46,35.48,9.29,34.29,8.35-.46,17.85-.33,20.93-9.65C171.61,104,156.68,86.74,135.23,98.09Z"/><path class="cls-37" d="M135.28,98.15c-7.32,12.08-12.41,35.34,9.25,34.16,8.32-.46,17.79-.33,20.85-9.61C171.52,104.06,156.65,86.84,135.28,98.15Z"/><path class="cls-38" d="M135.33,98.21c-7.29,12-12.36,35.21,9.21,34,8.29-.45,17.72-.32,20.77-9.57C171.43,104.1,156.62,86.94,135.33,98.21Z"/><path class="cls-39" d="M135.37,98.27c-7.26,12-12.31,35.07,9.18,33.89,8.26-.45,17.66-.32,20.69-9.53C171.34,104.14,156.58,87,135.37,98.27Z"/><path class="cls-40" d="M135.42,98.33c-7.23,11.94-12.26,34.93,9.15,33.76,8.22-.45,17.58-.32,20.6-9.5C171.25,104.17,156.55,87.15,135.42,98.33Z"/><path class="cls-41" d="M135.47,98.39c-7.21,11.89-12.21,34.8,9.11,33.62,8.2-.45,17.51-.31,20.53-9.45C171.15,104.21,156.51,87.25,135.47,98.39Z"/><path class="cls-42" d="M135.52,98.45c-7.18,11.84-12.17,34.66,9.07,33.49,8.17-.45,17.45-.32,20.45-9.42C171.06,104.25,156.48,87.35,135.52,98.45Z"/><path class="cls-43" d="M135.57,98.51c-7.15,11.79-12.12,34.52,9,33.36,8.14-.45,17.38-.32,20.37-9.39C171,104.28,156.45,87.46,135.57,98.51Z"/><path class="cls-44" d="M135.62,98.57c-7.13,11.75-12.08,34.38,9,33.23,8.1-.45,17.31-.32,20.28-9.35C170.88,104.32,156.41,87.56,135.62,98.57Z"/><path class="cls-45" d="M135.66,98.63c-7.09,11.7-12,34.25,9,33.09,8.07-.44,17.24-.31,20.21-9.31C170.79,104.36,156.38,87.66,135.66,98.63Z"/><path class="cls-46" d="M135.71,98.68c-7.06,11.66-12,34.12,8.93,33,8-.44,17.17-.31,20.13-9.27C170.7,104.39,156.34,87.76,135.71,98.68Z"/><path class="cls-47" d="M135.76,98.74c-7,11.61-11.93,34,8.89,32.84,8-.44,17.11-.31,20-9.24C170.61,104.43,156.31,87.87,135.76,98.74Z"/><path class="cls-48" d="M135.81,98.8c-7,11.57-11.88,33.85,8.86,32.71,8-.44,17-.31,20-9.2C170.51,104.46,156.27,88,135.81,98.8Z"/><path class="cls-49" d="M135.86,98.86c-7,11.52-11.84,33.71,8.82,32.57,7.94-.43,17-.3,19.88-9.16C170.42,104.5,156.24,88.07,135.86,98.86Z"/><path class="cls-50" d="M135.9,98.92c-7,11.47-11.78,33.57,8.79,32.44,7.91-.43,16.9-.31,19.81-9.12C170.33,104.54,156.21,88.18,135.9,98.92Z"/><path class="cls-51" d="M136,99c-6.92,11.43-11.73,33.43,8.75,32.31,7.88-.43,16.83-.31,19.73-9.09C170.24,104.57,156.17,88.28,136,99Z"/><path class="cls-52" d="M136,99c-6.89,11.38-11.69,33.3,8.72,32.18,7.84-.43,16.76-.31,19.64-9C170.15,104.61,156.14,88.38,136,99Z"/><path class="cls-53" d="M136.05,99.1c-6.87,11.33-11.64,33.16,8.68,32,7.81-.42,16.69-.3,19.56-9C170.06,104.65,156.1,88.48,136.05,99.1Z"/><path class="cls-54" d="M136.1,99.16c-6.84,11.28-11.6,33,8.64,31.91,7.78-.43,16.62-.3,19.48-9C170,104.68,156.07,88.59,136.1,99.16Z"/><path class="cls-55" d="M136.15,99.22c-6.81,11.24-11.55,32.89,8.6,31.78,7.75-.43,16.56-.3,19.41-8.94C169.87,104.72,156,88.69,136.15,99.22Z"/><path class="cls-56" d="M136.19,99.28c-6.78,11.19-11.49,32.75,8.58,31.65,7.71-.43,16.48-.3,19.32-8.91C169.78,104.76,156,88.79,136.19,99.28Z"/><path class="cls-57" d="M136.24,99.33c-6.75,11.15-11.45,32.62,8.54,31.52,7.68-.42,16.42-.29,19.24-8.86C169.69,104.79,156,88.89,136.24,99.33Z"/><path class="cls-58" d="M136.29,99.39c-6.73,11.1-11.4,32.48,8.5,31.39,7.65-.42,16.35-.3,19.16-8.83C169.6,104.83,155.93,89,136.29,99.39Z"/><path class="cls-59" d="M136.34,99.45c-6.7,11.06-11.36,32.35,8.46,31.26,7.62-.42,16.28-.3,19.09-8.79C169.51,104.86,155.9,89.1,136.34,99.45Z"/><path class="cls-60" d="M136.39,99.51c-6.67,11-11.31,32.21,8.43,31.13,7.58-.42,16.21-.3,19-8.76C169.42,104.9,155.86,89.2,136.39,99.51Z"/><path class="cls-61" d="M136.44,99.57c-6.65,11-11.26,32.07,8.39,31,7.55-.41,16.14-.29,18.92-8.71C169.32,104.94,155.83,89.31,136.44,99.57Z"/><path class="cls-62" d="M136.48,99.63c-6.61,10.91-11.21,31.94,8.36,30.86,7.53-.41,16.08-.29,18.84-8.68C169.23,105,155.8,89.41,136.48,99.63Z"/><path class="cls-63" d="M136.53,99.69c-6.58,10.87-11.16,31.8,8.32,30.73,7.5-.41,16-.29,18.76-8.65C169.14,105,155.76,89.51,136.53,99.69Z"/><path class="cls-64" d="M136.58,99.75c-6.56,10.82-11.11,31.66,8.29,30.6,7.46-.41,15.93-.29,18.68-8.61C169.05,105.05,155.73,89.61,136.58,99.75Z"/><path class="cls-65" d="M136.63,99.81c-6.53,10.77-11.07,31.52,8.25,30.46,7.43-.4,15.87-.29,18.6-8.57C169,105.08,155.69,89.72,136.63,99.81Z"/><path class="cls-66" d="M136.68,99.87c-6.5,10.72-11,31.39,8.21,30.33,7.4-.41,15.8-.29,18.52-8.53C168.87,105.12,155.66,89.82,136.68,99.87Z"/><path class="cls-67" d="M136.72,99.93c-6.47,10.68-11,31.25,8.19,30.2,7.36-.41,15.73-.29,18.43-8.5C168.78,105.15,155.63,89.92,136.72,99.93Z"/><path class="cls-68" d="M136.77,100c-6.44,10.63-10.92,31.11,8.15,30.07,7.33-.41,15.66-.29,18.36-8.46C168.68,105.19,155.59,90,136.77,100Z"/><path class="cls-69" d="M136.82,100c-6.41,10.59-10.87,31,8.11,29.94,7.3-.4,15.59-.28,18.28-8.42C168.59,105.23,155.56,90.13,136.82,100Z"/><path class="cls-70" d="M136.87,100.1c-6.39,10.54-10.83,30.85,8.07,29.81,7.27-.4,15.53-.28,18.2-8.38C168.5,105.26,155.52,90.23,136.87,100.1Z"/><path class="cls-71" d="M136.92,100.16c-6.36,10.5-10.7,31.7,8,29.68,7.24,0,15.18-.38,18.11-8.35C167.86,105.13,155.49,90.33,136.92,100.16Z"/><path class="cls-4" d="M109.93,137c-21.38,26,34.49,38.18,36.89,14.28C149.88,140,118.4,127.21,109.93,137Z"/><path class="cls-5" d="M110,137c-21.31,25.94,32.41,37.77,36.77,14.23C148.86,139.83,118.42,127.28,110,137Z"/><path class="cls-6" d="M110,137.05c-21.24,25.85,32.3,37.65,36.64,14.18C148.78,139.86,118.45,127.35,110,137.05Z"/><path class="cls-7" d="M110.09,137.09c-21.17,25.76,32.19,37.52,36.52,14.13C148.71,139.89,118.47,127.42,110.09,137.09Z"/><path class="cls-8" d="M110.15,137.13c-21.1,25.68,32.08,37.39,36.39,14.08C148.63,139.92,118.5,127.49,110.15,137.13Z"/><path class="cls-9" d="M110.2,137.17c-21,25.59,32,37.27,36.27,14C148.56,140,118.52,127.57,110.2,137.17Z"/><path class="cls-10" d="M110.25,137.2c-21,25.51,31.87,37.15,36.15,14C148.48,140,118.55,127.64,110.25,137.2Z"/><path class="cls-11" d="M110.31,137.24c-20.89,25.42,31.75,37,36,13.95C148.4,140,118.57,127.71,110.31,137.24Z"/><path class="cls-12" d="M110.36,137.28c-20.81,25.34,31.65,36.89,35.9,13.9C148.33,140,118.6,127.78,110.36,137.28Z"/><path class="cls-13" d="M110.41,137.32C89.67,162.57,142,174.09,146.2,151.17,148.25,140.07,118.63,127.85,110.41,137.32Z"/><path class="cls-14" d="M110.47,137.36C89.8,162.52,141.9,174,146.13,151.17,148.17,140.1,118.65,127.92,110.47,137.36Z"/><path class="cls-15" d="M110.52,137.4c-20.6,25.07,31.32,36.51,35.54,13.76C148.1,140.13,118.68,128,110.52,137.4Z"/><path class="cls-16" d="M110.58,137.44c-20.53,25,31.21,36.39,35.41,13.71C148,140.16,118.7,128.07,110.58,137.44Z"/><path class="cls-17" d="M110.63,137.48c-20.46,24.9,31.1,36.26,35.29,13.66C148,140.19,118.73,128.14,110.63,137.48Z"/><path class="cls-18" d="M110.68,137.52c-20.38,24.81,31,36.13,35.17,13.61C147.87,140.22,118.75,128.21,110.68,137.52Z"/><path class="cls-19" d="M110.74,137.56c-20.32,24.73,30.89,36,35,13.56C147.79,140.25,118.78,128.28,110.74,137.56Z"/><path class="cls-20" d="M110.79,137.6c-20.24,24.64,30.78,35.88,34.92,13.52C147.72,140.28,118.8,128.36,110.79,137.6Z"/><path class="cls-21" d="M110.84,137.64c-20.17,24.55,30.68,35.75,34.8,13.47C147.64,140.31,118.83,128.43,110.84,137.64Z"/><path class="cls-22" d="M110.9,137.68c-20.1,24.46,30.56,35.63,34.67,13.42C147.56,140.34,118.85,128.5,110.9,137.68Z"/><path class="cls-23" d="M111,137.72c-20,24.38,30.46,35.5,34.55,13.37C147.49,140.37,118.88,128.57,111,137.72Z"/><path class="cls-24" d="M111,137.76c-20,24.29,30.34,35.37,34.42,13.32C147.41,140.4,118.91,128.64,111,137.76Z"/><path class="cls-25" d="M111.06,137.8C91.17,162,141.3,173,145.36,151.08,147.34,140.43,118.93,128.72,111.06,137.8Z"/><path class="cls-26" d="M111.11,137.84C91.29,162,141.24,173,145.3,151.07,147.26,140.46,119,128.79,111.11,137.84Z"/><path class="cls-27" d="M111.17,137.87c-19.75,24,30,35,34.06,13.19C147.18,140.49,119,128.86,111.17,137.87Z"/><path class="cls-28" d="M111.22,137.91c-19.68,24,29.91,34.87,33.94,13.14C147.11,140.52,119,128.93,111.22,137.91Z"/><path class="cls-29" d="M111.27,138c-19.6,23.86,29.81,34.75,33.82,13.09C147,140.55,119,129,111.27,138Z"/><path class="cls-30" d="M111.33,138C91.79,161.76,141,172.61,145,151,147,140.58,119.06,129.08,111.33,138Z"/><path class="cls-31" d="M111.38,138C91.92,161.72,141,172.52,145,151,146.88,140.61,119.08,129.15,111.38,138Z"/><path class="cls-32" d="M111.43,138.07c-19.39,23.6,29.48,34.37,33.45,13C146.8,140.64,119.11,129.22,111.43,138.07Z"/><path class="cls-33" d="M111.49,138.11c-19.32,23.51,29.37,34.24,33.32,12.9C146.72,140.67,119.14,129.29,111.49,138.11Z"/><path class="cls-34" d="M111.54,138.15c-19.25,23.43,29.27,34.11,33.2,12.85C146.65,140.7,119.16,129.36,111.54,138.15Z"/><path class="cls-35" d="M111.6,138.19c-19.18,23.34,29.15,34,33.07,12.8C146.57,140.73,119.19,129.44,111.6,138.19Z"/><path class="cls-36" d="M111.65,138.23c-19.11,23.25,29,33.86,32.95,12.76C146.5,140.76,119.21,129.51,111.65,138.23Z"/><path class="cls-37" d="M111.7,138.27c-19,23.16,28.94,33.73,32.83,12.71C146.42,140.79,119.24,129.58,111.7,138.27Z"/><path class="cls-37" d="M111.76,138.31c-19,23.08,28.83,33.61,32.7,12.66C146.34,140.82,119.26,129.65,111.76,138.31Z"/><path class="cls-38" d="M111.81,138.35c-18.89,23,28.72,33.48,32.59,12.61C146.27,140.85,119.29,129.72,111.81,138.35Z"/><path class="cls-39" d="M111.86,138.39C93,161.29,140.48,171.74,144.33,151,146.19,140.88,119.31,129.8,111.86,138.39Z"/><path class="cls-40" d="M111.92,138.43c-18.75,22.81,28.5,33.22,32.34,12.52C146.11,140.91,119.34,129.87,111.92,138.43Z"/><path class="cls-41" d="M112,138.47c-18.68,22.73,28.4,33.1,32.22,12.47C146,140.94,119.36,129.94,112,138.47Z"/><path class="cls-42" d="M112,138.51c-18.61,22.64,28.28,33,32.09,12.42C146,141,119.39,130,112,138.51Z"/><path class="cls-43" d="M112.08,138.55c-18.54,22.55,28.18,32.84,32,12.37C145.89,141,119.42,130.08,112.08,138.55Z"/><path class="cls-44" d="M112.13,138.58C93.67,161.06,140.2,171.31,144,150.91,145.81,141,119.44,130.16,112.13,138.58Z"/><path class="cls-45" d="M112.19,138.62c-18.4,22.39,28,32.6,31.72,12.28C145.73,141.06,119.47,130.23,112.19,138.62Z"/><path class="cls-46" d="M112.24,138.66c-18.32,22.3,27.85,32.47,31.6,12.24C145.66,141.09,119.49,130.3,112.24,138.66Z"/><path class="cls-47" d="M112.29,138.7C94,160.91,140,171.05,143.77,150.89,145.58,141.12,119.52,130.37,112.29,138.7Z"/><path class="cls-48" d="M112.35,138.74C94.17,160.87,140,171,143.7,150.88,145.5,141.15,119.54,130.44,112.35,138.74Z"/><path class="cls-49" d="M112.4,138.78c-18.11,22,27.53,32.09,31.23,12.09C145.43,141.18,119.57,130.52,112.4,138.78Z"/><path class="cls-50" d="M112.46,138.82c-18,22,27.42,32,31.1,12C145.35,141.21,119.59,130.59,112.46,138.82Z"/><path class="cls-51" d="M112.51,138.86c-18,21.86,27.31,31.84,31,12C145.28,141.24,119.62,130.66,112.51,138.86Z"/><path class="cls-52" d="M112.56,138.9c-17.89,21.78,27.21,31.71,30.87,11.95C145.2,141.27,119.65,130.73,112.56,138.9Z"/><path class="cls-53" d="M112.62,138.94c-17.83,21.69,27.09,31.59,30.74,11.9C145.12,141.3,119.67,130.8,112.62,138.94Z"/><path class="cls-54" d="M112.67,139c-17.75,21.6,27,31.46,30.62,11.85C145.05,141.33,119.7,130.88,112.67,139Z"/><path class="cls-55" d="M112.72,139c-17.68,21.51,26.88,31.33,30.5,11.8C145,141.36,119.72,131,112.72,139Z"/><path class="cls-56" d="M112.78,139.06c-17.61,21.43,26.77,31.2,30.37,11.75C144.89,141.39,119.75,131,112.78,139.06Z"/><path class="cls-57" d="M112.83,139.1c-17.54,21.34,26.66,31.08,30.25,11.71C144.82,141.42,119.77,131.09,112.83,139.1Z"/><path class="cls-58" d="M112.88,139.14c-17.46,21.25,26.56,31,30.13,11.66C144.74,141.45,119.8,131.16,112.88,139.14Z"/><path class="cls-59" d="M112.94,139.18c-17.4,21.17,26.44,30.82,30,11.61C144.66,141.48,119.82,131.24,112.94,139.18Z"/><path class="cls-60" d="M113,139.22c-17.32,21.08,26.34,30.7,29.88,11.56C144.59,141.51,119.85,131.31,113,139.22Z"/><path class="cls-61" d="M113.05,139.25c-17.26,21,26.23,30.58,29.75,11.52C144.51,141.54,119.87,131.38,113.05,139.25Z"/><path class="cls-62" d="M113.1,139.29c-17.18,20.91,26.12,30.45,29.63,11.48C144.44,141.57,119.9,131.45,113.1,139.29Z"/><path class="cls-63" d="M113.15,139.33c-17.11,20.83,26,30.33,29.51,11.43C144.36,141.6,119.93,131.52,113.15,139.33Z"/><path class="cls-64" d="M113.21,139.37c-17,20.74,25.9,30.2,29.39,11.38C144.28,141.63,120,131.6,113.21,139.37Z"/><path class="cls-65" d="M113.26,139.41c-17,20.65,25.8,30.07,29.27,11.33C144.21,141.66,120,131.67,113.26,139.41Z"/><path class="cls-66" d="M113.31,139.45C96.42,160,139,169.4,142.46,150.73,144.13,141.69,120,131.74,113.31,139.45Z"/><path class="cls-67" d="M113.37,139.49c-16.83,20.48,25.58,29.82,29,11.23C144.05,141.72,120,131.81,113.37,139.49Z"/><path class="cls-68" d="M113.42,139.53c-16.75,20.39,25.47,29.69,28.9,11.19C144,141.75,120.05,131.88,113.42,139.53Z"/><path class="cls-69" d="M113.48,139.57c-16.69,20.3,25.36,29.56,28.77,11.14C143.9,141.78,120.08,132,113.48,139.57Z"/><path class="cls-70" d="M113.53,139.61c-16.61,20.22,25.25,29.44,28.65,11.09C143.83,141.81,120.1,132,113.53,139.61Z"/><path class="cls-71" d="M113.58,139.65c-16.54,20.13,26.68,29.53,28.53,11C144.48,142,120.13,132.1,113.58,139.65Z"/><path class="cls-4" d="M14,23.74C-7.42,49.77,48.45,61.93,50.85,38,53.91,26.79,22.43,14,14,23.74Z"/><path class="cls-5" d="M14,23.78C-7.3,49.72,46.42,61.56,50.78,38,52.89,26.61,22.45,14.05,14,23.78Z"/><path class="cls-6" d="M14.07,23.82C-7.17,49.68,46.37,61.47,50.71,38,52.81,26.64,22.48,14.12,14.07,23.82Z"/><path class="cls-7" d="M14.12,23.86C-7,49.63,46.31,61.38,50.64,38,52.74,26.67,22.5,14.2,14.12,23.86Z"/><path class="cls-8" d="M14.18,23.9C-6.92,49.58,46.26,61.3,50.57,38,52.66,26.7,22.53,14.27,14.18,23.9Z"/><path class="cls-9" d="M14.23,23.94c-21,25.59,32,37.27,36.27,14C52.59,26.73,22.55,14.34,14.23,23.94Z"/><path class="cls-10" d="M14.28,24c-21,25.51,31.87,37.14,36.15,14C52.51,26.76,22.58,14.41,14.28,24Z"/><path class="cls-11" d="M14.34,24c-20.89,25.42,31.75,37,36,14C52.43,26.79,22.6,14.48,14.34,24Z"/><path class="cls-12" d="M14.39,24.06C-6.43,49.39,46,61,50.29,38,52.36,26.82,22.63,14.56,14.39,24.06Z"/><path class="cls-13" d="M14.44,24.1C-6.3,49.34,46,60.86,50.22,38,52.28,26.85,22.66,14.63,14.44,24.1Z"/><path class="cls-14" d="M14.5,24.14C-6.18,49.3,45.93,60.78,50.16,37.94,52.2,26.88,22.68,14.7,14.5,24.14Z"/><path class="cls-15" d="M14.55,24.18C-6,49.25,45.87,60.69,50.09,37.93,52.13,26.91,22.71,14.77,14.55,24.18Z"/><path class="cls-16" d="M14.61,24.22C-5.93,49.2,45.82,60.6,50,37.92,52.05,26.94,22.73,14.84,14.61,24.22Z"/><path class="cls-17" d="M14.66,24.26C-5.8,49.16,45.76,60.52,50,37.92,52,27,22.76,14.92,14.66,24.26Z"/><path class="cls-18" d="M14.71,24.3c-20.39,24.81,31,36.13,35.17,13.61C51.9,27,22.78,15,14.71,24.3Z"/><path class="cls-19" d="M14.77,24.34c-20.32,24.72,30.88,36,35,13.56C51.82,27,22.81,15.06,14.77,24.34Z"/><path class="cls-20" d="M14.82,24.37C-5.43,49,45.6,60.25,49.74,37.89,51.75,27.06,22.83,15.13,14.82,24.37Z"/><path class="cls-21" d="M14.87,24.41C-5.3,49,45.55,60.17,49.67,37.88,51.67,27.09,22.86,15.2,14.87,24.41Z"/><path class="cls-22" d="M14.93,24.45C-5.18,48.92,45.49,60.08,49.6,37.88,51.59,27.12,22.88,15.28,14.93,24.45Z"/><path class="cls-23" d="M15,24.49C-5,48.87,45.44,60,49.53,37.87,51.52,27.15,22.91,15.35,15,24.49Z"/><path class="cls-24" d="M15,24.53c-20,24.29,30.35,35.38,34.43,13.33C51.44,27.18,22.94,15.42,15,24.53Z"/><path class="cls-25" d="M15.09,24.57C-4.8,48.78,45.33,59.82,49.39,37.85,51.36,27.21,23,15.49,15.09,24.57Z"/><path class="cls-26" d="M15.14,24.61C-4.68,48.73,45.27,59.73,49.32,37.84,51.29,27.24,23,15.56,15.14,24.61Z"/><path class="cls-27" d="M15.2,24.65c-19.75,24,30,35,34.06,13.18C51.21,27.27,23,15.64,15.2,24.65Z"/><path class="cls-28" d="M15.25,24.69c-19.68,24,29.91,34.87,33.94,13.14C51.14,27.3,23,15.71,15.25,24.69Z"/><path class="cls-29" d="M15.3,24.73C-4.3,48.59,45.11,59.47,49.12,37.82,51.06,27.33,23.06,15.78,15.3,24.73Z"/><path class="cls-30" d="M15.36,24.77c-19.54,23.77,29.69,34.62,33.69,13C51,27.36,23.09,15.85,15.36,24.77Z"/><path class="cls-31" d="M15.41,24.81C-4,48.49,45,59.3,49,37.8,50.91,27.39,23.11,15.92,15.41,24.81Z"/><path class="cls-32" d="M15.46,24.85C-3.93,48.45,44.94,59.21,48.91,37.79,50.83,27.42,23.14,16,15.46,24.85Z"/><path class="cls-33" d="M15.52,24.89C-3.8,48.4,44.89,59.13,48.84,37.79,50.75,27.45,23.16,16.07,15.52,24.89Z"/><path class="cls-34" d="M15.57,24.93C-3.68,48.35,44.84,59,48.77,37.78,50.68,27.48,23.19,16.14,15.57,24.93Z"/><path class="cls-35" d="M15.63,25C-3.55,48.3,44.78,59,48.7,37.77,50.6,27.51,23.22,16.21,15.63,25Z"/><path class="cls-36" d="M15.68,25c-19.11,23.25,29.05,33.85,33,12.75C50.53,27.54,23.24,16.28,15.68,25Z"/><path class="cls-37" d="M15.73,25c-19,23.17,28.94,33.74,32.83,12.71C50.45,27.57,23.27,16.36,15.73,25Z"/><path class="cls-37" d="M15.79,25.08c-19,23.08,28.83,33.61,32.7,12.67C50.37,27.6,23.29,16.43,15.79,25.08Z"/><path class="cls-38" d="M15.84,25.12C-3,48.11,44.56,58.6,48.42,37.74,50.3,27.63,23.32,16.5,15.84,25.12Z"/><path class="cls-39" d="M15.89,25.16C-2.93,48.07,44.51,58.52,48.36,37.73,50.22,27.66,23.34,16.57,15.89,25.16Z"/><path class="cls-40" d="M16,25.2C-2.8,48,44.45,58.43,48.29,37.72,50.14,27.69,23.37,16.64,16,25.2Z"/><path class="cls-41" d="M16,25.24C-2.68,48,44.4,58.34,48.22,37.71,50.07,27.72,23.39,16.72,16,25.24Z"/><path class="cls-42" d="M16.06,25.28c-18.61,22.65,28.28,33,32.09,12.42C50,27.75,23.42,16.79,16.06,25.28Z"/><path class="cls-43" d="M16.11,25.32c-18.54,22.56,28.18,32.85,32,12.38C49.92,27.78,23.45,16.86,16.11,25.32Z"/><path class="cls-44" d="M16.16,25.36C-2.3,47.83,44.23,58.08,48,37.69,49.84,27.81,23.47,16.93,16.16,25.36Z"/><path class="cls-45" d="M16.22,25.4c-18.4,22.38,28,32.6,31.72,12.28C49.76,27.84,23.5,17,16.22,25.4Z"/><path class="cls-46" d="M16.27,25.44C-2,47.74,44.12,57.91,47.87,37.67,49.69,27.87,23.52,17.08,16.27,25.44Z"/><path class="cls-47" d="M16.32,25.48C-1.93,47.69,44.07,57.82,47.8,37.66,49.61,27.9,23.55,17.15,16.32,25.48Z"/><path class="cls-48" d="M16.38,25.52C-1.8,47.64,44,57.74,47.73,37.66,49.53,27.93,23.57,17.22,16.38,25.52Z"/><path class="cls-49" d="M16.43,25.56C-1.68,47.59,44,57.65,47.66,37.65,49.46,28,23.6,17.29,16.43,25.56Z"/><path class="cls-50" d="M16.49,25.6c-18,21.95,27.42,32,31.1,12C49.38,28,23.62,17.36,16.49,25.6Z"/><path class="cls-51" d="M16.54,25.64c-18,21.86,27.31,31.83,31,12C49.3,28,23.65,17.44,16.54,25.64Z"/><path class="cls-52" d="M16.59,25.68C-1.3,47.45,43.8,57.39,47.46,37.62,49.23,28.05,23.67,17.51,16.59,25.68Z"/><path class="cls-53" d="M16.65,25.72C-1.18,47.4,43.74,57.3,47.39,37.61,49.15,28.08,23.7,17.58,16.65,25.72Z"/><path class="cls-54" d="M16.7,25.75C-1,47.36,43.69,57.21,47.32,37.61,49.08,28.11,23.73,17.65,16.7,25.75Z"/><path class="cls-55" d="M16.75,25.79C-.93,47.31,43.63,57.13,47.25,37.6,49,28.14,23.75,17.72,16.75,25.79Z"/><path class="cls-56" d="M16.81,25.83C-.8,47.26,43.58,57,47.18,37.59,48.92,28.17,23.78,17.8,16.81,25.83Z"/><path class="cls-57" d="M16.86,25.87C-.68,47.22,43.52,57,47.11,37.58,48.85,28.2,23.8,17.87,16.86,25.87Z"/><path class="cls-58" d="M16.91,25.91C-.55,47.17,43.47,56.87,47,37.57,48.77,28.23,23.83,17.94,16.91,25.91Z"/><path class="cls-59" d="M17,26C-.43,47.12,43.41,56.78,47,37.57,48.69,28.26,23.85,18,17,26Z"/><path class="cls-60" d="M17,26C-.3,47.07,43.36,56.69,46.9,37.56,48.62,28.29,23.88,18.08,17,26Z"/><path class="cls-61" d="M17.08,26C-.18,47,43.3,56.61,46.83,37.55,48.54,28.32,23.9,18.15,17.08,26Z"/><path class="cls-62" d="M17.13,26.07C0,47,43.25,56.52,46.76,37.54,48.47,28.35,23.93,18.23,17.13,26.07Z"/><path class="cls-63" d="M17.18,26.11C.07,46.93,43.2,56.43,46.69,37.53,48.39,28.38,24,18.3,17.18,26.11Z"/><path class="cls-64" d="M17.24,26.15C.2,46.88,43.14,56.34,46.62,37.52,48.31,28.41,24,18.37,17.24,26.15Z"/><path class="cls-65" d="M17.29,26.19c-17,20.65,25.8,30.07,29.27,11.33C48.24,28.44,24,18.44,17.29,26.19Z"/><path class="cls-66" d="M17.34,26.23C.45,46.79,43,56.17,46.49,37.51,48.16,28.47,24,18.51,17.34,26.23Z"/><path class="cls-67" d="M17.4,26.27C.57,46.74,43,56.08,46.42,37.5,48.08,28.5,24.06,18.59,17.4,26.27Z"/><path class="cls-68" d="M17.45,26.31C.7,46.7,42.92,56,46.35,37.49,48,28.53,24.08,18.66,17.45,26.31Z"/><path class="cls-69" d="M17.51,26.35C.82,46.65,42.87,55.91,46.28,37.48,47.93,28.56,24.11,18.73,17.51,26.35Z"/><path class="cls-70" d="M17.56,26.39C1,46.6,42.81,55.82,46.21,37.48,47.86,28.59,24.13,18.8,17.56,26.39Z"/><path class="cls-71" d="M17.61,26.42C1.07,46.55,44.29,56,46.14,37.47,48.51,28.78,24.16,18.87,17.61,26.42Z"/><path class="cls-4" d="M69.1,110.63c-4.27-.41-5.38,4.48-7.68,7.17-17.11,9.69-7.29,30,6.92,37.4C109.14,172.84,111.22,97.64,69.1,110.63Z"/><path class="cls-5" d="M69.13,110.7c-4.26-.41-4.94,4.91-7.66,7.16-15.12,12.46-7.53,30.38,6.89,37.27C108.34,174.22,111.1,97.76,69.13,110.7Z"/><path class="cls-6" d="M69.15,110.78c-4.24-.41-4.92,4.89-7.63,7.13-15.07,12.42-7.51,30.28,6.87,37.15C108.24,174.08,111,97.88,69.15,110.78Z"/><path class="cls-7" d="M69.17,110.86c-4.22-.41-4.9,4.87-7.6,7.1-15,12.38-7.48,30.18,6.85,37C108.13,174,110.86,98,69.17,110.86Z"/><path class="cls-8" d="M69.2,110.93c-4.22-.4-4.89,4.86-7.58,7.08-15,12.34-7.46,30.08,6.82,36.9C108,173.81,110.75,98.12,69.2,110.93Z"/><path class="cls-9" d="M69.22,111c-4.2-.41-4.87,4.84-7.56,7.06-14.91,12.29-7.42,30,6.81,36.77C107.91,173.67,110.63,98.24,69.22,111Z"/><path class="cls-10" d="M69.24,111.09c-4.18-.41-4.85,4.82-7.53,7-14.86,12.25-7.4,29.88,6.78,36.65C107.8,173.54,110.51,98.36,69.24,111.09Z"/><path class="cls-11" d="M69.27,111.16c-4.17-.4-4.84,4.81-7.51,7C47,130.38,54.38,148,68.52,154.7,107.7,173.4,110.39,98.48,69.27,111.16Z"/><path class="cls-12" d="M69.29,111.24c-4.16-.4-4.82,4.79-7.48,7-14.76,12.18-7.35,29.68,6.74,36.4C107.59,173.27,110.28,98.6,69.29,111.24Z"/><path class="cls-13" d="M69.31,111.32c-4.14-.4-4.8,4.77-7.45,7-14.72,12.13-7.33,29.57,6.71,36.27C107.48,173.13,110.16,98.72,69.31,111.32Z"/><path class="cls-14" d="M69.34,111.39c-4.13-.4-4.79,4.76-7.43,6.94-14.67,12.09-7.3,29.47,6.69,36.15C107.37,173,110,98.84,69.34,111.39Z"/><path class="cls-15" d="M69.36,111.47c-4.11-.4-4.77,4.74-7.4,6.91-14.62,12.05-7.28,29.37,6.66,36C107.26,172.86,109.93,99,69.36,111.47Z"/><path class="cls-16" d="M69.38,111.54c-4.1-.39-4.75,4.73-7.37,6.89-14.57,12-7.25,29.27,6.64,35.9C107.16,172.72,109.81,99.08,69.38,111.54Z"/><path class="cls-17" d="M69.41,111.62c-4.09-.39-4.74,4.71-7.35,6.87-14.52,12-7.23,29.16,6.62,35.77C107.05,172.58,109.69,99.2,69.41,111.62Z"/><path class="cls-18" d="M69.43,111.7c-4.07-.4-4.72,4.69-7.33,6.84-14.46,11.92-7.2,29.06,6.6,35.65C106.94,172.45,109.57,99.32,69.43,111.7Z"/><path class="cls-19" d="M69.45,111.77c-4-.39-4.7,4.68-7.3,6.82-14.41,11.88-7.17,29,6.58,35.53C106.83,172.31,109.46,99.44,69.45,111.77Z"/><path class="cls-20" d="M69.48,111.85c-4-.39-4.69,4.66-7.28,6.79-14.36,11.84-7.15,28.86,6.55,35.4C106.72,172.17,109.34,99.56,69.48,111.85Z"/><path class="cls-21" d="M69.5,111.93c-4-.39-4.67,4.64-7.25,6.77-14.31,11.79-7.12,28.75,6.53,35.27C106.62,172,109.22,99.68,69.5,111.93Z"/><path class="cls-22" d="M69.52,112c-4-.39-4.65,4.63-7.22,6.75C48,130.5,55.2,147.4,68.8,153.9,106.51,171.9,109.1,99.8,69.52,112Z"/><path class="cls-23" d="M69.55,112.08c-4-.39-4.64,4.61-7.2,6.72-14.21,11.71-7.08,28.55,6.48,35C106.4,171.76,109,99.92,69.55,112.08Z"/><path class="cls-24" d="M69.57,112.16c-4-.39-4.62,4.59-7.17,6.69-14.16,11.67-7,28.45,6.46,34.9C106.29,171.63,108.87,100,69.57,112.16Z"/><path class="cls-25" d="M69.59,112.23c-4-.38-4.6,4.58-7.14,6.68-14.11,11.62-7,28.34,6.43,34.77C106.18,171.49,108.75,100.16,69.59,112.23Z"/><path class="cls-26" d="M69.62,112.31c-4-.38-4.59,4.56-7.12,6.65-14.06,11.58-7,28.25,6.41,34.65C106.08,171.36,108.64,100.28,69.62,112.31Z"/><path class="cls-27" d="M69.64,112.38c-3.94-.38-4.57,4.55-7.09,6.63-14,11.55-7,28.15,6.38,34.53C106,171.22,108.52,100.39,69.64,112.38Z"/><path class="cls-28" d="M69.66,112.46c-3.93-.38-4.55,4.53-7.07,6.6-14,11.51-6.94,28.05,6.37,34.4C105.86,171.08,108.4,100.51,69.66,112.46Z"/><path class="cls-29" d="M69.69,112.54c-3.92-.38-4.54,4.51-7,6.57-13.9,11.47-6.92,28,6.35,34.28C105.75,171,108.28,100.63,69.69,112.54Z"/><path class="cls-30" d="M69.71,112.61c-3.9-.37-4.52,4.5-7,6.56C48.84,130.59,55.79,147,69,153.32,105.64,170.81,108.17,100.75,69.71,112.61Z"/><path class="cls-31" d="M69.73,112.69c-3.88-.38-4.5,4.48-7,6.53-13.8,11.38-6.87,27.74,6.3,34C105.53,170.67,108.05,100.87,69.73,112.69Z"/><path class="cls-32" d="M69.76,112.77c-3.88-.38-4.49,4.46-7,6.5-13.75,11.34-6.85,27.64,6.27,33.9C105.43,170.54,107.93,101,69.76,112.77Z"/><path class="cls-33" d="M69.78,112.84c-3.86-.37-4.47,4.45-6.94,6.48-13.7,11.3-6.82,27.54,6.25,33.78C105.32,170.4,107.81,101.11,69.78,112.84Z"/><path class="cls-34" d="M69.8,112.92c-3.84-.37-4.45,4.43-6.91,6.46-13.65,11.25-6.8,27.43,6.22,33.65C105.21,170.26,107.7,101.23,69.8,112.92Z"/><path class="cls-35" d="M69.83,113c-3.83-.37-4.44,4.41-6.89,6.43-13.6,11.21-6.77,27.33,6.2,33.53C105.1,170.13,107.58,101.35,69.83,113Z"/><path class="cls-36" d="M69.85,113.07c-3.81-.37-4.42,4.4-6.86,6.41-13.55,11.17-6.75,27.23,6.18,33.4C105,170,107.46,101.47,69.85,113.07Z"/><path class="cls-37" d="M69.87,113.15c-3.8-.37-4.4,4.38-6.83,6.38-13.5,11.13-6.73,27.13,6.15,33.28C104.89,169.86,107.35,101.59,69.87,113.15Z"/><path class="cls-37" d="M69.9,113.22c-3.79-.36-4.39,4.37-6.82,6.37-13.44,11.08-6.69,27,6.14,33.15C104.78,169.72,107.23,101.71,69.9,113.22Z"/><path class="cls-38" d="M69.92,113.3c-3.77-.36-4.37,4.35-6.79,6.34-13.4,11-6.67,26.92,6.11,33C104.67,169.58,107.11,101.83,69.92,113.3Z"/><path class="cls-39" d="M69.94,113.38c-3.75-.37-4.35,4.33-6.76,6.31-13.35,11-6.64,26.82,6.09,32.9C104.56,169.45,107,102,69.94,113.38Z"/><path class="cls-40" d="M70,113.45c-3.75-.36-4.34,4.32-6.74,6.29-13.3,11-6.62,26.72,6.07,32.78C104.45,169.31,106.88,102.07,70,113.45Z"/><path class="cls-41" d="M70,113.53c-3.73-.36-4.32,4.3-6.71,6.27-13.25,10.92-6.6,26.62,6,32.65C104.35,169.17,106.76,102.19,70,113.53Z"/><path class="cls-42" d="M70,113.61c-3.71-.36-4.3,4.28-6.68,6.24-13.2,10.88-6.57,26.52,6,32.53C104.24,169,106.64,102.31,70,113.61Z"/><path class="cls-43" d="M70,113.68c-3.7-.35-4.29,4.27-6.66,6.22-13.15,10.84-6.55,26.42,6,32.4C104.13,168.9,106.52,102.43,70,113.68Z"/><path class="cls-44" d="M70.06,113.76c-3.69-.36-4.27,4.25-6.63,6.19-13.1,10.8-6.52,26.32,6,32.28C104,168.76,106.41,102.55,70.06,113.76Z"/><path class="cls-45" d="M70.08,113.84c-3.67-.36-4.25,4.23-6.6,6.17-13,10.75-6.5,26.21,6,32.15C103.91,168.63,106.29,102.67,70.08,113.84Z"/><path class="cls-46" d="M70.11,113.91c-3.66-.35-4.24,4.22-6.59,6.15-13,10.71-6.46,26.11,5.93,32C103.81,168.49,106.17,102.79,70.11,113.91Z"/><path class="cls-47" d="M70.13,114c-3.64-.35-4.22,4.2-6.56,6.12-12.94,10.67-6.44,26,5.91,31.9C103.7,168.35,106.05,102.91,70.13,114Z"/><path class="cls-48" d="M70.15,114.06c-3.63-.35-4.2,4.19-6.53,6.1-12.89,10.63-6.42,25.91,5.88,31.78C103.59,168.22,105.94,103,70.15,114.06Z"/><path class="cls-49" d="M70.18,114.14c-3.62-.35-4.19,4.17-6.51,6.08-12.84,10.58-6.39,25.8,5.86,31.65C103.48,168.08,105.82,103.15,70.18,114.14Z"/><path class="cls-50" d="M70.2,114.22c-3.6-.35-4.17,4.15-6.48,6-12.79,10.54-6.37,25.7,5.83,31.53C103.37,168,105.7,103.27,70.2,114.22Z"/><path class="cls-51" d="M70.22,114.29c-3.58-.34-4.15,4.14-6.45,6-12.74,10.5-6.34,25.6,5.81,31.41C103.27,167.81,105.59,103.39,70.22,114.29Z"/><path class="cls-52" d="M70.25,114.37c-3.58-.34-4.14,4.12-6.43,6-12.69,10.46-6.32,25.5,5.79,31.28C103.16,167.67,105.47,103.51,70.25,114.37Z"/><path class="cls-53" d="M70.27,114.45c-3.56-.35-4.12,4.1-6.4,6-12.64,10.41-6.3,25.39,5.76,31.15C103.05,167.54,105.35,103.63,70.27,114.45Z"/><path class="cls-54" d="M70.29,114.52c-3.54-.34-4.1,4.09-6.37,6-12.59,10.37-6.27,25.29,5.74,31C102.94,167.4,105.23,103.75,70.29,114.52Z"/><path class="cls-55" d="M70.32,114.6c-3.53-.34-4.09,4.07-6.35,5.93-12.54,10.33-6.25,25.19,5.71,30.91C102.83,167.26,105.12,103.87,70.32,114.6Z"/><path class="cls-56" d="M70.34,114.68c-3.52-.34-4.08,4-6.33,5.9-12.48,10.3-6.21,25.09,5.7,30.78C102.73,167.13,105,104,70.34,114.68Z"/><path class="cls-57" d="M70.36,114.75c-3.5-.34-4.06,4-6.3,5.88-12.43,10.26-6.19,25,5.68,30.66C102.62,167,104.88,104.11,70.36,114.75Z"/><path class="cls-58" d="M70.39,114.83c-3.49-.34-4,4-6.28,5.86C51.73,130.9,58,145.58,69.76,151.22,102.51,166.85,104.76,104.23,70.39,114.83Z"/><path class="cls-59" d="M70.41,114.91c-3.47-.34-4,4-6.25,5.83-12.33,10.17-6.14,24.79,5.63,30.41C102.4,166.72,104.65,104.35,70.41,114.91Z"/><path class="cls-60" d="M70.43,115c-3.46-.33-4,4-6.22,5.81-12.28,10.13-6.12,24.69,5.6,30.28C102.29,166.58,104.53,104.47,70.43,115Z"/><path class="cls-61" d="M70.46,115.06c-3.45-.33-4,4-6.2,5.78C52,130.93,58.17,145.43,69.84,151,102.18,166.45,104.41,104.59,70.46,115.06Z"/><path class="cls-62" d="M70.48,115.13c-3.43-.33-4,4-6.17,5.77-12.18,10-6.07,24.48,5.55,30C102.08,166.31,104.3,104.71,70.48,115.13Z"/><path class="cls-63" d="M70.5,115.21c-3.41-.33-4,3.94-6.14,5.74-12.14,10-6,24.38,5.53,29.91C102,166.17,104.18,104.83,70.5,115.21Z"/><path class="cls-64" d="M70.53,115.29c-3.41-.33-4,3.92-6.12,5.71-12.09,10-6,24.28,5.51,29.78C101.86,166,104.06,104.94,70.53,115.29Z"/><path class="cls-65" d="M70.55,115.36c-3.39-.32-3.93,3.91-6.09,5.69-12,9.92-6,24.18,5.48,29.66C101.75,165.9,103.94,105.06,70.55,115.36Z"/><path class="cls-66" d="M70.57,115.44c-3.37-.33-3.91,3.89-6.07,5.67-12,9.87-6,24.07,5.47,29.53C101.64,165.76,103.83,105.18,70.57,115.44Z"/><path class="cls-67" d="M70.6,115.52c-3.36-.33-3.9,3.87-6,5.64-11.93,9.83-5.94,24,5.44,29.41C101.54,165.63,103.71,105.3,70.6,115.52Z"/><path class="cls-68" d="M70.62,115.59c-3.35-.32-3.88,3.86-6,5.62C52.72,131,58.69,145.08,70,150.49,101.43,165.49,103.59,105.42,70.62,115.59Z"/><path class="cls-69" d="M70.64,115.67c-3.33-.32-3.86,3.84-6,5.59C52.82,131,58.76,145,70.05,150.42,101.32,165.35,103.47,105.54,70.64,115.67Z"/><path class="cls-70" d="M70.67,115.75c-3.32-.33-3.85,3.82-6,5.57-11.78,9.7-5.86,23.66,5.37,29C101.21,165.22,103.36,105.66,70.67,115.75Z"/><path class="cls-71" d="M70.69,115.82c-3.3-.32-4.16,3.47-5.94,5.55-13.23,7.48-5.63,23.15,5.35,28.91C101.64,163.91,103.24,105.78,70.69,115.82Z"/><path class="cls-4" d="M24.14,109.16c-28.77,7.49-24.35,65.73,10.21,46.07C48,145,41.45,113.11,24.14,109.16Z"/><path class="cls-5" d="M24.13,109.24c-28.67,7.47-22.94,67.68,10.18,45.93C48.5,145.85,41.39,113.17,24.13,109.24Z"/><path class="cls-6" d="M24.13,109.32c-28.58,7.44-22.87,67.47,10.15,45.78C48.42,145.81,41.33,113.24,24.13,109.32Z"/><path class="cls-7" d="M24.13,109.4c-28.5,7.42-22.8,67.25,10.12,45.63C48.34,145.78,41.28,113.31,24.13,109.4Z"/><path class="cls-8" d="M24.13,109.48c-28.41,7.39-22.73,67,10.08,45.49C48.26,145.74,41.22,113.37,24.13,109.48Z"/><path class="cls-9" d="M24.13,109.56c-28.32,7.37-22.66,66.82,10.05,45.34C48.18,145.7,41.16,113.44,24.13,109.56Z"/><path class="cls-10" d="M24.12,109.64c-28.22,7.35-22.58,66.61,10,45.2C48.1,145.67,41.11,113.51,24.12,109.64Z"/><path class="cls-11" d="M24.12,109.72C-4,117,1.61,176.11,34.11,154.77,48,145.63,41.05,113.57,24.12,109.72Z"/><path class="cls-12" d="M24.12,109.8c-28,7.3-22.44,66.17,10,44.9C47.94,145.59,41,113.64,24.12,109.8Z"/><path class="cls-13" d="M24.12,109.88c-27.95,7.27-22.37,66,9.92,44.76C47.87,145.56,40.94,113.71,24.12,109.88Z"/><path class="cls-14" d="M24.11,110C-3.75,117.21,1.82,175.7,34,154.57,47.79,145.52,40.88,113.77,24.11,110Z"/><path class="cls-15" d="M24.11,110C-3.66,117.26,1.89,175.57,34,154.5,47.71,145.48,40.82,113.84,24.11,110Z"/><path class="cls-16" d="M24.11,110.11C-3.57,117.32,2,175.43,33.93,154.44,47.63,145.45,40.76,113.91,24.11,110.11Z"/><path class="cls-17" d="M24.11,110.19C-3.48,117.37,2,175.3,33.9,154.37,47.55,145.41,40.71,114,24.11,110.19Z"/><path class="cls-18" d="M24.11,110.27c-27.5,7.16-22,64.89,9.76,44C47.47,145.37,40.65,114,24.11,110.27Z"/><path class="cls-19" d="M24.1,110.35C-3.3,117.48,2.17,175,33.83,154.24,47.39,145.34,40.59,114.11,24.1,110.35Z"/><path class="cls-20" d="M24.1,110.43c-27.31,7.11-21.86,64.46,9.7,43.74C47.31,145.3,40.54,114.17,24.1,110.43Z"/><path class="cls-21" d="M24.1,110.51c-27.23,7.09-21.79,64.25,9.66,43.6C47.23,145.26,40.48,114.24,24.1,110.51Z"/><path class="cls-22" d="M24.1,110.59C-3,117.65,2.38,174.62,33.73,154,47.15,145.23,40.42,114.31,24.1,110.59Z"/><path class="cls-23" d="M24.09,110.67c-27,7-21.63,63.82,9.6,43.3C47.07,145.19,40.37,114.37,24.09,110.67Z"/><path class="cls-24" d="M24.09,110.75c-26.95,7-21.56,63.6,9.57,43.16C47,145.15,40.31,114.44,24.09,110.75Z"/><path class="cls-25" d="M24.09,110.83c-26.86,7-21.49,63.39,9.53,43C46.91,145.11,40.25,114.51,24.09,110.83Z"/><path class="cls-26" d="M24.09,110.9c-26.77,7-21.42,63.18,9.5,42.87C46.83,145.08,40.2,114.57,24.09,110.9Z"/><path class="cls-27" d="M24.09,111c-26.68,7-21.35,63,9.47,42.73C46.75,145,40.14,114.64,24.09,111Z"/><path class="cls-28" d="M24.08,111.06C-2.51,118,2.81,173.81,33.52,153.64,46.67,145,40.08,114.71,24.08,111.06Z"/><path class="cls-29" d="M24.08,111.14c-26.5,6.9-21.2,62.54,9.41,42.44C46.59,145,40,114.77,24.08,111.14Z"/><path class="cls-30" d="M24.08,111.22C-2.33,118.09,3,173.54,33.45,153.51,46.51,144.93,40,114.84,24.08,111.22Z"/><path class="cls-31" d="M24.08,111.3C-2.24,118.15,3,173.41,33.42,153.44,46.44,144.89,39.91,114.91,24.08,111.3Z"/><path class="cls-32" d="M24.07,111.38c-26.22,6.82-21,61.89,9.31,42C46.36,144.86,39.85,115,24.07,111.38Z"/><path class="cls-33" d="M24.07,111.46c-26.13,6.8-20.91,61.67,9.28,41.85C46.28,144.82,39.8,115,24.07,111.46Z"/><path class="cls-34" d="M24.07,111.54c-26,6.78-20.84,61.46,9.24,41.7C46.2,144.78,39.74,115.11,24.07,111.54Z"/><path class="cls-35" d="M24.07,111.62c-26,6.75-20.77,61.24,9.21,41.56C46.12,144.75,39.68,115.17,24.07,111.62Z"/><path class="cls-36" d="M24.06,111.69c-25.86,6.74-20.69,61,9.18,41.42C46,144.71,39.63,115.24,24.06,111.69Z"/><path class="cls-37" d="M24.06,111.77C-1.71,118.48,3.44,172.59,33.21,153,46,144.67,39.57,115.31,24.06,111.77Z"/><path class="cls-37" d="M24.06,111.85C-1.62,118.54,3.51,172.46,33.18,153,45.88,144.64,39.51,115.37,24.06,111.85Z"/><path class="cls-38" d="M24.06,111.93c-25.59,6.66-20.48,60.39,9.08,41C45.8,144.6,39.46,115.44,24.06,111.93Z"/><path class="cls-39" d="M24.06,112c-25.5,6.64-20.41,60.18,9.05,40.84C45.72,144.56,39.4,115.51,24.06,112Z"/><path class="cls-40" d="M24.05,112.09c-25.41,6.61-20.33,60,9,40.69C45.64,144.52,39.34,115.57,24.05,112.09Z"/><path class="cls-41" d="M24.05,112.17c-25.32,6.59-20.26,59.75,9,40.54C45.56,144.49,39.29,115.64,24.05,112.17Z"/><path class="cls-42" d="M24.05,112.25c-25.23,6.56-20.19,59.53,9,40.4C45.48,144.45,39.23,115.71,24.05,112.25Z"/><path class="cls-43" d="M24.05,112.33C-1.09,118.87,3.93,171.65,33,152.58,45.4,144.41,39.17,115.77,24.05,112.33Z"/><path class="cls-44" d="M24,112.41c-25,6.52-20,59.1,8.89,40.1C45.32,144.38,39.11,115.84,24,112.41Z"/><path class="cls-45" d="M24,112.49c-24.95,6.49-20,58.89,8.86,40C45.24,144.34,39.06,115.91,24,112.49Z"/><path class="cls-46" d="M24,112.56C-.82,119,4.14,171.24,32.87,152.38,45.16,144.3,39,116,24,112.56Z"/><path class="cls-47" d="M24,112.64c-24.78,6.45-19.82,58.47,8.79,39.67C45.09,144.27,38.94,116,24,112.64Z"/><path class="cls-48" d="M24,112.72C-.65,119.15,4.29,171,32.8,152.25,45,144.23,38.89,116.11,24,112.72Z"/><path class="cls-49" d="M24,112.8c-24.59,6.4-19.67,58,8.73,39.38C44.93,144.19,38.83,116.17,24,112.8Z"/><path class="cls-50" d="M24,112.88c-24.5,6.38-19.6,57.82,8.7,39.24C44.85,144.16,38.77,116.24,24,112.88Z"/><path class="cls-51" d="M24,113c-24.41,6.35-19.53,57.61,8.66,39.09C44.77,144.12,38.72,116.31,24,113Z"/><path class="cls-52" d="M24,113C-.29,119.37,4.57,170.43,32.66,152,44.69,144.08,38.66,116.37,24,113Z"/><path class="cls-53" d="M24,113.12c-24.22,6.3-19.38,57.17,8.6,38.8C44.61,144.05,38.6,116.44,24,113.12Z"/><path class="cls-54" d="M24,113.2c-24.14,6.28-19.31,57,8.57,38.65C44.53,144,38.55,116.51,24,113.2Z"/><path class="cls-55" d="M24,113.28C0,119.54,4.78,170,32.55,151.78,44.45,144,38.49,116.57,24,113.28Z"/><path class="cls-56" d="M24,113.36c-24,6.23-19.17,56.53,8.5,38.36C44.37,143.94,38.43,116.64,24,113.36Z"/><path class="cls-57" d="M24,113.43c-23.86,6.22-19.09,56.32,8.48,38.22C44.29,143.9,38.37,116.71,24,113.43Z"/><path class="cls-58" d="M24,113.51C.24,119.7,5,169.62,32.45,151.58,44.21,143.86,38.32,116.77,24,113.51Z"/><path class="cls-59" d="M24,113.59c-23.68,6.17-19,55.89,8.41,37.93C44.13,143.82,38.26,116.84,24,113.59Z"/><path class="cls-60" d="M24,113.67c-23.59,6.14-18.88,55.68,8.37,37.78C44.05,143.79,38.2,116.91,24,113.67Z"/><path class="cls-61" d="M24,113.75C.5,119.87,5.2,169.21,32.35,151.39,44,143.75,38.15,117,24,113.75Z"/><path class="cls-62" d="M24,113.83c-23.41,6.09-18.73,55.25,8.31,37.49C43.89,143.71,38.09,117,24,113.83Z"/><path class="cls-63" d="M24,113.91c-23.32,6.07-18.66,55,8.28,37.34C43.81,143.68,38,117.11,24,113.91Z"/><path class="cls-64" d="M24,114c-23.23,6-18.59,54.82,8.24,37.2C43.74,143.64,38,117.17,24,114Z"/><path class="cls-65" d="M24,114.07c-23.14,6-18.52,54.6,8.21,37.05C43.66,143.6,37.92,117.24,24,114.07Z"/><path class="cls-66" d="M24,114.15c-23,6-18.44,54.39,8.19,36.9C43.58,143.57,37.86,117.31,24,114.15Z"/><path class="cls-67" d="M24,114.23C1,120.2,5.62,168.4,32.14,151,43.5,143.53,37.81,117.37,24,114.23Z"/><path class="cls-68" d="M24,114.3c-22.87,6-18.3,54,8.12,36.62C43.42,143.49,37.75,117.44,24,114.3Z"/><path class="cls-69" d="M24,114.38c-22.78,5.93-18.23,53.75,8.08,36.47C43.34,143.46,37.69,117.51,24,114.38Z"/><path class="cls-70" d="M24,114.46C1.3,120.37,5.83,168,32,150.79,43.26,143.42,37.63,117.57,24,114.46Z"/><path class="cls-71" d="M24,114.54c-22.59,5.88-19.12,51.62,8,36.18C42.69,142.68,37.58,117.64,24,114.54Z"/><path class="cls-4" d="M63.4,26.34c-1,27,37.94,37,45.19,8.67C115.79.29,73.14-5.48,63.4,26.34Z"/><path class="cls-5" d="M63.49,26.35c-1,26.86,38.44,37.06,45,8.63C116.46.58,73.2-5.34,63.49,26.35Z"/><path class="cls-6" d="M63.58,26.36c-1,26.75,38.28,36.91,44.84,8.6C116.34.69,73.25-5.21,63.58,26.36Z"/><path class="cls-7" d="M63.67,26.37c-1,26.64,38.13,36.76,44.66,8.56C116.22.8,73.3-5.07,63.67,26.37Z"/><path class="cls-8" d="M63.76,26.38c-.95,26.54,38,36.61,44.48,8.53C116.1.92,73.35-4.94,63.76,26.38Z"/><path class="cls-9" d="M63.85,26.39c-.94,26.43,37.83,36.46,44.3,8.49C116,1,73.41-4.8,63.85,26.39Z"/><path class="cls-10" d="M64,26.4c-1,26.32,37.67,36.31,44.11,8.46C115.86,1.14,73.46-4.66,64,26.4Z"/><path class="cls-11" d="M64,26.41C63.1,52.62,101.55,62.57,108,34.83,115.74,1.25,73.51-4.53,64,26.41Z"/><path class="cls-12" d="M64.13,26.42c-.94,26.11,37.36,36,43.76,8.39C115.62,1.36,73.56-4.39,64.13,26.42Z"/><path class="cls-13" d="M64.22,26.43c-.93,26,37.21,35.87,43.58,8.35C115.5,1.48,73.62-4.26,64.22,26.43Z"/><path class="cls-14" d="M64.31,26.43c-.93,25.9,37.06,35.73,43.4,8.33C115.38,1.59,73.67-4.12,64.31,26.43Z"/><path class="cls-15" d="M64.4,26.44c-.92,25.79,36.91,35.58,43.22,8.29C115.26,1.7,73.72-4,64.4,26.44Z"/><path class="cls-16" d="M64.49,26.45c-.92,25.69,36.75,35.43,43,8.26C115.14,1.81,73.77-3.85,64.49,26.45Z"/><path class="cls-17" d="M64.59,26.46c-.92,25.58,36.59,35.28,42.85,8.22C115,1.93,73.83-3.71,64.59,26.46Z"/><path class="cls-18" d="M64.68,26.47c-.92,25.47,36.44,35.14,42.68,8.19C114.9,2,73.88-3.58,64.68,26.47Z"/><path class="cls-19" d="M64.77,26.48c-.91,25.36,36.29,35,42.5,8.15C114.78,2.15,73.93-3.44,64.77,26.48Z"/><path class="cls-20" d="M64.86,26.49C64,51.74,101,61.33,107.18,34.61,114.66,2.26,74-3.31,64.86,26.49Z"/><path class="cls-21" d="M65,26.5c-.9,25.15,36,34.69,42.14,8.08C114.54,2.38,74-3.17,65,26.5Z"/><path class="cls-22" d="M65,26.51c-.9,25,35.83,34.54,42,8.05C114.42,2.49,74.09-3,65,26.51Z"/><path class="cls-23" d="M65.13,26.52c-.89,24.93,35.68,34.39,41.79,8C114.3,2.6,74.14-2.9,65.13,26.52Z"/><path class="cls-24" d="M65.23,26.53c-.9,24.82,35.52,34.24,41.6,8C114.18,2.71,74.2-2.76,65.23,26.53Z"/><path class="cls-25" d="M65.32,26.54c-.89,24.72,35.37,34.1,41.42,7.94C114.06,2.82,74.25-2.63,65.32,26.54Z"/><path class="cls-26" d="M65.41,26.55c-.89,24.61,35.21,34,41.24,7.91C113.94,2.94,74.3-2.49,65.41,26.55Z"/><path class="cls-27" d="M65.5,26.56c-.88,24.5,35.06,33.8,41.06,7.87C113.82,3.05,74.35-2.35,65.5,26.56Z"/><path class="cls-28" d="M65.59,26.57C64.72,51,100.5,60.22,106.47,34.41,113.7,3.16,74.41-2.22,65.59,26.57Z"/><path class="cls-29" d="M65.68,26.58c-.87,24.28,34.76,33.5,40.71,7.8C113.58,3.27,74.46-2.08,65.68,26.58Z"/><path class="cls-30" d="M65.77,26.59c-.86,24.18,34.61,33.35,40.53,7.77C113.46,3.39,74.51-1.95,65.77,26.59Z"/><path class="cls-31" d="M65.87,26.6c-.87,24.07,34.44,33.21,40.34,7.73C113.34,3.5,74.56-1.81,65.87,26.6Z"/><path class="cls-32" d="M66,26.6c-.86,24,34.29,33.07,40.16,7.71C113.22,3.61,74.62-1.67,66,26.6Z"/><path class="cls-33" d="M66.05,26.61c-.86,23.86,34.14,32.92,40,7.67C113.1,3.72,74.67-1.54,66.05,26.61Z"/><path class="cls-34" d="M66.14,26.62c-.85,23.76,34,32.77,39.8,7.64C113,3.84,74.72-1.4,66.14,26.62Z"/><path class="cls-35" d="M66.23,26.63c-.85,23.65,33.84,32.62,39.63,7.6C112.86,4,74.78-1.27,66.23,26.63Z"/><path class="cls-36" d="M66.32,26.64c-.84,23.54,33.68,32.47,39.45,7.57C112.74,4.06,74.83-1.13,66.32,26.64Z"/><path class="cls-37" d="M66.41,26.65C65.57,50.08,99.94,59,105.68,34.18,112.62,4.17,74.88-1,66.41,26.65Z"/><path class="cls-37" d="M66.51,26.66c-.84,23.32,33.37,32.18,39.08,7.5C112.5,4.28,74.93-.86,66.51,26.66Z"/><path class="cls-38" d="M66.6,26.67c-.84,23.22,33.22,32,38.9,7.46C112.38,4.4,75-.72,66.6,26.67Z"/><path class="cls-39" d="M66.69,26.68c-.83,23.11,33.07,31.88,38.72,7.43C112.26,4.51,75-.59,66.69,26.68Z"/><path class="cls-40" d="M66.78,26.69c-.83,23,32.91,31.73,38.55,7.39C112.14,4.62,75.09-.45,66.78,26.69Z"/><path class="cls-41" d="M66.87,26.7c-.82,22.89,32.76,31.58,38.37,7.36C112,4.73,75.14-.31,66.87,26.7Z"/><path class="cls-42" d="M67,26.71C66.14,49.5,99.57,58.14,105.15,34,111.9,4.85,75.2-.18,67,26.71Z"/><path class="cls-43" d="M67.05,26.72C66.24,49.4,99.51,58,105.06,34,111.78,5,75.25,0,67.05,26.72Z"/><path class="cls-44" d="M67.14,26.73C66.33,49.3,99.45,57.87,105,34,111.66,5.07,75.3.09,67.14,26.73Z"/><path class="cls-45" d="M67.24,26.74c-.81,22.46,32.14,31,37.65,7.22C111.54,5.18,75.35.23,67.24,26.74Z"/><path class="cls-46" d="M67.33,26.75c-.8,22.36,32,30.84,37.47,7.18C111.42,5.3,75.41.37,67.33,26.75Z"/><path class="cls-47" d="M67.42,26.76c-.8,22.25,31.84,30.69,37.29,7.15C111.3,5.41,75.46.5,67.42,26.76Z"/><path class="cls-48" d="M67.51,26.77c-.79,22.14,31.69,30.54,37.11,7.11C111.18,5.52,75.51.64,67.51,26.77Z"/><path class="cls-49" d="M67.6,26.78c-.79,22,31.54,30.4,36.93,7.08C111.06,5.63,75.57.77,67.6,26.78Z"/><path class="cls-50" d="M67.69,26.78c-.78,21.93,31.38,30.26,36.75,7C110.94,5.74,75.62.91,67.69,26.78Z"/><path class="cls-51" d="M67.78,26.79C67,48.62,99,56.9,104.36,33.81,110.82,5.86,75.67,1.05,67.78,26.79Z"/><path class="cls-52" d="M67.88,26.8c-.78,21.72,31.07,30,36.39,7C110.7,6,75.72,1.18,67.88,26.8Z"/><path class="cls-53" d="M68,26.81c-.78,21.61,30.92,29.81,36.21,7C110.58,6.08,75.78,1.32,68,26.81Z"/><path class="cls-54" d="M68.06,26.82c-.77,21.5,30.77,29.66,36,6.91C110.46,6.19,75.83,1.45,68.06,26.82Z"/><path class="cls-55" d="M68.15,26.83c-.77,21.4,30.61,29.52,35.85,6.88C110.34,6.31,75.88,1.59,68.15,26.83Z"/><path class="cls-56" d="M68.24,26.84c-.76,21.29,30.46,29.37,35.67,6.84C110.22,6.42,75.93,1.72,68.24,26.84Z"/><path class="cls-57" d="M68.33,26.85c-.76,21.18,30.31,29.22,35.5,6.81C110.1,6.53,76,1.86,68.33,26.85Z"/><path class="cls-58" d="M68.42,26.86c-.75,21.07,30.16,29.07,35.32,6.77C110,6.64,76,2,68.42,26.86Z"/><path class="cls-59" d="M68.52,26.87c-.76,21,30,28.92,35.13,6.74C109.86,6.76,76.09,2.13,68.52,26.87Z"/><path class="cls-60" d="M68.61,26.88c-.75,20.86,29.84,28.77,35,6.7C109.74,6.87,76.15,2.27,68.61,26.88Z"/><path class="cls-61" d="M68.7,26.89C68,47.64,98.39,55.51,103.47,33.56,109.62,7,76.2,2.4,68.7,26.89Z"/><path class="cls-62" d="M68.79,26.9c-.74,20.64,29.54,28.48,34.6,6.63C109.5,7.09,76.25,2.54,68.79,26.9Z"/><path class="cls-63" d="M68.88,26.91c-.74,20.53,29.39,28.33,34.42,6.6C109.38,7.2,76.3,2.68,68.88,26.91Z"/><path class="cls-64" d="M69,26.92c-.73,20.43,29.24,28.18,34.24,6.56C109.26,7.32,76.36,2.81,69,26.92Z"/><path class="cls-65" d="M69.06,26.93c-.73,20.32,29.08,28,34.06,6.53C109.14,7.43,76.41,3,69.06,26.93Z"/><path class="cls-66" d="M69.16,26.94C68.43,47.15,98.08,54.82,103,33.43,109,7.54,76.46,3.08,69.16,26.94Z"/><path class="cls-67" d="M69.25,27c-.72,20.1,28.77,27.73,33.69,6.46C108.9,7.65,76.51,3.22,69.25,27Z"/><path class="cls-68" d="M69.34,27C68.62,47,98,54.55,102.86,33.38,108.78,7.77,76.57,3.36,69.34,27Z"/><path class="cls-69" d="M69.43,27c-.71,19.9,28.47,27.45,33.34,6.4C108.66,7.88,76.62,3.49,69.43,27Z"/><path class="cls-70" d="M69.52,27c-.71,19.79,28.31,27.3,33.16,6.36C108.54,8,76.67,3.63,69.52,27Z"/><path class="cls-71" d="M69.61,27c-.7,19.68,27.69,27,33,6.33C107.84,8,76.72,3.76,69.61,27Z"/><path class="cls-4" d="M177.12,104.3c-1,27,37.93,37.05,45.19,8.67C229.51,78.25,186.86,72.48,177.12,104.3Z"/><path class="cls-5" d="M177.21,104.31c-1,26.86,38.44,37.06,45,8.64C230.18,78.54,186.91,72.62,177.21,104.31Z"/><path class="cls-6" d="M177.3,104.32c-1,26.76,38.28,36.91,44.83,8.6C230.06,78.65,187,72.75,177.3,104.32Z"/><path class="cls-7" d="M177.39,104.33c-1,26.65,38.13,36.76,44.66,8.57C229.94,78.77,187,72.89,177.39,104.33Z"/><path class="cls-8" d="M177.48,104.34c-.95,26.54,38,36.61,44.48,8.53C229.82,78.88,187.07,73,177.48,104.34Z"/><path class="cls-9" d="M177.57,104.35c-.95,26.43,37.83,36.46,44.3,8.5C229.7,79,187.12,73.16,177.57,104.35Z"/><path class="cls-10" d="M177.66,104.36c-.94,26.32,37.68,36.32,44.12,8.46C229.58,79.1,187.18,73.3,177.66,104.36Z"/><path class="cls-11" d="M177.76,104.37c-.95,26.22,37.51,36.17,43.93,8.43C229.46,79.21,187.23,73.43,177.76,104.37Z"/><path class="cls-12" d="M177.85,104.38c-.94,26.11,37.36,36,43.75,8.39C229.34,79.33,187.28,73.57,177.85,104.38Z"/><path class="cls-13" d="M177.94,104.39c-.93,26,37.21,35.87,43.58,8.36C229.22,79.44,187.34,73.71,177.94,104.39Z"/><path class="cls-14" d="M178,104.4c-.93,25.89,37.06,35.72,43.4,8.32C229.1,79.55,187.39,73.84,178,104.4Z"/><path class="cls-15" d="M178.12,104.41C177.2,130.2,215,140,221.34,112.7,229,79.66,187.44,74,178.12,104.41Z"/><path class="cls-16" d="M178.21,104.42c-.92,25.68,36.75,35.42,43,8.25C228.86,79.78,187.49,74.11,178.21,104.42Z"/><path class="cls-17" d="M178.3,104.43c-.91,25.57,36.6,35.28,42.86,8.22C228.74,79.89,187.55,74.25,178.3,104.43Z"/><path class="cls-18" d="M178.4,104.44c-.92,25.46,36.44,35.13,42.68,8.18C228.62,80,187.6,74.39,178.4,104.44Z"/><path class="cls-19" d="M178.49,104.44c-.91,25.36,36.29,35,42.5,8.16C228.5,80.11,187.65,74.52,178.49,104.44Z"/><path class="cls-20" d="M178.58,104.45c-.91,25.26,36.14,34.84,42.32,8.12C228.38,80.23,187.7,74.66,178.58,104.45Z"/><path class="cls-21" d="M178.67,104.46c-.9,25.15,36,34.69,42.14,8.09C228.26,80.34,187.76,74.79,178.67,104.46Z"/><path class="cls-22" d="M178.76,104.47c-.9,25,35.83,34.54,42,8C228.14,80.45,187.81,74.93,178.76,104.47Z"/><path class="cls-23" d="M178.85,104.48c-.89,24.93,35.68,34.4,41.78,8C228,80.56,187.86,75.07,178.85,104.48Z"/><path class="cls-24" d="M178.94,104.49c-.89,24.83,35.53,34.25,41.61,8C227.9,80.67,187.92,75.2,178.94,104.49Z"/><path class="cls-25" d="M179,104.5c-.89,24.72,35.37,34.1,41.42,8C227.78,80.79,188,75.34,179,104.5Z"/><path class="cls-26" d="M179.13,104.51c-.89,24.61,35.21,34,41.24,7.91C227.66,80.9,188,75.47,179.13,104.51Z"/><path class="cls-27" d="M179.22,104.52c-.88,24.5,35.06,33.8,41.06,7.88C227.54,81,188.07,75.61,179.22,104.52Z"/><path class="cls-28" d="M179.31,104.53c-.88,24.39,34.91,33.65,40.88,7.84C227.42,81.12,188.13,75.74,179.31,104.53Z"/><path class="cls-29" d="M179.4,104.54c-.87,24.29,34.76,33.51,40.7,7.81C227.3,81.24,188.18,75.88,179.4,104.54Z"/><path class="cls-30" d="M179.49,104.55c-.87,24.18,34.61,33.36,40.53,7.77C227.18,81.35,188.23,76,179.49,104.55Z"/><path class="cls-31" d="M179.58,104.56c-.86,24.07,34.45,33.21,40.35,7.74C227.06,81.46,188.28,76.15,179.58,104.56Z"/><path class="cls-32" d="M179.68,104.57c-.87,24,34.29,33.06,40.16,7.7C226.94,81.57,188.34,76.29,179.68,104.57Z"/><path class="cls-33" d="M179.77,104.58c-.86,23.86,34.14,32.91,40,7.67C226.82,81.69,188.39,76.42,179.77,104.58Z"/><path class="cls-34" d="M179.86,104.59c-.85,23.75,34,32.76,39.8,7.63C226.7,81.8,188.44,76.56,179.86,104.59Z"/><path class="cls-35" d="M180,104.6c-.85,23.64,33.84,32.61,39.62,7.6C226.58,81.91,188.49,76.7,180,104.6Z"/><path class="cls-36" d="M180,104.61c-.84,23.53,33.68,32.47,39.45,7.56C226.46,82,188.55,76.83,180,104.61Z"/><path class="cls-37" d="M180.13,104.61c-.84,23.44,33.53,32.33,39.27,7.54C226.34,82.13,188.6,77,180.13,104.61Z"/><path class="cls-37" d="M180.22,104.62c-.83,23.33,33.38,32.18,39.09,7.5C226.22,82.25,188.65,77.1,180.22,104.62Z"/><path class="cls-38" d="M180.32,104.63c-.84,23.22,33.22,32,38.9,7.47C226.1,82.36,188.71,77.24,180.32,104.63Z"/><path class="cls-39" d="M180.41,104.64c-.83,23.11,33.07,31.88,38.72,7.43C226,82.47,188.76,77.38,180.41,104.64Z"/><path class="cls-40" d="M180.5,104.65c-.83,23,32.91,31.73,38.55,7.4C225.86,82.58,188.81,77.51,180.5,104.65Z"/><path class="cls-41" d="M180.59,104.66c-.82,22.9,32.76,31.59,38.37,7.36C225.74,82.7,188.86,77.65,180.59,104.66Z"/><path class="cls-42" d="M180.68,104.67c-.82,22.79,32.61,31.44,38.19,7.33C225.62,82.81,188.92,77.78,180.68,104.67Z"/><path class="cls-43" d="M180.77,104.68c-.81,22.68,32.46,31.29,38,7.29C225.5,82.92,189,77.92,180.77,104.68Z"/><path class="cls-44" d="M180.86,104.69c-.81,22.57,32.31,31.14,37.83,7.26C225.38,83,189,78.06,180.86,104.69Z"/><path class="cls-45" d="M181,104.7c-.81,22.47,32.14,31,37.64,7.22C225.26,83.15,189.07,78.19,181,104.7Z"/><path class="cls-46" d="M181.05,104.71c-.81,22.36,32,30.84,37.47,7.19C225.14,83.26,189.13,78.33,181.05,104.71Z"/><path class="cls-47" d="M181.14,104.72c-.8,22.25,31.84,30.7,37.29,7.15C225,83.37,189.18,78.46,181.14,104.72Z"/><path class="cls-48" d="M181.23,104.73c-.8,22.14,31.69,30.55,37.11,7.12C224.9,83.48,189.23,78.6,181.23,104.73Z"/><path class="cls-49" d="M181.32,104.74c-.79,22,31.54,30.4,36.93,7.08C224.78,83.6,189.28,78.74,181.32,104.74Z"/><path class="cls-50" d="M181.41,104.75c-.79,21.93,31.38,30.25,36.75,7C224.66,83.71,189.34,78.87,181.41,104.75Z"/><path class="cls-51" d="M181.5,104.76c-.78,21.82,31.23,30.1,36.57,7C224.54,83.82,189.39,79,181.5,104.76Z"/><path class="cls-52" d="M181.59,104.77c-.77,21.71,31.08,30,36.4,7C224.42,83.93,189.44,79.14,181.59,104.77Z"/><path class="cls-53" d="M181.69,104.78c-.78,21.6,30.92,29.8,36.21,6.94C224.3,84,189.5,79.28,181.69,104.78Z"/><path class="cls-54" d="M181.78,104.79c-.77,21.5,30.77,29.66,36,6.91C224.18,84.16,189.55,79.42,181.78,104.79Z"/><path class="cls-55" d="M181.87,104.79c-.77,21.4,30.61,29.52,35.85,6.88C224.06,84.27,189.6,79.55,181.87,104.79Z"/><path class="cls-56" d="M182,104.8c-.76,21.29,30.46,29.37,35.67,6.85C223.94,84.38,189.65,79.69,182,104.8Z"/><path class="cls-57" d="M182.05,104.81c-.76,21.18,30.31,29.22,35.5,6.81C223.82,84.49,189.71,79.82,182.05,104.81Z"/><path class="cls-58" d="M182.14,104.82c-.75,21.08,30.16,29.07,35.32,6.78C223.7,84.61,189.76,80,182.14,104.82Z"/><path class="cls-59" d="M182.23,104.83c-.75,21,30,28.92,35.14,6.74C223.58,84.72,189.81,80.1,182.23,104.83Z"/><path class="cls-60" d="M182.33,104.84c-.75,20.86,29.84,28.78,34.95,6.71C223.46,84.83,189.86,80.23,182.33,104.84Z"/><path class="cls-61" d="M182.42,104.85c-.75,20.75,29.69,28.63,34.77,6.67C223.34,84.94,189.92,80.37,182.42,104.85Z"/><path class="cls-62" d="M182.51,104.86c-.74,20.64,29.54,28.48,34.59,6.64C223.22,85.06,190,80.5,182.51,104.86Z"/><path class="cls-63" d="M182.6,104.87c-.74,20.54,29.39,28.33,34.42,6.6C223.1,85.17,190,80.64,182.6,104.87Z"/><path class="cls-64" d="M182.69,104.88c-.73,20.43,29.24,28.18,34.24,6.57C223,85.28,190.07,80.78,182.69,104.88Z"/><path class="cls-65" d="M182.78,104.89c-.73,20.32,29.08,28,34.06,6.53C222.86,85.39,190.13,80.91,182.78,104.89Z"/><path class="cls-66" d="M182.87,104.9c-.72,20.21,28.93,27.89,33.88,6.5C222.74,85.5,190.18,81.05,182.87,104.9Z"/><path class="cls-67" d="M183,104.91c-.73,20.11,28.77,27.74,33.69,6.46C222.62,85.62,190.23,81.18,183,104.91Z"/><path class="cls-68" d="M183.06,104.92c-.72,20,28.62,27.59,33.51,6.43C222.5,85.73,190.29,81.32,183.06,104.92Z"/><path class="cls-69" d="M183.15,104.93c-.72,19.89,28.47,27.44,33.34,6.39C222.38,85.84,190.34,81.45,183.15,104.93Z"/><path class="cls-70" d="M183.24,104.94c-.71,19.78,28.31,27.29,33.16,6.36C222.26,86,190.39,81.59,183.24,104.94Z"/><path class="cls-71" d="M183.33,105c-.7,19.67,27.69,27,33,6.32C221.56,85.94,190.44,81.73,183.33,105Z"/><path class="cls-4" d="M71.44,186.72c-1,27,37.94,37.05,45.19,8.67C123.83,160.68,81.18,154.9,71.44,186.72Z"/><path class="cls-5" d="M71.53,186.73c-1,26.86,38.44,37.06,45,8.64C124.51,161,81.24,155,71.53,186.73Z"/><path class="cls-6" d="M71.62,186.74c-1,26.76,38.29,36.91,44.84,8.6C124.39,161.07,81.29,155.18,71.62,186.74Z"/><path class="cls-7" d="M71.71,186.75c-.95,26.65,38.13,36.76,44.66,8.57C124.27,161.19,81.34,155.31,71.71,186.75Z"/><path class="cls-8" d="M71.8,186.76c-1,26.54,38,36.61,44.48,8.53C124.15,161.3,81.4,155.45,71.8,186.76Z"/><path class="cls-9" d="M71.9,186.77c-1,26.43,37.82,36.47,44.29,8.5C124,161.41,81.45,155.58,71.9,186.77Z"/><path class="cls-10" d="M72,186.78c-.95,26.33,37.67,36.32,44.11,8.46C123.91,161.52,81.5,155.72,72,186.78Z"/><path class="cls-11" d="M72.08,186.79C71.14,213,109.6,223,116,195.22,123.79,161.64,81.55,155.86,72.08,186.79Z"/><path class="cls-12" d="M72.17,186.8c-.94,26.11,37.36,36,43.76,8.39C123.67,161.75,81.61,156,72.17,186.8Z"/><path class="cls-13" d="M72.26,186.81c-.93,26,37.21,35.87,43.58,8.36C123.55,161.86,81.66,156.13,72.26,186.81Z"/><path class="cls-14" d="M72.35,186.82c-.93,25.89,37.06,35.72,43.4,8.32C123.43,162,81.71,156.26,72.35,186.82Z"/><path class="cls-15" d="M72.44,186.83c-.92,25.79,36.91,35.58,43.22,8.29C123.31,162.09,81.76,156.4,72.44,186.83Z"/><path class="cls-16" d="M72.54,186.84c-.93,25.68,36.75,35.43,43,8.25C123.19,162.2,81.82,156.54,72.54,186.84Z"/><path class="cls-17" d="M72.63,186.85c-.92,25.57,36.59,35.28,42.86,8.22C123.07,162.31,81.87,156.67,72.63,186.85Z"/><path class="cls-18" d="M72.72,186.86C71.8,212.32,109.16,222,115.4,195,123,162.42,81.92,156.81,72.72,186.86Z"/><path class="cls-19" d="M72.81,186.87c-.91,25.36,36.29,35,42.5,8.15C122.83,162.53,82,156.94,72.81,186.87Z"/><path class="cls-20" d="M72.9,186.88C72,212.13,109,221.71,115.22,195,122.71,162.65,82,157.08,72.9,186.88Z"/><path class="cls-21" d="M73,186.89c-.9,25.14,36,34.68,42.14,8.08C122.59,162.76,82.08,157.21,73,186.89Z"/><path class="cls-22" d="M73.08,186.89c-.89,25,35.83,34.55,42,8.05C122.47,162.87,82.13,157.35,73.08,186.89Z"/><path class="cls-23" d="M73.18,186.9c-.9,24.94,35.67,34.4,41.78,8C122.35,163,82.19,157.49,73.18,186.9Z"/><path class="cls-24" d="M73.27,186.91c-.89,24.83,35.52,34.25,41.6,8C122.23,163.1,82.24,157.62,73.27,186.91Z"/><path class="cls-25" d="M73.36,186.92c-.89,24.72,35.37,34.1,41.42,8C122.11,163.21,82.29,157.76,73.36,186.92Z"/><path class="cls-26" d="M73.45,186.93c-.88,24.61,35.22,33.95,41.24,7.91C122,163.32,82.34,157.89,73.45,186.93Z"/><path class="cls-27" d="M73.54,186.94c-.88,24.5,35.06,33.8,41.06,7.88C121.87,163.43,82.4,158,73.54,186.94Z"/><path class="cls-28" d="M73.63,187c-.87,24.4,34.91,33.66,40.89,7.84C121.75,163.55,82.45,158.17,73.63,187Z"/><path class="cls-29" d="M73.72,187c-.87,24.29,34.76,33.51,40.71,7.81C121.63,163.66,82.5,158.3,73.72,187Z"/><path class="cls-30" d="M73.82,187c-.87,24.18,34.6,33.36,40.52,7.77C121.51,163.77,82.55,158.44,73.82,187Z"/><path class="cls-31" d="M73.91,187c-.87,24.07,34.45,33.21,40.34,7.74C121.39,163.88,82.61,158.57,73.91,187Z"/><path class="cls-32" d="M74,187c-.86,24,34.29,33.06,40.16,7.7C121.27,164,82.66,158.71,74,187Z"/><path class="cls-33" d="M74.09,187c-.86,23.86,34.14,32.91,40,7.67C121.15,164.11,82.71,158.85,74.09,187Z"/><path class="cls-34" d="M74.18,187c-.85,23.75,34,32.76,39.81,7.63C121,164.22,82.76,159,74.18,187Z"/><path class="cls-35" d="M74.27,187c-.85,23.64,33.84,32.62,39.63,7.6C120.91,164.33,82.82,159.12,74.27,187Z"/><path class="cls-36" d="M74.36,187c-.84,23.53,33.69,32.47,39.45,7.56C120.79,164.44,82.87,159.25,74.36,187Z"/><path class="cls-37" d="M74.46,187c-.85,23.43,33.52,32.32,39.26,7.53C120.67,164.56,82.92,159.39,74.46,187Z"/><path class="cls-37" d="M74.55,187.05c-.84,23.32,33.37,32.17,39.08,7.49C120.55,164.67,83,159.53,74.55,187.05Z"/><path class="cls-38" d="M74.64,187.06c-.84,23.21,33.22,32,38.9,7.46C120.43,164.78,83,159.66,74.64,187.06Z"/><path class="cls-39" d="M74.73,187.06c-.83,23.11,33.07,31.88,38.73,7.43C120.31,164.89,83.08,159.8,74.73,187.06Z"/><path class="cls-40" d="M74.82,187.07c-.82,23,32.92,31.74,38.55,7.4C120.19,165,83.13,159.93,74.82,187.07Z"/><path class="cls-41" d="M74.91,187.08c-.82,22.9,32.76,31.59,38.37,7.36C120.07,165.12,83.19,160.07,74.91,187.08Z"/><path class="cls-42" d="M75,187.09c-.81,22.79,32.61,31.44,38.19,7.33C120,165.23,83.24,160.21,75,187.09Z"/><path class="cls-43" d="M75.1,187.1c-.82,22.68,32.45,31.29,38,7.29C119.83,165.34,83.29,160.34,75.1,187.1Z"/><path class="cls-44" d="M75.19,187.11c-.81,22.58,32.3,31.14,37.83,7.26C119.71,165.46,83.34,160.48,75.19,187.11Z"/><path class="cls-45" d="M75.28,187.12c-.81,22.47,32.15,31,37.65,7.22C119.59,165.57,83.4,160.61,75.28,187.12Z"/><path class="cls-46" d="M75.37,187.13c-.8,22.36,32,30.85,37.47,7.19C119.47,165.68,83.45,160.75,75.37,187.13Z"/><path class="cls-47" d="M75.46,187.14c-.8,22.25,31.84,30.7,37.29,7.15C119.35,165.79,83.5,160.89,75.46,187.14Z"/><path class="cls-48" d="M75.55,187.15c-.79,22.14,31.69,30.55,37.11,7.12C119.23,165.9,83.55,161,75.55,187.15Z"/><path class="cls-49" d="M75.64,187.16c-.79,22,31.54,30.4,36.93,7.08C119.11,166,83.61,161.16,75.64,187.16Z"/><path class="cls-50" d="M75.74,187.17c-.79,21.93,31.38,30.25,36.75,7.05C119,166.13,83.66,161.29,75.74,187.17Z"/><path class="cls-51" d="M75.83,187.18c-.79,21.82,31.22,30.1,36.57,7C118.87,166.24,83.71,161.43,75.83,187.18Z"/><path class="cls-52" d="M75.92,187.19c-.78,21.71,31.07,29.95,36.39,7C118.75,166.35,83.77,161.57,75.92,187.19Z"/><path class="cls-53" d="M76,187.2c-.78,21.61,30.92,29.81,36.21,6.94C118.63,166.47,83.82,161.7,76,187.2Z"/><path class="cls-54" d="M76.1,187.21c-.77,21.5,30.77,29.66,36,6.91C118.51,166.58,83.87,161.84,76.1,187.21Z"/><path class="cls-55" d="M76.19,187.22c-.77,21.39,30.62,29.51,35.85,6.87C118.39,166.69,83.92,162,76.19,187.22Z"/><path class="cls-56" d="M76.28,187.23c-.76,21.28,30.46,29.36,35.68,6.84C118.27,166.8,84,162.11,76.28,187.23Z"/><path class="cls-57" d="M76.37,187.24c-.76,21.17,30.31,29.21,35.5,6.8C118.15,166.92,84,162.25,76.37,187.24Z"/><path class="cls-58" d="M76.47,187.24c-.76,21.08,30.15,29.07,35.31,6.78C118,167,84.08,162.38,76.47,187.24Z"/><path class="cls-59" d="M76.56,187.25c-.75,21,30,28.93,35.13,6.74C117.91,167.14,84.13,162.52,76.56,187.25Z"/><path class="cls-60" d="M76.65,187.26C75.9,208.12,106.5,216,111.6,194,117.79,167.25,84.19,162.65,76.65,187.26Z"/><path class="cls-61" d="M76.74,187.27C76,208,106.43,215.9,111.52,193.94,117.67,167.36,84.24,162.79,76.74,187.27Z"/><path class="cls-62" d="M76.83,187.28c-.74,20.65,29.54,28.48,34.6,6.64C117.55,167.48,84.29,162.92,76.83,187.28Z"/><path class="cls-63" d="M76.92,187.29c-.73,20.54,29.39,28.33,34.42,6.6C117.43,167.59,84.34,163.06,76.92,187.29Z"/><path class="cls-64" d="M77,187.3c-.73,20.43,29.24,28.18,34.24,6.57C117.31,167.7,84.4,163.2,77,187.3Z"/><path class="cls-65" d="M77.11,187.31c-.73,20.32,29.08,28,34.05,6.53C117.19,167.81,84.45,163.33,77.11,187.31Z"/><path class="cls-66" d="M77.2,187.32c-.73,20.21,28.92,27.89,33.87,6.5C117.07,167.93,84.5,163.47,77.2,187.32Z"/><path class="cls-67" d="M77.29,187.33c-.72,20.11,28.77,27.74,33.7,6.46C117,168,84.56,163.6,77.29,187.33Z"/><path class="cls-68" d="M77.38,187.34c-.72,20,28.62,27.59,33.52,6.43C116.83,168.15,84.61,163.74,77.38,187.34Z"/><path class="cls-69" d="M77.47,187.35c-.71,19.89,28.47,27.44,33.34,6.39C116.71,168.26,84.66,163.88,77.47,187.35Z"/><path class="cls-70" d="M77.56,187.36c-.71,19.78,28.32,27.29,33.16,6.36C116.59,168.38,84.71,164,77.56,187.36Z"/><path class="cls-71" d="M77.65,187.37c-.7,19.68,27.69,27,33,6.32C115.89,168.36,84.77,164.15,77.65,187.37Z"/></g></g></g></svg>
