<svg xmlns="http://www.w3.org/2000/svg" xmlns:xlink="http://www.w3.org/1999/xlink" viewBox="0 0 239.86 239.86"><defs><style>.cls-1,.cls-13,.cls-8{fill:none;}.cls-2{fill:#d12475;}.cls-3{clip-path:url(#clip-path);}.cls-4{fill:#e6e6e6;}.cls-5{fill:#ebd3d3;}.cls-6{fill:#f79ab0;}.cls-7{fill:#fbf6f6;}.cls-7,.cls-8{stroke:#f9f3f3;stroke-width:0.4px;}.cls-10,.cls-11,.cls-12,.cls-13,.cls-7,.cls-8{stroke-miterlimit:10;}.cls-9{fill:#f9f3f3;}.cls-10{fill:#ea4c45;}.cls-10,.cls-13{stroke:#fff;}.cls-11{stroke:#e04b48;fill:url(#USGS_17_Sandy_Dry_Lake_2);}.cls-12{fill:#f6eded;stroke:#ebd3d3;}</style><clipPath id="clip-path" transform="translate(5.92 5.92)"><circle class="cls-1" cx="114.01" cy="114.01" r="114"/></clipPath><pattern id="USGS_17_Sandy_Dry_Lake_2" data-name="USGS 17 Sandy Dry Lake 2" width="72" height="72" patternTransform="translate(0 -36)" patternUnits="userSpaceOnUse" viewBox="0 0 72 72"><rect class="cls-1" width="72" height="72"/><path class="cls-2" d="M21,3a.23.23,0,0,1-.17-.07.24.24,0,0,1,0-.36.26.26,0,0,1,.35,0,.24.24,0,0,1,.07.18.23.23,0,0,1-.07.17A.22.22,0,0,1,21,3Z"/><path class="cls-2" d="M20,8.25a.31.31,0,0,1-.18-.07.27.27,0,0,1,0-.36.27.27,0,0,1,.36,0,.27.27,0,0,1,0,.36A.24.24,0,0,1,20,8.25Z"/><path class="cls-2" d="M20.25,10.5a.26.26,0,0,1-.17-.07.25.25,0,0,1-.08-.18.29.29,0,0,1,.07-.18.27.27,0,0,1,.36,0,.29.29,0,0,1,.07.18.23.23,0,0,1-.08.18A.24.24,0,0,1,20.25,10.5Z"/><path class="cls-2" d="M18,12.75a.28.28,0,0,1-.17-.07.25.25,0,0,1-.08-.18.29.29,0,0,1,.07-.18.27.27,0,0,1,.36,0,.27.27,0,0,1,0,.36A.29.29,0,0,1,18,12.75Z"/><path class="cls-2" d="M15.25,10.5a.23.23,0,0,1-.17-.07.27.27,0,0,1-.08-.18.29.29,0,0,1,.07-.18.26.26,0,0,1,.36,0,.24.24,0,0,1,.07.18.26.26,0,0,1-.25.25Z"/><path class="cls-2" d="M22.75,20a.23.23,0,0,1-.17-.07.25.25,0,0,1-.08-.18.26.26,0,0,1,.07-.17.25.25,0,0,1,.36,0,.27.27,0,0,1,.07.18.26.26,0,0,1-.07.18A.29.29,0,0,1,22.75,20Z"/><path class="cls-2" d="M15.25,23a.23.23,0,0,1-.17-.07.25.25,0,0,1-.08-.18.28.28,0,0,1,.07-.17.25.25,0,0,1,.36,0,.26.26,0,0,1,.07.18.24.24,0,0,1-.25.25Z"/><path class="cls-2" d="M14,24a.25.25,0,0,1-.18-.08.24.24,0,0,1-.07-.17.29.29,0,0,1,.07-.18.26.26,0,0,1,.36,0,.26.26,0,0,1,.07.18.24.24,0,0,1-.07.18A.29.29,0,0,1,14,24Z"/><path class="cls-2" d="M24,27a.23.23,0,0,1-.17-.07.25.25,0,0,1-.08-.18.24.24,0,0,1,.07-.17.25.25,0,0,1,.36,0,.27.27,0,0,1,.07.18A.24.24,0,0,1,24,27Z"/><path class="cls-2" d="M30.75,25.75a.23.23,0,0,1-.17-.07.24.24,0,0,1,0-.36.26.26,0,0,1,.35,0,.27.27,0,0,1,0,.36A.24.24,0,0,1,30.75,25.75Z"/><path class="cls-2" d="M31.25,23.25a.28.28,0,0,1-.17-.07A.25.25,0,0,1,31,23a.26.26,0,0,1,.07-.17.25.25,0,0,1,.36,0,.27.27,0,0,1,.07.18.24.24,0,0,1-.07.18A.29.29,0,0,1,31.25,23.25Z"/><path class="cls-2" d="M29.25,18.25a.23.23,0,0,1-.17-.07.24.24,0,0,1,0-.36.26.26,0,0,1,.35,0,.24.24,0,0,1,.07.18.29.29,0,0,1-.07.18A.26.26,0,0,1,29.25,18.25Z"/><path class="cls-2" d="M32.25,18.25a.23.23,0,0,1-.17-.07A.25.25,0,0,1,32,18a.29.29,0,0,1,.07-.18.27.27,0,0,1,.36,0,.27.27,0,0,1,0,.36A.24.24,0,0,1,32.25,18.25Z"/><path class="cls-2" d="M32.5,13.75a.26.26,0,0,1-.17-.07.24.24,0,0,1,0-.36.26.26,0,0,1,.35,0,.26.26,0,0,1,.07.18.23.23,0,0,1-.07.17A.25.25,0,0,1,32.5,13.75Z"/><path class="cls-2" d="M31.75,11.75a.23.23,0,0,1-.17-.07.24.24,0,0,1,0-.36.26.26,0,0,1,.35,0,.24.24,0,0,1,.07.18.29.29,0,0,1-.07.18A.24.24,0,0,1,31.75,11.75Z"/><path class="cls-2" d="M29.25,10.75A.24.24,0,0,1,29,10.5a.25.25,0,0,1,.08-.18.26.26,0,0,1,.35,0,.27.27,0,0,1,0,.36A.29.29,0,0,1,29.25,10.75Z"/><path class="cls-2" d="M32.25,7a.23.23,0,0,1-.17-.07A.25.25,0,0,1,32,6.75a.29.29,0,0,1,.07-.18.27.27,0,0,1,.36,0,.24.24,0,0,1,.07.18.29.29,0,0,1-.07.18A.24.24,0,0,1,32.25,7Z"/><path class="cls-2" d="M32,3a.28.28,0,0,1-.17-.07.24.24,0,0,1,0-.36.26.26,0,0,1,.35,0,.27.27,0,0,1,0,.36A.29.29,0,0,1,32,3Z"/><path class="cls-2" d="M29.25,3.25a.23.23,0,0,1-.17-.07.24.24,0,0,1,0-.36.26.26,0,0,1,.35,0A.24.24,0,0,1,29.5,3a.26.26,0,0,1-.25.25Z"/><path class="cls-2" d="M34,1.25a.26.26,0,0,1-.17-.07A.25.25,0,0,1,33.75,1a.23.23,0,0,1,.08-.18.26.26,0,0,1,.35,0,.24.24,0,0,1,.07.18.23.23,0,0,1-.07.17A.25.25,0,0,1,34,1.25Z"/><path class="cls-2" d="M41.5,7a.26.26,0,0,1-.17-.07.24.24,0,0,1,0-.36.25.25,0,0,1,.34,0,.24.24,0,0,1,.08.18.23.23,0,0,1-.07.17A.22.22,0,0,1,41.5,7Z"/><path class="cls-2" d="M45.5,6.75a.23.23,0,0,1-.17-.07.24.24,0,0,1,0-.36.26.26,0,0,1,.35,0,.25.25,0,0,1-.18.43Z"/><path class="cls-2" d="M40.25,10.25a.23.23,0,0,1-.17-.07A.27.27,0,0,1,40,10a.29.29,0,0,1,.07-.18.27.27,0,0,1,.36,0,.24.24,0,0,1,.07.18.26.26,0,0,1-.25.25Z"/><path class="cls-2" d="M45,11.75a.23.23,0,0,1-.17-.07.24.24,0,0,1,0-.36.26.26,0,0,1,.35,0,.29.29,0,0,1,.07.18.24.24,0,0,1-.25.25Z"/><path class="cls-2" d="M45,13.5a.23.23,0,0,1-.17-.07.25.25,0,1,1,.35-.35.21.21,0,0,1,.07.17.24.24,0,0,1-.25.25Z"/><path class="cls-2" d="M47,14.25a.23.23,0,0,1-.17-.07.24.24,0,0,1,0-.36.26.26,0,0,1,.35,0,.27.27,0,0,1,0,.36A.24.24,0,0,1,47,14.25Z"/><path class="cls-2" d="M47,16.25a.26.26,0,0,1-.17-.07.24.24,0,0,1,0-.36.26.26,0,0,1,.35,0,.22.22,0,0,1,.07.17.26.26,0,0,1-.07.18A.29.29,0,0,1,47,16.25Z"/><path class="cls-2" d="M47.25,22.75a.26.26,0,0,1-.17-.07A.23.23,0,0,1,47,22.5a.25.25,0,0,1,.08-.18.27.27,0,0,1,.35,0,.24.24,0,0,1,.07.18.29.29,0,0,1-.07.18A.24.24,0,0,1,47.25,22.75Z"/><path class="cls-2" d="M39,20.75a.23.23,0,0,1-.17-.07.24.24,0,0,1,0-.36.26.26,0,0,1,.35,0,.27.27,0,0,1,0,.36A.24.24,0,0,1,39,20.75Z"/><path class="cls-2" d="M50.25,13.5a.26.26,0,0,1-.17-.07.24.24,0,0,1,0-.36.26.26,0,0,1,.35,0,.27.27,0,0,1,0,.36A.29.29,0,0,1,50.25,13.5Z"/><path class="cls-2" d="M52.25,12a.23.23,0,0,1-.17-.07.24.24,0,0,1,0-.36.26.26,0,0,1,.35,0,.27.27,0,0,1,0,.36A.24.24,0,0,1,52.25,12Z"/><path class="cls-2" d="M54.75,11a.26.26,0,0,1-.17-.07.27.27,0,0,1-.08-.18.25.25,0,0,1,.08-.18.26.26,0,0,1,.35,0,.24.24,0,0,1,.07.18.26.26,0,0,1-.07.18A.29.29,0,0,1,54.75,11Z"/><path class="cls-2" d="M54.75,6.75a.24.24,0,0,1-.17-.07.29.29,0,0,1-.08-.18.28.28,0,0,1,.07-.17.26.26,0,0,1,.36,0A.27.27,0,0,1,55,6.5a.23.23,0,0,1-.07.17A.25.25,0,0,1,54.75,6.75Z"/><path class="cls-2" d="M56.5.75a.26.26,0,0,1-.17-.07A.27.27,0,0,1,56.25.5a.31.31,0,0,1,.07-.18.27.27,0,0,1,.36,0,.27.27,0,0,1,.07.18.23.23,0,0,1-.07.17A.25.25,0,0,1,56.5.75Z"/><path class="cls-2" d="M64,6.5a.26.26,0,0,1-.17-.07.27.27,0,0,1-.08-.18.26.26,0,0,1,.43-.18.27.27,0,0,1,.07.18.23.23,0,0,1-.07.17A.25.25,0,0,1,64,6.5Z"/><path class="cls-2" d="M65,2.5a.26.26,0,0,1-.17-.07.24.24,0,0,1,0-.36.26.26,0,0,1,.35,0,.24.24,0,0,1,.07.18.21.21,0,0,1-.07.17A.22.22,0,0,1,65,2.5Z"/><path class="cls-2" d="M68,3a.26.26,0,0,1-.17-.07.25.25,0,0,1-.08-.18.29.29,0,0,1,.07-.18.27.27,0,0,1,.36,0,.27.27,0,0,1,0,.36A.29.29,0,0,1,68,3Z"/><path class="cls-2" d="M68,10.25a.26.26,0,0,1-.17-.07.25.25,0,0,1-.08-.18.29.29,0,0,1,.07-.18.27.27,0,0,1,.36,0,.27.27,0,0,1,0,.36A.29.29,0,0,1,68,10.25Z"/><path class="cls-2" d="M64.25,12.25a.26.26,0,0,1-.17-.07A.27.27,0,0,1,64,12a.26.26,0,0,1,.07-.17.25.25,0,0,1,.35,0,.23.23,0,0,1,.08.18.26.26,0,0,1-.25.25Z"/><path class="cls-2" d="M65.25,15.75a.24.24,0,0,1-.17-.07.24.24,0,0,1,0-.36.26.26,0,0,1,.35,0,.22.22,0,0,1,.07.17.26.26,0,0,1-.25.25Z"/><path class="cls-2" d="M64,19.75a.26.26,0,0,1-.17-.07.24.24,0,0,1,0-.36.26.26,0,0,1,.35,0,.27.27,0,0,1,0,.36A.29.29,0,0,1,64,19.75Z"/><path class="cls-2" d="M66.25,19.75a.25.25,0,0,1-.18-.08A.24.24,0,0,1,66,19.5a.26.26,0,0,1,.43-.18.26.26,0,0,1,.07.18.24.24,0,0,1-.07.18A.29.29,0,0,1,66.25,19.75Z"/><path class="cls-2" d="M68,21.25a.26.26,0,0,1-.17-.07.27.27,0,0,1-.08-.18.28.28,0,0,1,.07-.17.26.26,0,0,1,.36,0,.27.27,0,0,1,.07.18.23.23,0,0,1-.07.17A.25.25,0,0,1,68,21.25Z"/><path class="cls-2" d="M69.25,20.25a.23.23,0,0,1-.17-.07.24.24,0,0,1,0-.36.26.26,0,0,1,.35,0,.25.25,0,0,1-.18.43Z"/><path class="cls-2" d="M69.5,18a.23.23,0,0,1-.17-.07.24.24,0,0,1,0-.36.26.26,0,0,1,.35,0,.25.25,0,0,1-.18.43Z"/><path class="cls-2" d="M71.25,17.5a.26.26,0,0,1-.17-.07.27.27,0,0,1-.08-.18.28.28,0,0,1,.07-.17.26.26,0,0,1,.36,0,.27.27,0,0,1,.07.18.23.23,0,0,1-.07.17A.25.25,0,0,1,71.25,17.5Z"/><path class="cls-2" d="M8,47a.31.31,0,0,1-.18-.07.34.34,0,0,1-.07-.18.29.29,0,0,1,.07-.18.27.27,0,0,1,.36,0,.24.24,0,0,1,.07.18A.26.26,0,0,1,8,47Z"/><path class="cls-2" d="M7,52.25a.23.23,0,0,1-.17-.07A.25.25,0,0,1,6.75,52a.29.29,0,0,1,.07-.18.27.27,0,0,1,.36,0,.26.26,0,0,1,.07.18.24.24,0,0,1-.25.25Z"/><path class="cls-2" d="M7.25,54.5a.26.26,0,0,1-.17-.07A.25.25,0,0,1,7,54.25a.31.31,0,0,1,.07-.18.27.27,0,0,1,.36,0,.25.25,0,0,1-.18.43Z"/><path class="cls-2" d="M5,56.75a.26.26,0,0,1-.17-.07.25.25,0,0,1-.08-.18.24.24,0,0,1,.07-.17.26.26,0,0,1,.36,0,.24.24,0,0,1,.07.18.29.29,0,0,1-.07.18A.26.26,0,0,1,5,56.75Z"/><path class="cls-2" d="M2.25,54.5a.23.23,0,0,1-.17-.07A.25.25,0,0,1,2,54.25a.26.26,0,0,1,.07-.17.25.25,0,0,1,.43.17.26.26,0,0,1-.07.18A.27.27,0,0,1,2.25,54.5Z"/><path class="cls-2" d="M9.75,64a.23.23,0,0,1-.17-.07.25.25,0,0,1-.08-.18.29.29,0,0,1,.07-.18.27.27,0,0,1,.36,0,.25.25,0,0,1-.18.43Z"/><path class="cls-2" d="M2.25,67a.28.28,0,0,1-.17-.07A.25.25,0,0,1,2,66.75a.29.29,0,0,1,.07-.18.27.27,0,0,1,.36,0,.24.24,0,0,1,.07.18.26.26,0,0,1-.07.18A.27.27,0,0,1,2.25,67Z"/><path class="cls-2" d="M1,68a.31.31,0,0,1-.18-.07.29.29,0,0,1-.07-.18.31.31,0,0,1,.07-.18.27.27,0,0,1,.36,0,.27.27,0,0,1,0,.36A.29.29,0,0,1,1,68Z"/><path class="cls-2" d="M11,71a.23.23,0,0,1-.17-.07.25.25,0,0,1-.08-.18.29.29,0,0,1,.07-.18.27.27,0,0,1,.36,0A.25.25,0,0,1,11,71Z"/><path class="cls-2" d="M17.75,69.75a.23.23,0,0,1-.17-.07.25.25,0,0,1-.08-.18.29.29,0,0,1,.07-.18.27.27,0,0,1,.36,0,.24.24,0,0,1,.07.18.29.29,0,0,1-.07.18A.26.26,0,0,1,17.75,69.75Z"/><path class="cls-2" d="M18.25,67.25a.28.28,0,0,1-.17-.07.25.25,0,0,1,0-.36.27.27,0,0,1,.36,0,.24.24,0,0,1,.07.18.22.22,0,0,1-.07.17A.25.25,0,0,1,18.25,67.25Z"/><path class="cls-2" d="M16.25,62.25a.25.25,0,0,1-.18-.08A.24.24,0,0,1,16,62a.29.29,0,0,1,.07-.18.27.27,0,0,1,.36,0,.27.27,0,0,1,0,.36A.29.29,0,0,1,16.25,62.25Z"/><path class="cls-2" d="M19.25,62.25a.26.26,0,0,1-.17-.07A.25.25,0,0,1,19,62a.29.29,0,0,1,.07-.18.27.27,0,0,1,.36,0,.27.27,0,0,1,.07.18.23.23,0,0,1-.08.18A.24.24,0,0,1,19.25,62.25Z"/><path class="cls-2" d="M19.5,57.75a.23.23,0,0,1-.17-.07.25.25,0,0,1-.08-.18.26.26,0,0,1,.07-.17.25.25,0,0,1,.36,0,.27.27,0,0,1,.07.18.26.26,0,0,1-.07.18A.24.24,0,0,1,19.5,57.75Z"/><path class="cls-2" d="M18.75,55.75a.23.23,0,0,1-.17-.07.24.24,0,0,1,0-.36.26.26,0,0,1,.35,0,.26.26,0,0,1,.07.18.23.23,0,0,1-.07.17A.25.25,0,0,1,18.75,55.75Z"/><path class="cls-2" d="M16.25,54.75a.31.31,0,0,1-.18-.07A.29.29,0,0,1,16,54.5a.28.28,0,0,1,.07-.17.26.26,0,0,1,.36,0,.26.26,0,0,1,.07.18.24.24,0,0,1-.25.25Z"/><path class="cls-2" d="M19.25,51a.26.26,0,0,1-.17-.07.27.27,0,0,1-.08-.18.29.29,0,0,1,.07-.18.27.27,0,0,1,.36,0,.27.27,0,0,1,.07.18.24.24,0,0,1-.07.18A.29.29,0,0,1,19.25,51Z"/><path class="cls-2" d="M19,47a.26.26,0,0,1-.17-.07.27.27,0,0,1-.08-.18.29.29,0,0,1,.07-.18.27.27,0,0,1,.36,0,.29.29,0,0,1,.07.18A.26.26,0,0,1,19,47Z"/><path class="cls-2" d="M16.25,47.25a.29.29,0,0,1-.18-.07A.31.31,0,0,1,16,47a.29.29,0,0,1,.07-.18.27.27,0,0,1,.36,0,.24.24,0,0,1,.07.18.26.26,0,0,1-.07.18A.24.24,0,0,1,16.25,47.25Z"/><path class="cls-2" d="M21,45.25a.23.23,0,0,1-.17-.07.24.24,0,0,1,0-.36.26.26,0,0,1,.35,0,.26.26,0,0,1,.07.18.23.23,0,0,1-.07.17A.22.22,0,0,1,21,45.25Z"/><path class="cls-2" d="M28.5,51a.26.26,0,0,1-.17-.07.24.24,0,0,1,0-.36.26.26,0,0,1,.35,0,.27.27,0,0,1,.07.18.26.26,0,0,1-.07.18A.29.29,0,0,1,28.5,51Z"/><path class="cls-2" d="M32.5,50.75a.26.26,0,0,1-.17-.07.24.24,0,0,1,0-.36.26.26,0,0,1,.35,0,.27.27,0,0,1,0,.36A.29.29,0,0,1,32.5,50.75Z"/><path class="cls-2" d="M27.25,54.25a.25.25,0,0,1-.18-.08A.24.24,0,0,1,27,54a.23.23,0,0,1,.08-.18.26.26,0,0,1,.35,0,.24.24,0,0,1,.07.18.26.26,0,0,1-.07.18A.27.27,0,0,1,27.25,54.25Z"/><path class="cls-2" d="M32,55.75a.28.28,0,0,1-.17-.07.25.25,0,0,1-.08-.18.26.26,0,0,1,.07-.17.25.25,0,0,1,.36,0,.27.27,0,0,1,.07.18.24.24,0,0,1-.07.18A.29.29,0,0,1,32,55.75Z"/><path class="cls-2" d="M32,57.5a.23.23,0,0,1-.17-.07.25.25,0,0,1-.08-.18.26.26,0,0,1,.07-.17.25.25,0,0,1,.36,0,.27.27,0,0,1,.07.18.26.26,0,0,1-.07.18A.24.24,0,0,1,32,57.5Z"/><path class="cls-2" d="M34,58.25a.25.25,0,0,1-.18-.08.24.24,0,0,1-.07-.17.23.23,0,0,1,.08-.18.26.26,0,0,1,.35,0,.24.24,0,0,1,.07.18.26.26,0,0,1-.07.18A.27.27,0,0,1,34,58.25Z"/><path class="cls-2" d="M34,60.25a.23.23,0,0,1-.17-.07.24.24,0,0,1,0-.36.26.26,0,0,1,.35,0,.27.27,0,0,1,.07.18.26.26,0,0,1-.07.18A.29.29,0,0,1,34,60.25Z"/><path class="cls-2" d="M34.25,66.75a.26.26,0,0,1-.17-.07.24.24,0,0,1,0-.36.26.26,0,0,1,.35,0,.27.27,0,0,1,0,.36A.29.29,0,0,1,34.25,66.75Z"/><path class="cls-2" d="M26,64.75a.23.23,0,0,1-.17-.07.25.25,0,1,1,.35-.35.22.22,0,0,1,.07.17.24.24,0,0,1-.25.25Z"/><path class="cls-2" d="M37.25,57.5a.26.26,0,0,1-.17-.07.24.24,0,0,1,0-.36.25.25,0,0,1,.34,0,.23.23,0,0,1,.08.18.23.23,0,0,1-.07.17A.22.22,0,0,1,37.25,57.5Z"/><path class="cls-2" d="M39.25,56a.26.26,0,0,1-.17-.07.24.24,0,0,1,0-.36.26.26,0,0,1,.35,0,.26.26,0,0,1,.07.18.23.23,0,0,1-.07.17A.22.22,0,0,1,39.25,56Z"/><path class="cls-2" d="M41.75,55a.26.26,0,0,1-.17-.07.25.25,0,0,1-.08-.18.23.23,0,0,1,.08-.18.26.26,0,0,1,.35,0,.24.24,0,0,1,.07.18.23.23,0,0,1-.07.17A.25.25,0,0,1,41.75,55Z"/><path class="cls-2" d="M41.75,50.75a.23.23,0,0,1-.17-.07.24.24,0,0,1,0-.36.26.26,0,0,1,.35,0,.24.24,0,0,1,.07.18.26.26,0,0,1-.07.18A.29.29,0,0,1,41.75,50.75Z"/><path class="cls-2" d="M43.5,44.75a.28.28,0,0,1-.17-.07.24.24,0,0,1,0-.36.26.26,0,0,1,.35,0,.25.25,0,0,1-.18.43Z"/><path class="cls-2" d="M51,50.5a.28.28,0,0,1-.17-.07.24.24,0,0,1,0-.36.26.26,0,0,1,.35,0,.25.25,0,0,1-.18.43Z"/><path class="cls-2" d="M52,46.5a.26.26,0,0,1-.17-.07.24.24,0,0,1,0-.36.26.26,0,0,1,.35,0,.27.27,0,0,1,.07.18.23.23,0,0,1-.07.17A.22.22,0,0,1,52,46.5Z"/><path class="cls-2" d="M55,47a.23.23,0,0,1-.17-.07.24.24,0,0,1,0-.36.26.26,0,0,1,.35,0,.27.27,0,0,1,0,.36A.24.24,0,0,1,55,47Z"/><path class="cls-2" d="M55,54.25a.28.28,0,0,1-.17-.07.24.24,0,0,1,0-.36.26.26,0,0,1,.35,0,.27.27,0,0,1,0,.36A.24.24,0,0,1,55,54.25Z"/><path class="cls-2" d="M51.25,56.25a.26.26,0,0,1-.17-.07.24.24,0,0,1,0-.36.26.26,0,0,1,.35,0,.27.27,0,0,1,0,.36A.29.29,0,0,1,51.25,56.25Z"/><path class="cls-2" d="M52.25,59.75a.23.23,0,0,1-.17-.07.24.24,0,0,1,0-.36.26.26,0,0,1,.35,0,.27.27,0,0,1,.07.18.23.23,0,0,1-.07.17A.22.22,0,0,1,52.25,59.75Z"/><path class="cls-2" d="M51,63.75a.26.26,0,0,1-.17-.07.24.24,0,0,1,0-.36.26.26,0,0,1,.35,0,.26.26,0,0,1,.07.18.26.26,0,0,1-.25.25Z"/><path class="cls-2" d="M53.25,63.75a.26.26,0,0,1-.17-.07A.27.27,0,0,1,53,63.5a.26.26,0,0,1,.43-.18.27.27,0,0,1,.07.18.23.23,0,0,1-.07.17A.25.25,0,0,1,53.25,63.75Z"/><path class="cls-2" d="M55,65.25a.28.28,0,0,1-.17-.07.24.24,0,0,1,0-.36.26.26,0,0,1,.35,0,.27.27,0,0,1,0,.36A.24.24,0,0,1,55,65.25Z"/><path class="cls-2" d="M56.25,64.25a.28.28,0,0,1-.17-.07.24.24,0,0,1,0-.36.26.26,0,0,1,.35,0,.26.26,0,0,1,.07.18.24.24,0,0,1-.25.25Z"/><path class="cls-2" d="M56.5,62a.26.26,0,0,1-.17-.07.29.29,0,0,1-.08-.18.25.25,0,0,1,.08-.18.26.26,0,0,1,.35,0,.22.22,0,0,1,.07.17.23.23,0,0,1-.07.17A.25.25,0,0,1,56.5,62Z"/><path class="cls-2" d="M58.25,61.5a.26.26,0,0,1-.17-.07.27.27,0,0,1-.08-.18.26.26,0,0,1,.43-.18.27.27,0,0,1,.07.18.26.26,0,0,1-.25.25Z"/><path class="cls-2" d="M21,27a.23.23,0,0,1-.17-.07.24.24,0,0,1,0-.36.26.26,0,0,1,.35,0A.25.25,0,0,1,21,27Z"/><path class="cls-2" d="M22.75,24a.24.24,0,0,1-.25-.25.25.25,0,0,1,.08-.18.26.26,0,0,1,.35,0,.27.27,0,0,1,0,.36A.27.27,0,0,1,22.75,24Z"/><path class="cls-2" d="M25.25,24.5a.28.28,0,0,1-.17-.07.24.24,0,0,1,0-.36.26.26,0,0,1,.35,0,.27.27,0,0,1,0,.36A.29.29,0,0,1,25.25,24.5Z"/><path class="cls-2" d="M35.25,23.25a.23.23,0,0,1-.17-.07.24.24,0,0,1,0-.36.26.26,0,0,1,.35,0,.24.24,0,0,1,.07.18.29.29,0,0,1-.07.18A.24.24,0,0,1,35.25,23.25Z"/><path class="cls-2" d="M39,24.75a.23.23,0,0,1-.17-.07.24.24,0,0,1,0-.36.26.26,0,0,1,.35,0,.24.24,0,0,1,.07.18.29.29,0,0,1-.07.18A.26.26,0,0,1,39,24.75Z"/><path class="cls-2" d="M45,29.5a.23.23,0,0,1-.17-.07.24.24,0,0,1,0-.36.26.26,0,0,1,.35,0,.27.27,0,0,1,0,.36A.26.26,0,0,1,45,29.5Z"/><path class="cls-2" d="M46.25,29a.26.26,0,0,1-.17-.07.24.24,0,0,1,0-.36.25.25,0,0,1,.34,0,.24.24,0,0,1,.08.18.23.23,0,0,1-.07.17A.22.22,0,0,1,46.25,29Z"/><path class="cls-2" d="M55.25,28a.26.26,0,0,1-.17-.07.24.24,0,0,1,0-.36.26.26,0,0,1,.35,0,.27.27,0,0,1,0,.36A.29.29,0,0,1,55.25,28Z"/><path class="cls-2" d="M51.25,25.25a.23.23,0,0,1-.17-.07.24.24,0,0,1,0-.36.26.26,0,0,1,.35,0,.24.24,0,0,1,.07.18.29.29,0,0,1-.07.18A.24.24,0,0,1,51.25,25.25Z"/><path class="cls-2" d="M52,29.5a.26.26,0,0,1-.17-.07.24.24,0,0,1,0-.36.26.26,0,0,1,.35,0,.27.27,0,0,1,.07.18.23.23,0,0,1-.07.17A.22.22,0,0,1,52,29.5Z"/><path class="cls-2" d="M62.5,35.5a.26.26,0,0,1-.17-.07.24.24,0,0,1,0-.36.26.26,0,0,1,.34,0,.23.23,0,0,1,.08.18.24.24,0,0,1-.25.25Z"/><path class="cls-2" d="M58.25,38.25a.24.24,0,0,1-.17-.07A.27.27,0,0,1,58,38a.26.26,0,0,1,.43-.18.27.27,0,0,1,.07.18.26.26,0,0,1-.25.25Z"/><path class="cls-2" d="M49,39a.24.24,0,0,1-.17-.07.27.27,0,0,1-.08-.18.26.26,0,0,1,.43-.18.27.27,0,0,1,.07.18.23.23,0,0,1-.07.17A.25.25,0,0,1,49,39Z"/><path class="cls-2" d="M48,41.25a.23.23,0,0,1-.17-.07.24.24,0,0,1,0-.36.25.25,0,0,1,.34,0,.23.23,0,0,1,.08.18.23.23,0,0,1-.07.17A.23.23,0,0,1,48,41.25Z"/><path class="cls-2" d="M52,43a.25.25,0,0,1-.18-.08.24.24,0,0,1-.07-.17.25.25,0,0,1,.08-.18.26.26,0,0,1,.35,0,.27.27,0,0,1,0,.36A.29.29,0,0,1,52,43Z"/><path class="cls-2" d="M53.5,45a.26.26,0,0,1-.17-.07.24.24,0,0,1,0-.36.26.26,0,0,1,.35,0,.27.27,0,0,1,0,.36A.29.29,0,0,1,53.5,45Z"/><path class="cls-2" d="M62.25,48a.26.26,0,0,1-.17-.07.27.27,0,0,1-.08-.18.26.26,0,0,1,.43-.18.27.27,0,0,1,.07.18.23.23,0,0,1-.07.17A.25.25,0,0,1,62.25,48Z"/><path class="cls-2" d="M65,51.75a.28.28,0,0,1-.17-.07.25.25,0,0,1-.08-.18.23.23,0,0,1,.08-.18.27.27,0,0,1,.35,0,.29.29,0,0,1,.07.18.24.24,0,0,1-.25.25Z"/><path class="cls-2" d="M67,51.75a.26.26,0,0,1-.17-.07.24.24,0,0,1,0-.36.27.27,0,0,1,.35,0,.25.25,0,0,1-.18.43Z"/><path class="cls-2" d="M69.5,45a.28.28,0,0,1-.17-.07.24.24,0,0,1,0-.36.26.26,0,0,1,.35,0,.25.25,0,0,1-.18.43Z"/><path class="cls-2" d="M60,39a.23.23,0,0,1-.17-.07.24.24,0,0,1,0-.36.26.26,0,0,1,.35,0,.27.27,0,0,1,0,.36A.24.24,0,0,1,60,39Z"/><path class="cls-2" d="M47.25,47.75a.26.26,0,0,1-.17-.07A.25.25,0,0,1,47,47.5a.23.23,0,0,1,.08-.18.27.27,0,0,1,.35,0,.29.29,0,0,1,.07.18.24.24,0,0,1-.25.25Z"/><path class="cls-2" d="M32.5,47a.28.28,0,0,1-.17-.07.24.24,0,0,1,0-.36.26.26,0,0,1,.35,0,.27.27,0,0,1,0,.36A.29.29,0,0,1,32.5,47Z"/><path class="cls-2" d="M37,44.5a.28.28,0,0,1-.17-.07.27.27,0,0,1-.08-.18.24.24,0,0,1,.07-.17.25.25,0,0,1,.36,0,.26.26,0,0,1,.07.18.22.22,0,0,1-.07.17A.25.25,0,0,1,37,44.5Z"/><path class="cls-2" d="M26.25,37.75a.28.28,0,0,1-.17-.07.24.24,0,0,1,0-.36.26.26,0,0,1,.35,0,.27.27,0,0,1,0,.36A.29.29,0,0,1,26.25,37.75Z"/><path class="cls-2" d="M29.75,35.5a.23.23,0,0,1-.17-.07.24.24,0,0,1,0-.36.26.26,0,0,1,.35,0,.26.26,0,0,1,.07.18.23.23,0,0,1-.07.17A.22.22,0,0,1,29.75,35.5Z"/><path class="cls-2" d="M17,28.5a.23.23,0,0,1-.17-.07.25.25,0,0,1-.08-.18.28.28,0,0,1,.07-.17.25.25,0,0,1,.36,0,.26.26,0,0,1,.07.18.24.24,0,0,1-.25.25Z"/><path class="cls-2" d="M10.5,29.5a.23.23,0,0,1-.17-.07.25.25,0,0,1-.08-.18.28.28,0,0,1,.07-.17.25.25,0,0,1,.36,0,.27.27,0,0,1,.07.18.26.26,0,0,1-.07.18A.24.24,0,0,1,10.5,29.5Z"/><path class="cls-2" d="M6,31.5a.23.23,0,0,1-.17-.07.25.25,0,0,1-.08-.18.28.28,0,0,1,.07-.17.25.25,0,0,1,.36,0,.27.27,0,0,1,.07.18A.24.24,0,0,1,6,31.5Z"/><path class="cls-2" d="M2.5,35.25a.24.24,0,0,1-.17-.07A.27.27,0,0,1,2.25,35a.25.25,0,0,1,.08-.18.25.25,0,0,1,.34,0,.25.25,0,0,1-.17.43Z"/><path class="cls-2" d="M11.25,36.75a.29.29,0,0,1-.18-.07A.31.31,0,0,1,11,36.5a.29.29,0,0,1,.07-.18.27.27,0,0,1,.36,0,.25.25,0,0,1-.18.43Z"/><path class="cls-2" d="M17,42a.23.23,0,0,1-.17-.07.25.25,0,0,1-.08-.18.31.31,0,0,1,.07-.18.27.27,0,0,1,.36,0,.24.24,0,0,1,.07.18.29.29,0,0,1-.07.18A.24.24,0,0,1,17,42Z"/><path class="cls-2" d="M12.75,36a.26.26,0,0,1-.17-.07.25.25,0,0,1-.08-.18.26.26,0,0,1,.43-.18.27.27,0,0,1,0,.36A.26.26,0,0,1,12.75,36Z"/><path class="cls-2" d="M26.5,30.25a.23.23,0,0,1-.17-.07.24.24,0,0,1,0-.36.26.26,0,0,1,.35,0,.27.27,0,0,1,0,.36A.24.24,0,0,1,26.5,30.25Z"/><path class="cls-2" d="M37.75,31a.23.23,0,0,1-.17-.07.24.24,0,0,1,0-.36.26.26,0,0,1,.35,0,.27.27,0,0,1,0,.36A.26.26,0,0,1,37.75,31Z"/><path class="cls-2" d="M39.5,32.5a.23.23,0,0,1-.17-.07.25.25,0,1,1,.35-.35.22.22,0,0,1,.07.17.26.26,0,0,1-.07.18A.29.29,0,0,1,39.5,32.5Z"/><path class="cls-2" d="M28,42a.28.28,0,0,1-.17-.07.27.27,0,0,1-.08-.18.28.28,0,0,1,.07-.17.25.25,0,0,1,.35,0,.24.24,0,0,1,.08.18A.26.26,0,0,1,28,42Z"/><path class="cls-2" d="M6.5,20.5a.26.26,0,0,1-.17-.07.27.27,0,0,1-.08-.18.29.29,0,0,1,.07-.18.27.27,0,0,1,.36,0,.24.24,0,0,1,.07.18.26.26,0,0,1-.25.25Z"/><path class="cls-2" d="M10.25,20.25a.26.26,0,0,1-.17-.07A.25.25,0,0,1,10,20a.29.29,0,0,1,.07-.18.27.27,0,0,1,.36,0,.25.25,0,0,1-.18.43Z"/><path class="cls-2" d="M11.75,23.5a.23.23,0,0,1-.17-.07.25.25,0,0,1-.08-.18.28.28,0,0,1,.07-.17.25.25,0,0,1,.36,0,.27.27,0,0,1,.07.18.24.24,0,0,1-.25.25Z"/><path class="cls-2" d="M3,25.75a.26.26,0,0,1-.17-.07.25.25,0,0,1-.08-.18.29.29,0,0,1,.07-.18.27.27,0,0,1,.36,0,.27.27,0,0,1,0,.36A.26.26,0,0,1,3,25.75Z"/><path class="cls-2" d="M64.25,29.5a.26.26,0,0,1-.17-.07.27.27,0,0,1-.08-.18.26.26,0,0,1,.07-.17.25.25,0,0,1,.35,0,.23.23,0,0,1,.08.18.26.26,0,0,1-.25.25Z"/><path class="cls-2" d="M67.5,30.75a.26.26,0,0,1-.17-.07.25.25,0,0,1-.08-.18.26.26,0,0,1,.43-.18.27.27,0,0,1,.07.18.26.26,0,0,1-.07.18A.29.29,0,0,1,67.5,30.75Z"/><path class="cls-2" d="M69.5,29.75a.26.26,0,0,1-.17-.07.24.24,0,0,1,0-.36.26.26,0,0,1,.35,0,.27.27,0,0,1,0,.36A.29.29,0,0,1,69.5,29.75Z"/><path class="cls-2" d="M7.25,15.75a.25.25,0,0,1-.18-.08A.24.24,0,0,1,7,15.5a.29.29,0,0,1,.07-.18.27.27,0,0,1,.36,0,.25.25,0,0,1-.18.43Z"/><path class="cls-2" d="M1.5,9a.31.31,0,0,1-.18-.07.27.27,0,0,1,0-.36.27.27,0,0,1,.36,0,.27.27,0,0,1,0,.36A.29.29,0,0,1,1.5,9Z"/><path class="cls-2" d="M14.5,6.5a.23.23,0,0,1-.17-.07.25.25,0,0,1-.08-.18.26.26,0,0,1,.07-.17.25.25,0,0,1,.36,0,.25.25,0,0,1-.18.43Z"/><path class="cls-2" d="M8.5,5.25a.23.23,0,0,1-.17-.07A.25.25,0,0,1,8.25,5a.29.29,0,0,1,.07-.18.26.26,0,0,1,.36,0A.21.21,0,0,1,8.75,5a.26.26,0,0,1-.07.18A.24.24,0,0,1,8.5,5.25Z"/><path class="cls-2" d="M3.5,2.5a.25.25,0,0,1-.18-.08.24.24,0,0,1-.07-.17.25.25,0,0,1,.08-.18.26.26,0,0,1,.35,0,.27.27,0,0,1,0,.36A.29.29,0,0,1,3.5,2.5Z"/><path class="cls-2" d="M3.75,6a.26.26,0,0,1-.17-.07.25.25,0,0,1-.08-.18.31.31,0,0,1,.07-.18.27.27,0,0,1,.36,0,.27.27,0,0,1,0,.36A.26.26,0,0,1,3.75,6Z"/><path class="cls-2" d="M12.75,14.25a.26.26,0,0,1-.17-.07A.27.27,0,0,1,12.5,14a.29.29,0,0,1,.07-.18.27.27,0,0,1,.36,0A.24.24,0,0,1,13,14a.26.26,0,0,1-.25.25Z"/><path class="cls-2" d="M18.5,19.25a.23.23,0,0,1-.17-.07.25.25,0,0,1-.08-.18.26.26,0,0,1,.07-.17.25.25,0,0,1,.36,0,.27.27,0,0,1,.07.18.24.24,0,0,1-.07.18A.29.29,0,0,1,18.5,19.25Z"/><path class="cls-2" d="M21.25,37a.23.23,0,0,1-.17-.07.27.27,0,0,1-.08-.18.29.29,0,0,1,.07-.18.27.27,0,0,1,.36,0,.24.24,0,0,1,.07.18.26.26,0,0,1-.25.25Z"/><path class="cls-2" d="M.75,44.25a.26.26,0,0,1-.17-.07.24.24,0,0,1,0-.36.26.26,0,0,1,.35,0A.24.24,0,0,1,1,44a.29.29,0,0,1-.07.18A.29.29,0,0,1,.75,44.25Z"/><path class="cls-2" d="M66.5,37.25a.26.26,0,0,1-.17-.07.24.24,0,0,1,0-.36.26.26,0,0,1,.35,0,.27.27,0,0,1,0,.36A.29.29,0,0,1,66.5,37.25Z"/><path class="cls-2" d="M68,66a.26.26,0,0,1-.17-.07.27.27,0,0,1-.08-.18.29.29,0,0,1,.07-.18.27.27,0,0,1,.36,0,.26.26,0,0,1,.07.18.23.23,0,0,1-.07.17A.25.25,0,0,1,68,66Z"/><path class="cls-2" d="M59.75,69.75a.25.25,0,0,1-.18-.08.24.24,0,0,1-.07-.17.25.25,0,0,1,.08-.18.26.26,0,0,1,.35,0,.26.26,0,0,1,.07.18.24.24,0,0,1-.07.18A.29.29,0,0,1,59.75,69.75Z"/><path class="cls-2" d="M40.5,68a.23.23,0,0,1-.17-.07.24.24,0,0,1,0-.36.26.26,0,0,1,.35,0,.25.25,0,0,1-.18.43Z"/><path class="cls-2" d="M44,63a.26.26,0,0,1-.25-.25.25.25,0,0,1,.08-.18.26.26,0,0,1,.35,0,.26.26,0,0,1,.07.18A.24.24,0,0,1,44,63Z"/><path class="cls-2" d="M25.75,70a.23.23,0,0,1-.17-.07.24.24,0,0,1,0-.36.26.26,0,0,1,.35,0,.24.24,0,0,1,.07.18.23.23,0,0,1-.07.17A.22.22,0,0,1,25.75,70Z"/><path class="cls-2" d="M4.5,60a.23.23,0,0,1-.17-.07.25.25,0,0,1-.08-.18.26.26,0,0,1,.07-.17.25.25,0,0,1,.36,0,.27.27,0,0,1,.07.18A.24.24,0,0,1,4.5,60Z"/><path class="cls-2" d="M26.5,59.5a.23.23,0,0,1-.17-.07.24.24,0,0,1,0-.36.26.26,0,0,1,.35,0,.24.24,0,0,1,.07.18.26.26,0,0,1-.07.18A.24.24,0,0,1,26.5,59.5Z"/><path class="cls-2" d="M37.25,48.5a.28.28,0,0,1-.17-.07.24.24,0,0,1,0-.36.25.25,0,0,1,.34,0,.23.23,0,0,1,.08.18.26.26,0,0,1-.07.18A.27.27,0,0,1,37.25,48.5Z"/><path class="cls-2" d="M22,41.75a.23.23,0,0,1-.17-.07.24.24,0,0,1,0-.36.26.26,0,0,1,.35,0,.25.25,0,0,1-.18.43Z"/><path class="cls-2" d="M8.75,40.25a.26.26,0,0,1-.17-.07A.27.27,0,0,1,8.5,40a.25.25,0,0,1,.08-.18.26.26,0,0,1,.35,0A.29.29,0,0,1,9,40a.24.24,0,0,1-.25.25Z"/><path class="cls-2" d="M24,29a.23.23,0,0,1-.17-.07.24.24,0,0,1,0-.36.26.26,0,0,1,.35,0,.26.26,0,0,1,.07.18.23.23,0,0,1-.07.17A.22.22,0,0,1,24,29Z"/><path class="cls-2" d="M41.5,34.5a.26.26,0,0,1-.17-.07.24.24,0,0,1,0-.36.25.25,0,0,1,.34,0,.24.24,0,0,1,.08.18.23.23,0,0,1-.07.17A.22.22,0,0,1,41.5,34.5Z"/><path class="cls-2" d="M51.5,37.5a.26.26,0,0,1-.17-.07.24.24,0,0,1,0-.36.26.26,0,0,1,.35,0,.26.26,0,0,1,.07.18.26.26,0,0,1-.25.25Z"/><path class="cls-2" d="M60.75,46a.28.28,0,0,1-.17-.07.25.25,0,0,1-.08-.18.23.23,0,0,1,.08-.18.26.26,0,0,1,.35,0,.27.27,0,0,1,0,.36A.29.29,0,0,1,60.75,46Z"/><path class="cls-2" d="M67.5,43.75a.26.26,0,0,1-.17-.07.24.24,0,0,1,0-.36.27.27,0,0,1,.35,0,.27.27,0,0,1,0,.36A.29.29,0,0,1,67.5,43.75Z"/><path class="cls-2" d="M51.25,66.25a.23.23,0,0,1-.17-.07.24.24,0,0,1,0-.36.26.26,0,0,1,.35,0,.24.24,0,0,1,.07.18.29.29,0,0,1-.07.18A.24.24,0,0,1,51.25,66.25Z"/><path class="cls-2" d="M40,37.75a.26.26,0,0,1-.17-.07.24.24,0,0,1,0-.36.26.26,0,0,1,.35,0,.26.26,0,0,1,.07.18.23.23,0,0,1-.07.17A.25.25,0,0,1,40,37.75Z"/><path class="cls-2" d="M53.25,15a.26.26,0,0,1-.17-.07.24.24,0,0,1,0-.36.26.26,0,0,1,.35,0,.22.22,0,0,1,.07.17.26.26,0,0,1-.07.18A.29.29,0,0,1,53.25,15Z"/><path class="cls-2" d="M34,16a.25.25,0,0,1-.18-.08.24.24,0,0,1-.07-.17.23.23,0,0,1,.08-.18.26.26,0,0,1,.35,0,.24.24,0,0,1,.07.18.26.26,0,0,1-.07.18A.29.29,0,0,1,34,16Z"/><path class="cls-2" d="M27.5,13.5a.23.23,0,0,1-.17-.07.25.25,0,0,1-.08-.18.24.24,0,0,1,.07-.17.25.25,0,0,1,.36,0,.26.26,0,0,1,.07.18.24.24,0,0,1-.25.25Z"/><path class="cls-2" d="M12.75,19.25a.26.26,0,0,1-.17-.07A.25.25,0,0,1,12.5,19a.28.28,0,0,1,.07-.17.26.26,0,0,1,.36,0A.26.26,0,0,1,13,19a.24.24,0,0,1-.25.25Z"/><path class="cls-2" d="M19.75,26.5a.23.23,0,0,1-.17-.07.25.25,0,0,1-.08-.18.28.28,0,0,1,.07-.17.25.25,0,0,1,.36,0,.26.26,0,0,1,.07.18.24.24,0,0,1-.07.18A.26.26,0,0,1,19.75,26.5Z"/><path class="cls-2" d="M49.5,4.5a.26.26,0,0,1-.17-.07.24.24,0,0,1,0-.36.27.27,0,0,1,.35,0,.27.27,0,0,1,0,.36A.29.29,0,0,1,49.5,4.5Z"/><path class="cls-2" d="M11.75,1.75a.23.23,0,0,1-.17-.07.25.25,0,0,1-.08-.18.31.31,0,0,1,.07-.18.27.27,0,0,1,.36,0,.27.27,0,0,1,0,.36A.24.24,0,0,1,11.75,1.75Z"/><path class="cls-2" d="M55.25,3.75a.26.26,0,0,1-.17-.07.24.24,0,0,1,0-.36.26.26,0,0,1,.35,0,.27.27,0,0,1,0,.36A.29.29,0,0,1,55.25,3.75Z"/><path class="cls-2" d="M59,20.75a.26.26,0,0,1-.17-.07.24.24,0,0,1,0-.36.26.26,0,0,1,.35,0,.27.27,0,0,1,.07.18.23.23,0,0,1-.07.17A.22.22,0,0,1,59,20.75Z"/><path class="cls-2" d="M67.5,57.25a.26.26,0,0,1-.17-.07.27.27,0,0,1-.08-.18.25.25,0,0,1,.08-.18.26.26,0,0,1,.35,0,.26.26,0,0,1,.07.18.23.23,0,0,1-.07.17A.25.25,0,0,1,67.5,57.25Z"/><path class="cls-2" d="M47.25,69.75a.26.26,0,0,1-.17-.07.24.24,0,0,1,0-.36.27.27,0,0,1,.35,0,.27.27,0,0,1,0,.36A.24.24,0,0,1,47.25,69.75Z"/><path class="cls-2" d="M5.25,69.75a.26.26,0,0,1-.17-.07A.25.25,0,0,1,5,69.5a.28.28,0,0,1,.07-.17.26.26,0,0,1,.36,0,.26.26,0,0,1,.07.18.24.24,0,0,1-.07.18A.26.26,0,0,1,5.25,69.75Z"/><path class="cls-2" d="M4.75,40.25a.31.31,0,0,1-.18-.07.27.27,0,0,1,0-.36.27.27,0,0,1,.36,0,.27.27,0,0,1,0,.36A.29.29,0,0,1,4.75,40.25Z"/><path class="cls-2" d="M69.75,12.75a.24.24,0,0,1-.17-.07.24.24,0,0,1,0-.36.26.26,0,0,1,.35,0,.27.27,0,0,1,0,.36A.29.29,0,0,1,69.75,12.75Z"/><path class="cls-2" d="M23.25,14a.23.23,0,0,1-.17-.07.25.25,0,0,1-.08-.18.24.24,0,0,1,.07-.17.25.25,0,0,1,.36,0,.27.27,0,0,1,.07.18.26.26,0,0,1-.07.18A.24.24,0,0,1,23.25,14Z"/><path class="cls-2" d="M20.5,17.25a.26.26,0,0,1-.17-.07.24.24,0,0,1,0-.36.26.26,0,0,1,.35,0,.22.22,0,0,1,.07.17.26.26,0,0,1-.07.18A.29.29,0,0,1,20.5,17.25Z"/><path class="cls-2" d="M14.75,17.25a.23.23,0,0,1-.17-.07A.25.25,0,0,1,14.5,17a.31.31,0,0,1,.07-.18.27.27,0,0,1,.36,0,.27.27,0,0,1,0,.36A.24.24,0,0,1,14.75,17.25Z"/><path class="cls-2" d="M2.75,13.25a.24.24,0,0,1-.17-.07A.27.27,0,0,1,2.5,13a.25.25,0,0,1,.08-.18.26.26,0,0,1,.35,0A.29.29,0,0,1,3,13a.24.24,0,0,1-.07.18A.29.29,0,0,1,2.75,13.25Z"/><path class="cls-2" d="M6,11.75a.23.23,0,0,1-.17-.07.27.27,0,0,1-.08-.18.29.29,0,0,1,.07-.18.26.26,0,0,1,.36,0,.24.24,0,0,1,.07.18.23.23,0,0,1-.07.17A.22.22,0,0,1,6,11.75Z"/><path class="cls-2" d="M7,2.75a.23.23,0,0,1-.17-.07.27.27,0,0,1-.08-.18.29.29,0,0,1,.07-.18.27.27,0,0,1,.36,0,.26.26,0,0,1,.07.18.23.23,0,0,1-.07.17A.22.22,0,0,1,7,2.75Z"/><path class="cls-2" d="M10,8.25a.29.29,0,0,1-.18-.07A.31.31,0,0,1,9.75,8a.29.29,0,0,1,.07-.18.27.27,0,0,1,.36,0,.24.24,0,0,1,.07.18.26.26,0,0,1-.25.25Z"/><path class="cls-2" d="M16,8.25a.31.31,0,0,1-.18-.07A.29.29,0,0,1,15.75,8a.25.25,0,0,1,.08-.18.26.26,0,0,1,.35,0,.27.27,0,0,1,0,.36A.29.29,0,0,1,16,8.25Z"/><path class="cls-2" d="M16.5,3.25a.23.23,0,0,1-.17-.07A.25.25,0,0,1,16.25,3a.29.29,0,0,1,.07-.18.26.26,0,0,1,.36,0,.27.27,0,0,1,0,.36A.26.26,0,0,1,16.5,3.25Z"/><path class="cls-2" d="M25.75,7a.23.23,0,0,1-.17-.07.24.24,0,0,1,0-.36.26.26,0,0,1,.35,0,.27.27,0,0,1,0,.36A.24.24,0,0,1,25.75,7Z"/><path class="cls-2" d="M37,7.5a.23.23,0,0,1-.17-.07.24.24,0,0,1,0-.36.26.26,0,0,1,.35,0,.27.27,0,0,1,0,.36A.26.26,0,0,1,37,7.5Z"/><path class="cls-2" d="M40.5,4.5a.26.26,0,0,1-.17-.07.23.23,0,0,1-.08-.18.25.25,0,0,1,.08-.18.26.26,0,0,1,.35,0,.27.27,0,0,1,.07.18.24.24,0,0,1-.07.18A.29.29,0,0,1,40.5,4.5Z"/><path class="cls-2" d="M37.5,4.25a.26.26,0,0,1-.17-.07A.23.23,0,0,1,37.25,4a.25.25,0,0,1,.08-.18.26.26,0,0,1,.35,0,.27.27,0,0,1,.07.18.26.26,0,0,1-.07.18A.24.24,0,0,1,37.5,4.25Z"/><path class="cls-2" d="M43.25,2.25a.25.25,0,0,1-.18-.08A.24.24,0,0,1,43,2a.25.25,0,0,1,.08-.18.26.26,0,0,1,.35,0,.27.27,0,0,1,0,.36A.29.29,0,0,1,43.25,2.25Z"/><path class="cls-2" d="M49.5,8.25a.26.26,0,0,1-.17-.07.24.24,0,0,1,0-.36.26.26,0,0,1,.35,0,.27.27,0,0,1,0,.36A.29.29,0,0,1,49.5,8.25Z"/><path class="cls-2" d="M46,9.25a.26.26,0,0,1-.17-.07.24.24,0,0,1,0-.36.27.27,0,0,1,.35,0,.27.27,0,0,1,0,.36A.29.29,0,0,1,46,9.25Z"/><path class="cls-2" d="M35.75,11a.26.26,0,0,1-.17-.07.24.24,0,0,1,0-.36.26.26,0,0,1,.35,0,.27.27,0,0,1,0,.36A.29.29,0,0,1,35.75,11Z"/><path class="cls-2" d="M39.25,15a.23.23,0,0,1-.17-.07.24.24,0,0,1,0-.36.26.26,0,0,1,.35,0,.27.27,0,0,1,.07.18.26.26,0,0,1-.07.18A.24.24,0,0,1,39.25,15Z"/><path class="cls-2" d="M24.75,18a.23.23,0,0,1-.17-.07.25.25,0,0,1-.08-.18.29.29,0,0,1,.07-.18.27.27,0,0,1,.36,0,.25.25,0,0,1-.18.43Z"/><path class="cls-2" d="M8.25,27.25a.23.23,0,0,1-.17-.07A.25.25,0,0,1,8,27a.29.29,0,0,1,.07-.18.26.26,0,0,1,.36,0A.26.26,0,0,1,8.5,27a.24.24,0,0,1-.07.18A.29.29,0,0,1,8.25,27.25Z"/><path class="cls-2" d="M16,31.75a.31.31,0,0,1-.18-.07.29.29,0,0,1-.07-.18.25.25,0,0,1,.08-.18.26.26,0,0,1,.35,0,.27.27,0,0,1,0,.36A.29.29,0,0,1,16,31.75Z"/><path class="cls-2" d="M10.5,33.5a.23.23,0,0,1-.17-.07.27.27,0,0,1-.08-.18.29.29,0,0,1,.07-.18.26.26,0,0,1,.36,0,.26.26,0,0,1,.07.18.23.23,0,0,1-.07.17A.22.22,0,0,1,10.5,33.5Z"/><path class="cls-2" d="M5.25,37a.26.26,0,0,1-.17-.07A.25.25,0,0,1,5,36.75a.28.28,0,0,1,.07-.17.26.26,0,0,1,.36,0,.26.26,0,0,1,.07.18.24.24,0,0,1-.07.18A.26.26,0,0,1,5.25,37Z"/><path class="cls-2" d="M2.75,32a.26.26,0,0,1-.17-.07.27.27,0,0,1-.08-.18.25.25,0,0,1,.08-.18.26.26,0,0,1,.35,0,.29.29,0,0,1,.07.18.24.24,0,0,1-.07.18A.29.29,0,0,1,2.75,32Z"/><path class="cls-2" d="M7.5,25a.25.25,0,0,1-.18-.43.26.26,0,0,1,.35,0,.23.23,0,0,1,.08.18.26.26,0,0,1-.07.18A.29.29,0,0,1,7.5,25Z"/><path class="cls-2" d="M3.25,20.5a.26.26,0,0,1-.17-.07A.25.25,0,0,1,3,20.25a.26.26,0,0,1,.43-.18.26.26,0,0,1,.07.18.24.24,0,0,1-.07.18A.26.26,0,0,1,3.25,20.5Z"/><path class="cls-2" d="M20.5,30.75a.26.26,0,0,1-.17-.07.24.24,0,0,1,0-.36.26.26,0,0,1,.35,0,.27.27,0,0,1,.07.18.23.23,0,0,1-.07.17A.25.25,0,0,1,20.5,30.75Z"/><path class="cls-2" d="M17.5,35.5a.28.28,0,0,1-.17-.07.25.25,0,0,1,0-.36.27.27,0,0,1,.36,0,.24.24,0,0,1,.07.18.22.22,0,0,1-.07.17A.25.25,0,0,1,17.5,35.5Z"/><path class="cls-2" d="M16,39a.23.23,0,0,1-.17-.07.24.24,0,0,1,0-.36.26.26,0,0,1,.35,0A.25.25,0,0,1,16,39Z"/><path class="cls-2" d="M12.75,41.25a.26.26,0,0,1-.17-.07A.25.25,0,0,1,12.5,41a.31.31,0,0,1,.07-.18.27.27,0,0,1,.36,0,.27.27,0,0,1,0,.36A.29.29,0,0,1,12.75,41.25Z"/><path class="cls-2" d="M12.75,46.5a.24.24,0,0,1-.17-.07.27.27,0,0,1-.08-.18.29.29,0,0,1,.07-.18.27.27,0,0,1,.36,0,.25.25,0,0,1-.18.43Z"/><path class="cls-2" d="M4,46.75a.26.26,0,0,1-.17-.07.25.25,0,0,1-.08-.18.31.31,0,0,1,.07-.18.26.26,0,0,1,.35,0,.23.23,0,0,1,.08.18.24.24,0,0,1-.07.18A.26.26,0,0,1,4,46.75Z"/><path class="cls-2" d="M5.75,48.5a.25.25,0,0,1-.18-.08.24.24,0,0,1-.07-.17.29.29,0,0,1,.07-.18.27.27,0,0,1,.36,0,.27.27,0,0,1,0,.36A.29.29,0,0,1,5.75,48.5Z"/><path class="cls-2" d="M11,50.5a.23.23,0,0,1-.17-.07.25.25,0,0,1-.08-.18.26.26,0,0,1,.07-.17.25.25,0,0,1,.36,0,.27.27,0,0,1,.07.18.24.24,0,0,1-.25.25Z"/><path class="cls-2" d="M11,54.5a.31.31,0,0,1-.18-.07.27.27,0,0,1,0-.36.27.27,0,0,1,.36,0,.27.27,0,0,1,0,.36A.29.29,0,0,1,11,54.5Z"/><path class="cls-2" d="M15.5,58.5a.28.28,0,0,1-.17-.07.25.25,0,0,1-.08-.18.29.29,0,0,1,.07-.18.27.27,0,0,1,.36,0,.27.27,0,0,1,0,.36A.29.29,0,0,1,15.5,58.5Z"/><path class="cls-2" d="M10,59.75a.29.29,0,0,1-.18-.07.31.31,0,0,1-.07-.18.29.29,0,0,1,.07-.18.27.27,0,0,1,.36,0,.24.24,0,0,1,.07.18.26.26,0,0,1-.07.18A.24.24,0,0,1,10,59.75Z"/><path class="cls-2" d="M6,63.5a.23.23,0,0,1-.17-.07.27.27,0,0,1-.08-.18.29.29,0,0,1,.07-.18.26.26,0,0,1,.36,0,.24.24,0,0,1,.07.18.23.23,0,0,1-.07.17A.22.22,0,0,1,6,63.5Z"/><path class="cls-2" d="M2.25,62a.23.23,0,0,1-.17-.07A.25.25,0,0,1,2,61.75a.29.29,0,0,1,.07-.18.26.26,0,0,1,.35,0,.23.23,0,0,1,.08.18.26.26,0,0,1-.07.18A.27.27,0,0,1,2.25,62Z"/><path class="cls-2" d="M7.25,67.75a.26.26,0,0,1-.17-.07A.27.27,0,0,1,7,67.5a.29.29,0,0,1,.07-.18.27.27,0,0,1,.36,0,.29.29,0,0,1,.07.18.21.21,0,0,1-.07.17A.22.22,0,0,1,7.25,67.75Z"/><path class="cls-2" d="M13.5,69.5a.23.23,0,0,1-.17-.07.27.27,0,0,1-.08-.18.29.29,0,0,1,.07-.18.27.27,0,0,1,.36,0,.26.26,0,0,1,.07.18.23.23,0,0,1-.07.17A.22.22,0,0,1,13.5,69.5Z"/><path class="cls-2" d="M13.5,65.75a.23.23,0,0,1-.17-.07.25.25,0,0,1-.08-.18.26.26,0,0,1,.07-.17.25.25,0,0,1,.36,0,.27.27,0,0,1,.07.18.26.26,0,0,1-.07.18A.24.24,0,0,1,13.5,65.75Z"/><path class="cls-2" d="M21.5,68.5a.23.23,0,0,1-.17-.07.24.24,0,0,1,0-.36.26.26,0,0,1,.35,0,.26.26,0,0,1,.07.18.23.23,0,0,1-.07.17A.22.22,0,0,1,21.5,68.5Z"/><path class="cls-2" d="M23,65.75a.23.23,0,0,1-.17-.07.25.25,0,0,1-.08-.18.28.28,0,0,1,.07-.17.25.25,0,0,1,.36,0,.26.26,0,0,1,.07.18.24.24,0,0,1-.25.25Z"/><path class="cls-2" d="M22.25,60a.23.23,0,0,1-.17-.07.25.25,0,0,1-.08-.18.28.28,0,0,1,.07-.17.25.25,0,0,1,.36,0,.26.26,0,0,1,.07.18.24.24,0,0,1-.07.18A.26.26,0,0,1,22.25,60Z"/><path class="cls-2" d="M24.25,57.5a.23.23,0,0,1-.17-.07.24.24,0,0,1,0-.36.26.26,0,0,1,.35,0,.27.27,0,0,1,0,.36A.24.24,0,0,1,24.25,57.5Z"/><path class="cls-2" d="M22,53.25a.23.23,0,0,1-.17-.07.25.25,0,0,1-.08-.18.24.24,0,0,1,.07-.17.25.25,0,0,1,.36,0,.27.27,0,0,1,.07.18.26.26,0,0,1-.07.18A.24.24,0,0,1,22,53.25Z"/><path class="cls-2" d="M26.25,47.75a.23.23,0,0,1-.17-.07.24.24,0,0,1,0-.36.26.26,0,0,1,.35,0,.27.27,0,0,1,0,.36A.24.24,0,0,1,26.25,47.75Z"/><path class="cls-2" d="M25.75,43.5a.23.23,0,0,1-.17-.07.25.25,0,0,1-.08-.18.29.29,0,0,1,.07-.18.25.25,0,0,1,.43.18.24.24,0,0,1-.25.25Z"/><path class="cls-2" d="M31.25,37.5a.28.28,0,0,1-.17-.07.27.27,0,0,1-.08-.18.26.26,0,0,1,.07-.17.25.25,0,0,1,.36,0,.27.27,0,0,1,.07.18.23.23,0,0,1-.07.17A.25.25,0,0,1,31.25,37.5Z"/><path class="cls-2" d="M32.25,31a.23.23,0,0,1-.17-.07.25.25,0,0,1-.08-.18.28.28,0,0,1,.07-.17.25.25,0,0,1,.36,0,.26.26,0,0,1,.07.18.29.29,0,0,1-.07.18A.24.24,0,0,1,32.25,31Z"/><path class="cls-2" d="M26,34a.23.23,0,0,1-.17-.07.24.24,0,0,1,0-.36.26.26,0,0,1,.35,0,.27.27,0,0,1,0,.36A.24.24,0,0,1,26,34Z"/><path class="cls-2" d="M34.25,27.75a.26.26,0,0,1-.17-.07.24.24,0,0,1,0-.36.26.26,0,0,1,.35,0,.27.27,0,0,1,.07.18.26.26,0,0,1-.07.18A.29.29,0,0,1,34.25,27.75Z"/><path class="cls-2" d="M37.25,28.5a.26.26,0,0,1-.17-.07.24.24,0,0,1,0-.36.25.25,0,0,1,.34,0,.23.23,0,0,1,.08.18.23.23,0,0,1-.07.17A.22.22,0,0,1,37.25,28.5Z"/><path class="cls-2" d="M41.75,25.75a.28.28,0,0,1-.17-.07.24.24,0,0,1,0-.36.26.26,0,0,1,.35,0,.27.27,0,0,1,.07.18.23.23,0,0,1-.07.17A.25.25,0,0,1,41.75,25.75Z"/><path class="cls-2" d="M43,20.75a.23.23,0,0,1-.17-.07.24.24,0,0,1,0-.36.26.26,0,0,1,.35,0,.25.25,0,0,1-.18.43Z"/><path class="cls-2" d="M36.5,19.25a.26.26,0,0,1-.17-.07.24.24,0,0,1,0-.36.27.27,0,0,1,.35,0,.27.27,0,0,1,0,.36A.24.24,0,0,1,36.5,19.25Z"/><path class="cls-2" d="M27.75,22.25a.28.28,0,0,1-.17-.07A.27.27,0,0,1,27.5,22a.26.26,0,0,1,.07-.17.25.25,0,0,1,.36,0,.27.27,0,0,1,0,.36A.29.29,0,0,1,27.75,22.25Z"/><path class="cls-2" d="M52,22a.26.26,0,0,1-.17-.07.24.24,0,0,1,0-.36.26.26,0,0,1,.35,0,.27.27,0,0,1,.07.18.23.23,0,0,1-.07.17A.25.25,0,0,1,52,22Z"/><path class="cls-2" d="M43.25,17.75a.26.26,0,0,1-.17-.07A.25.25,0,0,1,43,17.5a.31.31,0,0,1,.07-.18.25.25,0,0,1,.43.18.23.23,0,0,1-.07.17A.22.22,0,0,1,43.25,17.75Z"/><path class="cls-2" d="M50.5,18a.26.26,0,0,1-.17-.07.24.24,0,0,1,0-.36.26.26,0,0,1,.35,0,.27.27,0,0,1,.07.18.23.23,0,0,1-.07.17A.25.25,0,0,1,50.5,18Z"/><path class="cls-2" d="M59.5,17.25a.26.26,0,0,1-.17-.07.24.24,0,0,1,0-.36.26.26,0,0,1,.35,0,.27.27,0,0,1,0,.36A.29.29,0,0,1,59.5,17.25Z"/><path class="cls-2" d="M58.25,14a.26.26,0,0,1-.17-.07.24.24,0,0,1,0-.36.26.26,0,0,1,.35,0,.24.24,0,0,1,.07.18.26.26,0,0,1-.07.18A.29.29,0,0,1,58.25,14Z"/><path class="cls-2" d="M61.5,11a.23.23,0,0,1-.17-.07.25.25,0,0,1-.08-.18.23.23,0,0,1,.08-.18.26.26,0,0,1,.35,0,.27.27,0,0,1,0,.36A.24.24,0,0,1,61.5,11Z"/><path class="cls-2" d="M58.75,7.5a.23.23,0,0,1-.17-.07.24.24,0,0,1,0-.36.26.26,0,0,1,.35,0,.25.25,0,0,1-.18.43Z"/><path class="cls-2" d="M60,4.75a.26.26,0,0,1-.17-.07.25.25,0,0,1-.08-.18.29.29,0,0,1,.07-.18.27.27,0,0,1,.36,0,.24.24,0,0,1,.07.18.21.21,0,0,1-.07.17A.22.22,0,0,1,60,4.75Z"/><path class="cls-2" d="M67.5,6a.26.26,0,0,1-.17-.07.27.27,0,0,1-.08-.18.26.26,0,0,1,.43-.18.27.27,0,0,1,.07.18.23.23,0,0,1-.07.17A.25.25,0,0,1,67.5,6Z"/><path class="cls-2" d="M69.5,8a.28.28,0,0,1-.17-.07.25.25,0,0,1-.08-.18.31.31,0,0,1,.07-.18.27.27,0,0,1,.36,0,.26.26,0,0,1,.07.18A.24.24,0,0,1,69.5,8Z"/><path class="cls-2" d="M65.75,9.75a.26.26,0,0,1-.17-.07.24.24,0,0,1,0-.36.26.26,0,0,1,.35,0,.27.27,0,0,1,0,.36A.29.29,0,0,1,65.75,9.75Z"/><path class="cls-2" d="M61.75,16.5a.26.26,0,0,1-.17-.07.24.24,0,0,1,0-.36.26.26,0,0,1,.35,0,.26.26,0,0,1,.07.18.26.26,0,0,1-.25.25Z"/><path class="cls-2" d="M60.25,23.75a.28.28,0,0,1-.17-.07.24.24,0,0,1,0-.36.26.26,0,0,1,.35,0,.29.29,0,0,1,.07.18.24.24,0,0,1-.25.25Z"/><path class="cls-2" d="M55.5,23.75a.26.26,0,0,1-.17-.07.24.24,0,0,1,0-.36.26.26,0,0,1,.35,0,.27.27,0,0,1,0,.36A.29.29,0,0,1,55.5,23.75Z"/><path class="cls-2" d="M55.5,18.75a.26.26,0,0,1-.17-.07.24.24,0,0,1,0-.36.26.26,0,0,1,.35,0,.27.27,0,0,1,0,.36A.29.29,0,0,1,55.5,18.75Z"/><path class="cls-2" d="M65,25.75a.28.28,0,0,1-.17-.07.24.24,0,0,1,0-.36.26.26,0,0,1,.35,0,.26.26,0,0,1,.07.18.24.24,0,0,1-.25.25Z"/><path class="cls-2" d="M61.25,27a.26.26,0,0,1-.17-.07.24.24,0,0,1,0-.36.26.26,0,0,1,.35,0,.24.24,0,0,1,.07.18.24.24,0,0,1-.25.25Z"/><path class="cls-2" d="M57.75,30.75a.23.23,0,0,1-.17-.07.24.24,0,0,1,0-.36.26.26,0,0,1,.35,0,.24.24,0,0,1,.07.18.21.21,0,0,1-.07.17A.22.22,0,0,1,57.75,30.75Z"/><path class="cls-2" d="M52.75,32.75a.26.26,0,0,1-.17-.07.24.24,0,0,1,0-.36.26.26,0,0,1,.35,0,.26.26,0,0,1,.07.18.26.26,0,0,1-.25.25Z"/><path class="cls-2" d="M47.5,33.75a.28.28,0,0,1-.17-.07.24.24,0,0,1,0-.36.25.25,0,0,1,.34,0,.24.24,0,0,1,.08.18.23.23,0,0,1-.07.17A.23.23,0,0,1,47.5,33.75Z"/><path class="cls-2" d="M44.25,39.25a.28.28,0,0,1-.17-.07.24.24,0,0,1,0-.36.26.26,0,0,1,.35,0,.27.27,0,0,1,0,.36A.26.26,0,0,1,44.25,39.25Z"/><path class="cls-2" d="M34,41.5a.23.23,0,0,1-.17-.07.24.24,0,0,1,0-.36.26.26,0,0,1,.35,0,.27.27,0,0,1,0,.36A.29.29,0,0,1,34,41.5Z"/><path class="cls-2" d="M40.75,48a.23.23,0,0,1-.17-.07.24.24,0,0,1,0-.36.26.26,0,0,1,.35,0,.27.27,0,0,1,0,.36A.24.24,0,0,1,40.75,48Z"/><path class="cls-2" d="M45.75,52.25a.23.23,0,0,1-.17-.07.24.24,0,0,1,0-.36.26.26,0,0,1,.35,0A.24.24,0,0,1,46,52a.29.29,0,0,1-.07.18A.24.24,0,0,1,45.75,52.25Z"/><path class="cls-2" d="M46.5,56.75a.28.28,0,0,1-.17-.07.24.24,0,0,1,0-.36.26.26,0,0,1,.35,0,.26.26,0,0,1,.07.18.26.26,0,0,1-.25.25Z"/><path class="cls-2" d="M42,59.5a.23.23,0,0,1-.17-.07.24.24,0,0,1,0-.36.26.26,0,0,1,.35,0,.29.29,0,0,1,.07.18.24.24,0,0,1-.07.18A.26.26,0,0,1,42,59.5Z"/><path class="cls-2" d="M40,62.75a.28.28,0,0,1-.17-.07.25.25,0,0,1-.08-.18.23.23,0,0,1,.08-.18.26.26,0,0,1,.35,0,.24.24,0,0,1,.07.18.26.26,0,0,1-.07.18A.29.29,0,0,1,40,62.75Z"/><path class="cls-2" d="M36,62.75a.23.23,0,0,1-.17-.07.24.24,0,0,1,0-.36.26.26,0,0,1,.35,0,.27.27,0,0,1,.07.18.26.26,0,0,1-.07.18A.29.29,0,0,1,36,62.75Z"/><path class="cls-2" d="M36.5,52.75a.24.24,0,0,1-.17-.07.24.24,0,0,1,0-.36.26.26,0,0,1,.35,0,.27.27,0,0,1,.07.18.23.23,0,0,1-.07.17A.25.25,0,0,1,36.5,52.75Z"/><path class="cls-2" d="M30,63.5a.26.26,0,0,1-.17-.07.24.24,0,0,1,0-.36.26.26,0,0,1,.35,0,.26.26,0,0,1,.07.18.22.22,0,0,1-.07.17A.25.25,0,0,1,30,63.5Z"/><path class="cls-2" d="M31.5,68.5a.25.25,0,0,1-.18-.08.24.24,0,0,1-.07-.17.23.23,0,0,1,.08-.18.26.26,0,0,1,.34,0,.22.22,0,0,1,.08.18.26.26,0,0,1-.07.18A.29.29,0,0,1,31.5,68.5Z"/><path class="cls-2" d="M37,71a.23.23,0,0,1-.17-.07.24.24,0,0,1,0-.36.26.26,0,0,1,.35,0A.25.25,0,0,1,37,71Z"/><path class="cls-2" d="M58.75,57a.23.23,0,0,1-.17-.07.24.24,0,0,1,0-.36.26.26,0,0,1,.35,0,.25.25,0,0,1-.18.43Z"/><path class="cls-2" d="M63,57a.28.28,0,0,1-.17-.07.24.24,0,0,1,0-.36.26.26,0,0,1,.35,0,.24.24,0,0,1,.07.18.21.21,0,0,1-.07.17A.22.22,0,0,1,63,57Z"/><path class="cls-2" d="M60,50.75a.28.28,0,0,1-.17-.07.25.25,0,0,1-.08-.18.23.23,0,0,1,.08-.18.26.26,0,0,1,.35,0,.29.29,0,0,1,.07.18.24.24,0,0,1-.07.18A.29.29,0,0,1,60,50.75Z"/><path class="cls-2" d="M54.5,50.5a.24.24,0,0,1-.17-.07.27.27,0,0,1-.08-.18.26.26,0,0,1,.43-.18.27.27,0,0,1,.07.18.23.23,0,0,1-.07.17A.25.25,0,0,1,54.5,50.5Z"/><path class="cls-2" d="M59.25,44.25a.26.26,0,0,1-.17-.07A.27.27,0,0,1,59,44a.26.26,0,0,1,.43-.18.27.27,0,0,1,.07.18.26.26,0,0,1-.25.25Z"/><path class="cls-2" d="M54.75,41.75a.26.26,0,0,1-.17-.07.24.24,0,0,1,0-.36.26.26,0,0,1,.35,0,.27.27,0,0,1,0,.36A.29.29,0,0,1,54.75,41.75Z"/><path class="cls-2" d="M55.75,35.5a.23.23,0,0,1-.17-.07.24.24,0,0,1,0-.36.26.26,0,0,1,.35,0,.25.25,0,0,1-.18.43Z"/><path class="cls-2" d="M62.5,42.25a.26.26,0,0,1-.17-.07.24.24,0,0,1,0-.36.26.26,0,0,1,.34,0,.23.23,0,0,1,.08.18.24.24,0,0,1-.25.25Z"/><path class="cls-2" d="M67,47.5a.26.26,0,0,1-.17-.07.24.24,0,0,1,0-.36.27.27,0,0,1,.35,0,.24.24,0,0,1,.07.18.29.29,0,0,1-.07.18A.24.24,0,0,1,67,47.5Z"/><path class="cls-2" d="M69.5,54.25a.26.26,0,0,1-.17-.07.24.24,0,0,1,0-.36.26.26,0,0,1,.35,0,.27.27,0,0,1,0,.36A.29.29,0,0,1,69.5,54.25Z"/><path class="cls-2" d="M63.5,61.75a.26.26,0,0,1-.17-.07.27.27,0,0,1-.08-.18.25.25,0,0,1,.08-.18.26.26,0,0,1,.35,0,.26.26,0,0,1,.07.18.23.23,0,0,1-.07.17A.22.22,0,0,1,63.5,61.75Z"/><path class="cls-2" d="M69.25,63.5a.23.23,0,0,1-.17-.07.24.24,0,0,1,0-.36.26.26,0,0,1,.35,0,.26.26,0,0,1,.07.18.26.26,0,0,1-.25.25Z"/><path class="cls-2" d="M64.75,65.5a.24.24,0,0,1-.17-.07.27.27,0,0,1-.08-.18.28.28,0,0,1,.07-.17.26.26,0,0,1,.36,0,.27.27,0,0,1,.07.18.26.26,0,0,1-.25.25Z"/><path class="cls-2" d="M65.75,68.25a.26.26,0,0,1-.17-.07.24.24,0,0,1,0-.36.26.26,0,0,1,.35,0A.26.26,0,0,1,66,68a.24.24,0,0,1-.07.18A.29.29,0,0,1,65.75,68.25Z"/><path class="cls-2" d="M69.25,70.5a.26.26,0,0,1-.17-.07.27.27,0,0,1-.08-.18.25.25,0,0,1,.08-.18.26.26,0,0,1,.35,0,.24.24,0,0,1,.07.18.26.26,0,0,1-.25.25Z"/><path class="cls-2" d="M62.5,70.25a.26.26,0,0,1-.17-.07.24.24,0,0,1,0-.36.25.25,0,0,1,.34,0,.23.23,0,0,1,.08.18.26.26,0,0,1-.07.18A.27.27,0,0,1,62.5,70.25Z"/><path class="cls-2" d="M60.75,65.75a.26.26,0,0,1-.17-.07.24.24,0,0,1,0-.36.26.26,0,0,1,.35,0,.26.26,0,0,1,.07.18.26.26,0,0,1-.25.25Z"/><path class="cls-2" d="M52.75,69.75a.26.26,0,0,1-.17-.07.24.24,0,0,1,0-.36.26.26,0,0,1,.35,0,.26.26,0,0,1,.07.18.26.26,0,0,1-.25.25Z"/><path class="cls-2" d="M44.75,66.5a.24.24,0,0,1-.17-.07.24.24,0,0,1,0-.36.26.26,0,0,1,.35,0,.24.24,0,0,1,.07.18.22.22,0,0,1-.07.17A.25.25,0,0,1,44.75,66.5Z"/><path class="cls-2" d="M44.5,71.25a.28.28,0,0,1-.17-.07.24.24,0,0,1,0-.36.26.26,0,0,1,.35,0,.27.27,0,0,1,0,.36A.26.26,0,0,1,44.5,71.25Z"/><path class="cls-2" d="M28.5,71.25a.25.25,0,0,1-.18-.08.24.24,0,0,1-.07-.17.25.25,0,0,1,.08-.18.26.26,0,0,1,.35,0,.27.27,0,0,1,0,.36A.27.27,0,0,1,28.5,71.25Z"/><path class="cls-2" d="M.75,29.5a.26.26,0,0,1-.17-.07.27.27,0,0,1-.08-.18.25.25,0,0,1,.08-.18.26.26,0,0,1,.35,0,.29.29,0,0,1,.07.18.24.24,0,0,1-.25.25Z"/><path class="cls-2" d="M24.5,1a.23.23,0,0,1-.17-.07.27.27,0,0,1-.08-.18.29.29,0,0,1,.07-.18.27.27,0,0,1,.36,0,.29.29,0,0,1,.07.18.21.21,0,0,1-.07.17A.22.22,0,0,1,24.5,1Z"/><path class="cls-2" d="M13.25,5a.29.29,0,0,1-.18-.07A.31.31,0,0,1,13,4.75a.29.29,0,0,1,.07-.18.27.27,0,0,1,.36,0,.24.24,0,0,1,.07.18.26.26,0,0,1-.25.25Z"/><path class="cls-2" d="M71,35.25a.26.26,0,0,1-.17-.07.24.24,0,0,1,0-.36.27.27,0,0,1,.35,0,.25.25,0,0,1-.18.43Z"/></pattern></defs><title>placenta</title><g id="Layer_2" data-name="Layer 2"><g id="Layer_1-2" data-name="Layer 1"><g class="cls-3"><circle class="cls-4" cx="119.93" cy="119.93" r="119.92"/><path class="cls-5" d="M119.52,15.86S92,8.33,77.63,18.42,56.5,33,55.29,46.87s-2.36,38.18.9,52.19S63.33,146,69.72,156s16.2,42.68,54.52,47.16,26.66,8,33-2.81,9-34.37,9-34.37,15.5-35.44,13.82-44.88-32.68-83-35.41-85.82S119.52,15.86,119.52,15.86Z" transform="translate(5.92 5.92)"/><path class="cls-6" d="M52.55,67.28c.11.46.24.91.37,1.36,3-35.21,25-48.44,25.68-49.34s9-5.33,20.93-3.73,17.78,8,21.83,9.24,2.45,4.17,11.83,14.38,2.14,8.92,5.41,17.5.18,13.9-.94,14.24-5.8,8.56-6.81,14.25,1.1,8.73,1.1,8.73-.62,9.49,1.87,10.47,2.27,5.21,3.54,7,1.48,6.66-1.14,9.39-2.72,3.25-6,3.73-3.9.91-4.42.82-7.62-5.1-8.14-5.19-6.26-3.79-6.26-3.79L107.19,122c2,.89,5.14,4.12,5.14,4.12s6.11,1.63,7.9,3.55,10,6.59,14.1,4.65,5.49-3.82,8.53-5.95,4.25-8.84,5.36-15-3.32-11.27-5.54-13.8-3-6.94-4.87-11.54,5.41-12.37,7.42-14.67,6-9.6,7.72-10.36,5.46,5.24,7.16,7.68,4.71,18.44,5.52,22.86c.09.47.18,1.19.26,2.09a3.93,3.93,0,0,1,3.05-.75c-.19-5.77-.45-9.92-.83-10.77-1.51-3.47-8.38-21.77-12.38-26.22s-7.35-6.64-11.6-12.74-16.47-24.28-19.9-26-13.37-8.79-18.11-9.1-19.26.3-21.51,1S72.7,18,71.11,20.9s-16.54,12-18.58,38.29c0,0,0,3.15,0,8Z" transform="translate(5.92 5.92)"/><path class="cls-7" d="M97.82,185.56s-8.44-10.46-9.49-13.12-18.16-23.26-18.66-26-4.59-19.14-.74-24.68,4.33-7.62,4-9.28a11.58,11.58,0,0,0-2.33-5c-1.07-1.23-13-16.77,1.69-30.25S110.74,72,115.68,89.93c0,0,3.35,9.1.31,12.78s-.21,5.17-.11,5.73,3.43,4.8,2.75,5.77l-.46.66s3.93-3.56,3-5.67-3.18-6.56-2.57-9.52,3-3.69,3.21-1.15A6.69,6.69,0,0,0,123,102.3a4.8,4.8,0,0,0-1.52-6.86c-1.4-1.46,4.48-3.66,9.48,5.14S118.06,138,118.06,138s-2.82,6.5-.57,9.51,2.32-6.12,2.78-6.77,4.43-7.07,11.5-2.64a160.49,160.49,0,0,1,14.44,10.52s.41-4.07-1.32-5.76,1-4.16,2-2.93c0,0-.27-3.09,1.36-2a3.91,3.91,0,0,0,2.08.48c1.43,0,6.75,4.21,6.19,10.58s-1,10.45-1,10.45,2.31.15,2,3.34-4.63,12.24-5.87,13.32-3.62,5.22-5.45,3-3.43-4.8-4.84-6.26a30.73,30.73,0,0,1-3-4s3.29,11.95,1.13,15.77-10.5,14.46-21.06,10.5A179.72,179.72,0,0,1,97.82,185.56Z" transform="translate(5.92 5.92)"/><path class="cls-8" d="M119.13,113.84S110.75,125.9,110.2,126s-8.79-1.27-11.75-1.88-10.13-5.59-12.57-4.86" transform="translate(5.92 5.92)"/><path class="cls-8" d="M116.85,140.77s-25.48-3.68-26.71-2.6" transform="translate(5.92 5.92)"/><path class="cls-9" d="M118.06,172.79s.09-23.14,1.26-26.19" transform="translate(5.92 5.92)"/><path class="cls-8" d="M138.17,168.88s-6-12.89-4-24.09" transform="translate(5.92 5.92)"/><path class="cls-8" d="M146.89,162.21s-11.13-8.3-12.56-8.33" transform="translate(5.92 5.92)"/><path class="cls-8" d="M93.4,111.91s-.08,4.3-2.27,3.26-7.47-6.64-7.21-8.39.49-8.36,5.6-5.29" transform="translate(5.92 5.92)"/><path class="cls-10" d="M62.82,45.05s14.07-9,23.07-6,22,20,27,21,15,12,17,17,5.44,8.67,11.22,1.33C142.89,76,174.89,103,172.89,125c0,0,10.25-53.27-53.37-109.14C99.89,1,56,24.22,56.93,41.61S62.82,45.05,62.82,45.05Z" transform="translate(5.92 5.92)"/><path class="cls-11" d="M62.82,45.05s14.07-9,23.07-6,22,20,27,21,15,12,17,17,5.44,8.67,11.22,1.33C142.89,76,174.89,103,172.89,125c0,0,10.25-53.27-53.37-109.14C99.89,1,56,24.22,56.93,41.61S62.82,45.05,62.82,45.05Z" transform="translate(5.92 5.92)"/><path class="cls-12" d="M106.76,7.68c1.47-.31,27.63.29,41.38,21.9S168,75.64,179,98.28s-5,60-6.24,66.26S159.72,192,161.52,206.28s-18.08,2.89-17.31-8,4.66-8.56,6.57-11.87,29.6-53.88,20.35-78.13-17-38-21.45-47.48-13.39-32.25-43.87-40.22S57,50.79,58.14,61.13,64.27,96,63.56,101.34s2,45.54,12.79,58.42,20,33.3,33.52,34.74,36.57.56,39.7,19.05c.83,6.1-6.74,7.24-15.93,0s-30-11-37.07-14.55-38.94-29.92-42.4-63-.58-44.15-3.6-51.17S28.93,33.74,79,10.47C97.19,5.87,106.76,7.68,106.76,7.68Z" transform="translate(5.92 5.92)"/></g><path d="M113.88,1c3,0,6,.12,8.94.35a113,113,0,0,1,67.74,195.77A112.55,112.55,0,0,1,114.13,227c-3,0-6-.12-8.94-.35A113,113,0,0,1,37.45,30.89,112.55,112.55,0,0,1,113.88,1m0-1a114,114,0,0,0-8.77,227.66q4.55.34,9,.35A114,114,0,0,0,122.9.35q-4.55-.34-9-.35Z" transform="translate(5.92 5.92)"/><path class="cls-13" d="M149.57,213.55c-3.13-18.49-26.23-17.6-39.7-19.05s-22.69-21.86-33.52-34.74S62.86,106.7,63.56,101.34s-4.31-29.88-5.42-40.21,17.19-48.51,47.67-40.54,39.42,30.74,43.87,40.22,12.2,23.24,21.45,47.48-18.44,74.82-20.35,78.13-5.8,1-6.57,11.87a5.76,5.76,0,0,0,1.76,5.47" transform="translate(5.92 5.92)"/><ellipse class="cls-6" cx="134.97" cy="77.27" rx="1.5" ry="2.21" transform="translate(-10.21 46.38) rotate(-16.1)"/></g></g></svg>